<svg width="192" height="224" viewBox="0 0 192 224" fill="none" xmlns="http://www.w3.org/2000/svg">
<path d="M41.17 27.6649L55.67 52.7797C57.42 55.8108 57.304 57.6098 57.304 57.6098C57.304 57.6098 59.42 59.2749 61.17 62.306L78.17 91.7508C79.92 94.7819 79.804 96.5809 79.804 96.5809C79.804 96.5809 81.92 98.246 83.67 101.277L101.17 131.588C102.67 134.186 102.804 136.418 102.804 136.418C102.804 136.418 104.92 138.083 106.67 141.114L125.17 173.157C126.92 176.188 126.804 177.987 126.804 177.987C126.804 177.987 128.92 179.652 130.42 182.25L139.67 198.272C141.42 201.303 141.304 203.102 141.304 203.102C141.304 203.102 144.286 204.267 147.75 202.267C151.214 200.267 151.696 197.102 151.696 197.102C151.696 197.102 150.08 196.303 148.33 193.272L139.08 177.25C137.58 174.652 137.196 171.987 137.196 171.987C137.196 171.987 135.58 171.188 133.83 168.157L115.33 136.114C113.58 133.083 113.196 130.418 113.196 130.418C113.196 130.418 111.33 129.186 109.83 126.588L92.3302 96.2771C90.5802 93.246 90.1963 90.5809 90.1963 90.5809C90.1963 90.5809 88.5802 89.7819 86.8302 86.7508L69.8302 57.306C68.0802 54.2749 67.6963 51.6098 67.6963 51.6098C67.6963 51.6098 66.0802 50.8108 64.3302 47.7797L49.8302 22.6649M41.17 27.6649C41.17 27.6649 43.2858 29.3301 46.7499 27.3301C50.214 25.3301 49.8302 22.6649 49.8302 22.6649M41.17 27.6649C41.17 27.6649 40.7858 25 44.2499 23C47.714 21 49.8302 22.6649 49.8302 22.6649" stroke="black" stroke-width="2"/>
<circle r="2" transform="matrix(0.866025 -0.500001 0.499999 0.866026 139 187.112)" fill="black"/>
<circle cx="126.5" cy="165.461" r="2" transform="rotate(-30 126.5 165.461)" fill="black"/>
<circle cx="119.5" cy="153.337" r="2" transform="rotate(-30 119.5 153.337)" fill="black"/>
<circle r="2" transform="matrix(0.866025 -0.500001 0.499999 0.866026 112.5 141.212)" fill="black"/>
<circle cx="105.5" cy="129.088" r="2" transform="rotate(-30 105.5 129.088)" fill="black"/>
<circle cx="98.5001" cy="116.964" r="2" transform="rotate(-30 98.5001 116.964)" fill="black"/>
<circle cx="91.5001" cy="104.839" r="2" transform="rotate(-30 91.5001 104.839)" fill="black"/>
<path d="M56.4822 40.1865C57.7322 42.3515 57.2067 43.2322 56.2501 43.7845C55.2935 44.3368 54.2681 44.3515 53.0181 42.1865C51.7681 40.0214 52.2935 39.1407 53.2501 38.5884C54.2067 38.0361 55.2322 38.0214 56.4822 40.1865Z" fill="black"/>
<path d="M103.237 136.168C103.237 136.168 105.536 137.15 109 135.15C112.464 133.15 112.763 130.668 112.763 130.668" stroke="black"/>
<path d="M127.237 177.737C127.237 177.737 129.536 178.719 133 176.719C136.464 174.719 136.763 172.237 136.763 172.237" stroke="black"/>
<path d="M80.2371 96.3308C80.2371 96.3308 82.5361 97.3129 86.0002 95.3129C89.4643 93.3129 89.7633 90.8308 89.7633 90.8308" stroke="black"/>
<path d="M57.7371 57.3597C57.7371 57.3597 60.0361 58.3418 63.5002 56.3418C66.9643 54.3418 67.2633 51.8597 67.2633 51.8597" stroke="black"/>
<path d="M46.75 27.33C50.2141 25.33 49.8303 22.6648 49.8303 22.6648C49.8303 22.6648 47.7141 20.9999 44.25 22.9999C40.7859 24.9999 41.1701 27.6648 41.1701 27.6648C41.1701 27.6648 43.2859 29.33 46.75 27.33Z" fill="black"/>
<path fill-rule="evenodd" clip-rule="evenodd" d="M88.446 87.55L78.446 70.2295C78.446 70.2295 77.714 72.9615 74.2499 74.9615C70.7858 76.9615 68.0537 76.2295 68.0537 76.2295L78.0537 93.55C78.0537 93.55 80.7858 94.282 84.2499 92.2821C87.714 90.2821 88.446 87.55 88.446 87.55ZM80.2141 77.2915L79.2141 75.5595C79.2141 75.5595 78.4151 77.1755 76.25 78.4255C74.0849 79.6755 72.2859 79.5594 72.2859 79.5594L73.2859 81.2915C73.2859 81.2915 75.0849 81.4075 77.2498 80.1576C79.4146 78.9078 80.2141 77.2915 80.2141 77.2915ZM85.2141 85.9518L86.2141 87.6838C86.2141 87.6838 85.4146 89.3001 83.2498 90.55C81.0849 91.7999 79.2859 91.6838 79.2859 91.6838L78.2859 89.9518C78.2859 89.9518 80.0849 90.0678 82.25 88.8178C84.4151 87.5678 85.2141 85.9518 85.2141 85.9518Z" fill="black"/>
</svg>
