<svg width="224" height="224" viewBox="0 0 224 224" fill="none" xmlns="http://www.w3.org/2000/svg">
<path fill-rule="evenodd" clip-rule="evenodd" d="M149 64C137.954 64 129 55.0457 129 44C129 32.9543 137.954 24 149 24C160.046 24 169 32.9543 169 44C169 55.0457 160.046 64 149 64ZM180 103C168.954 103 160 94.0457 160 83C160 71.9543 168.954 63 180 63C191.046 63 200 71.9543 200 83C200 94.0457 191.046 103 180 103ZM111 91C111 102.046 119.954 111 131 111C142.046 111 151 102.046 151 91C151 79.9543 142.046 71 131 71C119.954 71 111 79.9543 111 91Z" fill="#D4F7E5"/>
</svg>
