<svg width="108" height="189" viewBox="0 0 108 189" fill="none" xmlns="http://www.w3.org/2000/svg">
<g clip-path="url(#clip0)">
<path fill-rule="evenodd" clip-rule="evenodd" d="M33.0214 189H34H74H74.9787L74.9998 188.022L77.9998 49.0216L78 49.0108V49C78 43.9199 77.2399 37.8577 76.4878 33.094C76.1107 30.7061 75.7337 28.6326 75.4509 27.1557C75.3095 26.417 75.1915 25.8272 75.1088 25.4213C75.0674 25.2184 75.0348 25.0614 75.0125 24.9548L75 24.8955V24.8928V24.8574V24.8221V24.787V24.752V24.7171V24.6824V24.6478V24.6134V24.5791V24.5449V24.5109V24.477V24.4433V24.4096V24.3762V24.3428V24.3096V24.2766V24.2436V24.2108V24.1782V24.1456V24.1133V24.081V24.0489V24.0169V23.985V23.9533V23.9216V23.8902V23.8588V23.8276V23.7965V23.7656V23.7348V23.7041V23.6735V23.643V23.6127V23.5825V23.5525V23.5225V23.4927V23.463V23.4334V23.404V23.3747V23.3455V23.3164V23.2874V23.2586V23.2299V23.2013V23.1728V23.1445V23.1163V23.0882V23.0602V23.0323V23.0045V22.9769V22.9494V22.922V22.8947V22.8675V22.8404V22.8135V22.7867V22.7599V22.7333V22.7068V22.6805V22.6542V22.628V22.602V22.5761V22.5502V22.5245V22.4989V22.4734V22.4481V22.4228V22.3976V22.3726V22.3476V22.3228V22.298V22.2734V22.2489V22.2244V22.2001V22.1759V22.1518V22.1278V22.1039V22.0801V22.0564V22.0328V22.0093V21.9859V21.9626V21.9394V21.9163V21.8933V21.8704V21.8476V21.8249V21.8023V21.7798V21.7574V21.7351V21.7128V21.6907V21.6687V21.6467V21.6249V21.6032V21.5815V21.56V21.5385V21.5171V21.4958V21.4746V21.4535V21.4325V21.4116V21.3907V21.37V21.3493V21.3288V21.3083V21.2879V21.2676V21.2474V21.2272V21.2072V21.1872V21.1673V21.1475V21.1278V21.1082V21.0886V21.0692V21.0498V21.0305V21.0113V20.9921V20.9731V20.9541V20.9352V20.9164V20.8976V20.879V20.8604V20.8419V20.8235V20.8051V20.7868V20.7686V20.7505V20.7325V20.7145V20.6966V20.6788V20.661V20.6433V20.6257V20.6082V20.5907V20.5733V20.556V20.5387V20.5216V20.5044V20.4874V20.4704V20.4535V20.4367V20.4199V20.4032V20.3866V20.37V20.3535V20.337V20.3206V20.3043V20.2881V20.2719V20.2558V20.2397V20.2237V20.2078V20.1919V20.1761V20.1603V20.1446V20.129V20.1134V20.0979V20.0824V20.067V20.0517V20.0364V20.0212V20.006V19.9909V19.9758V19.9608V19.9459V19.931V19.9161V19.9014V19.8866V19.8719V19.8573V19.8427V19.8282V19.8137V19.7993V19.7849V19.7706V19.7563V19.7421V19.7279V19.7137V19.6996V19.6856V19.6716V19.6577V19.6438V19.6299V19.6161V19.6023V19.5886V19.5749V19.5613V19.5477V19.5341V19.5206V19.5072V19.4937V19.4803V19.467V19.4537V19.4404V19.4272V19.414V19.4008V19.3877V19.3746V19.3616V19.3486V19.3356V19.3227V19.3098V19.297V19.2841V19.2713V19.2586V19.2458V19.2331V19.2205V19.2078V19.1952V19.1827V19.1701V19.1576V19.1451V19.1327V19.1203V19.1079V19.0955V19.0832V19.0709V19.0586V19.0463V19.0341V19.0219V19.0097V18.9975V18.9854V18.9733V18.9612V18.9491V18.9371V18.9251V18.9131V18.9011V18.8891V18.8772V18.8653V18.8534V18.8415V18.8297V18.8178V18.806V18.7942V18.7824V18.7706V18.7589V18.7471V18.7354V18.7237V18.712V18.7003V18.6886V18.677V18.6653V18.6537V18.6421V18.6305V18.6189V18.6073V18.5957V18.5842V18.5726V18.5611V18.5495V18.538V18.5265V18.5149V18.5034V18.4919V18.4804V18.4689V18.4574V18.446V18.4345V18.423V18.4115V18.4001V18.3886V18.3771V18.3657V18.3542V18.3428V18.3313V18.3198V18.3084V18.2969V18.2854V18.274V18.2625V18.251V18.2396V18.2281V18.2166V18.2051V18.1936V18.1821V18.1706V18.1591V18.1476V18.1361V18.1246V18.1131V18.1015V18.09V18.0784V18.0668V18.0553V18.0437V18.0321V18.0204V18.0088V17.9972V17.9855V17.9739V17.9622V17.9505V17.9388V17.9271V17.9154V17.9036V17.8919V17.8801V17.8683V17.8565V17.8447V17.8328V17.821V17.8091V17.7972V17.7852V17.7733V17.7614V17.7494V17.7374V17.7253V17.7133V17.7012V17.6891V17.677V17.6649V17.6527V17.6405V17.6283V17.6161V17.6038V17.5915V17.5792V17.5668V17.5545V17.5421V17.5296V17.5172V17.5047V17.4922V17.4796V17.4671V17.4545V17.4418V17.4291V17.4164V17.4037V17.3909V17.3781V17.3653V17.3524V17.3395V17.3266V17.3136V17.3006V17.2875V17.2744V17.2613V17.2481V17.2349V17.2217V17.2084V17.1951V17.1817V17.1684V17.1549V17.1414V17.1279V17.1143V17.1008V17.0871V17.0734V17.0597V17.0459V17.0321V17.0182V17.0043V16.9903V16.9763V16.9623V16.9482V16.934V16.9198V16.9056V16.8913V16.8769V16.8625V16.8481V16.8336V16.8191V16.8045V16.7898V16.7751V16.7604V16.7456V16.7307V16.7158V16.7009V16.6858V16.6708V16.6556V16.6404V16.6252V16.6099V16.5945V16.5791V16.5636V16.5481V16.5325V16.5169V16.5012V16.4854V16.4696V16.4537V16.4377V16.4217V16.4056V16.3895V16.3733V16.357V16.3407V16.3243V16.3078V16.2913V16.2747V16.2581V16.2413V16.2245V16.2077V16.1908V16.1738V16.1567V16.1396V16.1224V16.1051V16.0878V16.0704V16.0529V16.0353V16.0177V16V1.99998V1.1187L74.1257 1.00792L74 1.99998C74.1257 1.00792 74.1256 1.0079 74.1254 1.00789L74.125 1.00783L74.1235 1.00764L74.1185 1.007L74.0997 1.00467L74.0281 0.995941C73.9653 0.988373 73.8725 0.977386 73.7507 0.96347C73.5071 0.935654 73.1471 0.896118 72.6781 0.848785C71.7401 0.754135 70.3656 0.628281 68.6121 0.502548C65.1053 0.251099 60.0812 0 54 0C47.9188 0 42.8947 0.251099 39.3879 0.502548C37.6344 0.628281 36.2599 0.754135 35.3219 0.848785C34.8529 0.896118 34.4929 0.935654 34.2493 0.96347C34.1275 0.977386 34.0347 0.988373 33.9719 0.995941L33.9003 1.00467L33.8815 1.007L33.8765 1.00764L33.875 1.00783L33.8746 1.00789C33.8744 1.0079 33.8743 1.00792 34 1.99998L33.8743 1.00792L33 1.1187V1.99998V16V16.0177V16.0353V16.0529V16.0704V16.0878V16.1051V16.1224V16.1396V16.1567V16.1738V16.1908V16.2077V16.2245V16.2413V16.2581V16.2747V16.2913V16.3078V16.3243V16.3407V16.357V16.3733V16.3895V16.4056V16.4217V16.4377V16.4537V16.4696V16.4854V16.5012V16.5169V16.5325V16.5481V16.5636V16.5791V16.5945V16.6099V16.6252V16.6404V16.6556V16.6708V16.6858V16.7009V16.7158V16.7307V16.7456V16.7604V16.7751V16.7898V16.8045V16.8191V16.8336V16.8481V16.8625V16.8769V16.8913V16.9056V16.9198V16.934V16.9482V16.9623V16.9763V16.9903V17.0043V17.0182V17.0321V17.0459V17.0597V17.0734V17.0871V17.1008V17.1143V17.1279V17.1414V17.1549V17.1684V17.1817V17.1951V17.2084V17.2217V17.2349V17.2481V17.2613V17.2744V17.2875V17.3006V17.3136V17.3266V17.3395V17.3524V17.3653V17.3781V17.3909V17.4037V17.4164V17.4291V17.4418V17.4545V17.4671V17.4796V17.4922V17.5047V17.5172V17.5296V17.5421V17.5545V17.5668V17.5792V17.5915V17.6038V17.6161V17.6283V17.6405V17.6527V17.6649V17.677V17.6891V17.7012V17.7133V17.7253V17.7374V17.7494V17.7614V17.7733V17.7852V17.7972V17.8091V17.821V17.8328V17.8447V17.8565V17.8683V17.8801V17.8919V17.9036V17.9154V17.9271V17.9388V17.9505V17.9622V17.9739V17.9855V17.9972V18.0088V18.0204V18.0321V18.0437V18.0553V18.0668V18.0784V18.09V18.1015V18.1131V18.1246V18.1361V18.1476V18.1591V18.1706V18.1821V18.1936V18.2051V18.2166V18.2281V18.2396V18.251V18.2625V18.274V18.2854V18.2969V18.3084V18.3198V18.3313V18.3428V18.3542V18.3657V18.3771V18.3886V18.4001V18.4115V18.423V18.4345V18.446V18.4574V18.4689V18.4804V18.4919V18.5034V18.5149V18.5265V18.538V18.5495V18.5611V18.5726V18.5842V18.5957V18.6073V18.6189V18.6305V18.6421V18.6537V18.6653V18.677V18.6886V18.7003V18.712V18.7237V18.7354V18.7471V18.7589V18.7706V18.7824V18.7942V18.806V18.8178V18.8297V18.8415V18.8534V18.8653V18.8772V18.8891V18.9011V18.9131V18.9251V18.9371V18.9491V18.9612V18.9733V18.9854V18.9975V19.0097V19.0219V19.0341V19.0463V19.0586V19.0709V19.0832V19.0955V19.1079V19.1203V19.1327V19.1451V19.1576V19.1701V19.1827V19.1952V19.2078V19.2205V19.2331V19.2458V19.2586V19.2713V19.2841V19.297V19.3098V19.3227V19.3356V19.3486V19.3616V19.3746V19.3877V19.4008V19.414V19.4272V19.4404V19.4537V19.467V19.4803V19.4937V19.5072V19.5206V19.5341V19.5477V19.5613V19.5749V19.5886V19.6023V19.6161V19.6299V19.6438V19.6577V19.6716V19.6856V19.6996V19.7137V19.7279V19.7421V19.7563V19.7706V19.7849V19.7993V19.8137V19.8282V19.8427V19.8573V19.8719V19.8866V19.9014V19.9161V19.931V19.9459V19.9608V19.9758V19.9909V20.006V20.0212V20.0364V20.0517V20.067V20.0824V20.0979V20.1134V20.129V20.1446V20.1603V20.1761V20.1919V20.2078V20.2237V20.2397V20.2558V20.2719V20.2881V20.3043V20.3206V20.337V20.3535V20.37V20.3866V20.4032V20.4199V20.4367V20.4535V20.4704V20.4874V20.5044V20.5216V20.5387V20.556V20.5733V20.5907V20.6082V20.6257V20.6433V20.661V20.6788V20.6966V20.7145V20.7325V20.7505V20.7686V20.7868V20.8051V20.8235V20.8419V20.8604V20.879V20.8976V20.9164V20.9352V20.9541V20.9731V20.9921V21.0113V21.0305V21.0498V21.0692V21.0886V21.1082V21.1278V21.1475V21.1673V21.1872V21.2072V21.2272V21.2474V21.2676V21.2879V21.3083V21.3288V21.3493V21.37V21.3907V21.4116V21.4325V21.4535V21.4746V21.4958V21.5171V21.5385V21.56V21.5815V21.6032V21.6249V21.6467V21.6687V21.6907V21.7128V21.7351V21.7574V21.7798V21.8023V21.8249V21.8476V21.8704V21.8933V21.9163V21.9394V21.9626V21.9859V22.0093V22.0328V22.0564V22.0801V22.1039V22.1278V22.1518V22.1759V22.2001V22.2244V22.2489V22.2734V22.298V22.3228V22.3476V22.3726V22.3976V22.4228V22.4481V22.4734V22.4989V22.5245V22.5502V22.5761V22.602V22.628V22.6542V22.6805V22.7068V22.7333V22.7599V22.7867V22.8135V22.8404V22.8675V22.8947V22.922V22.9494V22.9769V23.0045V23.0323V23.0602V23.0882V23.1163V23.1445V23.1728V23.2013V23.2299V23.2586V23.2874V23.3164V23.3455V23.3747V23.404V23.4334V23.463V23.4927V23.5225V23.5525V23.5825V23.6127V23.643V23.6735V23.7041V23.7348V23.7656V23.7965V23.8276V23.8588V23.8902V23.9216V23.9533V23.985V24.0169V24.0489V24.081V24.1133V24.1456V24.1782V24.2108V24.2436V24.2766V24.3096V24.3428V24.3762V24.4096V24.4433V24.477V24.5109V24.5449V24.5791V24.6134V24.6478V24.6824V24.7171V24.752V24.787V24.8221V24.8574V24.8928V24.8955L32.9875 24.9548C32.9652 25.0614 32.9326 25.2184 32.8913 25.4213C32.8085 25.8272 32.6905 26.417 32.5491 27.1557C32.2663 28.6326 31.8893 30.7061 31.5122 33.094C30.7601 37.8577 30 43.9199 30 49V49.0108L30.0002 49.0216L33.0002 188.022L33.0214 189ZM35 2.89287C35.1546 2.87639 35.329 2.85823 35.5227 2.83868C36.4428 2.74583 37.798 2.62169 39.531 2.49744C42.9972 2.24889 47.9731 2 54 2C60.0269 2 65.0028 2.24889 68.469 2.49744C70.202 2.62169 71.5572 2.74583 72.4773 2.83868C72.671 2.85823 72.8454 2.87639 73 2.89287V14.8927C72.8558 14.8788 72.6985 14.8639 72.5284 14.848C71.5136 14.7536 70.0462 14.628 68.2312 14.5024C64.6021 14.2512 59.5783 14 54 14C48.4217 14 43.3979 14.2512 39.7688 14.5024C37.9538 14.628 36.4864 14.7536 35.4716 14.848C35.3015 14.8639 35.1442 14.8788 35 14.8927V2.89287ZM35 16.9022C35.1904 16.8835 35.4099 16.8624 35.6568 16.8394C36.6577 16.7463 38.1093 16.622 39.9069 16.4976C43.503 16.2487 48.4792 16 54 16C59.5208 16 64.497 16.2487 68.0931 16.4976C69.8907 16.622 71.3423 16.7463 72.3432 16.8394C72.5901 16.8624 72.8096 16.8835 73 16.9022V16.9056V16.9198V16.934V16.9482V16.9623V16.9763V16.9903V17.0043V17.0182V17.0321V17.0459V17.0597V17.0734V17.0871V17.1008V17.1143V17.1279V17.1414V17.1549V17.1684V17.1817V17.1951V17.2084V17.2217V17.2349V17.2481V17.2613V17.2744V17.2875V17.3006V17.3136V17.3266V17.3395V17.3524V17.3653V17.3781V17.3909V17.4037V17.4164V17.4291V17.4418V17.4545V17.4671V17.4796V17.4922V17.5047V17.5172V17.5296V17.5421V17.5545V17.5668V17.5792V17.5915V17.6038V17.6161V17.6283V17.6405V17.6527V17.6649V17.677V17.6891V17.7012V17.7133V17.7253V17.7374V17.7494V17.7614V17.7733V17.7852V17.7972V17.8091V17.821V17.8328V17.8447V17.8565V17.8683V17.8801V17.8919V17.9036V17.9154V17.9271V17.9388V17.9505V17.9622V17.9739V17.9855V17.9972V18.0088V18.0204V18.0321V18.0437V18.0553V18.0668V18.0784V18.09V18.1015V18.1131V18.1246V18.1361V18.1476V18.1591V18.1706V18.1821V18.1936V18.2051V18.2166V18.2281V18.2396V18.251V18.2625V18.274V18.2854V18.2969V18.3084V18.3198V18.3313V18.3428V18.3542V18.3657V18.3771V18.3886V18.4001V18.4115V18.423V18.4345V18.446V18.4574V18.4689V18.4804V18.4919V18.5034V18.5149V18.5265V18.538V18.5495V18.5611V18.5726V18.5842V18.5957V18.6073V18.6189V18.6305V18.6421V18.6537V18.6653V18.677V18.6886V18.7003V18.712V18.7237V18.7354V18.7471V18.7589V18.7706V18.7824V18.7942V18.806V18.8178V18.8297V18.8415V18.8534V18.8653V18.8772V18.8891V18.9011V18.9131V18.9251V18.9371V18.9491V18.9612V18.9733V18.9854V18.9975V19.0097V19.0219V19.0341V19.0463V19.0586V19.0709V19.0832V19.0955V19.1079V19.1203V19.1327V19.1451V19.1576V19.1701V19.1827V19.1952V19.2078V19.2205V19.2331V19.2458V19.2586V19.2713V19.2841V19.297V19.3098V19.3227V19.3356V19.3486V19.3616V19.3746V19.3877V19.4008V19.414V19.4272V19.4404V19.4537V19.467V19.4803V19.4937V19.5072V19.5206V19.5341V19.5477V19.5613V19.5749V19.5886V19.6023V19.6161V19.6299V19.6438V19.6577V19.6716V19.6856V19.6996V19.7137V19.7279V19.7421V19.7563V19.7706V19.7849V19.7993V19.8137V19.8282V19.8427V19.8573V19.8719V19.8866V19.9014V19.9161V19.931V19.9459V19.9608V19.9758V19.9909V20.006V20.0212V20.0364V20.0517V20.067V20.0824V20.0979V20.1134V20.129V20.1446V20.1603V20.1761V20.1919V20.2078V20.2237V20.2397V20.2558V20.2719V20.2881V20.3043V20.3206V20.337V20.3535V20.37V20.3866V20.4032V20.4199V20.4367V20.4535V20.4704V20.4874V20.5044V20.5216V20.5387V20.556V20.5733V20.5907V20.6082V20.6257V20.6433V20.661V20.6788V20.6966V20.7145V20.7325V20.7505V20.7686V20.7868V20.8051V20.8235V20.8419V20.8604V20.879V20.8976V20.9164V20.9352V20.9541V20.9731V20.9921V21.0113V21.0305V21.0498V21.0692V21.0886V21.1082V21.1278V21.1475V21.1673V21.1872V21.2072V21.2272V21.2474V21.2676V21.2879V21.3083V21.3288V21.3493V21.37V21.3907V21.4116V21.4325V21.4535V21.4746V21.4958V21.5171V21.5385V21.56V21.5815V21.6032V21.6249V21.6467V21.6687V21.6907V21.7128V21.7351V21.7574V21.7798V21.8023V21.8249V21.8476V21.8704V21.8933V21.9163V21.9394V21.9626V21.9859V22.0093V22.0328V22.0564V22.0801V22.1039V22.1278V22.1518V22.1759V22.2001V22.2244V22.2489V22.2734V22.298V22.3228V22.3476V22.3726V22.3976V22.4228V22.4481V22.4734V22.4989V22.5245V22.5502V22.5761V22.602V22.628V22.6542V22.6805V22.7068V22.7333V22.7599V22.7867V22.8135V22.8404V22.8675V22.8947V22.922V22.9494V22.9769V23.0045V23.0323V23.0602V23.0882V23.1163V23.1445V23.1728V23.2013V23.2299V23.2586V23.2874V23.3164V23.3455V23.3747V23.404V23.4334V23.463V23.4927V23.5225V23.5525V23.5825V23.6127V23.643V23.6735V23.7041V23.7348V23.7656V23.7965V23.8276V23.8588V23.8902V23.9104C72.7718 23.8915 72.5109 23.8702 72.2204 23.8469C71.0444 23.7528 69.3829 23.6275 67.4394 23.5021C63.5559 23.2515 58.5314 23 54 23C49.4686 23 44.4441 23.2515 40.5606 23.5021C38.6171 23.6275 36.9556 23.7528 35.7796 23.8469C35.4891 23.8702 35.2282 23.8915 35 23.9104V23.8902V23.8588V23.8276V23.7965V23.7656V23.7348V23.7041V23.6735V23.643V23.6127V23.5825V23.5525V23.5225V23.4927V23.463V23.4334V23.404V23.3747V23.3455V23.3164V23.2874V23.2586V23.2299V23.2013V23.1728V23.1445V23.1163V23.0882V23.0602V23.0323V23.0045V22.9769V22.9494V22.922V22.8947V22.8675V22.8404V22.8135V22.7867V22.7599V22.7333V22.7068V22.6805V22.6542V22.628V22.602V22.5761V22.5502V22.5245V22.4989V22.4734V22.4481V22.4228V22.3976V22.3726V22.3476V22.3228V22.298V22.2734V22.2489V22.2244V22.2001V22.1759V22.1518V22.1278V22.1039V22.0801V22.0564V22.0328V22.0093V21.9859V21.9626V21.9394V21.9163V21.8933V21.8704V21.8476V21.8249V21.8023V21.7798V21.7574V21.7351V21.7128V21.6907V21.6687V21.6467V21.6249V21.6032V21.5815V21.56V21.5385V21.5171V21.4958V21.4746V21.4535V21.4325V21.4116V21.3907V21.37V21.3493V21.3288V21.3083V21.2879V21.2676V21.2474V21.2272V21.2072V21.1872V21.1673V21.1475V21.1278V21.1082V21.0886V21.0692V21.0498V21.0305V21.0113V20.9921V20.9731V20.9541V20.9352V20.9164V20.8976V20.879V20.8604V20.8419V20.8235V20.8051V20.7868V20.7686V20.7505V20.7325V20.7145V20.6966V20.6788V20.661V20.6433V20.6257V20.6082V20.5907V20.5733V20.556V20.5387V20.5216V20.5044V20.4874V20.4704V20.4535V20.4367V20.4199V20.4032V20.3866V20.37V20.3535V20.337V20.3206V20.3043V20.2881V20.2719V20.2558V20.2397V20.2237V20.2078V20.1919V20.1761V20.1603V20.1446V20.129V20.1134V20.0979V20.0824V20.067V20.0517V20.0364V20.0212V20.006V19.9909V19.9758V19.9608V19.9459V19.931V19.9161V19.9014V19.8866V19.8719V19.8573V19.8427V19.8282V19.8137V19.7993V19.7849V19.7706V19.7563V19.7421V19.7279V19.7137V19.6996V19.6856V19.6716V19.6577V19.6438V19.6299V19.6161V19.6023V19.5886V19.5749V19.5613V19.5477V19.5341V19.5206V19.5072V19.4937V19.4803V19.467V19.4537V19.4404V19.4272V19.414V19.4008V19.3877V19.3746V19.3616V19.3486V19.3356V19.3227V19.3098V19.297V19.2841V19.2713V19.2586V19.2458V19.2331V19.2205V19.2078V19.1952V19.1827V19.1701V19.1576V19.1451V19.1327V19.1203V19.1079V19.0955V19.0832V19.0709V19.0586V19.0463V19.0341V19.0219V19.0097V18.9975V18.9854V18.9733V18.9612V18.9491V18.9371V18.9251V18.9131V18.9011V18.8891V18.8772V18.8653V18.8534V18.8415V18.8297V18.8178V18.806V18.7942V18.7824V18.7706V18.7589V18.7471V18.7354V18.7237V18.712V18.7003V18.6886V18.677V18.6653V18.6537V18.6421V18.6305V18.6189V18.6073V18.5957V18.5842V18.5726V18.5611V18.5495V18.538V18.5265V18.5149V18.5034V18.4919V18.4804V18.4689V18.4574V18.446V18.4345V18.423V18.4115V18.4001V18.3886V18.3771V18.3657V18.3542V18.3428V18.3313V18.3198V18.3084V18.2969V18.2854V18.274V18.2625V18.251V18.2396V18.2281V18.2166V18.2051V18.1936V18.1821V18.1706V18.1591V18.1476V18.1361V18.1246V18.1131V18.1015V18.09V18.0784V18.0668V18.0553V18.0437V18.0321V18.0204V18.0088V17.9972V17.9855V17.9739V17.9622V17.9505V17.9388V17.9271V17.9154V17.9036V17.8919V17.8801V17.8683V17.8565V17.8447V17.8328V17.821V17.8091V17.7972V17.7852V17.7733V17.7614V17.7494V17.7374V17.7253V17.7133V17.7012V17.6891V17.677V17.6649V17.6527V17.6405V17.6283V17.6161V17.6038V17.5915V17.5792V17.5668V17.5545V17.5421V17.5296V17.5172V17.5047V17.4922V17.4796V17.4671V17.4545V17.4418V17.4291V17.4164V17.4037V17.3909V17.3781V17.3653V17.3524V17.3395V17.3266V17.3136V17.3006V17.2875V17.2744V17.2613V17.2481V17.2349V17.2217V17.2084V17.1951V17.1817V17.1684V17.1549V17.1414V17.1279V17.1143V17.1008V17.0871V17.0734V17.0597V17.0459V17.0321V17.0182V17.0043V16.9903V16.9763V16.9623V16.9482V16.934V16.9198V16.9056V16.9022ZM34.8284 25.9318C34.7487 26.3246 34.6407 26.8668 34.5134 27.5318C34.2337 28.9923 33.8607 31.0439 33.4877 33.406C32.7404 38.1388 32.0011 44.0715 32 48.9892L32 49L32.9731 94.0818C33.136 94.1099 33.3505 94.1438 33.6102 94.1777C33.884 94.2135 34.077 94.4645 34.0412 94.7383C34.0054 95.0121 33.7544 95.2051 33.4806 95.1693C33.2976 95.1454 33.1351 95.1214 32.995 95.0991L34.3776 159.151C34.4439 159.161 34.5141 159.171 34.5881 159.181C34.8617 159.218 35.0535 159.47 35.0164 159.744C34.9793 160.017 34.7274 160.209 34.4538 160.172L34.3994 160.165L34.9787 187H73.0214L74.6004 113.845L74.556 113.839L74.4949 113.83L74.4119 113.819C74.1383 113.782 73.9465 113.53 73.9836 113.256C74.0207 112.983 74.2726 112.791 74.5462 112.828L74.6221 112.838L76 49V48.9892L75.9999 48.9136C75.8406 48.8864 75.6354 48.8544 75.3898 48.8223C75.116 48.7865 74.923 48.5355 74.9588 48.2617C74.9946 47.9879 75.2456 47.7949 75.5194 47.8307C75.6952 47.8537 75.852 47.8767 75.9883 47.8983C75.8911 43.2128 75.205 37.7938 74.5122 33.406C74.1393 31.0439 73.7663 28.9923 73.4866 27.5318C73.3593 26.8668 73.2513 26.3246 73.1716 25.9318C72.8787 25.9071 72.5048 25.8761 72.0609 25.8405C70.8931 25.7471 69.2421 25.6225 67.3106 25.4979C63.4441 25.2485 58.4686 25 54 25C49.5314 25 44.5559 25.2485 40.6894 25.4979C38.7579 25.6225 37.1069 25.7471 35.9391 25.8405C35.4952 25.8761 35.1213 25.9071 34.8284 25.9318ZM72.7506 48.148C72.7567 48.4241 72.5379 48.6528 72.2618 48.6589C71.6158 48.6732 70.9186 48.7182 70.1879 48.8089C69.9138 48.843 69.6641 48.6484 69.63 48.3744C69.596 48.1003 69.7906 47.8506 70.0646 47.8166C70.8323 47.7212 71.5634 47.6741 72.2397 47.6592C72.5158 47.6531 72.7445 47.8719 72.7506 48.148ZM67.4719 48.8252C67.5521 49.0895 67.4028 49.3687 67.1385 49.4488C66.495 49.6439 65.8453 49.8827 65.1987 50.1733C64.9468 50.2864 64.6509 50.174 64.5377 49.9221C64.4245 49.6703 64.5369 49.3743 64.7888 49.2611C65.477 48.9519 66.1669 48.6984 66.8484 48.4918C67.1126 48.4117 67.3918 48.561 67.4719 48.8252ZM62.63 51.0264C62.7927 51.2495 62.7438 51.5622 62.5207 51.725C61.9807 52.1189 61.4526 52.5612 60.9426 53.0574C60.7447 53.2499 60.4281 53.2456 60.2356 53.0477C60.043 52.8497 60.0473 52.5332 60.2453 52.3406C60.7899 51.8108 61.3542 51.3382 61.9314 50.9171C62.1545 50.7544 62.4672 50.8033 62.63 51.0264ZM58.8242 54.7339C59.0521 54.8899 59.1104 55.201 58.9545 55.4289C58.5797 55.9767 58.223 56.5682 57.8884 57.2069C57.7603 57.4515 57.4581 57.5459 57.2135 57.4177C56.9689 57.2896 56.8745 56.9874 57.0026 56.7428C57.355 56.0701 57.7318 55.445 58.1292 54.8642C58.2851 54.6363 58.5963 54.578 58.8242 54.7339ZM56.3484 59.4405C56.6093 59.5309 56.7476 59.8157 56.6572 60.0766C56.4378 60.7102 56.2367 61.3787 56.0559 62.0841C55.9874 62.3516 55.715 62.5129 55.4475 62.4443C55.18 62.3758 55.0187 62.1034 55.0872 61.8359C55.2745 61.1048 55.4836 60.4099 55.7123 59.7494C55.8027 59.4884 56.0875 59.3502 56.3484 59.4405ZM55.0171 64.6022C55.2902 64.6431 55.4785 64.8977 55.4376 65.1708C55.3373 65.8409 55.253 66.538 55.1861 67.2633C55.1607 67.5382 54.9172 67.7406 54.6423 67.7152C54.3673 67.6898 54.165 67.4463 54.1903 67.1714C54.2589 66.4281 54.3454 65.7122 54.4486 65.0227C54.4895 64.7496 54.744 64.5614 55.0171 64.6022ZM54.5219 69.9094C54.798 69.9153 55.0171 70.1438 55.0113 70.4199C55.0038 70.7742 55 71.1342 55 71.5C55 71.8727 54.9961 72.2398 54.9885 72.6012C54.9827 72.8773 54.7542 73.0964 54.4781 73.0906C54.202 73.0847 53.9829 72.8562 53.9887 72.5801C53.9962 72.2258 54 71.8658 54 71.5C54 71.1273 54.0039 70.7602 54.0115 70.3988C54.0173 70.1227 54.2458 69.9036 54.5219 69.9094ZM54.3577 75.2848C54.6327 75.3102 54.835 75.5536 54.8097 75.8286C54.7411 76.5719 54.6546 77.2878 54.5514 77.9773C54.5105 78.2504 54.256 78.4386 53.9829 78.3977C53.7098 78.3569 53.5215 78.1023 53.5624 77.8292C53.6627 77.1591 53.747 76.462 53.8139 75.7367C53.8393 75.4617 54.0828 75.2594 54.3577 75.2848ZM53.5525 80.5557C53.82 80.6242 53.9813 80.8966 53.9128 81.1641C53.7255 81.8952 53.5164 82.5901 53.2877 83.2506C53.1973 83.5116 52.9125 83.6498 52.6516 83.5595C52.3907 83.4691 52.2524 83.1843 52.3428 82.9234C52.5622 82.2898 52.7633 81.6213 52.9441 80.9159C53.0126 80.6484 53.285 80.4871 53.5525 80.5557ZM51.7865 85.5823C52.0311 85.7104 52.1255 86.0126 51.9974 86.2572C51.645 86.9298 51.2682 87.555 50.8708 88.1358C50.7149 88.3637 50.4037 88.422 50.1758 88.2661C49.9479 88.1101 49.8896 87.799 50.0455 87.5711C50.4203 87.0233 50.777 86.4318 51.1116 85.7931C51.2398 85.5485 51.5419 85.4541 51.7865 85.5823ZM48.7645 89.9523C48.957 90.1503 48.9527 90.4668 48.7547 90.6594C48.2101 91.1892 47.6458 91.6618 47.0686 92.0829C46.8455 92.2456 46.5328 92.1967 46.37 91.9736C46.2073 91.7505 46.2562 91.4377 46.4793 91.275C47.0193 90.8811 47.5474 90.4388 48.0574 89.9426C48.2553 89.75 48.5719 89.7544 48.7645 89.9523ZM44.4623 93.0779C44.5755 93.3297 44.4631 93.6257 44.2112 93.7389C43.523 94.0481 42.8331 94.3016 42.1516 94.5082C41.8874 94.5883 41.6082 94.439 41.5281 94.1748C41.4479 93.9105 41.5972 93.6313 41.8615 93.5512C42.505 93.3561 43.1547 93.1173 43.8013 92.8267C44.0532 92.7135 44.3491 92.826 44.4623 93.0779ZM39.37 94.6256C39.404 94.8996 39.2094 95.1494 38.9354 95.1834C38.1677 95.2788 37.4366 95.3259 36.7603 95.3408C36.4842 95.3469 36.2555 95.1281 36.2494 94.852C36.2433 94.5759 36.4621 94.3472 36.7382 94.3411C37.3842 94.3268 38.0814 94.2818 38.8121 94.1911C39.0862 94.157 39.3359 94.3516 39.37 94.6256ZM71.3599 113.661C71.6359 113.654 71.8534 113.424 71.8456 113.147C71.8379 112.871 71.6078 112.654 71.3318 112.662C70.6676 112.68 69.9499 112.733 69.1972 112.838C68.9237 112.876 68.7327 113.128 68.7706 113.402C68.8084 113.675 69.0609 113.866 69.3344 113.828C70.0473 113.729 70.7284 113.679 71.3599 113.661ZM66.3713 114.514C66.6333 114.426 66.7749 114.143 66.6877 113.881C66.6004 113.619 66.3173 113.478 66.0553 113.565C65.3939 113.785 64.7253 114.055 64.0598 114.382C63.812 114.504 63.7101 114.804 63.8321 115.052C63.9541 115.3 64.2538 115.401 64.5015 115.279C65.1237 114.973 65.75 114.721 66.3713 114.514ZM61.951 116.896C62.1669 116.724 62.2023 116.409 62.0301 116.193C61.8579 115.977 61.5433 115.942 61.3274 116.114C60.7822 116.549 60.2503 117.036 59.7383 117.58C59.549 117.781 59.5585 118.097 59.7596 118.286C59.9606 118.476 60.2771 118.466 60.4664 118.265C60.9455 117.756 61.4423 117.302 61.951 116.896ZM58.6199 120.665C58.7669 120.431 58.6966 120.122 58.4628 119.975C58.229 119.828 57.9204 119.899 57.7734 120.132C57.4066 120.716 57.0595 121.342 56.7353 122.014C56.6153 122.263 56.7197 122.562 56.9684 122.682C57.2171 122.802 57.516 122.697 57.636 122.449C57.9444 121.809 58.2736 121.215 58.6199 120.665ZM56.5109 125.291C56.5951 125.028 56.4501 124.747 56.1871 124.663C55.9241 124.579 55.6427 124.724 55.5585 124.987C55.35 125.638 55.1596 126.322 54.9891 127.041C54.9254 127.309 55.0915 127.579 55.3602 127.643C55.6289 127.706 55.8984 127.54 55.9621 127.272C56.1269 126.577 56.3105 125.917 56.5109 125.291ZM55.3996 130.298C55.4376 130.024 55.2468 129.772 54.9733 129.733C54.6998 129.695 54.4472 129.886 54.4091 130.16C54.3151 130.835 54.2363 131.536 54.1738 132.263C54.1501 132.539 54.354 132.781 54.6291 132.804C54.9042 132.828 55.1464 132.624 55.1701 132.349C55.2312 131.639 55.308 130.955 55.3996 130.298ZM55.0103 135.442C55.0157 135.166 54.7963 134.938 54.5203 134.932C54.2442 134.927 54.0159 135.146 54.0105 135.422C54.0035 135.776 54 136.135 54 136.5C54 136.858 53.9965 137.211 53.9897 137.558C53.9843 137.834 54.2037 138.062 54.4797 138.068C54.7558 138.073 54.9841 137.854 54.9895 137.578C54.9965 137.224 55 136.865 55 136.5C55 136.142 55.0035 135.789 55.0103 135.442ZM54.8262 140.737C54.8499 140.461 54.646 140.219 54.3709 140.196C54.0958 140.172 53.8536 140.376 53.8299 140.651C53.7688 141.361 53.692 142.045 53.6004 142.702C53.5624 142.976 53.7532 143.228 54.0267 143.267C54.3002 143.305 54.5528 143.114 54.5909 142.84C54.6849 142.165 54.7637 141.464 54.8262 140.737ZM54.0109 145.959C54.0746 145.691 53.9085 145.421 53.6398 145.357C53.3711 145.294 53.1016 145.46 53.0379 145.728C52.8731 146.423 52.6895 147.083 52.4891 147.709C52.4049 147.972 52.5499 148.253 52.8129 148.337C53.0759 148.421 53.3573 148.276 53.4415 148.013C53.65 147.362 53.8404 146.678 54.0109 145.959ZM52.2647 150.986C52.3847 150.737 52.2803 150.438 52.0316 150.318C51.7829 150.198 51.484 150.303 51.364 150.551C51.0556 151.191 50.7264 151.785 50.3801 152.335C50.2331 152.569 50.3034 152.878 50.5372 153.025C50.771 153.172 51.0796 153.101 51.2266 152.868C51.5934 152.284 51.9405 151.658 52.2647 150.986ZM49.2617 155.42C49.451 155.219 49.4415 154.903 49.2404 154.714C49.0394 154.524 48.7229 154.534 48.5336 154.735C48.0545 155.244 47.5577 155.698 47.049 156.104C46.8331 156.276 46.7977 156.591 46.9699 156.807C47.1421 157.023 47.4567 157.058 47.6726 156.886C48.2178 156.451 48.7497 155.964 49.2617 155.42ZM44.9402 158.618C45.188 158.496 45.2899 158.196 45.1679 157.948C45.0459 157.7 44.7462 157.599 44.4985 157.721C43.8763 158.027 43.25 158.279 42.6287 158.486C42.3667 158.574 42.2251 158.857 42.3123 159.119C42.3996 159.381 42.6827 159.522 42.9447 159.435C43.6061 159.215 44.2747 158.945 44.9402 158.618ZM39.8028 160.162C40.0763 160.124 40.2673 159.872 40.2294 159.598C40.1916 159.325 39.9391 159.134 39.6656 159.172C38.9527 159.271 38.2716 159.321 37.6401 159.339C37.3641 159.346 37.1466 159.576 37.1544 159.852C37.1621 160.129 37.3922 160.346 37.6682 160.338C38.3324 160.32 39.0501 160.267 39.8028 160.162ZM35 168V166H73V168H35ZM41.5 7.99998C41.5 9.99857 44 8.66121 44 8.66121C42.9091 10.9755 40 9.98362 40 7.99998C40 6.01634 42.9091 5.02454 44 7.33878C44 7.33878 41.5 6.0014 41.5 7.99998ZM66 9.99998C67.1046 9.99998 68 9.10455 68 7.99998C68 6.89542 67.1046 5.99998 66 5.99998C64.8954 5.99998 64 6.89542 64 7.99998C64 9.10455 64.8954 9.99998 66 9.99998ZM50 6.49998C50 6.22384 50.2239 5.99998 50.5 5.99998H53.5C53.7761 5.99998 54 6.22384 54 6.49998C54 6.77613 53.7761 6.99998 53.5 6.99998H50.5C50.2239 6.99998 50 6.77613 50 6.49998ZM50.5 7.99998C50.2239 7.99998 50 8.22384 50 8.49998C50 8.77613 50.2239 8.99998 50.5 8.99998H53.5C53.7761 8.99998 54 8.77613 54 8.49998C54 8.22384 53.7761 7.99998 53.5 7.99998H50.5ZM55 8.49998C55 8.22384 55.2239 7.99998 55.5 7.99998H57.5C57.7761 7.99998 58 8.22384 58 8.49998C58 8.77613 57.7761 8.99998 57.5 8.99998H55.5C55.2239 8.99998 55 8.77613 55 8.49998ZM55.5 5.99998C55.2239 5.99998 55 6.22384 55 6.49998C55 6.77613 55.2239 6.99998 55.5 6.99998H57.5C57.7761 6.99998 58 6.77613 58 6.49998C58 6.22384 57.7761 5.99998 57.5 5.99998H55.5Z" fill="black"/>
<path fill-rule="evenodd" clip-rule="evenodd" d="M44.9768 15.1506C45.0599 14.8873 44.9139 14.6064 44.6506 14.5232C44.3872 14.4401 44.1064 14.5861 44.0232 14.8494L41.0232 24.3494L41 24.4229V24.5V98.928V128H40C39.4477 128 39 128.448 39 129C39 129.552 39.4477 130 40 130H41V165V168V170V180C41 180.276 41.2239 180.5 41.5 180.5C41.7761 180.5 42 180.276 42 180V170H43V168H42V165V130H43C43.5523 130 44 129.552 44 129C44 128.448 43.5523 128 43 128H42V98.928V24.5771L44.9768 15.1506ZM41.9608 15.694C42.068 15.4395 41.9485 15.1464 41.694 15.0392C41.4395 14.932 41.1463 15.0515 41.0392 15.306L37.0392 24.806L37 24.899V25V105.991V140H36C35.4477 140 35 140.448 35 141C35 141.552 35.4477 142 36 142H37V165V168V170V180.5C37 180.776 37.2239 181 37.5 181C37.7761 181 38 180.776 38 180.5V170H39V168H38V165V142H39C39.5523 142 40 141.552 40 141C40 140.448 39.5523 140 39 140H38V105.991V25.101L41.9608 15.694ZM48.6085 14.5119C48.878 14.5718 49.048 14.8389 48.9881 15.1085L47 24.0549V91.5V116H48C48.5523 116 49 116.448 49 117C49 117.552 48.5523 118 48 118H47V165V168H48V170H47V181.5C47 181.776 46.7761 182 46.5 182C46.2239 182 46 181.776 46 181.5V170V168V165V118H45C44.4477 118 44 117.552 44 117C44 116.448 44.4477 116 45 116H46V91.5V24V23.9451L46.0119 23.8915L48.0119 14.8915C48.0718 14.622 48.3389 14.452 48.6085 14.5119ZM52.9969 15.0552C53.0274 14.7808 52.8297 14.5336 52.5552 14.5031C52.2808 14.4726 52.0336 14.6703 52.0031 14.9448L51.0031 23.9448L51 23.9723V24V84.5V104H50C49.4477 104 49 104.448 49 105C49 105.552 49.4477 106 50 106H51V165V168V170V180C51 180.276 51.2239 180.5 51.5 180.5C51.7761 180.5 52 180.276 52 180V170H53V168H52V165V106H53C53.5523 106 54 105.552 54 105C54 104.448 53.5523 104 53 104H52V84.5V24.0277L52.9969 15.0552ZM55.4448 14.5031C55.7192 14.4726 55.9664 14.6703 55.9969 14.9448L56.9969 23.9448L57 23.9723V24V78.1562V92H58C58.5523 92 59 92.4477 59 93C59 93.5523 58.5523 94 58 94H57V165V168V170V180C57 180.276 56.7761 180.5 56.5 180.5C56.2239 180.5 56 180.276 56 180V170H55V168H56V165V94H55C54.4477 94 54 93.5523 54 93C54 92.4477 54.4477 92 55 92H56V78.1562V24.0277L55.0031 15.0552C54.9726 14.7808 55.1703 14.5336 55.4448 14.5031ZM59.9881 14.8915C59.9282 14.622 59.6611 14.452 59.3915 14.5119C59.122 14.5718 58.952 14.8389 59.0119 15.1085L61 24.0549V71V80H60C59.4477 80 59 80.4477 59 81C59 81.5523 59.4477 82 60 82H61V165V168H60V170H61V181.5C61 181.776 61.2239 182 61.5 182C61.7761 182 62 181.776 62 181.5V170V168V165V82H63C63.5523 82 64 81.5523 64 81C64 80.4477 63.5523 80 63 80H62V71V24V23.9451L61.9881 23.8915L59.9881 14.8915ZM63.3419 15.0257C63.6039 14.9383 63.887 15.0799 63.9743 15.3419L66.9743 24.3419L67 24.4189V24.5V55V68H68C68.5523 68 69 68.4477 69 69C69 69.5523 68.5523 70 68 70H67V165V168V170V180C67 180.276 66.7761 180.5 66.5 180.5C66.2239 180.5 66 180.276 66 180V170H65V168H66V165V70H65C64.4477 70 64 69.5523 64 69C64 68.4477 64.4477 68 65 68H66V55V24.5812L63.0257 15.6581C62.9383 15.3962 63.0799 15.113 63.3419 15.0257ZM66.9608 15.306C66.8537 15.0515 66.5605 14.932 66.306 15.0392C66.0515 15.1464 65.932 15.4395 66.0392 15.694L70 25.101V56H69C68.4477 56 68 56.4477 68 57C68 57.5523 68.4477 58 69 58H70V165V168H69V170H70V180.5C70 180.776 70.2239 181 70.5 181C70.7761 181 71 180.776 71 180.5V170V168V165V58H72C72.5523 58 73 57.5523 73 57C73 56.4477 72.5523 56 72 56H71V25V24.899L70.9608 24.806L66.9608 15.306Z" fill="black"/>
<path d="M34 182C34 182 37.5 180 39.75 180C42 180 42.645 182 44.5 182C46.355 182 47.645 180 49.5 180C51.355 180 52.145 182 54 182C55.855 182 56.645 180 58.5 180C60.355 180 61.5 182 63.5 182C65.5 182 66.5 180 68.5 180C70.5 180 74 182 74 182" stroke="black" stroke-width="2" stroke-linecap="round"/>
<path d="M3.14713 29.6081C0.250396 49.6483 17.9089 99.0566 17.9089 99.0566L19.988 108.838" stroke="black" stroke-width="2" stroke-linecap="round"/>
<path d="M3.53223 29.0151L18.7098 100.42" stroke="black"/>
</g>
<defs>
<clipPath id="clip0">
<rect width="108" height="189" fill="white"/>
</clipPath>
</defs>
</svg>
