<svg width="224" height="224" viewBox="0 0 224 224" fill="none" xmlns="http://www.w3.org/2000/svg">
<path fill-rule="evenodd" clip-rule="evenodd" d="M91.0214 207H92H132H132.979L133 206.022L136 67.0216L136 67.0108V67C136 61.9199 135.24 55.8577 134.488 51.094C134.111 48.7061 133.734 46.6326 133.451 45.1557C133.309 44.417 133.192 43.8272 133.109 43.4213C133.067 43.2184 133.035 43.0614 133.012 42.9548L133 42.8955V42.8928V42.8574V42.8221V42.787V42.752V42.7171V42.6824V42.6478V42.6134V42.5791V42.5449V42.5109V42.477V42.4433V42.4096V42.3762V42.3428V42.3096V42.2766V42.2436V42.2108V42.1782V42.1456V42.1133V42.081V42.0489V42.0169V41.985V41.9533V41.9216V41.8902V41.8588V41.8276V41.7965V41.7656V41.7348V41.7041V41.6735V41.643V41.6127V41.5825V41.5525V41.5225V41.4927V41.463V41.4334V41.404V41.3747V41.3455V41.3164V41.2874V41.2586V41.2299V41.2013V41.1728V41.1445V41.1163V41.0882V41.0602V41.0323V41.0045V40.9769V40.9494V40.922V40.8947V40.8675V40.8404V40.8135V40.7867V40.7599V40.7333V40.7068V40.6805V40.6542V40.628V40.602V40.5761V40.5502V40.5245V40.4989V40.4734V40.4481V40.4228V40.3976V40.3726V40.3476V40.3228V40.298V40.2734V40.2489V40.2244V40.2001V40.1759V40.1518V40.1278V40.1039V40.0801V40.0564V40.0328V40.0093V39.9859V39.9626V39.9394V39.9163V39.8933V39.8704V39.8476V39.8249V39.8023V39.7798V39.7574V39.7351V39.7128V39.6907V39.6687V39.6467V39.6249V39.6032V39.5815V39.56V39.5385V39.5171V39.4958V39.4746V39.4535V39.4325V39.4116V39.3907V39.37V39.3493V39.3288V39.3083V39.2879V39.2676V39.2474V39.2272V39.2072V39.1872V39.1673V39.1475V39.1278V39.1082V39.0886V39.0692V39.0498V39.0305V39.0113V38.9921V38.9731V38.9541V38.9352V38.9164V38.8976V38.879V38.8604V38.8419V38.8235V38.8051V38.7868V38.7686V38.7505V38.7325V38.7145V38.6966V38.6788V38.661V38.6433V38.6257V38.6082V38.5907V38.5733V38.556V38.5387V38.5216V38.5044V38.4874V38.4704V38.4535V38.4367V38.4199V38.4032V38.3866V38.37V38.3535V38.337V38.3206V38.3043V38.2881V38.2719V38.2558V38.2397V38.2237V38.2078V38.1919V38.1761V38.1603V38.1446V38.129V38.1134V38.0979V38.0824V38.067V38.0517V38.0364V38.0212V38.006V37.9909V37.9758V37.9608V37.9459V37.931V37.9161V37.9014V37.8866V37.8719V37.8573V37.8427V37.8282V37.8137V37.7993V37.7849V37.7706V37.7563V37.7421V37.7279V37.7137V37.6996V37.6856V37.6716V37.6577V37.6438V37.6299V37.6161V37.6023V37.5886V37.5749V37.5613V37.5477V37.5341V37.5206V37.5072V37.4937V37.4803V37.467V37.4537V37.4404V37.4272V37.414V37.4008V37.3877V37.3746V37.3616V37.3486V37.3356V37.3227V37.3098V37.297V37.2841V37.2713V37.2586V37.2458V37.2331V37.2205V37.2078V37.1952V37.1827V37.1701V37.1576V37.1451V37.1327V37.1203V37.1079V37.0955V37.0832V37.0709V37.0586V37.0463V37.0341V37.0219V37.0097V36.9975V36.9854V36.9733V36.9612V36.9491V36.9371V36.9251V36.9131V36.9011V36.8891V36.8772V36.8653V36.8534V36.8415V36.8297V36.8178V36.806V36.7942V36.7824V36.7706V36.7589V36.7471V36.7354V36.7237V36.712V36.7003V36.6886V36.677V36.6653V36.6537V36.6421V36.6305V36.6189V36.6073V36.5957V36.5842V36.5726V36.5611V36.5495V36.538V36.5265V36.5149V36.5034V36.4919V36.4804V36.4689V36.4574V36.446V36.4345V36.423V36.4115V36.4001V36.3886V36.3771V36.3657V36.3542V36.3428V36.3313V36.3198V36.3084V36.2969V36.2854V36.274V36.2625V36.251V36.2396V36.2281V36.2166V36.2051V36.1936V36.1821V36.1706V36.1591V36.1476V36.1361V36.1246V36.1131V36.1015V36.09V36.0784V36.0668V36.0553V36.0437V36.0321V36.0204V36.0088V35.9972V35.9855V35.9739V35.9622V35.9505V35.9388V35.9271V35.9154V35.9036V35.8919V35.8801V35.8683V35.8565V35.8447V35.8328V35.821V35.8091V35.7972V35.7852V35.7733V35.7614V35.7494V35.7374V35.7253V35.7133V35.7012V35.6891V35.677V35.6649V35.6527V35.6405V35.6283V35.6161V35.6038V35.5915V35.5792V35.5668V35.5545V35.5421V35.5296V35.5172V35.5047V35.4922V35.4796V35.4671V35.4545V35.4418V35.4291V35.4164V35.4037V35.3909V35.3781V35.3653V35.3524V35.3395V35.3266V35.3136V35.3006V35.2875V35.2744V35.2613V35.2481V35.2349V35.2217V35.2084V35.1951V35.1817V35.1684V35.1549V35.1414V35.1279V35.1143V35.1008V35.0871V35.0734V35.0597V35.0459V35.0321V35.0182V35.0043V34.9903V34.9763V34.9623V34.9482V34.934V34.9198V34.9056V34.8913V34.8769V34.8625V34.8481V34.8336V34.8191V34.8045V34.7898V34.7751V34.7604V34.7456V34.7307V34.7158V34.7009V34.6858V34.6708V34.6556V34.6404V34.6252V34.6099V34.5945V34.5791V34.5636V34.5481V34.5325V34.5169V34.5012V34.4854V34.4696V34.4537V34.4377V34.4217V34.4056V34.3895V34.3733V34.357V34.3407V34.3243V34.3078V34.2913V34.2747V34.2581V34.2413V34.2245V34.2077V34.1908V34.1738V34.1567V34.1396V34.1224V34.1051V34.0878V34.0704V34.0529V34.0353V34.0177V34V20V19.1187L132.126 19.0079L132 20C132.126 19.0079 132.126 19.0079 132.125 19.0079L132.125 19.0078L132.124 19.0076L132.118 19.007L132.1 19.0047L132.028 18.9959C131.965 18.9884 131.873 18.9774 131.751 18.9635C131.507 18.9357 131.147 18.8961 130.678 18.8488C129.74 18.7541 128.366 18.6283 126.612 18.5025C123.105 18.2511 118.081 18 112 18C105.919 18 100.895 18.2511 97.3879 18.5025C95.6344 18.6283 94.2599 18.7541 93.3219 18.8488C92.8529 18.8961 92.4929 18.9357 92.2493 18.9635C92.1275 18.9774 92.0347 18.9884 91.9719 18.9959L91.9003 19.0047L91.8815 19.007L91.8765 19.0076L91.875 19.0078L91.8746 19.0079C91.8744 19.0079 91.8743 19.0079 92 20L91.8743 19.0079L91 19.1187V20V34V34.0177V34.0353V34.0529V34.0704V34.0878V34.1051V34.1224V34.1396V34.1567V34.1738V34.1908V34.2077V34.2245V34.2413V34.2581V34.2747V34.2913V34.3078V34.3243V34.3407V34.357V34.3733V34.3895V34.4056V34.4217V34.4377V34.4537V34.4696V34.4854V34.5012V34.5169V34.5325V34.5481V34.5636V34.5791V34.5945V34.6099V34.6252V34.6404V34.6556V34.6708V34.6858V34.7009V34.7158V34.7307V34.7456V34.7604V34.7751V34.7898V34.8045V34.8191V34.8336V34.8481V34.8625V34.8769V34.8913V34.9056V34.9198V34.934V34.9482V34.9623V34.9763V34.9903V35.0043V35.0182V35.0321V35.0459V35.0597V35.0734V35.0871V35.1008V35.1143V35.1279V35.1414V35.1549V35.1684V35.1817V35.1951V35.2084V35.2217V35.2349V35.2481V35.2613V35.2744V35.2875V35.3006V35.3136V35.3266V35.3395V35.3524V35.3653V35.3781V35.3909V35.4037V35.4164V35.4291V35.4418V35.4545V35.4671V35.4796V35.4922V35.5047V35.5172V35.5296V35.5421V35.5545V35.5668V35.5792V35.5915V35.6038V35.6161V35.6283V35.6405V35.6527V35.6649V35.677V35.6891V35.7012V35.7133V35.7253V35.7374V35.7494V35.7614V35.7733V35.7852V35.7972V35.8091V35.821V35.8328V35.8447V35.8565V35.8683V35.8801V35.8919V35.9036V35.9154V35.9271V35.9388V35.9505V35.9622V35.9739V35.9855V35.9972V36.0088V36.0204V36.0321V36.0437V36.0553V36.0668V36.0784V36.09V36.1015V36.1131V36.1246V36.1361V36.1476V36.1591V36.1706V36.1821V36.1936V36.2051V36.2166V36.2281V36.2396V36.251V36.2625V36.274V36.2854V36.2969V36.3084V36.3198V36.3313V36.3428V36.3542V36.3657V36.3771V36.3886V36.4001V36.4115V36.423V36.4345V36.446V36.4574V36.4689V36.4804V36.4919V36.5034V36.5149V36.5265V36.538V36.5495V36.5611V36.5726V36.5842V36.5957V36.6073V36.6189V36.6305V36.6421V36.6537V36.6653V36.677V36.6886V36.7003V36.712V36.7237V36.7354V36.7471V36.7589V36.7706V36.7824V36.7942V36.806V36.8178V36.8297V36.8415V36.8534V36.8653V36.8772V36.8891V36.9011V36.9131V36.9251V36.9371V36.9491V36.9612V36.9733V36.9854V36.9975V37.0097V37.0219V37.0341V37.0463V37.0586V37.0709V37.0832V37.0955V37.1079V37.1203V37.1327V37.1451V37.1576V37.1701V37.1827V37.1952V37.2078V37.2205V37.2331V37.2458V37.2586V37.2713V37.2841V37.297V37.3098V37.3227V37.3356V37.3486V37.3616V37.3746V37.3877V37.4008V37.414V37.4272V37.4404V37.4537V37.467V37.4803V37.4937V37.5072V37.5206V37.5341V37.5477V37.5613V37.5749V37.5886V37.6023V37.6161V37.6299V37.6438V37.6577V37.6716V37.6856V37.6996V37.7137V37.7279V37.7421V37.7563V37.7706V37.7849V37.7993V37.8137V37.8282V37.8427V37.8573V37.8719V37.8866V37.9014V37.9161V37.931V37.9459V37.9608V37.9758V37.9909V38.006V38.0212V38.0364V38.0517V38.067V38.0824V38.0979V38.1134V38.129V38.1446V38.1603V38.1761V38.1919V38.2078V38.2237V38.2397V38.2558V38.2719V38.2881V38.3043V38.3206V38.337V38.3535V38.37V38.3866V38.4032V38.4199V38.4367V38.4535V38.4704V38.4874V38.5044V38.5216V38.5387V38.556V38.5733V38.5907V38.6082V38.6257V38.6433V38.661V38.6788V38.6966V38.7145V38.7325V38.7505V38.7686V38.7868V38.8051V38.8235V38.8419V38.8604V38.879V38.8976V38.9164V38.9352V38.9541V38.9731V38.9921V39.0113V39.0305V39.0498V39.0692V39.0886V39.1082V39.1278V39.1475V39.1673V39.1872V39.2072V39.2272V39.2474V39.2676V39.2879V39.3083V39.3288V39.3493V39.37V39.3907V39.4116V39.4325V39.4535V39.4746V39.4958V39.5171V39.5385V39.56V39.5815V39.6032V39.6249V39.6467V39.6687V39.6907V39.7128V39.7351V39.7574V39.7798V39.8023V39.8249V39.8476V39.8704V39.8933V39.9163V39.9394V39.9626V39.9859V40.0093V40.0328V40.0564V40.0801V40.1039V40.1278V40.1518V40.1759V40.2001V40.2244V40.2489V40.2734V40.298V40.3228V40.3476V40.3726V40.3976V40.4228V40.4481V40.4734V40.4989V40.5245V40.5502V40.5761V40.602V40.628V40.6542V40.6805V40.7068V40.7333V40.7599V40.7867V40.8135V40.8404V40.8675V40.8947V40.922V40.9494V40.9769V41.0045V41.0323V41.0602V41.0882V41.1163V41.1445V41.1728V41.2013V41.2299V41.2586V41.2874V41.3164V41.3455V41.3747V41.404V41.4334V41.463V41.4927V41.5225V41.5525V41.5825V41.6127V41.643V41.6735V41.7041V41.7348V41.7656V41.7965V41.8276V41.8588V41.8902V41.9216V41.9533V41.985V42.0169V42.0489V42.081V42.1133V42.1456V42.1782V42.2108V42.2436V42.2766V42.3096V42.3428V42.3762V42.4096V42.4433V42.477V42.5109V42.5449V42.5791V42.6134V42.6478V42.6824V42.7171V42.752V42.787V42.8221V42.8574V42.8928V42.8955L90.9875 42.9548C90.9652 43.0614 90.9326 43.2184 90.8913 43.4213C90.8085 43.8272 90.6905 44.417 90.5491 45.1557C90.2663 46.6326 89.8893 48.7061 89.5122 51.094C88.7601 55.8577 88 61.9199 88 67V67.0108L88.0002 67.0216L91.0002 206.022L91.0214 207ZM93 20.8929C93.1546 20.8764 93.329 20.8582 93.5227 20.8387C94.4428 20.7458 95.798 20.6217 97.531 20.4974C100.997 20.2489 105.973 20 112 20C118.027 20 123.003 20.2489 126.469 20.4974C128.202 20.6217 129.557 20.7458 130.477 20.8387C130.671 20.8582 130.845 20.8764 131 20.8929V32.8927C130.856 32.8788 130.698 32.8639 130.528 32.848C129.514 32.7536 128.046 32.628 126.231 32.5024C122.602 32.2512 117.578 32 112 32C106.422 32 101.398 32.2512 97.7688 32.5024C95.9538 32.628 94.4864 32.7536 93.4716 32.848C93.3015 32.8639 93.1442 32.8788 93 32.8927V20.8929ZM93 34.9022C93.1904 34.8835 93.4099 34.8624 93.6568 34.8394C94.6577 34.7463 96.1093 34.622 97.9069 34.4976C101.503 34.2487 106.479 34 112 34C117.521 34 122.497 34.2487 126.093 34.4976C127.891 34.622 129.342 34.7463 130.343 34.8394C130.59 34.8624 130.81 34.8835 131 34.9022V34.9056V34.9198V34.934V34.9482V34.9623V34.9763V34.9903V35.0043V35.0182V35.0321V35.0459V35.0597V35.0734V35.0871V35.1008V35.1143V35.1279V35.1414V35.1549V35.1684V35.1817V35.1951V35.2084V35.2217V35.2349V35.2481V35.2613V35.2744V35.2875V35.3006V35.3136V35.3266V35.3395V35.3524V35.3653V35.3781V35.3909V35.4037V35.4164V35.4291V35.4418V35.4545V35.4671V35.4796V35.4922V35.5047V35.5172V35.5296V35.5421V35.5545V35.5668V35.5792V35.5915V35.6038V35.6161V35.6283V35.6405V35.6527V35.6649V35.677V35.6891V35.7012V35.7133V35.7253V35.7374V35.7494V35.7614V35.7733V35.7852V35.7972V35.8091V35.821V35.8328V35.8447V35.8565V35.8683V35.8801V35.8919V35.9036V35.9154V35.9271V35.9388V35.9505V35.9622V35.9739V35.9855V35.9972V36.0088V36.0204V36.0321V36.0437V36.0553V36.0668V36.0784V36.09V36.1015V36.1131V36.1246V36.1361V36.1476V36.1591V36.1706V36.1821V36.1936V36.2051V36.2166V36.2281V36.2396V36.251V36.2625V36.274V36.2854V36.2969V36.3084V36.3198V36.3313V36.3428V36.3542V36.3657V36.3771V36.3886V36.4001V36.4115V36.423V36.4345V36.446V36.4574V36.4689V36.4804V36.4919V36.5034V36.5149V36.5265V36.538V36.5495V36.5611V36.5726V36.5842V36.5957V36.6073V36.6189V36.6305V36.6421V36.6537V36.6653V36.677V36.6886V36.7003V36.712V36.7237V36.7354V36.7471V36.7589V36.7706V36.7824V36.7942V36.806V36.8178V36.8297V36.8415V36.8534V36.8653V36.8772V36.8891V36.9011V36.9131V36.9251V36.9371V36.9491V36.9612V36.9733V36.9854V36.9975V37.0097V37.0219V37.0341V37.0463V37.0586V37.0709V37.0832V37.0955V37.1079V37.1203V37.1327V37.1451V37.1576V37.1701V37.1827V37.1952V37.2078V37.2205V37.2331V37.2458V37.2586V37.2713V37.2841V37.297V37.3098V37.3227V37.3356V37.3486V37.3616V37.3746V37.3877V37.4008V37.414V37.4272V37.4404V37.4537V37.467V37.4803V37.4937V37.5072V37.5206V37.5341V37.5477V37.5613V37.5749V37.5886V37.6023V37.6161V37.6299V37.6438V37.6577V37.6716V37.6856V37.6996V37.7137V37.7279V37.7421V37.7563V37.7706V37.7849V37.7993V37.8137V37.8282V37.8427V37.8573V37.8719V37.8866V37.9014V37.9161V37.931V37.9459V37.9608V37.9758V37.9909V38.006V38.0212V38.0364V38.0517V38.067V38.0824V38.0979V38.1134V38.129V38.1446V38.1603V38.1761V38.1919V38.2078V38.2237V38.2397V38.2558V38.2719V38.2881V38.3043V38.3206V38.337V38.3535V38.37V38.3866V38.4032V38.4199V38.4367V38.4535V38.4704V38.4874V38.5044V38.5216V38.5387V38.556V38.5733V38.5907V38.6082V38.6257V38.6433V38.661V38.6788V38.6966V38.7145V38.7325V38.7505V38.7686V38.7868V38.8051V38.8235V38.8419V38.8604V38.879V38.8976V38.9164V38.9352V38.9541V38.9731V38.9921V39.0113V39.0305V39.0498V39.0692V39.0886V39.1082V39.1278V39.1475V39.1673V39.1872V39.2072V39.2272V39.2474V39.2676V39.2879V39.3083V39.3288V39.3493V39.37V39.3907V39.4116V39.4325V39.4535V39.4746V39.4958V39.5171V39.5385V39.56V39.5815V39.6032V39.6249V39.6467V39.6687V39.6907V39.7128V39.7351V39.7574V39.7798V39.8023V39.8249V39.8476V39.8704V39.8933V39.9163V39.9394V39.9626V39.9859V40.0093V40.0328V40.0564V40.0801V40.1039V40.1278V40.1518V40.1759V40.2001V40.2244V40.2489V40.2734V40.298V40.3228V40.3476V40.3726V40.3976V40.4228V40.4481V40.4734V40.4989V40.5245V40.5502V40.5761V40.602V40.628V40.6542V40.6805V40.7068V40.7333V40.7599V40.7867V40.8135V40.8404V40.8675V40.8947V40.922V40.9494V40.9769V41.0045V41.0323V41.0602V41.0882V41.1163V41.1445V41.1728V41.2013V41.2299V41.2586V41.2874V41.3164V41.3455V41.3747V41.404V41.4334V41.463V41.4927V41.5225V41.5525V41.5825V41.6127V41.643V41.6735V41.7041V41.7348V41.7656V41.7965V41.8276V41.8588V41.8902V41.9104C130.772 41.8915 130.511 41.8702 130.22 41.8469C129.044 41.7528 127.383 41.6275 125.439 41.5021C121.556 41.2515 116.531 41 112 41C107.469 41 102.444 41.2515 98.5606 41.5021C96.6171 41.6275 94.9556 41.7528 93.7796 41.8469C93.4891 41.8702 93.2282 41.8915 93 41.9104V41.8902V41.8588V41.8276V41.7965V41.7656V41.7348V41.7041V41.6735V41.643V41.6127V41.5825V41.5525V41.5225V41.4927V41.463V41.4334V41.404V41.3747V41.3455V41.3164V41.2874V41.2586V41.2299V41.2013V41.1728V41.1445V41.1163V41.0882V41.0602V41.0323V41.0045V40.9769V40.9494V40.922V40.8947V40.8675V40.8404V40.8135V40.7867V40.7599V40.7333V40.7068V40.6805V40.6542V40.628V40.602V40.5761V40.5502V40.5245V40.4989V40.4734V40.4481V40.4228V40.3976V40.3726V40.3476V40.3228V40.298V40.2734V40.2489V40.2244V40.2001V40.1759V40.1518V40.1278V40.1039V40.0801V40.0564V40.0328V40.0093V39.9859V39.9626V39.9394V39.9163V39.8933V39.8704V39.8476V39.8249V39.8023V39.7798V39.7574V39.7351V39.7128V39.6907V39.6687V39.6467V39.6249V39.6032V39.5815V39.56V39.5385V39.5171V39.4958V39.4746V39.4535V39.4325V39.4116V39.3907V39.37V39.3493V39.3288V39.3083V39.2879V39.2676V39.2474V39.2272V39.2072V39.1872V39.1673V39.1475V39.1278V39.1082V39.0886V39.0692V39.0498V39.0305V39.0113V38.9921V38.9731V38.9541V38.9352V38.9164V38.8976V38.879V38.8604V38.8419V38.8235V38.8051V38.7868V38.7686V38.7505V38.7325V38.7145V38.6966V38.6788V38.661V38.6433V38.6257V38.6082V38.5907V38.5733V38.556V38.5387V38.5216V38.5044V38.4874V38.4704V38.4535V38.4367V38.4199V38.4032V38.3866V38.37V38.3535V38.337V38.3206V38.3043V38.2881V38.2719V38.2558V38.2397V38.2237V38.2078V38.1919V38.1761V38.1603V38.1446V38.129V38.1134V38.0979V38.0824V38.067V38.0517V38.0364V38.0212V38.006V37.9909V37.9758V37.9608V37.9459V37.931V37.9161V37.9014V37.8866V37.8719V37.8573V37.8427V37.8282V37.8137V37.7993V37.7849V37.7706V37.7563V37.7421V37.7279V37.7137V37.6996V37.6856V37.6716V37.6577V37.6438V37.6299V37.6161V37.6023V37.5886V37.5749V37.5613V37.5477V37.5341V37.5206V37.5072V37.4937V37.4803V37.467V37.4537V37.4404V37.4272V37.414V37.4008V37.3877V37.3746V37.3616V37.3486V37.3356V37.3227V37.3098V37.297V37.2841V37.2713V37.2586V37.2458V37.2331V37.2205V37.2078V37.1952V37.1827V37.1701V37.1576V37.1451V37.1327V37.1203V37.1079V37.0955V37.0832V37.0709V37.0586V37.0463V37.0341V37.0219V37.0097V36.9975V36.9854V36.9733V36.9612V36.9491V36.9371V36.9251V36.9131V36.9011V36.8891V36.8772V36.8653V36.8534V36.8415V36.8297V36.8178V36.806V36.7942V36.7824V36.7706V36.7589V36.7471V36.7354V36.7237V36.712V36.7003V36.6886V36.677V36.6653V36.6537V36.6421V36.6305V36.6189V36.6073V36.5957V36.5842V36.5726V36.5611V36.5495V36.538V36.5265V36.5149V36.5034V36.4919V36.4804V36.4689V36.4574V36.446V36.4345V36.423V36.4115V36.4001V36.3886V36.3771V36.3657V36.3542V36.3428V36.3313V36.3198V36.3084V36.2969V36.2854V36.274V36.2625V36.251V36.2396V36.2281V36.2166V36.2051V36.1936V36.1821V36.1706V36.1591V36.1476V36.1361V36.1246V36.1131V36.1015V36.09V36.0784V36.0668V36.0553V36.0437V36.0321V36.0204V36.0088V35.9972V35.9855V35.9739V35.9622V35.9505V35.9388V35.9271V35.9154V35.9036V35.8919V35.8801V35.8683V35.8565V35.8447V35.8328V35.821V35.8091V35.7972V35.7852V35.7733V35.7614V35.7494V35.7374V35.7253V35.7133V35.7012V35.6891V35.677V35.6649V35.6527V35.6405V35.6283V35.6161V35.6038V35.5915V35.5792V35.5668V35.5545V35.5421V35.5296V35.5172V35.5047V35.4922V35.4796V35.4671V35.4545V35.4418V35.4291V35.4164V35.4037V35.3909V35.3781V35.3653V35.3524V35.3395V35.3266V35.3136V35.3006V35.2875V35.2744V35.2613V35.2481V35.2349V35.2217V35.2084V35.1951V35.1817V35.1684V35.1549V35.1414V35.1279V35.1143V35.1008V35.0871V35.0734V35.0597V35.0459V35.0321V35.0182V35.0043V34.9903V34.9763V34.9623V34.9482V34.934V34.9198V34.9056V34.9022ZM92.8284 43.9318C92.7487 44.3246 92.6407 44.8668 92.5134 45.5318C92.2337 46.9923 91.8607 49.0439 91.4877 51.406C90.7404 56.1388 90.0011 62.0715 90 66.9892L90 67L90.9731 112.082L90.991 112.085C91.2447 112.128 91.6172 112.185 92.0857 112.234L91.9814 113.228C91.585 113.187 91.2521 113.14 90.995 113.099L92.3776 177.151C92.5704 177.18 92.7965 177.21 93.0516 177.237L92.9443 178.232C92.7459 178.21 92.5638 178.187 92.3994 178.165L92.9787 205H131.021L132.6 131.845C132.412 131.818 132.194 131.789 131.948 131.762L132.056 130.768C132.263 130.791 132.452 130.815 132.622 130.838L134 67V66.9892L134 66.9136C133.746 66.8703 133.377 66.8149 132.914 66.7664L133.019 65.7718C133.406 65.8125 133.734 65.8579 133.988 65.8983C133.891 61.2128 133.205 55.7938 132.512 51.406C132.139 49.0439 131.766 46.9923 131.487 45.5318C131.359 44.8668 131.251 44.3246 131.172 43.9318C130.879 43.9071 130.505 43.8761 130.061 43.8405C128.893 43.7471 127.242 43.6225 125.311 43.4979C121.444 43.2485 116.469 43 112 43C107.531 43 102.556 43.2485 98.6894 43.4979C96.7579 43.6225 95.1069 43.7471 93.9391 43.8405C93.4952 43.8761 93.1213 43.9071 92.8284 43.9318ZM131.904 66.686C131.042 66.6385 130.004 66.6343 128.864 66.7366L128.775 65.7406C129.97 65.6333 131.057 65.6378 131.959 65.6875L131.904 66.686ZM127.857 66.8529C126.91 66.987 125.913 67.1996 124.903 67.5219L124.599 66.5693C125.669 66.2279 126.721 66.0037 127.717 65.8627L127.857 66.8529ZM123.954 67.8573C123.051 68.208 122.147 68.6531 121.268 69.2148L120.729 68.372C121.669 67.772 122.633 67.2977 123.592 66.9251L123.954 67.8573ZM120.441 69.784C119.67 70.3545 118.923 71.0248 118.22 71.8112L117.475 71.1447C118.224 70.3062 119.021 69.5902 119.846 68.9801L120.441 69.784ZM117.576 72.5805C116.989 73.3291 116.438 74.1708 115.936 75.1168L115.053 74.6479C115.582 73.651 116.165 72.7597 116.789 71.9635L117.576 72.5805ZM115.484 76.0246C115.08 76.8923 114.715 77.8401 114.396 78.8749L113.441 78.5806C113.772 77.5043 114.154 76.5138 114.578 75.6026L115.484 76.0246ZM114.119 79.8418C113.871 80.7756 113.659 81.7752 113.488 82.8452L112.5 82.6877C112.676 81.5861 112.895 80.5532 113.153 79.5847L114.119 79.8418ZM113.343 83.8495C113.217 84.8207 113.123 85.8464 113.066 86.9294L112.067 86.8768C112.126 85.7696 112.221 84.7185 112.351 83.7206L113.343 83.8495ZM113.024 87.9363C113.008 88.4454 113 88.9665 113 89.5C113 90.0435 112.992 90.575 112.976 91.0947L111.976 91.0637C111.992 90.5546 112 90.0335 112 89.5C112 88.9565 112.008 88.425 112.024 87.9053L113.024 87.9363ZM112.933 92.1232C112.874 93.2304 112.779 94.2815 112.649 95.2794L111.657 95.1505C111.783 94.1793 111.877 93.1536 111.934 92.0705L112.933 92.1232ZM112.5 96.3123C112.324 97.4139 112.105 98.4468 111.847 99.4153L110.881 99.1582C111.129 98.2244 111.341 97.2248 111.512 96.1548L112.5 96.3123ZM111.559 100.419C111.228 101.496 110.846 102.486 110.422 103.397L109.516 102.975C109.92 102.108 110.285 101.16 110.604 100.125L111.559 100.419ZM109.947 104.352C109.418 105.349 108.835 106.24 108.211 107.036L107.424 106.419C108.011 105.671 108.562 104.829 109.064 103.883L109.947 104.352ZM107.525 107.855C106.776 108.694 105.979 109.41 105.154 110.02L104.559 109.216C105.33 108.645 106.077 107.975 106.78 107.189L107.525 107.855ZM104.271 110.628C103.331 111.228 102.367 111.702 101.408 112.075L101.046 111.143C101.949 110.792 102.853 110.347 103.732 109.785L104.271 110.628ZM100.401 112.431C99.3311 112.772 98.2788 112.996 97.2831 113.137L97.1429 112.147C98.0902 112.013 99.0869 111.8 100.097 111.478L100.401 112.431ZM96.2249 113.259C95.0296 113.367 93.9428 113.362 93.041 113.313L93.096 112.314C93.9578 112.361 94.9956 112.366 96.1355 112.263L96.2249 113.259ZM127.992 131.749C129.103 131.637 130.116 131.637 130.958 131.682L131.013 130.684C130.127 130.636 129.062 130.636 127.891 130.754L127.992 131.749ZM124.143 132.592C125.12 132.249 126.088 132.021 127.01 131.876L126.854 130.888C125.881 131.042 124.853 131.283 123.812 131.648L124.143 132.592ZM120.657 134.368C121.496 133.782 122.361 133.316 123.226 132.947L122.834 132.027C121.91 132.421 120.984 132.92 120.084 133.549L120.657 134.368ZM117.788 137.038C118.447 136.233 119.149 135.545 119.874 134.957L119.245 134.18C118.467 134.81 117.717 135.546 117.015 136.404L117.788 137.038ZM115.68 140.358C116.142 139.412 116.65 138.567 117.192 137.814L116.381 137.23C115.805 138.03 115.268 138.924 114.782 139.919L115.68 140.358ZM114.275 144.072C114.566 143.052 114.9 142.115 115.269 141.255L114.35 140.861C113.963 141.762 113.615 142.739 113.313 143.797L114.275 144.072ZM113.446 147.977C113.601 146.93 113.794 145.949 114.02 145.031L113.049 144.792C112.815 145.742 112.616 146.754 112.457 147.83L113.446 147.977ZM113.06 151.985C113.112 150.925 113.197 149.919 113.313 148.966L112.32 148.846C112.202 149.824 112.115 150.853 112.061 151.936L113.06 151.985ZM113 154.5C113 153.978 113.007 153.467 113.022 152.968L112.022 152.939C112.008 153.448 112 153.968 112 154.5C112 155.022 111.993 155.533 111.978 156.032L112.978 156.061C112.992 155.552 113 155.032 113 154.5ZM112.68 160.154C112.798 159.176 112.885 158.147 112.939 157.064L111.94 157.015C111.888 158.075 111.803 159.081 111.687 160.034L112.68 160.154ZM111.951 164.208C112.185 163.258 112.384 162.246 112.543 161.17L111.554 161.023C111.399 162.07 111.206 163.051 110.98 163.969L111.951 164.208ZM110.65 168.139C111.037 167.238 111.385 166.261 111.687 165.203L110.725 164.928C110.434 165.948 110.1 166.885 109.731 167.745L110.65 168.139ZM108.619 171.77C109.195 170.97 109.732 170.076 110.218 169.081L109.32 168.642C108.858 169.588 108.35 170.433 107.808 171.186L108.619 171.77ZM105.755 174.82C106.533 174.19 107.283 173.454 107.986 172.596L107.212 171.962C106.553 172.767 105.851 173.455 105.126 174.043L105.755 174.82ZM102.166 176.973C103.09 176.579 104.016 176.08 104.916 175.451L104.343 174.632C103.504 175.218 102.639 175.684 101.774 176.053L102.166 176.973ZM98.1457 178.112C99.1194 177.958 100.147 177.717 101.188 177.352L100.857 176.408C99.8796 176.751 98.9117 176.979 97.9901 177.124L98.1457 178.112ZM93.9875 178.316C94.8725 178.364 95.9384 178.364 97.1086 178.246L97.0078 177.251C95.8973 177.363 94.8841 177.363 94.0419 177.318L93.9875 178.316ZM93 186V184H131V186H93ZM99.5 26C99.5 27.9986 102 26.6612 102 26.6612C100.909 28.9755 98 27.9836 98 26C98 24.0163 100.909 23.0245 102 25.3388C102 25.3388 99.5 24.0014 99.5 26ZM124 28C125.105 28 126 27.1046 126 26C126 24.8954 125.105 24 124 24C122.895 24 122 24.8954 122 26C122 27.1046 122.895 28 124 28ZM108 24.5C108 24.2238 108.224 24 108.5 24H111.5C111.776 24 112 24.2238 112 24.5C112 24.7761 111.776 25 111.5 25H108.5C108.224 25 108 24.7761 108 24.5ZM108.5 26C108.224 26 108 26.2238 108 26.5C108 26.7761 108.224 27 108.5 27H111.5C111.776 27 112 26.7761 112 26.5C112 26.2238 111.776 26 111.5 26H108.5ZM113 26.5C113 26.2238 113.224 26 113.5 26H115.5C115.776 26 116 26.2238 116 26.5C116 26.7761 115.776 27 115.5 27H113.5C113.224 27 113 26.7761 113 26.5ZM113.5 24C113.224 24 113 24.2238 113 24.5C113 24.7761 113.224 25 113.5 25H115.5C115.776 25 116 24.7761 116 24.5C116 24.2238 115.776 24 115.5 24H113.5Z" fill="black"/>
<path fill-rule="evenodd" clip-rule="evenodd" d="M102.977 33.1506C103.06 32.8873 102.914 32.6064 102.651 32.5232C102.387 32.4401 102.106 32.5861 102.023 32.8494L99.0232 42.3494L99 42.4229V42.5V116.928V146H98C97.4477 146 97 146.448 97 147C97 147.552 97.4477 148 98 148H99V183V186V188V198C99 198.276 99.2239 198.5 99.5 198.5C99.7761 198.5 100 198.276 100 198V188H101V186H100V183V148H101C101.552 148 102 147.552 102 147C102 146.448 101.552 146 101 146H100V116.928V42.5771L102.977 33.1506ZM99.9608 33.694C100.068 33.4395 99.9485 33.1464 99.694 33.0392C99.4395 32.932 99.1463 33.0515 99.0392 33.306L95.0392 42.806L95 42.899V43V123.991V158H94C93.4477 158 93 158.448 93 159C93 159.552 93.4477 160 94 160H95V183V186V188V198.5C95 198.776 95.2239 199 95.5 199C95.7761 199 96 198.776 96 198.5V188H97V186H96V183V160H97C97.5523 160 98 159.552 98 159C98 158.448 97.5523 158 97 158H96V123.991V43.101L99.9608 33.694ZM106.608 32.5119C106.878 32.5718 107.048 32.8389 106.988 33.1085L105 42.0549V109.5V134H106C106.552 134 107 134.448 107 135C107 135.552 106.552 136 106 136H105V183V186H106V188H105V199.5C105 199.776 104.776 200 104.5 200C104.224 200 104 199.776 104 199.5V188V186V183V136H103C102.448 136 102 135.552 102 135C102 134.448 102.448 134 103 134H104V109.5V42V41.9451L104.012 41.8915L106.012 32.8915C106.072 32.622 106.339 32.452 106.608 32.5119ZM110.997 33.0552C111.027 32.7808 110.83 32.5336 110.555 32.5031C110.281 32.4726 110.034 32.6703 110.003 32.9448L109.003 41.9448L109 41.9723V42V102.5V122H108C107.448 122 107 122.448 107 123C107 123.552 107.448 124 108 124H109V183V186V188V198C109 198.276 109.224 198.5 109.5 198.5C109.776 198.5 110 198.276 110 198V188H111V186H110V183V124H111C111.552 124 112 123.552 112 123C112 122.448 111.552 122 111 122H110V102.5V42.0277L110.997 33.0552ZM113.445 32.5031C113.719 32.4726 113.966 32.6703 113.997 32.9448L114.997 41.9448L115 41.9723V42V96.1562V110H116C116.552 110 117 110.448 117 111C117 111.552 116.552 112 116 112H115V183V186V188V198C115 198.276 114.776 198.5 114.5 198.5C114.224 198.5 114 198.276 114 198V188H113V186H114V183V112H113C112.448 112 112 111.552 112 111C112 110.448 112.448 110 113 110H114V96.1562V42.0277L113.003 33.0552C112.973 32.7808 113.17 32.5336 113.445 32.5031ZM117.988 32.8915C117.928 32.622 117.661 32.452 117.392 32.5119C117.122 32.5718 116.952 32.8389 117.012 33.1085L119 42.0549V89V98H118C117.448 98 117 98.4477 117 99C117 99.5523 117.448 100 118 100H119V183V186H118V188H119V199.5C119 199.776 119.224 200 119.5 200C119.776 200 120 199.776 120 199.5V188V186V183V100H121C121.552 100 122 99.5523 122 99C122 98.4477 121.552 98 121 98H120V89V42V41.9451L119.988 41.8915L117.988 32.8915ZM121.342 33.0257C121.604 32.9383 121.887 33.0799 121.974 33.3419L124.974 42.3419L125 42.4189V42.5V73V86H126C126.552 86 127 86.4477 127 87C127 87.5523 126.552 88 126 88H125V183V186V188V198C125 198.276 124.776 198.5 124.5 198.5C124.224 198.5 124 198.276 124 198V188H123V186H124V183V88H123C122.448 88 122 87.5523 122 87C122 86.4477 122.448 86 123 86H124V73V42.5812L121.026 33.6581C120.938 33.3962 121.08 33.113 121.342 33.0257ZM124.961 33.306C124.854 33.0515 124.56 32.932 124.306 33.0392C124.051 33.1464 123.932 33.4395 124.039 33.694L128 43.101V74H127C126.448 74 126 74.4477 126 75C126 75.5523 126.448 76 127 76H128V183V186H127V188H128V198.5C128 198.776 128.224 199 128.5 199C128.776 199 129 198.776 129 198.5V188V186V183V76H130C130.552 76 131 75.5523 131 75C131 74.4477 130.552 74 130 74H129V43V42.899L128.961 42.806L124.961 33.306Z" fill="black"/>
<path d="M92 200C92 200 95.5 198 97.75 198C100 198 100.645 200 102.5 200C104.355 200 105.645 198 107.5 198C109.355 198 110.145 200 112 200C113.855 200 114.645 198 116.5 198C118.355 198 119.5 200 121.5 200C123.5 200 124.5 198 126.5 198C128.5 198 132 200 132 200" stroke="black" stroke-width="2" stroke-linecap="round"/>
<path d="M61.1471 47.6081C58.2504 67.6483 75.9089 117.057 75.9089 117.057L77.988 126.838" stroke="black" stroke-width="2" stroke-linecap="round"/>
<path d="M61.5322 47.0151L76.7098 118.42" stroke="black"/>
</svg>
