<svg width="192" height="224" viewBox="0 0 192 224" fill="none" xmlns="http://www.w3.org/2000/svg">
<g clip-path="url(#clip0)">
<path fill-rule="evenodd" clip-rule="evenodd" d="M75.0213 207H76H116H116.979L117 206.022L120 67.0216L120 67.0108V67C120 61.9199 119.24 55.8577 118.488 51.094C118.111 48.7061 117.734 46.6326 117.451 45.1557C117.309 44.417 117.192 43.8272 117.109 43.4213C117.067 43.2184 117.035 43.0614 117.012 42.9548L117 42.8955V42.8928V42.8574V42.8221V42.787V42.752V42.7171V42.6824V42.6478V42.6134V42.5791V42.5449V42.5109V42.477V42.4433V42.4096V42.3762V42.3428V42.3096V42.2766V42.2436V42.2108V42.1782V42.1456V42.1133V42.081V42.0489V42.0169V41.985V41.9533V41.9216V41.8902V41.8588V41.8276V41.7965V41.7656V41.7348V41.7041V41.6735V41.643V41.6127V41.5825V41.5525V41.5225V41.4927V41.463V41.4334V41.404V41.3747V41.3455V41.3164V41.2874V41.2586V41.2299V41.2013V41.1728V41.1445V41.1163V41.0882V41.0602V41.0323V41.0045V40.9769V40.9494V40.922V40.8947V40.8675V40.8404V40.8135V40.7867V40.7599V40.7333V40.7068V40.6805V40.6542V40.628V40.602V40.5761V40.5502V40.5245V40.4989V40.4734V40.4481V40.4228V40.3976V40.3726V40.3476V40.3228V40.298V40.2734V40.2489V40.2244V40.2001V40.1759V40.1518V40.1278V40.1039V40.0801V40.0564V40.0328V40.0093V39.9859V39.9626V39.9394V39.9163V39.8933V39.8704V39.8476V39.8249V39.8023V39.7798V39.7574V39.7351V39.7128V39.6907V39.6687V39.6467V39.6249V39.6032V39.5815V39.56V39.5385V39.5171V39.4958V39.4746V39.4535V39.4325V39.4116V39.3907V39.37V39.3493V39.3288V39.3083V39.2879V39.2676V39.2474V39.2272V39.2072V39.1872V39.1673V39.1475V39.1278V39.1082V39.0886V39.0692V39.0498V39.0305V39.0113V38.9921V38.9731V38.9541V38.9352V38.9164V38.8976V38.879V38.8604V38.8419V38.8235V38.8051V38.7868V38.7686V38.7505V38.7325V38.7145V38.6966V38.6788V38.661V38.6433V38.6257V38.6082V38.5907V38.5733V38.556V38.5387V38.5216V38.5044V38.4874V38.4704V38.4535V38.4367V38.4199V38.4032V38.3866V38.37V38.3535V38.337V38.3206V38.3043V38.2881V38.2719V38.2558V38.2397V38.2237V38.2078V38.1919V38.1761V38.1603V38.1446V38.129V38.1134V38.0979V38.0824V38.067V38.0517V38.0364V38.0212V38.006V37.9909V37.9758V37.9608V37.9459V37.931V37.9161V37.9014V37.8866V37.8719V37.8573V37.8427V37.8282V37.8137V37.7993V37.7849V37.7706V37.7563V37.7421V37.7279V37.7137V37.6996V37.6856V37.6716V37.6577V37.6438V37.6299V37.6161V37.6023V37.5886V37.5749V37.5613V37.5477V37.5341V37.5206V37.5072V37.4937V37.4803V37.467V37.4537V37.4404V37.4272V37.414V37.4008V37.3877V37.3746V37.3616V37.3486V37.3356V37.3227V37.3098V37.297V37.2841V37.2713V37.2586V37.2458V37.2331V37.2205V37.2078V37.1952V37.1827V37.1701V37.1576V37.1451V37.1327V37.1203V37.1079V37.0955V37.0832V37.0709V37.0586V37.0463V37.0341V37.0219V37.0097V36.9975V36.9854V36.9733V36.9612V36.9491V36.9371V36.9251V36.9131V36.9011V36.8891V36.8772V36.8653V36.8534V36.8415V36.8297V36.8178V36.806V36.7942V36.7824V36.7706V36.7589V36.7471V36.7354V36.7237V36.712V36.7003V36.6886V36.677V36.6653V36.6537V36.6421V36.6305V36.6189V36.6073V36.5957V36.5842V36.5726V36.5611V36.5495V36.538V36.5265V36.5149V36.5034V36.4919V36.4804V36.4689V36.4574V36.446V36.4345V36.423V36.4115V36.4001V36.3886V36.3771V36.3657V36.3542V36.3428V36.3313V36.3198V36.3084V36.2969V36.2854V36.274V36.2625V36.251V36.2396V36.2281V36.2166V36.2051V36.1936V36.1821V36.1706V36.1591V36.1476V36.1361V36.1246V36.1131V36.1015V36.09V36.0784V36.0668V36.0553V36.0437V36.0321V36.0204V36.0088V35.9972V35.9855V35.9739V35.9622V35.9505V35.9388V35.9271V35.9154V35.9036V35.8919V35.8801V35.8683V35.8565V35.8447V35.8328V35.821V35.8091V35.7972V35.7852V35.7733V35.7614V35.7494V35.7374V35.7253V35.7133V35.7012V35.6891V35.677V35.6649V35.6527V35.6405V35.6283V35.6161V35.6038V35.5915V35.5792V35.5668V35.5545V35.5421V35.5296V35.5172V35.5047V35.4922V35.4796V35.4671V35.4545V35.4418V35.4291V35.4164V35.4037V35.3909V35.3781V35.3653V35.3524V35.3395V35.3266V35.3136V35.3006V35.2875V35.2744V35.2613V35.2481V35.2349V35.2217V35.2084V35.1951V35.1817V35.1684V35.1549V35.1414V35.1279V35.1143V35.1008V35.0871V35.0734V35.0597V35.0459V35.0321V35.0182V35.0043V34.9903V34.9763V34.9623V34.9482V34.934V34.9198V34.9056V34.8913V34.8769V34.8625V34.8481V34.8336V34.8191V34.8045V34.7898V34.7751V34.7604V34.7456V34.7307V34.7158V34.7009V34.6858V34.6708V34.6556V34.6404V34.6252V34.6099V34.5945V34.5791V34.5636V34.5481V34.5325V34.5169V34.5012V34.4854V34.4696V34.4537V34.4377V34.4217V34.4056V34.3895V34.3733V34.357V34.3407V34.3243V34.3078V34.2913V34.2747V34.2581V34.2413V34.2245V34.2077V34.1908V34.1738V34.1567V34.1396V34.1224V34.1051V34.0878V34.0704V34.0529V34.0353V34.0177V34V20V19.1187L116.126 19.0079L116 20C116.126 19.0079 116.126 19.0079 116.125 19.0079L116.125 19.0078L116.124 19.0076L116.118 19.007L116.1 19.0047L116.028 18.9959C115.965 18.9884 115.873 18.9774 115.751 18.9635C115.507 18.9357 115.147 18.8961 114.678 18.8488C113.74 18.7541 112.366 18.6283 110.612 18.5025C107.105 18.2511 102.081 18 96 18C89.9188 18 84.8947 18.2511 81.3879 18.5025C79.6344 18.6283 78.2599 18.7541 77.3219 18.8488C76.8529 18.8961 76.4929 18.9357 76.2493 18.9635C76.1275 18.9774 76.0347 18.9884 75.9719 18.9959L75.9003 19.0047L75.8815 19.007L75.8765 19.0076L75.875 19.0078L75.8746 19.0079C75.8744 19.0079 75.8743 19.0079 76 20L75.8743 19.0079L75 19.1187V20V34V34.0177V34.0353V34.0529V34.0704V34.0878V34.1051V34.1224V34.1396V34.1567V34.1738V34.1908V34.2077V34.2245V34.2413V34.2581V34.2747V34.2913V34.3078V34.3243V34.3407V34.357V34.3733V34.3895V34.4056V34.4217V34.4377V34.4537V34.4696V34.4854V34.5012V34.5169V34.5325V34.5481V34.5636V34.5791V34.5945V34.6099V34.6252V34.6404V34.6556V34.6708V34.6858V34.7009V34.7158V34.7307V34.7456V34.7604V34.7751V34.7898V34.8045V34.8191V34.8336V34.8481V34.8625V34.8769V34.8913V34.9056V34.9198V34.934V34.9482V34.9623V34.9763V34.9903V35.0043V35.0182V35.0321V35.0459V35.0597V35.0734V35.0871V35.1008V35.1143V35.1279V35.1414V35.1549V35.1684V35.1817V35.1951V35.2084V35.2217V35.2349V35.2481V35.2613V35.2744V35.2875V35.3006V35.3136V35.3266V35.3395V35.3524V35.3653V35.3781V35.3909V35.4037V35.4164V35.4291V35.4418V35.4545V35.4671V35.4796V35.4922V35.5047V35.5172V35.5296V35.5421V35.5545V35.5668V35.5792V35.5915V35.6038V35.6161V35.6283V35.6405V35.6527V35.6649V35.677V35.6891V35.7012V35.7133V35.7253V35.7374V35.7494V35.7614V35.7733V35.7852V35.7972V35.8091V35.821V35.8328V35.8447V35.8565V35.8683V35.8801V35.8919V35.9036V35.9154V35.9271V35.9388V35.9505V35.9622V35.9739V35.9855V35.9972V36.0088V36.0204V36.0321V36.0437V36.0553V36.0668V36.0784V36.09V36.1015V36.1131V36.1246V36.1361V36.1476V36.1591V36.1706V36.1821V36.1936V36.2051V36.2166V36.2281V36.2396V36.251V36.2625V36.274V36.2854V36.2969V36.3084V36.3198V36.3313V36.3428V36.3542V36.3657V36.3771V36.3886V36.4001V36.4115V36.423V36.4345V36.446V36.4574V36.4689V36.4804V36.4919V36.5034V36.5149V36.5265V36.538V36.5495V36.5611V36.5726V36.5842V36.5957V36.6073V36.6189V36.6305V36.6421V36.6537V36.6653V36.677V36.6886V36.7003V36.712V36.7237V36.7354V36.7471V36.7589V36.7706V36.7824V36.7942V36.806V36.8178V36.8297V36.8415V36.8534V36.8653V36.8772V36.8891V36.9011V36.9131V36.9251V36.9371V36.9491V36.9612V36.9733V36.9854V36.9975V37.0097V37.0219V37.0341V37.0463V37.0586V37.0709V37.0832V37.0955V37.1079V37.1203V37.1327V37.1451V37.1576V37.1701V37.1827V37.1952V37.2078V37.2205V37.2331V37.2458V37.2586V37.2713V37.2841V37.297V37.3098V37.3227V37.3356V37.3486V37.3616V37.3746V37.3877V37.4008V37.414V37.4272V37.4404V37.4537V37.467V37.4803V37.4937V37.5072V37.5206V37.5341V37.5477V37.5613V37.5749V37.5886V37.6023V37.6161V37.6299V37.6438V37.6577V37.6716V37.6856V37.6996V37.7137V37.7279V37.7421V37.7563V37.7706V37.7849V37.7993V37.8137V37.8282V37.8427V37.8573V37.8719V37.8866V37.9014V37.9161V37.931V37.9459V37.9608V37.9758V37.9909V38.006V38.0212V38.0364V38.0517V38.067V38.0824V38.0979V38.1134V38.129V38.1446V38.1603V38.1761V38.1919V38.2078V38.2237V38.2397V38.2558V38.2719V38.2881V38.3043V38.3206V38.337V38.3535V38.37V38.3866V38.4032V38.4199V38.4367V38.4535V38.4704V38.4874V38.5044V38.5216V38.5387V38.556V38.5733V38.5907V38.6082V38.6257V38.6433V38.661V38.6788V38.6966V38.7145V38.7325V38.7505V38.7686V38.7868V38.8051V38.8235V38.8419V38.8604V38.879V38.8976V38.9164V38.9352V38.9541V38.9731V38.9921V39.0113V39.0305V39.0498V39.0692V39.0886V39.1082V39.1278V39.1475V39.1673V39.1872V39.2072V39.2272V39.2474V39.2676V39.2879V39.3083V39.3288V39.3493V39.37V39.3907V39.4116V39.4325V39.4535V39.4746V39.4958V39.5171V39.5385V39.56V39.5815V39.6032V39.6249V39.6467V39.6687V39.6907V39.7128V39.7351V39.7574V39.7798V39.8023V39.8249V39.8476V39.8704V39.8933V39.9163V39.9394V39.9626V39.9859V40.0093V40.0328V40.0564V40.0801V40.1039V40.1278V40.1518V40.1759V40.2001V40.2244V40.2489V40.2734V40.298V40.3228V40.3476V40.3726V40.3976V40.4228V40.4481V40.4734V40.4989V40.5245V40.5502V40.5761V40.602V40.628V40.6542V40.6805V40.7068V40.7333V40.7599V40.7867V40.8135V40.8404V40.8675V40.8947V40.922V40.9494V40.9769V41.0045V41.0323V41.0602V41.0882V41.1163V41.1445V41.1728V41.2013V41.2299V41.2586V41.2874V41.3164V41.3455V41.3747V41.404V41.4334V41.463V41.4927V41.5225V41.5525V41.5825V41.6127V41.643V41.6735V41.7041V41.7348V41.7656V41.7965V41.8276V41.8588V41.8902V41.9216V41.9533V41.985V42.0169V42.0489V42.081V42.1133V42.1456V42.1782V42.2108V42.2436V42.2766V42.3096V42.3428V42.3762V42.4096V42.4433V42.477V42.5109V42.5449V42.5791V42.6134V42.6478V42.6824V42.7171V42.752V42.787V42.8221V42.8574V42.8928V42.8955L74.9875 42.9548C74.9652 43.0614 74.9326 43.2184 74.8913 43.4213C74.8085 43.8272 74.6905 44.417 74.5491 45.1557C74.2663 46.6326 73.8893 48.7061 73.5122 51.094C72.7601 55.8577 72 61.9199 72 67V67.0108L72.0002 67.0216L75.0002 206.022L75.0213 207ZM77 20.8929C77.1546 20.8764 77.329 20.8582 77.5227 20.8387C78.4428 20.7458 79.798 20.6217 81.531 20.4974C84.9972 20.2489 89.9731 20 96 20C102.027 20 107.003 20.2489 110.469 20.4974C112.202 20.6217 113.557 20.7458 114.477 20.8387C114.671 20.8582 114.845 20.8764 115 20.8929V32.8927C114.856 32.8788 114.698 32.8639 114.528 32.848C113.514 32.7536 112.046 32.628 110.231 32.5024C106.602 32.2512 101.578 32 96 32C90.4217 32 85.3979 32.2512 81.7688 32.5024C79.9538 32.628 78.4864 32.7536 77.4716 32.848C77.3015 32.8639 77.1442 32.8788 77 32.8927V20.8929ZM77 34.9022C77.1904 34.8835 77.4099 34.8624 77.6568 34.8394C78.6577 34.7463 80.1093 34.622 81.9069 34.4976C85.503 34.2487 90.4792 34 96 34C101.521 34 106.497 34.2487 110.093 34.4976C111.891 34.622 113.342 34.7463 114.343 34.8394C114.59 34.8624 114.81 34.8835 115 34.9022V34.9056V34.9198V34.934V34.9482V34.9623V34.9763V34.9903V35.0043V35.0182V35.0321V35.0459V35.0597V35.0734V35.0871V35.1008V35.1143V35.1279V35.1414V35.1549V35.1684V35.1817V35.1951V35.2084V35.2217V35.2349V35.2481V35.2613V35.2744V35.2875V35.3006V35.3136V35.3266V35.3395V35.3524V35.3653V35.3781V35.3909V35.4037V35.4164V35.4291V35.4418V35.4545V35.4671V35.4796V35.4922V35.5047V35.5172V35.5296V35.5421V35.5545V35.5668V35.5792V35.5915V35.6038V35.6161V35.6283V35.6405V35.6527V35.6649V35.677V35.6891V35.7012V35.7133V35.7253V35.7374V35.7494V35.7614V35.7733V35.7852V35.7972V35.8091V35.821V35.8328V35.8447V35.8565V35.8683V35.8801V35.8919V35.9036V35.9154V35.9271V35.9388V35.9505V35.9622V35.9739V35.9855V35.9972V36.0088V36.0204V36.0321V36.0437V36.0553V36.0668V36.0784V36.09V36.1015V36.1131V36.1246V36.1361V36.1476V36.1591V36.1706V36.1821V36.1936V36.2051V36.2166V36.2281V36.2396V36.251V36.2625V36.274V36.2854V36.2969V36.3084V36.3198V36.3313V36.3428V36.3542V36.3657V36.3771V36.3886V36.4001V36.4115V36.423V36.4345V36.446V36.4574V36.4689V36.4804V36.4919V36.5034V36.5149V36.5265V36.538V36.5495V36.5611V36.5726V36.5842V36.5957V36.6073V36.6189V36.6305V36.6421V36.6537V36.6653V36.677V36.6886V36.7003V36.712V36.7237V36.7354V36.7471V36.7589V36.7706V36.7824V36.7942V36.806V36.8178V36.8297V36.8415V36.8534V36.8653V36.8772V36.8891V36.9011V36.9131V36.9251V36.9371V36.9491V36.9612V36.9733V36.9854V36.9975V37.0097V37.0219V37.0341V37.0463V37.0586V37.0709V37.0832V37.0955V37.1079V37.1203V37.1327V37.1451V37.1576V37.1701V37.1827V37.1952V37.2078V37.2205V37.2331V37.2458V37.2586V37.2713V37.2841V37.297V37.3098V37.3227V37.3356V37.3486V37.3616V37.3746V37.3877V37.4008V37.414V37.4272V37.4404V37.4537V37.467V37.4803V37.4937V37.5072V37.5206V37.5341V37.5477V37.5613V37.5749V37.5886V37.6023V37.6161V37.6299V37.6438V37.6577V37.6716V37.6856V37.6996V37.7137V37.7279V37.7421V37.7563V37.7706V37.7849V37.7993V37.8137V37.8282V37.8427V37.8573V37.8719V37.8866V37.9014V37.9161V37.931V37.9459V37.9608V37.9758V37.9909V38.006V38.0212V38.0364V38.0517V38.067V38.0824V38.0979V38.1134V38.129V38.1446V38.1603V38.1761V38.1919V38.2078V38.2237V38.2397V38.2558V38.2719V38.2881V38.3043V38.3206V38.337V38.3535V38.37V38.3866V38.4032V38.4199V38.4367V38.4535V38.4704V38.4874V38.5044V38.5216V38.5387V38.556V38.5733V38.5907V38.6082V38.6257V38.6433V38.661V38.6788V38.6966V38.7145V38.7325V38.7505V38.7686V38.7868V38.8051V38.8235V38.8419V38.8604V38.879V38.8976V38.9164V38.9352V38.9541V38.9731V38.9921V39.0113V39.0305V39.0498V39.0692V39.0886V39.1082V39.1278V39.1475V39.1673V39.1872V39.2072V39.2272V39.2474V39.2676V39.2879V39.3083V39.3288V39.3493V39.37V39.3907V39.4116V39.4325V39.4535V39.4746V39.4958V39.5171V39.5385V39.56V39.5815V39.6032V39.6249V39.6467V39.6687V39.6907V39.7128V39.7351V39.7574V39.7798V39.8023V39.8249V39.8476V39.8704V39.8933V39.9163V39.9394V39.9626V39.9859V40.0093V40.0328V40.0564V40.0801V40.1039V40.1278V40.1518V40.1759V40.2001V40.2244V40.2489V40.2734V40.298V40.3228V40.3476V40.3726V40.3976V40.4228V40.4481V40.4734V40.4989V40.5245V40.5502V40.5761V40.602V40.628V40.6542V40.6805V40.7068V40.7333V40.7599V40.7867V40.8135V40.8404V40.8675V40.8947V40.922V40.9494V40.9769V41.0045V41.0323V41.0602V41.0882V41.1163V41.1445V41.1728V41.2013V41.2299V41.2586V41.2874V41.3164V41.3455V41.3747V41.404V41.4334V41.463V41.4927V41.5225V41.5525V41.5825V41.6127V41.643V41.6735V41.7041V41.7348V41.7656V41.7965V41.8276V41.8588V41.8902V41.9104C114.772 41.8915 114.511 41.8702 114.22 41.8469C113.044 41.7528 111.383 41.6275 109.439 41.5021C105.556 41.2515 100.531 41 96 41C91.4686 41 86.4441 41.2515 82.5606 41.5021C80.6171 41.6275 78.9556 41.7528 77.7796 41.8469C77.4891 41.8702 77.2282 41.8915 77 41.9104V41.8902V41.8588V41.8276V41.7965V41.7656V41.7348V41.7041V41.6735V41.643V41.6127V41.5825V41.5525V41.5225V41.4927V41.463V41.4334V41.404V41.3747V41.3455V41.3164V41.2874V41.2586V41.2299V41.2013V41.1728V41.1445V41.1163V41.0882V41.0602V41.0323V41.0045V40.9769V40.9494V40.922V40.8947V40.8675V40.8404V40.8135V40.7867V40.7599V40.7333V40.7068V40.6805V40.6542V40.628V40.602V40.5761V40.5502V40.5245V40.4989V40.4734V40.4481V40.4228V40.3976V40.3726V40.3476V40.3228V40.298V40.2734V40.2489V40.2244V40.2001V40.1759V40.1518V40.1278V40.1039V40.0801V40.0564V40.0328V40.0093V39.9859V39.9626V39.9394V39.9163V39.8933V39.8704V39.8476V39.8249V39.8023V39.7798V39.7574V39.7351V39.7128V39.6907V39.6687V39.6467V39.6249V39.6032V39.5815V39.56V39.5385V39.5171V39.4958V39.4746V39.4535V39.4325V39.4116V39.3907V39.37V39.3493V39.3288V39.3083V39.2879V39.2676V39.2474V39.2272V39.2072V39.1872V39.1673V39.1475V39.1278V39.1082V39.0886V39.0692V39.0498V39.0305V39.0113V38.9921V38.9731V38.9541V38.9352V38.9164V38.8976V38.879V38.8604V38.8419V38.8235V38.8051V38.7868V38.7686V38.7505V38.7325V38.7145V38.6966V38.6788V38.661V38.6433V38.6257V38.6082V38.5907V38.5733V38.556V38.5387V38.5216V38.5044V38.4874V38.4704V38.4535V38.4367V38.4199V38.4032V38.3866V38.37V38.3535V38.337V38.3206V38.3043V38.2881V38.2719V38.2558V38.2397V38.2237V38.2078V38.1919V38.1761V38.1603V38.1446V38.129V38.1134V38.0979V38.0824V38.067V38.0517V38.0364V38.0212V38.006V37.9909V37.9758V37.9608V37.9459V37.931V37.9161V37.9014V37.8866V37.8719V37.8573V37.8427V37.8282V37.8137V37.7993V37.7849V37.7706V37.7563V37.7421V37.7279V37.7137V37.6996V37.6856V37.6716V37.6577V37.6438V37.6299V37.6161V37.6023V37.5886V37.5749V37.5613V37.5477V37.5341V37.5206V37.5072V37.4937V37.4803V37.467V37.4537V37.4404V37.4272V37.414V37.4008V37.3877V37.3746V37.3616V37.3486V37.3356V37.3227V37.3098V37.297V37.2841V37.2713V37.2586V37.2458V37.2331V37.2205V37.2078V37.1952V37.1827V37.1701V37.1576V37.1451V37.1327V37.1203V37.1079V37.0955V37.0832V37.0709V37.0586V37.0463V37.0341V37.0219V37.0097V36.9975V36.9854V36.9733V36.9612V36.9491V36.9371V36.9251V36.9131V36.9011V36.8891V36.8772V36.8653V36.8534V36.8415V36.8297V36.8178V36.806V36.7942V36.7824V36.7706V36.7589V36.7471V36.7354V36.7237V36.712V36.7003V36.6886V36.677V36.6653V36.6537V36.6421V36.6305V36.6189V36.6073V36.5957V36.5842V36.5726V36.5611V36.5495V36.538V36.5265V36.5149V36.5034V36.4919V36.4804V36.4689V36.4574V36.446V36.4345V36.423V36.4115V36.4001V36.3886V36.3771V36.3657V36.3542V36.3428V36.3313V36.3198V36.3084V36.2969V36.2854V36.274V36.2625V36.251V36.2396V36.2281V36.2166V36.2051V36.1936V36.1821V36.1706V36.1591V36.1476V36.1361V36.1246V36.1131V36.1015V36.09V36.0784V36.0668V36.0553V36.0437V36.0321V36.0204V36.0088V35.9972V35.9855V35.9739V35.9622V35.9505V35.9388V35.9271V35.9154V35.9036V35.8919V35.8801V35.8683V35.8565V35.8447V35.8328V35.821V35.8091V35.7972V35.7852V35.7733V35.7614V35.7494V35.7374V35.7253V35.7133V35.7012V35.6891V35.677V35.6649V35.6527V35.6405V35.6283V35.6161V35.6038V35.5915V35.5792V35.5668V35.5545V35.5421V35.5296V35.5172V35.5047V35.4922V35.4796V35.4671V35.4545V35.4418V35.4291V35.4164V35.4037V35.3909V35.3781V35.3653V35.3524V35.3395V35.3266V35.3136V35.3006V35.2875V35.2744V35.2613V35.2481V35.2349V35.2217V35.2084V35.1951V35.1817V35.1684V35.1549V35.1414V35.1279V35.1143V35.1008V35.0871V35.0734V35.0597V35.0459V35.0321V35.0182V35.0043V34.9903V34.9763V34.9623V34.9482V34.934V34.9198V34.9056V34.9022ZM76.8284 43.9318C76.7487 44.3246 76.6407 44.8668 76.5134 45.5318C76.2337 46.9923 75.8607 49.0439 75.4877 51.406C74.7404 56.1388 74.0011 62.0715 74 66.9892L74 67L74.9731 112.082L74.991 112.085C75.2447 112.128 75.6172 112.185 76.0857 112.234L75.9814 113.228C75.585 113.187 75.2521 113.14 74.995 113.099L76.3776 177.151C76.5704 177.18 76.7965 177.21 77.0516 177.237L76.9443 178.232C76.7459 178.21 76.5638 178.187 76.3994 178.165L76.9787 205H115.021L116.6 131.845C116.412 131.818 116.194 131.789 115.948 131.762L116.056 130.768C116.263 130.791 116.452 130.815 116.622 130.838L118 67V66.9892L118 66.9136C117.746 66.8703 117.377 66.8149 116.914 66.7664L117.019 65.7718C117.406 65.8125 117.734 65.8579 117.988 65.8983C117.891 61.2128 117.205 55.7938 116.512 51.406C116.139 49.0439 115.766 46.9923 115.487 45.5318C115.359 44.8668 115.251 44.3246 115.172 43.9318C114.879 43.9071 114.505 43.8761 114.061 43.8405C112.893 43.7471 111.242 43.6225 109.311 43.4979C105.444 43.2485 100.469 43 96 43C91.5314 43 86.5559 43.2485 82.6894 43.4979C80.7579 43.6225 79.1069 43.7471 77.9391 43.8405C77.4952 43.8761 77.1213 43.9071 76.8284 43.9318ZM115.904 66.686C115.042 66.6385 114.004 66.6343 112.864 66.7366L112.775 65.7406C113.97 65.6333 115.057 65.6378 115.959 65.6875L115.904 66.686ZM111.857 66.8529C110.91 66.987 109.913 67.1996 108.903 67.5219L108.599 66.5693C109.669 66.2279 110.721 66.0037 111.717 65.8627L111.857 66.8529ZM107.954 67.8573C107.051 68.208 106.147 68.6531 105.268 69.2148L104.729 68.372C105.669 67.772 106.633 67.2977 107.592 66.9251L107.954 67.8573ZM104.441 69.784C103.67 70.3545 102.923 71.0248 102.22 71.8112L101.475 71.1447C102.224 70.3062 103.021 69.5902 103.846 68.9801L104.441 69.784ZM101.576 72.5805C100.989 73.3291 100.438 74.1708 99.9359 75.1168L99.0527 74.6479C99.5819 73.651 100.165 72.7597 100.789 71.9635L101.576 72.5805ZM99.4844 76.0246C99.0805 76.8923 98.715 77.8401 98.3963 78.8749L97.4406 78.5806C97.7721 77.5043 98.1537 76.5138 98.5778 75.6026L99.4844 76.0246ZM98.1192 79.8418C97.8708 80.7756 97.6586 81.7752 97.4879 82.8452L96.5004 82.6877C96.6761 81.5861 96.8952 80.5532 97.1528 79.5847L98.1192 79.8418ZM97.3427 83.8495C97.2165 84.8207 97.1231 85.8464 97.0659 86.9294L96.0673 86.8768C96.1257 85.7696 96.2214 84.7185 96.3511 83.7206L97.3427 83.8495ZM97.0239 87.9363C97.0081 88.4454 97 88.9665 97 89.5C97 90.0435 96.9918 90.575 96.9757 91.0947L95.9761 91.0637C95.9919 90.5546 96 90.0335 96 89.5C96 88.9565 96.0082 88.425 96.0243 87.9053L97.0239 87.9363ZM96.9327 92.1232C96.8743 93.2304 96.7786 94.2815 96.6489 95.2794L95.6573 95.1505C95.7835 94.1793 95.8769 93.1536 95.9341 92.0705L96.9327 92.1232ZM96.4996 96.3123C96.3239 97.4139 96.1048 98.4468 95.8472 99.4153L94.8808 99.1582C95.1292 98.2244 95.3414 97.2248 95.5121 96.1548L96.4996 96.3123ZM95.5594 100.419C95.2279 101.496 94.8463 102.486 94.4222 103.397L93.5156 102.975C93.9195 102.108 94.285 101.16 94.6037 100.125L95.5594 100.419ZM93.9473 104.352C93.4181 105.349 92.8352 106.24 92.211 107.036L91.424 106.419C92.0109 105.671 92.5619 104.829 93.0641 103.883L93.9473 104.352ZM91.5254 107.855C90.7757 108.694 89.9787 109.41 89.1544 110.02L88.5595 109.216C89.3305 108.645 90.0767 107.975 90.7799 107.189L91.5254 107.855ZM88.2706 110.628C87.331 111.228 86.3675 111.702 85.4082 112.075L85.0462 111.143C85.949 110.792 86.8529 110.347 87.7324 109.785L88.2706 110.628ZM84.4006 112.431C83.3311 112.772 82.2788 112.996 81.2831 113.137L81.1429 112.147C82.0902 112.013 83.0869 111.8 84.0965 111.478L84.4006 112.431ZM80.2249 113.259C79.0296 113.367 77.9428 113.362 77.041 113.313L77.096 112.314C77.9578 112.361 78.9956 112.366 80.1355 112.263L80.2249 113.259ZM111.992 131.749C113.103 131.637 114.116 131.637 114.958 131.682L115.013 130.684C114.127 130.636 113.062 130.636 111.891 130.754L111.992 131.749ZM108.143 132.592C109.12 132.249 110.088 132.021 111.01 131.876L110.854 130.888C109.881 131.042 108.853 131.283 107.812 131.648L108.143 132.592ZM104.657 134.368C105.496 133.782 106.361 133.316 107.226 132.947L106.834 132.027C105.91 132.421 104.984 132.92 104.084 133.549L104.657 134.368ZM101.788 137.038C102.447 136.233 103.149 135.545 103.874 134.957L103.245 134.18C102.467 134.81 101.717 135.546 101.015 136.404L101.788 137.038ZM99.6801 140.358C100.142 139.412 100.65 138.567 101.192 137.814L100.381 137.23C99.8046 138.03 99.2679 138.924 98.7816 139.919L99.6801 140.358ZM98.275 144.072C98.5658 143.052 98.8995 142.115 99.2688 141.255L98.3499 140.861C97.963 141.762 97.6152 142.739 97.3133 143.797L98.275 144.072ZM97.4457 147.977C97.601 146.93 97.7941 145.949 98.0202 145.031L97.0492 144.792C96.8152 145.742 96.6162 146.754 96.4565 147.83L97.4457 147.977ZM97.0601 151.985C97.1123 150.925 97.1975 149.919 97.3127 148.966L96.3199 148.846C96.2017 149.824 96.1146 150.853 96.0613 151.936L97.0601 151.985ZM97 154.5C97 153.978 97.0074 153.467 97.0218 152.968L96.0222 152.939C96.0075 153.448 96 153.968 96 154.5C96 155.022 95.9926 155.533 95.9782 156.032L96.9778 156.061C96.9925 155.552 97 155.032 97 154.5ZM96.6801 160.154C96.7983 159.176 96.8854 158.147 96.9387 157.064L95.9399 157.015C95.8877 158.075 95.8025 159.081 95.6873 160.034L96.6801 160.154ZM95.9507 164.208C96.1848 163.258 96.3838 162.246 96.5435 161.17L95.5543 161.023C95.399 162.07 95.2059 163.051 94.9798 163.969L95.9507 164.208ZM94.6501 168.139C95.037 167.238 95.3848 166.261 95.6867 165.203L94.725 164.928C94.4342 165.948 94.1005 166.885 93.7312 167.745L94.6501 168.139ZM92.6194 171.77C93.1954 170.97 93.7321 170.076 94.2184 169.081L93.3199 168.642C92.8576 169.588 92.3496 170.433 91.8075 171.186L92.6194 171.77ZM89.7546 174.82C90.5328 174.19 91.2826 173.454 91.9855 172.596L91.2119 171.962C90.5526 172.767 89.8513 173.455 89.1255 174.043L89.7546 174.82ZM86.1658 176.973C87.0902 176.579 88.016 176.08 88.9158 175.451L88.3429 174.632C87.5038 175.218 86.6393 175.684 85.7739 176.053L86.1658 176.973ZM82.1457 178.112C83.1194 177.958 84.1467 177.717 85.1883 177.352L84.8575 176.408C83.8796 176.751 82.9117 176.979 81.9901 177.124L82.1457 178.112ZM77.9875 178.316C78.8725 178.364 79.9384 178.364 81.1086 178.246L81.0078 177.251C79.8973 177.363 78.8841 177.363 78.0419 177.318L77.9875 178.316ZM77 186V184H115V186H77ZM83.5 26C83.5 27.9986 86 26.6612 86 26.6612C84.9091 28.9755 82 27.9836 82 26C82 24.0163 84.9091 23.0245 86 25.3388C86 25.3388 83.5 24.0014 83.5 26ZM108 28C109.105 28 110 27.1046 110 26C110 24.8954 109.105 24 108 24C106.895 24 106 24.8954 106 26C106 27.1046 106.895 28 108 28ZM92 24.5C92 24.2238 92.2239 24 92.5 24H95.5C95.7761 24 96 24.2238 96 24.5C96 24.7761 95.7761 25 95.5 25H92.5C92.2239 25 92 24.7761 92 24.5ZM92.5 26C92.2239 26 92 26.2238 92 26.5C92 26.7761 92.2239 27 92.5 27H95.5C95.7761 27 96 26.7761 96 26.5C96 26.2238 95.7761 26 95.5 26H92.5ZM97 26.5C97 26.2238 97.2239 26 97.5 26H99.5C99.7761 26 100 26.2238 100 26.5C100 26.7761 99.7761 27 99.5 27H97.5C97.2239 27 97 26.7761 97 26.5ZM97.5 24C97.2239 24 97 24.2238 97 24.5C97 24.7761 97.2239 25 97.5 25H99.5C99.7761 25 100 24.7761 100 24.5C100 24.2238 99.7761 24 99.5 24H97.5Z" fill="black"/>
<path fill-rule="evenodd" clip-rule="evenodd" d="M86.9768 33.1506C87.0599 32.8873 86.9139 32.6064 86.6506 32.5232C86.3872 32.4401 86.1064 32.5861 86.0232 32.8494L83.0232 42.3494L83 42.4229V42.5V116.928V146H82C81.4477 146 81 146.448 81 147C81 147.552 81.4477 148 82 148H83V183V186V188V198C83 198.276 83.2239 198.5 83.5 198.5C83.7761 198.5 84 198.276 84 198V188H85V186H84V184H85L84 182V148H85C85.5523 148 86 147.552 86 147C86 146.448 85.5523 146 85 146H84V116.928V45L85 43H84V42.5771L86.9768 33.1506ZM83.9608 33.694C84.068 33.4395 83.9485 33.1464 83.694 33.0392C83.4395 32.932 83.1463 33.0515 83.0392 33.306L79.0392 42.806L79 42.899V43V123.991V158H78C77.4477 158 77 158.448 77 159C77 159.552 77.4477 160 78 160H79V183V186V188V198.5C79 198.776 79.2239 199 79.5 199C79.7761 199 80 198.776 80 198.5V188H81V186H80V184H81L80 182V160H81C81.5523 160 82 159.552 82 159C82 158.448 81.5523 158 81 158H80V123.991V45L81 43H80.0425L83.9608 33.694ZM90.6085 32.5119C90.878 32.5718 91.048 32.8389 90.9881 33.1085L89 42.0549V43H90L89 45V109.5V134H90C90.5523 134 91 134.448 91 135C91 135.552 90.5523 136 90 136H89V182L90 184H89V186H90V188H89V199.5C89 199.776 88.7761 200 88.5 200C88.2239 200 88 199.776 88 199.5V188V186V183V136H87C86.4477 136 86 135.552 86 135C86 134.448 86.4477 134 87 134H88V109.5V42V41.9451L88.0119 41.8915L90.0119 32.8915C90.0718 32.622 90.3389 32.452 90.6085 32.5119ZM94.9969 33.0552C95.0274 32.7808 94.8297 32.5336 94.5552 32.5031C94.2808 32.4726 94.0336 32.6703 94.0031 32.9448L93.0031 41.9448L93 41.9723V42V102.5V122H92C91.4477 122 91 122.448 91 123C91 123.552 91.4477 124 92 124H93V183V186V188V198C93 198.276 93.2239 198.5 93.5 198.5C93.7761 198.5 94 198.276 94 198V188H95V186H94V184H95L94 182V124H95C95.5523 124 96 123.552 96 123C96 122.448 95.5523 122 95 122H94V102.5V45L95 43H94V42.0277L94.9969 33.0552ZM97.4448 32.5031C97.7192 32.4726 97.9664 32.6703 97.9969 32.9448L98.9969 41.9448L99 41.9723V42V96.1562V110H100C100.552 110 101 110.448 101 111C101 111.552 100.552 112 100 112H99V183V186V188V198C99 198.276 98.7761 198.5 98.5 198.5C98.2239 198.5 98 198.276 98 198V188H97V186H98V184H97L98 182V112H97C96.4477 112 96 111.552 96 111C96 110.448 96.4477 110 97 110H98V96.1562V45L97 43H98V42.0277L97.0031 33.0552C96.9726 32.7808 97.1703 32.5336 97.4448 32.5031ZM101.988 32.8915C101.928 32.622 101.661 32.452 101.392 32.5119C101.122 32.5718 100.952 32.8389 101.012 33.1085L103 42.0549V43H102L103 45V89V98H102C101.448 98 101 98.4477 101 99C101 99.5523 101.448 100 102 100H103V182L102 184H103V186H102V188H103V199.5C103 199.776 103.224 200 103.5 200C103.776 200 104 199.776 104 199.5V188V186V183V100H105C105.552 100 106 99.5523 106 99C106 98.4477 105.552 98 105 98H104V89V42V41.9451L103.988 41.8915L101.988 32.8915ZM105.342 33.0257C105.604 32.9383 105.887 33.0799 105.974 33.3419L108.974 42.3419L109 42.4189V42.5V73V86H110C110.552 86 111 86.4477 111 87C111 87.5523 110.552 88 110 88H109V183V186V188V198C109 198.276 108.776 198.5 108.5 198.5C108.224 198.5 108 198.276 108 198V188H107V186H108V184H107L108 182V88H107C106.448 88 106 87.5523 106 87C106 86.4477 106.448 86 107 86H108V73V45L107 43H108V42.5812L105.026 33.6581C104.938 33.3962 105.08 33.113 105.342 33.0257ZM108.961 33.306C108.854 33.0515 108.56 32.932 108.306 33.0392C108.051 33.1464 107.932 33.4395 108.039 33.694L111.957 43H111L112 45V74H111C110.448 74 110 74.4477 110 75C110 75.5523 110.448 76 111 76H112V182L111 184H112V186H111V188H112V198.5C112 198.776 112.224 199 112.5 199C112.776 199 113 198.776 113 198.5V188V186V183V76H114C114.552 76 115 75.5523 115 75C115 74.4477 114.552 74 114 74H113V43V42.899L112.961 42.806L108.961 33.306Z" fill="black"/>
<path d="M76 200C76 200 79.5 198 81.75 198C84 198 84.645 200 86.5 200C88.355 200 89.645 198 91.5 198C93.355 198 94.145 200 96 200C97.855 200 98.645 198 100.5 198C102.355 198 103.5 200 105.5 200C107.5 200 108.5 198 110.5 198C112.5 198 116 200 116 200" stroke="black" stroke-width="2" stroke-linecap="round"/>
<path d="M45.1471 47.6081C42.2504 67.6483 59.9089 117.057 59.9089 117.057L61.988 126.838" stroke="black" stroke-width="2" stroke-linecap="round"/>
<path d="M45.5322 47.0151L60.7098 118.42" stroke="black"/>
</g>
<defs>
<clipPath id="clip0">
<rect width="192" height="224" fill="white"/>
</clipPath>
</defs>
</svg>
