<svg width="192" height="224" viewBox="0 0 192 224" fill="none" xmlns="http://www.w3.org/2000/svg">
<path fill-rule="evenodd" clip-rule="evenodd" d="M89.5059 39.0001L89.5023 40.0001L89.265 39.0286L89.3837 38.9996L89.5059 39.0001ZM136.251 49.0072C126.329 44.0489 114.674 41.5546 105.521 40.2949C100.905 39.6597 96.9082 39.3362 94.063 39.1713C92.6401 39.0889 91.5045 39.0461 90.723 39.0239C90.3322 39.0128 90.0298 39.0068 89.8242 39.0037C89.7214 39.0021 89.6427 39.0012 89.5894 39.0007L89.5283 39.0002L89.5122 39.0001L89.5059 39.0001C89.5059 39.0001 89.5059 39.0001 89.5023 40.0001C89.265 39.0286 89.265 39.0286 89.265 39.0286L89.2444 39.0337L89.1879 39.0477C89.1384 39.0601 89.0656 39.0784 88.9705 39.1026C88.7804 39.1511 88.5015 39.2232 88.1433 39.3187C87.427 39.5096 86.3932 39.7941 85.118 40.1692C82.5683 40.9193 79.0491 42.0333 75.1699 43.4899C67.4645 46.3831 58.1956 50.6791 52.3448 56.2438C52.3359 56.2509 52.3256 56.2591 52.3141 56.2684C52.2696 56.3041 52.2059 56.356 52.1242 56.4242C51.9607 56.5607 51.7253 56.7624 51.4282 57.0307C50.834 57.5674 49.9929 58.3706 48.9875 59.4507C46.9768 61.6107 44.3075 64.8795 41.6421 69.3391C36.3073 78.2646 31 91.9402 31 111C31 130.057 36.3061 144.225 41.63 153.639C44.2907 158.344 46.9543 161.86 48.9594 164.205C49.9621 165.377 50.8004 166.257 51.3919 166.848C51.6877 167.143 51.9218 167.366 52.084 167.517C52.1651 167.592 52.2282 167.65 52.272 167.689C52.2939 167.709 52.311 167.724 52.3232 167.735L52.3376 167.748L52.342 167.751L52.3434 167.753C52.3434 167.753 52.3444 167.754 53.0009 166.999L52.3444 167.754L52.3616 167.769L52.3794 167.783C58.6972 172.794 67.6803 177.087 75.023 180.115C78.7058 181.633 81.9979 182.842 84.3699 183.671C85.5561 184.086 86.5129 184.406 87.1742 184.623C87.5049 184.731 87.7617 184.814 87.9365 184.869C88.0238 184.897 88.0907 184.918 88.136 184.932L88.1877 184.949L88.2011 184.953L88.2047 184.954L88.2058 184.954C88.2058 184.954 88.2062 184.954 88.5023 183.999L88.2058 184.954L88.3525 185L88.5056 184.999L88.5023 183.999C88.5056 184.999 88.5056 184.999 88.5056 184.999L88.5076 184.999L88.5122 184.999L88.5293 184.999L88.5944 184.999C88.6514 184.998 88.7354 184.997 88.8453 184.996C89.0651 184.992 89.3882 184.986 89.8051 184.975C90.6389 184.953 91.8482 184.91 93.3565 184.828C96.3725 184.663 100.588 184.34 105.391 183.705C114.903 182.447 126.815 179.956 136.264 174.991C137.335 174.922 138.456 174.446 139.563 173.711C140.773 172.907 142.049 171.737 143.341 170.25C145.928 167.273 148.66 162.935 151.145 157.412C156.117 146.361 160.145 130.468 159.996 110.992C159.847 91.5247 155.821 76.1321 150.918 65.5759C148.469 60.3015 145.789 56.2097 143.242 53.4187C141.97 52.0237 140.712 50.9338 139.514 50.1864C138.414 49.4998 137.306 49.0673 136.251 49.0072ZM133.06 49.7068C123.945 45.6021 113.601 43.4258 105.248 42.2762C100.695 41.6496 96.751 41.3304 93.9473 41.1679C92.5457 41.0867 91.4299 41.0447 90.6662 41.0231C90.3225 41.0133 90.0501 41.0077 89.8552 41.0044C89.6751 41.1566 89.4064 41.3898 89.0618 41.7065C88.372 42.3404 87.3781 43.3088 86.1811 44.6313C83.7872 47.2762 80.5813 51.3372 77.3707 56.9723C70.9532 68.236 65 85.8164 65 111C65 136.192 70.7076 154.283 76.8873 166.057C79.9785 171.947 83.0655 176.261 85.3716 179.095C86.5247 180.512 87.4824 181.56 88.1475 182.248C88.467 182.579 88.719 182.828 88.8926 182.995C89.1012 182.991 89.3899 182.986 89.752 182.976C90.5689 182.954 91.7595 182.912 93.2475 182.831C96.2241 182.668 100.387 182.349 105.129 181.722C113.825 180.572 124.385 178.398 133.136 174.309C132.598 174.054 132.068 173.736 131.547 173.364C130.119 172.342 128.71 170.877 127.348 169.071C124.624 165.46 121.994 160.367 119.707 154.358C115.129 142.333 111.854 126.46 112.003 110.99C112.149 95.8912 115.422 80.5223 119.928 68.9072C122.179 63.1028 124.756 58.1906 127.437 54.7094C129.201 52.4177 131.099 50.6345 133.06 49.7068ZM85.0112 181.776C82.6666 180.956 79.4173 179.763 75.7854 178.266C68.4873 175.257 59.7312 171.056 53.6429 166.232L53.6093 166.202C53.5736 166.17 53.5188 166.12 53.4461 166.053C53.3006 165.917 53.0836 165.711 52.8051 165.433C52.2481 164.877 51.4458 164.035 50.4796 162.905C48.547 160.645 45.9605 157.234 43.371 152.655C38.1944 143.501 33.0001 129.669 33.0001 111C33.0001 92.332 38.1932 79.0078 43.3589 70.3652C45.9436 66.0407 48.5246 62.8834 50.4515 60.8134C51.4149 59.7784 52.2145 59.0156 52.7688 58.5149C53.0459 58.2646 53.2617 58.0799 53.4059 57.9596C53.478 57.8994 53.5322 57.8553 53.5672 57.8272L53.6052 57.7969L53.6131 57.7907L53.6141 57.7899L53.6541 57.7589L53.6912 57.7234C59.2287 52.4401 68.1894 48.2473 75.873 45.3622C79.6959 43.9268 83.1672 42.8278 85.6824 42.0879C85.7464 42.0691 85.8097 42.0505 85.8725 42.0321C85.5064 42.4114 85.1137 42.8302 84.6982 43.2892C82.217 46.0306 78.9226 50.2083 75.6329 55.9822C69.0499 67.5365 62.9999 85.4567 62.9999 111C62.9999 136.535 68.7955 154.943 75.1163 166.987C78.2754 173.006 81.4386 177.43 83.8202 180.358C84.2433 180.878 84.6418 181.35 85.0112 181.776ZM121.792 69.6304C117.371 81.0277 114.146 96.1586 114.003 111.009C113.857 126.213 117.081 141.839 121.576 153.646C123.824 159.553 126.374 164.458 128.945 167.867C130.231 169.571 131.499 170.871 132.71 171.737C133.923 172.604 135.024 172.999 136 172.999C136.599 172.999 137.424 172.731 138.456 172.046C139.474 171.369 140.617 170.335 141.832 168.938C144.259 166.145 146.894 161.985 149.321 156.592C154.171 145.812 158.143 130.205 157.996 111.007C157.849 91.8008 153.877 76.6935 149.104 66.4183C146.717 61.2771 144.14 57.3703 141.765 54.7666C140.577 53.4644 139.457 52.5079 138.456 51.8833C137.444 51.2525 136.619 51 136 51C133.999 51 131.591 52.5932 129.021 55.9297C126.498 59.2063 124.004 63.9285 121.792 69.6304Z" fill="black"/>
<path d="M158.497 111.121C158.253 77.1253 145.281 58 139.5 58C131.241 58 121.238 84.6734 121 111C120.756 137.963 131.241 166 139.5 166C145.281 166 158.741 145.117 158.497 111.121Z" stroke="black" stroke-width="2"/>
<path d="M77 168L129 170L88 183L51 165M77 168L121 156L68 148M77 168L39.5 148M68 148L115 134L64 123M68 148L34 131M64 123L113 111L64 99M64 123L32 114M64 99L116 86L68 75M64 99L32.5 100M68 75L121 68L77 55M68 75L35.5 85M77 55L130 53L89 40.5L48.5 61M77 55L41.5 71" stroke="black" stroke-miterlimit="1.88813" stroke-dasharray="4 1"/>
<rect x="111" y="109" width="4" height="4" rx="2" fill="black"/>
<rect x="114" y="84" width="4" height="4" rx="2" fill="black"/>
<rect x="61" y="96" width="6" height="6" rx="3" fill="black"/>
<rect x="61" y="120" width="6" height="6" rx="3" fill="black"/>
<rect x="65" y="145" width="6" height="6" rx="3" fill="black"/>
<rect x="74" y="165" width="6" height="6" rx="3" fill="black"/>
<rect x="65" y="72" width="6" height="6" rx="3" fill="black"/>
<rect x="74" y="52" width="6" height="6" rx="3" fill="black"/>
<rect x="113" y="132" width="4" height="4" rx="2" fill="black"/>
<rect x="119" y="154" width="4" height="4" rx="2" fill="black"/>
<rect x="127" y="168" width="4" height="4" rx="2" fill="black"/>
<rect x="119" y="66" width="4" height="4" rx="2" fill="black"/>
<rect x="128" y="51" width="4" height="4" rx="2" fill="black"/>
<path fill-rule="evenodd" clip-rule="evenodd" d="M187.825 166.917C188.136 167.374 188.018 167.996 187.561 168.307L128.043 208.823C127.586 209.133 126.964 209.015 126.653 208.559C126.343 208.102 126.461 207.48 126.917 207.169L186.436 166.653C186.892 166.343 187.515 166.461 187.825 166.917Z" fill="black"/>
</svg>
