<svg width="157" height="170" viewBox="0 0 157 170" fill="none" xmlns="http://www.w3.org/2000/svg">
<path fill-rule="evenodd" clip-rule="evenodd" d="M58.5059 6.49663e-05L58.5023 1.00005L58.265 0.0286334L58.3837 -0.000366211L58.5059 6.49663e-05ZM105.251 10.0072C95.3287 5.04887 83.6739 2.55457 74.5209 1.29492C69.9055 0.659735 65.9082 0.33616 63.063 0.171307C61.6401 0.0888635 60.5045 0.04607 59.723 0.0238793C59.3322 0.0127832 59.0298 0.00683655 58.8242 0.00366047C58.7214 0.00207244 58.6427 0.00117688 58.5894 0.000676745L58.5283 0.000185844L58.5122 9.30995e-05L58.5059 6.49663e-05C58.5059 6.49663e-05 58.5059 6.49095e-05 58.5023 1.00005C58.265 0.0286333 58.265 0.0286334 58.265 0.0286334L58.2444 0.0336946L58.1879 0.0477312C58.1384 0.0600736 58.0656 0.0783792 57.9705 0.102605C57.7804 0.151056 57.5015 0.223196 57.1433 0.318682C56.427 0.509641 55.3932 0.79406 54.118 1.16922C51.5683 1.91928 48.0491 3.03333 44.1699 4.48988C36.4645 7.38314 27.1956 11.6791 21.3448 17.2438C21.3359 17.2509 21.3256 17.2591 21.3141 17.2684C21.2696 17.3041 21.2059 17.356 21.1242 17.4242C20.9607 17.5607 20.7253 17.7624 20.4282 18.0307C19.834 18.5674 18.9929 19.3706 17.9875 20.4507C15.9768 22.6107 13.3075 25.8795 10.6421 30.3391C5.3073 39.2646 0 52.9402 0 71.9996C0 91.0572 5.30614 105.225 10.63 114.639C13.2907 119.344 15.9543 122.86 17.9594 125.205C18.9621 126.377 19.8004 127.257 20.3919 127.848C20.6877 128.143 20.9218 128.366 21.084 128.517C21.1651 128.592 21.2282 128.65 21.272 128.689C21.2939 128.709 21.311 128.724 21.3232 128.735L21.3376 128.748L21.342 128.751L21.3434 128.753C21.3434 128.753 21.3444 128.754 22.0009 127.999L21.3444 128.754L21.3616 128.769L21.3794 128.783C27.6972 133.794 36.6803 138.087 44.023 141.115C47.7058 142.633 50.9979 143.842 53.3699 144.671C54.5561 145.086 55.5129 145.406 56.1742 145.623C56.5049 145.731 56.7617 145.814 56.9365 145.869C57.0238 145.897 57.0907 145.918 57.136 145.932L57.1877 145.949L57.2011 145.953L57.2047 145.954L57.2058 145.954C57.2058 145.954 57.2062 145.954 57.5023 144.999L57.2058 145.954L57.3525 146L57.5056 145.999L57.5023 144.999C57.5056 145.999 57.5056 145.999 57.5056 145.999L57.5076 145.999L57.5122 145.999L57.5293 145.999L57.5944 145.999C57.6514 145.998 57.7354 145.997 57.8453 145.996C58.0651 145.992 58.3882 145.986 58.8051 145.975C59.6389 145.953 60.8482 145.91 62.3565 145.828C65.3725 145.663 69.588 145.34 74.3907 144.705C83.9029 143.447 95.815 140.956 105.264 135.991C106.335 135.922 107.456 135.446 108.563 134.711C109.773 133.907 111.049 132.737 112.341 131.25C114.928 128.273 117.66 123.935 120.145 118.412C125.117 107.361 129.145 91.4677 128.996 71.992C128.847 52.5247 124.821 37.1321 119.918 26.5759C117.469 21.3015 114.789 17.2097 112.242 14.4187C110.97 13.0237 109.712 11.9338 108.514 11.1864C107.414 10.4998 106.306 10.0673 105.251 10.0072ZM102.06 10.7068C92.9449 6.60213 82.6011 4.42576 74.2482 3.27623C69.6948 2.64958 65.751 2.3304 62.9473 2.16795C61.5457 2.08674 60.4299 2.04474 59.6662 2.02306C59.3225 2.0133 59.0501 2.00766 58.8552 2.00441C58.6751 2.15658 58.4064 2.38978 58.0618 2.70648C57.372 3.34044 56.3781 4.30881 55.1811 5.63129C52.7872 8.27623 49.5813 12.3372 46.3707 17.9723C39.9532 29.236 34 46.8164 34 72C34 97.1918 39.7076 115.283 45.8873 127.057C48.9785 132.947 52.0655 137.261 54.3716 140.095C55.5247 141.512 56.4824 142.56 57.1475 143.248C57.467 143.579 57.719 143.828 57.8926 143.995C58.1012 143.991 58.3899 143.986 58.752 143.976C59.5689 143.954 60.7595 143.912 62.2475 143.831C65.2241 143.668 69.3873 143.349 74.1285 142.722C82.8254 141.572 93.3854 139.398 102.136 135.309C101.598 135.054 101.068 134.736 100.547 134.364C99.1186 133.342 97.7104 131.877 96.3485 130.071C93.6245 126.46 90.9944 121.367 88.7067 115.358C84.1291 103.333 80.8542 87.4599 81.0032 71.99C81.1485 56.8912 84.4222 41.5223 88.9278 29.9072C91.1793 24.1028 93.7557 19.1906 96.4365 15.7094C98.2013 13.4177 100.099 11.6345 102.06 10.7068ZM54.0112 142.776C51.6666 141.956 48.4173 140.763 44.7854 139.266C37.4873 136.257 28.7312 132.056 22.6429 127.232L22.6093 127.202C22.5736 127.17 22.5188 127.12 22.4461 127.053C22.3006 126.917 22.0836 126.711 21.8051 126.433C21.2481 125.877 20.4458 125.035 19.4796 123.905C17.547 121.645 14.9605 118.234 12.371 113.655C7.19436 104.501 2.00008 90.669 2.00008 71.9996C2.00008 53.332 7.1932 40.0078 12.3589 31.3652C14.9436 27.0407 17.5246 23.8834 19.4515 21.8134C20.4149 20.7784 21.2145 20.0156 21.7688 19.5149C22.0459 19.2646 22.2617 19.0799 22.4059 18.9596C22.478 18.8994 22.5322 18.8553 22.5672 18.8272L22.6052 18.7969L22.6131 18.7907L22.6141 18.7899L22.6541 18.7589L22.6912 18.7234C28.2287 13.4401 37.1894 9.2473 44.873 6.36222C48.6959 4.92679 52.1672 3.82783 54.6824 3.0879C54.7464 3.06908 54.8097 3.05049 54.8725 3.03214C54.5064 3.41142 54.1137 3.8302 53.6982 4.28923C51.217 7.03063 47.9226 11.2083 44.6329 16.9822C38.0499 28.5365 31.9999 46.4567 31.9999 72C31.9999 97.5351 37.7955 115.943 44.1163 127.987C47.2754 134.006 50.4386 138.43 52.8202 141.358C53.2433 141.878 53.6418 142.35 54.0112 142.776ZM90.7925 30.6304C86.3714 42.0277 83.1461 57.1586 83.0031 72.0092C82.8568 87.2131 86.081 102.839 90.5759 114.646C92.8244 120.553 95.3739 125.458 97.9452 128.867C99.2309 130.571 100.499 131.871 101.71 132.737C102.923 133.604 104.024 133.999 105 133.999C105.599 133.999 106.424 133.731 107.456 133.046C108.474 132.369 109.617 131.335 110.832 129.938C113.259 127.145 115.894 122.985 118.321 117.592C123.171 106.812 127.143 91.2053 126.996 72.0072C126.849 52.8008 122.877 37.6935 118.104 27.4183C115.717 22.2771 113.14 18.3703 110.765 15.7666C109.577 14.4644 108.457 13.5079 107.456 12.8833C106.444 12.2525 105.619 12 105 12C102.999 12 100.591 13.5932 98.0212 16.9297C95.4979 20.2063 93.0042 24.9285 90.7925 30.6304Z" fill="black"/>
<path d="M127.497 72.121C127.253 38.1253 114.281 18.5 108.5 18.5C100.241 18.5 89.7422 45.7943 89.504 72.121C89.2601 99.0844 100.241 127.5 108.5 127.5C114.281 127.5 127.74 106.117 127.497 72.121Z" stroke="black"/>
<path d="M46 129L98 131L57 144L20 126M46 129L90 117L37 109M46 129L8.5 109M37 109L84 95L33 84M37 109L3 92M33 84L82 72L33 60M33 84L1 75M33 60L85 47L37 36M33 60L1.5 61M37 36L90 29L46 16M37 36L4.5 46M46 16L99 14L58 1.5L17.5 22M46 16L10.5 32" stroke="black" stroke-linecap="round"/>
<rect x="80" y="70" width="4" height="4" fill="black"/>
<rect x="83" y="45" width="4" height="4" fill="black"/>
<rect x="30" y="57" width="6" height="6" fill="black"/>
<rect x="30" y="81" width="6" height="6" fill="black"/>
<rect x="34" y="106" width="6" height="6" fill="black"/>
<rect x="43" y="126" width="6" height="6" fill="black"/>
<rect x="34" y="33" width="6" height="6" fill="black"/>
<rect x="43" y="13" width="6" height="6" fill="black"/>
<rect x="82" y="93" width="4" height="4" fill="black"/>
<rect x="88" y="115" width="4" height="4" fill="black"/>
<rect x="96" y="129" width="4" height="4" fill="black"/>
<rect x="88" y="27" width="4" height="4" fill="black"/>
<rect x="97" y="12" width="4" height="4" fill="black"/>
<path fill-rule="evenodd" clip-rule="evenodd" d="M156.825 127.917C157.136 128.374 157.018 128.996 156.561 129.307L97.0428 169.823C96.5863 170.133 95.9642 170.015 95.6534 169.559C95.3426 169.102 95.4608 168.48 95.9174 168.169L155.436 127.653C155.892 127.343 156.515 127.461 156.825 127.917Z" fill="black"/>
</svg>
