<svg width="184" height="194" viewBox="0 0 184 194" fill="none" xmlns="http://www.w3.org/2000/svg">
<path fill-rule="evenodd" clip-rule="evenodd" d="M85.5059 24.0001L85.5023 25.0001L85.265 24.0286L85.3837 23.9996L85.5059 24.0001ZM132.251 34.0072C122.329 29.0489 110.674 26.5546 101.521 25.2949C96.9055 24.6597 92.9082 24.3362 90.063 24.1713C88.6401 24.0889 87.5045 24.0461 86.723 24.0239C86.3322 24.0128 86.0298 24.0068 85.8242 24.0037C85.7214 24.0021 85.6427 24.0012 85.5894 24.0007L85.5283 24.0002L85.5122 24.0001L85.5059 24.0001C85.5059 24.0001 85.5059 24.0001 85.5023 25.0001C85.265 24.0286 85.265 24.0286 85.265 24.0286L85.2444 24.0337L85.1879 24.0477C85.1384 24.0601 85.0656 24.0784 84.9705 24.1026C84.7804 24.1511 84.5015 24.2232 84.1433 24.3187C83.427 24.5096 82.3932 24.7941 81.118 25.1692C78.5683 25.9193 75.0491 27.0333 71.1699 28.4899C63.4645 31.3831 54.1956 35.6791 48.3448 41.2438C48.3359 41.2509 48.3256 41.2591 48.3141 41.2684C48.2696 41.3041 48.2059 41.356 48.1242 41.4242C47.9607 41.5607 47.7253 41.7624 47.4282 42.0307C46.834 42.5674 45.9929 43.3706 44.9875 44.4507C42.9768 46.6107 40.3075 49.8795 37.6421 54.3391C32.3073 63.2646 27 76.9402 27 95.9996C27 115.057 32.3061 129.225 37.63 138.639C40.2907 143.344 42.9543 146.86 44.9594 149.205C45.9621 150.377 46.8004 151.257 47.3919 151.848C47.6877 152.143 47.9218 152.366 48.084 152.517C48.1651 152.592 48.2282 152.65 48.272 152.689C48.2939 152.709 48.311 152.724 48.3232 152.735L48.3376 152.748L48.342 152.751L48.3434 152.753C48.3434 152.753 48.3444 152.754 49.0009 151.999L48.3444 152.754L48.3616 152.769L48.3794 152.783C54.6972 157.794 63.6803 162.087 71.023 165.115C74.7058 166.633 77.9979 167.842 80.3699 168.671C81.5561 169.086 82.5129 169.406 83.1742 169.623C83.5049 169.731 83.7617 169.814 83.9365 169.869C84.0238 169.897 84.0907 169.918 84.136 169.932L84.1877 169.949L84.2011 169.953L84.2047 169.954L84.2058 169.954C84.2058 169.954 84.2062 169.954 84.5023 168.999L84.2058 169.954L84.3525 170L84.5056 169.999L84.5023 168.999C84.5056 169.999 84.5056 169.999 84.5056 169.999L84.5076 169.999L84.5122 169.999L84.5293 169.999L84.5944 169.999C84.6514 169.998 84.7354 169.997 84.8453 169.996C85.0651 169.992 85.3882 169.986 85.8051 169.975C86.6389 169.953 87.8482 169.91 89.3565 169.828C92.3725 169.663 96.5881 169.34 101.391 168.705C110.903 167.447 122.815 164.956 132.264 159.991C133.335 159.922 134.456 159.446 135.563 158.711C136.773 157.907 138.049 156.737 139.341 155.25C141.928 152.273 144.66 147.935 147.145 142.412C152.117 131.361 156.145 115.468 155.996 95.992C155.847 76.5247 151.821 61.1321 146.918 50.5759C144.469 45.3015 141.789 41.2097 139.242 38.4187C137.97 37.0237 136.712 35.9338 135.514 35.1864C134.414 34.4998 133.306 34.0673 132.251 34.0072ZM129.06 34.7068C119.945 30.6021 109.601 28.4258 101.248 27.2762C96.6948 26.6496 92.751 26.3304 89.9473 26.1679C88.5457 26.0867 87.4299 26.0447 86.6662 26.0231C86.3225 26.0133 86.0501 26.0077 85.8552 26.0044C85.6751 26.1566 85.4064 26.3898 85.0618 26.7065C84.372 27.3404 83.3781 28.3088 82.1811 29.6313C79.7872 32.2762 76.5813 36.3372 73.3707 41.9723C66.9532 53.236 61 70.8164 61 96C61 121.192 66.7076 139.283 72.8873 151.057C75.9785 156.947 79.0655 161.261 81.3716 164.095C82.5247 165.512 83.4824 166.56 84.1475 167.248C84.467 167.579 84.719 167.828 84.8926 167.995C85.1012 167.991 85.3899 167.986 85.752 167.976C86.5689 167.954 87.7595 167.912 89.2475 167.831C92.2241 167.668 96.3873 167.349 101.129 166.722C109.825 165.572 120.385 163.398 129.136 159.309C128.598 159.054 128.068 158.736 127.547 158.364C126.119 157.342 124.71 155.877 123.348 154.071C120.624 150.46 117.994 145.367 115.707 139.358C111.129 127.333 107.854 111.46 108.003 95.99C108.149 80.8912 111.422 65.5223 115.928 53.9072C118.179 48.1028 120.756 43.1906 123.437 39.7094C125.201 37.4177 127.099 35.6345 129.06 34.7068ZM81.0112 166.776C78.6666 165.956 75.4173 164.763 71.7854 163.266C64.4873 160.257 55.7312 156.056 49.6429 151.232L49.6093 151.202C49.5736 151.17 49.5188 151.12 49.4461 151.053C49.3006 150.917 49.0836 150.711 48.8051 150.433C48.2481 149.877 47.4458 149.035 46.4796 147.905C44.547 145.645 41.9605 142.234 39.371 137.655C34.1944 128.501 29.0001 114.669 29.0001 95.9996C29.0001 77.332 34.1932 64.0078 39.3589 55.3652C41.9436 51.0407 44.5246 47.8834 46.4515 45.8134C47.4149 44.7784 48.2145 44.0156 48.7688 43.5149C49.0459 43.2646 49.2617 43.0799 49.4059 42.9596C49.478 42.8994 49.5322 42.8553 49.5672 42.8272L49.6052 42.7969L49.6131 42.7907L49.6141 42.7899L49.6541 42.7589L49.6912 42.7234C55.2287 37.4401 64.1894 33.2473 71.873 30.3622C75.6959 28.9268 79.1672 27.8278 81.6824 27.0879C81.7464 27.0691 81.8097 27.0505 81.8725 27.0321C81.5064 27.4114 81.1137 27.8302 80.6982 28.2892C78.217 31.0306 74.9226 35.2083 71.6329 40.9822C65.0499 52.5365 58.9999 70.4567 58.9999 96C58.9999 121.535 64.7955 139.943 71.1163 151.987C74.2754 158.006 77.4386 162.43 79.8202 165.358C80.2433 165.878 80.6418 166.35 81.0112 166.776ZM117.792 54.6304C113.371 66.0277 110.146 81.1586 110.003 96.0092C109.857 111.213 113.081 126.839 117.576 138.646C119.824 144.553 122.374 149.458 124.945 152.867C126.231 154.571 127.499 155.871 128.71 156.737C129.923 157.604 131.024 157.999 132 157.999C132.599 157.999 133.424 157.731 134.456 157.046C135.474 156.369 136.617 155.335 137.832 153.938C140.259 151.145 142.894 146.985 145.321 141.592C150.171 130.812 154.143 115.205 153.996 96.0072C153.849 76.8008 149.877 61.6935 145.104 51.4183C142.717 46.2771 140.14 42.3703 137.765 39.7666C136.577 38.4644 135.457 37.5079 134.456 36.8833C133.444 36.2525 132.619 36 132 36C129.999 36 127.591 37.5932 125.021 40.9297C122.498 44.2063 120.004 48.9285 117.792 54.6304Z" fill="black"/>
<path d="M154.497 96.121C154.253 62.1253 141.281 42.5 135.5 42.5C127.241 42.5 116.742 69.7943 116.504 96.121C116.26 123.084 127.241 151.5 135.5 151.5C141.281 151.5 154.74 130.117 154.497 96.121Z" stroke="black"/>
<path d="M73 153L125 155L84 168L47 150M73 153L117 141L64 133M73 153L35.5 133M64 133L111 119L60 108M64 133L30 116M60 108L109 96L60 84M60 108L28 99M60 84L112 71L64 60M60 84L28.5 85M64 60L117 53L73 40M64 60L31.5 70M73 40L126 38L85 25.5L44.5 46M73 40L37.5 56" stroke="black" stroke-linecap="round"/>
<rect x="107" y="94" width="4" height="4" fill="black"/>
<rect x="110" y="69" width="4" height="4" fill="black"/>
<rect x="57" y="81" width="6" height="6" fill="black"/>
<rect x="57" y="105" width="6" height="6" fill="black"/>
<rect x="61" y="130" width="6" height="6" fill="black"/>
<rect x="70" y="150" width="6" height="6" fill="black"/>
<rect x="61" y="57" width="6" height="6" fill="black"/>
<rect x="70" y="37" width="6" height="6" fill="black"/>
<rect x="109" y="117" width="4" height="4" fill="black"/>
<rect x="115" y="139" width="4" height="4" fill="black"/>
<rect x="123" y="153" width="4" height="4" fill="black"/>
<rect x="115" y="51" width="4" height="4" fill="black"/>
<rect x="124" y="36" width="4" height="4" fill="black"/>
<path fill-rule="evenodd" clip-rule="evenodd" d="M183.825 151.917C184.136 152.374 184.018 152.996 183.561 153.307L124.043 193.823C123.586 194.133 122.964 194.015 122.653 193.559C122.343 193.102 122.461 192.48 122.917 192.169L182.436 151.653C182.892 151.343 183.515 151.461 183.825 151.917Z" fill="black"/>
</svg>
