<svg width="224" height="224" viewBox="0 0 224 224" fill="none" xmlns="http://www.w3.org/2000/svg">
<path fill-rule="evenodd" clip-rule="evenodd" d="M105.506 39.0001L105.502 40.0001L105.265 39.0286L105.384 38.9996L105.506 39.0001ZM152.251 49.0072C142.329 44.0489 130.674 41.5546 121.521 40.2949C116.905 39.6597 112.908 39.3362 110.063 39.1713C108.64 39.0889 107.505 39.0461 106.723 39.0239C106.332 39.0128 106.03 39.0068 105.824 39.0037C105.721 39.0021 105.643 39.0012 105.589 39.0007L105.528 39.0002L105.512 39.0001L105.506 39.0001C105.506 39.0001 105.506 39.0001 105.502 40.0001C105.265 39.0286 105.265 39.0286 105.265 39.0286L105.244 39.0337L105.188 39.0477C105.138 39.0601 105.066 39.0784 104.971 39.1026C104.78 39.1511 104.502 39.2232 104.143 39.3187C103.427 39.5096 102.393 39.7941 101.118 40.1692C98.5683 40.9193 95.0491 42.0333 91.1699 43.4899C83.4645 46.3831 74.1956 50.6791 68.3448 56.2438C68.3359 56.2509 68.3256 56.2591 68.3141 56.2684C68.2696 56.3041 68.2059 56.356 68.1242 56.4242C67.9607 56.5607 67.7253 56.7624 67.4282 57.0307C66.834 57.5674 65.9929 58.3706 64.9875 59.4507C62.9768 61.6107 60.3075 64.8795 57.6421 69.3391C52.3073 78.2646 47 91.9402 47 111C47 130.057 52.3061 144.225 57.63 153.639C60.2907 158.344 62.9543 161.86 64.9594 164.205C65.9621 165.377 66.8004 166.257 67.3919 166.848C67.6877 167.143 67.9218 167.366 68.084 167.517C68.1651 167.592 68.2282 167.65 68.272 167.689C68.2939 167.709 68.311 167.724 68.3232 167.735L68.3376 167.748L68.342 167.751L68.3434 167.753C68.3434 167.753 68.3444 167.754 69.0009 166.999L68.3444 167.754L68.3616 167.769L68.3794 167.783C74.6972 172.794 83.6803 177.087 91.023 180.115C94.7058 181.633 97.9979 182.842 100.37 183.671C101.556 184.086 102.513 184.406 103.174 184.623C103.505 184.731 103.762 184.814 103.936 184.869C104.024 184.897 104.091 184.918 104.136 184.932L104.188 184.949L104.201 184.953L104.205 184.954L104.206 184.954C104.206 184.954 104.206 184.954 104.502 183.999L104.206 184.954L104.352 185L104.506 184.999L104.502 183.999C104.506 184.999 104.506 184.999 104.506 184.999L104.508 184.999L104.512 184.999L104.529 184.999L104.594 184.999C104.651 184.998 104.735 184.997 104.845 184.996C105.065 184.992 105.388 184.986 105.805 184.975C106.639 184.953 107.848 184.91 109.357 184.828C112.373 184.663 116.588 184.34 121.391 183.705C130.903 182.447 142.815 179.956 152.264 174.991C153.335 174.922 154.456 174.446 155.563 173.711C156.773 172.907 158.049 171.737 159.341 170.25C161.928 167.273 164.66 162.935 167.145 157.412C172.117 146.361 176.145 130.468 175.996 110.992C175.847 91.5247 171.821 76.1321 166.918 65.5759C164.469 60.3015 161.789 56.2097 159.242 53.4187C157.97 52.0237 156.712 50.9338 155.514 50.1864C154.414 49.4998 153.306 49.0673 152.251 49.0072ZM149.06 49.7068C139.945 45.6021 129.601 43.4258 121.248 42.2762C116.695 41.6496 112.751 41.3304 109.947 41.1679C108.546 41.0867 107.43 41.0447 106.666 41.0231C106.322 41.0133 106.05 41.0077 105.855 41.0044C105.675 41.1566 105.406 41.3898 105.062 41.7065C104.372 42.3404 103.378 43.3088 102.181 44.6313C99.7872 47.2762 96.5813 51.3372 93.3707 56.9723C86.9532 68.236 81 85.8164 81 111C81 136.192 86.7076 154.283 92.8873 166.057C95.9785 171.947 99.0655 176.261 101.372 179.095C102.525 180.512 103.482 181.56 104.148 182.248C104.467 182.579 104.719 182.828 104.893 182.995C105.101 182.991 105.39 182.986 105.752 182.976C106.569 182.954 107.759 182.912 109.247 182.831C112.224 182.668 116.387 182.349 121.129 181.722C129.825 180.572 140.385 178.398 149.136 174.309C148.598 174.054 148.068 173.736 147.547 173.364C146.119 172.342 144.71 170.877 143.348 169.071C140.624 165.46 137.994 160.367 135.707 154.358C131.129 142.333 127.854 126.46 128.003 110.99C128.149 95.8912 131.422 80.5223 135.928 68.9072C138.179 63.1028 140.756 58.1906 143.437 54.7094C145.201 52.4177 147.099 50.6345 149.06 49.7068ZM101.011 181.776C98.6666 180.956 95.4173 179.763 91.7854 178.266C84.4873 175.257 75.7312 171.056 69.6429 166.232L69.6093 166.202C69.5736 166.17 69.5188 166.12 69.4461 166.053C69.3006 165.917 69.0836 165.711 68.8051 165.433C68.2481 164.877 67.4458 164.035 66.4796 162.905C64.547 160.645 61.9605 157.234 59.371 152.655C54.1944 143.501 49.0001 129.669 49.0001 111C49.0001 92.332 54.1932 79.0078 59.3589 70.3652C61.9436 66.0407 64.5246 62.8834 66.4515 60.8134C67.4149 59.7784 68.2145 59.0156 68.7688 58.5149C69.0459 58.2646 69.2617 58.0799 69.4059 57.9596C69.478 57.8994 69.5322 57.8553 69.5672 57.8272L69.6052 57.7969L69.6131 57.7907L69.6141 57.7899L69.6541 57.7589L69.6912 57.7234C75.2287 52.4401 84.1894 48.2473 91.873 45.3622C95.6959 43.9268 99.1672 42.8278 101.682 42.0879C101.746 42.0691 101.81 42.0505 101.872 42.0321C101.506 42.4114 101.114 42.8302 100.698 43.2892C98.217 46.0306 94.9226 50.2083 91.6329 55.9822C85.0499 67.5365 78.9999 85.4567 78.9999 111C78.9999 136.535 84.7955 154.943 91.1163 166.987C94.2754 173.006 97.4386 177.43 99.8202 180.358C100.243 180.878 100.642 181.35 101.011 181.776ZM137.792 69.6304C133.371 81.0277 130.146 96.1586 130.003 111.009C129.857 126.213 133.081 141.839 137.576 153.646C139.824 159.553 142.374 164.458 144.945 167.867C146.231 169.571 147.499 170.871 148.71 171.737C149.923 172.604 151.024 172.999 152 172.999C152.599 172.999 153.424 172.731 154.456 172.046C155.474 171.369 156.617 170.335 157.832 168.938C160.259 166.145 162.894 161.985 165.321 156.592C170.171 145.812 174.143 130.205 173.996 111.007C173.849 91.8008 169.877 76.6935 165.104 66.4183C162.717 61.2771 160.14 57.3703 157.765 54.7666C156.577 53.4644 155.457 52.5079 154.456 51.8833C153.444 51.2525 152.619 51 152 51C149.999 51 147.591 52.5932 145.021 55.9297C142.498 59.2063 140.004 63.9285 137.792 69.6304Z" fill="black"/>
<path d="M174.497 111.121C174.253 77.1253 161.281 58 155.5 58C147.241 58 137.238 84.6734 137 111C136.756 137.963 147.241 166 155.5 166C161.281 166 174.741 145.117 174.497 111.121Z" stroke="black" stroke-width="2"/>
<path d="M93 168L145 170L104 183L67 165M93 168L137 156L84 148M93 168L55.5 148M84 148L131 134L80 123M84 148L50 131M80 123L129 111L80 99M80 123L48 114M80 99L132 86L84 75M80 99L48.5 100M84 75L137 68L93 55M84 75L51.5 85M93 55L146 53L105 40.5L64.5 61M93 55L57.5 71" stroke="black" stroke-miterlimit="1.88813" stroke-dasharray="4 1"/>
<rect x="127" y="109" width="4" height="4" rx="2" fill="black"/>
<rect x="130" y="84" width="4" height="4" rx="2" fill="black"/>
<rect x="77" y="96" width="6" height="6" rx="3" fill="black"/>
<rect x="77" y="120" width="6" height="6" rx="3" fill="black"/>
<rect x="81" y="145" width="6" height="6" rx="3" fill="black"/>
<rect x="90" y="165" width="6" height="6" rx="3" fill="black"/>
<rect x="81" y="72" width="6" height="6" rx="3" fill="black"/>
<rect x="90" y="52" width="6" height="6" rx="3" fill="black"/>
<rect x="129" y="132" width="4" height="4" rx="2" fill="black"/>
<rect x="135" y="154" width="4" height="4" rx="2" fill="black"/>
<rect x="143" y="168" width="4" height="4" rx="2" fill="black"/>
<rect x="135" y="66" width="4" height="4" rx="2" fill="black"/>
<rect x="144" y="51" width="4" height="4" rx="2" fill="black"/>
<path fill-rule="evenodd" clip-rule="evenodd" d="M203.825 166.917C204.136 167.374 204.018 167.996 203.561 168.307L144.043 208.823C143.586 209.133 142.964 209.015 142.653 208.559C142.343 208.102 142.461 207.48 142.917 207.169L202.436 166.653C202.892 166.343 203.515 166.461 203.825 166.917Z" fill="black"/>
</svg>
