<svg width="224" height="224" viewBox="0 0 224 224" fill="none" xmlns="http://www.w3.org/2000/svg">
<path d="M57.17 27.6649L71.67 52.7797C73.42 55.8108 73.304 57.6098 73.304 57.6098C73.304 57.6098 75.42 59.2749 77.17 62.306L94.17 91.7508C95.92 94.7819 95.804 96.5809 95.804 96.5809C95.804 96.5809 97.92 98.246 99.67 101.277L117.17 131.588C118.67 134.186 118.804 136.418 118.804 136.418C118.804 136.418 120.92 138.083 122.67 141.114L141.17 173.157C142.92 176.188 142.804 177.987 142.804 177.987C142.804 177.987 144.92 179.652 146.42 182.25L155.67 198.272C157.42 201.303 157.304 203.102 157.304 203.102C157.304 203.102 160.286 204.267 163.75 202.267C167.214 200.267 167.696 197.102 167.696 197.102C167.696 197.102 166.08 196.303 164.33 193.272L155.08 177.25C153.58 174.652 153.196 171.987 153.196 171.987C153.196 171.987 151.58 171.188 149.83 168.157L131.33 136.114C129.58 133.083 129.196 130.418 129.196 130.418C129.196 130.418 127.33 129.186 125.83 126.588L108.33 96.2771C106.58 93.246 106.196 90.5809 106.196 90.5809C106.196 90.5809 104.58 89.7819 102.83 86.7508L85.8302 57.306C84.0802 54.2749 83.6963 51.6098 83.6963 51.6098C83.6963 51.6098 82.0802 50.8108 80.3302 47.7797L65.8302 22.6649M57.17 27.6649C57.17 27.6649 59.2858 29.3301 62.7499 27.3301C66.214 25.3301 65.8302 22.6649 65.8302 22.6649M57.17 27.6649C57.17 27.6649 56.7858 25 60.2499 23C63.714 21 65.8302 22.6649 65.8302 22.6649" stroke="black" stroke-width="2"/>
<circle cx="155" cy="187.112" r="2" transform="rotate(-30 155 187.112)" fill="black"/>
<circle cx="142.5" cy="165.461" r="2" transform="rotate(-30 142.5 165.461)" fill="black"/>
<circle cx="135.5" cy="153.337" r="2" transform="rotate(-30 135.5 153.337)" fill="black"/>
<circle cx="128.5" cy="141.212" r="2" transform="rotate(-30 128.5 141.212)" fill="black"/>
<circle cx="121.5" cy="129.088" r="2" transform="rotate(-30 121.5 129.088)" fill="black"/>
<circle cx="114.5" cy="116.964" r="2" transform="rotate(-30 114.5 116.964)" fill="black"/>
<circle cx="107.5" cy="104.839" r="2" transform="rotate(-30 107.5 104.839)" fill="black"/>
<path d="M72.4822 40.1865C73.7322 42.3515 73.2067 43.2322 72.2501 43.7845C71.2935 44.3368 70.2681 44.3515 69.0181 42.1865C67.7681 40.0214 68.2935 39.1407 69.2501 38.5884C70.2067 38.0361 71.2322 38.0214 72.4822 40.1865Z" fill="black"/>
<path d="M119.237 136.168C119.237 136.168 121.536 137.15 125 135.15C128.464 133.15 128.763 130.668 128.763 130.668" stroke="black"/>
<path d="M143.237 177.737C143.237 177.737 145.536 178.719 149 176.719C152.464 174.719 152.763 172.237 152.763 172.237" stroke="black"/>
<path d="M96.2371 96.3308C96.2371 96.3308 98.5361 97.3129 102 95.3129C105.464 93.3129 105.763 90.8308 105.763 90.8308" stroke="black"/>
<path d="M73.7371 57.3597C73.7371 57.3597 76.0361 58.3418 79.5002 56.3418C82.9643 54.3418 83.2633 51.8597 83.2633 51.8597" stroke="black"/>
<path d="M62.75 27.33C66.2141 25.33 65.8303 22.6648 65.8303 22.6648C65.8303 22.6648 63.7141 20.9999 60.25 22.9999C56.7859 24.9999 57.1701 27.6648 57.1701 27.6648C57.1701 27.6648 59.2859 29.33 62.75 27.33Z" fill="black"/>
<path fill-rule="evenodd" clip-rule="evenodd" d="M104.446 87.55L94.446 70.2295C94.446 70.2295 93.714 72.9615 90.2499 74.9615C86.7858 76.9615 84.0537 76.2295 84.0537 76.2295L94.0537 93.55C94.0537 93.55 96.7858 94.2821 100.25 92.2821C103.714 90.2821 104.446 87.55 104.446 87.55ZM95.2141 75.5594C95.2141 75.5594 94.4151 77.1755 92.25 78.4255C90.0849 79.6755 88.2859 79.5594 88.2859 79.5594L89.2859 81.2915C89.2859 81.2915 91.0849 81.4075 93.2498 80.1576C95.4146 78.9078 96.2141 77.2915 96.2141 77.2915L95.2141 75.5594ZM98.25 88.8178C100.415 87.5678 101.214 85.9518 101.214 85.9518L102.214 87.6838C102.214 87.6838 101.415 89.3001 99.2498 90.55C97.0849 91.7999 95.2859 91.6838 95.2859 91.6838L94.2859 89.9518C94.2859 89.9518 96.0849 90.0678 98.25 88.8178Z" fill="black"/>
</svg>
