<svg width="118" height="189" viewBox="0 0 118 189" fill="none" xmlns="http://www.w3.org/2000/svg">
<path d="M4.16998 9.66494L18.67 34.7797C20.42 37.8108 20.304 39.6098 20.304 39.6098C20.304 39.6098 22.42 41.2749 24.17 44.306L41.17 73.7508C42.92 76.7819 42.804 78.5809 42.804 78.5809C42.804 78.5809 44.92 80.246 46.67 83.2771L64.17 113.588C65.67 116.186 65.804 118.418 65.804 118.418C65.804 118.418 67.92 120.083 69.67 123.114L88.17 155.157C89.92 158.188 89.804 159.987 89.804 159.987C89.804 159.987 91.92 161.652 93.42 164.25L102.67 180.272C104.42 183.303 104.304 185.102 104.304 185.102C104.304 185.102 107.286 186.267 110.75 184.267C114.214 182.267 114.696 179.102 114.696 179.102C114.696 179.102 113.08 178.303 111.33 175.272L102.08 159.25C100.58 156.652 100.196 153.987 100.196 153.987C100.196 153.987 98.5802 153.188 96.8302 150.157L78.3302 118.114C76.5802 115.083 76.1963 112.418 76.1963 112.418C76.1963 112.418 74.3302 111.186 72.8302 108.588L55.3302 78.2771C53.5802 75.246 53.1963 72.5809 53.1963 72.5809C53.1963 72.5809 51.5802 71.7819 49.8302 68.7508L32.8302 39.306C31.0802 36.2749 30.6963 33.6098 30.6963 33.6098C30.6963 33.6098 29.0802 32.8108 27.3302 29.7797L12.8302 4.66494M4.16998 9.66494C4.16998 9.66494 6.28579 11.3301 9.7499 9.33013C13.214 7.33013 12.8302 4.66494 12.8302 4.66494M4.16998 9.66494C4.16998 9.66494 3.78579 7 7.2499 5C10.714 3 12.8302 4.66494 12.8302 4.66494" stroke="black" stroke-width="2"/>
<circle cx="102" cy="169.112" r="2" transform="rotate(-30 102 169.112)" fill="black"/>
<circle cx="89.5001" cy="147.461" r="2" transform="rotate(-30 89.5001 147.461)" fill="black"/>
<circle cx="82.5001" cy="135.337" r="2" transform="rotate(-30 82.5001 135.337)" fill="black"/>
<circle cx="75.5001" cy="123.212" r="2" transform="rotate(-30 75.5001 123.212)" fill="black"/>
<circle cx="68.5001" cy="111.088" r="2" transform="rotate(-30 68.5001 111.088)" fill="black"/>
<circle cx="61.5001" cy="98.9636" r="2" transform="rotate(-30 61.5001 98.9636)" fill="black"/>
<circle cx="54.5001" cy="86.8393" r="2" transform="rotate(-30 54.5001 86.8393)" fill="black"/>
<path d="M19.4822 22.1865C20.7322 24.3515 20.2067 25.2322 19.2501 25.7845C18.2935 26.3368 17.2681 26.3515 16.0181 24.1865C14.7681 22.0214 15.2935 21.1407 16.2501 20.5884C17.2067 20.0361 18.2322 20.0214 19.4822 22.1865Z" fill="black"/>
<path d="M66.2371 118.168C66.2371 118.168 68.5361 119.15 72.0002 117.15C75.4643 115.15 75.7633 112.668 75.7633 112.668" stroke="black"/>
<path d="M90.2371 159.737C90.2371 159.737 92.5361 160.719 96.0002 158.719C99.4643 156.719 99.7633 154.237 99.7633 154.237" stroke="black"/>
<path d="M43.2371 78.3308C43.2371 78.3308 45.5361 79.3129 49.0002 77.3129C52.4643 75.3129 52.7633 72.8308 52.7633 72.8308" stroke="black"/>
<path d="M20.7371 39.3597C20.7371 39.3597 23.0361 40.3418 26.5002 38.3418C29.9643 36.3418 30.2633 33.8597 30.2633 33.8597" stroke="black"/>
<path d="M9.74998 9.33C13.2141 7.33 12.8303 4.66482 12.8303 4.66482C12.8303 4.66482 10.7141 2.99988 7.24998 4.99988C3.78588 6.99988 4.17007 9.66482 4.17007 9.66482C4.17007 9.66482 6.28588 11.33 9.74998 9.33Z" fill="black"/>
<path fill-rule="evenodd" clip-rule="evenodd" d="M51.446 69.55L41.446 52.2295C41.446 52.2295 40.714 54.9615 37.2499 56.9615C33.7858 58.9615 31.0537 58.2295 31.0537 58.2295L41.0537 75.55C41.0537 75.55 43.7858 76.2821 47.2499 74.2821C50.714 72.2821 51.446 69.55 51.446 69.55ZM42.2141 57.5594C42.2141 57.5594 41.4151 59.1755 39.25 60.4255C37.0849 61.6755 35.2859 61.5594 35.2859 61.5594L36.2859 63.2915C36.2859 63.2915 38.0849 63.4075 40.2498 62.1576C42.4146 60.9078 43.2141 59.2915 43.2141 59.2915L42.2141 57.5594ZM45.25 70.8178C47.4151 69.5678 48.2141 67.9518 48.2141 67.9518L49.2141 69.6838C49.2141 69.6838 48.4146 71.3001 46.2498 72.55C44.0849 73.7999 42.2859 73.6838 42.2859 73.6838L41.2859 71.9518C41.2859 71.9518 43.0849 72.0678 45.25 70.8178Z" fill="black"/>
</svg>
