<svg width="143" height="120" viewBox="0 0 143 120" fill="none" xmlns="http://www.w3.org/2000/svg">
<path fill-rule="evenodd" clip-rule="evenodd" d="M53.6455 65.563L53.6309 65.5679L53.6289 65.5685L53.1296 65.7279L52.9813 66.219L52.9809 66.2203L52.9804 66.2216C52.979 66.2256 52.9762 66.2334 52.9719 66.2448C52.9607 66.2744 52.939 66.3285 52.9037 66.4047C52.8331 66.5571 52.7076 66.7988 52.5016 67.1114C52.0901 67.7355 51.3523 68.6496 50.0766 69.7013L31.5576 84.9682C30.2793 86.0221 29.0315 86.7436 28.1056 87.2005C27.6434 87.4285 27.2638 87.5894 27.0038 87.692C26.874 87.7432 26.7742 87.7798 26.7092 87.8028C26.6768 87.8143 26.653 87.8224 26.6386 87.8273L26.624 87.8321L26.623 87.8325L26.6221 87.8328L26.1227 87.9921L25.9736 88.4858C25.9722 88.4898 25.9694 88.4976 25.9651 88.509C25.9538 88.5386 25.9322 88.5927 25.8968 88.669C25.8262 88.8213 25.7008 89.0631 25.4947 89.3757C25.0832 89.9998 24.3454 90.9139 23.0697 91.9656L0.543968 110.536L0.451483 110.705L1.32868 111.185C0.451483 110.705 0.450822 110.706 0.450822 110.706L0.45013 110.707L0.44866 110.71L0.445375 110.716L0.437481 110.731C0.431651 110.742 0.424709 110.756 0.416825 110.772C0.401063 110.804 0.381499 110.846 0.359512 110.897C0.315577 110.999 0.261694 111.139 0.209143 111.313C0.104074 111.661 0.00348503 112.149 0.000320769 112.746C-0.00611755 113.963 0.391527 115.551 1.80854 117.27C3.22556 118.989 4.7082 119.682 5.9034 119.908C6.49081 120.019 6.98871 120.013 7.35023 119.976C7.53104 119.958 7.67849 119.932 7.78711 119.908C7.84147 119.896 7.88627 119.885 7.92085 119.875C7.93814 119.871 7.9529 119.867 7.96504 119.863L7.98128 119.858L7.98792 119.856L7.99086 119.855L7.99224 119.855C7.99224 119.855 7.99355 119.854 7.68947 118.902L7.99355 119.854L8.17697 119.796L30.7027 101.226C31.9784 100.174 33.0163 99.6241 33.7075 99.3393C34.0536 99.1966 34.3148 99.1196 34.4779 99.0793C34.5595 99.0592 34.6167 99.0482 34.6479 99.0429C34.6599 99.0408 34.6681 99.0396 34.6723 99.039L35.1853 98.9867L35.4371 98.5269L35.4375 98.526L35.438 98.5251L35.4456 98.5117C35.4531 98.4985 35.4656 98.4767 35.4831 98.4471C35.5181 98.3877 35.573 98.2967 35.6481 98.179C35.7984 97.9434 36.0287 97.6015 36.3408 97.1912C36.9659 96.3694 37.9122 95.2822 39.1905 94.2283L57.7095 78.9614C58.9852 77.9097 60.0232 77.3598 60.7143 77.075C61.0605 76.9323 61.3217 76.8553 61.4847 76.8151C61.5663 76.7949 61.6235 76.784 61.6547 76.7786C61.6605 76.7776 61.6653 76.7768 61.6693 76.7762C61.6736 76.7755 61.6769 76.775 61.6791 76.7747L61.6805 76.7745L61.6819 76.7743L62.1922 76.7225L62.4439 76.2626L62.4444 76.2618L62.4449 76.2609L62.4524 76.2475C62.4559 76.2415 62.4603 76.2337 62.4657 76.2243C62.4723 76.2129 62.4804 76.199 62.4899 76.1828C62.5249 76.1234 62.5799 76.0325 62.655 75.9147C62.8052 75.6792 63.0356 75.3372 63.3476 74.927C63.9727 74.1052 64.9191 73.0179 66.1974 71.9641L85.488 56.061C86.5604 55.177 87.6002 54.6202 88.3667 54.286C88.7494 54.1191 89.062 54.0087 89.2734 53.9412C89.3791 53.9075 89.4593 53.8845 89.5101 53.8707C89.5355 53.8639 89.5535 53.8592 89.5636 53.8567L89.5705 53.855L89.5719 53.8547L89.573 53.8544L90.0076 53.7546L90.2224 53.3623L90.2229 53.3614L90.2234 53.3605L90.2309 53.3471C90.2384 53.3338 90.2509 53.3121 90.2684 53.2824C90.3034 53.223 90.3584 53.1321 90.4334 53.0144C90.5837 52.7788 90.8141 52.4368 91.1261 52.0266C91.7512 51.2048 92.6975 50.1175 93.9759 49.0637L114.81 31.8884C116.085 30.8367 117.123 30.2868 117.815 30.002C118.161 29.8593 118.422 29.7823 118.585 29.742C118.667 29.7219 118.724 29.7109 118.755 29.7056C118.767 29.7035 118.775 29.7023 118.779 29.7017L118.781 29.7014L118.782 29.7013L119.292 29.6495L119.544 29.189L119.545 29.188L119.554 29.1727C119.561 29.1589 119.574 29.1367 119.592 29.1067C119.627 29.0468 119.681 28.9561 119.753 28.8398C119.899 28.6071 120.119 28.2737 120.408 27.8826C120.989 27.0967 121.836 26.096 122.912 25.2091L130.178 19.2188L135.444 16.1735L141.952 10.8088L142.024 10.4645L142.024 10.4634L142.025 10.4611L142.026 10.4556L142.029 10.4411C142.031 10.4299 142.033 10.4156 142.036 10.3984C142.038 10.3882 142.04 10.3769 142.042 10.3646C142.044 10.3541 142.046 10.3428 142.048 10.3308C142.051 10.3095 142.055 10.2858 142.058 10.2598C142.075 10.1447 142.093 9.98467 142.106 9.78608C142.131 9.38946 142.133 8.83547 142.047 8.17713C141.873 6.85581 141.341 5.11593 139.929 3.40375C138.518 1.69156 136.912 0.836809 135.648 0.414056C135.018 0.203414 134.474 0.0999654 134.08 0.0491433C133.883 0.0236991 133.722 0.0113203 133.606 0.0053589C133.548 0.00237957 133.501 0.00100706 133.466 0.000405879C133.448 0.000112994 133.434 7.20371e-06 133.422 0L133.407 4.31698e-05L133.402 8.47307e-05L133.399 0.000118797L133.397 0.000145436L133.047 0.00528732L126.539 5.37005L122.545 9.95862L115.279 15.949C114.203 16.8359 113.059 17.4767 112.177 17.8969C111.738 18.106 111.369 18.258 111.112 18.3567C110.984 18.406 110.885 18.4418 110.82 18.4647C110.787 18.4762 110.763 18.4844 110.748 18.4894L110.731 18.4949L110.73 18.4953L110.23 18.6548L110.082 19.1459L110.081 19.1473L110.081 19.1485C110.079 19.1526 110.076 19.1604 110.072 19.1718C110.061 19.2014 110.039 19.2554 110.004 19.3317C109.933 19.484 109.808 19.7258 109.602 20.0384C109.19 20.6625 108.452 21.5766 107.177 22.6283L86.3429 39.8036C85.0646 40.8574 83.8168 41.579 82.8909 42.0358C82.4287 42.2638 82.0491 42.4247 81.7892 42.5273C81.6593 42.5785 81.5595 42.6151 81.4946 42.6381C81.4621 42.6497 81.4384 42.6578 81.4239 42.6626L81.4093 42.6675L81.4084 42.6678L81.4074 42.6681L80.9814 42.8041L80.8004 43.2118L80.7996 43.2136L80.7992 43.2146L80.7964 43.2205C80.792 43.23 80.784 43.2468 80.7724 43.2704C80.7492 43.3176 80.7114 43.3919 80.6581 43.4892C80.5515 43.684 80.3834 43.9697 80.1467 44.3136C79.6724 45.0022 78.9274 45.9168 77.8551 46.8009L58.5644 62.7039C57.2861 63.7578 56.0384 64.4793 55.1124 64.9362C54.6502 65.1642 54.2706 65.3251 54.0107 65.4277C53.8808 65.4789 53.7811 65.5155 53.7161 65.5385C53.6836 65.5501 53.6599 65.5582 53.6455 65.563ZM27.1644 90.4767C27.4034 90.1141 27.569 89.8085 27.6809 89.5749L27.7378 89.5525C28.0433 89.432 28.4737 89.2491 28.9904 88.9942C30.0222 88.4851 31.4074 87.6841 32.8297 86.5116L51.3487 71.2446C52.7737 70.0699 53.6469 69.0078 54.1713 68.2124C54.4103 67.8499 54.5758 67.5443 54.6877 67.3106L54.7447 67.2883C55.0501 67.1677 55.4806 66.9848 55.9973 66.7299C57.0291 66.2208 58.4142 65.4199 59.8366 64.2473L79.1272 48.3442C80.3697 47.32 81.2358 46.2584 81.7938 45.448C82.0732 45.0423 82.2766 44.6978 82.4124 44.4497L82.4253 44.426C82.4564 44.4141 82.489 44.4014 82.5232 44.3879C82.8286 44.2673 83.2591 44.0845 83.7758 43.8295C84.8076 43.3204 86.1927 42.5195 87.6151 41.3469L108.449 24.1716C109.874 22.9969 110.747 21.9348 111.272 21.1394C111.51 20.7782 111.675 20.4736 111.787 20.2403L111.831 20.2231C112.128 20.1087 112.545 19.9368 113.037 19.7027C114.016 19.2364 115.312 18.5138 116.551 17.4923L123.945 11.3967L127.939 6.80811L133.743 2.02309C133.769 2.02598 133.796 2.02921 133.824 2.03286C134.11 2.06969 134.525 2.14743 135.013 2.31089C135.986 2.63634 137.253 3.30147 138.386 4.67599C139.519 6.05051 139.93 7.42082 140.064 8.43801C140.131 8.94892 140.128 9.37127 140.11 9.65867C140.108 9.68711 140.106 9.71453 140.104 9.7402L134.299 14.5252L129.034 17.5701L121.64 23.6657C120.401 24.6872 119.444 25.8217 118.799 26.6939C118.476 27.1318 118.228 27.5082 118.059 27.778L118.033 27.8186C117.783 27.8839 117.452 27.9879 117.052 28.1527C116.172 28.5157 114.963 29.1703 113.538 30.345L92.7037 47.5203C91.2814 48.6929 90.2309 49.8999 89.5343 50.8157C89.1855 51.2742 88.9238 51.6619 88.7472 51.9388C88.7275 51.9698 88.7088 51.9994 88.6911 52.0275L88.6654 52.0357C88.3959 52.1217 88.019 52.2557 87.5675 52.4525C86.6656 52.8457 85.4583 53.4934 84.2158 54.5177L64.9252 70.4207C63.5029 71.5933 62.4524 72.8003 61.7558 73.716C61.407 74.1746 61.1453 74.5623 60.9688 74.8392L60.936 74.8908C60.6853 74.9561 60.3537 75.0603 59.9523 75.2257C59.0715 75.5888 57.8623 76.2433 56.4374 77.4181L37.9184 92.685C36.496 93.8576 35.4455 95.0645 34.749 95.9803C34.4001 96.4389 34.1385 96.8266 33.9619 97.1034L33.9291 97.1551C33.6784 97.2204 33.3468 97.3245 32.9454 97.49C32.0646 97.853 30.8555 98.5076 29.4305 99.6823L9.13532 116.414C9.09265 115.984 8.98979 115.528 8.79654 115.065C8.89812 114.926 9.01787 114.75 9.12104 114.556C9.30498 114.21 9.47346 113.744 9.44395 113.188C9.41385 112.62 9.18363 112.067 8.75316 111.545C8.3227 111.022 7.82338 110.691 7.27234 110.553C6.73202 110.418 6.24236 110.494 5.86744 110.609C5.65715 110.673 5.46161 110.757 5.30595 110.83C4.88862 110.552 4.46053 110.364 4.04651 110.24L24.3419 93.5089C25.7669 92.3342 26.6401 91.2721 27.1644 90.4767Z" fill="black"/>
<path d="M77.3194 54.7988C78.022 55.6511 77.9006 56.9117 77.0483 57.6143C76.196 58.317 74.9355 58.1956 74.2329 57.3432C73.5303 56.4909 73.6517 55.2303 74.504 54.5276C75.3563 53.825 76.6168 53.9464 77.3194 54.7988Z" fill="black"/>
<path d="M96.61 38.8957C97.3126 39.7481 97.1912 41.0087 96.3389 41.7113C95.4866 42.4139 94.2261 42.2926 93.5235 41.4402C92.8209 40.5878 92.9423 39.3272 93.7946 38.6246C94.6469 37.9219 95.9074 38.0433 96.61 38.8957Z" fill="black"/>
<path d="M108.956 28.7178C109.659 29.5701 109.537 30.8307 108.685 31.5333C107.833 32.236 106.572 32.1146 105.87 31.2622C105.167 30.4099 105.288 29.1493 106.141 28.4466C106.993 27.744 108.253 27.8654 108.956 28.7178Z" fill="black"/>
<path d="M124.388 15.9953C125.091 16.8477 124.97 18.1083 124.117 18.8109C123.265 19.5136 122.005 19.3922 121.302 18.5398C120.599 17.6874 120.721 16.4268 121.573 15.7242C122.425 15.0216 123.686 15.1429 124.388 15.9953Z" fill="black"/>
<path fill-rule="evenodd" clip-rule="evenodd" d="M113.482 19.3765C114.506 19.7642 115.838 20.5585 117.166 22.1695C118.494 23.7806 119.019 25.2403 119.205 26.3186C119.297 26.8558 119.304 27.294 119.287 27.6041C119.278 27.7592 119.263 27.8822 119.25 27.9696C119.243 28.0133 119.237 28.0481 119.232 28.0737C119.229 28.0864 119.227 28.0968 119.225 28.1049L119.223 28.1152L119.222 28.119L119.222 28.1205C119.222 28.1205 119.221 28.1219 118.735 28.004C118.25 27.8862 118.249 27.8868 118.249 27.8868L118.249 27.8882L118.251 27.8783C118.253 27.8668 118.257 27.8464 118.262 27.8176C118.27 27.7601 118.282 27.6692 118.289 27.5482C118.302 27.3062 118.298 26.9441 118.219 26.488C118.063 25.5798 117.611 24.2813 116.394 22.8056C115.178 21.33 113.99 20.6382 113.128 20.3116C112.695 20.1477 112.341 20.0741 112.101 20.0413C111.981 20.0249 111.889 20.0186 111.831 20.0163C111.802 20.0152 111.781 20.015 111.77 20.0151L111.759 20.0152L111.76 20.0151C111.76 20.0151 111.762 20.0151 111.739 19.5156C111.716 19.0161 111.716 19.016 111.716 19.016L111.719 19.0159L111.722 19.0158L111.733 19.0155C111.741 19.0153 111.752 19.0151 111.765 19.015C111.791 19.0149 111.826 19.0153 111.871 19.017C111.959 19.0205 112.083 19.0294 112.236 19.0505C112.544 19.0926 112.973 19.1833 113.482 19.3765Z" fill="black"/>
<path fill-rule="evenodd" clip-rule="evenodd" d="M128.915 6.65403C129.938 7.04177 131.271 7.83601 132.599 9.44706C133.927 11.0581 134.452 12.5178 134.637 13.5962C134.73 14.1334 134.737 14.5716 134.719 14.8817C134.711 15.0367 134.696 15.1597 134.682 15.2471C134.676 15.2909 134.669 15.3257 134.664 15.3512C134.662 15.364 134.66 15.3744 134.658 15.3825L134.655 15.3928L134.655 15.3965L134.654 15.3981C134.654 15.3981 134.654 15.3994 134.168 15.2816C133.682 15.1638 133.682 15.1643 133.682 15.1643L133.682 15.1658L133.684 15.1559C133.686 15.1443 133.69 15.1239 133.694 15.0952C133.703 15.0377 133.714 14.9467 133.721 14.8257C133.735 14.5838 133.73 14.2216 133.652 13.7656C133.496 12.8574 133.043 11.5588 131.827 10.0832C130.611 8.60752 129.422 7.91577 128.561 7.5892C128.128 7.42522 127.773 7.35171 127.533 7.31886C127.413 7.30244 127.322 7.29618 127.264 7.29389C127.235 7.29274 127.214 7.29258 127.202 7.29264L127.191 7.29278L127.193 7.2927C127.193 7.2927 127.194 7.29265 127.171 6.79314C127.148 6.29363 127.149 6.2936 127.149 6.2936L127.151 6.29351L127.155 6.29336L127.166 6.29304C127.174 6.29282 127.184 6.29264 127.197 6.29258C127.223 6.29246 127.259 6.29285 127.303 6.2946C127.391 6.29808 127.515 6.30698 127.669 6.32803C127.977 6.37013 128.405 6.46085 128.915 6.65403Z" fill="black"/>
<path fill-rule="evenodd" clip-rule="evenodd" d="M84.1608 43.5491C85.1838 43.9368 86.5164 44.7311 87.8443 46.3421C89.1723 47.9532 89.6976 49.4129 89.883 50.4912C89.9754 51.0285 89.9826 51.4667 89.9652 51.7768C89.9565 51.9318 89.9417 52.0548 89.9282 52.1422C89.9215 52.1859 89.9152 52.2208 89.9101 52.2463C89.9075 52.259 89.9053 52.2695 89.9035 52.2775L89.9012 52.2878L89.9003 52.2916L89.8999 52.2932C89.8999 52.2932 89.8996 52.2945 89.4137 52.1767C88.9278 52.0588 88.9277 52.0594 88.9277 52.0594L88.9273 52.0608L88.9293 52.051C88.9316 52.0394 88.9354 52.019 88.9399 51.9903C88.9487 51.9327 88.96 51.8418 88.9668 51.7208C88.9804 51.4789 88.9759 51.1167 88.8975 50.6607C88.7413 49.7525 88.2891 48.4539 87.0727 46.9783C85.8564 45.5026 84.6681 44.8108 83.8064 44.4843C83.3737 44.3203 83.0191 44.2468 82.779 44.2139C82.659 44.1975 82.5676 44.1913 82.5094 44.189C82.4803 44.1878 82.4596 44.1877 82.4478 44.1877L82.4369 44.1879L82.4387 44.1878C82.4387 44.1878 82.4398 44.1877 82.4168 43.6882C82.3939 43.1887 82.3946 43.1887 82.3946 43.1887L82.3969 43.1886L82.4008 43.1884L82.4113 43.1881C82.4195 43.1879 82.4302 43.1877 82.4432 43.1876C82.4692 43.1875 82.5047 43.1879 82.5488 43.1897C82.6372 43.1932 82.7608 43.202 82.9146 43.2231C83.2223 43.2652 83.651 43.3559 84.1608 43.5491Z" fill="black"/>
<path fill-rule="evenodd" clip-rule="evenodd" d="M56.3823 66.4495C57.4054 66.8372 58.7379 67.6315 60.0659 69.2425C61.3938 70.8536 61.9191 72.3133 62.1045 73.3916C62.1969 73.9289 62.2041 74.3671 62.1867 74.6772C62.178 74.8322 62.1632 74.9552 62.1498 75.0426C62.143 75.0863 62.1367 75.1212 62.1316 75.1467C62.129 75.1594 62.1268 75.1699 62.125 75.1779L62.1227 75.1882L62.1218 75.192L62.1215 75.1936C62.1215 75.1936 62.1211 75.1949 61.6352 75.0771C61.1493 74.9592 61.1492 74.9598 61.1492 74.9598L61.1488 74.9612L61.1508 74.9514C61.1532 74.9398 61.157 74.9194 61.1614 74.8906C61.1702 74.8331 61.1815 74.7422 61.1883 74.6212C61.2019 74.3793 61.1974 74.0171 61.119 73.5611C60.9628 72.6528 60.5106 71.3543 59.2942 69.8786C58.0779 68.403 56.8896 67.7112 56.0279 67.3847C55.5952 67.2207 55.2406 67.1472 55.0006 67.1143C54.8805 67.0979 54.7891 67.0916 54.7309 67.0893C54.7019 67.0882 54.6811 67.088 54.6693 67.0881L54.6584 67.0882L54.6602 67.0882C54.6602 67.0882 54.6613 67.0881 54.6384 66.5886C54.6154 66.0891 54.6161 66.0891 54.6161 66.0891L54.6184 66.089L54.6223 66.0888L54.6328 66.0885C54.6411 66.0883 54.6517 66.0881 54.6647 66.088C54.6908 66.0879 54.7262 66.0883 54.7704 66.0901C54.8587 66.0935 54.9823 66.1024 55.1361 66.1235C55.4438 66.1656 55.8726 66.2563 56.3823 66.4495Z" fill="black"/>
<path fill-rule="evenodd" clip-rule="evenodd" d="M29.3754 88.7138C30.3985 89.1015 31.731 89.8957 33.059 91.5068C34.3869 93.1178 34.9123 94.5775 35.0977 95.6559C35.19 96.1931 35.1973 96.6313 35.1799 96.9414C35.1712 97.0965 35.1563 97.2195 35.1429 97.3069C35.1362 97.3506 35.1298 97.3854 35.1247 97.4109C35.1222 97.4237 35.12 97.4341 35.1182 97.4422L35.1159 97.4525L35.115 97.4563L35.1146 97.4578C35.1146 97.4578 35.1143 97.4592 34.6284 97.3413C34.1424 97.2235 34.1423 97.2241 34.1423 97.2241L34.142 97.2255L34.144 97.2156C34.1463 97.204 34.1501 97.1837 34.1545 97.1549C34.1634 97.0974 34.1747 97.0065 34.1814 96.8855C34.195 96.6435 34.1905 96.2814 34.1121 95.8253C33.956 94.9171 33.5037 93.6186 32.2874 92.1429C31.071 90.6673 29.8827 89.9755 29.021 89.6489C28.5884 89.485 28.2338 89.4114 27.9937 89.3786C27.8736 89.3622 27.7822 89.3559 27.7241 89.3536C27.695 89.3525 27.6743 89.3523 27.6625 89.3524L27.6515 89.3525L27.6533 89.3524C27.6533 89.3524 27.6544 89.3524 27.6315 88.8529C27.6086 88.3534 27.6092 88.3533 27.6092 88.3533L27.6115 88.3532L27.6154 88.3531L27.626 88.3528C27.6342 88.3526 27.6449 88.3524 27.6579 88.3523C27.6839 88.3522 27.7193 88.3526 27.7635 88.3543C27.8519 88.3578 27.9754 88.3667 28.1292 88.3878C28.437 88.4299 28.8657 88.5206 29.3754 88.7138Z" fill="black"/>
</svg>
