<svg width="224" height="224" viewBox="0 0 224 224" fill="none" xmlns="http://www.w3.org/2000/svg">
<path fill-rule="evenodd" clip-rule="evenodd" d="M94.6455 117.563L94.6309 117.568L94.6289 117.568L94.1296 117.728L93.9813 118.219L93.9809 118.22L93.9804 118.222C93.979 118.226 93.9762 118.233 93.9719 118.245C93.9607 118.274 93.939 118.328 93.9037 118.405C93.8331 118.557 93.7076 118.799 93.5016 119.111C93.0901 119.736 92.3523 120.65 91.0766 121.701L72.5576 136.968C71.2793 138.022 70.0315 138.744 69.1056 139.2C68.6434 139.428 68.2638 139.589 68.0038 139.692C67.874 139.743 67.7742 139.78 67.7092 139.803C67.6768 139.814 67.653 139.822 67.6386 139.827L67.624 139.832L67.623 139.832L67.6221 139.833L67.1227 139.992L66.9736 140.486C66.9722 140.49 66.9694 140.498 66.9651 140.509C66.9538 140.539 66.9322 140.593 66.8968 140.669C66.8262 140.821 66.7008 141.063 66.4947 141.376C66.0832 142 65.3454 142.914 64.0697 143.966L41.544 162.536L41.4515 162.705L42.3287 163.185C41.4515 162.705 41.4508 162.706 41.4508 162.706L41.4501 162.707L41.4487 162.71L41.4454 162.716L41.4375 162.731C41.4317 162.742 41.4247 162.756 41.4168 162.772C41.4011 162.804 41.3815 162.846 41.3595 162.897C41.3156 162.999 41.2617 163.139 41.2091 163.313C41.1041 163.661 41.0035 164.149 41.0003 164.746C40.9939 165.963 41.3915 167.551 42.8085 169.27C44.2256 170.989 45.7082 171.682 46.9034 171.908C47.4908 172.019 47.9887 172.013 48.3502 171.976C48.531 171.958 48.6785 171.932 48.7871 171.908C48.8415 171.896 48.8863 171.885 48.9208 171.875C48.9381 171.871 48.9529 171.867 48.965 171.863L48.9813 171.858L48.9879 171.856L48.9909 171.855L48.9922 171.855C48.9922 171.855 48.9936 171.854 48.6895 170.902L48.9936 171.854L49.177 171.796L71.7027 153.226C72.9784 152.174 74.0163 151.624 74.7075 151.339C75.0536 151.197 75.3148 151.12 75.4779 151.079C75.5595 151.059 75.6167 151.048 75.6479 151.043C75.6599 151.041 75.6681 151.04 75.6723 151.039L76.1853 150.987L76.4371 150.527L76.4375 150.526L76.438 150.525L76.4456 150.512C76.4531 150.498 76.4656 150.477 76.4831 150.447C76.5181 150.388 76.573 150.297 76.6481 150.179C76.7984 149.943 77.0287 149.601 77.3408 149.191C77.9659 148.369 78.9122 147.282 80.1905 146.228L98.7095 130.961C99.9852 129.91 101.023 129.36 101.714 129.075C102.06 128.932 102.322 128.855 102.485 128.815C102.566 128.795 102.624 128.784 102.655 128.779C102.66 128.778 102.665 128.777 102.669 128.776C102.674 128.776 102.677 128.775 102.679 128.775L102.68 128.774L102.682 128.774L103.192 128.722L103.444 128.263L103.444 128.262L103.445 128.261L103.452 128.247C103.456 128.241 103.46 128.234 103.466 128.224C103.472 128.213 103.48 128.199 103.49 128.183C103.525 128.123 103.58 128.032 103.655 127.915C103.805 127.679 104.036 127.337 104.348 126.927C104.973 126.105 105.919 125.018 107.197 123.964L126.488 108.061C127.56 107.177 128.6 106.62 129.367 106.286C129.749 106.119 130.062 106.009 130.273 105.941C130.379 105.907 130.459 105.885 130.51 105.871C130.535 105.864 130.553 105.859 130.564 105.857L130.571 105.855L130.572 105.855L130.573 105.854L131.008 105.755L131.222 105.362L131.223 105.361L131.223 105.36L131.231 105.347C131.238 105.334 131.251 105.312 131.268 105.282C131.303 105.223 131.358 105.132 131.433 105.014C131.584 104.779 131.814 104.437 132.126 104.027C132.751 103.205 133.698 102.118 134.976 101.064L155.81 83.8884C157.085 82.8367 158.123 82.2868 158.815 82.002C159.161 81.8593 159.422 81.7823 159.585 81.742C159.667 81.7219 159.724 81.7109 159.755 81.7056C159.767 81.7035 159.775 81.7023 159.779 81.7017L159.781 81.7014L159.782 81.7013L160.292 81.6495L160.544 81.189L160.545 81.188L160.554 81.1727C160.561 81.1589 160.574 81.1367 160.592 81.1067C160.627 81.0468 160.681 80.9561 160.753 80.8398C160.899 80.6071 161.119 80.2737 161.408 79.8826C161.989 79.0967 162.836 78.096 163.912 77.2091L171.178 71.2188L176.444 68.1735L182.952 62.8088L183.024 62.4645L183.024 62.4634L183.025 62.4611L183.026 62.4556L183.029 62.4411C183.031 62.4299 183.033 62.4156 183.036 62.3984C183.038 62.3882 183.04 62.3769 183.042 62.3646C183.044 62.3541 183.046 62.3428 183.048 62.3308C183.051 62.3095 183.055 62.2858 183.058 62.2598C183.075 62.1447 183.093 61.9847 183.106 61.7861C183.131 61.3895 183.133 60.8355 183.047 60.1771C182.873 58.8558 182.34 57.1159 180.929 55.4037C179.518 53.6916 177.912 52.8368 176.648 52.4141C176.018 52.2034 175.474 52.1 175.08 52.0491C174.883 52.0237 174.722 52.0113 174.606 52.0054C174.548 52.0024 174.501 52.001 174.466 52.0004C174.448 52.0001 174.434 52 174.422 52L174.407 52L174.402 52.0001L174.399 52.0001L174.397 52.0001L174.047 52.0053L167.539 57.3701L163.545 61.9586L156.279 67.949C155.203 68.8359 154.059 69.4767 153.177 69.8969C152.738 70.106 152.369 70.258 152.112 70.3567C151.984 70.406 151.885 70.4418 151.82 70.4647C151.787 70.4762 151.763 70.4844 151.748 70.4894L151.731 70.4949L151.73 70.4953L151.23 70.6548L151.082 71.1459L151.081 71.1473L151.081 71.1485C151.079 71.1526 151.076 71.1604 151.072 71.1718C151.061 71.2014 151.039 71.2554 151.004 71.3317C150.933 71.484 150.808 71.7258 150.602 72.0384C150.19 72.6625 149.452 73.5766 148.177 74.6283L127.343 91.8036C126.065 92.8574 124.817 93.579 123.891 94.0358C123.429 94.2638 123.049 94.4247 122.789 94.5273C122.659 94.5785 122.56 94.6151 122.495 94.6381C122.462 94.6497 122.438 94.6578 122.424 94.6626L122.409 94.6675L122.408 94.6678L122.407 94.6681L121.981 94.8041L121.8 95.2118L121.8 95.2136L121.799 95.2146L121.796 95.2205C121.792 95.23 121.784 95.2468 121.772 95.2704C121.749 95.3176 121.711 95.3919 121.658 95.4892C121.552 95.684 121.383 95.9697 121.147 96.3136C120.672 97.0022 119.927 97.9168 118.855 98.8009L99.5644 114.704C98.2861 115.758 97.0384 116.479 96.1124 116.936C95.6502 117.164 95.2706 117.325 95.0107 117.428C94.8808 117.479 94.7811 117.516 94.7161 117.539C94.6836 117.55 94.6599 117.558 94.6455 117.563ZM68.1644 142.477C68.4034 142.114 68.569 141.809 68.6809 141.575L68.7378 141.553C69.0433 141.432 69.4737 141.249 69.9904 140.994C71.0222 140.485 72.4074 139.684 73.8297 138.512L92.3487 123.245C93.7737 122.07 94.6469 121.008 95.1713 120.212C95.4103 119.85 95.5758 119.544 95.6877 119.311L95.7447 119.288C96.0501 119.168 96.4806 118.985 96.9973 118.73C98.0291 118.221 99.4142 117.42 100.837 116.247L120.127 100.344C121.37 99.32 122.236 98.2584 122.794 97.448C123.073 97.0423 123.277 96.6978 123.412 96.4497L123.425 96.426C123.456 96.4141 123.489 96.4014 123.523 96.3879C123.829 96.2673 124.259 96.0845 124.776 95.8295C125.808 95.3204 127.193 94.5195 128.615 93.3469L149.449 76.1716C150.874 74.9969 151.747 73.9348 152.272 73.1394C152.51 72.7782 152.675 72.4736 152.787 72.2403L152.831 72.2231C153.128 72.1087 153.545 71.9368 154.037 71.7027C155.016 71.2364 156.312 70.5138 157.551 69.4923L164.945 63.3967L168.939 58.8081L174.743 54.0231C174.769 54.026 174.796 54.0292 174.824 54.0329C175.11 54.0697 175.525 54.1474 176.013 54.3109C176.986 54.6363 178.253 55.3015 179.386 56.676C180.519 58.0505 180.93 59.4208 181.064 60.438C181.131 60.9489 181.128 61.3713 181.11 61.6587C181.108 61.6871 181.106 61.7145 181.104 61.7402L175.299 66.5252L170.034 69.5701L162.64 75.6657C161.401 76.6872 160.444 77.8217 159.799 78.6939C159.476 79.1318 159.228 79.5082 159.059 79.778L159.033 79.8186C158.783 79.8839 158.452 79.9879 158.052 80.1527C157.172 80.5157 155.963 81.1703 154.538 82.345L133.704 99.5203C132.281 100.693 131.231 101.9 130.534 102.816C130.185 103.274 129.924 103.662 129.747 103.939C129.727 103.97 129.709 103.999 129.691 104.028L129.665 104.036C129.396 104.122 129.019 104.256 128.567 104.452C127.666 104.846 126.458 105.493 125.216 106.518L105.925 122.421C104.503 123.593 103.452 124.8 102.756 125.716C102.407 126.175 102.145 126.562 101.969 126.839L101.936 126.891C101.685 126.956 101.354 127.06 100.952 127.226C100.071 127.589 98.8623 128.243 97.4374 129.418L78.9184 144.685C77.496 145.858 76.4455 147.065 75.749 147.98C75.4001 148.439 75.1385 148.827 74.9619 149.103L74.9291 149.155C74.6784 149.22 74.3468 149.325 73.9454 149.49C73.0646 149.853 71.8555 150.508 70.4305 151.682L50.1353 168.414C50.0927 167.984 49.9898 167.528 49.7965 167.065C49.8981 166.926 50.0179 166.75 50.121 166.556C50.305 166.21 50.4735 165.744 50.4439 165.188C50.4139 164.62 50.1836 164.067 49.7532 163.545C49.3227 163.022 48.8234 162.691 48.2723 162.553C47.732 162.418 47.2424 162.494 46.8674 162.609C46.6572 162.673 46.4616 162.757 46.306 162.83C45.8886 162.552 45.4605 162.364 45.0465 162.24L65.3419 145.509C66.7669 144.334 67.6401 143.272 68.1644 142.477Z" fill="black"/>
<path d="M118.319 106.799C119.022 107.651 118.901 108.912 118.048 109.614C117.196 110.317 115.935 110.196 115.233 109.343C114.53 108.491 114.652 107.23 115.504 106.528C116.356 105.825 117.617 105.946 118.319 106.799Z" fill="black"/>
<path d="M137.61 90.8957C138.313 91.7481 138.191 93.0087 137.339 93.7113C136.487 94.4139 135.226 94.2926 134.524 93.4402C133.821 92.5878 133.942 91.3272 134.795 90.6246C135.647 89.9219 136.907 90.0433 137.61 90.8957Z" fill="black"/>
<path d="M149.956 80.7178C150.659 81.5701 150.537 82.8307 149.685 83.5333C148.833 84.236 147.572 84.1146 146.87 83.2622C146.167 82.4099 146.288 81.1493 147.141 80.4466C147.993 79.744 149.253 79.8654 149.956 80.7178Z" fill="black"/>
<path d="M165.388 67.9953C166.091 68.8477 165.97 70.1083 165.117 70.8109C164.265 71.5135 163.005 71.3922 162.302 70.5398C161.599 69.6874 161.721 68.4268 162.573 67.7242C163.425 67.0216 164.686 67.1429 165.388 67.9953Z" fill="black"/>
<path fill-rule="evenodd" clip-rule="evenodd" d="M154.482 71.3765C155.506 71.7642 156.838 72.5585 158.166 74.1695C159.494 75.7806 160.019 77.2403 160.205 78.3186C160.297 78.8558 160.304 79.294 160.287 79.6041C160.278 79.7592 160.263 79.8822 160.25 79.9696C160.243 80.0133 160.237 80.0481 160.232 80.0737C160.229 80.0864 160.227 80.0968 160.225 80.1049L160.223 80.1152L160.222 80.119L160.222 80.1205C160.222 80.1205 160.221 80.1219 159.735 80.004C159.25 79.8862 159.249 79.8868 159.249 79.8868L159.249 79.8882L159.251 79.8783C159.253 79.8668 159.257 79.8464 159.262 79.8176C159.27 79.7601 159.282 79.6692 159.289 79.5482C159.302 79.3062 159.298 78.9441 159.219 78.488C159.063 77.5798 158.611 76.2813 157.394 74.8056C156.178 73.33 154.99 72.6382 154.128 72.3116C153.695 72.1477 153.341 72.0742 153.101 72.0413C152.981 72.0249 152.889 72.0186 152.831 72.0163C152.802 72.0152 152.781 72.015 152.77 72.0151L152.759 72.0152L152.76 72.0151C152.76 72.0151 152.762 72.0151 152.739 71.5156C152.716 71.0161 152.716 71.016 152.716 71.016L152.719 71.0159L152.722 71.0158L152.733 71.0155C152.741 71.0153 152.752 71.0151 152.765 71.015C152.791 71.0149 152.826 71.0153 152.871 71.017C152.959 71.0205 153.083 71.0294 153.236 71.0505C153.544 71.0926 153.973 71.1833 154.482 71.3765Z" fill="black"/>
<path fill-rule="evenodd" clip-rule="evenodd" d="M169.915 58.654C170.938 59.0418 172.271 59.836 173.599 61.4471C174.927 63.0581 175.452 64.5178 175.637 65.5962C175.73 66.1334 175.737 66.5716 175.719 66.8817C175.711 67.0367 175.696 67.1597 175.682 67.2471C175.676 67.2909 175.669 67.3257 175.664 67.3512C175.662 67.364 175.66 67.3744 175.658 67.3825L175.655 67.3928L175.655 67.3965L175.654 67.3981C175.654 67.3981 175.654 67.3994 175.168 67.2816C174.682 67.1638 174.682 67.1643 174.682 67.1643L174.682 67.1658L174.684 67.1559C174.686 67.1443 174.69 67.1239 174.694 67.0952C174.703 67.0377 174.714 66.9467 174.721 66.8257C174.735 66.5838 174.73 66.2216 174.652 65.7656C174.496 64.8574 174.043 63.5588 172.827 62.0832C171.611 60.6075 170.422 59.9158 169.561 59.5892C169.128 59.4252 168.773 59.3517 168.533 59.3189C168.413 59.3024 168.322 59.2962 168.264 59.2939C168.235 59.2927 168.214 59.2926 168.202 59.2926L168.191 59.2928L168.193 59.2927C168.193 59.2927 168.194 59.2926 168.171 58.7931C168.148 58.2936 168.149 58.2936 168.149 58.2936L168.151 58.2935L168.155 58.2934L168.166 58.293C168.174 58.2928 168.184 58.2926 168.197 58.2926C168.223 58.2925 168.259 58.2929 168.303 58.2946C168.391 58.2981 168.515 58.307 168.669 58.328C168.977 58.3701 169.405 58.4609 169.915 58.654Z" fill="black"/>
<path fill-rule="evenodd" clip-rule="evenodd" d="M125.161 95.5491C126.184 95.9368 127.516 96.7311 128.844 98.3421C130.172 99.9532 130.698 101.413 130.883 102.491C130.975 103.028 130.983 103.467 130.965 103.777C130.957 103.932 130.942 104.055 130.928 104.142C130.922 104.186 130.915 104.221 130.91 104.246C130.908 104.259 130.905 104.269 130.904 104.278L130.901 104.288L130.9 104.292L130.9 104.293C130.9 104.293 130.9 104.295 130.414 104.177C129.928 104.059 129.928 104.059 129.928 104.059L129.927 104.061L129.929 104.051C129.932 104.039 129.935 104.019 129.94 103.99C129.949 103.933 129.96 103.842 129.967 103.721C129.98 103.479 129.976 103.117 129.897 102.661C129.741 101.752 129.289 100.454 128.073 98.9783C126.856 97.5026 125.668 96.8108 124.806 96.4843C124.374 96.3203 124.019 96.2468 123.779 96.2139C123.659 96.1975 123.568 96.1913 123.509 96.189C123.48 96.1878 123.46 96.1877 123.448 96.1877L123.437 96.1879L123.439 96.1878C123.439 96.1878 123.44 96.1877 123.417 95.6882C123.394 95.1887 123.395 95.1887 123.395 95.1887L123.397 95.1886L123.401 95.1884L123.411 95.1881C123.42 95.1879 123.43 95.1877 123.443 95.1876C123.469 95.1875 123.505 95.1879 123.549 95.1897C123.637 95.1932 123.761 95.202 123.915 95.2231C124.222 95.2652 124.651 95.3559 125.161 95.5491Z" fill="black"/>
<path fill-rule="evenodd" clip-rule="evenodd" d="M97.3823 118.449C98.4054 118.837 99.7379 119.631 101.066 121.243C102.394 122.854 102.919 124.313 103.105 125.392C103.197 125.929 103.204 126.367 103.187 126.677C103.178 126.832 103.163 126.955 103.15 127.043C103.143 127.086 103.137 127.121 103.132 127.147C103.129 127.159 103.127 127.17 103.125 127.178L103.123 127.188L103.122 127.192L103.121 127.194C103.121 127.194 103.121 127.195 102.635 127.077C102.149 126.959 102.149 126.96 102.149 126.96L102.149 126.961L102.151 126.951C102.153 126.94 102.157 126.919 102.161 126.891C102.17 126.833 102.182 126.742 102.188 126.621C102.202 126.379 102.197 126.017 102.119 125.561C101.963 124.653 101.511 123.354 100.294 121.879C99.0779 120.403 97.8896 119.711 97.0279 119.385C96.5952 119.221 96.2406 119.147 96.0006 119.114C95.8805 119.098 95.7891 119.092 95.7309 119.089C95.7019 119.088 95.6811 119.088 95.6693 119.088L95.6584 119.088L95.6602 119.088C95.6602 119.088 95.6613 119.088 95.6384 118.589C95.6154 118.089 95.6161 118.089 95.6161 118.089L95.6184 118.089L95.6223 118.089L95.6328 118.089C95.6411 118.088 95.6517 118.088 95.6647 118.088C95.6908 118.088 95.7262 118.088 95.7704 118.09C95.8587 118.094 95.9823 118.102 96.1361 118.123C96.4438 118.166 96.8726 118.256 97.3823 118.449Z" fill="black"/>
<path fill-rule="evenodd" clip-rule="evenodd" d="M70.3754 140.714C71.3985 141.102 72.731 141.896 74.059 143.507C75.3869 145.118 75.9123 146.578 76.0977 147.656C76.19 148.193 76.1973 148.631 76.1799 148.941C76.1712 149.096 76.1563 149.219 76.1429 149.307C76.1362 149.351 76.1298 149.385 76.1247 149.411C76.1222 149.424 76.12 149.434 76.1182 149.442L76.1159 149.452L76.115 149.456L76.1146 149.458C76.1146 149.458 76.1143 149.459 75.6284 149.341C75.1424 149.223 75.1423 149.224 75.1423 149.224L75.142 149.225L75.144 149.216C75.1463 149.204 75.1501 149.184 75.1545 149.155C75.1634 149.097 75.1747 149.006 75.1814 148.885C75.195 148.644 75.1905 148.281 75.1121 147.825C74.956 146.917 74.5037 145.619 73.2874 144.143C72.071 142.667 70.8827 141.976 70.021 141.649C69.5884 141.485 69.2338 141.411 68.9937 141.379C68.8736 141.362 68.7822 141.356 68.7241 141.354C68.695 141.352 68.6743 141.352 68.6625 141.352L68.6515 141.353L68.6533 141.352C68.6533 141.352 68.6544 141.352 68.6315 140.853C68.6086 140.353 68.6092 140.353 68.6092 140.353L68.6115 140.353L68.6154 140.353L68.626 140.353C68.6342 140.353 68.6449 140.352 68.6579 140.352C68.6839 140.352 68.7193 140.353 68.7635 140.354C68.8519 140.358 68.9754 140.367 69.1292 140.388C69.437 140.43 69.8657 140.521 70.3754 140.714Z" fill="black"/>
</svg>
