<svg width="192" height="224" viewBox="0 0 192 224" fill="none" xmlns="http://www.w3.org/2000/svg">
<path d="M99 204C97.3432 204 96 205.343 96 207C96 208.657 97.3432 210 99 210H102C103.657 210 105 208.657 105 207C105 205.343 103.657 204 102 204H99Z" fill="black"/>
<path fill-rule="evenodd" clip-rule="evenodd" d="M100.5 9C95.9008 8.99998 90.4795 9.50552 86.2281 10.0069C84.098 10.258 82.2532 10.5092 80.9405 10.6976C80.284 10.7919 79.7603 10.8705 79.4002 10.9256C79.2201 10.9531 79.0809 10.9748 78.9864 10.9897L78.8788 11.0067L78.8437 11.0123L78.8418 11.0126C78.8417 11.0126 78.841 11.0127 79 12L78.8418 11.0126L78 11.1481V35.9857L74.4718 159.475C71.0408 160.152 68.9829 162.699 67.7913 165.039C67.1667 166.266 66.768 167.457 66.5253 168.34C66.4038 168.782 66.3209 169.149 66.2681 169.406L66.2623 169.435L65.2069 169.538L63.724 173.401L62.4569 173.965L59 180.195L59.204 180.456L59.5979 180.148C59.204 180.456 59.2039 180.456 59.204 180.456L59.2056 180.458L59.209 180.463L59.2208 180.478C59.2309 180.49 59.2454 180.508 59.2639 180.531C59.301 180.576 59.3545 180.641 59.4219 180.719C59.5565 180.875 59.748 181.087 59.9763 181.314C60.4184 181.754 61.053 182.304 61.7084 182.556C62.3562 182.805 63.2619 182.85 63.9469 182.846C64.3011 182.844 64.6187 182.828 64.8477 182.812C64.884 182.81 64.9182 182.808 64.95 182.805L65.0156 182.8C65.0559 182.797 65.091 182.794 65.1203 182.792C65.1527 182.789 65.1782 182.786 65.1958 182.785L65.2164 182.783L65.222 182.782L65.2237 182.782L65.5844 182.744L67.1076 175.731L66.4732 174.496L68.0281 170.623L67.2212 169.741C67.2289 169.701 67.2377 169.656 67.2478 169.607C67.2967 169.368 67.3746 169.023 67.4896 168.605C67.7199 167.767 68.0968 166.643 68.6824 165.493C69.7803 163.337 71.5701 161.161 74.4424 160.503L73.9931 176.227L74.1094 176.455L74.1103 176.456L74.1152 176.466L74.1372 176.51L74.1609 176.559L74.1933 176.626L74.2259 176.694C74.3035 176.857 74.4161 177.1 74.5519 177.412C74.8238 178.036 75.1878 178.934 75.552 180.019C76.284 182.199 77 185.084 77 188C77 191.003 76.756 192.943 76.5119 194.51C76.4707 194.775 76.4286 195.034 76.3871 195.288L76.3867 195.291C76.1855 196.525 76 197.663 76 199V199.036L77.0628 213.914L77.9045 213.995L77.9066 213.996L77.9127 213.996L77.9362 213.998L78.0274 214.007C78.1077 214.014 78.2265 214.025 78.3817 214.039C78.6921 214.067 79.148 214.106 79.7326 214.153C80.9017 214.247 82.5857 214.373 84.6488 214.498C88.7738 214.749 94.42 215 100.5 215C106.58 215 112.226 214.749 116.351 214.498C118.414 214.373 120.098 214.247 121.267 214.153C121.852 214.106 122.308 214.067 122.618 214.039C122.774 214.025 122.892 214.014 122.973 214.007L123.064 213.998L123.087 213.996L123.093 213.996L123.095 213.995L123.937 213.914L125 199.036V199C125 197.663 124.815 196.525 124.613 195.291L124.613 195.289C124.572 195.034 124.529 194.776 124.488 194.51C124.244 192.943 124 191.003 124 188C124 185.084 124.716 182.199 125.448 180.019C125.812 178.934 126.176 178.036 126.448 177.412C126.584 177.1 126.697 176.857 126.774 176.694L126.805 176.63C126.82 176.598 126.834 176.57 126.845 176.546L126.863 176.51L126.885 176.466L126.89 176.456L127.007 176.227L123.234 44.183C123.469 44.0193 123.721 43.8694 123.991 43.7356C126.6 42.4442 127.832 40.9876 128.398 39.7978C128.679 39.2063 128.789 38.6932 128.827 38.3187C128.837 38.223 128.842 38.1365 128.844 38.0602L129.75 37.6114L130.247 36.1405L131.745 35.6476L134 30.0746L133.745 29.8402L133.406 30.208C133.745 29.8402 133.745 29.8402 133.745 29.8402L133.739 29.8348L133.725 29.822L133.707 29.8058L133.674 29.7761C133.629 29.7371 133.566 29.682 133.487 29.6155C133.329 29.4828 133.106 29.3035 132.846 29.1168C132.348 28.7581 131.641 28.317 130.982 28.1931C130.327 28.0701 129.478 28.216 128.855 28.3621C128.531 28.4381 128.243 28.5206 128.036 28.584C127.932 28.6157 127.848 28.6428 127.789 28.6622L127.759 28.6722L127.721 28.6852L127.703 28.6916L127.697 28.6934L127.696 28.6939C127.696 28.694 127.695 28.6942 127.861 29.1659L127.696 28.6939L127.362 28.8113L127.341 34.3384L127.802 35.2695L127.291 36.7811L127.843 37.8949L127.843 37.9113C127.846 37.9772 127.846 38.0815 127.832 38.2177C127.805 38.4893 127.722 38.8898 127.495 39.3684C127.043 40.3188 125.994 41.628 123.548 42.8394C123.429 42.8982 123.314 42.9594 123.201 43.0231L123 35.9857V11.1481L122.159 11.0127L122 12C122.159 11.0127 122.159 11.0127 122.159 11.0127L122.121 11.0067L122.014 10.9897C121.919 10.9748 121.78 10.9531 121.6 10.9256C121.24 10.8705 120.716 10.7919 120.06 10.6976C118.747 10.5092 116.902 10.2581 114.772 10.0069C110.521 9.50556 105.099 9.00002 100.5 9ZM121.028 37L121.248 44.6796C120.709 45.3428 120.303 46.0797 120 46.8324V37H121.028ZM120.329 49.3496C120.153 50.3501 120.112 51.2871 120.118 52H121C121.166 52 121.322 52.0403 121.46 52.1118L121.297 46.4111C120.8 47.341 120.502 48.3645 120.329 49.3496ZM76.4562 160.047L76.0067 175.782L76.0319 175.835C76.1184 176.016 76.2402 176.279 76.3856 176.613C76.6763 177.281 77.0622 178.233 77.448 179.382C78.216 181.669 79 184.784 79 188C79 191.129 78.744 193.175 78.4881 194.818C78.4424 195.112 78.3976 195.388 78.3548 195.651L78.3546 195.653L78.3541 195.656L78.3539 195.657C78.2101 196.543 78.0889 197.29 78.0331 198.076C78.3466 198.099 78.732 198.127 79.1811 198.159C79.705 198.195 80.3156 198.237 80.9998 198.282V154.948C80.2333 157.088 78.8704 159.178 76.4562 160.047ZM81.9998 149.242C82.0098 148.934 82.0119 148.671 82.0107 148.467C82.0098 148.313 82.007 148.191 82.0045 148.107C82.0032 148.065 82.002 148.033 82.0011 148.01L82.0006 148H83C83.544 148 83.9865 147.566 83.9997 147.025V198.465C83.6341 198.444 83.2789 198.423 82.9351 198.403L82 197V198.345L81.9998 149.242ZM80.9998 149.225C80.995 149.37 80.9883 149.524 80.9793 149.689C80.9233 150.704 80.7768 152.06 80.4174 153.441C79.8192 155.74 78.6718 157.979 76.4874 158.954L79.9719 37H80.9998V146H80C79.4477 146 79 146.448 79 147C79 147.552 79.4477 148 80 148H80.9998V149.225ZM80 19.6492V12.8574C80.3254 12.8083 80.738 12.7472 81.2247 12.6773C82.5245 12.4908 84.3523 12.2419 86.4623 11.9931C90.6909 11.4944 96.0197 11 100.5 11C104.98 11 110.309 11.4945 114.538 11.9931C116.648 12.242 118.476 12.4908 119.775 12.6774C120.262 12.7472 120.675 12.8083 121 12.8574V19.6319C120.858 19.5922 120.707 19.5518 120.551 19.512C119.544 19.2562 118.171 18.9946 116.949 19.0933C115.645 19.1987 114.701 19.8122 113.985 20.2769C113.933 20.3106 113.882 20.3435 113.833 20.3754C113.071 20.866 112.536 21.1557 111.776 21.1099C111.006 21.0635 110.523 20.632 109.76 19.8818L109.701 19.8232C109.002 19.1347 108.031 18.1775 106.462 18.0829C105.054 17.998 103.798 18.6357 102.819 19.1334L102.789 19.1484C101.703 19.6999 100.903 20.0991 100.079 20.0991C99.3171 20.0991 98.7848 19.7532 97.9789 19.2105L97.9604 19.1981C97.1982 18.6848 96.173 17.9944 94.7047 18.0829C93.1353 18.1775 92.1644 19.1347 91.4659 19.8232L91.4064 19.8818C90.6441 20.632 90.1603 21.0635 89.3907 21.1099C88.631 21.1557 88.096 20.866 87.3339 20.3754L87.259 20.327L87.1819 20.2769C86.4662 19.8122 85.5217 19.1987 84.2174 19.0933C82.9984 18.9948 81.5854 19.2555 80.5422 19.5097C80.3516 19.5561 80.17 19.6032 80 19.6492ZM120.058 21.4505C120.418 21.5418 120.74 21.6362 121 21.7176V35H120V21.4357L120.058 21.4505ZM119 21.2207V32H118V35H117V21.0979C117.036 21.0936 117.073 21.0899 117.11 21.0868C117.68 21.0408 118.345 21.1048 119 21.2207ZM119 57.9802V54H118C117.448 54 117 53.5522 117 53C117 52.4477 117.448 52 118 52H119V37.9998L118 37H117V57H118C118.546 57 118.989 57.4371 119 57.9802ZM120 198.282V54H121C121.186 54 121.361 53.9491 121.51 53.8604L124.993 175.782L124.968 175.835C124.882 176.016 124.76 176.279 124.614 176.613C124.324 177.281 123.938 178.233 123.552 179.382C122.784 181.669 122 184.784 122 188C122 191.129 122.256 193.175 122.512 194.818C122.558 195.113 122.603 195.391 122.646 195.656C122.79 196.543 122.911 197.29 122.967 198.076C122.653 198.099 122.268 198.127 121.819 198.159C121.295 198.195 120.684 198.237 120 198.282ZM119 58.0197C118.989 58.5629 118.546 59 118 59H117V198.465C117.23 198.452 117.455 198.439 117.677 198.426L118.065 198.403L119 197V58.0197ZM116 59V64.9729C115.985 64.4331 115.543 64 115 64H114V37H115L116 38.9993V57H115C114.448 57 114 57.4477 114 58C114 58.5522 114.448 59 115 59H116ZM116 21.4065C115.681 21.5635 115.362 21.7693 114.992 22.0076L114.915 22.0571C114.641 22.2338 114.339 22.4254 114 22.5964V35H115V32H116V21.4065ZM114 198.626V66H115C115.543 66 115.985 65.5668 116 65.027V197.001L115.218 198.563C114.821 198.584 114.414 198.605 114 198.626ZM112 64H113V38.9994L112 37H111V72H112C112.544 72 112.987 72.4348 113 72.976V66H112C111.448 66 111 65.5523 111 65C111 64.4477 111.448 64 112 64ZM113 22.9792V32H112V35H111V23.0119C111.206 23.0597 111.424 23.0924 111.656 23.1063C112.152 23.1362 112.597 23.0827 113 22.9792ZM112.144 198.713L113 197.001V73.024C112.987 73.5652 112.544 74 112 74H111V198.762C111.385 198.746 111.767 198.73 112.144 198.713ZM110 74V197L109.082 198.835C108.396 198.859 107.7 198.882 107 198.902V92H108C108.552 92 109 91.5523 109 91C109 90.4477 108.552 90 108 90H107V37H109L110 38.9996V72H109C108.448 72 108 72.4477 108 73C108 73.5523 108.448 74 109 74H110ZM110 22.6302C109.334 22.2695 108.828 21.7712 108.417 21.366L108.357 21.3074C107.835 20.7927 107.443 20.4281 107 20.2348V35H109V32H110V22.6302ZM106 90H105C104.448 90 104 90.4477 104 91C104 91.5523 104.448 92 105 92H106V197.001L105.025 198.95C104.351 198.964 103.675 198.976 103 198.984V100H104C104.552 100 105 99.5523 105 99C105 98.4477 104.552 98 104 98H103V37H105L106 38.9993V90ZM106 20.0831V31H105V35H103V21.2816C103.19 21.1888 103.373 21.0957 103.547 21.0069L103.695 20.9316C104.61 20.4669 105.317 20.1379 106 20.0831ZM102 100V197.001L101 198.999C100.833 199 100.667 199 100.5 199C100.334 199 100.167 199 99.9997 198.999L99 197V198.994L98.9998 108H100C100.552 108 101 107.552 101 107C101 106.448 100.552 106 100 106H98.9998V37L99 39L100 37H101L102 38.9995V98H101C100.448 98 100 98.4477 100 99C100 99.5523 100.448 100 101 100H102ZM102 21.7175C101.404 21.9387 100.759 22.0991 100.079 22.0991C99.6886 22.0991 99.33 22.0468 98.9998 21.9607V35L99 32H100V35H101V31H102V21.7175ZM97.9998 106H97C96.4477 106 96 106.448 96 107C96 107.552 96.4477 108 97 108H97.9998V198.984C97.325 198.976 96.6491 198.964 95.9751 198.95L95 197V198.928L94.9998 116H96C96.5523 116 97 115.552 97 115C97 114.448 96.5523 114 96 114H94.9998V37L95 39L96 37H97.9998V106ZM97.9998 21.5732V35H96V31H95V35L94.9998 20.0753C95.6462 20.0861 96.1414 20.3844 96.8618 20.8695L96.9557 20.9329C97.2568 21.1364 97.6015 21.3693 97.9998 21.5732ZM93.9998 116V198.901C93.2992 198.882 92.604 198.859 91.9176 198.835L91 197V198.802L90.9998 124H92C92.5523 124 93 123.552 93 123C93 122.448 92.5523 122 92 122H90.9998V37L91 39L92 37H93.9998V114H93C92.4477 114 92 114.448 92 115C92 115.552 92.4477 116 93 116H93.9998ZM93.9998 20.3171C93.622 20.5235 93.2655 20.8583 92.8093 21.3074L92.7498 21.366C92.305 21.8044 91.7497 22.3518 90.9998 22.7161V35L91 32H92V35H93.9998V20.3171ZM89.9998 122H89C88.4477 122 88 122.448 88 123C88 123.552 88.4477 124 89 124H89.9998V130.978C89.9881 130.436 89.545 130 89 130H87.9998V37L88 39L89 37H89.9998V122ZM89.9998 23.0467V35H89V32H88V35L87.9998 22.9326C88.4453 23.0661 88.9449 23.1404 89.511 23.1063C89.6808 23.0961 89.8436 23.0757 89.9998 23.0467ZM89.9998 131.022C89.9881 131.564 89.545 132 89 132H87.9998V198.674L88 197L88.8565 198.713C89.2331 198.73 89.6144 198.746 89.9998 198.762V131.022ZM86.9998 132V138.978C86.9881 138.436 86.545 138 86 138H84.9997V37L85 39L86 37H86.9998V130H86C85.4477 130 85 130.448 85 131C85 131.552 85.4477 132 86 132H86.9998ZM86.9998 22.5089C86.7277 22.3617 86.4799 22.2042 86.2514 22.0571L86.1745 22.0076C85.7399 21.7275 85.375 21.4924 84.9997 21.3285V35L85 32H86V35H86.9998V22.5089ZM83.9997 146.975V140H83C82.4477 140 82 139.552 82 139C82 138.448 82.4477 138 83 138H83.9997V37H83L82 38V37L81.9998 146H83C83.544 146 83.9865 146.434 83.9997 146.975ZM86 140H84.9997V198.521L85 197L85.7817 198.563C86.1792 198.584 86.5856 198.605 86.9998 198.626V139.022C86.9881 139.564 86.545 140 86 140ZM83.9997 21.0827V35H83V32H82V35L81.9998 21.243C82.698 21.117 83.4058 21.0426 83.9997 21.0827ZM80.9998 21.4567C80.618 21.55 80.2749 21.6465 80 21.7288V35H80.9998V21.4567ZM121.959 200.154C122.322 200.128 122.644 200.105 122.92 200.085L122.063 212.08C121.929 212.091 121.78 212.104 121.616 212.118C121.459 212.131 121.289 212.145 121.107 212.159C119.949 212.253 118.278 212.377 116.23 212.502C112.132 212.751 106.528 213 100.5 213C94.4719 213 88.8681 212.751 84.7702 212.502C82.7218 212.377 81.051 212.253 79.8933 212.159C79.5194 212.129 79.1991 212.102 78.9368 212.08L78.0801 200.085C78.3564 200.105 78.6781 200.128 79.0411 200.154C80.381 200.248 82.2828 200.373 84.5322 200.498C89.0286 200.749 94.9242 201 100.5 201C106.076 201 111.971 200.749 116.468 200.498C118.717 200.373 120.619 200.248 121.959 200.154ZM65.919 170.473L66.4854 170.418L66.8659 170.834L65.3751 174.547L66.0543 175.869L64.7627 181.816C64.5498 181.83 64.2607 181.844 63.941 181.846C63.2594 181.85 62.5226 181.797 62.0668 181.622C61.6186 181.45 61.1084 181.03 60.6815 180.605C60.4876 180.413 60.3222 180.23 60.2014 180.091L63.1691 174.742L64.5092 174.146L65.919 170.473ZM128.558 37.0858L128.935 36.899L129.459 35.3469L130.992 34.8426L132.809 30.3521C132.667 30.2346 132.478 30.0838 132.262 29.9284C131.773 29.5761 131.221 29.2555 130.797 29.1759C130.369 29.0954 129.704 29.1902 129.083 29.3357C128.802 29.4017 128.548 29.4734 128.359 29.5306L128.342 34.1062L128.882 35.197L128.371 36.7086L128.558 37.0858Z" fill="black"/>
</svg>