<svg width="75" height="206" viewBox="0 0 75 206" fill="none" xmlns="http://www.w3.org/2000/svg">
<path fill-rule="evenodd" clip-rule="evenodd" d="M41.5001 6.30966e-10C36.9009 -2.06226e-05 31.4796 0.505517 27.2282 1.00687C25.0981 1.25805 23.2533 1.50921 21.9406 1.69764C21.2841 1.79187 20.7604 1.87046 20.4003 1.92557C20.2202 1.95313 20.081 1.97482 19.9865 1.98967L19.8788 2.00669L19.8511 2.01113L19.8438 2.01228L19.8419 2.01259L19.8414 2.01268C19.8412 2.0127 19.8411 2.01272 20.0001 3L19.8411 2.01272L19.0001 2.14815V3V12V26.9857L15.4719 150.475C12.0408 151.152 9.98293 153.699 8.79131 156.039C8.16666 157.266 7.76798 158.457 7.52533 159.34C7.4038 159.782 7.32088 160.149 7.26809 160.406L7.26232 160.435L6.51449 160.508L6.20693 160.538L6.09619 160.826L4.72402 164.401L3.60963 164.897L3.4569 164.965L3.37579 165.111L0.160691 170.906L0 171.195L0.20401 171.456L0.597905 171.148C0.20401 171.456 0.204062 171.456 0.204118 171.457L0.204255 171.457L0.204609 171.457L0.205644 171.459L0.209007 171.463L0.220809 171.478C0.230891 171.49 0.245366 171.508 0.263921 171.531C0.301013 171.576 0.354516 171.641 0.421936 171.719C0.556474 171.875 0.747957 172.087 0.976275 172.314C1.41837 172.754 2.05298 173.304 2.70842 173.556C3.35618 173.805 4.26187 173.85 4.94694 173.846C5.30114 173.844 5.61872 173.828 5.84773 173.813C5.96244 173.805 6.05544 173.797 6.12031 173.792C6.15275 173.789 6.1782 173.786 6.19584 173.785L6.21636 173.783L6.22205 173.782L6.22372 173.782L6.22426 173.782L6.21324 173.674L6.22459 173.782L6.5844 173.744L6.66119 173.391L8.06958 166.906L8.10762 166.731L8.0257 166.572L7.47317 165.496L8.91096 161.915L9.02806 161.623L8.81598 161.391L8.22121 160.741C8.22888 160.701 8.23771 160.656 8.24776 160.607C8.29669 160.368 8.37461 160.023 8.48957 159.605C8.71989 158.767 9.09677 157.643 9.68244 156.493C10.7803 154.337 12.5701 152.161 15.4425 151.503L15.0005 166.971L14.9932 167.227L15.1095 167.455L15.1096 167.455L15.1097 167.455L15.1104 167.456L15.1153 167.466L15.1373 167.51C15.1571 167.551 15.1872 167.612 15.226 167.694C15.3036 167.857 15.4162 168.1 15.552 168.412C15.8239 169.036 16.1879 169.934 16.5521 171.019C17.2841 173.199 18.0001 176.084 18.0001 179C18.0001 182.003 17.7561 183.943 17.512 185.51C17.4707 185.776 17.4285 186.035 17.387 186.289L17.3869 186.29L17.3868 186.291C17.1856 187.525 17.0001 188.663 17.0001 190V190.036L17.0027 190.071L18.0027 204.071L18.0629 204.914L18.9046 204.995L18.905 204.995L18.9067 204.996L18.9128 204.996L18.9363 204.998L19.0275 205.007C19.1078 205.014 19.2266 205.025 19.3818 205.039C19.6922 205.067 20.1481 205.106 20.7327 205.153C21.9018 205.247 23.5858 205.373 25.6489 205.498C29.7739 205.749 35.4201 206 41.5001 206C47.5801 206 53.2263 205.749 57.3513 205.498C59.4144 205.373 61.0984 205.247 62.2675 205.153C62.8521 205.106 63.3081 205.067 63.6184 205.039C63.7736 205.025 63.8924 205.014 63.9727 205.007L64.064 204.998L64.0875 204.996L64.0936 204.996L64.0952 204.995L64.0957 204.995L64.9373 204.914L64.9976 204.071L65.9976 190.071L66.0001 190.036V190C66.0001 188.663 65.8147 187.525 65.6135 186.291C65.5719 186.036 65.5296 185.776 65.4882 185.51C65.2441 183.943 65.0001 182.003 65.0001 179C65.0001 176.084 65.7161 173.199 66.4481 171.019C66.8123 169.934 67.1764 169.036 67.4482 168.412C67.5841 168.1 67.6966 167.857 67.7742 167.694C67.7945 167.651 67.8123 167.614 67.8276 167.583C67.8416 167.554 67.8535 167.53 67.863 167.51L67.8849 167.466L67.8898 167.456L67.8905 167.455L67.8907 167.455L67.8907 167.455L68.007 167.227L67.9997 166.971L64.2343 35.183C64.4691 35.0193 64.7211 34.8695 64.9914 34.7356C67.5996 33.4443 68.8322 31.9876 69.3978 30.7978C69.679 30.2063 69.7892 29.6932 69.8272 29.3187C69.8369 29.223 69.8419 29.1365 69.8438 29.0602L70.5646 28.7034L70.7502 28.6115L70.8165 28.4152L71.2469 27.1406L72.5249 26.7201L72.7452 26.6476L72.8321 26.4327L74.8699 21.3956L74.9997 21.0747L74.745 20.8402L74.7171 20.8705C74.7449 20.8401 74.7449 20.8401 74.7449 20.8401L74.7447 20.84L74.7443 20.8396L74.7431 20.8385L74.7391 20.8348L74.725 20.822L74.7011 20.8006L74.6736 20.7762C74.6295 20.7372 74.566 20.682 74.4867 20.6155C74.3286 20.4829 74.1056 20.3035 73.8462 20.1168C73.348 19.7582 72.6412 19.317 71.9821 19.1931C71.3275 19.0701 70.4783 19.216 69.8551 19.3621C69.5307 19.4382 69.2425 19.5206 69.0355 19.584C68.9318 19.6157 68.8479 19.6429 68.7893 19.6623C68.7601 19.672 68.7371 19.6797 68.7211 19.6852L68.7025 19.6916L68.6973 19.6934L68.6957 19.694L68.6952 19.6942L68.695 19.6942C68.6949 19.6942 68.6949 19.6943 68.8608 20.1659L68.6949 19.6943L68.3622 19.8113L68.3608 20.164L68.3411 25.2204L68.3406 25.3384L68.393 25.4442L68.8017 26.2696L68.3575 27.5849L68.2912 27.7811L68.3831 27.9667L68.8427 28.8949L68.8435 28.9114C68.8462 28.9773 68.8461 29.0816 68.8323 29.2177C68.8047 29.4893 68.7222 29.8899 68.4946 30.3685C68.0429 31.3188 66.9944 32.6281 64.5477 33.8395C64.4291 33.8982 64.3136 33.9595 64.2012 34.0231L64.0001 26.9857V12V3V2.14814L63.1591 2.01272L63.0001 3C63.1591 2.01272 63.159 2.0127 63.1588 2.01268L63.1583 2.01259L63.1564 2.01228L63.1492 2.01112L63.1214 2.00669L63.0137 1.98967C62.9192 1.97482 62.78 1.95313 62.6 1.92557C62.2398 1.87046 61.7161 1.79188 61.0596 1.69765C59.7469 1.50923 57.9021 1.25807 55.7721 1.0069C51.5206 0.505557 46.0994 2.06238e-05 41.5001 6.30966e-10ZM62.0283 28L62.2477 35.6795C61.7088 36.3427 61.3036 37.0796 60.9999 37.8322V28H62.0283ZM61.3287 40.3496C61.1532 41.3501 61.1121 42.2871 61.1182 43H62C62.1659 43 62.3223 43.0404 62.46 43.1119L62.2972 37.411C61.8 38.3409 61.5016 39.3645 61.3287 40.3496ZM17.4563 151.047L17.0068 166.782L17.032 166.835C17.1185 167.016 17.2403 167.279 17.3857 167.613C17.6764 168.281 18.0623 169.233 18.4481 170.382C19.2161 172.669 20.0001 175.784 20.0001 179C20.0001 182.129 19.7441 184.175 19.4882 185.818C19.4422 186.114 19.3971 186.392 19.354 186.657L19.354 186.657C19.2102 187.544 19.089 188.29 19.0332 189.076C19.3467 189.099 19.7321 189.127 20.1812 189.159C20.7051 189.195 21.3157 189.237 21.9999 189.282V145.948C21.2334 148.088 19.8705 150.178 17.4563 151.047ZM22.9999 140.239C23.0098 139.932 23.0119 139.671 23.0107 139.467C23.0098 139.313 23.007 139.191 23.0045 139.107C23.0032 139.065 23.002 139.033 23.001 139.01L23.0006 139H24C24.5454 139 24.9889 138.563 24.9998 138.021V189.465C24.2915 189.425 23.6224 189.384 22.9999 189.345V140.239ZM21.9999 140.222C21.995 140.367 21.9884 140.523 21.9792 140.689C21.9233 141.704 21.7768 143.06 21.4174 144.441C20.8192 146.74 19.6718 148.979 17.4875 149.954L20.972 28H21.9999V127V137H21C20.4477 137 20 137.448 20 138C20 138.552 20.4477 139 21 139H21.9999V140.222ZM21.0001 10.6492V3.85739C21.3255 3.80832 21.738 3.74721 22.2248 3.67735C23.5246 3.49077 25.3524 3.24193 27.4624 2.9931C31.691 2.49444 37.0198 1.99998 41.5001 2C45.9805 2.00002 51.3092 2.49448 55.5379 2.99313C57.6479 3.24195 59.4757 3.49079 60.7755 3.67736C61.2622 3.74722 61.6747 3.80833 62.0001 3.8574V10.6319C61.8579 10.5922 61.7076 10.5518 61.5508 10.512C60.5436 10.2562 59.171 9.99463 57.9494 10.0933C56.6452 10.1987 55.7006 10.8122 54.985 11.2769L54.984 11.2775C54.9325 11.311 54.8821 11.3437 54.8329 11.3754C54.0708 11.866 53.5358 12.1557 52.7761 12.1099C52.0065 12.0635 51.5227 11.632 50.7604 10.8818L50.7009 10.8232C50.0025 10.1347 49.0315 9.17749 47.4621 9.08289C46.054 8.99802 44.7985 9.63572 43.8186 10.1334L43.7892 10.1484C42.7031 10.6999 41.9026 11.0991 41.079 11.0991C40.3172 11.0991 39.7849 10.7532 38.979 10.2105L38.9605 10.1981C38.1983 9.68479 37.1731 8.99439 35.7048 9.08289C34.1354 9.17749 33.1645 10.1347 32.466 10.8232L32.4065 10.8818C31.6442 11.632 31.1604 12.0635 30.3908 12.1099C29.6311 12.1557 29.0961 11.866 28.334 11.3754C28.2845 11.3435 28.2338 11.3106 28.182 11.2769C27.4663 10.8122 26.5218 10.1987 25.2175 10.0933C23.9985 9.99483 22.5855 10.2555 21.5423 10.5097C21.3517 10.5561 21.1701 10.6032 21.0001 10.6492ZM61.0584 12.4505C61.4179 12.5418 61.7404 12.6362 62.0001 12.7176V26H61.0001V25H60.9999V12.4357L61.0584 12.4505ZM59.9999 25V12.2207C59.3447 12.1048 58.6802 12.0408 58.1105 12.0868C58.0731 12.0899 58.0362 12.0936 57.9998 12.0979V24H58.0001V26H59.0001V25H59.9999ZM56.9998 12.4065V24H56.0001V26H55.0001V24H54.9998V13.5964C55.3387 13.4254 55.6409 13.2338 55.9154 13.0571L55.9923 13.0076L55.9923 13.0075L55.9924 13.0075L55.9924 13.0075C56.3622 12.7692 56.6816 12.5635 56.9998 12.4065ZM59.9999 48.9863V45H59C58.4477 45 58 44.5523 58 44C58 43.4477 58.4477 43 59 43H59.9999V28H57.9998V48H59C59.5477 48 59.9926 48.4403 59.9999 48.9863ZM60.9999 189.282V45H62C62.1863 45 62.3607 44.9491 62.51 44.8604L65.9935 166.782L65.9682 166.835C65.8818 167.016 65.7599 167.279 65.6145 167.613C65.3239 168.281 64.9379 169.233 64.5521 170.382C63.7841 172.669 63.0001 175.784 63.0001 179C63.0001 182.129 63.2561 184.175 63.512 185.818C63.558 186.114 63.6031 186.392 63.6462 186.657C63.7901 187.544 63.9112 188.29 63.9671 189.076C63.6536 189.099 63.2682 189.127 62.8191 189.159C62.295 189.195 61.6843 189.237 60.9999 189.282ZM59.9999 49.0137C59.9926 49.5597 59.5477 50 59 50H57.9998V189.465C58.7081 189.425 59.3773 189.384 59.9999 189.345V49.0137ZM56.9998 50V55.977C56.9875 55.4353 56.5446 55 56 55H54.9998V28H56.9998V48H56C55.4477 48 55 48.4477 55 49C55 49.5523 55.4477 50 56 50H56.9998ZM53.9998 24V13.9792C53.5974 14.0827 53.1522 14.1362 52.6558 14.1063C52.4245 14.0924 52.2062 14.0597 51.9999 14.0119V24H52.0001V26H53.0001V24H53.9998ZM50.9999 13.6302V24H50.0001V26H48.0001V24H47.9998V11.2348C48.4427 11.4281 48.8346 11.7927 49.3576 12.3074L49.417 12.366C49.8281 12.7712 50.3336 13.2695 50.9999 13.6302ZM54.9998 189.626V57H56C56.5446 57 56.9875 56.5647 56.9998 56.023V189.521C56.358 189.556 55.6898 189.591 54.9998 189.626ZM53 55H53.9998V28H51.9999V60.9999V63H53C53.5458 63 53.9895 63.4373 53.9998 63.9807V57H53C52.4477 57 52 56.5523 52 56C52 55.4477 52.4477 55 53 55ZM53.9998 64.0193V189.674C53.3483 189.704 52.6804 189.734 51.9999 189.762V65H53C53.5458 65 53.9895 64.5627 53.9998 64.0193ZM50.9999 65V189.802C50.0182 189.839 49.0146 189.873 47.9998 189.902V83H49C49.5523 83 50 82.5523 50 82C50 81.4477 49.5523 81 49 81H47.9998V77V28H50.9999V60.9999V63H50C49.4477 63 49 63.4477 49 64C49 64.5523 49.4477 65 50 65H50.9999ZM46.9998 24V11.0831C46.3171 11.1379 45.6099 11.4669 44.6948 11.9316L44.5469 12.0069L44.5468 12.007L44.5465 12.0071L44.5464 12.0072C44.3725 12.0958 44.1901 12.1889 43.9999 12.2816V24H44.0001V26H46.0001V24H46.9998ZM42.9999 12.7175V24H42.0001V26H40.0001V24H39.9999V12.9607C40.3301 13.0468 40.6887 13.0991 41.079 13.0991C41.7587 13.0991 42.4045 12.9387 42.9999 12.7175ZM46.9998 77V81H46C45.4477 81 45 81.4477 45 82C45 82.5523 45.4477 83 46 83H46.9998V189.928C46.0039 189.953 45.0007 189.972 43.9999 189.984V91H45C45.5523 91 46 90.5523 46 90C46 89.4477 45.5523 89 45 89H43.9999V84.1562V28H46.9998V77ZM42.9999 91V189.994C42.4981 189.998 41.9978 190 41.5001 190C41.0023 190 40.5019 189.998 39.9999 189.994V99H41C41.5523 99 42 98.5523 42 98C42 97.4477 41.5523 97 41 97H39.9999V90.5V28H42.9999V84.1562V89H42C41.4477 89 41 89.4477 41 90C41 90.5523 41.4477 91 42 91H42.9999ZM38.9999 24V12.5732C38.6016 12.3693 38.2569 12.1364 37.9558 11.9329L37.8619 11.8695C37.1415 11.3844 36.6463 11.0861 35.9999 11.0753V24H36.0001V26H38.0001V24H38.9999ZM34.9999 11.3171V24H34.0001V26H33.0001V24H31.9999V13.7161C32.7498 13.3518 33.3051 12.8044 33.7499 12.366L33.8093 12.3074C34.2656 11.8583 34.6221 11.5235 34.9999 11.3171ZM38.9999 90.5V97H38C37.4477 97 37 97.4477 37 98C37 98.5523 37.4477 99 38 99H38.9999V189.984C37.9991 189.972 36.9958 189.953 35.9999 189.928V107H37C37.5523 107 38 106.552 38 106C38 105.448 37.5523 105 37 105H35.9999V97.5V28H38.9999V90.5ZM34.9999 107V189.901C33.9851 189.873 32.9816 189.839 31.9999 189.801V115H33C33.5523 115 34 114.552 34 114C34 113.448 33.5523 113 33 113H31.9999V104.928V28H34.9999V97.5V105H34C33.4477 105 33 105.448 33 106C33 106.552 33.4477 107 34 107H34.9999ZM30.9999 104.928V113H30C29.4477 113 29 113.448 29 114C29 114.552 29.4477 115 30 115H30.9999V121.983C30.9909 121.439 30.5467 121 30 121H28.9999V111.991V28H30.9999V104.928ZM30.9999 14.0467V26H30.0001V24H28.9999V13.9326C29.4454 14.0661 29.9449 14.1404 30.5111 14.1063C30.6809 14.0961 30.8437 14.0757 30.9999 14.0467ZM30.9999 122.017C30.9909 122.561 30.5467 123 30 123H28.9999V189.674C29.6514 189.704 30.3193 189.734 30.9999 189.762V122.017ZM27.9999 123V129.983C27.9909 129.439 27.5467 129 27 129H25.9998V119.203V28H27.9999V111.991V121H27C26.4477 121 26 121.448 26 122C26 122.552 26.4477 123 27 123H27.9999ZM27.9999 13.5089C27.7278 13.3617 27.48 13.2042 27.2515 13.0571L27.1746 13.0076C26.74 12.7275 26.3751 12.4924 25.9998 12.3285V24H27.0001V26H27.9999V13.5089ZM24.9998 137.98V131H24C23.4477 131 23 130.552 23 130C23 129.448 23.4477 129 24 129H24.9998V119.203V28H22.9999V127V137H24C24.5454 137 24.9889 137.437 24.9998 137.98ZM27 131H25.9998V189.521C26.6416 189.556 27.3099 189.591 27.9999 189.626V130.017C27.9909 130.561 27.5467 131 27 131ZM24.9998 12.0827V26H24.0001V25H22.9999V12.243C23.6981 12.117 24.4059 12.0426 24.9998 12.0827ZM21.9999 12.4567C21.6181 12.55 21.275 12.6465 21.0001 12.7288V26H21.9999V12.4567ZM63.6529 191.104L63.9201 191.085L63.0633 203.08C62.8011 203.102 62.4807 203.129 62.1069 203.159C60.9491 203.253 59.2784 203.377 57.23 203.502C53.132 203.751 47.5282 204 41.5001 204C35.472 204 29.8682 203.751 25.7703 203.502C23.7219 203.377 22.0511 203.253 20.8934 203.159C20.5195 203.129 20.1992 203.102 19.9369 203.08L19.0802 191.085C19.3565 191.105 19.6782 191.128 20.0412 191.154C21.3811 191.248 23.2829 191.373 25.5323 191.498C30.0287 191.749 35.9243 192 41.5001 192C47.076 192 52.9716 191.749 57.4679 191.498C59.7173 191.373 61.6191 191.248 62.9591 191.154C63.2106 191.136 63.4424 191.12 63.6529 191.104ZM6.91902 161.473L7.48543 161.418L7.86586 161.834L6.46014 165.335L6.37511 165.547L6.47941 165.75L7.05431 166.869L5.76271 172.816C5.54982 172.83 5.26066 172.844 4.94096 172.846C4.25944 172.85 3.52265 172.797 3.06679 172.622C2.61863 172.45 2.10838 172.03 1.68153 171.605C1.48765 171.413 1.32219 171.23 1.20141 171.091L4.1691 165.742L5.31996 165.23L5.50916 165.146L5.58338 164.952L6.91902 161.473ZM69.558 28.0859L69.9353 27.8991L70.3794 26.5838L70.4594 26.3469L70.6969 26.2688L71.9921 25.8427L73.8087 21.3521C73.6673 21.2346 73.4779 21.0838 73.262 20.9284C72.7727 20.5762 72.2213 20.2556 71.7975 20.1759C71.3693 20.0955 70.704 20.1903 70.0834 20.3357C69.8018 20.4017 69.5483 20.4734 69.3594 20.5307L69.3415 25.1063L69.7897 26.0114L69.8816 26.197L69.8154 26.3933L69.3712 27.7086L69.558 28.0859ZM40.0001 195C38.3433 195 37.0001 196.343 37.0001 198C37.0001 199.657 38.3433 201 40.0001 201H43.0001C44.657 201 46.0001 199.657 46.0001 198C46.0001 196.343 44.657 195 43.0001 195H40.0001Z" fill="black"/>
</svg>
