<svg width="192" height="224" viewBox="0 0 192 224" fill="none" xmlns="http://www.w3.org/2000/svg">
<path fill-rule="evenodd" clip-rule="evenodd" d="M86.2282 10.0069C90.4796 9.50552 95.9009 8.99998 100.5 9C105.099 9.00002 110.521 9.50556 114.772 10.0069C116.902 10.2581 118.747 10.5092 120.06 10.6977C120.716 10.7919 121.24 10.8705 121.6 10.9256C121.78 10.9531 121.919 10.9748 122.014 10.9897L122.121 11.0067L122.149 11.0111L122.156 11.0123L122.158 11.0126L122.159 11.0127C122.159 11.0127 122.159 11.0127 122 12L122.159 11.0127L123 11.1481V12V21V35.9857L123.201 43.0231C123.314 42.9595 123.429 42.8982 123.548 42.8395C125.994 41.6281 127.043 40.3188 127.495 39.3685C127.722 38.8899 127.805 38.4893 127.832 38.2177C127.846 38.0816 127.846 37.9773 127.843 37.9114L127.843 37.8949L127.383 36.9667L127.291 36.7811L127.357 36.5849L127.802 35.2696L127.393 34.4442L127.341 34.3384L127.341 34.2204L127.361 29.164L127.362 28.8113L127.695 28.6943L127.861 29.1659C127.695 28.6943 127.695 28.6942 127.695 28.6942L127.695 28.6942L127.696 28.694L127.697 28.6934L127.702 28.6916L127.721 28.6852C127.737 28.6797 127.76 28.672 127.789 28.6623C127.848 28.6429 127.932 28.6157 128.035 28.584C128.243 28.5206 128.531 28.4382 128.855 28.3621C129.478 28.216 130.327 28.0701 130.982 28.1931C131.641 28.317 132.348 28.7582 132.846 29.1168C133.106 29.3035 133.329 29.4829 133.487 29.6155C133.566 29.682 133.629 29.7372 133.674 29.7762L133.701 29.8006L133.725 29.822L133.739 29.8348L133.743 29.8385L133.744 29.8396L133.745 29.84L133.745 29.8401C133.745 29.8401 133.745 29.8401 133.717 29.8705L133.745 29.8402L134 30.0747L133.87 30.3956L131.832 35.4327L131.745 35.6476L131.525 35.7201L130.247 36.1406L129.816 37.4152L129.75 37.6115L129.565 37.7034L128.844 38.0602C128.842 38.1365 128.837 38.223 128.827 38.3187C128.789 38.6932 128.679 39.2063 128.398 39.7978C127.832 40.9876 126.6 42.4443 123.991 43.7356C123.721 43.8695 123.469 44.0193 123.234 44.183L127 175.971L127.007 176.227L126.891 176.455L126.891 176.455L126.891 176.455L126.89 176.456L126.885 176.466L126.863 176.51C126.853 176.53 126.842 176.554 126.828 176.583C126.812 176.614 126.794 176.651 126.774 176.694C126.697 176.857 126.584 177.1 126.448 177.412C126.176 178.036 125.812 178.934 125.448 180.019C124.716 182.199 124 185.084 124 188C124 191.003 124.244 192.943 124.488 194.51C124.53 194.776 124.572 195.036 124.613 195.291C124.815 196.525 125 197.663 125 199V199.036L124.998 199.071L123.998 213.071L123.937 213.914L123.096 213.995L123.095 213.995L123.094 213.996L123.087 213.996L123.064 213.998L122.973 214.007C122.892 214.014 122.774 214.025 122.618 214.039C122.308 214.067 121.852 214.106 121.268 214.153C120.098 214.247 118.414 214.373 116.351 214.498C112.226 214.749 106.58 215 100.5 215C94.4201 215 88.7739 214.749 84.6489 214.498C82.5858 214.373 80.9018 214.247 79.7327 214.153C79.1481 214.106 78.6922 214.067 78.3818 214.039C78.2266 214.025 78.1078 214.014 78.0275 214.007L77.9363 213.998L77.9128 213.996L77.9067 213.996L77.905 213.995L77.9046 213.995L77.0629 213.914L77.0027 213.071L76.0027 199.071L76.0001 199.036V199C76.0001 197.663 76.1856 196.525 76.3868 195.291L76.3869 195.29L76.387 195.289C76.4285 195.035 76.4707 194.776 76.512 194.51C76.7561 192.943 77.0001 191.003 77.0001 188C77.0001 185.084 76.2841 182.199 75.5521 180.019C75.1879 178.934 74.8239 178.036 74.552 177.412C74.4162 177.1 74.3036 176.857 74.226 176.694C74.1872 176.612 74.1571 176.551 74.1373 176.51L74.1153 176.466L74.1104 176.456L74.1097 176.455L74.1096 176.455L74.1095 176.455L73.9932 176.227L74.0005 175.971L74.4425 160.503C71.5701 161.161 69.7803 163.337 68.6824 165.493C68.0968 166.643 67.7199 167.767 67.4896 168.605C67.3746 169.023 67.2967 169.368 67.2478 169.607C67.2377 169.656 67.2289 169.701 67.2212 169.741L67.816 170.391L68.0281 170.623L67.911 170.915L66.4732 174.496L67.0257 175.572L67.1076 175.731L67.0696 175.906L65.6612 182.391L65.5844 182.744L65.2246 182.782L65.2113 182.655C65.2245 182.782 65.2245 182.782 65.2244 182.782L65.2243 182.782L65.2237 182.782L65.222 182.782L65.2164 182.783L65.1958 182.785C65.1782 182.786 65.1528 182.789 65.1203 182.792C65.0554 182.797 64.9624 182.805 64.8477 182.813C64.6187 182.828 64.3011 182.844 63.9469 182.846C63.2619 182.85 62.3562 182.805 61.7084 182.556C61.053 182.304 60.4184 181.754 59.9763 181.314C59.748 181.087 59.5565 180.875 59.4219 180.719C59.3545 180.641 59.301 180.576 59.2639 180.531C59.2454 180.508 59.2309 180.49 59.2208 180.478L59.209 180.463L59.2056 180.459L59.2046 180.457L59.2043 180.457L59.2041 180.457C59.2041 180.456 59.204 180.456 59.5979 180.148L59.204 180.456L59 180.196L59.1607 179.906L62.3758 174.111L62.4569 173.965L62.6096 173.897L63.724 173.401L65.0962 169.826L65.2069 169.538L65.5145 169.508L66.2623 169.435L66.2681 169.406C66.3209 169.149 66.4038 168.782 66.5253 168.34C66.768 167.457 67.1667 166.266 67.7913 165.039C68.9829 162.699 71.0408 160.152 74.4719 159.475L78.0001 35.9857V21V12V11.1481L78.8411 11.0127L79.0001 12C78.8411 11.0127 78.8412 11.0127 78.8414 11.0127L78.8419 11.0126L78.8438 11.0123L78.8511 11.0111L78.8788 11.0067L78.9865 10.9897C79.081 10.9748 79.2202 10.9531 79.4003 10.9256C79.7604 10.8705 80.2841 10.7919 80.9406 10.6976C82.2533 10.5092 84.0981 10.258 86.2282 10.0069ZM121.248 44.6795L121.028 37H120V46.8322C120.304 46.0796 120.709 45.3427 121.248 44.6795ZM120.118 52C120.112 51.2871 120.153 50.3501 120.329 49.3496C120.502 48.3645 120.8 47.3409 121.297 46.411L121.46 52.1119C121.322 52.0404 121.166 52 121 52H120.118ZM76.0068 175.782L76.4563 160.047C78.8705 159.178 80.2334 157.088 80.9999 154.948V198.282C80.3157 198.237 79.7051 198.195 79.1812 198.159C78.7321 198.127 78.3467 198.099 78.0332 198.076C78.089 197.29 78.2102 196.544 78.354 195.657L78.354 195.657C78.3971 195.392 78.4422 195.114 78.4882 194.818C78.7441 193.175 79.0001 191.129 79.0001 188C79.0001 184.784 78.2161 181.669 77.4481 179.382C77.0623 178.233 76.6764 177.281 76.3857 176.613C76.2403 176.279 76.1185 176.016 76.032 175.835L76.0068 175.782ZM82.0107 148.467C82.0119 148.671 82.0098 148.932 81.9999 149.239V198.345L82 198.345V197L82.9351 198.403C83.2789 198.423 83.6341 198.444 83.9998 198.465V147.021C83.9888 147.563 83.5454 148 83 148H82.0006L82.001 148.01C82.002 148.033 82.0032 148.065 82.0045 148.107C82.007 148.191 82.0098 148.313 82.0107 148.467ZM80.9792 149.689C80.9884 149.523 80.995 149.367 80.9999 149.222V148H80C79.4477 148 79 147.552 79 147C79 146.448 79.4477 146 80 146H80.9999V136V37H79.972L76.4875 158.954C78.6718 157.979 79.8192 155.74 80.4174 153.441C80.7768 152.06 80.9233 150.704 80.9792 149.689ZM80.0001 12.8574V19.6492C80.1701 19.6032 80.3517 19.5561 80.5423 19.5097C81.5855 19.2555 82.9985 18.9948 84.2175 19.0933C85.5218 19.1987 86.4663 19.8122 87.182 20.2769C87.2338 20.3106 87.2845 20.3435 87.334 20.3754C88.0961 20.866 88.6311 21.1557 89.3908 21.1099C90.1604 21.0635 90.6442 20.632 91.4065 19.8818L91.466 19.8232C92.1645 19.1347 93.1354 18.1775 94.7048 18.0829C96.1731 17.9944 97.1983 18.6848 97.9605 19.1981L97.979 19.2105C98.7849 19.7532 99.3172 20.0991 100.079 20.0991C100.903 20.0991 101.703 19.6999 102.789 19.1484L102.819 19.1334C103.799 18.6357 105.054 17.998 106.462 18.0829C108.031 18.1775 109.002 19.1347 109.701 19.8232L109.76 19.8818C110.523 20.632 111.007 21.0635 111.776 21.1099C112.536 21.1557 113.071 20.866 113.833 20.3754C113.882 20.3437 113.932 20.311 113.984 20.2775L113.985 20.2769C114.701 19.8122 115.645 19.1987 116.949 19.0933C118.171 18.9946 119.544 19.2562 120.551 19.512C120.708 19.5518 120.858 19.5922 121 19.6319V12.8574C120.675 12.8083 120.262 12.7472 119.775 12.6774C118.476 12.4908 116.648 12.242 114.538 11.9931C110.309 11.4945 104.98 11 100.5 11C96.0198 11 90.691 11.4944 86.4624 11.9931C84.3524 12.2419 82.5246 12.4908 81.2248 12.6773C80.738 12.7472 80.3255 12.8083 80.0001 12.8574ZM121 21.7176C120.74 21.6362 120.418 21.5418 120.058 21.4505L120 21.4357V35H121V21.7176ZM119 35V21.2207C118.345 21.1048 117.68 21.0408 117.111 21.0868C117.073 21.0899 117.036 21.0936 117 21.0979V35H119ZM119 54V57.9863C118.993 57.4403 118.548 57 118 57H117V37H118L119 37.9999V52H118C117.448 52 117 52.4477 117 53C117 53.5523 117.448 54 118 54H119ZM120 54V198.282C120.684 198.237 121.295 198.195 121.819 198.159C122.268 198.127 122.654 198.099 122.967 198.076C122.911 197.29 122.79 196.544 122.646 195.657C122.603 195.392 122.558 195.114 122.512 194.818C122.256 193.175 122 191.129 122 188C122 184.784 122.784 181.669 123.552 179.382C123.938 178.233 124.324 177.281 124.615 176.613C124.76 176.279 124.882 176.016 124.968 175.835L124.993 175.782L121.51 53.8604C121.361 53.9491 121.186 54 121 54H120ZM118 59C118.548 59 118.993 58.5597 119 58.0137V197L118.065 198.403C117.721 198.423 117.366 198.444 117 198.465V59H118ZM116 64.977V59H115C114.448 59 114 58.5523 114 58C114 57.4477 114.448 57 115 57H116V38.9995L115 37H114V64H115C115.545 64 115.988 64.4353 116 64.977ZM114.992 22.0075C115.362 21.7692 115.682 21.5635 116 21.4065V32H115V35H114V22.5964C114.339 22.4254 114.641 22.2338 114.915 22.0571L114.992 22.0076L114.992 22.0075L114.992 22.0075ZM114 66V198.626C114.414 198.605 114.821 198.584 115.218 198.563L116 197V65.023C115.988 65.5647 115.545 66 115 66H114ZM113 64H112C111.448 64 111 64.4477 111 65C111 65.5523 111.448 66 112 66H113V72.9807C112.99 72.4373 112.546 72 112 72H111V69.9999V37H112L113 38.9997V64ZM113 32V22.9792C112.597 23.0827 112.152 23.1362 111.656 23.1063C111.425 23.0924 111.206 23.0597 111 23.0119V35H112V32H113ZM113 197V73.0193C112.99 73.5627 112.546 74 112 74H111V198.762C111.385 198.746 111.767 198.73 112.144 198.713L113 197ZM110 197V74H109C108.448 74 108 73.5523 108 73C108 72.4477 108.448 72 109 72H110V69.9999V38.9998L109 37H107V86V90H108C108.552 90 109 90.4477 109 91C109 91.5523 108.552 92 108 92H107V198.902C107.7 198.882 108.396 198.859 109.082 198.835L110 197ZM108.417 21.366C108.828 21.7712 109.334 22.2695 110 22.6302V32H109V35H107V20.2348C107.443 20.4281 107.835 20.7927 108.358 21.3074L108.417 21.366ZM106 90V86V38.9995L105 37H103V93.1562V98H104C104.552 98 105 98.4477 105 99C105 99.5523 104.552 100 104 100H103V198.984C103.675 198.976 104.351 198.964 105.025 198.95L106 197V92H105C104.448 92 104 91.5523 104 91C104 90.4477 104.448 90 105 90H106ZM106 31V20.0831C105.317 20.1379 104.61 20.4669 103.695 20.9316L103.547 21.0069C103.373 21.0957 103.19 21.1888 103 21.2816V35H105V31H106ZM102 197V100H101C100.448 100 100 99.5523 100 99C100 98.4477 100.448 98 101 98H102V93.1562V38.9997L101 37H100L99 39V37H98.9999V99.5V106H100C100.552 106 101 106.448 101 107C101 107.552 100.552 108 100 108H98.9999V198.994L99 197L99.9997 198.999C100.167 199 100.334 199 100.5 199C100.667 199 100.833 199 101 198.999L102 197ZM100.079 22.0991C100.759 22.0991 101.405 21.9387 102 21.7175V31H101V35H100V32H99V35H98.9999V21.9607C99.3301 22.0468 99.6887 22.0991 100.079 22.0991ZM97.9999 106V99.5V37H96L95 39V37H94.9999V106.5V114H96C96.5523 114 97 114.448 97 115C97 115.552 96.5523 116 96 116H94.9999V198.928H95V197L95.9751 198.95C96.6491 198.964 97.3251 198.976 97.9999 198.984V108H97C96.4477 108 96 107.552 96 107C96 106.448 96.4477 106 97 106H97.9999ZM97.9999 35V21.5732C97.6016 21.3693 97.2569 21.1364 96.9558 20.9329L96.8619 20.8695C96.1415 20.3844 95.6463 20.0861 94.9999 20.0753V35H95V31H96V35H97.9999ZM93.9999 198.901V116H93C92.4477 116 92 115.552 92 115C92 114.448 92.4477 114 93 114H93.9999V106.5V37H92L91 39V37H90.9999V113.928V122H92C92.5523 122 93 122.448 93 123C93 123.552 92.5523 124 92 124H90.9999V198.801H91V197L91.9176 198.835C92.604 198.859 93.2993 198.882 93.9999 198.901ZM92.8093 21.3074C93.2656 20.8583 93.6221 20.5235 93.9999 20.3171V35H92V32H91V35H90.9999V22.7161C91.7498 22.3518 92.3051 21.8044 92.7499 21.366L92.8093 21.3074ZM89.9999 122V113.928V37H89L88 39V37H87.9999V120.991V130H89C89.5467 130 89.9909 130.439 89.9999 130.983V124H89C88.4477 124 88 123.552 88 123C88 122.448 88.4477 122 89 122H89.9999ZM89.9999 35V23.0467C89.8437 23.0757 89.6809 23.0961 89.5111 23.1063C88.9449 23.1404 88.4454 23.0661 87.9999 22.9326V35H88V32H89V35H89.9999ZM89 132C89.5467 132 89.9909 131.561 89.9999 131.017V198.762C89.6145 198.746 89.2331 198.73 88.8565 198.713L88 197V198.674H87.9999V132H89ZM86.9999 138.983V132H86C85.4477 132 85 131.552 85 131C85 130.448 85.4477 130 86 130H86.9999V120.991V37H86L85 39V37H84.9998V128.203V138H86C86.5467 138 86.9909 138.439 86.9999 138.983ZM86.2515 22.0571C86.48 22.2042 86.7278 22.3617 86.9999 22.5089V35H86V32H85V35H84.9998V21.3285C85.3751 21.4924 85.74 21.7275 86.1746 22.0076L86.1746 22.0076L86.2515 22.0571ZM83.9998 140V146.979C83.9888 146.437 83.5454 146 83 146H81.9999V136V37H82V38L83 37H83.9998V128.203V138H83C82.4477 138 82 138.448 82 139C82 139.552 82.4477 140 83 140H83.9998ZM84.9998 140H86C86.5467 140 86.9909 139.561 86.9999 139.017V198.626C86.5856 198.605 86.1792 198.584 85.7816 198.563L85 197V198.521L84.9998 198.521V140ZM83.9998 35V21.0827C83.4059 21.0426 82.6981 21.117 81.9999 21.243V35H82V32H83V35H83.9998ZM80.0001 21.7288C80.275 21.6465 80.6181 21.55 80.9999 21.4567V35H80.0001V21.7288ZM122.92 200.085L122.653 200.104C122.442 200.12 122.211 200.136 121.959 200.154C120.619 200.248 118.717 200.373 116.468 200.498C111.972 200.749 106.076 201 100.5 201C94.9243 201 89.0287 200.749 84.5323 200.498C82.2829 200.373 80.3811 200.248 79.0412 200.154C78.6782 200.128 78.3565 200.105 78.0802 200.085L78.9369 212.08C79.1992 212.102 79.5195 212.129 79.8934 212.159C81.0511 212.253 82.7219 212.377 84.7703 212.502C88.8682 212.751 94.472 213 100.5 213C106.528 213 112.132 212.751 116.23 212.502C118.278 212.377 119.949 212.253 121.107 212.159C121.481 212.129 121.801 212.102 122.063 212.08L122.92 200.085ZM66.4854 170.418L65.919 170.473L64.5834 173.952L64.5092 174.146L64.32 174.23L63.1691 174.742L60.2014 180.091C60.3222 180.23 60.4876 180.413 60.6815 180.605C61.1084 181.03 61.6186 181.45 62.0668 181.622C62.5226 181.797 63.2594 181.85 63.941 181.846C64.2607 181.844 64.5498 181.83 64.7627 181.816L66.0543 175.869L65.4794 174.75L65.3751 174.547L65.4601 174.335L66.8659 170.834L66.4854 170.418ZM128.935 36.8991L128.558 37.0859L128.371 36.7086L128.815 35.3933L128.882 35.197L128.79 35.0114L128.342 34.1063L128.359 29.5307C128.548 29.4734 128.802 29.4017 129.083 29.3357C129.704 29.1903 130.369 29.0955 130.797 29.1759C131.221 29.2556 131.773 29.5762 132.262 29.9284C132.478 30.0838 132.667 30.2346 132.809 30.3521L130.992 34.8427L129.697 35.2688L129.459 35.3469L129.379 35.5838L128.935 36.8991ZM96.0001 207C96.0001 205.343 97.3433 204 99.0001 204H102C103.657 204 105 205.343 105 207C105 208.657 103.657 210 102 210H99.0001C97.3433 210 96.0001 208.657 96.0001 207Z" fill="black"/>
</svg>
