<svg width="224" height="224" viewBox="0 0 224 224" fill="none" xmlns="http://www.w3.org/2000/svg">
<path fill-rule="evenodd" clip-rule="evenodd" d="M116.5 9C111.901 8.99998 106.48 9.50552 102.228 10.0069C100.098 10.258 98.2533 10.5092 96.9406 10.6976C96.2841 10.7919 95.7604 10.8705 95.4003 10.9256C95.2202 10.9531 95.081 10.9748 94.9865 10.9897L94.8788 11.0067L94.8511 11.0111L94.8438 11.0123L94.8419 11.0126L94.8414 11.0127C94.8412 11.0127 94.8411 11.0127 95.0001 12L94.8411 11.0127L94.0001 11.1481V12V21V35.9857L90.4719 159.475C87.0408 160.151 84.9829 162.699 83.7913 165.039C83.1667 166.266 82.768 167.457 82.5253 168.34C82.4038 168.782 82.3209 169.149 82.2681 169.406L82.2623 169.435L81.5145 169.508L81.2069 169.538L81.0962 169.826L79.724 173.401L78.6096 173.897L78.4569 173.965L78.3758 174.111L75.1607 179.906L75 180.195L75.204 180.456L75.5979 180.148C75.204 180.456 75.2041 180.456 75.2041 180.457L75.2043 180.457L75.2046 180.457L75.2056 180.459L75.209 180.463L75.2208 180.478C75.2309 180.49 75.2454 180.508 75.2639 180.531C75.301 180.576 75.3545 180.641 75.4219 180.719C75.5565 180.875 75.748 181.087 75.9763 181.314C76.4184 181.754 77.053 182.304 77.7084 182.556C78.3562 182.805 79.2619 182.85 79.9469 182.846C80.3011 182.844 80.6187 182.828 80.8477 182.813C80.9624 182.805 81.0554 182.797 81.1203 182.792L81.1557 182.788L81.1958 182.785L81.2164 182.783L81.222 182.782L81.2237 182.782L81.2243 182.782L81.2133 182.674L81.2246 182.782L81.5844 182.744L81.6612 182.391L83.0696 175.906L83.1076 175.731L83.0257 175.572L82.4732 174.496L83.911 170.915L84.0281 170.623L83.816 170.391L83.2212 169.741C83.2289 169.701 83.2377 169.656 83.2478 169.607C83.2967 169.368 83.3746 169.023 83.4896 168.605C83.7199 167.767 84.0968 166.643 84.6824 165.493C85.7803 163.337 87.5701 161.161 90.4425 160.503L90.0005 175.971L89.9932 176.227L90.1095 176.455L90.1096 176.455L90.1097 176.455L90.1104 176.456L90.1153 176.466L90.1372 176.51C90.1571 176.551 90.1872 176.612 90.226 176.694C90.3036 176.857 90.4162 177.1 90.552 177.412C90.8239 178.036 91.1879 178.934 91.5521 180.019C92.2841 182.199 93.0001 185.084 93.0001 188C93.0001 191.003 92.7561 192.943 92.512 194.51C92.4707 194.776 92.4285 195.035 92.387 195.289L92.3869 195.29L92.3868 195.291C92.1856 196.525 92.0001 197.663 92.0001 199V199.036L92.0027 199.071L93.0027 213.071L93.0629 213.914L93.9046 213.995L93.905 213.995L93.9067 213.996L93.9128 213.996L93.9363 213.998L94.0275 214.007C94.1078 214.014 94.2266 214.025 94.3818 214.039C94.6922 214.067 95.1481 214.106 95.7327 214.153C96.9018 214.247 98.5858 214.373 100.649 214.498C104.774 214.749 110.42 215 116.5 215C122.58 215 128.226 214.749 132.351 214.498C134.414 214.373 136.098 214.247 137.268 214.153C137.852 214.106 138.308 214.067 138.618 214.039C138.774 214.025 138.892 214.014 138.973 214.007L139.064 213.998L139.087 213.996L139.094 213.996L139.095 213.995L139.096 213.995L139.937 213.914L139.998 213.071L140.998 199.071L141 199.036V199C141 197.663 140.815 196.525 140.614 195.291L140.613 195.291C140.572 195.036 140.53 194.776 140.488 194.51C140.244 192.943 140 191.003 140 188C140 185.084 140.716 182.199 141.448 180.019C141.812 178.934 142.176 178.036 142.448 177.412C142.584 177.1 142.697 176.857 142.774 176.694C142.801 176.638 142.824 176.591 142.841 176.554L142.863 176.51L142.885 176.466L142.89 176.456L142.891 176.455L142.891 176.455L142.891 176.455L143.007 176.227L143 175.971L139.234 44.183C139.469 44.0193 139.721 43.8695 139.991 43.7356C142.6 42.4443 143.832 40.9876 144.398 39.7978C144.679 39.2063 144.789 38.6932 144.827 38.3187C144.837 38.223 144.842 38.1365 144.844 38.0602L145.565 37.7034L145.75 37.6115L145.816 37.4152L146.247 36.1406L147.525 35.7201L147.745 35.6476L147.832 35.4327L149.87 30.3956L150 30.0747L149.745 29.8402L149.717 29.8705C149.745 29.8401 149.745 29.8401 149.745 29.8401L149.745 29.84L149.744 29.8396L149.743 29.8385L149.739 29.8348L149.725 29.822L149.701 29.8006L149.674 29.7762C149.629 29.7372 149.566 29.682 149.487 29.6155C149.329 29.4829 149.106 29.3035 148.846 29.1168C148.348 28.7582 147.641 28.317 146.982 28.1931C146.327 28.0701 145.478 28.216 144.855 28.3621C144.531 28.4382 144.243 28.5206 144.035 28.584C143.932 28.6157 143.848 28.6429 143.789 28.6623C143.76 28.672 143.737 28.6797 143.721 28.6852L143.702 28.6916L143.697 28.6934L143.696 28.694L143.695 28.6942L143.695 28.6942C143.695 28.6942 143.695 28.6943 143.861 29.1659L143.695 28.6943L143.362 28.8113L143.361 29.164L143.341 34.2204L143.341 34.3384L143.393 34.4442L143.802 35.2696L143.357 36.5849L143.291 36.7811L143.383 36.9667L143.843 37.8949L143.843 37.9114C143.846 37.9773 143.846 38.0816 143.832 38.2177C143.805 38.4893 143.722 38.8899 143.495 39.3685C143.043 40.3188 141.994 41.6281 139.548 42.8395C139.429 42.8982 139.314 42.9595 139.201 43.0231L139 35.9857V21V12V11.1481L138.159 11.0127L138 12C138.159 11.0127 138.159 11.0127 138.159 11.0127L138.158 11.0126L138.156 11.0123L138.149 11.0111L138.121 11.0067L138.014 10.9897C137.919 10.9748 137.78 10.9531 137.6 10.9256C137.24 10.8705 136.716 10.7919 136.06 10.6977C134.747 10.5092 132.902 10.2581 130.772 10.0069C126.521 9.50556 121.099 9.00002 116.5 9ZM137.028 37L137.248 44.6795C136.709 45.3427 136.304 46.0796 136 46.8322V37H137.028ZM136.329 49.3496C136.153 50.3501 136.112 51.2871 136.118 52H137C137.166 52 137.322 52.0404 137.46 52.1119L137.297 46.411C136.8 47.3409 136.502 48.3645 136.329 49.3496ZM92.4563 160.047L92.0068 175.782L92.032 175.835C92.1185 176.016 92.2403 176.279 92.3857 176.613C92.6764 177.281 93.0623 178.233 93.4481 179.382C94.2161 181.669 95.0001 184.784 95.0001 188C95.0001 191.129 94.7441 193.175 94.4882 194.818C94.4422 195.114 94.3971 195.392 94.354 195.657L94.354 195.657C94.2101 196.544 94.089 197.29 94.0332 198.076C94.3467 198.099 94.7321 198.127 95.1812 198.159C95.7051 198.195 96.3157 198.237 96.9999 198.282V154.948C96.2334 157.088 94.8705 159.178 92.4563 160.047ZM97.9999 149.239C98.0098 148.932 98.0119 148.671 98.0107 148.467C98.0098 148.313 98.007 148.191 98.0045 148.107C98.0032 148.065 98.002 148.033 98.001 148.01L98.0006 148H99C99.5455 148 99.9889 147.563 99.9998 147.02V198.465C99.2915 198.425 98.6224 198.384 97.9999 198.345V149.239ZM96.9999 149.222C96.995 149.367 96.9884 149.523 96.9792 149.689C96.9233 150.704 96.7768 152.06 96.4174 153.441C95.8192 155.74 94.6718 157.979 92.4875 158.954L95.972 37H96.9999V136V146H96C95.4477 146 95 146.448 95 147C95 147.552 95.4477 148 96 148H96.9999V149.222ZM96.0001 19.6492V12.8574C96.3255 12.8083 96.738 12.7472 97.2248 12.6773C98.5246 12.4908 100.352 12.2419 102.462 11.9931C106.691 11.4944 112.02 11 116.5 11C120.98 11 126.309 11.4945 130.538 11.9931C132.648 12.242 134.476 12.4908 135.775 12.6774C136.262 12.7472 136.675 12.8083 137 12.8574V19.6319C136.858 19.5922 136.708 19.5518 136.551 19.512C135.544 19.2562 134.171 18.9946 132.949 19.0933C131.645 19.1987 130.701 19.8122 129.985 20.2769C129.933 20.3106 129.882 20.3435 129.833 20.3754C129.071 20.866 128.536 21.1557 127.776 21.1099C127.007 21.0635 126.523 20.632 125.76 19.8818L125.701 19.8232C125.002 19.1347 124.031 18.1775 122.462 18.0829C121.054 17.998 119.798 18.6357 118.819 19.1334L118.789 19.1484C117.703 19.6999 116.903 20.0991 116.079 20.0991C115.317 20.0991 114.785 19.7532 113.979 19.2105L113.961 19.1981C113.198 18.6848 112.173 17.9944 110.705 18.0829C109.135 18.1775 108.164 19.1347 107.466 19.8232L107.407 19.8818C106.644 20.632 106.16 21.0635 105.391 21.1099C104.631 21.1557 104.096 20.866 103.334 20.3754C103.285 20.3436 103.234 20.3107 103.182 20.2771L103.182 20.2769C102.466 19.8122 101.522 19.1987 100.217 19.0933C98.9985 18.9948 97.5855 19.2555 96.5423 19.5097C96.3517 19.5561 96.1701 19.6032 96.0001 19.6492ZM136.058 21.4505C136.418 21.5418 136.74 21.6362 137 21.7176V35H136V34H136V21.4357L136.058 21.4505ZM135 34V21.2207C134.345 21.1048 133.68 21.0408 133.111 21.0868C133.073 21.0899 133.036 21.0936 133 21.0979V33H133V35H134V34H135ZM132 21.4065V33H131V35H130V33H130V22.5964C130.339 22.4254 130.641 22.2338 130.915 22.0571L130.992 22.0076L130.992 22.0075L130.992 22.0075L130.992 22.0075C131.362 21.7692 131.682 21.5635 132 21.4065ZM135 57.9866V54H134C133.448 54 133 53.5523 133 53C133 52.4477 133.448 52 134 52H135V37H133V57H134C134.548 57 134.993 57.4405 135 57.9866ZM136 198.282V54H137C137.186 54 137.361 53.9491 137.51 53.8604L140.993 175.782L140.968 175.835C140.882 176.016 140.76 176.279 140.615 176.613C140.324 177.281 139.938 178.233 139.552 179.382C138.784 181.669 138 184.784 138 188C138 191.129 138.256 193.175 138.512 194.818C138.558 195.114 138.603 195.392 138.646 195.657C138.79 196.544 138.911 197.29 138.967 198.076C138.654 198.099 138.268 198.127 137.819 198.159C137.295 198.195 136.684 198.237 136 198.282ZM135 58.0134C134.993 58.5595 134.548 59 134 59H133V198.465C133.708 198.425 134.377 198.384 135 198.345V58.0134ZM132 59V64.9772C131.988 64.4354 131.545 64 131 64H130V37H132V57H131C130.448 57 130 57.4477 130 58C130 58.5523 130.448 59 131 59H132ZM129 33V22.9792C128.597 23.0827 128.152 23.1362 127.656 23.1063C127.425 23.0924 127.206 23.0597 127 23.0119V33H127V35H128V33H129ZM126 22.6302V33H125V35H123V33H123V20.2348C123.443 20.4281 123.835 20.7927 124.358 21.3074L124.417 21.366C124.828 21.7712 125.334 22.2695 126 22.6302ZM130 198.626V66H131C131.545 66 131.988 65.5646 132 65.0228V198.521C131.358 198.556 130.69 198.591 130 198.626ZM128 64H129V37H127V69.9999V72H128C128.546 72 128.99 72.4374 129 72.9809V66H128C127.448 66 127 65.5523 127 65C127 64.4477 127.448 64 128 64ZM129 73.0191V198.674C128.348 198.704 127.68 198.734 127 198.762V74H128C128.546 74 128.99 73.5626 129 73.0191ZM126 74V198.802C125.018 198.839 124.015 198.873 123 198.902V92H124C124.552 92 125 91.5523 125 91C125 90.4477 124.552 90 124 90H123V86V37H126V69.9999V72H125C124.448 72 124 72.4477 124 73C124 73.5523 124.448 74 125 74H126ZM122 33V20.0831C121.317 20.1379 120.61 20.4669 119.695 20.9316L119.547 21.0069C119.373 21.0957 119.19 21.1888 119 21.2816V33H119V35H121V33H122ZM118 21.7175V33H117V35H115V33H115V21.9607C115.33 22.0468 115.689 22.0991 116.079 22.0991C116.759 22.0991 117.405 21.9387 118 21.7175ZM122 86V90H121C120.448 90 120 90.4477 120 91C120 91.5523 120.448 92 121 92H122V198.928C121.004 198.953 120.001 198.972 119 198.984V100H120C120.552 100 121 99.5523 121 99C121 98.4477 120.552 98 120 98H119V93.1562V37H122V86ZM118 100V198.994C117.498 198.998 116.998 199 116.5 199C116.002 199 115.502 198.998 115 198.994V108H116C116.552 108 117 107.552 117 107C117 106.448 116.552 106 116 106H115V99.5V37H118V93.1562V98H117C116.448 98 116 98.4477 116 99C116 99.5523 116.448 100 117 100H118ZM114 33V21.5732C113.602 21.3693 113.257 21.1364 112.956 20.9329L112.862 20.8695C112.141 20.3844 111.646 20.0861 111 20.0753V33H111V35H113V33H114ZM110 20.3171V33H109V35H108V33H107V22.7161C107.75 22.3518 108.305 21.8044 108.75 21.366L108.809 21.3074C109.266 20.8583 109.622 20.5235 110 20.3171ZM114 99.5V106H113C112.448 106 112 106.448 112 107C112 107.552 112.448 108 113 108H114V198.984C112.999 198.972 111.996 198.953 111 198.928V116H112C112.552 116 113 115.552 113 115C113 114.448 112.552 114 112 114H111V106.5V37H114V99.5ZM110 116V198.901C108.985 198.873 107.982 198.839 107 198.801V124H108C108.552 124 109 123.552 109 123C109 122.448 108.552 122 108 122H107V113.928V37H110V106.5V114H109C108.448 114 108 114.448 108 115C108 115.552 108.448 116 109 116H110ZM106 113.928V122H105C104.448 122 104 122.448 104 123C104 123.552 104.448 124 105 124H106V130.983C105.991 130.439 105.547 130 105 130H104V120.991V37H106V113.928ZM106 23.0467V35H105V33H104V22.9326C104.445 23.0661 104.945 23.1404 105.511 23.1063C105.681 23.0961 105.844 23.0757 106 23.0467ZM106 131.017C105.991 131.561 105.547 132 105 132H104V198.674C104.651 198.704 105.319 198.734 106 198.762V131.017ZM103 132V138.983C102.991 138.439 102.547 138 102 138H101V128.203V37H103V120.991V130H102C101.448 130 101 130.448 101 131C101 131.552 101.448 132 102 132H103ZM103 22.5089C102.728 22.3617 102.48 22.2042 102.251 22.0571L102.175 22.0076L102.175 22.0076L102.175 22.0076C101.74 21.7275 101.375 21.4924 101 21.3285V33H102V35H103V22.5089ZM99.9998 146.98V140H99C98.4477 140 98 139.552 98 139C98 138.448 98.4477 138 99 138H99.9998V128.203V37H97.9999V136V146H99C99.5455 146 99.9889 146.437 99.9998 146.98ZM102 140H101V198.521C101.642 198.556 102.31 198.591 103 198.626V139.017C102.991 139.561 102.547 140 102 140ZM99.9998 21.0827V35H99.0001V34H97.9999V21.243C98.6981 21.117 99.4059 21.0426 99.9998 21.0827ZM96.9999 21.4567C96.6181 21.55 96.275 21.6465 96.0001 21.7288V35H96.9999V21.4567ZM137.959 200.154C138.112 200.143 138.258 200.133 138.396 200.123C138.586 200.109 138.76 200.097 138.92 200.085L138.063 212.08C137.801 212.102 137.481 212.129 137.107 212.159C135.949 212.253 134.278 212.377 132.23 212.502C128.132 212.751 122.528 213 116.5 213C110.472 213 104.868 212.751 100.77 212.502C98.7219 212.377 97.0511 212.253 95.8934 212.159C95.5195 212.129 95.1992 212.102 94.9369 212.08L94.0802 200.085C94.3565 200.105 94.6782 200.128 95.0412 200.154C96.3811 200.248 98.2829 200.373 100.532 200.498C105.029 200.749 110.924 201 116.5 201C122.076 201 127.972 200.749 132.468 200.498C134.717 200.373 136.619 200.248 137.959 200.154ZM81.919 170.473L82.4854 170.418L82.8659 170.834L81.4601 174.335L81.3751 174.547L81.4794 174.75L82.0543 175.869L80.7627 181.816C80.5498 181.83 80.2607 181.844 79.941 181.846C79.2594 181.85 78.5226 181.797 78.0668 181.622C77.6186 181.45 77.1084 181.03 76.6815 180.605C76.4876 180.413 76.3222 180.23 76.2014 180.091L79.1691 174.742L80.32 174.23L80.5092 174.146L80.5834 173.952L81.919 170.473ZM144.558 37.0859L144.935 36.8991L145.379 35.5838L145.459 35.3469L145.697 35.2688L146.992 34.8427L148.809 30.3521C148.667 30.2346 148.478 30.0838 148.262 29.9284C147.773 29.5762 147.221 29.2556 146.797 29.1759C146.369 29.0955 145.704 29.1903 145.083 29.3357C144.802 29.4017 144.548 29.4734 144.359 29.5307L144.342 34.1063L144.79 35.0114L144.882 35.197L144.815 35.3933L144.371 36.7086L144.558 37.0859ZM115 204C113.343 204 112 205.343 112 207C112 208.657 113.343 210 115 210H118C119.657 210 121 208.657 121 207C121 205.343 119.657 204 118 204H115Z" fill="black"/>
</svg>
