<svg width="84" height="206" viewBox="0 0 84 206" fill="none" xmlns="http://www.w3.org/2000/svg">
<g clip-path="url(#clip0)">
<path fill-rule="evenodd" clip-rule="evenodd" d="M46.5001 6.30966e-10C41.9008 -2.06226e-05 36.4796 0.505517 32.2282 1.00687C30.0981 1.25805 28.2533 1.50921 26.9406 1.69764C26.2841 1.79187 25.7604 1.87046 25.4003 1.92557C25.2202 1.95313 25.081 1.97482 24.9865 1.98967L24.8788 2.00669L24.8511 2.01113L24.8438 2.01228L24.8419 2.01259L24.8414 2.01268C24.8412 2.0127 24.8411 2.01272 25.0001 3L24.8411 2.01272L24.0001 2.14815V3V12V26.9857L20.4719 150.475C17.0408 151.151 14.9829 153.699 13.7913 156.039C13.1667 157.266 12.768 158.457 12.5253 159.34C12.4038 159.782 12.3209 160.149 12.2681 160.406L12.2623 160.435L11.5145 160.508L11.2069 160.538L11.0962 160.826L9.72402 164.401L8.60963 164.897L8.4569 164.965L8.37578 165.111L5.16069 170.906L5 171.195L5.20401 171.456L5.5979 171.148C5.20401 171.456 5.20406 171.456 5.20412 171.457L5.20425 171.457L5.20461 171.457L5.20564 171.459L5.20901 171.463L5.22081 171.478C5.23089 171.49 5.24536 171.508 5.26392 171.531C5.30101 171.576 5.35451 171.641 5.42193 171.719C5.55647 171.875 5.74796 172.087 5.97627 172.314C6.41837 172.754 7.05298 173.304 7.70842 173.556C8.35618 173.805 9.26187 173.85 9.94694 173.846C10.3011 173.844 10.6187 173.828 10.8477 173.813C10.9624 173.805 11.0554 173.797 11.1203 173.792L11.1646 173.788L11.1958 173.785L11.2164 173.783L11.222 173.782L11.2237 173.782L11.2243 173.782L11.2244 173.782C11.2245 173.782 11.2246 173.782 11.1726 173.285L11.2246 173.782L11.5844 173.744L11.6612 173.391L13.0696 166.906L13.1076 166.731L13.0257 166.572L12.4732 165.496L13.911 161.915L14.0281 161.623L13.816 161.391L13.2212 160.741C13.2289 160.701 13.2377 160.656 13.2478 160.607C13.2967 160.368 13.3746 160.023 13.4896 159.605C13.7199 158.767 14.0968 157.643 14.6824 156.493C15.7803 154.337 17.5701 152.161 20.4425 151.503L20.0005 166.971L19.9932 167.227L20.1095 167.455L20.1096 167.455L20.1097 167.455L20.1104 167.456L20.1153 167.466L20.1372 167.51C20.1571 167.551 20.1872 167.612 20.226 167.694C20.3036 167.857 20.4162 168.1 20.552 168.412C20.8239 169.036 21.1879 169.934 21.5521 171.019C22.2841 173.199 23.0001 176.084 23.0001 179C23.0001 182.003 22.7561 183.943 22.512 185.51C22.4707 185.776 22.4285 186.035 22.387 186.289L22.3869 186.29L22.3868 186.291C22.1856 187.525 22.0001 188.663 22.0001 190V190.036L22.0027 190.071L23.0027 204.071L23.0629 204.914L23.9046 204.995L23.905 204.995L23.9067 204.996L23.9128 204.996L23.9363 204.998L24.0275 205.007C24.1078 205.014 24.2266 205.025 24.3818 205.039C24.6922 205.067 25.1481 205.106 25.7327 205.153C26.9018 205.247 28.5858 205.373 30.6489 205.498C34.7739 205.749 40.4201 206 46.5001 206C52.5801 206 58.2263 205.749 62.3513 205.498C64.4144 205.373 66.0984 205.247 67.2675 205.153C67.8521 205.106 68.3081 205.067 68.6184 205.039C68.7145 205.031 68.7965 205.023 68.8642 205.017L68.9727 205.007L69.064 204.998L69.0875 204.996L69.0936 204.996L69.0952 204.995L69.0957 204.995L69.9373 204.914L69.9976 204.071L70.9976 190.071L71.0001 190.036V190C71.0001 188.663 70.8147 187.525 70.6135 186.291C70.5719 186.036 70.5296 185.776 70.4882 185.51C70.2441 183.943 70.0001 182.003 70.0001 179C70.0001 176.084 70.7161 173.199 71.4481 171.019C71.8123 169.934 72.1764 169.036 72.4482 168.412C72.5841 168.1 72.6966 167.857 72.7742 167.694C72.813 167.612 72.8431 167.551 72.863 167.51L72.8849 167.466L72.8898 167.456L72.8905 167.455L72.8907 167.455L72.8907 167.455L73.007 167.227L72.9997 166.971L69.2343 35.183C69.4691 35.0193 69.7211 34.8695 69.9914 34.7356C72.5996 33.4443 73.8322 31.9876 74.3978 30.7978C74.679 30.2063 74.7892 29.6932 74.8272 29.3187C74.8369 29.223 74.8419 29.1365 74.8438 29.0602L75.5646 28.7034L75.7502 28.6115L75.8165 28.4152L76.2469 27.1406L77.5249 26.7201L77.7452 26.6476L77.8321 26.4327L79.8699 21.3956L79.9997 21.0747L79.745 20.8402L79.4064 21.208C79.745 20.8402 79.745 20.8402 79.7449 20.8401L79.7447 20.84L79.7443 20.8396L79.7431 20.8385L79.7391 20.8348L79.725 20.822C79.713 20.8112 79.6957 20.7957 79.6736 20.7762C79.6295 20.7372 79.566 20.682 79.4867 20.6155C79.3286 20.4829 79.1056 20.3035 78.8462 20.1168C78.348 19.7582 77.6412 19.317 76.9821 19.1931C76.3275 19.0701 75.4783 19.216 74.8551 19.3621C74.5307 19.4382 74.2425 19.5206 74.0355 19.584C73.9318 19.6157 73.8479 19.6429 73.7893 19.6623C73.7601 19.672 73.7371 19.6797 73.7211 19.6852L73.7025 19.6916L73.6973 19.6934L73.6957 19.694L73.6952 19.6942L73.695 19.6942C73.6949 19.6942 73.6949 19.6943 73.8608 20.1659L73.6949 19.6943L73.3622 19.8113L73.3608 20.164L73.3411 25.2204L73.3406 25.3384L73.393 25.4442L73.8016 26.2696L73.3575 27.5849L73.2912 27.7811L73.3831 27.9667L73.8427 28.8949L73.8435 28.9114C73.8462 28.9773 73.8461 29.0816 73.8323 29.2177C73.8047 29.4893 73.7222 29.8899 73.4946 30.3685C73.0429 31.3188 71.9944 32.6281 69.5477 33.8395C69.4291 33.8982 69.3136 33.9595 69.2012 34.0231L69.0001 26.9857V12V3V2.14814L68.1591 2.01272L68.0001 3C68.1591 2.01272 68.159 2.0127 68.1588 2.01268L68.1583 2.01259L68.1564 2.01228L68.1492 2.01112L68.1214 2.00669L68.0137 1.98967C67.9192 1.97482 67.78 1.95313 67.6 1.92557C67.2398 1.87046 66.7161 1.79188 66.0596 1.69765C64.7469 1.50923 62.9021 1.25807 60.7721 1.0069C56.5206 0.505557 51.0994 2.06238e-05 46.5001 6.30966e-10ZM67.0283 28L67.2477 35.6795C66.7088 36.3427 66.3036 37.0796 65.9999 37.8322V28H67.0283ZM66.3287 40.3496C66.1532 41.3501 66.1121 42.2871 66.1182 43H67C67.1659 43 67.3223 43.0404 67.4601 43.1119L67.2972 37.411C66.8 38.3409 66.5016 39.3645 66.3287 40.3496ZM22.4563 151.047L22.0068 166.782L22.032 166.835C22.1185 167.016 22.2403 167.279 22.3857 167.613C22.6764 168.281 23.0623 169.233 23.4481 170.382C24.2161 172.669 25.0001 175.784 25.0001 179C25.0001 182.129 24.7441 184.175 24.4882 185.818C24.4422 186.114 24.3971 186.392 24.354 186.657L24.354 186.657C24.2101 187.544 24.089 188.29 24.0332 189.076C24.3467 189.099 24.7321 189.127 25.1812 189.159C25.7051 189.195 26.3157 189.237 26.9999 189.282V145.948C26.2334 148.088 24.8705 150.178 22.4563 151.047ZM27.9999 140.239C28.0098 139.932 28.0119 139.671 28.0107 139.467C28.0098 139.313 28.007 139.191 28.0045 139.107C28.0032 139.065 28.002 139.033 28.001 139.01L28.0006 139H29C29.5454 139 29.9889 138.563 29.9998 138.021V189.465C29.2915 189.425 28.6224 189.384 27.9999 189.345V140.239ZM26.9999 140.222C26.995 140.367 26.9884 140.523 26.9792 140.689C26.9233 141.704 26.7768 143.06 26.4174 144.441C25.8192 146.74 24.6718 148.979 22.4875 149.954L25.972 28H26.9999V127V137H26C25.4477 137 25 137.448 25 138C25 138.552 25.4477 139 26 139H26.9999V140.222ZM26.0001 10.6492V3.85739C26.3255 3.80832 26.738 3.74721 27.2248 3.67735C28.5246 3.49077 30.3524 3.24193 32.4624 2.9931C36.691 2.49444 42.0198 1.99998 46.5001 2C50.9805 2.00002 56.3092 2.49448 60.5379 2.99313C62.6479 3.24195 64.4757 3.49079 65.7755 3.67736C66.2622 3.74722 66.6747 3.80833 67.0001 3.8574V10.6319C66.8579 10.5922 66.7076 10.5518 66.5508 10.512C65.5436 10.2562 64.171 9.99463 62.9494 10.0933C61.6452 10.1987 60.7006 10.8122 59.985 11.2769L59.984 11.2775C59.9325 11.311 59.8821 11.3437 59.8329 11.3754C59.0708 11.866 58.5358 12.1557 57.7761 12.1099C57.0065 12.0635 56.5227 11.632 55.7604 10.8818L55.7009 10.8232C55.0025 10.1347 54.0315 9.17749 52.4621 9.08289C51.054 8.99802 49.7985 9.63572 48.8186 10.1334L48.7892 10.1484C47.7031 10.6999 46.9026 11.0991 46.079 11.0991C45.3172 11.0991 44.7849 10.7532 43.979 10.2105L43.9605 10.1981C43.1983 9.68479 42.1731 8.99439 40.7048 9.08289C39.1354 9.17749 38.1645 10.1347 37.466 10.8232L37.4065 10.8818C36.6442 11.632 36.1604 12.0635 35.3908 12.1099C34.6311 12.1557 34.0961 11.866 33.334 11.3754C33.2845 11.3435 33.2338 11.3106 33.182 11.2769C32.4663 10.8122 31.5218 10.1987 30.2175 10.0933C28.9985 9.99483 27.5855 10.2555 26.5423 10.5097C26.3517 10.5561 26.1701 10.6032 26.0001 10.6492ZM66.0584 12.4505C66.4179 12.5418 66.7404 12.6362 67.0001 12.7176V26H66.0001V25H65.9999V12.4357L66.0584 12.4505ZM64.9999 25V12.2207C64.3447 12.1048 63.6802 12.0408 63.1105 12.0868C63.0731 12.0899 63.0362 12.0936 62.9998 12.0979V24H63.0001V26H64.0001V25H64.9999ZM61.9998 12.4065V24H61.0001V26H60.0001V24H59.9998V13.5964C60.3387 13.4254 60.6409 13.2338 60.9154 13.0571L60.9923 13.0076L60.9923 13.0075L60.9924 13.0075L60.9924 13.0075C61.3622 12.7692 61.6816 12.5635 61.9998 12.4065ZM64.9999 48.9863V45H64C63.4477 45 63 44.5523 63 44C63 43.4477 63.4477 43 64 43H64.9999V28H62.9998V48H64C64.5477 48 64.9926 48.4403 64.9999 48.9863ZM65.9999 189.282V45H67C67.1863 45 67.3607 44.9491 67.51 44.8604L70.9935 166.782L70.9682 166.835C70.8818 167.016 70.7599 167.279 70.6145 167.613C70.3239 168.281 69.9379 169.233 69.5521 170.382C68.7841 172.669 68.0001 175.784 68.0001 179C68.0001 182.129 68.2561 184.175 68.512 185.818C68.558 186.114 68.6031 186.392 68.6462 186.657C68.7901 187.544 68.9112 188.29 68.9671 189.076C68.6536 189.099 68.2682 189.127 67.8191 189.159C67.295 189.195 66.6843 189.237 65.9999 189.282ZM64.9999 49.0137C64.9926 49.5597 64.5477 50 64 50H62.9998V189.465C63.7081 189.425 64.3773 189.384 64.9999 189.345V49.0137ZM61.9998 50V55.9772C61.9876 55.4354 61.5447 55 61 55H59.9998V28H61.9998V48H61C60.4477 48 60 48.4477 60 49C60 49.5523 60.4477 50 61 50H61.9998ZM58.9998 24V13.9792C58.5974 14.0827 58.1522 14.1362 57.6558 14.1063C57.4245 14.0924 57.2062 14.0597 56.9999 14.0119V24H57.0001V26H58.0001V24H58.9998ZM55.9999 13.6302V24H55.0001V26H53.0001V24H52.9998V11.2348C53.4427 11.4281 53.8346 11.7927 54.3576 12.3074L54.417 12.366C54.8281 12.7712 55.3336 13.2695 55.9999 13.6302ZM59.9998 189.626V57H61C61.5447 57 61.9876 56.5646 61.9998 56.0228V189.521C61.358 189.556 60.6898 189.591 59.9998 189.626ZM58 55H58.9998V28H56.9999V60.9999V63H58C58.5459 63 58.9896 63.4374 58.9998 63.9809V57H58C57.4477 57 57 56.5523 57 56C57 55.4477 57.4477 55 58 55ZM58.9998 64.0191V189.674C58.3483 189.704 57.6804 189.734 56.9999 189.762V65H58C58.5459 65 58.9896 64.5626 58.9998 64.0191ZM55.9999 65V189.802C55.0182 189.839 54.0146 189.873 52.9998 189.902V83H54C54.5523 83 55 82.5523 55 82C55 81.4477 54.5523 81 54 81H52.9998V77V28H55.9999V60.9999V63H55C54.4477 63 54 63.4477 54 64C54 64.5523 54.4477 65 55 65H55.9999ZM51.9998 24V11.0831C51.3171 11.1379 50.6099 11.4669 49.6948 11.9316L49.5469 12.0069L49.5468 12.007L49.5465 12.0071L49.5464 12.0072C49.3725 12.0958 49.1901 12.1889 48.9998 12.2816V24H49.0001V26H51.0001V24H51.9998ZM47.9998 12.7175V24H47.0001V26H45.0001V24H44.9999V12.9607C45.3301 13.0468 45.6887 13.0991 46.079 13.0991C46.7587 13.0991 47.4045 12.9387 47.9998 12.7175ZM51.9998 77V81H51C50.4477 81 50 81.4477 50 82C50 82.5523 50.4477 83 51 83H51.9998V189.928C51.0039 189.953 50.0007 189.972 48.9998 189.984V91H50C50.5523 91 51 90.5523 51 90C51 89.4477 50.5523 89 50 89H48.9998V84.1562V28H51.9998V77ZM47.9998 91V189.994C47.4981 189.998 46.9978 190 46.5001 190C46.0023 190 45.5019 189.998 44.9999 189.994V99H46C46.5523 99 47 98.5523 47 98C47 97.4477 46.5523 97 46 97H44.9999V90.5V28H47.9998V84.1562V89H47C46.4477 89 46 89.4477 46 90C46 90.5523 46.4477 91 47 91H47.9998ZM43.9999 24V12.5732C43.6016 12.3693 43.2569 12.1364 42.9558 11.9329L42.8619 11.8695C42.1415 11.3844 41.6463 11.0861 40.9999 11.0753V24H41.0001V26H43.0001V24H43.9999ZM39.9999 11.3171V24H39.0001V26H38.0001V24H36.9999V13.7161C37.7498 13.3518 38.3051 12.8044 38.7499 12.366L38.8093 12.3074C39.2656 11.8583 39.6221 11.5235 39.9999 11.3171ZM43.9999 90.5V97H43C42.4477 97 42 97.4477 42 98C42 98.5523 42.4477 99 43 99H43.9999V189.984C42.9991 189.972 41.9958 189.953 40.9999 189.928V107H42C42.5523 107 43 106.552 43 106C43 105.448 42.5523 105 42 105H40.9999V97.5V28H43.9999V90.5ZM39.9999 107V189.901C38.9851 189.873 37.9816 189.839 36.9999 189.801V115H38C38.5523 115 39 114.552 39 114C39 113.448 38.5523 113 38 113H36.9999V104.928V28H39.9999V97.5V105H39C38.4477 105 38 105.448 38 106C38 106.552 38.4477 107 39 107H39.9999ZM35.9999 104.928V113H35C34.4477 113 34 113.448 34 114C34 114.552 34.4477 115 35 115H35.9999V121.983C35.9909 121.439 35.5467 121 35 121H33.9999V111.991V28H35.9999V104.928ZM35.9999 14.0467V26H35.0001V24H33.9999V13.9326C34.4454 14.0661 34.9449 14.1404 35.5111 14.1063C35.6809 14.0961 35.8437 14.0757 35.9999 14.0467ZM35.9999 122.017C35.9909 122.561 35.5467 123 35 123H33.9999V189.674C34.6514 189.704 35.3193 189.734 35.9999 189.762V122.017ZM32.9999 123V129.983C32.9909 129.439 32.5467 129 32 129H30.9998V119.203V28H32.9999V111.991V121H32C31.4477 121 31 121.448 31 122C31 122.552 31.4477 123 32 123H32.9999ZM32.9999 13.5089C32.7278 13.3617 32.48 13.2042 32.2515 13.0571L32.1746 13.0076C31.74 12.7275 31.3751 12.4924 30.9998 12.3285V24H32.0001V26H32.9999V13.5089ZM29.9998 137.98V131H29C28.4477 131 28 130.552 28 130C28 129.448 28.4477 129 29 129H29.9998V119.203V28H27.9999V127V137H29C29.5454 137 29.9889 137.437 29.9998 137.98ZM32 131H30.9998V189.521C31.6416 189.556 32.3099 189.591 32.9999 189.626V130.017C32.9909 130.561 32.5467 131 32 131ZM29.9998 12.0827V26H29.0001V25H27.9999V12.243C28.6981 12.117 29.4059 12.0426 29.9998 12.0827ZM26.9999 12.4567C26.6181 12.55 26.275 12.6465 26.0001 12.7288V26H26.9999V12.4567ZM67.9591 191.154C68.322 191.128 68.6438 191.105 68.9201 191.085L68.0633 203.08C67.8011 203.102 67.4807 203.129 67.1069 203.159C65.9491 203.253 64.2784 203.377 62.23 203.502C58.132 203.751 52.5282 204 46.5001 204C40.472 204 34.8682 203.751 30.7703 203.502C28.7219 203.377 27.0511 203.253 25.8934 203.159C25.5195 203.129 25.1992 203.102 24.9369 203.08L24.0802 191.085C24.3565 191.105 24.6782 191.128 25.0412 191.154C26.3811 191.248 28.2829 191.373 30.5323 191.498C35.0287 191.749 40.9243 192 46.5001 192C52.076 192 57.9716 191.749 62.4679 191.498C64.7173 191.373 66.6191 191.248 67.9591 191.154ZM11.919 161.473L12.4854 161.418L12.8659 161.834L11.4601 165.335L11.3751 165.547L11.4794 165.75L12.0543 166.869L10.7627 172.816C10.5498 172.83 10.2607 172.844 9.94096 172.846C9.25944 172.85 8.52265 172.797 8.06679 172.622C7.61863 172.45 7.10838 172.03 6.68153 171.605C6.48765 171.413 6.32219 171.23 6.20141 171.091L9.1691 165.742L10.32 165.23L10.5092 165.146L10.5834 164.952L11.919 161.473ZM74.558 28.0859L74.9353 27.8991L75.3794 26.5838L75.4594 26.3469L75.6969 26.2688L76.9921 25.8427L78.8087 21.3521C78.6672 21.2346 78.4779 21.0838 78.262 20.9284C77.7727 20.5762 77.2213 20.2556 76.7975 20.1759C76.3693 20.0955 75.704 20.1903 75.0834 20.3357C74.8018 20.4017 74.5483 20.4734 74.3594 20.5307L74.3415 25.1063L74.7897 26.0114L74.8816 26.197L74.8154 26.3933L74.3712 27.7086L74.558 28.0859ZM45.0001 195C43.3433 195 42.0001 196.343 42.0001 198C42.0001 199.657 43.3433 201 45.0001 201H48.0001C49.657 201 51.0001 199.657 51.0001 198C51.0001 196.343 49.657 195 48.0001 195H45.0001Z" fill="black"/>
</g>
<defs>
<clipPath id="clip0">
<rect width="83.9997" height="206" fill="white"/>
</clipPath>
</defs>
</svg>
