<svg width="224" height="224" viewBox="0 0 224 224" fill="none" xmlns="http://www.w3.org/2000/svg">
<path d="M126.5 194.5L125 207C125 207 118 208 112 208C106 208 99 207 99 207L97.5 194.5M126.5 194.5C126.5 194.5 125.5 192 125.5 187.5C125.5 183 128 177 128 177V40M126.5 194.5C126.5 194.5 117.676 195.5 112 195.5C106.324 195.5 97.5 194.5 97.5 194.5M128 40H112H96M128 40L126.5 27.75M96 40V177C96 177 98.5785 183 98.5785 187.5C98.5785 192 97.5 194.5 97.5 194.5M96 40L97.5 27.75M97.5 27.75L99 16C99 16 108.343 15 112 15C115.657 15 125 16 125 16L126.5 27.75M97.5 27.75C97.5 27.75 101.985 25.75 104.875 25.75C107.765 25.75 109.11 27.75 112 27.75C114.89 27.75 116.235 25.75 119.125 25.75C122.015 25.75 126.5 27.75 126.5 27.75" stroke="black" stroke-width="2"/>
<path fill-rule="evenodd" clip-rule="evenodd" d="M149.533 161.551C149.8 161.62 149.961 161.893 149.892 162.16L140.076 200.09C140.007 200.358 139.734 200.518 139.467 200.449C139.199 200.38 139.039 200.107 139.108 199.84L148.924 161.909C148.993 161.642 149.266 161.481 149.533 161.551Z" fill="black"/>
<path d="M122.5 203.5L123 198C123 198 116.508 198.5 112 198.5C107.492 198.5 101 198 101 198L101.5 203.5C101.5 203.5 107.881 204.5 112 204.5C116.119 204.5 122.5 203.5 122.5 203.5Z" stroke="black"/>
<path fill-rule="evenodd" clip-rule="evenodd" d="M126.5 194.5C126.5 194.5 125.5 192 125.5 187.5C125.5 183 128 177 128 177C128 177 123 178 112 178C101 178 96 177 96 177C96 177 98.5785 183 98.5785 187.5C98.5785 192 97.5 194.5 97.5 194.5C97.5 194.5 106.324 195.5 112 195.5C117.676 195.5 126.5 194.5 126.5 194.5ZM100 178V192.225C99.8392 192.202 99.6913 192.181 99.5568 192.162C99.2395 192.115 98.9964 192.076 98.8332 192.05C98.7516 192.036 98.69 192.026 98.6492 192.019L98.6035 192.011L98.5925 192.009L98.59 192.008L98.5894 192.008L98.5894 192.008L98.5 192.5C98.4106 192.992 98.4106 192.992 98.4107 192.992L98.4111 192.992L98.4121 192.992L98.4156 192.993L98.4286 192.995L98.4783 193.004C98.5219 193.011 98.5863 193.022 98.6707 193.036C98.8395 193.064 99.0886 193.104 99.412 193.151C100.059 193.246 101.003 193.371 102.198 193.497C104.587 193.749 107.98 194 112 194C116.02 194 119.413 193.749 121.802 193.497C122.997 193.371 123.941 193.246 124.588 193.151C124.911 193.104 125.16 193.064 125.329 193.036C125.414 193.022 125.478 193.011 125.522 193.004L125.571 192.995L125.584 192.993L125.588 192.992L125.589 192.992L125.589 192.992C125.589 192.992 125.589 192.992 125.5 192.5L125.411 192.008L125.411 192.008L125.41 192.008L125.408 192.009L125.397 192.011L125.351 192.019C125.31 192.026 125.248 192.036 125.167 192.05C125.004 192.076 124.76 192.115 124.443 192.162C124.309 192.181 124.161 192.202 124 192.225V178H123V192.355C122.608 192.403 122.173 192.453 121.698 192.503C121.179 192.557 120.611 192.612 120 192.664V178H119V192.743C117.799 192.832 116.458 192.907 115 192.953V178H114V192.979C113.353 192.993 112.686 193 112 193C111.314 193 110.647 192.993 110 192.979V178H109V192.953C107.542 192.907 106.201 192.832 105 192.743V178H104V192.664C103.389 192.612 102.821 192.557 102.302 192.503C101.827 192.453 101.392 192.403 101 192.355V178H100Z" fill="black"/>
<path fill-rule="evenodd" clip-rule="evenodd" d="M120 25.5C120 25.2239 119.776 25 119.5 25C119.224 25 119 25.2239 119 25.5V36V39V57H118C117.448 57 117 57.4477 117 58C117 58.5523 117.448 59 118 59H119V178H120V59H121C121.552 59 122 58.5523 122 58C122 57.4477 121.552 57 121 57H120V39H121V36H120V25.5ZM100.5 26C100.776 26 101 26.2239 101 26.5V36H102V39H101V51H102C102.552 51 103 51.4477 103 52C103 52.5523 102.552 53 102 53H101V178H100V53H99C98.4477 53 98 52.5523 98 52C98 51.4477 98.4477 51 99 51H100V39V36V26.5C100 26.2239 100.224 26 100.5 26ZM122 44C121.448 44 121 44.4477 121 45C121 45.5523 121.448 46 122 46H123V178H124V46H125C125.552 46 126 45.5523 126 45C126 44.4477 125.552 44 125 44H124V39H125V36H124V26.5C124 26.2239 123.776 26 123.5 26C123.224 26 123 26.2239 123 26.5V36V39V44H122ZM104.5 25C104.776 25 105 25.2239 105 25.5V36H106V39H105V72H109V39V36V27C109 26.7239 109.224 26.5 109.5 26.5C109.776 26.5 110 26.7239 110 27V36H111V39H110V72H114V39V36V27C114 26.7239 114.224 26.5 114.5 26.5C114.776 26.5 115 26.7239 115 27V36H116V39H115V72H116C116.552 72 117 72.4477 117 73C117 73.5523 116.552 74 116 74H115V84H116C116.552 84 117 84.4477 117 85C117 85.5523 116.552 86 116 86H115V95H116C116.552 95 117 95.4477 117 96C117 96.5523 116.552 97 116 97H115V105H116C116.552 105 117 105.448 117 106C117 106.552 116.552 107 116 107H115V114H116C116.552 114 117 114.448 117 115C117 115.552 116.552 116 116 116H115V122H116C116.552 122 117 122.448 117 123C117 123.552 116.552 124 116 124H115V129H116C116.552 129 117 129.448 117 130C117 130.552 116.552 131 116 131H115V135H116C116.552 135 117 135.448 117 136C117 136.552 116.552 137 116 137H115V141H116C116.552 141 117 141.448 117 142C117 142.552 116.552 143 116 143H115V146H116C116.552 146 117 146.448 117 147C117 147.552 116.552 148 116 148H115V151H116C116.552 151 117 151.448 117 152C117 152.552 116.552 153 116 153H115V156H116C116.552 156 117 156.448 117 157C117 157.552 116.552 158 116 158H115V160H116C116.552 160 117 160.448 117 161C117 161.552 116.552 162 116 162H115V164H116C116.552 164 117 164.448 117 165C117 165.552 116.552 166 116 166H115V168H116C116.552 168 117 168.448 117 169C117 169.552 116.552 170 116 170H115V172H116C116.552 172 117 172.448 117 173C117 173.552 116.552 174 116 174H115V178H114V174H110V178H109V174H105V178H104V174H103C102.448 174 102 173.552 102 173C102 172.448 102.448 172 103 172H104V170H103C102.448 170 102 169.552 102 169C102 168.448 102.448 168 103 168H104V166H103C102.448 166 102 165.552 102 165C102 164.448 102.448 164 103 164H104V162H103C102.448 162 102 161.552 102 161C102 160.448 102.448 160 103 160H104V158H103C102.448 158 102 157.552 102 157C102 156.448 102.448 156 103 156H104V153H103C102.448 153 102 152.552 102 152C102 151.448 102.448 151 103 151H104V148H103C102.448 148 102 147.552 102 147C102 146.448 102.448 146 103 146H104V143H103C102.448 143 102 142.552 102 142C102 141.448 102.448 141 103 141H104V137H103C102.448 137 102 136.552 102 136C102 135.448 102.448 135 103 135H104V131H103C102.448 131 102 130.552 102 130C102 129.448 102.448 129 103 129H104V124H103C102.448 124 102 123.552 102 123C102 122.448 102.448 122 103 122H104V116H103C102.448 116 102 115.552 102 115C102 114.448 102.448 114 103 114H104V107H103C102.448 107 102 106.552 102 106C102 105.448 102.448 105 103 105H104V97H103C102.448 97 102 96.5523 102 96C102 95.4477 102.448 95 103 95H104V86H103C102.448 86 102 85.5523 102 85C102 84.4477 102.448 84 103 84H104V74H103C102.448 74 102 73.5523 102 73C102 72.4477 102.448 72 103 72H104V39V36V25.5C104 25.2239 104.224 25 104.5 25ZM105 172H109V170H105V172ZM110 172H114V170H110V172ZM114 166V168H110V166H114ZM109 166V168H105V166H109ZM105 164H109V162H105V164ZM110 164H114V162H110V164ZM114 158V160H110V158H114ZM109 158V160H105V158H109ZM105 156H109V153H105V156ZM110 156H114V153H110V156ZM114 148V151H110V148H114ZM109 148V151H105V148H109ZM105 146H109V143H105V146ZM110 146H114V143H110V146ZM114 137V141H110V137H114ZM109 137V141H105V137H109ZM105 135H109V131H105V135ZM110 135H114V131H110V135ZM114 124V129H110V124H114ZM109 124V129H105V124H109ZM105 122H109V116H105V122ZM110 122H114V116H110V122ZM114 107V114H110V107H114ZM109 107V114H105V107H109ZM105 105H109V97H105V105ZM110 105H114V97H110V105ZM114 86V95H110V86H114ZM109 86V95H105V86H109ZM105 84H109V74H105V84ZM110 84H114V74H110V84Z" fill="black"/>
</svg>
