<svg width="76" height="196" viewBox="0 0 76 196" fill="none" xmlns="http://www.w3.org/2000/svg">
<g clip-path="url(#clip0)">
<path d="M52.5 180.5L51 193C51 193 44 194 38 194C32 194 25 193 25 193L23.5 180.5M52.5 180.5C52.5 180.5 51.5 178 51.5 173.5C51.5 169 54 163 54 163V26M52.5 180.5C52.5 180.5 43.6761 181.5 38 181.5C32.3239 181.5 23.5 180.5 23.5 180.5M54 26H38H22M54 26L52.5 13.75M22 26V163C22 163 24.5785 169 24.5785 173.5C24.5785 178 23.5 180.5 23.5 180.5M22 26L23.5 13.75M23.5 13.75L25 2C25 2 34.3431 1 38 1C41.6569 1 51 2 51 2L52.5 13.75M23.5 13.75C23.5 13.75 27.985 11.75 30.875 11.75C33.765 11.75 35.11 13.75 38 13.75C40.89 13.75 42.235 11.75 45.125 11.75C48.015 11.75 52.5 13.75 52.5 13.75" stroke="black" stroke-width="2"/>
<path fill-rule="evenodd" clip-rule="evenodd" d="M75.533 147.551C75.8003 147.62 75.9609 147.893 75.8918 148.16L66.076 186.09C66.0069 186.358 65.7341 186.518 65.4667 186.449C65.1994 186.38 65.0388 186.107 65.1079 185.84L74.9236 147.909C74.9928 147.642 75.2656 147.481 75.533 147.551Z" fill="black"/>
<path d="M48.5 189.5L49 184C49 184 42.508 184.5 38 184.5C33.492 184.5 27 184 27 184L27.5 189.5C27.5 189.5 33.8809 190.5 38 190.5C42.1191 190.5 48.5 189.5 48.5 189.5Z" stroke="black"/>
<path fill-rule="evenodd" clip-rule="evenodd" d="M52.5 180.5C52.5 180.5 51.5 178 51.5 173.5C51.5 169 54 163 54 163C54 163 49 164 38 164C27 164 22 163 22 163C22 163 24.5785 169 24.5785 173.5C24.5785 178 23.5 180.5 23.5 180.5C23.5 180.5 32.3239 181.5 38 181.5C43.6761 181.5 52.5 180.5 52.5 180.5ZM26 164V178.225C25.8392 178.202 25.6913 178.181 25.5568 178.162C25.2395 178.115 24.9964 178.076 24.8332 178.05C24.7516 178.036 24.69 178.026 24.6492 178.019L24.6035 178.011L24.5925 178.009L24.59 178.008L24.5894 178.008L24.5894 178.008L24.5 178.5C24.4106 178.992 24.4106 178.992 24.4107 178.992L24.4111 178.992L24.4121 178.992L24.4156 178.993L24.4286 178.995L24.4783 179.004C24.5219 179.011 24.5863 179.022 24.6707 179.036C24.8395 179.064 25.0886 179.104 25.412 179.151C26.0587 179.246 27.0029 179.371 28.1977 179.497C30.5868 179.749 33.9796 180 38 180C42.0204 180 45.4132 179.749 47.8023 179.497C48.9971 179.371 49.9413 179.246 50.588 179.151C50.9114 179.104 51.1605 179.064 51.3293 179.036C51.4137 179.022 51.4781 179.011 51.5217 179.004L51.5714 178.995L51.5844 178.993L51.5879 178.992L51.5889 178.992L51.5893 178.992C51.5894 178.992 51.5894 178.992 51.5 178.5L51.4106 178.008L51.4106 178.008L51.41 178.008L51.4075 178.009L51.3965 178.011L51.3508 178.019C51.31 178.026 51.2484 178.036 51.1668 178.05C51.0036 178.076 50.7605 178.115 50.4432 178.162C50.3087 178.181 50.1608 178.202 50 178.225V164H49V178.355C48.6084 178.403 48.1733 178.453 47.6977 178.503C47.1786 178.557 46.6114 178.612 46 178.664V164H45V178.743C43.7993 178.832 42.4579 178.907 41 178.953V164H40V178.979C39.3531 178.993 38.6858 179 38 179C37.3142 179 36.6469 178.993 36 178.979V164H35V178.953C33.5421 178.907 32.2007 178.832 31 178.743V164H30V178.664C29.3886 178.612 28.8214 178.557 28.3023 178.503C27.8267 178.453 27.3916 178.403 27 178.355V164H26Z" fill="black"/>
<path fill-rule="evenodd" clip-rule="evenodd" d="M46 11.5C46 11.2239 45.7761 11 45.5 11C45.2239 11 45 11.2239 45 11.5V22V25V43H44C43.4477 43 43 43.4477 43 44C43 44.5523 43.4477 45 44 45H45V164H46V45H47C47.5523 45 48 44.5523 48 44C48 43.4477 47.5523 43 47 43H46V25H47V22H46V11.5ZM26.5 12C26.7761 12 27 12.2239 27 12.5V22H28V25H27V37H28C28.5523 37 29 37.4477 29 38C29 38.5523 28.5523 39 28 39H27V164H26V39H25C24.4477 39 24 38.5523 24 38C24 37.4477 24.4477 37 25 37H26V25V22V12.5C26 12.2239 26.2239 12 26.5 12ZM48 30C47.4477 30 47 30.4477 47 31C47 31.5523 47.4477 32 48 32H49V164H50V32H51C51.5523 32 52 31.5523 52 31C52 30.4477 51.5523 30 51 30H50V25H51V22H50V12.5C50 12.2239 49.7761 12 49.5 12C49.2239 12 49 12.2239 49 12.5V22V25V30H48ZM30.5 11C30.7761 11 31 11.2239 31 11.5V22H32V25H31V58H35V25V22V13C35 12.7239 35.2239 12.5 35.5 12.5C35.7761 12.5 36 12.7239 36 13V22H37V25H36V58H40V25V22V13C40 12.7239 40.2239 12.5 40.5 12.5C40.7761 12.5 41 12.7239 41 13V22H42V25H41V58H42C42.5523 58 43 58.4477 43 59C43 59.5523 42.5523 60 42 60H41V70H42C42.5523 70 43 70.4477 43 71C43 71.5523 42.5523 72 42 72H41V81H42C42.5523 81 43 81.4477 43 82C43 82.5523 42.5523 83 42 83H41V91H42C42.5523 91 43 91.4477 43 92C43 92.5523 42.5523 93 42 93H41V100H42C42.5523 100 43 100.448 43 101C43 101.552 42.5523 102 42 102H41V108H42C42.5523 108 43 108.448 43 109C43 109.552 42.5523 110 42 110H41V115H42C42.5523 115 43 115.448 43 116C43 116.552 42.5523 117 42 117H41V121H42C42.5523 121 43 121.448 43 122C43 122.552 42.5523 123 42 123H41V127H42C42.5523 127 43 127.448 43 128C43 128.552 42.5523 129 42 129H41V132H42C42.5523 132 43 132.448 43 133C43 133.552 42.5523 134 42 134H41V137H42C42.5523 137 43 137.448 43 138C43 138.552 42.5523 139 42 139H41V142H42C42.5523 142 43 142.448 43 143C43 143.552 42.5523 144 42 144H41V146H42C42.5523 146 43 146.448 43 147C43 147.552 42.5523 148 42 148H41V150H42C42.5523 150 43 150.448 43 151C43 151.552 42.5523 152 42 152H41V154H42C42.5523 154 43 154.448 43 155C43 155.552 42.5523 156 42 156H41V158H42C42.5523 158 43 158.448 43 159C43 159.552 42.5523 160 42 160H41V164H40V160H36V164H35V160H31V164H30V160H29C28.4477 160 28 159.552 28 159C28 158.448 28.4477 158 29 158H30V156H29C28.4477 156 28 155.552 28 155C28 154.448 28.4477 154 29 154H30V152H29C28.4477 152 28 151.552 28 151C28 150.448 28.4477 150 29 150H30V148H29C28.4477 148 28 147.552 28 147C28 146.448 28.4477 146 29 146H30V144H29C28.4477 144 28 143.552 28 143C28 142.448 28.4477 142 29 142H30V139H29C28.4477 139 28 138.552 28 138C28 137.448 28.4477 137 29 137H30V134H29C28.4477 134 28 133.552 28 133C28 132.448 28.4477 132 29 132H30V129H29C28.4477 129 28 128.552 28 128C28 127.448 28.4477 127 29 127H30V123H29C28.4477 123 28 122.552 28 122C28 121.448 28.4477 121 29 121H30V117H29C28.4477 117 28 116.552 28 116C28 115.448 28.4477 115 29 115H30V110H29C28.4477 110 28 109.552 28 109C28 108.448 28.4477 108 29 108H30V102H29C28.4477 102 28 101.552 28 101C28 100.448 28.4477 100 29 100H30V93H29C28.4477 93 28 92.5523 28 92C28 91.4477 28.4477 91 29 91H30V83H29C28.4477 83 28 82.5523 28 82C28 81.4477 28.4477 81 29 81H30V72H29C28.4477 72 28 71.5523 28 71C28 70.4477 28.4477 70 29 70H30V60H29C28.4477 60 28 59.5523 28 59C28 58.4477 28.4477 58 29 58H30V25V22V11.5C30 11.2239 30.2239 11 30.5 11ZM31 158H35V156H31V158ZM36 158H40V156H36V158ZM40 152V154H36V152H40ZM35 152V154H31V152H35ZM31 150H35V148H31V150ZM36 150H40V148H36V150ZM40 144V146H36V144H40ZM35 144V146H31V144H35ZM31 142H35V139H31V142ZM36 142H40V139H36V142ZM40 134V137H36V134H40ZM35 134V137H31V134H35ZM31 132H35V129H31V132ZM36 132H40V129H36V132ZM40 123V127H36V123H40ZM35 123V127H31V123H35ZM31 121H35V117H31V121ZM36 121H40V117H36V121ZM40 110V115H36V110H40ZM35 110V115H31V110H35ZM31 108H35V102H31V108ZM36 108H40V102H36V108ZM40 93V100H36V93H40ZM35 93V100H31V93H35ZM31 91H35V83H31V91ZM36 91H40V83H36V91ZM40 72V81H36V72H40ZM35 72V81H31V72H35ZM31 70H35V60H31V70ZM36 70H40V60H36V70Z" fill="black"/>
</g>
<defs>
<clipPath id="clip0">
<rect width="76" height="196" fill="white"/>
</clipPath>
</defs>
</svg>
