<svg width="56" height="195" viewBox="0 0 56 195" fill="none" xmlns="http://www.w3.org/2000/svg">
<path d="M31.5 180.5L30 193C30 193 23 194 17 194C11 194 4 193 4 193L2.5 180.5M31.5 180.5C31.5 180.5 30.5 178 30.5 173.5C30.5 169 33 163 33 163V26M31.5 180.5C31.5 180.5 22.6761 181.5 17 181.5C11.3239 181.5 2.5 180.5 2.5 180.5M33 26H17H1M33 26L31.5 13.75M1 26V163C1 163 3.5785 169 3.5785 173.5C3.5785 178 2.5 180.5 2.5 180.5M1 26L2.5 13.75M2.5 13.75L4 2C4 2 13.3431 1 17 1C20.6569 1 30 2 30 2L31.5 13.75M2.5 13.75C2.5 13.75 6.98497 11.75 9.875 11.75C12.765 11.75 14.11 13.75 17 13.75C19.89 13.75 21.235 11.75 24.125 11.75C27.015 11.75 31.5 13.75 31.5 13.75" stroke="black" stroke-width="2"/>
<path fill-rule="evenodd" clip-rule="evenodd" d="M54.533 147.551C54.8003 147.62 54.9609 147.893 54.8918 148.16L45.076 186.09C45.0069 186.358 44.7341 186.518 44.4667 186.449C44.1994 186.38 44.0388 186.107 44.1079 185.84L53.9236 147.909C53.9928 147.642 54.2656 147.481 54.533 147.551Z" fill="black"/>
<path d="M27.5 189.5L28 184C28 184 21.508 184.5 17 184.5C12.492 184.5 6 184 6 184L6.5 189.5C6.5 189.5 12.8809 190.5 17 190.5C21.1191 190.5 27.5 189.5 27.5 189.5Z" stroke="black"/>
<path fill-rule="evenodd" clip-rule="evenodd" d="M31.5 180.5C31.5 180.5 30.5 178 30.5 173.5C30.5 169 33 163 33 163C33 163 28 164 17 164C6 164 1 163 1 163C1 163 3.5785 169 3.5785 173.5C3.5785 178 2.5 180.5 2.5 180.5C2.5 180.5 11.3239 181.5 17 181.5C22.6761 181.5 31.5 180.5 31.5 180.5ZM5 164V178.225C4.83923 178.202 4.69134 178.181 4.55677 178.162C4.23953 178.115 3.99639 178.076 3.83321 178.05C3.75162 178.036 3.69002 178.026 3.64915 178.019L3.60348 178.011L3.59247 178.009L3.58996 178.008L3.58945 178.008L3.58938 178.008L3.5 178.5C3.41056 178.992 3.41064 178.992 3.41074 178.992L3.41106 178.992L3.41206 178.992L3.41556 178.993L3.42857 178.995L3.47829 179.004C3.52189 179.011 3.58627 179.022 3.6707 179.036C3.83954 179.064 4.08859 179.104 4.41198 179.151C5.05872 179.246 6.00292 179.371 7.19766 179.497C9.58683 179.749 12.9796 180 17 180C21.0204 180 24.4132 179.749 26.8023 179.497C27.9971 179.371 28.9413 179.246 29.588 179.151C29.9114 179.104 30.1605 179.064 30.3293 179.036C30.4137 179.022 30.4781 179.011 30.5217 179.004L30.5714 178.995L30.5844 178.993L30.5879 178.992L30.5889 178.992L30.5893 178.992C30.5894 178.992 30.5894 178.992 30.5 178.5L30.4106 178.008L30.4106 178.008L30.41 178.008L30.4075 178.009L30.3965 178.011L30.3508 178.019C30.31 178.026 30.2484 178.036 30.1668 178.05C30.0036 178.076 29.7605 178.115 29.4432 178.162C29.3087 178.181 29.1608 178.202 29 178.225V164H28V178.355C27.6084 178.403 27.1733 178.453 26.6977 178.503C26.1786 178.557 25.6114 178.612 25 178.664V164H24V178.743C22.7993 178.832 21.4579 178.907 20 178.953V164H19V178.979C18.3531 178.993 17.6858 179 17 179C16.3142 179 15.6469 178.993 15 178.979V164H14V178.953C12.5421 178.907 11.2007 178.832 10 178.743V164H9V178.664C8.3886 178.612 7.82139 178.557 7.30234 178.503C6.82669 178.453 6.39155 178.403 6 178.355V164H5Z" fill="black"/>
<path fill-rule="evenodd" clip-rule="evenodd" d="M25 11.5C25 11.2239 24.7761 11 24.5 11C24.2239 11 24 11.2239 24 11.5V22V25V43H23C22.4477 43 22 43.4477 22 44C22 44.5523 22.4477 45 23 45H24V164H25V45H26C26.5523 45 27 44.5523 27 44C27 43.4477 26.5523 43 26 43H25V25H26V22H25V11.5ZM5.5 12C5.77614 12 6 12.2239 6 12.5V22H7V25H6V37H7C7.55228 37 8 37.4477 8 38C8 38.5523 7.55228 39 7 39H6V164H5V39H4C3.44772 39 3 38.5523 3 38C3 37.4477 3.44772 37 4 37H5V25V22V12.5C5 12.2239 5.22386 12 5.5 12ZM27 30C26.4477 30 26 30.4477 26 31C26 31.5523 26.4477 32 27 32H28V164H29V32H30C30.5523 32 31 31.5523 31 31C31 30.4477 30.5523 30 30 30H29V25H30V22H29V12.5C29 12.2239 28.7761 12 28.5 12C28.2239 12 28 12.2239 28 12.5V22V25V30H27ZM9.5 11C9.77614 11 10 11.2239 10 11.5V22H11V25H10V58H14V25V22V13C14 12.7239 14.2239 12.5 14.5 12.5C14.7761 12.5 15 12.7239 15 13V22H16V25H15V58H19V25V22V13C19 12.7239 19.2239 12.5 19.5 12.5C19.7761 12.5 20 12.7239 20 13V22H21V25H20V58H21C21.5523 58 22 58.4477 22 59C22 59.5523 21.5523 60 21 60H20V70H21C21.5523 70 22 70.4477 22 71C22 71.5523 21.5523 72 21 72H20V81H21C21.5523 81 22 81.4477 22 82C22 82.5523 21.5523 83 21 83H20V91H21C21.5523 91 22 91.4477 22 92C22 92.5523 21.5523 93 21 93H20V100H21C21.5523 100 22 100.448 22 101C22 101.552 21.5523 102 21 102H20V108H21C21.5523 108 22 108.448 22 109C22 109.552 21.5523 110 21 110H20V115H21C21.5523 115 22 115.448 22 116C22 116.552 21.5523 117 21 117H20V121H21C21.5523 121 22 121.448 22 122C22 122.552 21.5523 123 21 123H20V127H21C21.5523 127 22 127.448 22 128C22 128.552 21.5523 129 21 129H20V132H21C21.5523 132 22 132.448 22 133C22 133.552 21.5523 134 21 134H20V137H21C21.5523 137 22 137.448 22 138C22 138.552 21.5523 139 21 139H20V142H21C21.5523 142 22 142.448 22 143C22 143.552 21.5523 144 21 144H20V146H21C21.5523 146 22 146.448 22 147C22 147.552 21.5523 148 21 148H20V150H21C21.5523 150 22 150.448 22 151C22 151.552 21.5523 152 21 152H20V154H21C21.5523 154 22 154.448 22 155C22 155.552 21.5523 156 21 156H20V158H21C21.5523 158 22 158.448 22 159C22 159.552 21.5523 160 21 160H20V164H19V160H15V164H14V160H10V164H9V160H8C7.44772 160 7 159.552 7 159C7 158.448 7.44772 158 8 158H9V156H8C7.44772 156 7 155.552 7 155C7 154.448 7.44772 154 8 154H9V152H8C7.44772 152 7 151.552 7 151C7 150.448 7.44772 150 8 150H9V148H8C7.44772 148 7 147.552 7 147C7 146.448 7.44772 146 8 146H9V144H8C7.44772 144 7 143.552 7 143C7 142.448 7.44772 142 8 142H9V139H8C7.44772 139 7 138.552 7 138C7 137.448 7.44772 137 8 137H9V134H8C7.44772 134 7 133.552 7 133C7 132.448 7.44772 132 8 132H9V129H8C7.44772 129 7 128.552 7 128C7 127.448 7.44772 127 8 127H9V123H8C7.44772 123 7 122.552 7 122C7 121.448 7.44772 121 8 121H9V117H8C7.44772 117 7 116.552 7 116C7 115.448 7.44772 115 8 115H9V110H8C7.44772 110 7 109.552 7 109C7 108.448 7.44772 108 8 108H9V102H8C7.44772 102 7 101.552 7 101C7 100.448 7.44772 100 8 100H9V93H8C7.44772 93 7 92.5523 7 92C7 91.4477 7.44772 91 8 91H9V83H8C7.44772 83 7 82.5523 7 82C7 81.4477 7.44772 81 8 81H9V72H8C7.44772 72 7 71.5523 7 71C7 70.4477 7.44772 70 8 70H9V60H8C7.44772 60 7 59.5523 7 59C7 58.4477 7.44772 58 8 58H9V25V22V11.5C9 11.2239 9.22386 11 9.5 11ZM10 158H14V156H10V158ZM15 158H19V156H15V158ZM19 152V154H15V152H19ZM14 152V154H10V152H14ZM10 150H14V148H10V150ZM15 150H19V148H15V150ZM19 144V146H15V144H19ZM14 144V146H10V144H14ZM10 142H14V139H10V142ZM15 142H19V139H15V142ZM19 134V137H15V134H19ZM14 134V137H10V134H14ZM10 132H14V129H10V132ZM15 132H19V129H15V132ZM19 123V127H15V123H19ZM14 123V127H10V123H14ZM10 121H14V117H10V121ZM15 121H19V117H15V121ZM19 110V115H15V110H19ZM14 110V115H10V110H14ZM10 108H14V102H10V108ZM15 108H19V102H15V108ZM19 93V100H15V93H19ZM14 93V100H10V93H14ZM10 91H14V83H10V91ZM15 91H19V83H15V91ZM19 72V81H15V72H19ZM14 72V81H10V72H14ZM10 70H14V60H10V70ZM15 70H19V60H15V70Z" fill="black"/>
</svg>
