<svg width="192" height="224" viewBox="0 0 192 224" fill="none" xmlns="http://www.w3.org/2000/svg">
<path d="M110.5 194.5L109 207C109 207 102 208 96 208C90 208 83 207 83 207L81.5 194.5M110.5 194.5C110.5 194.5 109.5 192 109.5 187.5C109.5 183 112 177 112 177V40M110.5 194.5C110.5 194.5 101.676 195.5 96 195.5C90.3239 195.5 81.5 194.5 81.5 194.5M112 40H96H80M112 40L110.5 27.75M80 40V177C80 177 82.5785 183 82.5785 187.5C82.5785 192 81.5 194.5 81.5 194.5M80 40L81.5 27.75M81.5 27.75L83 16C83 16 92.3431 15 96 15C99.6569 15 109 16 109 16L110.5 27.75M81.5 27.75C81.5 27.75 85.985 25.75 88.875 25.75C91.765 25.75 93.11 27.75 96 27.75C98.89 27.75 100.235 25.75 103.125 25.75C106.015 25.75 110.5 27.75 110.5 27.75" stroke="black" stroke-width="2"/>
<path fill-rule="evenodd" clip-rule="evenodd" d="M133.533 161.551C133.8 161.62 133.961 161.893 133.892 162.16L124.076 200.09C124.007 200.358 123.734 200.518 123.467 200.449C123.199 200.38 123.039 200.107 123.108 199.84L132.924 161.909C132.993 161.642 133.266 161.481 133.533 161.551Z" fill="black"/>
<path d="M106.5 203.5L107 198C107 198 100.508 198.5 96 198.5C91.492 198.5 85 198 85 198L85.5 203.5C85.5 203.5 91.8809 204.5 96 204.5C100.119 204.5 106.5 203.5 106.5 203.5Z" stroke="black"/>
<path fill-rule="evenodd" clip-rule="evenodd" d="M110.5 194.5C110.5 194.5 109.5 192 109.5 187.5C109.5 183 112 177 112 177C112 177 107 178 96 178C85 178 80 177 80 177C80 177 82.5785 183 82.5785 187.5C82.5785 192 81.5 194.5 81.5 194.5C81.5 194.5 90.3239 195.5 96 195.5C101.676 195.5 110.5 194.5 110.5 194.5ZM84 178V192.225C83.8392 192.202 83.6913 192.181 83.5568 192.162C83.2395 192.115 82.9964 192.076 82.8332 192.05C82.7516 192.036 82.69 192.026 82.6492 192.019L82.6035 192.011L82.5925 192.009L82.59 192.008L82.5894 192.008L82.5894 192.008L82.5 192.5C82.4106 192.992 82.4106 192.992 82.4107 192.992L82.4111 192.992L82.4121 192.992L82.4156 192.993L82.4286 192.995L82.4783 193.004C82.5219 193.011 82.5863 193.022 82.6707 193.036C82.8395 193.064 83.0886 193.104 83.412 193.151C84.0587 193.246 85.0029 193.371 86.1977 193.497C88.5868 193.749 91.9796 194 96 194C100.02 194 103.413 193.749 105.802 193.497C106.997 193.371 107.941 193.246 108.588 193.151C108.911 193.104 109.16 193.064 109.329 193.036C109.414 193.022 109.478 193.011 109.522 193.004L109.571 192.995L109.584 192.993L109.588 192.992L109.589 192.992L109.589 192.992C109.589 192.992 109.589 192.992 109.5 192.5L109.411 192.008L109.411 192.008L109.41 192.008L109.408 192.009L109.397 192.011L109.351 192.019C109.31 192.026 109.248 192.036 109.167 192.05C109.004 192.076 108.76 192.115 108.443 192.162C108.309 192.181 108.161 192.202 108 192.225V178H107V191.5L106.381 192.428C106.164 192.453 105.936 192.478 105.698 192.503C105.179 192.557 104.611 192.612 104 192.664V178H103V191L102.097 192.806C101.138 192.867 100.102 192.919 99 192.953V178H98V191L97.0026 192.995C96.6731 192.998 96.3388 193 96 193C95.6612 193 95.3269 192.998 94.9974 192.995L94 191V178H93V192.953C91.8975 192.919 90.8617 192.867 89.9029 192.806L89 191V178H88V192.664C87.3886 192.612 86.8214 192.557 86.3023 192.503C86.0641 192.478 85.836 192.453 85.6185 192.428L85 191.5V178H84Z" fill="black"/>
<path fill-rule="evenodd" clip-rule="evenodd" d="M104 25.5C104 25.2239 103.776 25 103.5 25C103.224 25 103 25.2239 103 25.5V35H102V39H103V41H102L103 43V57H102C101.448 57 101 57.4477 101 58C101 58.5523 101.448 59 102 59H103V178H104V59H105C105.552 59 106 58.5523 106 58C106 57.4477 105.552 57 105 57H104V39V35V25.5ZM84.5 26C84.7761 26 85 26.2239 85 26.5V36H86V39H85V41H86L85 42V51H86C86.5523 51 87 51.4477 87 52C87 52.5523 86.5523 53 86 53H85V178H84V53H83C82.4477 53 82 52.5523 82 52C82 51.4477 82.4477 51 83 51H84V39V36V26.5C84 26.2239 84.2239 26 84.5 26ZM106 44C105.448 44 105 44.4477 105 45C105 45.5523 105.448 46 106 46H107V178H108V46H109C109.552 46 110 45.5523 110 45C110 44.4477 109.552 44 109 44H108V39V36V26.5C108 26.2239 107.776 26 107.5 26C107.224 26 107 26.2239 107 26.5V36H106V39H107V41H106L107 42V44H106ZM88.5 25C88.7761 25 89 25.2239 89 25.5V36H90V39H89V41H90L89 43V72H93V39V34V27C93 26.7239 93.2239 26.5 93.5 26.5C93.7761 26.5 94 26.7239 94 27V34H95V39H94V41H95L94 43V72H98V43L97 41H98V39H97V36H98V27C98 26.7239 98.2239 26.5 98.5 26.5C98.7761 26.5 99 26.7239 99 27V36V39V72H100C100.552 72 101 72.4477 101 73C101 73.5523 100.552 74 100 74H99V84H100C100.552 84 101 84.4477 101 85C101 85.5523 100.552 86 100 86H99V95H100C100.552 95 101 95.4477 101 96C101 96.5523 100.552 97 100 97H99V105H100C100.552 105 101 105.448 101 106C101 106.552 100.552 107 100 107H99V114H100C100.552 114 101 114.448 101 115C101 115.552 100.552 116 100 116H99V122H100C100.552 122 101 122.448 101 123C101 123.552 100.552 124 100 124H99V129H100C100.552 129 101 129.448 101 130C101 130.552 100.552 131 100 131H99V135H100C100.552 135 101 135.448 101 136C101 136.552 100.552 137 100 137H99V141H100C100.552 141 101 141.448 101 142C101 142.552 100.552 143 100 143H99V146H100C100.552 146 101 146.448 101 147C101 147.552 100.552 148 100 148H99V151H100C100.552 151 101 151.448 101 152C101 152.552 100.552 153 100 153H99V156H100C100.552 156 101 156.448 101 157C101 157.552 100.552 158 100 158H99V160H100C100.552 160 101 160.448 101 161C101 161.552 100.552 162 100 162H99V164H100C100.552 164 101 164.448 101 165C101 165.552 100.552 166 100 166H99V168H100C100.552 168 101 168.448 101 169C101 169.552 100.552 170 100 170H99V172H100C100.552 172 101 172.448 101 173C101 173.552 100.552 174 100 174H99V178H98V174H94V178H93V174H89V178H88V174H87C86.4477 174 86 173.552 86 173C86 172.448 86.4477 172 87 172H88V170H87C86.4477 170 86 169.552 86 169C86 168.448 86.4477 168 87 168H88V166H87C86.4477 166 86 165.552 86 165C86 164.448 86.4477 164 87 164H88V162H87C86.4477 162 86 161.552 86 161C86 160.448 86.4477 160 87 160H88V158H87C86.4477 158 86 157.552 86 157C86 156.448 86.4477 156 87 156H88V153H87C86.4477 153 86 152.552 86 152C86 151.448 86.4477 151 87 151H88V148H87C86.4477 148 86 147.552 86 147C86 146.448 86.4477 146 87 146H88V143H87C86.4477 143 86 142.552 86 142C86 141.448 86.4477 141 87 141H88V137H87C86.4477 137 86 136.552 86 136C86 135.448 86.4477 135 87 135H88V131H87C86.4477 131 86 130.552 86 130C86 129.448 86.4477 129 87 129H88V124H87C86.4477 124 86 123.552 86 123C86 122.448 86.4477 122 87 122H88V116H87C86.4477 116 86 115.552 86 115C86 114.448 86.4477 114 87 114H88V107H87C86.4477 107 86 106.552 86 106C86 105.448 86.4477 105 87 105H88V97H87C86.4477 97 86 96.5523 86 96C86 95.4477 86.4477 95 87 95H88V86H87C86.4477 86 86 85.5523 86 85C86 84.4477 86.4477 84 87 84H88V74H87C86.4477 74 86 73.5523 86 73C86 72.4477 86.4477 72 87 72H88V39V36V25.5C88 25.2239 88.2239 25 88.5 25ZM89 172H93V170H89V172ZM94 172H98V170H94V172ZM98 166V168H94V166H98ZM93 166V168H89V166H93ZM89 164H93V162H89V164ZM94 164H98V162H94V164ZM98 158V160H94V158H98ZM93 158V160H89V158H93ZM89 156H93V153H89V156ZM94 156H98V153H94V156ZM98 148V151H94V148H98ZM93 148V151H89V148H93ZM89 146H93V143H89V146ZM94 146H98V143H94V146ZM98 137V141H94V137H98ZM93 137V141H89V137H93ZM89 135H93V131H89V135ZM94 135H98V131H94V135ZM98 124V129H94V124H98ZM93 124V129H89V124H93ZM89 122H93V116H89V122ZM94 122H98V116H94V122ZM98 107V114H94V107H98ZM93 107V114H89V107H93ZM89 105H93V97H89V105ZM94 105H98V97H94V105ZM98 86V95H94V86H98ZM93 86V95H89V86H93ZM89 84H93V74H89V84ZM94 84H98V74H94V84Z" fill="black"/>
</svg>
