<svg width="224" height="224" viewBox="0 0 224 224" fill="none" xmlns="http://www.w3.org/2000/svg">
<path fill-rule="evenodd" clip-rule="evenodd" d="M97.8224 166.007C96.9371 166.077 96.2909 166.667 95.8554 167.32C95.3887 168.02 95.0419 168.959 94.7799 170.007C94.2521 172.119 94 174.959 94 178C94 181.041 94.2521 183.881 94.7799 185.993C95.0419 187.041 95.3887 187.98 95.8554 188.68C96.2909 189.333 96.9371 189.923 97.8224 189.993C97.8668 190.007 97.9218 190.024 97.9871 190.043C98.1785 190.101 98.4582 190.182 98.8205 190.279C99.5449 190.472 100.6 190.727 101.938 190.982C104.613 191.492 108.427 192 113 192C117.612 192 121.214 191.231 123.676 190.454C124.907 190.065 125.852 189.674 126.497 189.377C126.82 189.228 127.067 189.102 127.237 189.012C127.322 188.967 127.388 188.93 127.434 188.904C127.457 188.891 127.476 188.88 127.489 188.872L127.505 188.863L127.511 188.86L127.513 188.858C127.513 188.858 127.514 188.857 127 188L127.514 188.857L127.669 188.765L127.781 188.625L127 188C127.781 188.625 127.782 188.624 127.782 188.624L127.785 188.62L127.789 188.614L127.801 188.599C127.809 188.588 127.819 188.575 127.831 188.558C127.855 188.526 127.885 188.482 127.921 188.428C127.993 188.319 128.087 188.166 128.195 187.963C128.411 187.557 128.685 186.954 128.952 186.117C129.488 184.443 130 181.839 130 178C130 174.161 129.488 171.557 128.952 169.883C128.685 169.046 128.411 168.443 128.195 168.037C128.087 167.834 127.993 167.681 127.921 167.572C127.885 167.518 127.855 167.474 127.831 167.442C127.819 167.425 127.809 167.412 127.801 167.401L127.789 167.386L127.785 167.38L127.782 167.376C127.782 167.376 127.781 167.375 127 168L127.781 167.375L127.669 167.235L127.514 167.143L127 168C127.514 167.143 127.514 167.143 127.514 167.143L127.513 167.142L127.511 167.14L127.505 167.137L127.489 167.128C127.476 167.12 127.457 167.109 127.434 167.096C127.388 167.07 127.322 167.033 127.237 166.988C127.067 166.898 126.82 166.772 126.497 166.623C125.852 166.326 124.907 165.935 123.676 165.546C121.214 164.769 117.612 164 113 164C108.427 164 104.613 164.508 101.938 165.018C100.6 165.273 99.5449 165.528 98.8205 165.721C98.4582 165.818 98.1785 165.899 97.9871 165.957C97.9218 165.976 97.8668 165.993 97.8224 166.007ZM100.216 167.431C100.647 168.118 100.972 169.014 101.22 170.007C101.748 172.119 102 174.959 102 178C102 181.041 101.748 183.881 101.22 185.993C100.972 186.986 100.647 187.882 100.216 188.569C100.795 188.708 101.498 188.863 102.312 189.018C104.887 189.508 108.573 190 113 190C117.388 190 120.786 189.269 123.074 188.546C124.218 188.185 125.085 187.826 125.659 187.561C125.946 187.428 126.16 187.32 126.298 187.246C126.3 187.245 126.303 187.244 126.305 187.242C126.339 187.186 126.381 187.113 126.43 187.022C126.589 186.725 126.815 186.233 127.048 185.508C127.512 184.057 128 181.661 128 178C128 174.339 127.512 171.943 127.048 170.492C126.815 169.767 126.589 169.275 126.43 168.978C126.381 168.887 126.339 168.814 126.305 168.758C126.303 168.756 126.3 168.755 126.298 168.754C126.16 168.68 125.946 168.572 125.659 168.439C125.085 168.174 124.218 167.815 123.074 167.454C120.786 166.731 117.388 166 113 166C108.573 166 104.887 166.492 102.312 166.982C101.498 167.137 100.795 167.292 100.216 167.431ZM96.7201 170.493C96.2479 172.381 96 175.041 96 178C96 180.959 96.2479 183.619 96.7201 185.507C96.9581 186.459 97.2363 187.145 97.5196 187.57C97.8054 187.999 97.977 188 98 188C98.023 188 98.1946 187.999 98.4804 187.57C98.7637 187.145 99.0419 186.459 99.2799 185.507C99.7521 183.619 100 180.959 100 178C100 175.041 99.7521 172.381 99.2799 170.493C99.0419 169.541 98.7637 168.855 98.4804 168.43C98.1946 168.001 98.023 168 98 168C97.977 168 97.8054 168.001 97.5196 168.43C97.2363 168.855 96.9581 169.541 96.7201 170.493Z" fill="black"/>
<path fill-rule="evenodd" clip-rule="evenodd" d="M96.5 174C96.5 173.448 96.9477 173 97.5 173H98.5C99.0523 173 99.5 173.448 99.5 174C99.5 174.552 99.0523 175 98.5 175H97.5C96.9477 175 96.5 174.552 96.5 174Z" fill="black"/>
<path fill-rule="evenodd" clip-rule="evenodd" d="M97.0007 173.983L99.9996 82.0164L99.0001 81.9838L95.999 174.017L97.5023 189.05L98.4974 188.95L97.0007 173.983Z" fill="black"/>
<path fill-rule="evenodd" clip-rule="evenodd" d="M112.371 77.3352L98.371 92.8352L97.6289 92.1649L111.629 76.6649L112.371 77.3352Z" fill="black"/>
<path fill-rule="evenodd" clip-rule="evenodd" d="M97.0004 173.98L98.9999 62.509L98 62.4911L95.9995 174.021L97.5024 189.05L98.4975 188.95L97.0004 173.98Z" fill="black"/>
<path fill-rule="evenodd" clip-rule="evenodd" d="M98.7281 73.5H99.534C99.5718 73.6305 99.6121 73.7808 99.6527 73.9496C99.8247 74.6656 100 75.7116 100 77C100 78.2884 99.8247 79.3344 99.6527 80.0504C99.6121 80.2192 99.5718 80.3695 99.534 80.5H98.7281C98.7312 80.4809 98.7343 80.4617 98.7374 80.4422C98.8696 79.617 99 78.4387 99 77C99 75.5613 98.8696 74.383 98.7374 73.5578C98.7343 73.5383 98.7312 73.5191 98.7281 73.5ZM101.602 80.5H102.75C103.416 80.1008 104.091 79.2684 104.654 78.3623C104.944 77.8942 105.178 77.4515 105.339 77.1254C105.361 77.0813 105.381 77.0394 105.4 77C105.381 76.9606 105.361 76.9187 105.339 76.8746C105.178 76.5485 104.944 76.1058 104.654 75.6377C104.091 74.7316 103.416 73.8992 102.75 73.5H101.602C101.803 74.3438 102 75.5412 102 77C102 78.4588 101.803 79.6562 101.602 80.5ZM107.138 76C107.136 75.9964 107.134 75.9929 107.132 75.9893C106.951 75.6217 106.686 75.1196 106.353 74.5827C105.719 73.5613 104.716 72.212 103.431 71.5979L103.227 71.5H97.5C96.7437 71.5 96.2841 72.0716 96.0711 72.4003C95.8183 72.7905 95.6244 73.2809 95.4768 73.7706C95.1787 74.7592 95 75.9814 95 77C95 78.0186 95.1787 79.2408 95.4768 80.2294C95.6244 80.7191 95.8183 81.2095 96.0711 81.5997C96.2841 81.9284 96.7437 82.5 97.5 82.5H103.227L103.431 82.4021C104.716 81.788 105.719 80.4387 106.353 79.4173C106.686 78.8804 106.951 78.3783 107.132 78.0107C107.134 78.0071 107.136 78.0036 107.138 78H115C115.552 78 116 77.5523 116 77C116 76.4477 115.552 76 115 76H107.138Z" fill="black"/>
<path fill-rule="evenodd" clip-rule="evenodd" d="M98.7281 53.5H99.534C99.5718 53.6305 99.6121 53.7808 99.6527 53.9496C99.8247 54.6656 100 55.7116 100 57C100 58.2884 99.8247 59.3344 99.6527 60.0504C99.6121 60.2192 99.5718 60.3695 99.534 60.5H98.7281C98.7312 60.4809 98.7343 60.4617 98.7374 60.4422C98.8696 59.617 99 58.4387 99 57C99 55.5613 98.8696 54.383 98.7374 53.5578C98.7343 53.5383 98.7312 53.5191 98.7281 53.5ZM101.602 60.5H102.75C103.416 60.1008 104.091 59.2684 104.654 58.3623C104.944 57.8942 105.178 57.4515 105.339 57.1254C105.361 57.0813 105.381 57.0394 105.4 57C105.381 56.9606 105.361 56.9187 105.339 56.8746C105.178 56.5485 104.944 56.1058 104.654 55.6377C104.091 54.7316 103.416 53.8992 102.75 53.5H101.602C101.803 54.3438 102 55.5412 102 57C102 58.4588 101.803 59.6562 101.602 60.5ZM107.138 56C107.136 55.9964 107.134 55.9929 107.132 55.9893C106.951 55.6217 106.686 55.1196 106.353 54.5827C105.719 53.5613 104.716 52.212 103.431 51.5979L103.227 51.5H97.5C96.7437 51.5 96.2841 52.0716 96.0711 52.4003C95.8183 52.7905 95.6244 53.2809 95.4768 53.7706C95.1787 54.7592 95 55.9814 95 57C95 58.0186 95.1787 59.2408 95.4768 60.2294C95.6244 60.7191 95.8183 61.2095 96.0711 61.5997C96.2841 61.9284 96.7437 62.5 97.5 62.5H103.227L103.431 62.4021C104.716 61.788 105.719 60.4387 106.353 59.4173C106.686 58.8804 106.951 58.3783 107.132 58.0107C107.134 58.0071 107.136 58.0036 107.138 58H115C115.552 58 116 57.5523 116 57C116 56.4477 115.552 56 115 56H107.138Z" fill="black"/>
<path d="M105 32C105 32 112 38 112 45C112 45 112 37 104 37C104 37 103 34 105 32Z" fill="black"/>
<path fill-rule="evenodd" clip-rule="evenodd" d="M105.651 31.2407L105 32C105.651 31.2407 105.651 31.2405 105.651 31.2407L105.654 31.2433L105.659 31.2481L105.678 31.2642C105.693 31.2778 105.716 31.2972 105.744 31.3222C105.8 31.3723 105.88 31.4448 105.981 31.5387C106.183 31.7263 106.468 31.9993 106.809 32.3481C107.489 33.0446 108.396 34.0486 109.305 35.2818C111.103 37.7221 113 41.1841 113 45V165C113 165.552 112.552 166 112 166C111.448 166 111 165.552 111 165V45.0009L111 44.9931C111 44.9836 110.999 44.9668 110.999 44.9434C110.997 44.8966 110.994 44.8234 110.987 44.7275C110.973 44.5353 110.945 44.2543 110.889 43.9144C110.775 43.2299 110.548 42.3325 110.106 41.4472C109.665 40.5658 109.02 39.7149 108.07 39.082C107.127 38.4534 105.825 38 104 38H103.279L103.051 37.3162L104 37C103.051 37.3162 103.051 37.3166 103.051 37.3162L103.051 37.3146L103.05 37.3127L103.049 37.308L103.045 37.2953C103.041 37.2854 103.037 37.2726 103.033 37.257C103.023 37.2257 103.011 37.1831 102.996 37.1303C102.967 37.0247 102.931 36.8773 102.894 36.6961C102.822 36.3357 102.75 35.8309 102.75 35.25C102.75 34.0958 103.039 32.5465 104.293 31.2929L104.948 30.6381L105.651 31.2407ZM104.95 36.6879C104.95 36.688 104.95 36.688 104.95 36.6879V36.6879ZM104.808 36.0261C104.775 35.8027 104.75 35.5379 104.75 35.25C104.75 34.6821 104.845 34.067 105.133 33.4982C105.211 33.5751 105.292 33.6577 105.378 33.7456C106.011 34.3929 106.854 35.3263 107.695 36.4682C107.756 36.5512 107.817 36.6351 107.878 36.7199C106.995 36.3481 105.977 36.1032 104.808 36.0261Z" fill="black"/>
<path fill-rule="evenodd" clip-rule="evenodd" d="M52.8622 90.5954C52.8866 90.8708 52.6831 91.1133 52.4077 91.1371L49.3796 91.3983L176.313 197.908L174.26 198.796L79.7419 119.486L78.3401 117.208L77.7913 119.515C77.7274 119.784 77.4574 119.95 77.1884 119.885C76.9193 119.821 76.753 119.551 76.817 119.282L77.261 117.415L46.1321 92.6062L47.8804 90.5226L52.3192 90.1398C52.5946 90.116 52.8378 90.32 52.8622 90.5954ZM78.0808 116.787L78.0838 116.792L47.5593 92.4649L48.1939 91.7087L78.0808 116.787Z" fill="black"/>
</svg>
