<svg width="136" height="178" viewBox="0 0 136 178" fill="none" xmlns="http://www.w3.org/2000/svg">
<path fill-rule="evenodd" clip-rule="evenodd" d="M53.8224 143.007C52.9371 143.077 52.2909 143.667 51.8554 144.32C51.3887 145.02 51.0419 145.959 50.7799 147.007C50.2521 149.119 50 151.959 50 155C50 158.041 50.2521 160.881 50.7799 162.993C51.0419 164.041 51.3887 164.98 51.8554 165.68C52.2909 166.333 52.9371 166.923 53.8224 166.993C53.8668 167.007 53.9218 167.024 53.9871 167.043C54.1785 167.101 54.4582 167.182 54.8205 167.279C55.5449 167.472 56.5997 167.727 57.9379 167.982C60.6135 168.492 64.4268 169 69 169C73.6124 169 77.214 168.231 79.6761 167.454C80.9068 167.065 81.8524 166.674 82.4972 166.377C82.8196 166.228 83.0668 166.102 83.237 166.012C83.3221 165.967 83.3879 165.93 83.4342 165.904C83.4574 165.891 83.4757 165.88 83.4891 165.872L83.5055 165.863L83.5109 165.86L83.5129 165.858C83.5129 165.858 83.5145 165.857 83 165L83.5145 165.857L83.6686 165.765L83.7809 165.625L83 165C83.7809 165.625 83.7818 165.624 83.7818 165.624L83.7848 165.62L83.7894 165.614L83.8007 165.599C83.8092 165.588 83.8194 165.575 83.8312 165.558C83.8549 165.526 83.8852 165.482 83.921 165.428C83.9927 165.319 84.0866 165.166 84.1949 164.963C84.4115 164.557 84.6846 163.954 84.9524 163.117C85.4881 161.443 86 158.839 86 155C86 151.161 85.4881 148.557 84.9524 146.883C84.6846 146.046 84.4115 145.443 84.1949 145.037C84.0866 144.834 83.9927 144.681 83.921 144.572C83.8852 144.518 83.8549 144.474 83.8312 144.442C83.8194 144.425 83.8092 144.412 83.8007 144.401L83.7894 144.386L83.7848 144.38L83.7818 144.376C83.7818 144.376 83.7809 144.375 83 145L83.7809 144.375L83.6686 144.235L83.5145 144.143L83 145C83.5145 144.143 83.5145 144.143 83.5145 144.143L83.5129 144.142L83.5109 144.14L83.5055 144.137L83.4891 144.128C83.4757 144.12 83.4574 144.109 83.4342 144.096C83.3879 144.07 83.3221 144.033 83.237 143.988C83.0668 143.898 82.8196 143.772 82.4972 143.623C81.8524 143.326 80.9068 142.935 79.6761 142.546C77.214 141.769 73.6124 141 69 141C64.4268 141 60.6135 141.508 57.9379 142.018C56.5997 142.273 55.5449 142.528 54.8205 142.721C54.4582 142.818 54.1785 142.899 53.9871 142.957C53.9218 142.976 53.8668 142.993 53.8224 143.007ZM56.2162 144.431C56.647 145.118 56.9717 146.014 57.2201 147.007C57.7479 149.119 58 151.959 58 155C58 158.041 57.7479 160.881 57.2201 162.993C56.9717 163.986 56.647 164.882 56.2162 165.569C56.7952 165.708 57.4977 165.863 58.3121 166.018C60.8865 166.508 64.5732 167 69 167C73.3876 167 76.786 166.269 79.0739 165.546C80.2182 165.185 81.0851 164.826 81.6591 164.561C81.946 164.428 82.1597 164.32 82.2981 164.246C82.3004 164.245 82.3026 164.244 82.3048 164.242C82.339 164.186 82.3814 164.113 82.4301 164.022C82.5885 163.725 82.8154 163.233 83.0476 162.508C83.5119 161.057 84 158.661 84 155C84 151.339 83.5119 148.943 83.0476 147.492C82.8154 146.767 82.5885 146.275 82.4301 145.978C82.3814 145.887 82.339 145.814 82.3048 145.758C82.3026 145.756 82.3004 145.755 82.2981 145.754C82.1597 145.68 81.946 145.572 81.6591 145.439C81.0851 145.174 80.2182 144.815 79.0739 144.454C76.786 143.731 73.3876 143 69 143C64.5732 143 60.8865 143.492 58.3121 143.982C57.4977 144.137 56.7952 144.292 56.2162 144.431ZM52.7201 147.493C52.2479 149.381 52 152.041 52 155C52 157.959 52.2479 160.619 52.7201 162.507C52.9581 163.459 53.2363 164.145 53.5196 164.57C53.8054 164.999 53.977 165 54 165C54.023 165 54.1946 164.999 54.4804 164.57C54.7637 164.145 55.0419 163.459 55.2799 162.507C55.7521 160.619 56 157.959 56 155C56 152.041 55.7521 149.381 55.2799 147.493C55.0419 146.541 54.7637 145.855 54.4804 145.43C54.1946 145.001 54.023 145 54 145C53.977 145 53.8054 145.001 53.5196 145.43C53.2363 145.855 52.9581 146.541 52.7201 147.493Z" fill="black"/>
<path fill-rule="evenodd" clip-rule="evenodd" d="M52.5 151C52.5 150.448 52.9477 150 53.5 150H54.5C55.0523 150 55.5 150.448 55.5 151C55.5 151.552 55.0523 152 54.5 152H53.5C52.9477 152 52.5 151.552 52.5 151Z" fill="black"/>
<path fill-rule="evenodd" clip-rule="evenodd" d="M53.0007 150.983L55.9996 59.0164L55.0001 58.9838L51.999 151.017L53.5023 166.05L54.4974 165.95L53.0007 150.983Z" fill="black"/>
<path fill-rule="evenodd" clip-rule="evenodd" d="M68.371 54.3352L54.371 69.8352L53.6289 69.1649L67.6289 53.6649L68.371 54.3352Z" fill="black"/>
<path fill-rule="evenodd" clip-rule="evenodd" d="M53.0004 150.98L54.9999 39.509L54 39.4911L51.9995 151.021L53.5024 166.05L54.4975 165.95L53.0004 150.98Z" fill="black"/>
<path fill-rule="evenodd" clip-rule="evenodd" d="M54.7281 50.5H55.534C55.5718 50.6305 55.6121 50.7808 55.6527 50.9496C55.8247 51.6656 56 52.7116 56 54C56 55.2884 55.8247 56.3344 55.6527 57.0504C55.6121 57.2192 55.5718 57.3695 55.534 57.5H54.7281C54.7312 57.4809 54.7343 57.4617 54.7374 57.4422C54.8696 56.617 55 55.4387 55 54C55 52.5613 54.8696 51.383 54.7374 50.5578C54.7343 50.5383 54.7312 50.5191 54.7281 50.5ZM57.6016 57.5H58.75C59.4164 57.1008 60.091 56.2684 60.6536 55.3623C60.9442 54.8942 61.1779 54.4515 61.3389 54.1254C61.3607 54.0813 61.381 54.0394 61.4 54C61.381 53.9606 61.3607 53.9187 61.3389 53.8746C61.1779 53.5485 60.9442 53.1058 60.6536 52.6377C60.091 51.7316 59.4164 50.8992 58.75 50.5H57.6016C57.803 51.3438 58 52.5412 58 54C58 55.4588 57.803 56.6562 57.6016 57.5ZM63.1375 53C63.1358 52.9964 63.134 52.9929 63.1323 52.9893C62.9508 52.6217 62.686 52.1196 62.3527 51.5827C61.7186 50.5613 60.7156 49.212 59.4315 48.5979L59.2268 48.5H53.5C52.7437 48.5 52.2841 49.0716 52.0711 49.4003C51.8183 49.7905 51.6244 50.2809 51.4768 50.7706C51.1787 51.7592 51 52.9814 51 54C51 55.0186 51.1787 56.2408 51.4768 57.2294C51.6244 57.7191 51.8183 58.2095 52.0711 58.5997C52.2841 58.9284 52.7437 59.5 53.5 59.5H59.2268L59.4315 59.4021C60.7156 58.788 61.7186 57.4387 62.3527 56.4173C62.686 55.8804 62.9508 55.3783 63.1323 55.0107C63.134 55.0071 63.1358 55.0036 63.1375 55H71C71.5523 55 72 54.5523 72 54C72 53.4477 71.5523 53 71 53H63.1375Z" fill="black"/>
<path fill-rule="evenodd" clip-rule="evenodd" d="M54.7281 30.5H55.534C55.5718 30.6305 55.6121 30.7808 55.6527 30.9496C55.8247 31.6656 56 32.7116 56 34C56 35.2884 55.8247 36.3344 55.6527 37.0504C55.6121 37.2192 55.5718 37.3695 55.534 37.5H54.7281C54.7312 37.4809 54.7343 37.4617 54.7374 37.4422C54.8696 36.617 55 35.4387 55 34C55 32.5613 54.8696 31.383 54.7374 30.5578C54.7343 30.5383 54.7312 30.5191 54.7281 30.5ZM57.6016 37.5H58.75C59.4164 37.1008 60.091 36.2684 60.6536 35.3623C60.9442 34.8942 61.1779 34.4515 61.3389 34.1254C61.3607 34.0813 61.381 34.0394 61.4 34C61.381 33.9606 61.3607 33.9187 61.3389 33.8746C61.1779 33.5485 60.9442 33.1058 60.6536 32.6377C60.091 31.7316 59.4164 30.8992 58.75 30.5H57.6016C57.803 31.3438 58 32.5412 58 34C58 35.4588 57.803 36.6562 57.6016 37.5ZM63.1375 33C63.1358 32.9964 63.134 32.9929 63.1323 32.9893C62.9508 32.6217 62.686 32.1196 62.3527 31.5827C61.7186 30.5613 60.7156 29.212 59.4315 28.5979L59.2268 28.5H53.5C52.7437 28.5 52.2841 29.0716 52.0711 29.4003C51.8183 29.7905 51.6244 30.2809 51.4768 30.7706C51.1787 31.7592 51 32.9814 51 34C51 35.0186 51.1787 36.2408 51.4768 37.2294C51.6244 37.7191 51.8183 38.2095 52.0711 38.5997C52.2841 38.9284 52.7437 39.5 53.5 39.5H59.2268L59.4315 39.4021C60.7156 38.788 61.7186 37.4387 62.3527 36.4173C62.686 35.8804 62.9508 35.3783 63.1323 35.0107C63.134 35.0071 63.1358 35.0036 63.1375 35H71C71.5523 35 72 34.5523 72 34C72 33.4477 71.5523 33 71 33H63.1375Z" fill="black"/>
<path d="M61 9C61 9 68 15 68 22C68 22 68 14 60 14C60 14 59 11 61 9Z" fill="black"/>
<path fill-rule="evenodd" clip-rule="evenodd" d="M61.6508 8.24071L61 8.99997C61.6508 8.24071 61.6505 8.24049 61.6508 8.24071L61.6538 8.24329L61.6593 8.24806L61.6778 8.26418C61.6935 8.27781 61.7155 8.29722 61.7436 8.32224C61.7998 8.37228 61.8802 8.44483 61.9812 8.53866C62.1833 8.72625 62.4685 8.99933 62.8091 9.34811C63.4894 10.0446 64.3964 11.0486 65.3051 12.2818C67.1032 14.7221 69 18.1841 69 22V142C69 142.552 68.5523 143 68 143C67.4477 143 67 142.552 67 142V22.0009L66.9999 21.9931C66.9997 21.9836 66.9994 21.9668 66.9986 21.9434C66.997 21.8966 66.9938 21.8234 66.9869 21.7275C66.9732 21.5353 66.9453 21.2543 66.8886 20.9144C66.7745 20.2299 66.5482 19.3325 66.1056 18.4472C65.6649 17.5658 65.0196 16.7149 64.0703 16.082C63.1273 15.4534 61.825 15 60 15H59.2792L59.0513 14.3162L60 14C59.0513 14.3162 59.0514 14.3166 59.0513 14.3162L59.0508 14.3146L59.0501 14.3127L59.0486 14.308L59.0445 14.2953C59.0414 14.2854 59.0373 14.2726 59.0326 14.257C59.0231 14.2257 59.0106 14.1831 58.9962 14.1303C58.9674 14.0247 58.9307 13.8773 58.8944 13.6961C58.8223 13.3357 58.75 12.8309 58.75 12.25C58.75 11.0958 59.0392 9.54654 60.2929 8.29286L60.9477 7.63806L61.6508 8.24071ZM60.9501 13.6879C60.9501 13.688 60.9501 13.688 60.9501 13.6879V13.6879ZM60.8076 13.0261C60.7749 12.8027 60.75 12.5379 60.75 12.25C60.75 11.6821 60.845 11.067 61.1333 10.4982C61.2106 10.5751 61.2925 10.6577 61.3784 10.7456C62.0106 11.3929 62.8536 12.3263 63.6949 13.4682C63.7561 13.5512 63.8171 13.6351 63.878 13.7199C62.9948 13.3481 61.9766 13.1032 60.8076 13.0261Z" fill="black"/>
<path fill-rule="evenodd" clip-rule="evenodd" d="M8.8622 67.5954C8.88664 67.8708 8.68314 68.1133 8.40768 68.1371L5.37965 68.3983L132.313 174.908L130.26 175.796L35.7419 96.486L34.3401 94.2081L33.7913 96.5155C33.7274 96.7843 33.4574 96.9498 33.1884 96.8853C32.9193 96.8207 32.753 96.5505 32.817 96.2817L33.261 94.4146L2.13211 69.6062L3.88044 67.5226L8.31919 67.1398C8.59465 67.116 8.83776 67.32 8.8622 67.5954ZM34.0808 93.7868L34.0838 93.7916L3.5593 69.4649L4.19385 68.7087L34.0808 93.7868Z" fill="black"/>
</svg>
