<svg width="134" height="182" viewBox="0 0 134 182" fill="none" xmlns="http://www.w3.org/2000/svg">
<path fill-rule="evenodd" clip-rule="evenodd" d="M61.8224 136.007C60.9371 136.077 60.2909 136.667 59.8554 137.32C59.3887 138.02 59.0419 138.959 58.7799 140.007C58.2521 142.119 58 144.959 58 148C58 151.041 58.2521 153.881 58.7799 155.993C59.0419 157.041 59.3887 157.98 59.8554 158.68C60.2909 159.333 60.9371 159.923 61.8224 159.993C61.8668 160.007 61.9218 160.024 61.9871 160.043C62.1785 160.101 62.4582 160.182 62.8205 160.279C63.5449 160.472 64.5997 160.727 65.9379 160.982C68.6135 161.492 72.4268 162 77 162C81.6124 162 85.214 161.231 87.6761 160.454C88.9068 160.065 89.8524 159.674 90.4972 159.377C90.8196 159.228 91.0668 159.102 91.237 159.012C91.3221 158.967 91.3879 158.93 91.4342 158.904C91.4574 158.891 91.4757 158.88 91.4891 158.872L91.5055 158.863L91.5109 158.86L91.5129 158.858C91.5133 158.858 91.5145 158.857 91 158L91.5145 158.857L91.6686 158.765L91.7809 158.625L91 158C91.7809 158.625 91.7813 158.624 91.7818 158.624L91.7848 158.62L91.7894 158.614L91.8007 158.599C91.8092 158.588 91.8194 158.575 91.8312 158.558C91.8549 158.526 91.8852 158.482 91.921 158.428C91.9927 158.319 92.0866 158.166 92.1949 157.963C92.4115 157.557 92.6846 156.954 92.9524 156.117C93.4881 154.443 94 151.839 94 148C94 144.161 93.4881 141.557 92.9524 139.883C92.6846 139.046 92.4115 138.443 92.1949 138.037C92.0866 137.834 91.9927 137.681 91.921 137.572C91.8852 137.518 91.8549 137.474 91.8312 137.442C91.8194 137.425 91.8092 137.412 91.8007 137.401L91.7894 137.386L91.7848 137.38L91.7818 137.376C91.7813 137.376 91.7809 137.375 91 138L91.7809 137.375L91.6686 137.235L91.5145 137.143L91 138C91.5145 137.143 91.5149 137.143 91.5145 137.143L91.5129 137.142L91.5109 137.14L91.5055 137.137L91.4891 137.128C91.4757 137.12 91.4574 137.109 91.4342 137.096C91.3879 137.07 91.3221 137.033 91.237 136.988C91.0668 136.898 90.8196 136.772 90.4972 136.623C89.8524 136.326 88.9068 135.935 87.6761 135.546C85.214 134.769 81.6124 134 77 134C72.4268 134 68.6135 134.508 65.9379 135.018C64.5997 135.273 63.5449 135.528 62.8205 135.721C62.4582 135.818 62.1785 135.899 61.9871 135.957C61.9218 135.976 61.8668 135.993 61.8224 136.007ZM64.2162 137.431C64.647 138.118 64.9717 139.014 65.2201 140.007C65.7479 142.119 66 144.959 66 148C66 151.041 65.7479 153.881 65.2201 155.993C64.9717 156.986 64.647 157.882 64.2162 158.569C64.7952 158.708 65.4977 158.863 66.3121 159.018C68.8865 159.508 72.5732 160 77 160C81.3876 160 84.786 159.269 87.0739 158.546C88.2182 158.185 89.0851 157.826 89.6591 157.561C89.946 157.428 90.1597 157.32 90.2981 157.246C90.3004 157.245 90.3026 157.244 90.3048 157.242C90.339 157.186 90.3814 157.113 90.4301 157.022C90.5885 156.725 90.8154 156.233 91.0476 155.508C91.5119 154.057 92 151.661 92 148C92 144.339 91.5119 141.943 91.0476 140.492C90.8154 139.767 90.5885 139.275 90.4301 138.978C90.3814 138.887 90.339 138.814 90.3048 138.758C90.3026 138.756 90.3004 138.755 90.2981 138.754C90.1597 138.68 89.946 138.572 89.6591 138.439C89.0851 138.174 88.2182 137.815 87.0739 137.454C84.786 136.731 81.3876 136 77 136C72.5732 136 68.8865 136.492 66.3121 136.982C65.4977 137.137 64.7952 137.292 64.2162 137.431ZM90.4872 138.859C90.4875 138.859 90.4875 138.859 90.4872 138.859ZM60.7201 140.493C60.2479 142.381 60 145.041 60 148C60 150.959 60.2479 153.619 60.7201 155.507C60.9581 156.459 61.2363 157.145 61.5196 157.57C61.8054 157.999 61.977 158 62 158C62.023 158 62.1946 157.999 62.4804 157.57C62.7637 157.145 63.0419 156.459 63.2799 155.507C63.7521 153.619 64 150.959 64 148C64 145.041 63.7521 142.381 63.2799 140.493C63.0419 139.541 62.7637 138.855 62.4804 138.43C62.1946 138.001 62.023 138 62 138C61.977 138 61.8054 138.001 61.5196 138.43C61.2363 138.855 60.9581 139.541 60.7201 140.493Z" fill="black"/>
<path fill-rule="evenodd" clip-rule="evenodd" d="M60.5 144C60.5 143.448 60.9477 143 61.5 143H62.5C63.0523 143 63.5 143.448 63.5 144C63.5 144.552 63.0523 145 62.5 145H61.5C60.9477 145 60.5 144.552 60.5 144Z" fill="black"/>
<path fill-rule="evenodd" clip-rule="evenodd" d="M61.0007 143.983L63.9996 52.0164L63.0001 51.9838L59.999 144.017L61.5023 159.05L62.4974 158.95L61.0007 143.983Z" fill="black"/>
<path fill-rule="evenodd" clip-rule="evenodd" d="M76.371 47.3352L62.371 62.8352L61.6289 62.1649L75.6289 46.6649L76.371 47.3352Z" fill="black"/>
<path fill-rule="evenodd" clip-rule="evenodd" d="M61.0004 143.98L62.9999 32.509L62 32.4911L59.9995 144.021L61.5024 159.05L62.4975 158.95L61.0004 143.98Z" fill="black"/>
<path fill-rule="evenodd" clip-rule="evenodd" d="M62.7281 43.5H63.534C63.5718 43.6305 63.6121 43.7808 63.6527 43.9496C63.8247 44.6656 64 45.7116 64 47C64 48.2884 63.8247 49.3344 63.6527 50.0504C63.6121 50.2192 63.5718 50.3695 63.534 50.5H62.7281C62.7312 50.4809 62.7343 50.4617 62.7374 50.4422C62.8696 49.617 63 48.4387 63 47C63 45.5613 62.8696 44.383 62.7374 43.5578C62.7343 43.5383 62.7312 43.5191 62.7281 43.5ZM65.6016 50.5H66.75C67.4164 50.1008 68.091 49.2684 68.6536 48.3623C68.9442 47.8942 69.1779 47.4515 69.3389 47.1254C69.3607 47.0813 69.381 47.0394 69.4 47C69.381 46.9606 69.3607 46.9187 69.3389 46.8746C69.1779 46.5485 68.9442 46.1058 68.6536 45.6377C68.091 44.7316 67.4164 43.8992 66.75 43.5H65.6016C65.803 44.3438 66 45.5412 66 47C66 48.4588 65.803 49.6562 65.6016 50.5ZM71.1375 46C71.1358 45.9964 71.134 45.9929 71.1323 45.9893C70.9508 45.6217 70.686 45.1196 70.3527 44.5827C69.7186 43.5613 68.7156 42.212 67.4315 41.5979L67.2268 41.5H61.5C60.7437 41.5 60.2841 42.0716 60.0711 42.4003C59.8183 42.7905 59.6244 43.2809 59.4768 43.7706C59.1787 44.7592 59 45.9814 59 47C59 48.0186 59.1787 49.2408 59.4768 50.2294C59.6244 50.7191 59.8183 51.2095 60.0711 51.5997C60.2841 51.9284 60.7437 52.5 61.5 52.5H67.2268L67.4315 52.4021C68.7156 51.788 69.7186 50.4387 70.3527 49.4173C70.686 48.8804 70.9508 48.3783 71.1323 48.0107C71.134 48.0071 71.1358 48.0036 71.1375 48H79C79.5523 48 80 47.5523 80 47C80 46.4477 79.5523 46 79 46H71.1375Z" fill="black"/>
<path fill-rule="evenodd" clip-rule="evenodd" d="M62.7281 23.5H63.534C63.5718 23.6305 63.6121 23.7808 63.6527 23.9496C63.8247 24.6656 64 25.7116 64 27C64 28.2884 63.8247 29.3344 63.6527 30.0504C63.6121 30.2192 63.5718 30.3695 63.534 30.5H62.7281C62.7312 30.4809 62.7343 30.4617 62.7374 30.4422C62.8696 29.617 63 28.4387 63 27C63 25.5613 62.8696 24.383 62.7374 23.5578C62.7343 23.5383 62.7312 23.5191 62.7281 23.5ZM65.6016 30.5H66.75C67.4164 30.1008 68.091 29.2684 68.6536 28.3623C68.9442 27.8942 69.1779 27.4515 69.3389 27.1254C69.3607 27.0813 69.381 27.0394 69.4 27C69.381 26.9606 69.3607 26.9187 69.3389 26.8746C69.1779 26.5485 68.9442 26.1058 68.6536 25.6377C68.091 24.7316 67.4164 23.8992 66.75 23.5H65.6016C65.803 24.3438 66 25.5412 66 27C66 28.4588 65.803 29.6562 65.6016 30.5ZM71.1375 26C71.1358 25.9964 71.134 25.9929 71.1323 25.9893C70.9508 25.6217 70.686 25.1196 70.3527 24.5827C69.7186 23.5613 68.7156 22.212 67.4315 21.5979L67.2268 21.5H61.5C60.7437 21.5 60.2841 22.0716 60.0711 22.4003C59.8183 22.7905 59.6244 23.2809 59.4768 23.7706C59.1787 24.7592 59 25.9814 59 27C59 28.0186 59.1787 29.2408 59.4768 30.2294C59.6244 30.7191 59.8183 31.2095 60.0711 31.5997C60.2841 31.9284 60.7437 32.5 61.5 32.5H67.2268L67.4315 32.4021C68.7156 31.788 69.7186 30.4387 70.3527 29.4173C70.686 28.8804 70.9508 28.3783 71.1323 28.0107C71.134 28.0071 71.1358 28.0036 71.1375 28H79C79.5523 28 80 27.5523 80 27C80 26.4477 79.5523 26 79 26H71.1375Z" fill="black"/>
<path d="M69 2C69 2 76 8 76 15C76 15 76 7 68 7C68 7 67 4 69 2Z" fill="black"/>
<path fill-rule="evenodd" clip-rule="evenodd" d="M69.6508 1.24071L69 1.99997C69.6508 1.24071 69.6505 1.24049 69.6508 1.24071L69.6538 1.24329L69.6593 1.24806L69.6778 1.26418C69.6935 1.27781 69.7155 1.29722 69.7436 1.32224C69.7998 1.37228 69.8802 1.44483 69.9812 1.53866C70.1833 1.72625 70.4685 1.99933 70.8091 2.34811C71.4894 3.04458 72.3964 4.04862 73.3051 5.28177C75.1032 7.72211 77 11.1841 77 15V135C77 135.552 76.5523 136 76 136C75.4477 136 75 135.552 75 135V15.0009L74.9999 14.9931C74.9997 14.9836 74.9994 14.9668 74.9986 14.9434C74.997 14.8966 74.9938 14.8234 74.9869 14.7275C74.9732 14.5353 74.9453 14.2543 74.8886 13.9144C74.7745 13.2299 74.5482 12.3325 74.1056 11.4472C73.6649 10.5658 73.0196 9.71486 72.0703 9.08202C71.1273 8.45335 69.825 7.99997 68 7.99997H67.2792L67.0513 7.3162L68 6.99997C67.0513 7.3162 67.0514 7.31659 67.0513 7.3162L67.0508 7.31457L67.0501 7.31267L67.0486 7.30801L67.0445 7.29534C67.0414 7.28543 67.0373 7.2726 67.0326 7.25695C67.0231 7.22568 67.0106 7.18312 66.9962 7.13028C66.9674 7.02473 66.9307 6.87729 66.8944 6.69609C66.8223 6.33568 66.75 5.83088 66.75 5.24997C66.75 4.09583 67.0392 2.54654 68.2929 1.29286L68.9477 0.638062L69.6508 1.24071ZM68.9501 6.68792C68.9501 6.68797 68.9501 6.68795 68.9501 6.68792ZM68.8076 6.02609C68.7749 5.80272 68.75 5.53788 68.75 5.24997C68.75 4.68211 68.845 4.06699 69.1333 3.49818C69.2106 3.57513 69.2925 3.65767 69.3784 3.74559C70.0106 4.39286 70.8536 5.32632 71.6949 6.46817C71.7561 6.55116 71.8171 6.6351 71.878 6.71994C70.9948 6.34812 69.9766 6.10321 68.8076 6.02609Z" fill="black"/>
<path fill-rule="evenodd" clip-rule="evenodd" d="M7.86318 71.5954C7.88761 71.8708 7.68412 72.1133 7.40866 72.1371L4.38062 72.3983L131.314 178.908L129.261 179.796L34.7428 100.486L33.341 98.2081L32.7923 100.515C32.7283 100.784 32.4584 100.95 32.1893 100.885C31.9203 100.821 31.754 100.551 31.8179 100.282L32.262 98.4146L1.13308 73.6062L2.88142 71.5226L7.32017 71.1398C7.59563 71.116 7.83874 71.32 7.86318 71.5954ZM33.0818 97.7868L33.0847 97.7916L2.56028 73.4649L3.19483 72.7087L33.0818 97.7868Z" fill="black"/>
</svg>
