<svg width="224" height="224" viewBox="0 0 224 224" fill="none" xmlns="http://www.w3.org/2000/svg">
<path fill-rule="evenodd" clip-rule="evenodd" d="M117 65V66V69.5V71.5V195.5V195.803L116.832 196.055L116 195.5C116.832 196.055 116.832 196.055 116.831 196.056L116.83 196.057L116.829 196.059L116.825 196.065L116.817 196.077C116.81 196.086 116.803 196.096 116.794 196.108C116.777 196.132 116.755 196.16 116.728 196.194C116.675 196.26 116.6 196.345 116.504 196.441C116.311 196.635 116.028 196.874 115.639 197.107C114.854 197.579 113.676 198 112 198C110.324 198 109.146 197.579 108.361 197.107C107.972 196.874 107.689 196.635 107.496 196.441C107.4 196.345 107.325 196.26 107.272 196.194C107.245 196.16 107.223 196.132 107.206 196.108C107.197 196.096 107.19 196.086 107.183 196.077L107.175 196.065L107.171 196.059L107.17 196.057L107.169 196.056C107.168 196.055 107.168 196.055 108 195.5L107.168 196.055L107 195.803V195.5V71.5V69.5V66V65H108V53V52H108.961L108.001 27.0384L107.961 26H109H115H116.039L115.999 27.0384L115.039 52H116V53V65H117ZM114 65.4214V54.5571C113.511 54.8423 112.852 55 112 55C111.148 55 110.489 54.8423 110 54.5571V65.4214C110.102 65.4738 110.217 65.53 110.344 65.5862C110.85 65.8113 111.452 66 112 66C112.548 66 113.15 65.8113 113.656 65.5862C113.783 65.53 113.898 65.4738 114 65.4214ZM109 67.1555V69.1113C109.091 69.1915 109.219 69.2903 109.389 69.3925C109.854 69.6715 110.676 70 112 70C113.324 70 114.146 69.6715 114.611 69.3925C114.781 69.2903 114.909 69.1915 115 69.1113V67.1555C114.848 67.2358 114.669 67.3248 114.469 67.4138C113.85 67.6887 112.952 68 112 68C111.048 68 110.15 67.6887 109.531 67.4138C109.331 67.3248 109.152 67.2358 109 67.1555ZM109 73.435V195.111C109.091 195.191 109.219 195.29 109.389 195.393C109.854 195.671 110.676 196 112 196C113.324 196 114.146 195.671 114.611 195.393C114.781 195.29 114.909 195.191 115 195.111V73.435C114.256 73.7576 113.271 74 112 74C110.729 74 109.744 73.7576 109 73.435ZM110.994 52.8206C111.024 52.84 111.077 52.8673 111.16 52.8951C111.316 52.9472 111.58 53 112 53C112.42 53 112.684 52.9472 112.84 52.8951C112.923 52.8673 112.976 52.84 113.006 52.8206L113.615 37H110.385L110.994 52.8206ZM110.308 35L110.039 28H113.961L113.692 35H110.308ZM113 180.5C113 181.328 112.328 182 111.5 182C110.672 182 110 181.328 110 180.5C110 179.672 110.672 179 111.5 179C112.328 179 113 179.672 113 180.5ZM111.5 169C112.328 169 113 168.328 113 167.5C113 166.672 112.328 166 111.5 166C110.672 166 110 166.672 110 167.5C110 168.328 110.672 169 111.5 169ZM113 154.5C113 155.328 112.328 156 111.5 156C110.672 156 110 155.328 110 154.5C110 153.672 110.672 153 111.5 153C112.328 153 113 153.672 113 154.5ZM111.5 143C112.328 143 113 142.328 113 141.5C113 140.672 112.328 140 111.5 140C110.672 140 110 140.672 110 141.5C110 142.328 110.672 143 111.5 143ZM113 128.5C113 129.328 112.328 130 111.5 130C110.672 130 110 129.328 110 128.5C110 127.672 110.672 127 111.5 127C112.328 127 113 127.672 113 128.5ZM111.5 117C112.328 117 113 116.328 113 115.5C113 114.672 112.328 114 111.5 114C110.672 114 110 114.672 110 115.5C110 116.328 110.672 117 111.5 117ZM113 102.5C113 103.328 112.328 104 111.5 104C110.672 104 110 103.328 110 102.5C110 101.672 110.672 101 111.5 101C112.328 101 113 101.672 113 102.5Z" fill="black"/>
</svg>
