<svg width="10" height="172" viewBox="0 0 10 172" fill="none" xmlns="http://www.w3.org/2000/svg">
<path fill-rule="evenodd" clip-rule="evenodd" d="M10 39V40V43.5V45.5V169.5V169.803L9.83205 170.055L9 169.5C9.83205 170.055 9.83167 170.055 9.83129 170.056L9.8305 170.057L9.82884 170.059L9.82521 170.065L9.81669 170.077C9.81043 170.086 9.80303 170.096 9.79444 170.108C9.77727 170.132 9.75536 170.16 9.72842 170.194C9.67455 170.26 9.60047 170.345 9.50398 170.441C9.31077 170.635 9.02817 170.874 8.6395 171.107C7.85442 171.579 6.67573 172 5 172C3.32427 172 2.14558 171.579 1.3605 171.107C0.971831 170.874 0.689235 170.635 0.496018 170.441C0.399527 170.345 0.325455 170.26 0.271584 170.194C0.244642 170.16 0.222727 170.132 0.205558 170.108C0.196972 170.096 0.189569 170.086 0.183314 170.077L0.174787 170.065L0.171159 170.059L0.169502 170.057L0.168713 170.056C0.168329 170.055 0.16795 170.055 1 169.5L0.16795 170.055L0 169.803V169.5V45.5V43.5V40V39H1V27V26H1.9608L1.00074 1.03843L0.960799 0H2H8H9.0392L8.99926 1.03843L8.0392 26H9V27V39H10ZM7 39.4214V28.5571C6.51089 28.8423 5.85218 29 5 29C4.14782 29 3.4891 28.8423 3 28.5571V39.4214C3.10166 39.4738 3.21724 39.53 3.34364 39.5862C3.85016 39.8113 4.45156 40 5 40C5.54844 40 6.14984 39.8113 6.65636 39.5862C6.78276 39.53 6.89834 39.4738 7 39.4214ZM2 41.1555V43.1113C2.09118 43.1915 2.2192 43.2903 2.3895 43.3925C2.85442 43.6715 3.67573 44 5 44C6.32427 44 7.14558 43.6715 7.6105 43.3925C7.7808 43.2903 7.90882 43.1915 8 43.1113V41.1555C7.84809 41.2358 7.66893 41.3248 7.46864 41.4138C6.85016 41.6887 5.95156 42 5 42C4.04844 42 3.14984 41.6887 2.53136 41.4138C2.33107 41.3248 2.15191 41.2358 2 41.1555ZM2 47.435V169.111C2.09118 169.191 2.2192 169.29 2.3895 169.393C2.85442 169.671 3.67573 170 5 170C6.32427 170 7.14558 169.671 7.6105 169.393C7.7808 169.29 7.90882 169.191 8 169.111V47.435C7.25579 47.7576 6.27082 48 5 48C3.72918 48 2.74421 47.7576 2 47.435ZM3.99384 26.8206C4.02438 26.84 4.07657 26.8673 4.15998 26.8951C4.31637 26.9472 4.58035 27 5 27C5.41965 27 5.68363 26.9472 5.84002 26.8951C5.92343 26.8673 5.97562 26.84 6.00616 26.8206L6.61465 11H3.38535L3.99384 26.8206ZM3.30843 9L3.0392 2H6.9608L6.69157 9H3.30843ZM6 154.5C6 155.328 5.32843 156 4.5 156C3.67157 156 3 155.328 3 154.5C3 153.672 3.67157 153 4.5 153C5.32843 153 6 153.672 6 154.5ZM4.5 143C5.32843 143 6 142.328 6 141.5C6 140.672 5.32843 140 4.5 140C3.67157 140 3 140.672 3 141.5C3 142.328 3.67157 143 4.5 143ZM6 128.5C6 129.328 5.32843 130 4.5 130C3.67157 130 3 129.328 3 128.5C3 127.672 3.67157 127 4.5 127C5.32843 127 6 127.672 6 128.5ZM4.5 117C5.32843 117 6 116.328 6 115.5C6 114.672 5.32843 114 4.5 114C3.67157 114 3 114.672 3 115.5C3 116.328 3.67157 117 4.5 117ZM6 102.5C6 103.328 5.32843 104 4.5 104C3.67157 104 3 103.328 3 102.5C3 101.672 3.67157 101 4.5 101C5.32843 101 6 101.672 6 102.5ZM4.5 91C5.32843 91 6 90.3284 6 89.5C6 88.6716 5.32843 88 4.5 88C3.67157 88 3 88.6716 3 89.5C3 90.3284 3.67157 91 4.5 91ZM6 76.5C6 77.3284 5.32843 78 4.5 78C3.67157 78 3 77.3284 3 76.5C3 75.6716 3.67157 75 4.5 75C5.32843 75 6 75.6716 6 76.5Z" fill="black"/>
</svg>
