<svg width="192" height="224" viewBox="0 0 192 224" fill="none" xmlns="http://www.w3.org/2000/svg">
<path fill-rule="evenodd" clip-rule="evenodd" d="M101 65V66V69.5V71.5V195.5V195.803L100.832 196.055L100 195.5C100.832 196.055 100.832 196.055 100.831 196.056L100.83 196.057L100.829 196.059L100.825 196.065L100.817 196.077L100.804 196.095L100.794 196.108C100.777 196.132 100.755 196.16 100.728 196.194C100.675 196.26 100.6 196.345 100.504 196.441C100.311 196.635 100.028 196.874 99.6395 197.107C98.8544 197.579 97.6757 198 96 198C94.3243 198 93.1456 197.579 92.3605 197.107C91.9718 196.874 91.6892 196.635 91.496 196.441C91.3995 196.345 91.3255 196.26 91.2716 196.194C91.2446 196.16 91.2227 196.132 91.2056 196.108L91.1946 196.093L91.1833 196.077L91.1748 196.065L91.1712 196.059L91.1695 196.057L91.1687 196.056C91.1683 196.055 91.1679 196.055 92 195.5L91.1679 196.055L91 195.803V195.5V71.5V69.5V66V65H92V53V52H92.9608L92.0007 27.0384L91.9608 26H93H99H100.039L99.9993 27.0384L99.0392 52H100V53V65H101ZM98 65.4214V54.5571C97.5109 54.8423 96.8522 55 96 55C95.1478 55 94.4891 54.8423 94 54.5571V65.4214C94.1017 65.4738 94.2172 65.53 94.3436 65.5862C94.8502 65.8113 95.4516 66 96 66C96.5484 66 97.1498 65.8113 97.6564 65.5862C97.7828 65.53 97.8983 65.4738 98 65.4214ZM93 67.1555V69.1113C93.0912 69.1915 93.2192 69.2903 93.3895 69.3925C93.8544 69.6715 94.6757 70 96 70C97.3243 70 98.1456 69.6715 98.6105 69.3925C98.7808 69.2903 98.9088 69.1915 99 69.1113V67.1555C98.8481 67.2358 98.6689 67.3248 98.4686 67.4138C97.8502 67.6887 96.9516 68 96 68C95.0484 68 94.1498 67.6887 93.5314 67.4138C93.3311 67.3248 93.1519 67.2358 93 67.1555ZM93 73.435V195.111C93.0912 195.191 93.2192 195.29 93.3895 195.393C93.8544 195.671 94.6757 196 96 196C97.3243 196 98.1456 195.671 98.6105 195.393C98.7808 195.29 98.9088 195.191 99 195.111V73.435C98.2558 73.7576 97.2708 74 96 74C94.7292 74 93.7442 73.7576 93 73.435ZM94.9938 52.8206C95.0244 52.84 95.0766 52.8673 95.16 52.8951C95.3164 52.9472 95.5803 53 96 53C96.4197 53 96.6836 52.9472 96.84 52.8951C96.9234 52.8673 96.9756 52.84 97.0062 52.8206L97.6146 37H94.3854L94.9938 52.8206ZM94.3084 35L94.0392 28H97.9608L97.6916 35H94.3084ZM97 180.5C97 181.328 96.3284 182 95.5 182C94.6716 182 94 181.328 94 180.5C94 179.672 94.6716 179 95.5 179C96.3284 179 97 179.672 97 180.5ZM95.5 169C96.3284 169 97 168.328 97 167.5C97 166.672 96.3284 166 95.5 166C94.6716 166 94 166.672 94 167.5C94 168.328 94.6716 169 95.5 169ZM97 154.5C97 155.328 96.3284 156 95.5 156C94.6716 156 94 155.328 94 154.5C94 153.672 94.6716 153 95.5 153C96.3284 153 97 153.672 97 154.5ZM95.5 143C96.3284 143 97 142.328 97 141.5C97 140.672 96.3284 140 95.5 140C94.6716 140 94 140.672 94 141.5C94 142.328 94.6716 143 95.5 143ZM97 128.5C97 129.328 96.3284 130 95.5 130C94.6716 130 94 129.328 94 128.5C94 127.672 94.6716 127 95.5 127C96.3284 127 97 127.672 97 128.5ZM95.5 117C96.3284 117 97 116.328 97 115.5C97 114.672 96.3284 114 95.5 114C94.6716 114 94 114.672 94 115.5C94 116.328 94.6716 117 95.5 117ZM97 102.5C97 103.328 96.3284 104 95.5 104C94.6716 104 94 103.328 94 102.5C94 101.672 94.6716 101 95.5 101C96.3284 101 97 101.672 97 102.5Z" fill="black"/>
</svg>
