<svg width="192" height="224" viewBox="0 0 192 224" fill="none" xmlns="http://www.w3.org/2000/svg">
<path d="M113.066 152.624C113.755 155.865 116.941 157.934 120.182 157.245C118.561 157.59 116.922 156.336 116.52 154.445C116.316 153.487 116.469 152.55 116.881 151.813C116.205 151.307 115.684 150.513 115.48 149.555C115.078 147.664 116.066 145.852 117.687 145.507C114.446 146.196 112.377 149.382 113.066 152.624Z" fill="black"/>
<path d="M75.3131 145.507C78.5544 146.196 80.6234 149.382 79.9345 152.624C79.2455 155.865 76.0594 157.934 72.8181 157.245C74.4388 157.59 76.0784 156.336 76.4803 154.445C76.6839 153.487 76.5307 152.55 76.1193 151.813C76.7949 151.307 77.3162 150.513 77.5198 149.555C77.9217 147.664 76.9337 145.852 75.3131 145.507Z" fill="black"/>
<path fill-rule="evenodd" clip-rule="evenodd" d="M88.3539 18.9738L88.354 18.976L88.3623 19.1679C88.3678 19.2972 88.3758 19.4897 88.386 19.742C88.4065 20.2466 88.4356 20.9902 88.4704 21.9452C88.5399 23.8552 88.6318 26.6108 88.7213 29.991C88.7539 31.2194 88.7861 32.5303 88.8169 33.9129L75 32.926V37.074L88.8626 36.0838C88.8993 37.9303 88.9327 39.884 88.9602 41.9232L75 40.926V45.074L88.9866 44.0749C89.0282 47.8354 89.0483 51.8467 89.0329 55.9835C88.4918 74.4578 88.4858 74.5352 87.5949 86.1404C87.4306 88.2806 87.2362 90.8131 87.0028 93.9252C86.6379 98.7911 84.9864 104.866 82.672 111.569C80.4221 118.085 77.5726 125.12 74.7381 132.118L74.7376 132.12L74.5106 132.68C71.6069 139.85 68.7352 146.967 66.5908 153.37C64.4541 159.749 63 165.53 63 170C63 187.748 78.2849 203 96.5 203C114.715 203 130 187.748 130 170C130 165.53 128.546 159.749 126.409 153.37C124.265 146.967 121.393 139.85 118.489 132.68L118.262 132.12C115.428 125.121 112.578 118.085 110.328 111.569C108.014 104.866 106.362 98.7911 105.997 93.9252C105.76 90.7666 105.563 88.2054 105.397 86.0452C104.512 74.536 104.502 74.4108 104 55.9863C104 53.2845 104.012 50.6362 104.032 48.0763L118 49.074V44.926L104.052 45.9223C104.072 43.9062 104.097 41.9537 104.126 40.083L118 41.074V36.926L104.161 37.9145C104.196 35.8484 104.235 33.899 104.275 32.0936L118 33.074V28.926L104.325 29.9028C104.405 26.5609 104.485 23.835 104.545 21.9405C104.576 20.9852 104.601 20.2413 104.619 19.7365C104.627 19.4841 104.634 19.2914 104.639 19.162L104.646 18.9675C104.646 18.9674 104.646 18.9668 103.647 18.929L104.646 18.9675L104.676 18.19L103.93 17.9699L103.647 18.929C103.93 17.9699 103.93 17.9699 103.93 17.9699L103.928 17.9693L103.925 17.9684L103.916 17.9657L103.883 17.9564C103.856 17.9485 103.816 17.9375 103.765 17.9238C103.664 17.8963 103.517 17.8579 103.329 17.8122C102.955 17.7209 102.417 17.6005 101.751 17.4804C100.423 17.2406 98.5745 17 96.5 17C94.4255 17 92.5775 17.2406 91.2489 17.4804C90.5834 17.6005 90.0452 17.7209 89.6705 17.8122C89.4831 17.8579 89.3363 17.8963 89.2348 17.9238C89.184 17.9375 89.1445 17.9485 89.1168 17.9564L89.0842 17.9657L89.0747 17.9684L89.0717 17.9693L89.0706 17.9696C89.0704 17.9697 89.0698 17.9699 89.3529 18.929L89.0706 17.9696L88.3194 18.1914L88.3539 18.9738L89.3529 18.929C88.3539 18.9731 88.3539 18.9737 88.3539 18.9738ZM90.3859 19.698C90.4064 20.2042 90.435 20.9375 90.469 21.8725C90.5387 23.7882 90.6309 26.5504 90.7206 29.938C90.9001 36.7117 91.0703 45.9885 91.0328 56H92.0192L92.3329 48H92V46H92.4114L92.4898 44H92V42H92.5682L92.6467 40H92V38H92.7251L92.8035 36H92V34H92.882L92.9604 32H92V30H101V32H93.9612L93.8827 34H101V36H95V38H101V40H97V42H101V44H99V46H101V48H100.108L100.95 56H102C102 45.9898 102.162 36.7137 102.324 29.9406C102.405 26.5538 102.486 23.7923 102.546 21.8771C102.576 20.9398 102.601 20.2051 102.619 19.6991C102.299 19.6251 101.886 19.5369 101.396 19.4486C100.151 19.2239 98.4255 19 96.5 19C94.5745 19 92.849 19.2239 91.6041 19.4486C91.1168 19.5365 90.7051 19.6242 90.3859 19.698ZM99 48H99.1025L99.9446 56H99V48ZM99.0153 57H100.015L100.323 67H99.1686L99.0153 57ZM99.1839 68H100.354L100.507 73H99.2605L99.1839 68ZM101.354 68L101.508 73H102.525C102.462 71.548 102.403 69.9447 102.341 68H101.354ZM99.2759 74H100.538L100.815 83H99.4138L99.2759 74ZM101.539 74L101.816 83H103V84H101.846L102.093 92H103V93H102.123L102.339 100H104V101H102.369L102.493 105H104V106H102.523L102.646 110H104V111H102.677L102.923 119H104V120H102.954L103.231 129H105V130H103.262L103.385 134H105V135H103.416L103.539 139H105V140H103.569L103.693 144H106V145H103.723L104.8 180H107V180.5C107 181.423 107.23 182.023 107.604 182.396C107.977 182.77 108.577 183 109.5 183H110V188H83V183H83.5C84.4229 183 85.0233 182.77 85.3964 182.396C85.7696 182.023 86 181.423 86 180.5V180H88.1998L89.2767 145H87V144H89.3075L89.4305 140H88V139H89.4613L89.5844 135H88V134H89.6152L89.7382 130H88V129H89.769L90.0459 120H89V119H90.0767L90.3228 111H89V110H90.3536L90.4767 106H89V105H90.5075L90.6305 101H89V100H90.6613L90.8767 93H90V92H90.9075L91.1536 84H90V83H91.1844L91.4613 74H90.4299C90.2506 77.6746 90.0255 80.6067 89.5886 86.2985L89.5874 86.3143C89.4234 88.4509 89.2296 90.9762 88.9972 94.0748C88.6121 99.2089 86.8886 105.485 84.5624 112.222C82.2951 118.788 79.4283 125.866 76.6011 132.846L76.3644 133.431C73.4556 140.613 70.6085 147.671 68.4873 154.005C66.3584 160.361 65 165.878 65 170C65 186.623 79.3689 201 96.5 201C113.631 201 128 186.623 128 170C128 165.878 126.642 160.361 124.513 154.005C122.391 147.671 119.544 140.613 116.636 133.431L116.399 132.847C113.572 125.867 110.705 118.789 108.438 112.222C106.111 105.485 104.388 99.2089 104.003 94.0748C103.767 90.9242 103.57 88.3664 103.404 86.2073L103.403 86.2033C102.971 80.5741 102.746 77.6543 102.571 74H101.539ZM99.4291 84H100.846L101.092 92H99.5517L99.4291 84ZM99.5671 93H101.123L101.338 100H99.6743L99.5671 93ZM99.6897 101H101.369L101.492 105H99.751L99.6897 101ZM99.7663 106H101.523L101.646 110H99.8276L99.7663 106ZM99.8429 111H101.677L101.923 119H99.9655L99.8429 111ZM99.9809 120H101.954L102.231 129H100.119L99.9809 120ZM100.134 130H102.261L102.384 134H100.195L100.134 130ZM100.211 135H102.415L102.538 139H100.272L100.211 135ZM100.287 140H102.569L102.692 144H100.349L100.287 140ZM100.364 145H102.723L103.8 180H100.9L100.364 145ZM100.916 181H103.831L103.984 186H100.992L100.916 181ZM99.9156 181H97V186H99.9923L99.9156 181ZM96 181H93.0844L93.0077 186H96V181ZM92.0842 181H89.1695L89.0156 186H92.0076L92.0842 181ZM88.169 181H86.9792C86.9052 181.856 86.6307 182.576 86.1036 183.104C85.5764 183.631 84.8563 183.905 84 183.979V186H88.0151L88.169 181ZM109 186V183.979C108.144 183.905 107.424 183.631 106.896 183.104C106.369 182.576 106.095 181.856 106.021 181H104.831L104.985 186H109ZM101.016 57L101.323 67H102.31C102.23 64.3911 102.141 61.1859 102.027 57H101.016ZM98.0153 57L98.1685 67H97V57H98.0153ZM98.1839 68H97V73H98.2605L98.1839 68ZM98.2758 74H97V83H98.4137L98.2758 74ZM98.4291 84H97V92H98.5517L98.4291 84ZM98.567 93H97V100H98.6743L98.567 93ZM98.6896 101H97V105H98.7509L98.6896 101ZM98.7662 106H97V110H98.8275L98.7662 106ZM98.8429 111H97V119H98.9655L98.8429 111ZM98.9808 120H97V129H99.1187L98.9808 120ZM99.134 130H97V134H99.1953L99.134 130ZM99.2107 135H97V139H99.272L99.2107 135ZM99.2873 140H97V144H99.3486L99.2873 140ZM99.3639 145H97V180H99.9003L99.3639 145ZM97.9999 56L98 48H97V56H97.9999ZM98 46V44H97V46H98ZM95 40H96V42H95V40ZM95 44H96V46H95V44ZM95 48H96V56H95V48ZM94.9847 57H96V67H94.8315L94.9847 57ZM94.8161 68H96V73H94.7395L94.8161 68ZM94.7242 74H96V83H94.5863L94.7242 74ZM94.5709 84H96V92H94.4483L94.5709 84ZM94.433 93H96V100H94.3257L94.433 93ZM94.3104 101H96V105H94.2491L94.3104 101ZM94.2338 106H96V110H94.1725L94.2338 106ZM94.1571 111H96V119H94.0345L94.1571 111ZM94.0192 120H96V129H93.8813L94.0192 120ZM93.866 130H96V134H93.8047L93.866 130ZM93.7893 135H96V139H93.728L93.7893 135ZM93.7127 140H96V144H93.6514L93.7127 140ZM93.6361 145H96V180H93.0997L93.6361 145ZM94 56V48H93.3337L93.02 56H94ZM94 46V44H93.4906L93.4121 46H94ZM94 42V40H93.6474L93.569 42H94ZM94 38V36H93.8043L93.7259 38H94ZM93.9847 57L93.8314 67H92.6771L92.9848 57H93.9847ZM93.8161 68H92.6464L92.4925 73H93.7395L93.8161 68ZM93.7241 74H92.4618L92.1848 83H93.5862L93.7241 74ZM93.5709 84H92.1541L91.9079 92H93.4483L93.5709 84ZM93.4329 93H91.8772L91.6618 100H93.3257L93.4329 93ZM93.3103 101H91.631L91.5079 105H93.249L93.3103 101ZM93.2337 106H91.4771L91.3541 110H93.1724L93.2337 106ZM93.1571 111H91.3233L91.0771 119H93.0345L93.1571 111ZM93.0191 120H91.0464L90.7695 129H92.8812L93.0191 120ZM92.8659 130H90.7387L90.6156 134H92.8046L92.8659 130ZM92.7892 135H90.5848L90.4618 139H92.7279L92.7892 135ZM92.7126 140H90.431L90.3079 144H92.6513L92.7126 140ZM92.636 145H90.2772L89.2002 180H92.0996L92.636 145ZM91.0039 57H91.9844L91.6767 67H90.7015C90.7865 64.3911 90.8813 61.1859 91.0039 57ZM90.6684 68H91.6459L91.4921 73H90.4767C90.5421 71.5479 90.603 69.9446 90.6684 68Z" fill="black"/>
</svg>
