<svg width="134" height="156" viewBox="0 0 134 156" fill="none" xmlns="http://www.w3.org/2000/svg">
<path fill-rule="evenodd" clip-rule="evenodd" d="M7.98344 31C7.18486 31 6.53744 31.4048 6.05027 31.9009C5.5664 32.3935 5.16438 33.049 4.82486 33.7532C4.1436 35.1662 3.60825 37.0017 3.19684 38.7739C2.78242 40.5591 2.48098 42.3375 2.28339 43.6653C2.20577 44.187 2.14393 44.6407 2.09738 45H2.09507L2.06292 45.2706L2.06245 45.2744C2.03811 45.4691 2.01992 45.6226 2.00774 45.7281C2.00165 45.7808 1.99707 45.8215 1.99397 45.8493L1.99119 45.8746L1.9903 45.8821C-0.631763 67.9585 -0.695013 88.0386 1.99059 110.121L1.99151 110.128L1.99397 110.151L1.99917 110.197L2.00774 110.272C2.01992 110.377 2.03811 110.531 2.06245 110.726C2.11112 111.115 2.18442 111.67 2.28339 112.335C2.48098 113.662 2.78242 115.441 3.19684 117.226C3.60825 118.998 4.1436 120.834 4.82486 122.247C5.16438 122.951 5.5664 123.606 6.05027 124.099C6.53744 124.595 7.18486 125 7.98344 125C8.78202 125 9.42944 124.595 9.91661 124.099C10.4005 123.606 10.8025 122.951 11.142 122.247C11.8233 120.834 12.3586 118.998 12.77 117.226C13.1845 115.441 13.4859 113.662 13.6835 112.335C13.7611 111.813 13.8229 111.359 13.8695 111H25.9833C36.4789 111 42.4889 104.659 47.0333 98.6C47.8414 97.5225 48.5933 96.4694 49.3133 95.461C50.656 93.5802 51.8881 91.8545 53.1682 90.4144C55.1161 88.2231 56.9255 87 58.9833 87H63.5378C63.583 87.4845 63.6671 88.1083 63.8257 88.7425C63.996 89.4236 64.2711 90.1962 64.738 90.8187C65.2261 91.4695 65.9655 92 66.9833 92C68.0012 92 68.7406 91.4695 69.2286 90.8187C69.6956 90.1962 69.9707 89.4236 70.141 88.7425C70.2995 88.1083 70.3836 87.4845 70.4288 87H74.9833C77.0412 87 78.8506 88.2231 80.7984 90.4144C82.0784 91.8544 83.3103 93.5798 84.6529 95.4603L84.6529 95.4604L84.6532 95.4608L84.6533 95.4609L84.6535 95.4613C85.3735 96.4697 86.1252 97.5226 86.9333 98.6C91.4776 104.659 97.4876 111 107.983 111H120.097C120.144 111.359 120.206 111.813 120.283 112.335C120.481 113.662 120.782 115.441 121.197 117.226C121.608 118.998 122.144 120.834 122.825 122.247C123.164 122.951 123.566 123.606 124.05 124.099C124.538 124.595 125.185 125 125.984 125C126.782 125 127.43 124.595 127.917 124.099C128.401 123.606 128.803 122.951 129.142 122.247C129.823 120.834 130.359 118.998 130.77 117.226C131.185 115.441 131.486 113.662 131.684 112.335C131.783 111.67 131.856 111.115 131.905 110.726L131.922 110.581C131.938 110.454 131.95 110.35 131.959 110.272C131.965 110.219 131.97 110.179 131.973 110.151L131.976 110.122L131.977 110.119L131.977 110.115C134.689 88.0378 134.657 67.9601 131.977 45.8859L131.977 45.8814L131.973 45.8493C131.97 45.8215 131.965 45.7808 131.959 45.7281C131.947 45.6226 131.929 45.4691 131.905 45.2744C131.856 44.8851 131.783 44.3304 131.684 43.6653C131.486 42.3375 131.185 40.5591 130.77 38.7739C130.359 37.0017 129.823 35.1662 129.142 33.7532C128.803 33.049 128.401 32.3935 127.917 31.9009C127.43 31.4048 126.782 31 125.984 31C125.185 31 124.538 31.4048 124.05 31.9009C123.566 32.3935 123.164 33.049 122.825 33.7532C122.144 35.1662 121.608 37.0017 121.197 38.7739C120.782 40.5591 120.481 42.3375 120.283 43.6653C120.206 44.187 120.144 44.6407 120.097 45H107.983C97.4691 45 91.4581 51.6152 86.9217 57.9157C86.115 59.0361 85.3639 60.1321 84.6442 61.1822L84.6439 61.1826C83.3003 63.1428 82.0663 64.9432 80.7851 66.4446C78.8306 68.7351 77.0241 70 74.9833 70L70.4065 70C70.356 69.6238 70.2708 69.1672 70.1253 68.7017C69.7838 67.6089 68.9351 66 66.9833 66C65.0315 66 64.1828 67.6089 63.8414 68.7017C63.6959 69.1672 63.6106 69.6238 63.5601 70L58.9833 70C56.9425 70 55.1361 68.7351 53.1815 66.4446C51.9003 64.9432 50.6663 63.1428 49.3227 61.1826C48.6029 60.1324 47.8517 59.0363 47.0448 57.9157C42.5085 51.6152 36.4974 45 25.9833 45H13.8695C13.823 44.6407 13.7611 44.187 13.6835 43.6653C13.4859 42.3375 13.1845 40.5591 12.77 38.7739C12.3586 37.0017 11.8233 35.1662 11.142 33.7532C10.8025 33.049 10.4005 32.3935 9.91661 31.9009C9.42944 31.4048 8.78202 31 7.98344 31ZM130.051 109.901L131.976 110.122L130.984 110L130.051 109.9C130.051 109.9 130.051 109.9 130.051 109.901ZM129.974 110.029L129.972 110.043C129.961 110.142 129.943 110.289 129.92 110.478C129.873 110.854 129.802 111.393 129.705 112.04C129.512 113.338 129.22 115.059 128.822 116.774C128.421 118.502 127.925 120.166 127.341 121.378C127.047 121.987 126.758 122.425 126.49 122.698C126.225 122.967 126.06 123 125.984 123C125.907 123 125.742 122.967 125.477 122.698C125.209 122.425 124.92 121.987 124.626 121.378C124.042 120.166 123.546 118.502 123.145 116.774C122.747 115.059 122.455 113.338 122.262 112.04C122.165 111.393 122.094 110.854 122.047 110.478C122.024 110.289 122.006 110.142 121.995 110.043L121.982 109.93L121.979 109.902L121.978 109.895L121.978 109.894L121.978 109.893L121.978 109.893L121.977 109.887C119.486 87.9621 119.486 68.0379 121.977 46.1129L121.978 46.1066L121.978 46.1066L121.978 46.1064L121.978 46.105L121.979 46.0983L121.982 46.0703L121.995 45.9575C122.006 45.8578 122.024 45.7106 122.047 45.5225C122.094 45.1462 122.165 44.6071 122.262 43.9597C122.455 42.6625 122.747 40.9409 123.145 39.2261C123.546 37.4983 124.042 35.8338 124.626 34.6218C124.92 34.0135 125.209 33.5752 125.477 33.3023C125.742 33.0327 125.907 33 125.984 33C126.06 33 126.225 33.0327 126.49 33.3023C126.758 33.5752 127.047 34.0135 127.341 34.6218C127.925 35.8338 128.421 37.4983 128.822 39.2261C129.22 40.9409 129.512 42.6625 129.705 43.9597C129.777 44.4434 129.835 44.8666 129.88 45.2066C129.707 45.084 129.502 45 129.265 45C128.799 45 128.46 45.3245 128.236 45.6288C127.998 45.9523 127.791 46.387 127.607 46.867C127.238 47.8329 126.922 49.1011 126.666 50.3448C126.409 51.5938 126.208 52.8404 126.071 53.773C126.002 54.2398 125.949 54.6289 125.914 54.9017C125.905 54.9709 125.897 55.0327 125.89 55.0863C125.883 55.1383 125.878 55.1827 125.873 55.2189L125.863 55.3031L125.86 55.325L125.86 55.3307L125.86 55.3323L125.86 55.3327C125.86 55.3328 125.86 55.3328 126.024 55.3522L125.86 55.3329L125.858 55.3434L125.858 55.354C124.692 70.921 124.692 85.0754 125.857 100.642L125.857 100.646L125.858 100.646L125.859 100.668L125.864 100.752C125.869 100.826 125.876 100.933 125.886 101.069C125.905 101.342 125.935 101.731 125.976 102.198C126.059 103.131 126.187 104.378 126.371 105.627C126.553 106.871 126.795 108.14 127.108 109.108C127.263 109.589 127.446 110.027 127.668 110.355C127.878 110.666 128.209 111 128.683 111C129.141 111 129.489 110.685 129.726 110.386C129.811 110.279 129.894 110.159 129.974 110.029ZM130.19 47.7969C130.124 47.5948 130.058 47.403 129.989 47.2241C129.818 46.7767 129.648 46.4386 129.489 46.2212C129.363 46.05 129.286 46.0107 129.265 46.0021C129.244 46.0107 129.168 46.05 129.042 46.2212C128.882 46.4386 128.712 46.7767 128.541 47.2241C128.202 48.1128 127.899 49.3173 127.646 50.5465C127.394 51.7703 127.195 52.9966 127.06 53.9185C126.992 54.3791 126.94 54.7627 126.905 55.0309C126.888 55.1649 126.875 55.2701 126.866 55.3415L126.856 55.4227L126.854 55.4395C125.693 70.9539 125.693 85.0564 126.855 100.571L126.855 100.579L126.855 100.579L126.855 100.58L126.855 100.581L126.856 100.586L126.857 100.606L126.862 100.688C126.867 100.759 126.874 100.864 126.883 100.998C126.902 101.266 126.932 101.65 126.972 102.11C127.054 103.032 127.18 104.258 127.36 105.482C127.541 106.711 127.772 107.914 128.059 108.801C128.204 109.247 128.352 109.582 128.496 109.795C128.6 109.947 128.665 109.988 128.686 109.998C128.709 109.989 128.795 109.95 128.943 109.764C129.119 109.542 129.31 109.201 129.508 108.753C129.838 108.005 130.154 107.035 130.439 106.016C132.611 86.1555 132.504 67.7723 130.19 47.7969ZM11.8523 45C11.8122 44.7005 11.7633 44.3498 11.7053 43.9597C11.5122 42.6625 11.2199 40.9409 10.8218 39.2261C10.4207 37.4983 9.92485 35.8338 9.34048 34.6218C9.04719 34.0135 8.7578 33.5752 8.48972 33.3023C8.22494 33.0327 8.05986 33 7.98344 33C7.90702 33 7.74194 33.0327 7.47716 33.3023C7.20908 33.5752 6.91969 34.0135 6.6264 34.6218C6.04204 35.8338 5.54613 37.4983 5.14504 39.2261C4.74696 40.9409 4.45465 42.6625 4.26161 43.9597C4.20356 44.3498 4.15463 44.7005 4.11462 45H11.8523ZM11.8523 111H4.11462C4.15463 111.299 4.20356 111.65 4.26161 112.04C4.45465 113.338 4.74696 115.059 5.14504 116.774C5.54613 118.502 6.04204 120.166 6.6264 121.378C6.91969 121.987 7.20908 122.425 7.47716 122.698C7.74194 122.967 7.90702 123 7.98344 123C8.05986 123 8.22494 122.967 8.48972 122.698C8.7578 122.425 9.04719 121.987 9.34048 121.378C9.92484 120.166 10.4207 118.502 10.8218 116.774C11.2199 115.059 11.5122 113.338 11.7053 112.04C11.7633 111.65 11.8122 111.299 11.8523 111ZM65.4834 86.0063L65.4833 86L65.4834 85.9997L65.4833 85.9996V85.9993V85.9989L65.4834 85H64.4834H58.9833C56.0412 85 53.7256 86.7769 51.6734 89.0856C50.3259 90.6016 48.9833 92.4805 47.5951 94.4233L47.5951 94.4234C46.8886 95.4121 46.1702 96.4175 45.4333 97.4C40.9777 103.341 35.4877 109 25.9833 109H3.87036C1.34726 87.7212 1.4052 68.284 3.87283 47H25.9833C35.4692 47 40.9581 52.8848 45.4218 59.0843C46.1599 60.1094 46.8788 61.1575 47.5856 62.1878L47.5856 62.1879L47.5856 62.1879L47.5856 62.188L47.5857 62.188L47.5858 62.1882C48.9732 64.2108 50.3137 66.165 51.6601 67.7429C53.7056 70.1399 56.0242 72 58.9833 72L64.4834 72H65.4834L65.4833 71.0021V71.0017V71.001V71.0006V71L65.4834 70.9986L65.4837 70.9759C65.4842 70.954 65.4852 70.919 65.4872 70.8727C65.4914 70.78 65.4998 70.6437 65.517 70.4786C65.5519 70.1435 65.6204 69.7139 65.7503 69.2983C66.0338 68.3911 66.4351 68 66.9833 68C67.5315 68 67.9328 68.3911 68.2163 69.2983C68.3462 69.7139 68.4147 70.1435 68.4496 70.4786C68.4668 70.6437 68.4753 70.78 68.4794 70.8727C68.4815 70.919 68.4825 70.954 68.4829 70.9759L68.4833 70.9986L68.4833 71V71.0006V71.001V71.0017V71.0021V72H69.4833L74.9833 72C77.9425 72 80.261 70.1399 82.3065 67.7429C83.653 66.165 84.9935 64.2107 86.381 62.188C87.0877 61.1576 87.8067 60.1095 88.5448 59.0843C93.0084 52.8848 98.4973 47 107.983 47H119.865C117.523 68.268 117.523 87.732 119.865 109H107.983C98.4789 109 92.9889 103.341 88.5333 97.4C87.7966 96.4177 87.0784 95.4126 86.372 94.424L86.3716 94.4234C84.9833 92.4806 83.6408 90.6017 82.2932 89.0856C80.241 86.7769 77.9255 85 74.9833 85H69.4833H68.4833V85.9989V85.9992V85.9996V85.9997V86L68.4833 86.0063L68.4828 86.0395C68.4823 86.0702 68.4813 86.1176 68.4791 86.1792C68.4747 86.3025 68.4657 86.4819 68.4477 86.6982C68.4113 87.1353 68.3394 87.7027 68.2007 88.2575C68.0584 88.8264 67.8648 89.3038 67.6286 89.6188C67.4136 89.9055 67.2155 90 66.9833 90C66.7512 90 66.5531 89.9055 66.338 89.6188C66.1018 89.3038 65.9082 88.8264 65.766 88.2575C65.6273 87.7027 65.5554 87.1353 65.519 86.6982C65.5009 86.4819 65.492 86.3026 65.4876 86.1792L65.4855 86.1145L65.4843 86.0641L65.4838 86.0395L65.4834 86.0063Z" fill="black"/>
<path d="M2 59L47 76.5L119 78L47 80.5L2 97" stroke="black" stroke-linecap="round"/>
<path d="M46 83V74L58 76V81L46 83Z" fill="black"/>
<path d="M3 97L52 107.5L121 110L52 112.5L9.5 123" stroke="black" stroke-linecap="round"/>
<path d="M51 114V106L63 107V113L51 114Z" fill="black"/>
<path d="M9.5 33L52 43.5L121 46L52 48.5L2 59" stroke="black" stroke-linecap="round"/>
<path d="M51 50V42L63 43V49L51 50Z" fill="black"/>
<path d="M43 102L86 96" stroke="black" stroke-linecap="round"/>
<path d="M43 54L86 61" stroke="black" stroke-linecap="round"/>
<path d="M9 32.5H124" stroke="black" stroke-linecap="round"/>
<path d="M9 123.5H124" stroke="black" stroke-linecap="round"/>
<rect y="95" width="4" height="4" fill="black"/>
<rect y="57" width="4" height="4" fill="black"/>
<rect x="117" y="76" width="4" height="4" fill="black"/>
<rect x="119" y="44" width="4" height="4" fill="black"/>
<rect x="119" y="108" width="4" height="4" fill="black"/>
<path fill-rule="evenodd" clip-rule="evenodd" d="M72.2528 137.392C72.1453 136.886 72.0156 136.248 72.1111 135.695C72.1568 135.431 72.2506 135.212 72.4042 135.043C72.5552 134.876 72.7962 134.721 73.2003 134.635C73.6043 134.549 73.8877 134.593 74.0934 134.684C74.3027 134.776 74.4773 134.938 74.6265 135.16C74.9385 135.627 75.0798 136.263 75.1873 136.768C75.2947 137.274 75.4244 137.912 75.3289 138.465C75.2833 138.729 75.1895 138.948 75.0359 139.118C74.8849 139.284 74.6439 139.44 74.2398 139.525C73.8357 139.611 73.5524 139.568 73.3466 139.477C73.1373 139.384 72.9628 139.223 72.8136 139C72.5015 138.534 72.3603 137.898 72.2528 137.392ZM72.9923 133.657C72.4183 133.779 71.9776 134.024 71.6629 134.371C71.3508 134.716 71.1947 135.126 71.1257 135.525C70.9946 136.284 71.1673 137.096 71.2688 137.572L71.2688 137.572L71.2747 137.6L71.2805 137.628L71.2805 137.628C71.3818 138.104 71.5541 138.916 71.9826 139.556C72.2079 139.893 72.5171 140.203 72.9425 140.391C73.3714 140.581 73.8737 140.626 74.4477 140.504C75.0218 140.382 75.4624 140.136 75.7772 139.789C76.0893 139.444 76.2454 139.034 76.3143 138.635C76.4454 137.876 76.2727 137.065 76.1713 136.588L76.1713 136.588L76.1654 136.56L76.1595 136.533L76.1595 136.533C76.0583 136.056 75.8859 135.244 75.4574 134.604C75.2322 134.268 74.9229 133.957 74.4976 133.769C74.0687 133.579 73.5664 133.535 72.9923 133.657ZM1.61796 151.383C1.2329 151.976 1.44083 152.955 2.03379 153.34C2.03379 153.34 2.62692 153.725 4.09404 153.413L4.96823 152.716L71.3783 138.089L71.1704 137.111L4.55241 150.76L3.4703 150.479C2.00301 150.79 1.61796 151.383 1.61796 151.383Z" fill="black"/>
<path d="M17.4457 155.953C16.8886 155.518 16.6638 153.53 17.0991 152.973L36.9311 150.538C36.9311 150.538 38.9772 150.791 40.9623 150.547L87.6727 145.315L87.7946 146.308L41.206 152.532C39.2209 152.776 37.2967 153.516 37.2967 153.516L17.4457 155.953Z" fill="black"/>
</svg>
