<svg width="150" height="156" viewBox="0 0 150 156" fill="none" xmlns="http://www.w3.org/2000/svg">
<g clip-path="url(#clip0)">
<path fill-rule="evenodd" clip-rule="evenodd" d="M31.2284 16.5373C30.4607 16.3172 29.7268 16.5279 29.1218 16.8704C28.5209 17.2106 27.9537 17.7299 27.4333 18.3132C26.3889 19.4837 25.3684 21.1005 24.4844 22.6907C23.594 24.2925 22.814 25.919 22.2581 27.1409C22.0397 27.6209 21.8552 28.04 21.7114 28.3726L21.7092 28.3719L21.6037 28.6232L21.6022 28.6267C21.5251 28.8072 21.4653 28.9497 21.4246 29.0477C21.4042 29.0967 21.3885 29.1346 21.3779 29.1605L21.3683 29.184L21.3653 29.1909C12.7598 49.6894 7.16413 68.9743 3.65905 90.9412L3.65785 90.9487L3.65405 90.9709L3.64628 91.0168L3.63386 91.0913C3.6165 91.196 3.59168 91.3486 3.5614 91.5424C3.50087 91.9301 3.41844 92.4835 3.33026 93.1501C3.15421 94.4809 2.95376 96.2736 2.86006 98.1038C2.76704 99.9208 2.77573 101.833 3.04113 103.379C3.17339 104.149 3.37916 104.89 3.70849 105.497C4.04007 106.108 4.55082 106.676 5.31847 106.896C6.08611 107.116 6.82003 106.905 7.42506 106.563C8.02598 106.223 8.5931 105.703 9.11357 105.12C10.1579 103.95 11.1784 102.333 12.0624 100.743C12.9528 99.1407 13.7328 97.5143 14.2887 96.2924C14.5071 95.8123 14.6916 95.3932 14.8354 95.0607L26.4799 98.3997C36.569 101.293 44.0939 96.8541 50.1324 92.2822C51.2063 91.4692 52.2192 90.6642 53.1893 89.8932C54.9984 88.4555 56.6584 87.1362 58.286 86.1047C60.7623 84.5352 62.8388 83.8582 64.8169 84.4255L69.195 85.6808C69.1049 86.159 69.0138 86.7818 68.9914 87.4352C68.9673 88.1369 69.0188 88.9553 69.2961 89.6825C69.5859 90.4425 70.1504 91.1563 71.1288 91.4369C72.1072 91.7174 72.9642 91.4113 73.6128 90.9203C74.2332 90.4505 74.7106 89.7837 75.062 89.1759C75.3893 88.61 75.642 88.0335 75.819 87.5803L80.1971 88.8356C82.1752 89.4029 83.5774 91.0773 84.8458 93.7206C85.6793 95.4576 86.3879 97.4558 87.1601 99.6335L87.1601 99.6336L87.1603 99.634L87.1603 99.6342L87.1605 99.6346C87.5746 100.802 88.007 102.022 88.4867 103.28C91.1849 110.357 95.2143 118.109 105.303 121.002L116.948 124.341C116.894 124.699 116.828 125.152 116.759 125.675C116.583 127.006 116.383 128.799 116.289 130.629C116.196 132.446 116.205 134.358 116.47 135.904C116.602 136.674 116.808 137.415 117.137 138.022C117.469 138.633 117.98 139.201 118.747 139.421C119.515 139.641 120.249 139.431 120.854 139.088C121.455 138.748 122.022 138.229 122.543 137.645C123.587 136.475 124.607 134.858 125.491 133.268C126.382 131.666 127.162 130.04 127.718 128.818C127.996 128.206 128.219 127.693 128.374 127.332L128.431 127.198C128.481 127.079 128.521 126.983 128.551 126.911C128.572 126.862 128.587 126.824 128.598 126.798L128.609 126.771L128.61 126.768L128.612 126.765C129.605 124.424 130.557 122.1 131.469 119.784C131.512 119.703 131.553 119.624 131.593 119.548C131.816 119.123 131.997 118.767 132.122 118.518C132.185 118.392 132.234 118.294 132.268 118.226L132.306 118.148L132.316 118.127L132.319 118.122L132.32 118.12L132.32 118.12C132.32 118.12 132.32 118.12 132.15 118.037L132.32 118.12L132.334 118.091L132.346 118.062C138.337 103.533 142.252 89.8781 144.871 74.382L144.872 74.3768L144.675 74.3445C144.872 74.3767 144.872 74.3766 144.872 74.3765L144.872 74.376L144.872 74.3744L144.873 74.3683L144.877 74.3458L144.891 74.2606C144.902 74.1865 144.919 74.0785 144.94 73.9413C144.981 73.667 145.038 73.2757 145.101 72.805C145.181 72.2137 145.27 71.4941 145.349 70.7219C145.687 68.841 146.009 66.9425 146.316 65.0238L146.316 65.0193L146.322 64.9876C146.326 64.96 146.333 64.9196 146.342 64.8672C146.359 64.7625 146.384 64.6099 146.414 64.416C146.475 64.0284 146.557 63.475 146.646 62.8084C146.822 61.4776 147.022 59.6849 147.116 57.8546C147.209 56.0377 147.2 54.1258 146.935 52.5797C146.802 51.8092 146.597 51.0683 146.267 50.4614C145.936 49.8503 145.425 49.2827 144.657 49.0626C143.89 48.8424 143.156 49.0531 142.551 49.3957C141.95 49.7359 141.383 50.2552 140.862 50.8385C139.818 52.0089 138.797 53.6257 137.913 55.2159C137.023 56.8177 136.243 58.4442 135.687 59.6661C135.469 60.1461 135.284 60.5652 135.14 60.8978L123.495 57.5587C113.389 54.6606 105.787 59.3627 99.6898 64.1687C98.6055 65.0234 97.5813 65.8698 96.6001 66.6808L96.5997 66.6811C94.7678 68.1951 93.0854 69.5856 91.44 70.6758C88.9298 72.3387 86.8447 73.0567 84.8829 72.4942L80.4834 71.2327C80.5386 70.8571 80.5825 70.3947 80.571 69.9072C80.5439 68.7626 80.1716 66.982 78.2954 66.4441C76.4192 65.9061 75.1599 67.2187 74.5304 68.1751C74.2623 68.5824 74.0545 68.9978 73.9023 69.3455L69.5028 68.084C67.541 67.5215 66.1532 65.8076 64.9057 63.0672C64.0879 61.2707 63.398 59.2 62.6468 56.9453C62.2444 55.7374 61.8243 54.4767 61.3576 53.1771C58.7336 45.8703 54.7788 37.8545 44.672 34.9564L33.0275 31.6174C33.0818 31.2592 33.1474 30.806 33.2166 30.2831C33.3926 28.9523 33.5931 27.1597 33.6868 25.3294C33.7798 23.5125 33.7711 21.6005 33.5057 20.0545C33.3734 19.284 33.1677 18.5431 32.8384 17.9361C32.5068 17.325 31.996 16.7574 31.2284 16.5373ZM144.575 63.185C144.603 62.9871 144.633 62.7734 144.663 62.5461C144.835 61.2459 145.028 59.5105 145.118 57.7524C145.209 55.981 145.191 54.2442 144.963 52.9181C144.849 52.2525 144.692 51.7515 144.509 51.4152C144.329 51.0831 144.18 51.0061 144.106 50.9851C144.033 50.964 143.865 50.9499 143.536 51.1361C143.203 51.3246 142.804 51.6661 142.355 52.17C141.459 53.174 140.523 54.6373 139.661 56.1876C138.806 57.7263 138.051 59.3006 137.507 60.4943C137.236 61.0901 137.019 61.5887 136.87 61.9374C136.796 62.1117 136.739 62.2485 136.7 62.3411L136.657 62.4461L136.646 62.4721L136.643 62.4783L136.643 62.4796L136.643 62.4798L136.643 62.4798L136.64 62.4856C128.202 82.8746 122.71 102.027 119.062 123.789L119.061 123.796L119.061 123.796L119.061 123.796L119.061 123.797L119.059 123.804L119.055 123.832L119.036 123.944C119.019 124.043 118.996 124.189 118.966 124.376C118.908 124.751 118.828 125.289 118.742 125.938C118.57 127.238 118.376 128.973 118.286 130.731C118.196 132.503 118.214 134.239 118.441 135.566C118.556 136.231 118.713 136.732 118.895 137.069C119.076 137.401 119.225 137.478 119.299 137.499C119.372 137.52 119.54 137.534 119.869 137.348C120.202 137.159 120.601 136.818 121.05 136.314C121.946 135.31 122.881 133.846 123.743 132.296C124.599 130.757 125.354 129.183 125.897 127.989C126.063 127.625 126.208 127.298 126.33 127.018C125.994 127.195 125.55 127.328 125.064 127.188C124.361 126.987 124.059 126.366 123.928 125.963C123.784 125.521 123.726 124.994 123.709 124.472C123.673 123.412 123.796 122.092 123.964 120.839C124.133 119.574 124.356 118.33 124.535 117.406C124.624 116.942 124.703 116.557 124.76 116.287C124.789 116.152 124.812 116.046 124.828 115.973L124.846 115.889L124.851 115.867L124.851 115.867C128.027 100.559 131.935 86.9301 137.354 72.2651L137.362 72.2452L137.37 72.2256L138.292 72.6117C137.37 72.2256 137.37 72.2255 137.37 72.2254L137.37 72.2249L137.371 72.2233L137.373 72.2177L137.382 72.1967L137.416 72.1172C137.445 72.0482 137.488 71.9477 137.543 71.8204C137.653 71.5658 137.812 71.2037 138.008 70.7711C138.4 69.9074 138.941 68.7555 139.539 67.6143C140.131 66.4828 140.799 65.3218 141.445 64.462C141.764 64.0373 142.115 63.6355 142.485 63.3499C142.817 63.0933 143.404 62.7473 144.091 62.9441C144.279 62.9981 144.439 63.0826 144.575 63.185ZM127.319 126.235L128.609 126.771L127.688 126.38L127.322 126.232C127.321 126.233 127.32 126.234 127.319 126.235ZM143.368 70.4425C140.312 87.4319 135.938 102.96 129.649 118.948C129.236 119.727 128.712 120.682 128.151 121.622C127.503 122.708 126.827 123.737 126.229 124.455C126.05 124.67 125.89 124.842 125.752 124.973C125.731 124.818 125.715 124.629 125.707 124.405C125.678 123.516 125.782 122.329 125.946 121.105C126.109 119.892 126.323 118.689 126.498 117.786C126.585 117.335 126.662 116.961 126.717 116.7C126.737 116.608 126.753 116.531 126.767 116.469C126.772 116.443 126.777 116.419 126.782 116.399L126.799 116.321L126.803 116.302L126.804 116.297L126.805 116.296L126.805 116.296L126.805 116.296L126.806 116.288L126.808 116.281C129.962 101.074 133.841 87.545 139.223 72.979L139.225 72.974L139.256 72.9C139.284 72.8347 139.325 72.7383 139.378 72.6153C139.485 72.3693 139.64 72.0174 139.83 71.5962C140.212 70.7523 140.737 69.6375 141.31 68.5419C141.889 67.4368 142.497 66.3911 143.044 65.6635C143.197 65.4604 143.333 65.2972 143.452 65.1707C143.486 65.341 143.516 65.5519 143.538 65.8051C143.616 66.7119 143.577 67.9208 143.482 69.1647C143.449 69.596 143.41 70.0262 143.368 70.4425ZM31.0884 31.0614C31.1325 30.7625 31.1821 30.4118 31.2339 30.0209C31.4059 28.7207 31.5994 26.9853 31.6894 25.2272C31.7801 23.4557 31.7622 21.719 31.5345 20.3929C31.4203 19.7273 31.2629 19.2262 31.0804 18.89C30.9002 18.5578 30.7506 18.4809 30.6771 18.4598C30.6036 18.4388 30.4359 18.4247 30.1071 18.6109C29.7742 18.7994 29.3752 19.1409 28.9256 19.6448C28.0298 20.6488 27.0943 22.1121 26.2325 23.6624C25.3772 25.2011 24.6217 26.7754 24.0785 27.9691C23.9152 28.3281 23.7715 28.6517 23.6505 28.9286L31.0884 31.0614ZM12.8963 94.5046L5.45844 92.3719C5.41435 92.6708 5.36471 93.0214 5.31299 93.4124C5.14099 94.7126 4.94745 96.448 4.85745 98.2061C4.76676 99.9775 4.78465 101.714 5.01229 103.04C5.12655 103.706 5.28393 104.207 5.46639 104.543C5.6466 104.875 5.79628 104.952 5.86974 104.973C5.9432 104.994 6.1109 105.009 6.43972 104.822C6.77266 104.634 7.17164 104.292 7.62124 103.788C8.51704 102.784 9.45254 101.321 10.3143 99.7708C11.1697 98.2322 11.9252 96.6579 12.4683 95.4641C12.6316 95.1052 12.7753 94.7815 12.8963 94.5046ZM71.3391 85.2619L71.3408 85.2558L71.3409 85.2555L71.3409 85.2554L71.341 85.2551L71.3411 85.2548L71.6164 84.2946L70.6552 84.0189L65.3682 82.5029C62.54 81.692 59.8244 82.7618 57.2153 84.4154C55.5021 85.5012 53.6937 86.9373 51.8237 88.4222L51.8237 88.4222C50.872 89.1779 49.9043 89.9463 48.9252 90.6877C43.0046 95.1702 36.1674 99.0969 27.0312 96.4772L5.77491 90.382C9.21478 69.2321 14.6281 50.5638 22.8668 30.7845L44.1207 36.8789C53.2392 39.4936 56.8934 46.6634 59.4753 53.8531C59.9023 55.042 60.3045 56.2476 60.6998 57.4328L60.6998 57.4329L60.6999 57.4329L60.6999 57.433L60.6999 57.4331L60.7 57.4332C61.4761 59.7599 62.226 62.0079 63.0854 63.8958C64.3909 66.7638 66.1069 69.1909 68.9515 70.0065L74.2384 71.5225L75.1997 71.7982L75.4748 70.8389L75.4749 70.8386L75.475 70.8379L75.4752 70.8375L75.4753 70.8369L75.4757 70.8356L75.4824 70.8139C75.4888 70.7929 75.4994 70.7595 75.5142 70.7156C75.5437 70.6276 75.5894 70.4989 75.6514 70.345C75.7773 70.0325 75.9616 69.6385 76.201 69.2747C76.7236 68.4808 77.2171 68.2155 77.7441 68.3666C78.2711 68.5177 78.5491 69.0042 78.5715 69.9544C78.5818 70.3898 78.5292 70.8216 78.4704 71.1533C78.4415 71.3167 78.412 71.4501 78.3904 71.5404C78.3797 71.5854 78.371 71.6194 78.3654 71.6406L78.3595 71.6625L78.3591 71.6638L78.3589 71.6644L78.3588 71.6648L78.3586 71.6655L78.3585 71.6658L78.0835 72.6251L79.0447 72.9007L84.3317 74.4167C87.1762 75.2324 89.9176 74.0834 92.5446 72.343C94.2738 71.1974 96.1011 69.6884 97.9923 68.1264C98.9557 67.3308 99.9357 66.5214 100.928 65.7394C106.927 61.0104 113.826 56.8665 122.944 59.4812L134.366 62.7563C126.252 82.5548 120.887 101.265 117.276 122.355L105.855 119.079C96.7184 116.46 93.001 109.506 90.3555 102.568C89.9181 101.42 89.5048 100.256 89.0983 99.1112L89.098 99.1105C88.2991 96.8603 87.5264 94.6841 86.6489 92.8554C85.3126 90.0704 83.5766 87.7241 80.7484 86.9131L75.4614 85.3971L74.5002 85.1215L74.2248 86.0817L74.2247 86.082L74.2247 86.0823L74.2246 86.0824L74.2245 86.0827L74.2228 86.0888L74.2132 86.1206C74.2042 86.15 74.1902 86.1952 74.1711 86.2538C74.1328 86.3712 74.0748 86.5411 73.9979 86.7441C73.8424 87.1542 73.6168 87.6798 73.3306 88.1748C73.0371 88.6825 72.7193 89.0881 72.4055 89.3257C72.1197 89.5421 71.9032 89.5783 71.6801 89.5143C71.4569 89.4503 71.2926 89.3049 71.1649 88.97C71.0246 88.6022 70.9701 88.0898 70.9902 87.5038C71.0098 86.9322 71.0971 86.367 71.1825 85.9368C71.2249 85.7239 71.2657 85.5491 71.2955 85.4292L71.3113 85.3665L71.324 85.3177L71.3303 85.2939L71.3391 85.2619ZM143.812 64.8643C143.812 64.8648 143.807 64.8675 143.798 64.8708C143.808 64.8655 143.812 64.8639 143.812 64.8643ZM143.318 64.7332C143.312 64.7254 143.309 64.7206 143.309 64.7202C143.31 64.7197 143.313 64.7236 143.318 64.7332ZM125.373 125.261C125.373 125.261 125.377 125.259 125.385 125.256C125.377 125.26 125.373 125.261 125.373 125.261ZM125.861 125.424C125.866 125.432 125.869 125.437 125.868 125.438C125.868 125.438 125.866 125.434 125.861 125.424Z" fill="black"/>
<path d="M17.7588 41.8033L56.1919 71.0291L124.989 92.3169L55.0894 74.8741L7.28457 78.3313" stroke="black" stroke-linecap="round"/>
<path d="M53.4389 77.0017L55.9197 68.3503L66.9035 73.5805L65.5254 78.3868L53.4389 77.0017Z" fill="black"/>
<path d="M8.24585 78.6069L52.4535 102.206L118.091 123.629L51.0753 107.013L7.32748 105.391" stroke="black" stroke-linecap="round"/>
<path d="M49.7007 108.179L51.9058 100.489L63.1653 104.758L61.5114 110.525L49.7007 108.179Z" fill="black"/>
<path d="M32.1348 18.8778L70.0942 40.6857L135.732 62.1078L68.716 45.492L17.7587 41.8033" stroke="black" stroke-linecap="round"/>
<path d="M67.3413 46.6582L69.5464 38.9681L80.8059 43.237L79.1521 49.0046L67.3413 46.6582Z" fill="black"/>
<path d="M45.3181 94.4387L88.3062 100.524" stroke="black" stroke-linecap="round"/>
<path d="M58.5488 48.2982L97.9536 66.8795" stroke="black" stroke-linecap="round"/>
<path d="M31.792 18.2594L142.337 49.9577" stroke="black" stroke-linecap="round"/>
<path d="M6.70898 105.734L117.254 137.433" stroke="black" stroke-linecap="round"/>
<rect x="5.91333" y="75.8575" width="4" height="4" transform="rotate(16 5.91333 75.8575)" fill="black"/>
<rect x="16.3877" y="39.3297" width="4" height="4" transform="rotate(16 16.3877 39.3297)" fill="black"/>
<rect x="123.618" y="89.8431" width="4" height="4" transform="rotate(16 123.618 89.8431)" fill="black"/>
<rect x="134.361" y="59.634" width="4" height="4" transform="rotate(16 134.361 59.634)" fill="black"/>
<rect x="116.72" y="121.155" width="4" height="4" transform="rotate(16 116.72 121.155)" fill="black"/>
<path fill-rule="evenodd" clip-rule="evenodd" d="M80.2528 137.392C80.1453 136.886 80.0156 136.248 80.1111 135.695C80.1568 135.431 80.2506 135.212 80.4042 135.043C80.5552 134.876 80.7962 134.721 81.2003 134.635C81.6043 134.549 81.8877 134.593 82.0934 134.684C82.3027 134.776 82.4773 134.938 82.6265 135.16C82.9385 135.627 83.0798 136.263 83.1873 136.768C83.2947 137.274 83.4244 137.912 83.3289 138.465C83.2833 138.729 83.1895 138.948 83.0359 139.118C82.8849 139.284 82.6439 139.44 82.2398 139.525C81.8357 139.611 81.5524 139.568 81.3466 139.477C81.1373 139.384 80.9628 139.223 80.8136 139C80.5015 138.534 80.3603 137.898 80.2528 137.392ZM80.9923 133.657C80.4183 133.779 79.9776 134.024 79.6629 134.371C79.3508 134.716 79.1947 135.126 79.1257 135.525C78.9946 136.284 79.1673 137.096 79.2688 137.572L79.2688 137.572L79.2747 137.6L79.2805 137.628L79.2805 137.628C79.3818 138.104 79.5541 138.916 79.9826 139.556C80.2079 139.893 80.5171 140.203 80.9425 140.391C81.3714 140.581 81.8737 140.626 82.4477 140.504C83.0218 140.382 83.4624 140.136 83.7772 139.789C84.0893 139.444 84.2454 139.034 84.3143 138.635C84.4454 137.876 84.2727 137.065 84.1713 136.588L84.1713 136.588L84.1654 136.56L84.1595 136.533L84.1595 136.533C84.0583 136.056 83.8859 135.244 83.4574 134.604C83.2322 134.268 82.9229 133.957 82.4976 133.769C82.0687 133.579 81.5664 133.535 80.9923 133.657ZM9.61796 151.383C9.2329 151.976 9.44083 152.955 10.0338 153.34C10.0338 153.34 10.6269 153.725 12.094 153.413L12.9682 152.716L79.3783 138.089L79.1704 137.111L12.5524 150.76L11.4703 150.479C10.003 150.79 9.61796 151.383 9.61796 151.383Z" fill="black"/>
<path d="M25.4457 155.953C24.8886 155.518 24.6638 153.53 25.0991 152.973L44.9311 150.538C44.9311 150.538 46.9772 150.791 48.9623 150.547L95.6727 145.315L95.7946 146.308L49.206 152.532C47.2209 152.776 45.2967 153.516 45.2967 153.516L25.4457 155.953Z" fill="black"/>
</g>
<defs>
<clipPath id="clip0">
<rect width="150" height="156" fill="white"/>
</clipPath>
</defs>
</svg>
