<svg width="224" height="224" viewBox="0 0 224 224" fill="none" xmlns="http://www.w3.org/2000/svg">
<path fill-rule="evenodd" clip-rule="evenodd" d="M68.2284 50.5373C67.4607 50.3172 66.7268 50.5279 66.1218 50.8704C65.5209 51.2106 64.9537 51.7299 64.4333 52.3132C63.3889 53.4837 62.3684 55.1005 61.4844 56.6907C60.594 58.2925 59.814 59.919 59.2581 61.1409C59.0397 61.6209 58.8552 62.04 58.7114 62.3726L58.7092 62.3719L58.6037 62.6232L58.6022 62.6267C58.5251 62.8072 58.4653 62.9497 58.4246 63.0477C58.4042 63.0967 58.3885 63.1346 58.3779 63.1605L58.3683 63.184L58.3653 63.1909C49.7598 83.6894 44.1641 102.974 40.659 124.941L40.6578 124.949L40.6541 124.971L40.6463 125.017L40.6339 125.091C40.6165 125.196 40.5917 125.349 40.5614 125.542C40.5009 125.93 40.4184 126.484 40.3303 127.15C40.1542 128.481 39.9538 130.274 39.8601 132.104C39.767 133.921 39.7757 135.833 40.0411 137.379C40.1734 138.149 40.3792 138.89 40.7085 139.497C41.0401 140.108 41.5508 140.676 42.3185 140.896C43.0861 141.116 43.82 140.905 44.4251 140.563C45.026 140.223 45.5931 139.703 46.1136 139.12C47.1579 137.95 48.1784 136.333 49.0624 134.743C49.9528 133.141 50.7328 131.514 51.2887 130.292C51.5071 129.812 51.6916 129.393 51.8354 129.061L63.4799 132.4C73.569 135.293 81.0939 130.854 87.1324 126.282C88.2063 125.469 89.2192 124.664 90.1893 123.893C91.9984 122.455 93.6584 121.136 95.286 120.105C97.7623 118.535 99.8388 117.858 101.817 118.425L106.195 119.681C106.105 120.159 106.014 120.782 105.991 121.435C105.967 122.137 106.019 122.955 106.296 123.682C106.586 124.443 107.15 125.156 108.129 125.437C109.107 125.717 109.964 125.411 110.613 124.92C111.233 124.451 111.711 123.784 112.062 123.176C112.389 122.61 112.642 122.034 112.819 121.58L117.197 122.836C119.175 123.403 120.577 125.077 121.846 127.721C122.679 129.458 123.388 131.456 124.16 133.633L124.16 133.634L124.16 133.634L124.16 133.634L124.16 133.635C124.575 134.802 125.007 136.022 125.487 137.28C128.185 144.357 132.214 152.109 142.303 155.002L153.948 158.341C153.894 158.699 153.828 159.152 153.759 159.675C153.583 161.006 153.383 162.799 153.289 164.629C153.196 166.446 153.205 168.358 153.47 169.904C153.602 170.674 153.808 171.415 154.137 172.022C154.469 172.633 154.98 173.201 155.747 173.421C156.515 173.641 157.249 173.431 157.854 173.088C158.455 172.748 159.022 172.229 159.543 171.645C160.587 170.475 161.607 168.858 162.491 167.268C163.382 165.666 164.162 164.04 164.718 162.818C164.996 162.206 165.219 161.693 165.374 161.332L165.431 161.198C165.481 161.079 165.521 160.983 165.551 160.911C165.572 160.862 165.587 160.824 165.598 160.798L165.609 160.771L165.61 160.768L165.612 160.765C166.605 158.424 167.557 156.1 168.469 153.784C168.512 153.703 168.553 153.624 168.593 153.548C168.816 153.123 168.997 152.767 169.122 152.518C169.185 152.392 169.234 152.294 169.268 152.226L169.306 152.148L169.316 152.127L169.319 152.122L169.32 152.12L169.32 152.12C169.32 152.12 169.32 152.12 169.15 152.037L169.32 152.12L169.334 152.091L169.346 152.062C175.337 137.533 179.252 123.878 181.871 108.382L181.872 108.377L181.675 108.344C181.872 108.377 181.872 108.377 181.872 108.377L181.872 108.376L181.872 108.374L181.873 108.368L181.877 108.346L181.891 108.261C181.902 108.186 181.919 108.078 181.94 107.941C181.981 107.667 182.038 107.276 182.101 106.805C182.181 106.214 182.27 105.494 182.349 104.722C182.687 102.841 183.009 100.943 183.316 99.0238L183.316 99.0193L183.322 98.9876C183.326 98.96 183.333 98.9196 183.342 98.8672C183.359 98.7625 183.384 98.6099 183.414 98.416C183.475 98.0284 183.557 97.475 183.646 96.8084C183.822 95.4776 184.022 93.6849 184.116 91.8546C184.209 90.0377 184.2 88.1258 183.935 86.5797C183.802 85.8092 183.597 85.0683 183.267 84.4614C182.936 83.8503 182.425 83.2827 181.657 83.0626C180.89 82.8424 180.156 83.0531 179.551 83.3957C178.95 83.7359 178.383 84.2552 177.862 84.8385C176.818 86.0089 175.797 87.6257 174.913 89.2159C174.023 90.8177 173.243 92.4442 172.687 93.6661C172.469 94.1461 172.284 94.5652 172.14 94.8978L160.495 91.5587C150.389 88.6606 142.787 93.3627 136.69 98.1687C135.605 99.0234 134.581 99.8698 133.6 100.681L133.6 100.681C131.768 102.195 130.085 103.586 128.44 104.676C125.93 106.339 123.845 107.057 121.883 106.494L117.483 105.233C117.539 104.857 117.582 104.395 117.571 103.907C117.544 102.763 117.172 100.982 115.295 100.444C113.419 99.9061 112.16 101.219 111.53 102.175C111.262 102.582 111.055 102.998 110.902 103.346L106.503 102.084C104.541 101.521 103.153 99.8076 101.906 97.0672C101.088 95.2707 100.398 93.2 99.6468 90.9453C99.2444 89.7374 98.8243 88.4767 98.3576 87.1771C95.7336 79.8703 91.7788 71.8545 81.672 68.9564L70.0275 65.6174C70.0818 65.2592 70.1474 64.806 70.2166 64.2831C70.3926 62.9523 70.5931 61.1597 70.6868 59.3294C70.7798 57.5125 70.7711 55.6005 70.5057 54.0545C70.3734 53.284 70.1677 52.5431 69.8384 51.9361C69.5068 51.325 68.996 50.7574 68.2284 50.5373ZM181.575 97.185C181.603 96.9871 181.633 96.7734 181.663 96.5461C181.835 95.2459 182.028 93.5105 182.118 91.7524C182.209 89.981 182.191 88.2442 181.963 86.9181C181.849 86.2525 181.692 85.7515 181.509 85.4152C181.329 85.0831 181.18 85.0061 181.106 84.9851C181.033 84.964 180.865 84.9499 180.536 85.1361C180.203 85.3246 179.804 85.6661 179.355 86.17C178.459 87.174 177.523 88.6373 176.661 90.1876C175.806 91.7263 175.051 93.3006 174.507 94.4943C174.236 95.0901 174.019 95.5887 173.87 95.9374C173.796 96.1117 173.739 96.2485 173.7 96.3411L173.657 96.4461L173.646 96.4721L173.643 96.4783L173.643 96.4796L173.643 96.4798L173.643 96.4798L173.64 96.4856C165.202 116.875 159.71 136.027 156.062 157.789L156.061 157.796L156.061 157.796L156.061 157.796L156.061 157.797L156.059 157.804L156.055 157.832L156.036 157.944C156.019 158.043 155.996 158.189 155.966 158.376C155.908 158.751 155.828 159.289 155.742 159.938C155.57 161.238 155.376 162.973 155.286 164.731C155.196 166.503 155.214 168.239 155.441 169.566C155.556 170.231 155.713 170.732 155.895 171.069C156.076 171.401 156.225 171.478 156.299 171.499C156.372 171.52 156.54 171.534 156.869 171.348C157.202 171.159 157.601 170.818 158.05 170.314C158.946 169.31 159.881 167.846 160.743 166.296C161.599 164.757 162.354 163.183 162.897 161.989C163.063 161.625 163.208 161.298 163.33 161.018C162.994 161.195 162.55 161.328 162.064 161.188C161.361 160.987 161.059 160.366 160.928 159.963C160.784 159.521 160.726 158.994 160.709 158.472C160.673 157.412 160.796 156.092 160.964 154.839C161.133 153.574 161.356 152.33 161.535 151.406C161.624 150.942 161.703 150.557 161.76 150.287C161.789 150.152 161.812 150.046 161.828 149.973L161.846 149.889L161.851 149.867L161.851 149.867C165.027 134.559 168.935 120.93 174.354 106.265L174.362 106.245L174.37 106.226L175.292 106.612C174.37 106.226 174.37 106.226 174.37 106.225L174.37 106.225L174.371 106.223L174.373 106.218L174.382 106.197L174.416 106.117C174.445 106.048 174.488 105.948 174.543 105.82C174.653 105.566 174.812 105.204 175.008 104.771C175.4 103.907 175.941 102.755 176.539 101.614C177.131 100.483 177.799 99.3218 178.445 98.462C178.764 98.0373 179.115 97.6355 179.485 97.3499C179.817 97.0933 180.404 96.7473 181.091 96.9441C181.279 96.9981 181.439 97.0826 181.575 97.185ZM164.319 160.235L165.609 160.771L164.688 160.38L164.322 160.232C164.321 160.233 164.32 160.234 164.319 160.235ZM180.368 104.443C177.312 121.432 172.938 136.96 166.649 152.948C166.236 153.727 165.712 154.682 165.151 155.622C164.503 156.708 163.827 157.737 163.229 158.455C163.05 158.67 162.89 158.842 162.752 158.973C162.731 158.818 162.715 158.629 162.707 158.405C162.678 157.516 162.782 156.329 162.946 155.105C163.109 153.892 163.323 152.689 163.498 151.786C163.585 151.335 163.662 150.961 163.717 150.7C163.737 150.608 163.753 150.531 163.767 150.469C163.772 150.443 163.777 150.419 163.782 150.399L163.799 150.321L163.803 150.302L163.804 150.297L163.805 150.296L163.805 150.296L163.805 150.296L163.806 150.288L163.808 150.281C166.962 135.074 170.841 121.545 176.223 106.979L176.225 106.974L176.256 106.9C176.284 106.835 176.325 106.738 176.378 106.615C176.485 106.369 176.64 106.017 176.83 105.596C177.212 104.752 177.737 103.638 178.31 102.542C178.889 101.437 179.497 100.391 180.044 99.6635C180.197 99.4604 180.333 99.2972 180.452 99.1707C180.486 99.341 180.516 99.5519 180.538 99.8051C180.616 100.712 180.577 101.921 180.482 103.165C180.449 103.596 180.41 104.026 180.368 104.443ZM68.0884 65.0614C68.1325 64.7625 68.1821 64.4118 68.2339 64.0209C68.4059 62.7207 68.5994 60.9853 68.6894 59.2272C68.7801 57.4557 68.7622 55.719 68.5345 54.3929C68.4203 53.7273 68.2629 53.2262 68.0804 52.89C67.9002 52.5578 67.7506 52.4809 67.6771 52.4598C67.6036 52.4388 67.4359 52.4247 67.1071 52.6109C66.7742 52.7994 66.3752 53.1409 65.9256 53.6448C65.0298 54.6488 64.0943 56.1121 63.2325 57.6624C62.3772 59.2011 61.6217 60.7754 61.0785 61.9691C60.9152 62.3281 60.7715 62.6517 60.6505 62.9286L68.0884 65.0614ZM49.8963 128.505L42.4584 126.372C42.4144 126.671 42.3647 127.021 42.313 127.412C42.141 128.713 41.9474 130.448 41.8574 132.206C41.7668 133.977 41.7846 135.714 42.0123 137.04C42.1266 137.706 42.2839 138.207 42.4664 138.543C42.6466 138.875 42.7963 138.952 42.8697 138.973C42.9432 138.994 43.1109 139.009 43.4397 138.822C43.7727 138.634 44.1716 138.292 44.6212 137.788C45.517 136.784 46.4525 135.321 47.3143 133.771C48.1697 132.232 48.9252 130.658 49.4683 129.464C49.6316 129.105 49.7753 128.782 49.8963 128.505ZM108.339 119.262L108.341 119.256L108.341 119.256L108.341 119.255L108.341 119.255L108.341 119.255L108.616 118.295L107.655 118.019L102.368 116.503C99.54 115.692 96.8244 116.762 94.2153 118.415C92.5021 119.501 90.6937 120.937 88.8237 122.422L88.8237 122.422C87.872 123.178 86.9043 123.946 85.9252 124.688C80.0046 129.17 73.1674 133.097 64.0312 130.477L42.7749 124.382C46.2148 103.232 51.6281 84.5638 59.8668 64.7845L81.1207 70.8789C90.2392 73.4936 93.8934 80.6634 96.4753 87.8531C96.9023 89.042 97.3045 90.2476 97.6998 91.4328L97.6998 91.4329L97.6999 91.4329L97.6999 91.433L97.6999 91.4331L97.7 91.4332C98.4761 93.7599 99.226 96.0079 100.085 97.8958C101.391 100.764 103.107 103.191 105.951 104.007L111.238 105.523L112.2 105.798L112.475 104.839L112.475 104.839L112.475 104.838L112.475 104.837L112.475 104.837L112.476 104.836L112.482 104.814C112.489 104.793 112.499 104.76 112.514 104.716C112.544 104.628 112.589 104.499 112.651 104.345C112.777 104.033 112.962 103.638 113.201 103.275C113.724 102.481 114.217 102.215 114.744 102.367C115.271 102.518 115.549 103.004 115.572 103.954C115.582 104.39 115.529 104.822 115.47 105.153C115.441 105.317 115.412 105.45 115.39 105.54C115.38 105.585 115.371 105.619 115.365 105.641L115.359 105.662L115.359 105.664L115.359 105.664L115.359 105.665L115.359 105.665L115.359 105.666L115.083 106.625L116.045 106.901L121.332 108.417C124.176 109.232 126.918 108.083 129.545 106.343C131.274 105.197 133.101 103.688 134.992 102.126C135.956 101.331 136.936 100.521 137.928 99.7394C143.927 95.0104 150.826 90.8665 159.944 93.4812L171.366 96.7563C163.252 116.555 157.887 135.265 154.276 156.355L142.855 153.079C133.718 150.46 130.001 143.506 127.356 136.568C126.918 135.42 126.505 134.256 126.098 133.111L126.098 133.111C125.299 130.86 124.526 128.684 123.649 126.855C122.313 124.07 120.577 121.724 117.748 120.913L112.461 119.397L111.5 119.121L111.225 120.082L111.225 120.082L111.225 120.082L111.225 120.082L111.225 120.083L111.223 120.089L111.213 120.121C111.204 120.15 111.19 120.195 111.171 120.254C111.133 120.371 111.075 120.541 110.998 120.744C110.842 121.154 110.617 121.68 110.331 122.175C110.037 122.683 109.719 123.088 109.405 123.326C109.12 123.542 108.903 123.578 108.68 123.514C108.457 123.45 108.293 123.305 108.165 122.97C108.025 122.602 107.97 122.09 107.99 121.504C108.01 120.932 108.097 120.367 108.183 119.937C108.225 119.724 108.266 119.549 108.295 119.429L108.311 119.367L108.324 119.318L108.33 119.294L108.339 119.262ZM180.812 98.8643C180.812 98.8648 180.807 98.8675 180.798 98.8708C180.808 98.8655 180.812 98.8639 180.812 98.8643ZM180.318 98.7332C180.312 98.7254 180.309 98.7206 180.309 98.7202C180.31 98.7197 180.313 98.7236 180.318 98.7332ZM162.373 159.261C162.373 159.261 162.377 159.259 162.385 159.256C162.377 159.26 162.373 159.261 162.373 159.261ZM162.861 159.424C162.866 159.432 162.869 159.437 162.868 159.438C162.868 159.438 162.866 159.434 162.861 159.424Z" fill="black"/>
<path d="M54.7588 75.8033L93.1919 105.029L161.989 126.317L92.0894 108.874L44.2846 112.331" stroke="black" stroke-miterlimit="1.88813" stroke-dasharray="4 1"/>
<path d="M90.4389 111.002L92.9197 102.35L103.904 107.581L102.525 112.387L90.4389 111.002Z" fill="black"/>
<path d="M45.2458 112.607L89.4535 136.206L155.091 157.629L88.0753 141.013L44.3275 139.391" stroke="black" stroke-miterlimit="1.88813" stroke-dasharray="4 1"/>
<path d="M86.7007 142.179L88.9058 134.489L100.165 138.758L98.5114 144.525L86.7007 142.179Z" fill="black"/>
<path d="M69.1348 52.8778L107.094 74.6857L172.732 96.1078L105.716 79.492L54.7587 75.8033" stroke="black" stroke-miterlimit="1.88813" stroke-dasharray="4 1"/>
<path d="M104.341 80.6582L106.546 72.9681L117.806 77.237L116.152 83.0046L104.341 80.6582Z" fill="black"/>
<path d="M82.3181 128.439L125.306 134.524" stroke="black" stroke-miterlimit="1.88813" stroke-dasharray="4 1"/>
<path d="M95.5488 82.2982L134.954 100.879" stroke="black" stroke-miterlimit="1.88813" stroke-dasharray="4 1"/>
<path d="M68.792 52.2594L179.337 83.9577" stroke="black" stroke-miterlimit="1.88813" stroke-dasharray="4 1"/>
<path d="M43.709 139.734L154.254 171.433" stroke="black" stroke-miterlimit="1.88813" stroke-dasharray="4 1"/>
<rect x="42.9133" y="109.858" width="4" height="4" rx="2" transform="rotate(16 42.9133 109.858)" fill="black"/>
<rect x="53.3877" y="73.3297" width="4" height="4" rx="2" transform="rotate(16 53.3877 73.3297)" fill="black"/>
<rect x="160.618" y="123.843" width="4" height="4" rx="2" transform="rotate(16 160.618 123.843)" fill="black"/>
<rect x="171.361" y="93.634" width="4" height="4" rx="2" transform="rotate(16 171.361 93.634)" fill="black"/>
<rect x="153.72" y="155.155" width="4" height="4" rx="2" transform="rotate(16 153.72 155.155)" fill="black"/>
<path fill-rule="evenodd" clip-rule="evenodd" d="M117.253 171.392C117.145 170.886 117.016 170.248 117.111 169.695C117.157 169.431 117.251 169.212 117.404 169.043C117.555 168.876 117.796 168.721 118.2 168.635C118.604 168.549 118.888 168.593 119.093 168.684C119.303 168.776 119.477 168.938 119.626 169.16C119.939 169.627 120.08 170.263 120.187 170.768C120.295 171.274 120.424 171.912 120.329 172.465C120.283 172.729 120.19 172.948 120.036 173.118C119.885 173.284 119.644 173.44 119.24 173.525C118.836 173.611 118.552 173.568 118.347 173.477C118.137 173.384 117.963 173.223 117.814 173C117.502 172.534 117.36 171.898 117.253 171.392ZM117.992 167.657C117.418 167.779 116.978 168.024 116.663 168.371C116.351 168.716 116.195 169.126 116.126 169.525C115.995 170.284 116.167 171.096 116.269 171.572L116.269 171.572L116.275 171.6L116.281 171.628L116.281 171.628C116.382 172.104 116.554 172.916 116.983 173.556C117.208 173.893 117.517 174.203 117.942 174.391C118.371 174.581 118.874 174.626 119.448 174.504C120.022 174.382 120.462 174.136 120.777 173.789C121.089 173.444 121.245 173.034 121.314 172.635C121.445 171.876 121.273 171.065 121.171 170.588L121.171 170.588L121.165 170.56L121.16 170.533L121.16 170.533C121.058 170.056 120.886 169.244 120.457 168.604C120.232 168.268 119.923 167.957 119.498 167.769C119.069 167.579 118.566 167.535 117.992 167.657ZM46.618 185.383C46.2329 185.976 46.4408 186.955 47.0338 187.34C47.0338 187.34 47.6269 187.725 49.094 187.413L49.9682 186.716L116.378 172.089L116.17 171.111L49.5524 184.76L48.4703 184.479C47.003 184.79 46.618 185.383 46.618 185.383Z" fill="black"/>
<path d="M62.4457 189.953C61.8886 189.518 61.6638 187.53 62.0991 186.973L81.9311 184.538C81.9311 184.538 83.9772 184.791 85.9623 184.547L132.673 179.315L132.795 180.308L86.206 186.532C84.2209 186.776 82.2967 187.516 82.2967 187.516L62.4457 189.953Z" fill="black"/>
</svg>
