<svg width="150" height="156" viewBox="0 0 150 156" fill="none" xmlns="http://www.w3.org/2000/svg">
<g clip-path="url(#clip0)">
<path fill-rule="evenodd" clip-rule="evenodd" d="M27.0448 19.757C26.2637 19.591 25.5463 19.8524 24.9666 20.2363C24.3909 20.6176 23.8614 21.1751 23.3828 21.7933C22.4227 23.0338 21.5174 24.7179 20.7465 26.3658C19.97 28.0258 19.3054 29.7028 18.8361 30.9605C18.6517 31.4546 18.4969 31.8855 18.3766 32.2273L18.3744 32.2268L18.2866 32.4849L18.2854 32.4884C18.2211 32.6739 18.1714 32.8202 18.1376 32.9208C18.1207 32.9711 18.1077 33.01 18.0989 33.0366L18.0909 33.0607L18.0885 33.0678C10.9338 54.1166 6.69702 73.7449 4.7328 95.9028L4.73213 95.9104L4.72989 95.9328L4.72535 95.9791L4.71814 96.0543C4.70813 96.1599 4.69401 96.3138 4.67734 96.5094C4.64399 96.9003 4.60037 97.4581 4.5589 98.1292C4.47611 99.4691 4.4012 101.271 4.4354 103.104C4.46936 104.923 4.61139 106.829 4.98399 108.353C5.16968 109.113 5.42663 109.837 5.79749 110.42C6.17089 111.006 6.72 111.537 7.50112 111.703C8.28225 111.869 8.99969 111.608 9.57935 111.224C10.1551 110.842 10.6846 110.285 11.1631 109.667C12.1233 108.426 13.0285 106.742 13.7994 105.094C14.5759 103.434 15.2405 101.757 15.7099 100.499C15.8943 100.005 16.0491 99.5744 16.1693 99.2326L28.0184 101.751C38.2846 103.933 45.4817 98.9807 51.1865 93.9987C52.201 93.1128 53.1554 92.239 54.0693 91.4023C55.7737 89.8419 57.3377 88.41 58.8893 87.2675C61.2501 85.5291 63.2743 84.7089 65.2872 85.1368L69.7422 86.0837C69.6856 86.567 69.6382 87.1946 69.6614 87.848C69.6864 88.5496 69.7949 89.3625 70.1221 90.0685C70.4642 90.8065 71.0772 91.4792 72.0728 91.6908C73.0684 91.9024 73.902 91.5372 74.5146 91.0022C75.1008 90.4903 75.5306 89.7918 75.8387 89.161C76.1257 88.5736 76.3376 87.9809 76.4826 87.5164L80.9375 88.4633C82.9504 88.8912 84.466 90.4637 85.9157 93.0121C86.8683 94.6868 87.7145 96.6307 88.6368 98.7492L88.6368 98.7492L88.637 98.7497L88.6371 98.7499L88.6373 98.7503C89.1318 99.8863 89.6482 101.073 90.2146 102.294C93.3999 109.166 97.9602 116.618 108.226 118.8L120.076 121.319C120.047 121.68 120.013 122.136 119.98 122.663C119.898 124.003 119.823 125.805 119.857 127.637C119.891 129.456 120.033 131.363 120.405 132.887C120.591 133.646 120.848 134.371 121.219 134.953C121.592 135.54 122.141 136.07 122.923 136.236C123.704 136.403 124.421 136.141 125.001 135.757C125.577 135.376 126.106 134.818 126.585 134.2C127.545 132.96 128.45 131.276 129.221 129.628C129.997 127.968 130.662 126.291 131.131 125.033C131.366 124.403 131.553 123.876 131.682 123.505L131.73 123.367C131.771 123.246 131.805 123.147 131.83 123.073C131.847 123.022 131.86 122.984 131.869 122.957L131.878 122.929L131.879 122.926L131.88 122.923C139.123 101.892 143.266 82.2464 145.234 60.0973L145.234 60.0928L145.238 60.0607C145.24 60.0329 145.244 59.9921 145.249 59.9392C145.259 59.8336 145.273 59.6797 145.29 59.4841C145.323 59.0932 145.367 58.5354 145.409 57.8643C145.491 56.5244 145.566 54.7221 145.532 52.8898C145.498 51.0708 145.356 49.1641 144.983 47.6404C144.798 46.881 144.541 46.1562 144.17 45.5737C143.797 44.9872 143.247 44.4566 142.466 44.2906C141.685 44.1246 140.968 44.3859 140.388 44.7699C139.812 45.1511 139.283 45.7087 138.804 46.3269C137.844 47.5674 136.939 49.2515 136.168 50.8994C135.391 52.5594 134.727 54.2364 134.258 55.494C134.073 55.9882 133.918 56.4191 133.798 56.7609L121.949 54.2422C111.664 52.0562 104.409 57.2771 98.662 62.4967C97.64 63.425 96.6774 64.3408 95.7551 65.2183L95.7547 65.2186C94.033 66.8567 92.4516 68.3612 90.8863 69.5634C88.4982 71.3975 86.4683 72.2591 84.472 71.8348L79.9953 70.8833C80.0241 70.5048 80.0356 70.0404 79.9901 69.5549C79.8833 68.415 79.3877 66.6647 77.4785 66.2589C75.5694 65.8531 74.4047 67.2505 73.8435 68.2484C73.6044 68.6734 73.4261 69.1023 73.2985 69.4598L68.8217 68.5082C66.8255 68.0839 65.3215 66.4711 63.8859 63.8243C62.9448 62.0893 62.1121 60.0717 61.2054 57.8749C60.7197 56.698 60.2128 55.4697 59.6566 54.2059C56.5293 47.0999 52.0249 39.3795 41.7406 37.1935L29.8915 34.6749C29.9207 34.3137 29.9545 33.8571 29.987 33.3307C30.0698 31.9908 30.1447 30.1886 30.1105 28.3562C30.0766 26.5372 29.9346 24.6305 29.562 23.1068C29.3763 22.3474 29.1193 21.6226 28.7485 21.0401C28.3751 20.4536 27.826 19.9231 27.0448 19.757ZM130.04 122.313L131.878 122.929L130.932 122.604L130.041 122.312C130.041 122.312 130.04 122.312 130.04 122.313ZM129.938 122.423L129.934 122.435C129.902 122.53 129.855 122.671 129.792 122.85C129.668 123.208 129.486 123.721 129.258 124.334C128.799 125.563 128.155 127.186 127.409 128.78C126.658 130.387 125.827 131.912 125.003 132.976C124.59 133.51 124.215 133.879 123.896 134.09C123.581 134.298 123.413 134.296 123.338 134.28C123.264 134.264 123.109 134.198 122.906 133.879C122.701 133.557 122.509 133.068 122.348 132.412C122.029 131.105 121.89 129.373 121.857 127.6C121.824 125.84 121.896 124.095 121.977 122.786C122.017 122.133 122.059 121.591 122.092 121.213C122.108 121.024 122.121 120.876 122.131 120.777L122.142 120.663L122.144 120.635L122.145 120.629L122.145 120.627L122.145 120.627L122.145 120.627L122.146 120.621C124.267 98.657 128.41 79.1681 135.405 58.2402L135.407 58.2342L135.407 58.2343L135.407 58.2341L135.408 58.2327L135.41 58.2264L135.419 58.1996L135.455 58.0919C135.487 57.9968 135.534 57.8564 135.597 57.6773C135.721 57.319 135.902 56.8065 136.131 56.1933C136.59 54.9646 137.234 53.3414 137.98 51.7468C138.731 50.1402 139.562 48.6152 140.386 47.5511C140.799 47.0171 141.173 46.6486 141.492 46.4373C141.807 46.2287 141.976 46.231 142.05 46.2469C142.125 46.2628 142.28 46.3291 142.483 46.6478C142.688 46.9706 142.88 47.4594 143.041 48.1154C143.36 49.4224 143.499 51.1537 143.532 52.9271C143.565 54.6872 143.493 56.4319 143.412 57.7409C143.382 58.229 143.351 58.655 143.324 58.9969C143.18 58.841 142.998 58.7163 142.766 58.667C142.31 58.5701 141.91 58.817 141.628 59.0681C141.328 59.3351 141.035 59.7171 140.756 60.1484C140.194 61.0165 139.621 62.1914 139.112 63.3547C138.601 64.5229 138.145 65.7003 137.817 66.5841C137.652 67.0264 137.52 67.3961 137.429 67.6555C137.405 67.7213 137.385 67.7801 137.367 67.8311C137.35 67.8807 137.335 67.9229 137.323 67.9574L137.296 68.0376L137.289 68.0585L137.287 68.0639L137.286 68.0654L137.286 68.0658C137.286 68.0659 137.286 68.0659 137.443 68.1192L137.286 68.066L137.283 68.076L137.28 68.0862C132.903 83.0708 129.96 96.9158 127.863 112.385L127.863 112.388L127.863 112.389L127.86 112.41L127.847 112.494C127.837 112.566 127.821 112.673 127.802 112.808C127.765 113.079 127.713 113.466 127.656 113.931C127.543 114.861 127.409 116.107 127.329 117.367C127.249 118.622 127.221 119.914 127.326 120.926C127.378 121.428 127.466 121.895 127.615 122.262C127.756 122.609 128.01 123.005 128.474 123.104C128.922 123.199 129.328 122.963 129.622 122.72C129.727 122.633 129.833 122.533 129.938 122.423ZM143.088 61.595C143.066 61.3837 143.041 61.1822 143.011 60.993C142.937 60.5198 142.841 60.1538 142.73 59.9079C142.643 59.7143 142.576 59.6601 142.557 59.6472C142.535 59.6512 142.452 59.6738 142.293 59.8151C142.092 59.9945 141.855 60.29 141.595 60.692C141.078 61.4906 140.531 62.6059 140.028 63.7556C139.527 64.9003 139.078 66.0585 138.754 66.9321C138.592 67.3685 138.462 67.733 138.372 67.988C138.327 68.1155 138.292 68.2156 138.268 68.2837L138.242 68.361L138.236 68.377C133.875 83.311 130.943 97.1054 128.854 112.523L128.853 112.531L128.853 112.531L128.853 112.531L128.852 112.532L128.852 112.537L128.849 112.557L128.837 112.638C128.826 112.709 128.811 112.813 128.793 112.946C128.756 113.212 128.705 113.594 128.649 114.053C128.537 114.971 128.405 116.197 128.327 117.431C128.248 118.671 128.225 119.896 128.321 120.823C128.369 121.29 128.445 121.648 128.542 121.886C128.611 122.057 128.667 122.11 128.685 122.124C128.709 122.121 128.802 122.1 128.985 121.949C129.203 121.769 129.461 121.474 129.748 121.077C130.226 120.414 130.737 119.531 131.228 118.594C137.481 99.6187 141.199 81.615 143.088 61.595ZM27.9183 34.2555C27.9415 33.9542 27.9665 33.6009 27.9908 33.2073C28.0717 31.8983 28.1437 30.1536 28.1109 28.3935C28.0778 26.6201 27.9388 24.8888 27.6192 23.5818C27.4588 22.9258 27.2668 22.437 27.0614 22.1142C26.8584 21.7955 26.7038 21.7292 26.629 21.7133C26.5542 21.6974 26.386 21.6951 26.0709 21.9037C25.752 22.115 25.3778 22.4835 24.9644 23.0175C24.1408 24.0816 23.3097 25.6066 22.5581 27.2132C21.8122 28.8078 21.1684 30.431 20.7099 31.6597C20.572 32.0292 20.4512 32.3621 20.3498 32.6467L27.9183 34.2555ZM14.1962 98.8132L6.62761 97.2045C6.60448 97.5057 6.57942 97.859 6.5551 98.2526C6.47421 99.5616 6.4022 101.306 6.43506 103.066C6.46816 104.84 6.60715 106.571 6.92675 107.878C7.08716 108.534 7.2791 109.023 7.48458 109.346C7.68752 109.664 7.8422 109.731 7.91695 109.747C7.9917 109.762 8.15997 109.765 8.47501 109.556C8.79399 109.345 9.16817 108.976 9.58153 108.442C10.4051 107.378 11.2363 105.853 11.9878 104.247C12.7337 102.652 13.3776 101.029 13.8361 99.8002C13.974 99.4307 14.0948 99.0978 14.1962 98.8132ZM71.8518 85.5162L71.8531 85.51L71.8531 85.5097L71.8532 85.5096L71.8532 85.5093L71.8533 85.509L72.061 84.5319L71.0828 84.324L65.703 83.1805C62.8252 82.5688 60.1908 83.8254 57.7034 85.657C56.0701 86.8597 54.3663 88.4184 52.6044 90.0301L52.6044 90.0301C51.7077 90.8504 50.7961 91.6844 49.871 92.4923C44.2776 97.3769 37.7309 101.771 28.4342 99.7949L6.80451 95.1974C8.76065 73.859 12.8585 54.8586 19.6974 34.5527L41.3247 39.1498C50.6033 41.122 54.7488 48.0194 57.826 55.0115C58.3348 56.1677 58.8201 57.3423 59.2972 58.4971L59.2972 58.4971L59.2973 58.4972L59.2973 58.4972L59.2973 58.4973L59.2974 58.4974C60.234 60.7644 61.1389 62.9546 62.1278 64.7779C63.6302 67.5478 65.5113 69.8493 68.4059 70.4645L73.7857 71.6081L74.7638 71.816L74.9713 70.8398L74.9714 70.8395L74.9715 70.8388L74.9716 70.8384L74.9717 70.8378L74.9721 70.8365L74.9771 70.8143C74.9822 70.793 74.9904 70.7589 75.002 70.7141C75.0253 70.6243 75.062 70.4927 75.1131 70.3348C75.2169 70.0143 75.3732 69.6084 75.5867 69.2288C76.0526 68.4004 76.5265 68.1013 77.0627 68.2152C77.5989 68.3292 77.9101 68.7952 77.9988 69.7415C78.0395 70.1751 78.0172 70.6095 77.9816 70.9446C77.9641 71.1096 77.9441 71.2447 77.9288 71.3363C77.9212 71.3819 77.9149 71.4164 77.9108 71.4379L77.9064 71.4602L77.9062 71.4616L77.906 71.4621L77.9059 71.4626L77.9058 71.4633L77.9057 71.4636L77.6983 72.4397L78.6764 72.6476L84.0562 73.7911C86.9507 74.4064 89.6053 73.069 92.1045 71.1496C93.7496 69.8861 95.4671 68.2533 97.2448 66.5632C98.1504 65.7023 99.0715 64.8266 100.007 63.9773C105.662 58.8413 112.254 54.2263 121.533 56.1985L133.155 58.6689C126.442 78.9852 122.395 98.0238 120.265 119.314L108.642 116.844C99.3456 114.868 95.1522 108.191 92.0291 101.453C91.5127 100.339 91.0192 99.2068 90.5338 98.093L90.5335 98.0923C89.5796 95.9033 88.657 93.7863 87.6541 92.0232C86.1267 89.3383 84.2312 87.1188 81.3534 86.507L75.9736 85.3635L74.9954 85.1556L74.7877 86.1327L74.7876 86.133L74.7876 86.1333L74.7876 86.1334L74.7875 86.1338L74.7861 86.1399L74.7788 86.1723C74.7719 86.2022 74.761 86.2483 74.7461 86.3081C74.7161 86.4279 74.6701 86.6015 74.6075 86.8093C74.481 87.2293 74.2927 87.7693 74.0417 88.2831C73.7843 88.81 73.4956 89.2368 73.1991 89.4957C72.9291 89.7315 72.7157 89.7828 72.4886 89.7345C72.2616 89.6862 72.0874 89.5526 71.9367 89.2274C71.7711 88.8703 71.681 88.363 71.6602 87.7769C71.6399 87.2054 71.6875 86.6355 71.7427 86.2004C71.7701 85.9851 71.7986 85.8078 71.82 85.6862L71.8314 85.6225L71.8407 85.5729L71.8453 85.5488L71.8518 85.5162Z" fill="black"/>
<path d="M15.3706 45.9011L55.7488 72.3747L125.864 88.8116L54.9171 76.2873L7.46996 83.0707" stroke="black" stroke-linecap="round"/>
<path d="M53.4193 78.5248L55.2905 69.7214L66.6125 74.1727L65.5729 79.0634L53.4193 78.5248Z" fill="black"/>
<path d="M8.44824 83.2787L54.1944 103.737L121.167 120.528L53.1548 108.628L9.4005 110.062" stroke="black" stroke-linecap="round"/>
<path d="M51.8648 109.887L53.5281 102.062L65.0579 105.535L63.8105 111.404L51.8648 109.887Z" fill="black"/>
<path d="M28.1125 22.0286L67.5007 41.1354L134.473 57.9266L66.4611 46.0261L15.3707 45.9011" stroke="black" stroke-linecap="round"/>
<path d="M65.1712 47.2854L66.8345 39.4602L78.3643 42.9333L77.1169 48.8022L65.1712 47.2854Z" fill="black"/>
<path d="M46.5345 96.4858L89.8423 99.5571" stroke="black" stroke-linecap="round"/>
<path d="M56.5144 49.5348L97.1194 65.322" stroke="black" stroke-linecap="round"/>
<path d="M27.7273 21.4355L140.214 45.3454" stroke="black" stroke-linecap="round"/>
<path d="M8.80737 110.447L121.294 134.357" stroke="black" stroke-linecap="round"/>
<rect x="5.92944" y="80.6986" width="4" height="4" transform="rotate(12 5.92944 80.6986)" fill="black"/>
<rect x="13.8301" y="43.5291" width="4" height="4" transform="rotate(12 13.8301 43.5291)" fill="black"/>
<rect x="124.323" y="86.4395" width="4" height="4" transform="rotate(12 124.323 86.4395)" fill="black"/>
<rect x="132.933" y="55.5546" width="4" height="4" transform="rotate(12 132.933 55.5546)" fill="black"/>
<rect x="119.626" y="118.156" width="4" height="4" transform="rotate(12 119.626 118.156)" fill="black"/>
<path fill-rule="evenodd" clip-rule="evenodd" d="M80.2528 137.392C80.1453 136.886 80.0156 136.248 80.1111 135.695C80.1568 135.431 80.2506 135.212 80.4042 135.043C80.5552 134.876 80.7962 134.721 81.2003 134.635C81.6043 134.549 81.8877 134.593 82.0934 134.684C82.3027 134.776 82.4773 134.938 82.6265 135.16C82.9385 135.627 83.0798 136.263 83.1873 136.768C83.2947 137.274 83.4244 137.912 83.3289 138.465C83.2833 138.729 83.1895 138.948 83.0359 139.118C82.8849 139.284 82.6439 139.44 82.2398 139.525C81.8357 139.611 81.5524 139.568 81.3466 139.477C81.1373 139.384 80.9628 139.223 80.8136 139C80.5015 138.534 80.3603 137.898 80.2528 137.392ZM80.9923 133.657C80.4183 133.779 79.9776 134.024 79.6629 134.371C79.3508 134.716 79.1947 135.126 79.1257 135.525C78.9946 136.284 79.1673 137.096 79.2688 137.572L79.2688 137.572L79.2747 137.6L79.2805 137.628L79.2805 137.628C79.3818 138.104 79.5541 138.916 79.9826 139.556C80.2079 139.893 80.5171 140.203 80.9425 140.391C81.3714 140.581 81.8737 140.626 82.4477 140.504C83.0218 140.382 83.4624 140.136 83.7772 139.789C84.0893 139.444 84.2454 139.034 84.3143 138.635C84.4454 137.876 84.2727 137.065 84.1713 136.588L84.1713 136.588L84.1654 136.56L84.1595 136.533L84.1595 136.533C84.0583 136.056 83.8859 135.244 83.4574 134.604C83.2322 134.268 82.9229 133.957 82.4976 133.769C82.0687 133.579 81.5664 133.535 80.9923 133.657ZM9.61796 151.383C9.2329 151.976 9.44083 152.955 10.0338 153.34C10.0338 153.34 10.6269 153.725 12.094 153.413L12.9682 152.716L79.3783 138.089L79.1704 137.111L12.5524 150.76L11.4703 150.479C10.003 150.79 9.61796 151.383 9.61796 151.383Z" fill="black"/>
<path d="M25.4457 155.953C24.8886 155.518 24.6638 153.53 25.0991 152.973L44.9311 150.538C44.9311 150.538 46.9772 150.791 48.9623 150.547L95.6727 145.315L95.7946 146.308L49.206 152.532C47.2209 152.776 45.2967 153.516 45.2967 153.516L25.4457 155.953Z" fill="black"/>
</g>
<defs>
<clipPath id="clip0">
<rect width="150" height="156" fill="white"/>
</clipPath>
</defs>
</svg>
