<svg width="134" height="125" viewBox="0 0 134 125" fill="none" xmlns="http://www.w3.org/2000/svg">
<path fill-rule="evenodd" clip-rule="evenodd" d="M7.98344 0C7.18486 0 6.53744 0.404819 6.05027 0.900855C5.5664 1.39352 5.16438 2.04901 4.82486 2.7532C4.1436 4.16619 3.60825 6.00166 3.19684 7.77387C2.78242 9.55907 2.48098 11.3375 2.28339 12.6653C2.20577 13.187 2.14393 13.6407 2.09738 14H2.09507L2.06292 14.2707L2.06245 14.2744C2.03811 14.4691 2.01992 14.6226 2.00774 14.7281C2.00165 14.7808 1.99707 14.8215 1.99397 14.8493L1.9912 14.8745L1.9903 14.8821C-0.631763 36.9585 -0.695013 57.0386 1.99059 79.1207L1.99151 79.1283L1.99397 79.1507C1.99707 79.1785 2.00165 79.2192 2.00774 79.2719C2.01992 79.3774 2.03811 79.5309 2.06245 79.7256C2.11112 80.1149 2.18442 80.6696 2.28339 81.3347C2.48098 82.6625 2.78242 84.4409 3.19684 86.2261C3.60825 87.9983 4.1436 89.8338 4.82486 91.2468C5.16438 91.951 5.5664 92.6065 6.05027 93.0991C6.53744 93.5952 7.18486 94 7.98344 94C8.78202 94 9.42944 93.5952 9.91661 93.0991C10.4005 92.6065 10.8025 91.951 11.142 91.2468C11.8233 89.8338 12.3586 87.9983 12.77 86.2261C13.1845 84.4409 13.4859 82.6625 13.6835 81.3347C13.7611 80.813 13.8229 80.3593 13.8695 80H25.9833C36.4789 80 42.4889 73.6592 47.0333 67.6C47.8414 66.5225 48.5933 65.4694 49.3133 64.461C50.656 62.5802 51.8881 60.8545 53.1682 59.4144C55.1161 57.2231 56.9255 56 58.9833 56H63.5378C63.583 56.4845 63.6671 57.1083 63.8257 57.7425C63.996 58.4236 64.2711 59.1962 64.738 59.8187C65.2261 60.4695 65.9655 61 66.9833 61C68.0012 61 68.7406 60.4695 69.2286 59.8187C69.6956 59.1962 69.9707 58.4236 70.141 57.7425C70.2995 57.1083 70.3836 56.4845 70.4288 56H74.9833C77.0412 56 78.8506 57.2231 80.7984 59.4144C82.0784 60.8544 83.3103 62.5798 84.6529 64.4603L84.6529 64.4604L84.6532 64.4608L84.6533 64.4609L84.6535 64.4613C85.3735 65.4697 86.1252 66.5226 86.9333 67.6C91.4776 73.6592 97.4876 80 107.983 80H120.097C120.144 80.3593 120.206 80.813 120.283 81.3347C120.481 82.6625 120.782 84.4409 121.197 86.2261C121.608 87.9983 122.144 89.8338 122.825 91.2468C123.164 91.951 123.566 92.6065 124.05 93.0991C124.538 93.5952 125.185 94 125.984 94C126.782 94 127.43 93.5952 127.917 93.0991C128.401 92.6065 128.803 91.951 129.142 91.2468C129.823 89.8338 130.359 87.9983 130.77 86.2261C131.185 84.4409 131.486 82.6625 131.684 81.3347C131.783 80.6696 131.856 80.1149 131.905 79.7256C131.929 79.5309 131.947 79.3774 131.959 79.2719C131.965 79.2192 131.97 79.1785 131.973 79.1507L131.976 79.122L131.977 79.1186L131.977 79.1148C134.689 57.0378 134.657 36.9601 131.977 14.8859L131.977 14.8814L131.973 14.8493C131.97 14.8215 131.965 14.7808 131.959 14.7281C131.947 14.6226 131.929 14.4691 131.905 14.2744C131.856 13.8851 131.783 13.3304 131.684 12.6653C131.486 11.3375 131.185 9.55907 130.77 7.77387C130.359 6.00166 129.823 4.16619 129.142 2.7532C128.803 2.04901 128.401 1.39352 127.917 0.900855C127.43 0.404819 126.782 0 125.984 0C125.185 0 124.538 0.404819 124.05 0.900855C123.566 1.39352 123.164 2.04901 122.825 2.7532C122.144 4.16619 121.608 6.00166 121.197 7.77387C120.782 9.55907 120.481 11.3375 120.283 12.6653C120.206 13.187 120.144 13.6407 120.097 14H107.983C97.4691 14 91.4581 20.6152 86.9217 26.9157C86.115 28.0361 85.3639 29.1321 84.6442 30.1822L84.6439 30.1826C83.3003 32.1428 82.0663 33.9432 80.7851 35.4446C78.8306 37.7351 77.0241 39 74.9833 39L70.4065 39C70.356 38.6238 70.2708 38.1672 70.1253 37.7017C69.7838 36.6089 68.9351 35 66.9833 35C65.0315 35 64.1829 36.6089 63.8414 37.7017C63.6959 38.1672 63.6106 38.6238 63.5601 39L58.9833 39C56.9425 39 55.1361 37.7351 53.1815 35.4446C51.9003 33.9432 50.6663 32.1428 49.3227 30.1826C48.6029 29.1324 47.8517 28.0363 47.0448 26.9157C42.5085 20.6152 36.4974 14 25.9833 14H13.8695C13.823 13.6407 13.7611 13.187 13.6835 12.6653C13.4859 11.3375 13.1845 9.55907 12.77 7.77387C12.3586 6.00166 11.8233 4.16619 11.142 2.7532C10.8025 2.04901 10.4005 1.39352 9.91661 0.900855C9.42944 0.404819 8.78202 0 7.98344 0ZM130.051 78.9006L131.976 79.122L130.984 79L130.051 78.9001C130.051 78.9002 130.051 78.9004 130.051 78.9006ZM129.974 79.0295L129.972 79.0425C129.967 79.0892 129.96 79.1462 129.952 79.213C129.943 79.289 129.932 79.3775 129.92 79.4775C129.873 79.8538 129.802 80.3929 129.705 81.0403C129.512 82.3375 129.22 84.0591 128.822 85.7739C128.421 87.5017 127.925 89.1662 127.341 90.3782C127.047 90.9865 126.758 91.4248 126.49 91.6977C126.225 91.9673 126.06 92 125.984 92C125.907 92 125.742 91.9673 125.477 91.6977C125.209 91.4248 124.92 90.9865 124.626 90.3782C124.042 89.1662 123.546 87.5017 123.145 85.7739C122.747 84.0591 122.455 82.3375 122.262 81.0403C122.165 80.3929 122.094 79.8538 122.047 79.4775C122.024 79.2894 122.006 79.1422 121.995 79.0425L121.982 78.9297L121.979 78.9017L121.978 78.8951L121.978 78.8936L121.978 78.8934L121.978 78.8934L121.977 78.8871C119.486 56.9621 119.486 37.0379 121.977 15.1129L121.978 15.1066L121.978 15.1066L121.978 15.1064L121.978 15.105L121.979 15.0983L121.982 15.0703L121.995 14.9575C122.006 14.8578 122.024 14.7106 122.047 14.5225C122.094 14.1462 122.165 13.6071 122.262 12.9597C122.455 11.6625 122.747 9.94093 123.145 8.22613C123.546 6.49834 124.042 4.83381 124.626 3.6218C124.92 3.01349 125.209 2.57523 125.477 2.30227C125.742 2.03268 125.907 2 125.984 2C126.06 2 126.225 2.03268 126.49 2.30227C126.758 2.57523 127.047 3.01349 127.341 3.6218C127.925 4.83381 128.421 6.49834 128.822 8.22613C129.22 9.94093 129.512 11.6625 129.705 12.9597C129.777 13.4433 129.835 13.8665 129.88 14.2066C129.707 14.084 129.502 14 129.265 14C128.799 14 128.46 14.3245 128.236 14.6288C127.998 14.9523 127.791 15.387 127.607 15.867C127.238 16.8329 126.923 18.1011 126.667 19.3448C126.409 20.5938 126.208 21.8404 126.071 22.773C126.002 23.2398 125.949 23.6289 125.914 23.9017C125.904 23.9803 125.895 24.0493 125.887 24.1077C125.882 24.1506 125.877 24.1878 125.874 24.2189L125.863 24.3031L125.861 24.325L125.86 24.3307L125.86 24.3323L125.86 24.3327C125.86 24.3328 125.86 24.3329 126.356 24.3913L125.86 24.3329L125.858 24.3434L125.858 24.354C124.692 39.921 124.692 54.0754 125.857 69.6422L125.858 69.6459L125.858 69.646L125.859 69.6678L125.864 69.7521C125.869 69.8255 125.876 69.9329 125.886 70.0693C125.905 70.3421 125.935 70.7313 125.976 71.1982C126.059 72.1309 126.187 73.3777 126.371 74.6271C126.554 75.8708 126.795 77.1404 127.108 78.1084C127.263 78.5889 127.446 79.0272 127.668 79.3551C127.878 79.6657 128.209 80 128.684 80C129.142 80 129.489 79.6845 129.726 79.3859C129.811 79.2789 129.894 79.1593 129.974 79.0295ZM130.19 16.7964C130.124 16.5944 130.058 16.4028 129.989 16.2241C129.818 15.7767 129.648 15.4386 129.489 15.2212C129.363 15.05 129.287 15.0107 129.265 15.0021C129.244 15.0107 129.168 15.05 129.042 15.2212C128.882 15.4386 128.712 15.7767 128.541 16.2241C128.202 17.1128 127.899 18.3173 127.646 19.5465C127.394 20.7703 127.196 21.9966 127.06 22.9185C126.992 23.3791 126.94 23.7627 126.905 24.0309C126.888 24.1649 126.875 24.2701 126.866 24.3415L126.856 24.4227L126.854 24.4395C125.693 39.9539 125.693 54.0564 126.855 69.5714L126.855 69.5793L126.855 69.5794L126.855 69.5796L126.855 69.5808L126.856 69.5858L126.857 69.6063L126.862 69.6875C126.867 69.7589 126.874 69.864 126.883 69.9981C126.903 70.2662 126.932 70.6498 126.972 71.1103C127.054 72.0321 127.18 73.2581 127.36 74.4816C127.541 75.7107 127.772 76.9139 128.059 77.8006C128.204 78.2473 128.352 78.5818 128.497 78.7948C128.6 78.9474 128.665 78.9879 128.686 78.9978C128.709 78.9895 128.795 78.9499 128.943 78.7641C129.119 78.5424 129.31 78.2007 129.508 77.7527C129.838 77.0052 130.154 76.0357 130.439 75.0169C132.611 55.1557 132.504 36.7722 130.19 16.7964ZM11.8523 14C11.8122 13.7005 11.7633 13.3498 11.7053 12.9597C11.5122 11.6625 11.2199 9.94093 10.8218 8.22613C10.4207 6.49834 9.92485 4.83381 9.34048 3.6218C9.04719 3.01349 8.7578 2.57523 8.48972 2.30227C8.22494 2.03268 8.05986 2 7.98344 2C7.90702 2 7.74194 2.03268 7.47716 2.30227C7.20908 2.57523 6.91969 3.01349 6.6264 3.6218C6.04204 4.83381 5.54613 6.49834 5.14504 8.22613C4.74696 9.94093 4.45465 11.6625 4.26161 12.9597C4.20356 13.3498 4.15464 13.7005 4.11462 14H11.8523ZM11.8523 80H4.11462C4.15464 80.2995 4.20356 80.6502 4.26161 81.0403C4.45465 82.3375 4.74696 84.0591 5.14504 85.7739C5.54613 87.5017 6.04204 89.1662 6.6264 90.3782C6.91969 90.9865 7.20908 91.4248 7.47716 91.6977C7.74194 91.9673 7.90702 92 7.98344 92C8.05986 92 8.22494 91.9673 8.48972 91.6977C8.7578 91.4248 9.04719 90.9865 9.34048 90.3782C9.92484 89.1662 10.4207 87.5017 10.8218 85.7739C11.2199 84.0591 11.5122 82.3375 11.7053 81.0403C11.7633 80.6502 11.8122 80.2995 11.8523 80ZM65.4834 55.0063L65.4833 55L65.4834 54.9997L65.4833 54.9996V54.9993V54.9989L65.4834 54H64.4834H58.9833C56.0412 54 53.7256 55.7769 51.6734 58.0856C50.3259 59.6016 48.9833 61.4805 47.5951 63.4233L47.5951 63.4234C46.8886 64.4121 46.1702 65.4175 45.4333 66.4C40.9777 72.3408 35.4877 78 25.9833 78H3.87036C1.34726 56.7212 1.4052 37.284 3.87283 16H25.9833C35.4692 16 40.9581 21.8848 45.4218 28.0843C46.1599 29.1094 46.8788 30.1575 47.5856 31.1878L47.5856 31.1879L47.5856 31.1879L47.5856 31.188L47.5857 31.188L47.5858 31.1882C48.9732 33.2108 50.3137 35.165 51.6601 36.7429C53.7056 39.1399 56.0242 41 58.9833 41L64.4834 41H65.4834L65.4833 40.0021V40.0017V40.001V40.0006V40L65.4834 39.9986L65.4837 39.9759C65.484 39.9637 65.4844 39.9476 65.4851 39.9276C65.4856 39.9117 65.4863 39.8933 65.4872 39.8727C65.4914 39.78 65.4998 39.6437 65.517 39.4786C65.5519 39.1435 65.6204 38.7139 65.7503 38.2983C66.0338 37.3911 66.4351 37 66.9833 37C67.5315 37 67.9328 37.3911 68.2163 38.2983C68.3462 38.7139 68.4147 39.1435 68.4496 39.4786C68.4668 39.6437 68.4753 39.78 68.4794 39.8727C68.4815 39.919 68.4825 39.954 68.4829 39.9759L68.4833 39.9986L68.4833 40V40.0006V40.001V40.0017V40.0021V41H69.4833L74.9833 41C77.9425 41 80.261 39.1399 82.3065 36.7429C83.653 35.165 84.9935 33.2107 86.381 31.188C87.0877 30.1576 87.8067 29.1095 88.5448 28.0843C93.0084 21.8848 98.4973 16 107.983 16H119.865C117.523 37.268 117.523 56.732 119.865 78H107.983C98.4789 78 92.9889 72.3408 88.5333 66.4C87.7966 65.4177 87.0784 64.4126 86.372 63.424L86.3716 63.4234C84.9833 61.4806 83.6408 59.6017 82.2932 58.0856C80.241 55.7769 77.9255 54 74.9833 54H69.4833H68.4833V54.9989V54.9992V54.9996V54.9997V55L68.4833 55.0063L68.4828 55.0395C68.4823 55.0702 68.4813 55.1176 68.4791 55.1792C68.4747 55.3025 68.4657 55.4819 68.4477 55.6982C68.4113 56.1353 68.3394 56.7027 68.2007 57.2575C68.0584 57.8264 67.8648 58.3038 67.6286 58.6188C67.4136 58.9055 67.2155 59 66.9833 59C66.7512 59 66.5531 58.9055 66.338 58.6188C66.1018 58.3038 65.9082 57.8264 65.766 57.2575C65.6273 56.7027 65.5554 56.1353 65.519 55.6982C65.5009 55.4819 65.492 55.3026 65.4876 55.1792L65.4855 55.1145C65.4847 55.0836 65.4841 55.0584 65.4838 55.0395L65.4834 55.0063Z" fill="black"/>
<path d="M2 28L47 45.5L119 47L47 49.5L2 66" stroke="black" stroke-linecap="round"/>
<path d="M46 52V43L58 45V50L46 52Z" fill="black"/>
<path d="M3 66L52 76.5L121 79L52 81.5L9.5 92" stroke="black" stroke-linecap="round"/>
<path d="M51 83V75L63 76V82L51 83Z" fill="black"/>
<path d="M9.5 2L52 12.5L121 15L52 17.5L2 28" stroke="black" stroke-linecap="round"/>
<path d="M51 19V11L63 12V18L51 19Z" fill="black"/>
<path d="M43 71L86 65" stroke="black" stroke-linecap="round"/>
<path d="M43 23L86 30" stroke="black" stroke-linecap="round"/>
<path d="M9 1.5L124 1.5" stroke="black" stroke-linecap="round"/>
<path d="M9 92.5H124" stroke="black" stroke-linecap="round"/>
<rect y="64" width="4" height="4" fill="black"/>
<rect y="26" width="4" height="4" fill="black"/>
<rect x="117" y="45" width="4" height="4" fill="black"/>
<rect x="119" y="13" width="4" height="4" fill="black"/>
<rect x="119" y="77" width="4" height="4" fill="black"/>
<path fill-rule="evenodd" clip-rule="evenodd" d="M72.2528 106.392C72.1453 105.886 72.0156 105.248 72.1111 104.695C72.1568 104.431 72.2506 104.212 72.4042 104.043C72.5552 103.876 72.7962 103.721 73.2003 103.635C73.6043 103.549 73.8877 103.593 74.0934 103.684C74.3027 103.776 74.4773 103.938 74.6265 104.16C74.9385 104.627 75.0798 105.263 75.1873 105.768C75.2947 106.274 75.4244 106.912 75.3289 107.465C75.2833 107.729 75.1895 107.948 75.0359 108.118C74.8849 108.284 74.6439 108.44 74.2398 108.525C73.8357 108.611 73.5524 108.568 73.3466 108.477C73.1373 108.384 72.9628 108.223 72.8136 108C72.5015 107.534 72.3603 106.898 72.2528 106.392ZM72.9923 102.657C72.4183 102.779 71.9776 103.024 71.6629 103.371C71.3508 103.716 71.1947 104.126 71.1257 104.525C70.9946 105.284 71.1673 106.096 71.2688 106.572L71.2688 106.572L71.2747 106.6L71.2805 106.628L71.2805 106.628C71.3818 107.104 71.5541 107.916 71.9826 108.556C72.2079 108.893 72.5171 109.203 72.9425 109.391C73.3714 109.581 73.8737 109.626 74.4477 109.504C75.0218 109.382 75.4624 109.136 75.7772 108.789C76.0893 108.444 76.2454 108.034 76.3143 107.635C76.4454 106.876 76.2727 106.065 76.1713 105.588L76.1713 105.588L76.1654 105.56L76.1595 105.533L76.1595 105.533C76.0583 105.056 75.8859 104.244 75.4574 103.604C75.2322 103.268 74.9229 102.957 74.4976 102.769C74.0687 102.579 73.5664 102.535 72.9923 102.657ZM1.61796 120.383C1.2329 120.976 1.44083 121.955 2.03379 122.34C2.03379 122.34 2.62692 122.725 4.09404 122.413L4.96823 121.716L71.3783 107.089L71.1704 106.111L4.55241 119.76L3.4703 119.479C2.00301 119.79 1.61796 120.383 1.61796 120.383Z" fill="black"/>
<path d="M17.4457 124.953C16.8886 124.518 16.6638 122.53 17.0991 121.973L36.9311 119.538C36.9311 119.538 38.9772 119.791 40.9623 119.547L87.6727 114.315L87.7946 115.308L41.206 121.532C39.2209 121.776 37.2967 122.516 37.2967 122.516L17.4457 124.953Z" fill="black"/>
</svg>
