<svg width="224" height="224" viewBox="0 0 224 224" fill="none" xmlns="http://www.w3.org/2000/svg">
<path d="M37.5 183.5V114C37.5 94.4934 44.0127 40.7413 108.5 38.1009M37.5 183.5H186.5M37.5 183.5H27M186.5 183.5V114C186.5 94.4934 179.987 40.7413 115.5 38.1009M186.5 183.5H197M108.5 38.1009C110.131 38.0341 110.298 38 112 38C113.702 38 113.869 38.0341 115.5 38.1009M108.5 38.1009V47.5M108.5 47.5H115.5M108.5 47.5H102.5M115.5 47.5V38.1009M115.5 47.5H121.5" stroke="black" stroke-linecap="round"/>
<circle cx="112" cy="114" r="57" stroke="black" stroke-width="2"/>
<path d="M96 59C96 59 106 45 112 45C118 45 128 59 128 59" stroke="black" stroke-width="2"/>
<path d="M113.5 114C113.5 115 112.828 115.5 112 115.5C111.171 115.5 110.701 114.804 110.5 114C110.231 112.927 111.014 112.069 112 111.5C113.741 110.496 115.948 112.067 116.5 114C117.183 116.39 114.485 118.5 112 118.5C109.515 118.5 107.747 116.473 107.5 114C107.224 111.239 109.313 109.193 112 108.5C115.517 107.593 118.948 110.41 119.5 114C120.13 118.094 116.142 121.5 112 121.5C107.858 121.5 104.758 118.134 104.5 114C104.224 109.582 107.635 106.237 112 105.5C117.202 104.622 121.948 108.753 122.5 114C123.107 119.767 117.799 124.5 112 124.5C106.201 124.5 101.763 119.793 101.5 114C101.224 107.925 105.966 103.26 112 102.5C118.871 101.635 124.948 107.097 125.5 114C126.094 121.432 119.456 127.5 112 127.5C104.544 127.5 98.7659 121.451 98.4998 114C98.2237 106.268 104.302 100.273 112 99.5C120.535 98.6427 127.948 105.44 128.5 114C129.087 123.094 121.113 130.5 112 130.5C102.887 130.5 95.7677 123.109 95.4998 114C95.2237 104.611 102.64 97.2824 112 96.5C122.197 95.6477 130.948 103.783 131.5 114C132.081 124.754 122.769 133.5 112 133.5C101.23 133.5 92.769 124.766 92.4998 114C92.2237 102.954 100.979 94.2889 112 93.5C123.857 92.6513 133.948 102.126 134.5 114C135.077 126.413 124.426 136.5 112 136.5C99.5734 136.5 89.7699 126.423 89.4998 114C89.2237 101.297 99.3192 91.2938 112 90.5C125.516 89.6539 136.948 100.469 137.5 114C138.074 128.072 126.083 139.5 112 139.5C97.9166 139.5 86.7706 128.081 86.4998 114C86.2237 99.6405 97.6601 88.2977 112 87.5C127.174 86.6559 139.948 98.8122 140.5 114C141.072 129.73 127.74 142.5 112 142.5C96.2597 142.5 83.7712 129.738 83.4998 114C83.2237 97.9837 96.0014 85.3007 112 84.5C128.833 83.6576 142.948 97.1554 143.5 114C144.07 131.388 129.397 145.5 112 145.5C94.6028 145.5 80.7716 131.395 80.4998 114C80.2237 96.3268 94.343 82.3032 112 81.5C130.491 80.6588 145.948 95.4985 146.5 114C147.068 133.045 131.054 148.5 112 148.5C92.946 148.5 77.772 133.052 77.4998 114C77.2237 94.67 92.6849 79.3053 112 78.5C132.148 77.66 148.948 93.8417 149.5 114C150.067 134.703 132.71 151.5 112 151.5C91.2891 151.5 74.7723 134.709 74.4998 114C74.2237 93.0131 91.0269 76.3071 112 75.5C133.806 74.6609 151.948 92.1848 152.5 114C153.066 136.36 134.367 154.5 112 154.5C89.6323 154.5 71.7726 136.366 71.4998 114C71.2237 91.3562 89.3691 73.3086 112 72.5C135.464 71.6617 154.948 90.528 155.5 114C156.065 138.018 136.024 157.5 112 157.5C87.9754 157.5 68.7728 138.023 68.4998 114C68.2237 89.6994 87.7114 70.3099 112 69.5C137.121 68.6624 157.948 88.8711 158.5 114C159.064 139.675 137.681 160.5 112 160.5C86.3186 160.5 65.773 139.68 65.4998 114C65.2237 88.0426 86.0538 67.3111 112 66.5C138.778 65.6629 160.948 87.2142 161.5 114C162.063 141.332 139.338 163.5 112 163.5C84.6617 163.5 62.7732 141.337 62.4998 114C62.2237 86.3857 84.3964 64.312 112 63.5C140.436 62.6635 163.948 85.5574 164.5 114C165.063 142.989 140.995 166.5 112 166.5C83.0049 166.5 59.7734 142.994 59.4998 114C59.2237 84.7288 82.7389 61.3129 112 60.5C142.093 59.664 166.948 83.9006 167.5 114C168.062 144.647 142.652 169.5 112 169.5C81.348 169.5 56.7735 144.651 56.4998 114C56.2237 83.072 81.0816 58.3137 112 57.5" stroke="black" stroke-linecap="round"/>
<path fill-rule="evenodd" clip-rule="evenodd" d="M147.791 196.523L147.61 195.052C147.525 194.361 147.326 193.712 147.034 193.121C146.888 193.119 146.744 193.053 146.647 192.929C146.522 192.768 146.511 192.554 146.601 192.385C146.391 192.08 146.154 191.796 145.894 191.537C145.719 191.566 145.535 191.501 145.418 191.351C145.343 191.255 145.309 191.14 145.313 191.027C144.108 190.1 142.552 189.628 140.923 189.828C140.759 189.848 140.597 189.875 140.438 189.908C140.496 189.94 140.549 189.984 140.593 190.04C140.763 190.258 140.724 190.572 140.506 190.742C140.288 190.911 139.974 190.872 139.804 190.654C139.672 190.485 139.667 190.257 139.773 190.085C137.942 190.687 136.537 192.132 135.951 193.915C135.993 194.083 135.945 194.266 135.817 194.391C135.655 195.068 135.61 195.784 135.699 196.514L135.905 198.186C135.937 198.125 135.982 198.07 136.04 198.025C136.257 197.855 136.572 197.894 136.741 198.112C136.911 198.33 136.872 198.644 136.654 198.814C136.448 198.975 136.155 198.948 135.981 198.76C136.328 200.844 137.724 202.514 139.555 203.293C139.499 203.102 139.561 202.888 139.728 202.758C139.945 202.588 140.26 202.627 140.429 202.845C140.599 203.063 140.56 203.377 140.342 203.547C140.336 203.551 140.331 203.556 140.325 203.56C140.986 203.74 141.688 203.808 142.407 203.747C142.286 203.535 142.336 203.261 142.535 203.106C142.752 202.936 143.066 202.975 143.236 203.193C143.328 203.312 143.359 203.458 143.333 203.595C145.153 203.149 146.611 201.889 147.356 200.263C147.29 200.23 147.229 200.182 147.18 200.12C147.01 199.902 147.049 199.588 147.267 199.418C147.393 199.32 147.551 199.292 147.694 199.327C147.851 198.746 147.921 198.133 147.893 197.505C147.755 197.496 147.62 197.431 147.528 197.313C147.359 197.095 147.398 196.781 147.616 196.611C147.669 196.569 147.729 196.54 147.791 196.523ZM140.68 187.843C136.294 188.381 133.176 192.373 133.714 196.758L133.714 196.758L75.154 203.949C74.6059 204.016 74.216 204.515 74.2834 205.063C74.3507 205.611 74.8496 206.001 75.3978 205.934L133.958 198.743L133.958 198.743C134.497 203.129 138.488 206.247 142.873 205.709C147.259 205.17 150.377 201.179 149.839 196.793L149.595 194.808C149.057 190.423 145.065 187.304 140.68 187.843ZM142.883 200.299C142.665 200.469 142.626 200.783 142.796 201.001C142.965 201.219 143.28 201.258 143.497 201.088C143.715 200.918 143.754 200.604 143.585 200.386C143.415 200.169 143.101 200.13 142.883 200.299ZM144.025 202.579C143.855 202.361 143.894 202.047 144.112 201.877C144.33 201.707 144.644 201.746 144.814 201.964C144.984 202.182 144.945 202.496 144.727 202.666C144.509 202.835 144.195 202.796 144.025 202.579ZM144.46 199.07C144.242 199.24 144.203 199.554 144.373 199.772C144.543 199.99 144.857 200.029 145.075 199.859C145.293 199.689 145.332 199.375 145.162 199.157C144.992 198.939 144.678 198.9 144.46 199.07ZM145.602 201.349C145.433 201.132 145.472 200.817 145.689 200.648C145.907 200.478 146.221 200.517 146.391 200.735C146.561 200.953 146.522 201.267 146.304 201.437C146.086 201.606 145.772 201.567 145.602 201.349ZM145.951 198.542C145.781 198.325 145.82 198.01 146.038 197.841C146.256 197.671 146.57 197.71 146.74 197.928C146.909 198.146 146.87 198.46 146.653 198.629C146.435 198.799 146.121 198.76 145.951 198.542ZM140.424 197.144C140.206 197.314 140.167 197.628 140.337 197.846C140.507 198.064 140.821 198.103 141.039 197.933C141.257 197.763 141.296 197.449 141.126 197.231C140.956 197.013 140.642 196.974 140.424 197.144ZM141.566 199.423C141.397 199.206 141.436 198.891 141.653 198.722C141.871 198.552 142.185 198.591 142.355 198.809C142.525 199.027 142.486 199.341 142.268 199.51C142.05 199.68 141.736 199.641 141.566 199.423ZM143.231 197.493C143.013 197.662 142.974 197.976 143.144 198.194C143.314 198.412 143.628 198.451 143.846 198.281C144.063 198.112 144.102 197.797 143.933 197.58C143.763 197.362 143.449 197.323 143.231 197.493ZM144.722 196.965C144.552 196.747 144.591 196.433 144.809 196.263C145.026 196.093 145.341 196.132 145.51 196.35C145.68 196.568 145.641 196.882 145.423 197.052C145.205 197.222 144.891 197.183 144.722 196.965ZM143.579 194.685C143.362 194.855 143.323 195.169 143.492 195.387C143.662 195.605 143.976 195.644 144.194 195.474C144.412 195.305 144.451 194.99 144.281 194.773C144.111 194.555 143.797 194.516 143.579 194.685ZM141.914 196.617C141.745 196.399 141.784 196.085 142.002 195.915C142.219 195.745 142.534 195.784 142.703 196.002C142.873 196.22 142.834 196.534 142.616 196.704C142.398 196.873 142.084 196.834 141.914 196.617ZM137.966 193.989C137.748 194.159 137.709 194.473 137.878 194.691C138.048 194.908 138.362 194.947 138.58 194.778C138.798 194.608 138.837 194.294 138.667 194.076C138.498 193.858 138.183 193.819 137.966 193.989ZM139.108 196.268C138.938 196.05 138.977 195.736 139.195 195.567C139.413 195.397 139.727 195.436 139.897 195.654C140.066 195.871 140.027 196.186 139.809 196.355C139.592 196.525 139.278 196.486 139.108 196.268ZM141.305 201.529C141.087 201.698 141.048 202.013 141.218 202.23C141.388 202.448 141.702 202.487 141.92 202.317C142.138 202.148 142.177 201.833 142.007 201.616C141.837 201.398 141.523 201.359 141.305 201.529ZM138.847 198.373C138.629 198.543 138.59 198.857 138.759 199.075C138.929 199.293 139.243 199.332 139.461 199.162C139.679 198.992 139.718 198.678 139.548 198.46C139.379 198.243 139.064 198.204 138.847 198.373ZM139.989 200.653C139.819 200.435 139.858 200.121 140.076 199.951C140.294 199.781 140.608 199.82 140.778 200.038C140.947 200.256 140.908 200.57 140.691 200.74C140.473 200.91 140.159 200.871 139.989 200.653ZM137.617 196.796C137.399 196.966 137.36 197.28 137.53 197.498C137.7 197.715 138.014 197.754 138.232 197.585C138.45 197.415 138.489 197.101 138.319 196.883C138.149 196.665 137.835 196.626 137.617 196.796ZM136.301 195.92C136.131 195.702 136.17 195.388 136.388 195.218C136.606 195.049 136.92 195.087 137.09 195.305C137.259 195.523 137.22 195.837 137.003 196.007C136.785 196.177 136.471 196.138 136.301 195.92ZM140.772 194.337C140.554 194.507 140.515 194.821 140.685 195.039C140.855 195.257 141.169 195.296 141.387 195.126C141.605 194.956 141.644 194.642 141.474 194.424C141.304 194.207 140.99 194.168 140.772 194.337ZM142.263 193.81C142.093 193.592 142.132 193.278 142.35 193.108C142.568 192.938 142.882 192.977 143.052 193.195C143.221 193.413 143.182 193.727 142.965 193.897C142.747 194.066 142.433 194.027 142.263 193.81ZM141.121 191.53C140.903 191.7 140.864 192.014 141.034 192.232C141.203 192.45 141.518 192.489 141.735 192.319C141.953 192.149 141.992 191.835 141.822 191.617C141.653 191.4 141.339 191.361 141.121 191.53ZM146.299 195.735C146.129 195.518 146.168 195.203 146.386 195.034C146.604 194.864 146.918 194.903 147.088 195.121C147.258 195.339 147.219 195.653 147.001 195.823C146.783 195.992 146.469 195.953 146.299 195.735ZM145.157 193.456C144.939 193.626 144.9 193.94 145.07 194.158C145.24 194.376 145.554 194.415 145.772 194.245C145.989 194.075 146.028 193.761 145.859 193.543C145.689 193.325 145.375 193.286 145.157 193.456ZM143.841 192.58C143.671 192.362 143.71 192.048 143.928 191.879C144.145 191.709 144.46 191.748 144.629 191.966C144.799 192.183 144.76 192.498 144.542 192.667C144.324 192.837 144.01 192.798 143.841 192.58ZM142.698 190.301C142.48 190.471 142.441 190.785 142.611 191.003C142.781 191.221 143.095 191.26 143.313 191.09C143.531 190.92 143.57 190.606 143.4 190.388C143.23 190.17 142.916 190.131 142.698 190.301ZM136.649 193.113C136.479 192.895 136.518 192.581 136.736 192.411C136.954 192.242 137.268 192.281 137.438 192.498C137.608 192.716 137.569 193.03 137.351 193.2C137.133 193.37 136.819 193.331 136.649 193.113ZM137.182 200.304C137.012 200.087 137.051 199.772 137.269 199.603C137.487 199.433 137.801 199.472 137.971 199.69C138.14 199.908 138.101 200.222 137.884 200.392C137.666 200.561 137.352 200.522 137.182 200.304ZM138.498 201.18C138.28 201.35 138.241 201.664 138.411 201.882C138.581 202.1 138.895 202.139 139.113 201.969C139.331 201.799 139.37 201.485 139.2 201.267C139.03 201.05 138.716 201.011 138.498 201.18ZM139.456 193.461C139.286 193.244 139.325 192.929 139.543 192.76C139.761 192.59 140.075 192.629 140.245 192.847C140.414 193.065 140.375 193.379 140.158 193.549C139.94 193.718 139.626 193.679 139.456 193.461ZM138.314 191.182C138.096 191.352 138.057 191.666 138.227 191.884C138.396 192.102 138.71 192.141 138.928 191.971C139.146 191.801 139.185 191.487 139.015 191.269C138.846 191.051 138.531 191.012 138.314 191.182Z" fill="black"/>
</svg>
