<svg width="170" height="204" viewBox="0 0 170 204" fill="none" xmlns="http://www.w3.org/2000/svg">
<g clip-path="url(#clip0)">
<path d="M10.5 173.5V104C10.5 84.4934 17.0127 30.7413 81.5 28.1009M10.5 173.5H159.5M10.5 173.5H0M159.5 173.5V104C159.5 84.4934 152.987 30.7413 88.5 28.1009M159.5 173.5H170M81.5 28.1009C83.1312 28.0341 83.2977 28 85 28C86.7023 28 86.8688 28.0341 88.5 28.1009M81.5 28.1009V37.5M81.5 37.5H88.5M81.5 37.5H75.5M88.5 37.5V28.1009M88.5 37.5H94.5" stroke="black" stroke-linecap="round"/>
<circle cx="85" cy="104" r="57" stroke="black" stroke-width="2"/>
<path d="M69 49C69 49 79 35 85 35C91.0001 35 101 49 101 49" stroke="black" stroke-width="2"/>
<path d="M86.4998 104C86.4998 105 85.8282 105.5 84.9998 105.5C84.1714 105.5 83.7007 104.804 83.4998 104C83.2315 102.927 84.0137 102.069 85 101.5C86.7414 100.496 88.9475 102.067 89.4998 104C90.1826 106.39 87.4852 108.5 85 108.5C82.5147 108.5 80.7471 106.473 80.4998 104C80.2237 101.239 82.3126 99.1927 85 98.5C88.5171 97.5934 91.9475 100.41 92.4998 104C93.1297 108.094 89.1419 111.5 84.9998 111.5C80.8577 111.5 77.7582 108.134 77.4998 104C77.2237 99.5817 80.6349 96.2371 85 95.5C90.202 94.6216 94.9475 98.7534 95.4998 104C96.1069 109.767 90.7988 114.5 84.9998 114.5C79.2008 114.5 74.7631 109.793 74.4998 104C74.2237 97.9248 78.9662 93.2596 85 92.5C91.8713 91.6349 97.9475 97.0965 98.4998 104C99.0944 111.432 92.4557 117.5 84.9998 117.5C77.544 117.5 71.7659 111.451 71.4998 104C71.2237 96.268 77.3018 90.2733 85 89.5C93.5352 88.6427 100.948 95.4397 101.5 104C102.087 113.094 94.1125 120.5 84.9998 120.5C75.8871 120.5 68.7677 113.109 68.4998 104C68.2237 94.6111 75.6397 87.2824 85 86.5C95.1966 85.6477 103.948 93.7828 104.5 104C105.081 114.754 95.7694 123.5 84.9998 123.5C74.2303 123.5 65.769 114.766 65.4998 104C65.2237 92.9542 73.979 84.2889 85 83.5C96.8566 82.6513 106.948 92.1259 107.5 104C108.077 116.413 97.4262 126.5 84.9998 126.5C72.5734 126.5 62.7699 116.423 62.4998 104C62.2237 91.2974 72.3192 81.2938 85 80.5C98.5157 79.6539 109.948 90.4691 110.5 104C111.074 118.072 99.0831 129.5 84.9998 129.5C70.9166 129.5 59.7706 118.081 59.4998 104C59.2237 89.6405 70.6601 78.2977 85 77.5C100.174 76.6559 112.948 88.8122 113.5 104C114.072 119.73 100.74 132.5 84.9998 132.5C69.2597 132.5 56.7712 119.738 56.4998 104C56.2237 87.9837 69.0014 75.3007 85.0001 74.5C101.833 73.6576 115.948 87.1554 116.5 104C117.07 121.388 102.397 135.5 84.9998 135.5C67.6028 135.5 53.7716 121.395 53.4998 104C53.2237 86.3268 67.343 72.3032 85 71.5C103.491 70.6588 118.948 85.4985 119.5 104C120.068 123.045 104.054 138.5 84.9998 138.5C65.946 138.5 50.772 123.052 50.4998 104C50.2237 84.67 65.6849 69.3053 85.0001 68.5C105.148 67.66 121.948 83.8417 122.5 104C123.067 124.703 105.71 141.5 84.9998 141.5C64.2891 141.5 47.7723 124.709 47.4998 104C47.2237 83.0131 64.0269 66.3071 85 65.5C106.806 64.6609 124.948 82.1848 125.5 104C126.066 126.36 107.367 144.5 84.9998 144.5C62.6323 144.5 44.7726 126.366 44.4998 104C44.2237 81.3562 62.3691 63.3086 85.0001 62.5C108.464 61.6617 127.948 80.528 128.5 104C129.065 128.018 109.024 147.5 84.9998 147.5C60.9754 147.5 41.7728 128.023 41.4998 104C41.2237 79.6994 60.7114 60.3099 85.0001 59.5C110.121 58.6624 130.948 78.8711 131.5 104C132.064 129.675 110.681 150.5 84.9998 150.5C59.3186 150.5 38.773 129.68 38.4998 104C38.2237 78.0426 59.0538 57.3111 85 56.5C111.778 55.6629 133.948 77.2142 134.5 104C135.063 131.332 112.338 153.5 84.9998 153.5C57.6617 153.5 35.7732 131.337 35.4998 104C35.2237 76.3857 57.3964 54.312 85.0001 53.5C113.436 52.6635 136.948 75.5574 137.5 104C138.063 132.989 113.995 156.5 84.9998 156.5C56.0049 156.5 32.7734 132.994 32.4998 104C32.2237 74.7288 55.7389 51.3129 85.0001 50.5C115.093 49.664 139.948 73.9006 140.5 104C141.062 134.647 115.652 159.5 84.9998 159.5C54.348 159.5 29.7735 134.651 29.4998 104C29.2237 73.072 54.0816 48.3137 85.0001 47.5" stroke="black" stroke-linecap="round"/>
<path fill-rule="evenodd" clip-rule="evenodd" d="M120.854 187.037L120.61 185.052C120.423 183.526 119.678 182.205 118.605 181.267C118.352 181.284 118.126 181.107 118.081 180.858C116.911 180.044 115.449 179.641 113.923 179.828C112.692 179.979 111.593 180.494 110.722 181.251C110.932 181.289 111.101 181.46 111.129 181.682C111.162 181.956 110.968 182.206 110.693 182.24C110.428 182.272 110.186 182.091 110.14 181.831C109.704 182.33 109.351 182.899 109.098 183.517C109.251 183.587 109.365 183.732 109.387 183.911C109.421 184.185 109.226 184.435 108.952 184.468C108.9 184.475 108.849 184.473 108.8 184.464C108.701 184.902 108.651 185.356 108.654 185.819C108.708 185.632 108.869 185.486 109.074 185.461C109.348 185.427 109.597 185.622 109.631 185.896C109.665 186.17 109.47 186.42 109.196 186.454C108.959 186.483 108.741 186.342 108.664 186.127C108.672 186.255 108.683 186.385 108.699 186.514L108.943 188.5C108.992 188.9 109.08 189.287 109.202 189.657C109.28 189.536 109.408 189.45 109.561 189.431C109.836 189.398 110.085 189.592 110.119 189.866C110.152 190.141 109.957 190.39 109.683 190.424C109.624 190.431 109.567 190.428 109.512 190.415C110.319 192.058 111.845 193.249 113.633 193.635C113.608 193.585 113.591 193.53 113.584 193.471C113.55 193.197 113.745 192.948 114.019 192.914C114.293 192.88 114.543 193.075 114.576 193.349C114.595 193.502 114.542 193.648 114.445 193.752C114.832 193.781 115.229 193.773 115.63 193.724C115.759 193.708 115.888 193.688 116.014 193.664C115.787 193.641 115.598 193.463 115.569 193.227C115.535 192.953 115.73 192.704 116.004 192.67C116.278 192.636 116.528 192.831 116.561 193.105C116.587 193.31 116.484 193.502 116.316 193.599C116.766 193.49 117.194 193.332 117.595 193.13C117.574 193.085 117.56 193.036 117.554 192.984C117.52 192.71 117.715 192.46 117.989 192.426C118.168 192.404 118.337 192.48 118.442 192.612C118.98 192.217 119.447 191.737 119.825 191.193C119.562 191.211 119.328 191.02 119.295 190.755C119.262 190.481 119.457 190.231 119.731 190.198C119.953 190.17 120.16 190.294 120.247 190.488C120.771 189.459 121.005 188.269 120.854 187.037ZM113.68 177.843C109.294 178.381 106.176 182.373 106.714 186.758L106.714 186.758L48.154 193.949C47.6059 194.016 47.216 194.515 47.2834 195.063C47.3507 195.611 47.8496 196.001 48.3978 195.934L106.958 188.743L106.958 188.743C107.497 193.129 111.488 196.247 115.873 195.709C120.259 195.17 123.377 191.179 122.839 186.793L122.595 184.808C122.057 180.423 118.065 177.304 113.68 177.843ZM116.892 183.493C117.167 183.46 117.361 183.21 117.328 182.936C117.294 182.662 117.045 182.467 116.771 182.501C116.496 182.535 116.302 182.784 116.335 183.058C116.369 183.332 116.618 183.527 116.892 183.493ZM117.084 180.951C117.118 181.225 116.923 181.475 116.649 181.508C116.375 181.542 116.125 181.347 116.091 181.073C116.058 180.799 116.253 180.549 116.527 180.516C116.801 180.482 117.05 180.677 117.084 180.951ZM114.664 181.752C114.938 181.718 115.133 181.469 115.099 181.195C115.065 180.921 114.816 180.726 114.542 180.76C114.268 180.793 114.073 181.043 114.106 181.317C114.14 181.591 114.39 181.786 114.664 181.752ZM113.114 181.439C113.148 181.713 112.953 181.962 112.679 181.996C112.404 182.03 112.155 181.835 112.121 181.561C112.088 181.286 112.283 181.037 112.557 181.003C112.831 180.97 113.08 181.165 113.114 181.439ZM112.922 183.981C113.196 183.947 113.391 183.698 113.358 183.424C113.324 183.15 113.074 182.955 112.8 182.988C112.526 183.022 112.331 183.272 112.365 183.546C112.399 183.82 112.648 184.015 112.922 183.981ZM115.343 183.18C115.376 183.454 115.181 183.704 114.907 183.737C114.633 183.771 114.384 183.576 114.35 183.302C114.316 183.028 114.511 182.778 114.785 182.745C115.06 182.711 115.309 182.906 115.343 183.18ZM117.38 187.464C117.654 187.43 117.849 187.181 117.815 186.906C117.782 186.632 117.532 186.437 117.258 186.471C116.984 186.505 116.789 186.754 116.823 187.028C116.856 187.302 117.106 187.497 117.38 187.464ZM117.572 184.921C117.605 185.195 117.41 185.445 117.136 185.479C116.862 185.512 116.613 185.317 116.579 185.043C116.545 184.769 116.74 184.52 117.014 184.486C117.288 184.452 117.538 184.647 117.572 184.921ZM115.151 185.722C115.425 185.689 115.62 185.439 115.586 185.165C115.553 184.891 115.303 184.696 115.029 184.73C114.755 184.763 114.56 185.013 114.594 185.287C114.628 185.561 114.877 185.756 115.151 185.722ZM113.601 185.409C113.635 185.683 113.44 185.932 113.166 185.966C112.892 186 112.642 185.805 112.609 185.531C112.575 185.257 112.77 185.007 113.044 184.973C113.318 184.94 113.568 185.135 113.601 185.409ZM113.41 187.951C113.684 187.917 113.879 187.668 113.845 187.394C113.811 187.12 113.562 186.925 113.288 186.959C113.014 186.992 112.819 187.242 112.853 187.516C112.886 187.79 113.136 187.985 113.41 187.951ZM115.83 187.15C115.864 187.424 115.669 187.674 115.395 187.707C115.121 187.741 114.871 187.546 114.838 187.272C114.804 186.998 114.999 186.749 115.273 186.715C115.547 186.681 115.797 186.876 115.83 187.15ZM117.867 191.434C118.141 191.4 118.336 191.151 118.303 190.877C118.269 190.603 118.02 190.408 117.746 190.441C117.471 190.475 117.277 190.724 117.31 190.999C117.344 191.273 117.593 191.467 117.867 191.434ZM118.059 188.892C118.093 189.166 117.898 189.415 117.624 189.449C117.35 189.482 117.1 189.287 117.066 189.013C117.033 188.739 117.228 188.49 117.502 188.456C117.776 188.423 118.025 188.617 118.059 188.892ZM118.878 183.25C119.152 183.216 119.347 182.967 119.313 182.693C119.279 182.418 119.03 182.224 118.756 182.257C118.482 182.291 118.287 182.54 118.32 182.814C118.354 183.088 118.603 183.283 118.878 183.25ZM119.365 187.22C119.639 187.186 119.834 186.937 119.8 186.663C119.767 186.389 119.517 186.194 119.243 186.227C118.969 186.261 118.774 186.51 118.808 186.785C118.841 187.059 119.091 187.254 119.365 187.22ZM119.557 184.678C119.59 184.952 119.395 185.201 119.121 185.235C118.847 185.268 118.598 185.074 118.564 184.799C118.53 184.525 118.725 184.276 118.999 184.242C119.273 184.209 119.523 184.404 119.557 184.678ZM119.609 189.205C119.883 189.171 120.078 188.922 120.044 188.648C120.01 188.374 119.761 188.179 119.487 188.212C119.213 188.246 119.018 188.496 119.052 188.77C119.085 189.044 119.335 189.239 119.609 189.205ZM115.639 189.692C115.913 189.659 116.108 189.409 116.074 189.135C116.04 188.861 115.791 188.666 115.517 188.7C115.243 188.734 115.048 188.983 115.081 189.257C115.115 189.531 115.364 189.726 115.639 189.692ZM114.089 189.379C114.122 189.653 113.928 189.903 113.653 189.936C113.379 189.97 113.13 189.775 113.096 189.501C113.063 189.227 113.258 188.977 113.532 188.944C113.806 188.91 114.055 189.105 114.089 189.379ZM113.897 191.921C114.171 191.888 114.366 191.638 114.333 191.364C114.299 191.09 114.049 190.895 113.775 190.929C113.501 190.962 113.306 191.212 113.34 191.486C113.374 191.76 113.623 191.955 113.897 191.921ZM110.937 184.225C111.211 184.191 111.406 183.942 111.373 183.667C111.339 183.393 111.089 183.198 110.815 183.232C110.541 183.266 110.346 183.515 110.38 183.789C110.414 184.063 110.663 184.258 110.937 184.225ZM111.616 185.653C111.65 185.927 111.455 186.176 111.181 186.21C110.907 186.243 110.657 186.049 110.624 185.774C110.59 185.5 110.785 185.251 111.059 185.217C111.333 185.184 111.583 185.378 111.616 185.653ZM111.425 188.195C111.699 188.161 111.894 187.912 111.86 187.638C111.826 187.364 111.577 187.169 111.303 187.202C111.029 187.236 110.834 187.485 110.867 187.76C110.901 188.034 111.151 188.229 111.425 188.195ZM112.104 189.623C112.137 189.897 111.942 190.146 111.668 190.18C111.394 190.214 111.145 190.019 111.111 189.745C111.078 189.471 111.272 189.221 111.547 189.187C111.821 189.154 112.07 189.349 112.104 189.623ZM111.912 192.165C112.186 192.131 112.381 191.882 112.347 191.608C112.314 191.334 112.064 191.139 111.79 191.173C111.516 191.206 111.321 191.456 111.355 191.73C111.389 192.004 111.638 192.199 111.912 192.165ZM109.44 188.439C109.714 188.405 109.909 188.155 109.875 187.881C109.841 187.607 109.592 187.412 109.318 187.446C109.044 187.48 108.849 187.729 108.882 188.003C108.916 188.277 109.165 188.472 109.44 188.439ZM116.318 191.12C116.351 191.394 116.156 191.644 115.882 191.678C115.608 191.711 115.359 191.516 115.325 191.242C115.291 190.968 115.486 190.719 115.76 190.685C116.035 190.651 116.284 190.846 116.318 191.12Z" fill="black"/>
</g>
<defs>
<clipPath id="clip0">
<rect width="170" height="204" fill="white"/>
</clipPath>
</defs>
</svg>
