<svg width="192" height="224" viewBox="0 0 192 224" fill="none" xmlns="http://www.w3.org/2000/svg">
<path d="M21.5 183.5V114C21.5 94.4934 28.0127 40.7413 92.5 38.1009M21.5 183.5H170.5M21.5 183.5H11M170.5 183.5V114C170.5 94.4934 163.987 40.7413 99.5 38.1009M170.5 183.5H181M92.5 38.1009C94.1312 38.0341 94.2977 38 96 38C97.7023 38 97.8688 38.0341 99.5 38.1009M92.5 38.1009V47.5M92.5 47.5H99.5M92.5 47.5H86.5M99.5 47.5V38.1009M99.5 47.5H105.5" stroke="black" stroke-linecap="round"/>
<circle cx="96" cy="114" r="57" stroke="black" stroke-width="2"/>
<path d="M80 59C80 59 90 45 96 45C102 45 112 59 112 59" stroke="black" stroke-width="2"/>
<path d="M97.4998 114C97.4998 115 96.8282 115.5 95.9998 115.5C95.1714 115.5 94.7007 114.804 94.4998 114C94.2315 112.927 95.0137 112.069 96 111.5C97.7414 110.496 99.9475 112.067 100.5 114C101.183 116.39 98.4852 118.5 96 118.5C93.5147 118.5 91.7471 116.473 91.4998 114C91.2237 111.239 93.3126 109.193 96 108.5C99.5171 107.593 102.948 110.41 103.5 114C104.13 118.094 100.142 121.5 95.9998 121.5C91.8577 121.5 88.7582 118.134 88.4998 114C88.2237 109.582 91.6349 106.237 96 105.5C101.202 104.622 105.948 108.753 106.5 114C107.107 119.767 101.799 124.5 95.9998 124.5C90.2008 124.5 85.7631 119.793 85.4998 114C85.2237 107.925 89.9662 103.26 96 102.5C102.871 101.635 108.948 107.097 109.5 114C110.094 121.432 103.456 127.5 95.9998 127.5C88.544 127.5 82.7659 121.451 82.4998 114C82.2237 106.268 88.3018 100.273 96 99.5C104.535 98.6427 111.948 105.44 112.5 114C113.087 123.094 105.113 130.5 95.9998 130.5C86.8871 130.5 79.7677 123.109 79.4998 114C79.2237 104.611 86.6397 97.2824 96 96.5C106.197 95.6477 114.948 103.783 115.5 114C116.081 124.754 106.769 133.5 95.9998 133.5C85.2303 133.5 76.769 124.766 76.4998 114C76.2237 102.954 84.979 94.2889 96 93.5C107.857 92.6513 117.948 102.126 118.5 114C119.077 126.413 108.426 136.5 95.9998 136.5C83.5734 136.5 73.7699 126.423 73.4998 114C73.2237 101.297 83.3192 91.2938 96 90.5C109.516 89.6539 120.948 100.469 121.5 114C122.074 128.072 110.083 139.5 95.9998 139.5C81.9166 139.5 70.7706 128.081 70.4998 114C70.2237 99.6405 81.6601 88.2977 96 87.5C111.174 86.6559 123.948 98.8122 124.5 114C125.072 129.73 111.74 142.5 95.9998 142.5C80.2597 142.5 67.7712 129.738 67.4998 114C67.2237 97.9837 80.0014 85.3007 96.0001 84.5C112.833 83.6576 126.948 97.1554 127.5 114C128.07 131.388 113.397 145.5 95.9998 145.5C78.6028 145.5 64.7716 131.395 64.4998 114C64.2237 96.3268 78.343 82.3032 96 81.5C114.491 80.6588 129.948 95.4985 130.5 114C131.068 133.045 115.054 148.5 95.9998 148.5C76.946 148.5 61.772 133.052 61.4998 114C61.2237 94.67 76.6849 79.3053 96.0001 78.5C116.148 77.66 132.948 93.8417 133.5 114C134.067 134.703 116.71 151.5 95.9998 151.5C75.2891 151.5 58.7723 134.709 58.4998 114C58.2237 93.0131 75.0269 76.3071 96 75.5C117.806 74.6609 135.948 92.1848 136.5 114C137.066 136.36 118.367 154.5 95.9998 154.5C73.6323 154.5 55.7726 136.366 55.4998 114C55.2237 91.3562 73.3691 73.3086 96.0001 72.5C119.464 71.6617 138.948 90.528 139.5 114C140.065 138.018 120.024 157.5 95.9998 157.5C71.9754 157.5 52.7728 138.023 52.4998 114C52.2237 89.6994 71.7114 70.3099 96.0001 69.5C121.121 68.6624 141.948 88.8711 142.5 114C143.064 139.675 121.681 160.5 95.9998 160.5C70.3186 160.5 49.773 139.68 49.4998 114C49.2237 88.0426 70.0538 67.3111 96 66.5C122.778 65.6629 144.948 87.2142 145.5 114C146.063 141.332 123.338 163.5 95.9998 163.5C68.6617 163.5 46.7732 141.337 46.4998 114C46.2237 86.3857 68.3964 64.312 96.0001 63.5C124.436 62.6635 147.948 85.5574 148.5 114C149.063 142.989 124.995 166.5 95.9998 166.5C67.0049 166.5 43.7734 142.994 43.4998 114C43.2237 84.7288 66.7389 61.3129 96.0001 60.5C126.093 59.664 150.948 83.9006 151.5 114C152.062 144.647 126.652 169.5 95.9998 169.5C65.348 169.5 40.7735 144.651 40.4998 114C40.2237 83.072 65.0816 58.3137 96.0001 57.5" stroke="black" stroke-linecap="round"/>
<path fill-rule="evenodd" clip-rule="evenodd" d="M131.791 196.523L131.61 195.052C131.525 194.361 131.326 193.712 131.034 193.121C130.888 193.119 130.744 193.053 130.647 192.929C130.522 192.768 130.511 192.554 130.601 192.385C130.391 192.08 130.154 191.796 129.894 191.537C129.719 191.566 129.535 191.501 129.418 191.351C129.343 191.255 129.309 191.14 129.313 191.027C128.108 190.1 126.552 189.628 124.923 189.828C124.759 189.848 124.597 189.875 124.438 189.908C124.496 189.94 124.549 189.984 124.593 190.04C124.763 190.258 124.724 190.572 124.506 190.742C124.288 190.911 123.974 190.872 123.804 190.654C123.672 190.485 123.667 190.257 123.773 190.085C121.942 190.687 120.537 192.132 119.951 193.915C119.993 194.083 119.945 194.266 119.817 194.392C119.655 195.068 119.61 195.784 119.699 196.514L119.905 198.186C119.937 198.125 119.982 198.07 120.04 198.025C120.257 197.855 120.572 197.894 120.741 198.112C120.911 198.33 120.872 198.644 120.654 198.814C120.448 198.975 120.155 198.948 119.981 198.76C120.328 200.844 121.724 202.514 123.555 203.293C123.499 203.102 123.561 202.888 123.728 202.758C123.945 202.588 124.26 202.627 124.429 202.845C124.599 203.063 124.56 203.377 124.342 203.547C124.336 203.551 124.331 203.556 124.325 203.56C124.986 203.74 125.688 203.808 126.407 203.747C126.286 203.535 126.336 203.261 126.534 203.106C126.752 202.936 127.066 202.975 127.236 203.193C127.328 203.312 127.359 203.458 127.333 203.595C129.153 203.149 130.611 201.889 131.356 200.263C131.29 200.23 131.229 200.182 131.18 200.12C131.01 199.902 131.049 199.588 131.267 199.418C131.393 199.32 131.551 199.292 131.694 199.327C131.851 198.746 131.921 198.133 131.893 197.505C131.755 197.496 131.62 197.431 131.528 197.313C131.359 197.095 131.398 196.781 131.616 196.611C131.669 196.569 131.729 196.54 131.791 196.523ZM124.68 187.843C120.294 188.381 117.176 192.373 117.714 196.758L117.714 196.758L117.714 196.758L59.154 203.949C58.6059 204.016 58.216 204.515 58.2833 205.063C58.3507 205.611 58.8496 206.001 59.3978 205.934L117.958 198.743L117.958 198.743C118.497 203.129 122.488 206.247 126.873 205.709C131.259 205.17 134.377 201.179 133.839 196.793L133.595 194.808C133.057 190.423 129.065 187.304 124.68 187.843ZM126.883 200.299C126.665 200.469 126.626 200.783 126.796 201.001C126.965 201.219 127.28 201.258 127.497 201.088C127.715 200.918 127.754 200.604 127.584 200.386C127.415 200.169 127.101 200.13 126.883 200.299ZM128.025 202.579C127.855 202.361 127.894 202.047 128.112 201.877C128.33 201.707 128.644 201.746 128.814 201.964C128.984 202.182 128.945 202.496 128.727 202.666C128.509 202.835 128.195 202.796 128.025 202.579ZM128.46 199.07C128.242 199.24 128.203 199.554 128.373 199.772C128.543 199.99 128.857 200.029 129.075 199.859C129.293 199.689 129.332 199.375 129.162 199.157C128.992 198.939 128.678 198.9 128.46 199.07ZM129.602 201.349C129.433 201.132 129.472 200.817 129.689 200.648C129.907 200.478 130.221 200.517 130.391 200.735C130.561 200.953 130.522 201.267 130.304 201.437C130.086 201.606 129.772 201.567 129.602 201.349ZM129.951 198.542C129.781 198.325 129.82 198.01 130.038 197.841C130.256 197.671 130.57 197.71 130.74 197.928C130.909 198.146 130.87 198.46 130.653 198.629C130.435 198.799 130.121 198.76 129.951 198.542ZM124.424 197.144C124.206 197.314 124.167 197.628 124.337 197.846C124.507 198.064 124.821 198.103 125.039 197.933C125.257 197.763 125.296 197.449 125.126 197.231C124.956 197.013 124.642 196.974 124.424 197.144ZM125.566 199.423C125.397 199.206 125.436 198.891 125.653 198.722C125.871 198.552 126.185 198.591 126.355 198.809C126.525 199.027 126.486 199.341 126.268 199.51C126.05 199.68 125.736 199.641 125.566 199.423ZM127.231 197.493C127.013 197.662 126.974 197.976 127.144 198.194C127.314 198.412 127.628 198.451 127.846 198.281C128.063 198.112 128.102 197.797 127.933 197.58C127.763 197.362 127.449 197.323 127.231 197.493ZM128.722 196.965C128.552 196.747 128.591 196.433 128.809 196.263C129.026 196.093 129.341 196.132 129.51 196.35C129.68 196.568 129.641 196.882 129.423 197.052C129.205 197.222 128.891 197.183 128.722 196.965ZM127.579 194.685C127.362 194.855 127.323 195.169 127.492 195.387C127.662 195.605 127.976 195.644 128.194 195.474C128.412 195.305 128.451 194.99 128.281 194.773C128.111 194.555 127.797 194.516 127.579 194.685ZM125.914 196.617C125.745 196.399 125.784 196.085 126.002 195.915C126.219 195.745 126.534 195.784 126.703 196.002C126.873 196.22 126.834 196.534 126.616 196.704C126.398 196.873 126.084 196.835 125.914 196.617ZM121.966 193.989C121.748 194.159 121.709 194.473 121.878 194.691C122.048 194.908 122.362 194.947 122.58 194.778C122.798 194.608 122.837 194.294 122.667 194.076C122.498 193.858 122.183 193.819 121.966 193.989ZM123.108 196.268C122.938 196.05 122.977 195.736 123.195 195.567C123.413 195.397 123.727 195.436 123.897 195.654C124.066 195.871 124.027 196.186 123.809 196.355C123.592 196.525 123.277 196.486 123.108 196.268ZM125.305 201.529C125.087 201.698 125.048 202.013 125.218 202.23C125.388 202.448 125.702 202.487 125.92 202.317C126.138 202.148 126.177 201.834 126.007 201.616C125.837 201.398 125.523 201.359 125.305 201.529ZM122.847 198.373C122.629 198.543 122.59 198.857 122.759 199.075C122.929 199.293 123.243 199.332 123.461 199.162C123.679 198.992 123.718 198.678 123.548 198.46C123.379 198.243 123.064 198.204 122.847 198.373ZM123.989 200.653C123.819 200.435 123.858 200.121 124.076 199.951C124.294 199.781 124.608 199.82 124.778 200.038C124.947 200.256 124.908 200.57 124.691 200.74C124.473 200.91 124.159 200.871 123.989 200.653ZM121.617 196.796C121.399 196.966 121.36 197.28 121.53 197.498C121.7 197.715 122.014 197.754 122.232 197.585C122.45 197.415 122.489 197.101 122.319 196.883C122.149 196.665 121.835 196.626 121.617 196.796ZM120.301 195.92C120.131 195.702 120.17 195.388 120.388 195.218C120.606 195.049 120.92 195.087 121.09 195.305C121.259 195.523 121.22 195.837 121.003 196.007C120.785 196.177 120.471 196.138 120.301 195.92ZM124.772 194.337C124.554 194.507 124.515 194.821 124.685 195.039C124.855 195.257 125.169 195.296 125.387 195.126C125.605 194.956 125.644 194.642 125.474 194.424C125.304 194.207 124.99 194.168 124.772 194.337ZM126.263 193.81C126.093 193.592 126.132 193.278 126.35 193.108C126.568 192.938 126.882 192.977 127.052 193.195C127.221 193.413 127.182 193.727 126.965 193.897C126.747 194.066 126.433 194.027 126.263 193.81ZM125.121 191.53C124.903 191.7 124.864 192.014 125.034 192.232C125.203 192.45 125.518 192.489 125.735 192.319C125.953 192.149 125.992 191.835 125.822 191.617C125.653 191.4 125.339 191.361 125.121 191.53ZM130.299 195.735C130.129 195.518 130.168 195.204 130.386 195.034C130.604 194.864 130.918 194.903 131.088 195.121C131.258 195.339 131.219 195.653 131.001 195.823C130.783 195.992 130.469 195.953 130.299 195.735ZM129.157 193.456C128.939 193.626 128.9 193.94 129.07 194.158C129.24 194.376 129.554 194.415 129.772 194.245C129.989 194.075 130.028 193.761 129.859 193.543C129.689 193.325 129.375 193.286 129.157 193.456ZM127.841 192.58C127.671 192.362 127.71 192.048 127.928 191.879C128.145 191.709 128.46 191.748 128.629 191.966C128.799 192.183 128.76 192.498 128.542 192.667C128.324 192.837 128.01 192.798 127.841 192.58ZM126.698 190.301C126.48 190.471 126.442 190.785 126.611 191.003C126.781 191.221 127.095 191.26 127.313 191.09C127.531 190.92 127.57 190.606 127.4 190.388C127.23 190.17 126.916 190.131 126.698 190.301ZM120.649 193.113C120.479 192.895 120.518 192.581 120.736 192.411C120.954 192.242 121.268 192.281 121.438 192.498C121.608 192.716 121.569 193.03 121.351 193.2C121.133 193.37 120.819 193.331 120.649 193.113ZM121.182 200.304C121.012 200.087 121.051 199.772 121.269 199.603C121.487 199.433 121.801 199.472 121.971 199.69C122.14 199.908 122.101 200.222 121.884 200.392C121.666 200.561 121.352 200.522 121.182 200.304ZM122.498 201.18C122.28 201.35 122.241 201.664 122.411 201.882C122.581 202.1 122.895 202.139 123.113 201.969C123.331 201.799 123.37 201.485 123.2 201.267C123.03 201.05 122.716 201.011 122.498 201.18ZM123.456 193.461C123.286 193.244 123.325 192.929 123.543 192.76C123.761 192.59 124.075 192.629 124.245 192.847C124.414 193.065 124.375 193.379 124.158 193.549C123.94 193.718 123.626 193.679 123.456 193.461ZM122.314 191.182C122.096 191.352 122.057 191.666 122.227 191.884C122.396 192.102 122.71 192.141 122.928 191.971C123.146 191.801 123.185 191.487 123.015 191.269C122.846 191.051 122.531 191.012 122.314 191.182Z" fill="black"/>
</svg>
