<svg width="104" height="166" viewBox="0 0 104 166" fill="none" xmlns="http://www.w3.org/2000/svg">
<path fill-rule="evenodd" clip-rule="evenodd" d="M47.5413 2.58395C49.0195 1.02291 50.5293 0 52.0001 0C53.4709 0 54.9807 1.02291 56.4589 2.58395C57.9589 4.16805 59.5238 6.41133 61.1021 9.07312C64.2608 14.4006 67.5215 21.4889 70.4618 28.558C73.4037 35.6311 76.0318 42.7022 77.9241 48.0038C78.8704 50.6549 79.633 52.8644 80.159 54.4113L80.2512 54.6825C87.5093 61.9237 92.0001 71.9374 92.0001 83C92.0001 105.091 74.0915 123 52.0001 123C41.4454 123 31.8455 118.912 24.6973 112.233L3.18784 134.937C2.12725 135.998 1.42007 135.998 1.42007 135.998C0.713018 135.998 0.00589824 135.291 0.00585938 134.584C0.00585938 134.584 0.00580597 133.877 1.06652 132.816L23.7542 111.323C16.4931 104.081 12.0001 94.0652 12.0001 83C12.0001 71.9374 16.491 61.9238 23.749 54.6826L23.8412 54.4113C24.3673 52.8644 25.1298 50.6549 26.0761 48.0038C27.9684 42.7022 30.5965 35.6311 33.5384 28.558C36.4787 21.4889 39.7394 14.4006 42.8981 9.07312C44.4764 6.41133 46.0414 4.16805 47.5413 2.58395ZM26.0729 110.781L28.6439 108.067L35.715 100.996L36.0686 101.35C36.2639 101.545 36.5805 101.545 36.7757 101.35C36.971 101.155 36.971 100.838 36.7757 100.643L36.4221 100.289L40.6647 96.0464L41.0183 96.4C41.2136 96.5953 41.5302 96.5953 41.7254 96.4C41.9207 96.2048 41.9207 95.8882 41.7254 95.6929L41.3718 95.3393L45.6144 91.0966L45.9681 91.4503C46.1633 91.6455 46.4799 91.6455 46.6752 91.4503C46.8704 91.255 46.8704 90.9384 46.6752 90.7432L46.3216 90.3895L51.2711 85.44L50.564 84.7329L45.6144 89.6824L45.261 89.3289C45.0657 89.1337 44.7491 89.1337 44.5539 89.3289C44.3586 89.5242 44.3586 89.8408 44.5539 90.036L44.9073 90.3895L40.6647 94.6322L40.3112 94.2787C40.1159 94.0834 39.7994 94.0834 39.6041 94.2787C39.4088 94.474 39.4088 94.7905 39.6041 94.9858L39.9576 95.3393L35.715 99.5819L35.3615 99.2285C35.1662 99.0332 34.8497 99.0332 34.6544 99.2285C34.4591 99.4237 34.4591 99.7403 34.6544 99.9356L35.0078 100.289L27.9368 107.36L25.2067 109.946C18.285 103.064 14.0001 93.5323 14.0001 83C14.0001 62.0132 31.0133 45 52.0001 45C72.9869 45 90.0001 62.0132 90.0001 83C90.0001 103.987 72.9869 121 52.0001 121C41.9783 121 32.8625 117.12 26.0729 110.781ZM76.9823 48.34C77.6489 50.2073 78.224 51.855 78.6892 53.2053C71.6098 46.8595 62.2557 43 52.0001 43C41.7445 43 32.3904 46.8595 25.311 53.2054C25.7762 51.855 26.3513 50.2074 27.0179 48.34C28.9068 43.0478 31.5287 35.9939 34.4618 28.942C37.3965 21.8861 40.6358 14.8494 43.7583 9.58313C45.3207 6.94804 46.8417 4.77726 48.2675 3.27152C49.7151 1.74272 50.9709 1 52.0001 1C53.0293 1 54.2851 1.74272 55.7327 3.27152C57.1585 4.77726 58.6795 6.94804 60.2419 9.58313C63.3644 14.8494 66.6037 21.8861 69.5384 28.942C72.4715 35.9939 75.0934 43.0478 76.9823 48.34ZM20.8078 90.7291C20.5738 90.8759 20.5032 91.1845 20.6499 91.4184C20.7967 91.6523 21.1053 91.723 21.3392 91.5762C22.7339 90.7013 23.8842 90.2731 24.9087 90.0595C25.9398 89.8446 26.8618 89.8421 27.8356 89.841L27.8519 89.8409C28.8138 89.8398 29.8273 89.8386 30.9653 89.6013C32.1162 89.3614 33.3764 88.8849 34.8622 87.9528C35.0961 87.806 35.1667 87.4974 35.02 87.2635C34.8732 87.0296 34.5646 86.9589 34.3307 87.1057C32.9361 87.9806 31.7858 88.4088 30.7612 88.6224C29.7302 88.8373 28.8081 88.8398 27.8344 88.841L27.818 88.841C26.8561 88.8421 25.8427 88.8433 24.7047 89.0806C23.5537 89.3205 22.2935 89.797 20.8078 90.7291ZM19.8532 82.5219C19.5893 82.6031 19.4412 82.8829 19.5224 83.1469C19.6036 83.4108 19.8834 83.5589 20.1473 83.4777C21.7209 82.9935 22.9428 82.8777 23.9878 82.9365C25.0393 82.9958 25.9306 83.2321 26.8714 83.483L26.8872 83.4872C27.8166 83.735 28.7959 83.9962 29.9565 84.0615C31.1303 84.1277 32.4709 83.9935 34.1473 83.4777C34.4112 83.3965 34.5594 83.1167 34.4781 82.8528C34.3969 82.5889 34.1171 82.4407 33.8532 82.5219C32.2796 83.0061 31.0577 83.122 30.0128 83.0631C28.9612 83.0039 28.07 82.7676 27.1291 82.5167L27.1133 82.5125C26.1839 82.2646 25.2046 82.0035 24.044 81.9381C22.8702 81.872 21.5296 82.0061 19.8532 82.5219ZM21.0552 74.3474C20.7792 74.3575 20.5637 74.5894 20.5739 74.8654C20.584 75.1413 20.8159 75.3568 21.0919 75.3467C22.7372 75.2863 23.9475 75.4906 24.9415 75.8179C25.9419 76.1473 26.7416 76.6062 27.5855 77.0921L27.5997 77.1002C28.4333 77.5802 29.3116 78.0859 30.4157 78.4494C31.5324 78.8171 32.8621 79.0345 34.6148 78.9701C34.8908 78.96 35.1063 78.7281 35.0961 78.4521C35.086 78.1762 34.8541 77.9607 34.5781 77.9708C32.9328 78.0312 31.7225 77.8269 30.7285 77.4996C29.7281 77.1702 28.9284 76.7113 28.0845 76.2254L28.0703 76.2173C27.2367 75.7373 26.3584 75.2316 25.2543 74.8681C24.1376 74.5004 22.8079 74.283 21.0552 74.3474ZM24.3319 66.7625C24.0628 66.7009 23.7946 66.8691 23.7329 67.1383C23.6713 67.4075 23.8396 67.6757 24.1087 67.7373C25.7136 68.1048 26.8298 68.6154 27.7053 69.1889C28.5863 69.7659 29.24 70.4162 29.9294 71.1039L29.9409 71.1154C30.6219 71.7948 31.3394 72.5106 32.3118 73.1475C33.2953 73.7917 34.5234 74.3458 36.2331 74.7373C36.5023 74.7989 36.7704 74.6307 36.8321 74.3615C36.8937 74.0923 36.7255 73.8242 36.4563 73.7625C34.8514 73.395 33.7353 72.8844 32.8598 72.311C31.9787 71.7339 31.325 71.0837 30.6356 70.3959L30.6241 70.3844L30.624 70.3843L30.624 70.3843C29.943 69.705 29.2256 68.9892 28.2532 68.3523C27.2697 67.7081 26.0416 67.154 24.3319 66.7625ZM29.4603 60.2842C29.2163 60.155 28.9137 60.2481 28.7845 60.4921C28.6553 60.7362 28.7484 61.0388 28.9924 61.168C30.4475 61.9383 31.3935 62.7204 32.0907 63.5009C32.7924 64.2863 33.2555 65.0836 33.7434 65.9263L33.7516 65.9405C34.2336 66.773 34.7413 67.65 35.5158 68.5169C36.299 69.3937 37.3418 70.2468 38.8919 71.0674C39.136 71.1966 39.4386 71.1035 39.5678 70.8595C39.697 70.6154 39.6039 70.3129 39.3598 70.1837C37.9047 69.4133 36.9588 68.6312 36.2615 67.8507C35.5599 67.0653 35.0967 66.268 34.6088 65.4253L34.6006 65.4111C34.1187 64.5787 33.6109 63.7016 32.8365 62.8347C32.0532 61.9579 31.0105 61.1048 29.4603 60.2842ZM51.3532 100.022C51.6171 99.9408 51.8969 100.089 51.9781 100.353C52.4939 102.029 52.6281 103.37 52.5619 104.544C52.4965 105.704 52.2354 106.684 51.9876 107.613L51.9833 107.629C51.7324 108.57 51.4962 109.461 51.4369 110.512C51.3781 111.557 51.4939 112.779 51.9781 114.353C52.0593 114.617 51.9112 114.897 51.6473 114.978C51.3833 115.059 51.1035 114.911 51.0223 114.647C50.5065 112.971 50.3724 111.63 50.4385 110.456C50.5039 109.296 50.765 108.316 51.0129 107.387L51.0171 107.371C51.268 106.43 51.5043 105.539 51.5635 104.487C51.6224 103.442 51.5065 102.221 51.0223 100.647C50.9411 100.383 51.0892 100.103 51.3532 100.022ZM51.3532 51.022C51.6171 50.9408 51.8969 51.0889 51.9781 51.3529C52.4939 53.0293 52.6281 54.3698 52.5619 55.5437C52.4965 56.7043 52.2354 57.6835 51.9876 58.6129L51.9833 58.6287C51.7324 59.5696 51.4962 60.4609 51.4369 61.5124C51.3781 62.5573 51.4939 63.7793 51.9781 65.3529C52.0593 65.6168 51.9112 65.8966 51.6473 65.9778C51.3833 66.059 51.1036 65.9109 51.0223 65.647C50.5065 63.9706 50.3724 62.63 50.4385 61.4562C50.5039 60.2955 50.765 59.3163 51.0129 58.3869L51.0171 58.3711C51.268 57.4302 51.5043 56.539 51.5635 55.4874C51.6224 54.4425 51.5065 53.2206 51.0223 51.647C50.9411 51.383 51.0892 51.1032 51.3532 51.022ZM43.771 52.3075C43.6243 52.0736 43.3157 52.003 43.0818 52.1497C42.8479 52.2965 42.7772 52.6051 42.9239 52.839C43.7989 54.2336 44.2271 55.384 44.4407 56.4085C44.6556 57.4396 44.6581 58.3616 44.6592 59.3353L44.6592 59.3517C44.6604 60.3136 44.6616 61.327 44.8988 62.465C45.1388 63.616 45.6153 64.8762 46.5474 66.3619C46.6942 66.5959 47.0028 66.6665 47.2367 66.5198C47.4706 66.373 47.5413 66.0644 47.3945 65.8305C46.5195 64.4358 46.0914 63.2855 45.8778 62.261C45.6628 61.2299 45.6604 60.3079 45.6592 59.3341L45.6592 59.3178C45.6581 58.3559 45.6569 57.3424 45.4196 56.2044C45.1797 55.0535 44.7032 53.7933 43.771 52.3075ZM55.7639 99.4801C55.9978 99.3333 56.3064 99.404 56.4532 99.6379C57.3853 101.124 57.8618 102.384 58.1018 103.535C58.339 104.673 58.3402 105.686 58.3413 106.648L58.3414 106.665C58.3425 107.638 58.345 108.56 58.5599 109.591C58.7735 110.616 59.2017 111.766 60.0766 113.161C60.2234 113.395 60.1527 113.703 59.9188 113.85C59.6849 113.997 59.3763 113.926 59.2296 113.692C58.2974 112.207 57.8209 110.946 57.581 109.795C57.3437 108.657 57.3425 107.644 57.3414 106.682L57.3414 106.666C57.3402 105.692 57.3377 104.77 57.1228 103.739C56.9092 102.714 56.481 101.564 55.6061 100.169C55.4593 99.9354 55.53 99.6268 55.7639 99.4801ZM36.0906 55.3539C35.8883 55.1659 35.5719 55.1775 35.384 55.3798C35.196 55.5821 35.2076 55.8985 35.4099 56.0864C36.616 57.2071 37.3273 58.2074 37.7988 59.1418C38.2733 60.0821 38.5143 60.972 38.7675 61.9123L38.7717 61.9281L38.7717 61.9281C39.0218 62.857 39.2852 63.8356 39.8089 64.8734C40.3386 65.923 41.125 67.0169 42.4099 68.2108C42.6122 68.3988 42.9286 68.3871 43.1166 68.1848C43.3045 67.9825 43.2929 67.6662 43.0906 67.4782C41.8845 66.3575 41.1732 65.3572 40.7017 64.4229C40.2272 63.4826 39.9862 62.5926 39.7331 61.6523L39.7288 61.6365L39.7288 61.6365C39.4787 60.7077 39.2153 59.7291 38.6916 58.6913C38.162 57.6417 37.3755 56.5478 36.0906 55.3539ZM59.884 97.815C60.0719 97.6128 60.3883 97.6011 60.5906 97.7891C61.8755 98.983 62.662 100.077 63.1916 101.127C63.7153 102.164 63.9788 103.143 64.2288 104.072L64.2331 104.088C64.4862 105.028 64.7272 105.918 65.2017 106.858C65.6732 107.792 66.3845 108.793 67.5906 109.913C67.7929 110.101 67.8045 110.418 67.6166 110.62C67.4286 110.822 67.1122 110.834 66.9099 110.646C65.625 109.452 64.8386 108.358 64.3089 107.309C63.7852 106.271 63.5218 105.292 63.2717 104.363L63.2675 104.348C63.0143 103.407 62.7733 102.517 62.2988 101.577C61.8273 100.643 61.116 99.6424 59.9099 98.5217C59.7076 98.3337 59.696 98.0173 59.884 97.815ZM63.4327 95.1404C63.5619 94.8963 63.8645 94.8032 64.1086 94.9324C65.6587 95.7531 66.7015 96.6061 67.4847 97.4829C68.2592 98.3498 68.7669 99.2269 69.2489 100.059L69.2571 100.074C69.745 100.916 70.2081 101.714 70.9098 102.499C71.607 103.279 72.553 104.062 74.0081 104.832C74.2521 104.961 74.3452 105.264 74.216 105.508C74.0868 105.752 73.7842 105.845 73.5402 105.716C71.99 104.895 70.9473 104.042 70.164 103.165C69.3896 102.298 68.8818 101.421 68.3999 100.589L68.3998 100.589L68.3916 100.575C67.9038 99.7318 67.4406 98.9346 66.739 98.1491C66.0417 97.3686 65.0957 96.5865 63.6407 95.8162C63.3966 95.687 63.3035 95.3844 63.4327 95.1404ZM66.1682 91.6383C66.2298 91.3691 66.498 91.2009 66.7672 91.2625C68.4769 91.654 69.7049 92.2081 70.6884 92.8523C71.6608 93.4893 72.3783 94.205 73.0593 94.8844L73.0709 94.8959C73.7603 95.5837 74.414 96.2339 75.295 96.811C76.1705 97.3844 77.2867 97.895 78.8915 98.2625C79.1607 98.3242 79.329 98.5923 79.2673 98.8615C79.2057 99.1307 78.9375 99.2989 78.6683 99.2373C76.9586 98.8458 75.7306 98.2917 74.7471 97.6475C73.7746 97.0106 73.0572 96.2948 72.3762 95.6154L72.3646 95.6039C71.6752 94.9162 71.0215 94.2659 70.1405 93.6889C69.265 93.1154 68.1488 92.6048 66.544 92.2373C66.2748 92.1757 66.1066 91.9075 66.1682 91.6383ZM67.9042 87.5475C67.8941 87.2715 68.1096 87.0396 68.3855 87.0295C70.1383 86.9651 71.4679 87.1825 72.5846 87.5502C73.6888 87.9138 74.567 88.4194 75.4006 88.8994L75.4007 88.8994L75.4148 88.9076C76.2587 89.3934 77.0585 89.8523 78.0588 90.1817C79.0529 90.509 80.2632 90.7134 81.9085 90.6529C82.1845 90.6428 82.4164 90.8583 82.4265 91.1343C82.4366 91.4102 82.2211 91.6421 81.9452 91.6523C80.1924 91.7166 78.8628 91.4992 77.7461 91.1316C76.6419 90.768 75.7637 90.2623 74.93 89.7824L74.9159 89.7742C74.072 89.2883 73.2723 88.8294 72.2719 88.5001C71.2778 88.1728 70.0675 87.9684 68.4222 88.0288C68.1463 88.0389 67.9144 87.8235 67.9042 87.5475ZM68.5224 83.1469C68.4412 82.8829 68.5893 82.6031 68.8532 82.5219C70.5296 82.0061 71.8702 81.872 73.044 81.9381C74.2046 82.0035 75.1839 82.2646 76.1133 82.5125L76.1291 82.5167C77.07 82.7676 77.9612 83.0039 79.0128 83.0631C80.0577 83.122 81.2796 83.0061 82.8532 82.5219C83.1171 82.4407 83.3969 82.5889 83.4781 82.8528C83.5594 83.1167 83.4112 83.3965 83.1473 83.4777C81.4709 83.9935 80.1303 84.1277 78.9565 84.0615C77.7959 83.9962 76.8166 83.735 75.8872 83.4872L75.8714 83.483C74.9306 83.2321 74.0393 82.9958 72.9878 82.9365C71.9428 82.8777 70.7209 82.9935 69.1473 83.4777C68.8834 83.5589 68.6036 83.4108 68.5224 83.1469ZM67.9803 78.7363C67.8335 78.5024 67.9042 78.1938 68.1381 78.047C69.6239 77.1149 70.884 76.6384 72.035 76.3984C73.173 76.1612 74.1864 76.16 75.1483 76.1588L75.1647 76.1588C76.1384 76.1577 77.0605 76.1552 78.0915 75.9403C79.1161 75.7267 80.2664 75.2985 81.6611 74.4235C81.895 74.2768 82.2036 74.3474 82.3503 74.5814C82.4971 74.8153 82.4264 75.1239 82.1925 75.2706C80.7067 76.2028 79.4466 76.6793 78.2956 76.9192C77.1576 77.1565 76.1441 77.1577 75.1822 77.1588L75.1659 77.1588C74.1921 77.16 73.2701 77.1624 72.2391 77.3774C71.2145 77.591 70.0642 78.0191 68.6695 78.8941C68.4356 79.0409 68.127 78.9702 67.9803 78.7363ZM51.6249 84.3792C50.8446 83.5989 50.1987 82.9529 49.6856 82.3963C49.1698 81.8368 48.8112 81.3918 48.592 81.016C48.3746 80.6433 48.3214 80.3846 48.3469 80.1809C48.3722 79.978 48.487 79.739 48.7965 79.4295C49.106 79.1199 49.345 79.0052 49.5479 78.9798C49.7517 78.9544 50.0103 79.0075 50.383 79.2249C50.7588 79.4442 51.2038 79.8028 51.7633 80.3186C52.3199 80.8317 52.9659 81.4776 53.7462 82.2579C54.5265 83.0382 55.1725 83.6842 55.6855 84.2408C56.2013 84.8003 56.5599 85.2453 56.7792 85.6211C56.9966 85.9938 57.0497 86.2524 57.0243 86.4562C56.9989 86.6591 56.8842 86.8981 56.5747 87.2076C56.2651 87.5172 56.0261 87.6319 55.8232 87.6572C55.6195 87.6827 55.3608 87.6295 54.9881 87.4121C54.6123 87.1929 54.1673 86.8343 53.6078 86.3185C53.0513 85.8054 52.4052 85.1595 51.6249 84.3792ZM48.0894 78.7223C47.6918 79.1199 47.4176 79.5527 47.3546 80.0569C47.2917 80.5602 47.4506 81.044 47.7282 81.5199C48.004 81.9926 48.4232 82.5022 48.9504 83.0741C49.4787 83.6472 50.1387 84.3072 50.9112 85.0797L50.9178 85.0863L50.9244 85.0929C51.6969 85.8654 52.3569 86.5254 52.93 87.0537C53.5019 87.581 54.0115 88.0002 54.4843 88.2759C54.9601 88.5535 55.4439 88.7124 55.9473 88.6495C56.4514 88.5865 56.8842 88.3123 57.2818 87.9147C57.6793 87.5172 57.9535 87.0844 58.0166 86.5802C58.0795 86.0769 57.9205 85.593 57.6429 85.1172C57.3672 84.6445 56.948 84.1349 56.4208 83.563C55.8924 82.9898 55.2324 82.3298 54.4599 81.5573L54.4533 81.5508L54.4468 81.5442C53.6743 80.7717 53.0143 80.1117 52.4411 79.5833C51.8692 79.0561 51.3596 78.6369 50.8869 78.3612C50.4111 78.0836 49.9273 77.9246 49.4239 77.9876C48.9197 78.0506 48.487 78.3248 48.0894 78.7223Z" fill="black"/>
</svg>
