<svg width="224" height="224" viewBox="0 0 224 224" fill="none" xmlns="http://www.w3.org/2000/svg">
<path fill-rule="evenodd" clip-rule="evenodd" d="M112 30C111.517 30 110.978 30.1628 110.378 30.5105L109.877 29.6455C110.578 29.2385 111.291 29 112 29C112.709 29 113.422 29.2385 114.124 29.6455L113.622 30.5105C113.022 30.1628 112.483 30 112 30ZM117.036 33.7953C116.104 32.6071 115.213 31.6704 114.376 31.0231L114.988 30.232C115.914 30.9484 116.863 31.9542 117.823 33.1783L117.036 33.7953ZM109.624 31.0231C108.787 31.6704 107.896 32.6071 106.964 33.7953L106.177 33.1784C107.137 31.9542 108.086 30.9484 109.012 30.232L109.624 31.0231ZM119.794 37.8389C119.059 36.6352 118.333 35.5383 117.623 34.5702L118.429 33.9786C119.16 34.9744 119.901 36.0957 120.648 37.3176L119.794 37.8389ZM106.377 34.5702C105.667 35.5383 104.941 36.6352 104.206 37.8389L103.353 37.3176C104.099 36.0957 104.84 34.9744 105.571 33.9786L106.377 34.5702ZM122.227 42.1311C121.585 40.9221 120.944 39.7719 120.308 38.6953L121.169 38.1869C121.814 39.2784 122.462 40.4418 123.11 41.662L122.227 42.1311ZM103.692 38.6953C103.056 39.7719 102.415 40.9221 101.773 42.1312L100.89 41.662C101.538 40.4418 102.186 39.2784 102.831 38.1869L103.692 38.6953ZM124.458 46.5418C123.87 45.3271 123.28 44.1471 122.691 43.0131L123.578 42.5518C124.172 43.6954 124.767 44.8841 125.358 46.1064L124.458 46.5418ZM101.31 43.0132C100.72 44.1471 100.13 45.3271 99.5426 46.5418L98.6424 46.1064C99.2335 44.8842 99.8278 43.6954 100.422 42.5519L101.31 43.0132ZM126.55 51.0283C126.001 49.8102 125.446 48.6108 124.889 47.4401L125.791 47.0102C126.352 48.1878 126.91 49.3935 127.461 50.6172L126.55 51.0283ZM99.1116 47.4401C98.5542 48.6108 97.9997 49.8102 97.4504 51.0283L96.5388 50.6172C97.0906 49.3935 97.648 48.1878 98.2088 47.0102L99.1116 47.4401ZM128.537 55.565C128.017 54.3447 127.489 53.1306 126.955 51.9319L127.868 51.525C128.405 52.729 128.935 53.948 129.457 55.1728L128.537 55.565ZM97.0455 51.9319C96.5115 53.1306 95.9831 54.3447 95.4627 55.5651L94.5429 55.1728C95.0652 53.948 95.5956 52.729 96.132 51.525L97.0455 51.9319ZM130.442 60.1367C129.946 58.9189 129.439 57.6958 128.924 56.4765L129.846 56.0875C130.362 57.311 130.87 58.5381 131.368 59.7596L130.442 60.1367ZM95.0759 56.4765C94.561 57.6958 94.0546 58.9189 93.5587 60.1367L92.6325 59.7596C93.1299 58.5381 93.638 57.311 94.1547 56.0875L95.0759 56.4765ZM132.279 64.7416C131.804 63.5274 131.315 62.2955 130.814 61.0556L131.741 60.6812C132.243 61.9247 132.734 63.16 133.21 64.3772L132.279 64.7416ZM93.1861 61.0556C92.6854 62.2955 92.1964 63.5274 91.7214 64.7416L90.7901 64.3772C91.2664 63.16 91.7567 61.9247 92.2588 60.6812L93.1861 61.0556ZM134.057 69.3696C133.601 68.1624 133.127 66.9217 132.636 65.6587L133.568 65.2967C134.06 66.5628 134.536 67.8065 134.993 69.0165L134.057 69.3696ZM91.3639 65.6587C90.8734 66.9217 90.3989 68.1624 89.9432 69.3697L89.0076 69.0165C89.4644 67.8065 89.94 66.5628 90.4317 65.2967L91.3639 65.6587ZM135.783 74.018C135.348 72.8285 134.888 71.5819 134.404 70.2924L135.341 69.9413C135.825 71.2336 136.287 72.4829 136.722 73.6749L135.783 74.018ZM89.596 70.2924C89.1125 71.5819 88.6518 72.8285 88.2173 74.018L87.278 73.6749C87.7134 72.4829 88.1751 71.2336 88.6597 69.9413L89.596 70.2924ZM137.459 78.6818C137.052 77.5305 136.604 76.2764 136.119 74.9414L137.059 74.6002C137.545 75.938 137.994 77.1948 138.402 78.3484L137.459 78.6818ZM87.8812 74.9414C87.3967 76.2764 86.9483 77.5305 86.5412 78.6818L85.5984 78.3484C86.0063 77.1948 86.4556 75.9381 86.9411 74.6002L87.8812 74.9414ZM152 112C152 100.666 147.286 90.4325 139.711 83.154L140.034 83.044C139.685 82.0213 139.246 80.7497 138.731 79.282L137.787 79.6135C138.122 80.5649 138.423 81.4336 138.689 82.2053C131.61 75.8595 122.256 72 112 72C101.745 72 92.3904 75.8595 85.311 82.2054C85.5768 81.4337 85.8786 80.5649 86.2128 79.6135L85.2693 79.282C84.7538 80.7497 84.3152 82.0213 83.9663 83.044L84.2888 83.154C76.7143 90.4325 72.0001 100.666 72.0001 112C72.0001 123.065 76.4931 133.081 83.7542 140.323L61.0665 161.816C60.0058 162.877 60.0059 163.584 60.0059 163.584C60.0059 164.291 60.713 164.998 61.4201 164.998C61.4201 164.998 62.1273 164.998 63.1878 163.937L84.6973 141.233C91.8455 147.912 101.445 152 112 152C134.092 152 152 134.091 152 112ZM86.0729 139.781C92.8625 146.12 101.978 150 112 150C132.987 150 150 132.987 150 112C150 91.0132 132.987 74 112 74C91.0133 74 74.0001 91.0132 74.0001 112C74.0001 122.532 78.285 132.064 85.2067 138.946L87.9368 136.36L95.0078 129.289L94.6544 128.936C94.4591 128.74 94.4591 128.424 94.6544 128.228C94.8497 128.033 95.1662 128.033 95.3615 128.228L95.715 128.582L99.9576 124.339L99.6041 123.986C99.4088 123.791 99.4088 123.474 99.6041 123.279C99.7994 123.083 100.116 123.083 100.311 123.279L100.665 123.632L104.907 119.39L104.554 119.036C104.359 118.841 104.359 118.524 104.554 118.329C104.749 118.134 105.066 118.134 105.261 118.329L105.614 118.682L110.564 113.733L111.271 114.44L106.322 119.39L106.675 119.743C106.87 119.938 106.87 120.255 106.675 120.45C106.48 120.646 106.163 120.646 105.968 120.45L105.614 120.097L101.372 124.339L101.725 124.693C101.921 124.888 101.921 125.205 101.725 125.4C101.53 125.595 101.214 125.595 101.018 125.4L100.665 125.046L96.4221 129.289L96.7757 129.643C96.971 129.838 96.971 130.155 96.7757 130.35C96.5805 130.545 96.2639 130.545 96.0686 130.35L95.715 129.996L88.6439 137.067L86.0729 139.781ZM80.8078 119.729C80.5738 119.876 80.5032 120.184 80.6499 120.418C80.7967 120.652 81.1053 120.723 81.3392 120.576C82.7339 119.701 83.8842 119.273 84.9087 119.06C85.9398 118.845 86.8618 118.842 87.8356 118.841L87.8519 118.841C88.8138 118.84 89.8273 118.839 90.9653 118.601C92.1162 118.361 93.3764 117.885 94.8622 116.953C95.0961 116.806 95.1667 116.497 95.02 116.263C94.8732 116.03 94.5646 115.959 94.3307 116.106C92.9361 116.981 91.7857 117.409 90.7612 117.622C89.7302 117.837 88.8081 117.84 87.8344 117.841L87.818 117.841C86.8561 117.842 85.8427 117.843 84.7047 118.081C83.5537 118.32 82.2935 118.797 80.8078 119.729ZM79.8532 111.522C79.5893 111.603 79.4412 111.883 79.5224 112.147C79.6036 112.411 79.8834 112.559 80.1473 112.478C81.7209 111.994 82.9428 111.878 83.9878 111.937C85.0393 111.996 85.9306 112.232 86.8714 112.483L86.8872 112.487C87.8166 112.735 88.7959 112.996 89.9565 113.062C91.1303 113.128 92.4709 112.994 94.1473 112.478C94.4112 112.396 94.5594 112.117 94.4781 111.853C94.3969 111.589 94.1171 111.441 93.8532 111.522C92.2796 112.006 91.0577 112.122 90.0128 112.063C88.9612 112.004 88.07 111.768 87.1291 111.517L87.1133 111.513C86.1839 111.265 85.2046 111.004 84.044 110.938C82.8702 110.872 81.5296 111.006 79.8532 111.522ZM81.0552 103.347C80.7792 103.357 80.5637 103.589 80.5739 103.865C80.584 104.141 80.8159 104.357 81.0919 104.347C82.7372 104.286 83.9475 104.491 84.9415 104.818C85.9419 105.147 86.7416 105.606 87.5855 106.092L87.5997 106.1C88.4333 106.58 89.3116 107.086 90.4157 107.449C91.5324 107.817 92.8621 108.035 94.6148 107.97C94.8908 107.96 95.1063 107.728 95.0961 107.452C95.086 107.176 94.8541 106.961 94.5781 106.971C92.9328 107.031 91.7225 106.827 90.7285 106.5C89.7281 106.17 88.9284 105.711 88.0845 105.225L88.0703 105.217C87.2367 104.737 86.3584 104.232 85.2543 103.868C84.1376 103.5 82.8079 103.283 81.0552 103.347ZM84.3319 95.7625C84.0628 95.7009 83.7946 95.8691 83.7329 96.1383C83.6713 96.4075 83.8396 96.6757 84.1087 96.7373C85.7136 97.1048 86.8298 97.6154 87.7053 98.1889C88.5863 98.7659 89.24 99.4162 89.9294 100.104L89.9409 100.115C90.6219 100.795 91.3394 101.511 92.3118 102.148C93.2953 102.792 94.5234 103.346 96.2331 103.737C96.5023 103.799 96.7704 103.631 96.8321 103.362C96.8937 103.092 96.7255 102.824 96.4563 102.763C94.8514 102.395 93.7353 101.884 92.8598 101.311C91.9787 100.734 91.325 100.084 90.6356 99.3959L90.6241 99.3844L90.624 99.3843L90.624 99.3843C89.943 98.705 89.2256 97.9892 88.2532 97.3523C87.2697 96.7081 86.0416 96.154 84.3319 95.7625ZM89.4603 89.2842C89.2163 89.155 88.9137 89.2481 88.7845 89.4921C88.6553 89.7362 88.7484 90.0388 88.9924 90.168C90.4475 90.9383 91.3935 91.7204 92.0907 92.5009C92.7924 93.2863 93.2555 94.0836 93.7434 94.9263L93.7516 94.9405C94.2336 95.773 94.7413 96.65 95.5158 97.5169C96.299 98.3937 97.3418 99.2468 98.8919 100.067C99.136 100.197 99.4386 100.104 99.5678 99.8595C99.697 99.6154 99.6039 99.3129 99.3598 99.1837C97.9047 98.4133 96.9588 97.6312 96.2615 96.8507C95.5599 96.0653 95.0967 95.268 94.6088 94.4253L94.6006 94.4111C94.1187 93.5787 93.6109 92.7016 92.8365 91.8347C92.0532 90.9579 91.0105 90.1048 89.4603 89.2842ZM111.353 129.022C111.617 128.941 111.897 129.089 111.978 129.353C112.494 131.029 112.628 132.37 112.562 133.544C112.497 134.704 112.235 135.684 111.988 136.613L111.983 136.629C111.732 137.57 111.496 138.461 111.437 139.512C111.378 140.557 111.494 141.779 111.978 143.353C112.059 143.617 111.911 143.897 111.647 143.978C111.383 144.059 111.104 143.911 111.022 143.647C110.507 141.971 110.372 140.63 110.439 139.456C110.504 138.296 110.765 137.316 111.013 136.387L111.013 136.387L111.017 136.371C111.268 135.43 111.504 134.539 111.564 133.487C111.622 132.442 111.507 131.221 111.022 129.647C110.941 129.383 111.089 129.103 111.353 129.022ZM111.353 80.022C111.617 79.9408 111.897 80.0889 111.978 80.3529C112.494 82.0293 112.628 83.3698 112.562 84.5437C112.497 85.7043 112.235 86.6835 111.988 87.6129L111.983 87.6287C111.732 88.5696 111.496 89.4609 111.437 90.5124C111.378 91.5573 111.494 92.7793 111.978 94.3529C112.059 94.6168 111.911 94.8966 111.647 94.9778C111.383 95.059 111.104 94.9109 111.022 94.647C110.507 92.9706 110.372 91.63 110.439 90.4562C110.504 89.2955 110.765 88.3163 111.013 87.3869L111.017 87.3711C111.268 86.4302 111.504 85.539 111.564 84.4874C111.622 83.4425 111.507 82.2206 111.022 80.647C110.941 80.383 111.089 80.1032 111.353 80.022ZM103.771 81.3075C103.624 81.0736 103.316 81.003 103.082 81.1497C102.848 81.2965 102.777 81.6051 102.924 81.839C103.799 83.2336 104.227 84.384 104.441 85.4085C104.656 86.4396 104.658 87.3616 104.659 88.3353L104.659 88.3517V88.3517C104.66 89.3136 104.662 90.3271 104.899 91.465C105.139 92.616 105.615 93.8762 106.547 95.3619C106.694 95.5959 107.003 95.6665 107.237 95.5198C107.471 95.373 107.541 95.0644 107.395 94.8305C106.52 93.4358 106.091 92.2855 105.878 91.261C105.663 90.2299 105.66 89.3079 105.659 88.3341L105.659 88.3178C105.658 87.3559 105.657 86.3424 105.42 85.2044C105.18 84.0535 104.703 82.7933 103.771 81.3075ZM115.764 128.48C115.998 128.333 116.306 128.404 116.453 128.638C117.385 130.124 117.862 131.384 118.102 132.535C118.339 133.673 118.34 134.686 118.341 135.648L118.341 135.665C118.343 136.638 118.345 137.56 118.56 138.591C118.773 139.616 119.202 140.766 120.077 142.161C120.223 142.395 120.153 142.703 119.919 142.85C119.685 142.997 119.376 142.926 119.23 142.692C118.297 141.207 117.821 139.946 117.581 138.795C117.344 137.657 117.343 136.644 117.341 135.682L117.341 135.666C117.34 134.692 117.338 133.77 117.123 132.739C116.909 131.714 116.481 130.564 115.606 129.169C115.459 128.935 115.53 128.627 115.764 128.48ZM96.0906 84.3539C95.8883 84.1659 95.5719 84.1775 95.384 84.3798C95.196 84.5821 95.2076 84.8985 95.4099 85.0864C96.616 86.2071 97.3273 87.2074 97.7988 88.1418C98.2733 89.0821 98.5143 89.972 98.7675 90.9123L98.7717 90.9281C99.0218 91.8569 99.2852 92.8355 99.8089 93.8734C100.339 94.923 101.125 96.0169 102.41 97.2108C102.612 97.3988 102.929 97.3871 103.117 97.1848C103.305 96.9825 103.293 96.6662 103.091 96.4782C101.884 95.3575 101.173 94.3572 100.702 93.4229C100.227 92.4826 99.9862 91.5926 99.7331 90.6523L99.7288 90.6365C99.4788 89.7077 99.2153 88.7291 98.6916 87.6913C98.162 86.6417 97.3755 85.5478 96.0906 84.3539ZM119.884 126.815C120.072 126.613 120.388 126.601 120.591 126.789C121.876 127.983 122.662 129.077 123.192 130.127C123.715 131.164 123.979 132.143 124.229 133.072L124.233 133.088C124.486 134.028 124.727 134.918 125.202 135.858C125.673 136.792 126.384 137.793 127.591 138.913C127.793 139.101 127.805 139.418 127.617 139.62C127.429 139.822 127.112 139.834 126.91 139.646C125.625 138.452 124.839 137.358 124.309 136.309C123.785 135.271 123.522 134.292 123.272 133.363L123.267 133.348C123.014 132.407 122.773 131.517 122.299 130.577C121.827 129.643 121.116 128.642 119.91 127.522C119.708 127.334 119.696 127.017 119.884 126.815ZM123.433 124.14C123.562 123.896 123.865 123.803 124.109 123.932C125.659 124.753 126.701 125.606 127.485 126.483C128.259 127.35 128.767 128.227 129.249 129.059L129.257 129.074C129.745 129.916 130.208 130.714 130.91 131.499C131.607 132.279 132.553 133.062 134.008 133.832C134.252 133.961 134.345 134.264 134.216 134.508C134.087 134.752 133.784 134.845 133.54 134.716C131.99 133.895 130.947 133.042 130.164 132.165C129.39 131.298 128.882 130.421 128.4 129.589L128.392 129.575C127.904 128.732 127.441 127.935 126.739 127.149C126.042 126.369 125.096 125.587 123.641 124.816C123.397 124.687 123.304 124.384 123.433 124.14ZM126.168 120.638C126.23 120.369 126.498 120.201 126.767 120.263C128.477 120.654 129.705 121.208 130.688 121.852C131.661 122.489 132.378 123.205 133.059 123.884L133.071 123.896C133.76 124.584 134.414 125.234 135.295 125.811C136.171 126.384 137.287 126.895 138.892 127.263C139.161 127.324 139.329 127.592 139.267 127.862C139.206 128.131 138.938 128.299 138.668 128.237C136.959 127.846 135.731 127.292 134.747 126.648C133.775 126.011 133.057 125.295 132.376 124.615L132.365 124.604C131.675 123.916 131.022 123.266 130.14 122.689C129.265 122.115 128.149 121.605 126.544 121.237C126.275 121.176 126.107 120.907 126.168 120.638ZM127.904 116.548C127.894 116.272 128.11 116.04 128.386 116.029C130.138 115.965 131.468 116.183 132.585 116.55C133.689 116.914 134.567 117.419 135.401 117.899L135.415 117.908C136.259 118.393 137.058 118.852 138.059 119.182C139.053 119.509 140.263 119.713 141.909 119.653C142.184 119.643 142.416 119.858 142.427 120.134C142.437 120.41 142.221 120.642 141.945 120.652C140.192 120.717 138.863 120.499 137.746 120.132C136.642 119.768 135.764 119.262 134.93 118.782L134.916 118.774C134.072 118.288 133.272 117.829 132.272 117.5C131.278 117.173 130.068 116.968 128.422 117.029C128.146 117.039 127.914 116.823 127.904 116.548ZM128.522 112.147C128.441 111.883 128.589 111.603 128.853 111.522C130.53 111.006 131.87 110.872 133.044 110.938C134.205 111.004 135.184 111.265 136.113 111.513L136.129 111.517C137.07 111.768 137.961 112.004 139.013 112.063C140.058 112.122 141.28 112.006 142.853 111.522C143.117 111.441 143.397 111.589 143.478 111.853C143.559 112.117 143.411 112.396 143.147 112.478C141.471 112.994 140.13 113.128 138.957 113.062C137.796 112.996 136.817 112.735 135.887 112.487L135.871 112.483C134.931 112.232 134.039 111.996 132.988 111.937C131.943 111.878 130.721 111.994 129.147 112.478C128.883 112.559 128.604 112.411 128.522 112.147ZM127.98 107.736C127.834 107.502 127.904 107.194 128.138 107.047C129.624 106.115 130.884 105.638 132.035 105.398C133.173 105.161 134.186 105.16 135.148 105.159L135.165 105.159C136.138 105.158 137.06 105.155 138.092 104.94C139.116 104.727 140.266 104.299 141.661 103.424C141.895 103.277 142.204 103.347 142.35 103.581C142.497 103.815 142.426 104.124 142.192 104.271C140.707 105.203 139.447 105.679 138.296 105.919C137.158 106.156 136.144 106.158 135.182 106.159L135.166 106.159C134.192 106.16 133.27 106.162 132.239 106.377C131.215 106.591 130.064 107.019 128.67 107.894C128.436 108.041 128.127 107.97 127.98 107.736ZM111.625 113.379C110.845 112.599 110.199 111.953 109.686 111.396C109.17 110.837 108.811 110.392 108.592 110.016C108.375 109.643 108.321 109.385 108.347 109.181C108.372 108.978 108.487 108.739 108.796 108.429C109.106 108.12 109.345 108.005 109.548 107.98C109.752 107.954 110.01 108.008 110.383 108.225C110.759 108.444 111.204 108.803 111.763 109.319C112.32 109.832 112.966 110.478 113.746 111.258C114.527 112.038 115.172 112.684 115.686 113.241C116.201 113.8 116.56 114.245 116.779 114.621C116.997 114.994 117.05 115.252 117.024 115.456C116.999 115.659 116.884 115.898 116.575 116.208C116.265 116.517 116.026 116.632 115.823 116.657C115.619 116.683 115.361 116.63 114.988 116.412C114.612 116.193 114.167 115.834 113.608 115.319C113.051 114.805 112.405 114.159 111.625 113.379ZM108.089 107.722C107.692 108.12 107.418 108.553 107.355 109.057C107.292 109.56 107.451 110.044 107.728 110.52C108.004 110.993 108.423 111.502 108.95 112.074C109.479 112.647 110.139 113.307 110.911 114.08L110.918 114.086L110.924 114.093C111.697 114.865 112.357 115.525 112.93 116.054C113.502 116.581 114.012 117 114.484 117.276C114.96 117.553 115.444 117.712 115.947 117.65C116.451 117.586 116.884 117.312 117.282 116.915C117.679 116.517 117.954 116.084 118.017 115.58C118.079 115.077 117.921 114.593 117.643 114.117C117.367 113.645 116.948 113.135 116.421 112.563C115.892 111.99 115.232 111.33 114.46 110.557L114.453 110.551L114.447 110.544C113.674 109.772 113.014 109.112 112.441 108.583C111.869 108.056 111.36 107.637 110.887 107.361C110.411 107.084 109.927 106.925 109.424 106.988C108.92 107.051 108.487 107.325 108.089 107.722Z" fill="black"/>
</svg>
