<svg width="192" height="224" viewBox="0 0 192 224" fill="none" xmlns="http://www.w3.org/2000/svg">
<path fill-rule="evenodd" clip-rule="evenodd" d="M96.0001 30C95.8671 30 95.7301 30.0123 95.5888 30.0374C95.3169 30.0856 95.0574 29.9043 95.0092 29.6324C94.9609 29.3605 95.1423 29.101 95.4142 29.0528C95.6097 29.0181 95.8052 29 96.0001 29C96.195 29 96.3905 29.0181 96.586 29.0528C96.8579 29.101 97.0393 29.3605 96.991 29.6324C96.9428 29.9043 96.6833 30.0856 96.4114 30.0374C96.2701 30.0123 96.1331 30 96.0001 30ZM97.9342 30.0938C98.0919 29.8672 98.4036 29.8113 98.6302 29.9691C98.9147 30.167 99.2002 30.3926 99.4865 30.6432C99.6943 30.8251 99.7153 31.141 99.5335 31.3487C99.3516 31.5565 99.0357 31.5776 98.8279 31.3957C98.5654 31.166 98.309 30.9639 98.059 30.7899C97.8323 30.6321 97.7765 30.3205 97.9342 30.0938ZM94.066 30.0938C94.2237 30.3205 94.1679 30.6321 93.9412 30.7899C93.6912 30.9639 93.4348 31.166 93.1723 31.3957C92.9645 31.5776 92.6486 31.5565 92.4667 31.3488C92.2849 31.141 92.3059 30.8251 92.5137 30.6432C92.8 30.3926 93.0855 30.167 93.37 29.9691C93.5966 29.8113 93.9083 29.8672 94.066 30.0938ZM100.256 32.0901C100.464 31.9082 100.78 31.929 100.962 32.1367C101.189 32.3957 101.417 32.6686 101.646 32.9546C101.818 33.1702 101.783 33.4849 101.568 33.6575C101.352 33.83 101.038 33.7952 100.865 33.5796C100.644 33.3041 100.426 33.0426 100.21 32.7957C100.028 32.588 100.049 32.2721 100.256 32.0901ZM91.744 32.0902C91.9517 32.2721 91.9725 32.588 91.7906 32.7957C91.5743 33.0426 91.3558 33.3041 91.1352 33.5796C90.9626 33.7952 90.648 33.83 90.4324 33.6575C90.2168 33.4849 90.182 33.1702 90.3545 32.9547C90.5835 32.6686 90.8115 32.3957 91.0384 32.1367C91.2204 31.929 91.5363 31.9082 91.744 32.0902ZM102.19 34.4934C102.416 34.3348 102.727 34.3894 102.886 34.6154C103.078 34.889 103.271 35.1708 103.464 35.4603C103.617 35.69 103.555 36.0004 103.326 36.1537C103.096 36.307 102.785 36.245 102.632 36.0153C102.443 35.732 102.255 35.4567 102.068 35.1899C101.909 34.9639 101.964 34.6521 102.19 34.4934ZM89.8107 34.4934C90.0367 34.6521 90.0913 34.9639 89.9326 35.19C89.7454 35.4567 89.5572 35.732 89.3681 36.0153C89.2148 36.245 88.9043 36.307 88.6746 36.1537C88.4449 36.0004 88.383 35.69 88.5362 35.4603C88.7294 35.1708 88.9221 34.889 89.1142 34.6154C89.2728 34.3894 89.5846 34.3348 89.8107 34.4934ZM103.889 37.0372C104.124 36.8928 104.432 36.9665 104.577 37.2019C104.757 37.4956 104.938 37.7953 105.118 38.1007C105.259 38.3382 105.181 38.6449 104.943 38.7857C104.705 38.9264 104.399 38.8479 104.258 38.6103C104.08 38.3092 103.902 38.014 103.724 37.7249C103.58 37.4896 103.654 37.1817 103.889 37.0372ZM88.1112 37.0373C88.3466 37.1817 88.4203 37.4896 88.2758 37.7249C88.0985 38.014 87.9206 38.3092 87.7422 38.6103C87.6015 38.8479 87.2948 38.9264 87.0572 38.7857C86.8196 38.6449 86.7411 38.3383 86.8818 38.1007C87.0627 37.7953 87.2433 37.4956 87.4235 37.2019C87.568 36.9665 87.8759 36.8928 88.1112 37.0373ZM105.461 39.6877C105.702 39.5532 106.006 39.6395 106.141 39.8807C106.305 40.1755 106.47 40.4745 106.635 40.7775C106.767 41.02 106.677 41.3237 106.434 41.4556C106.192 41.5875 105.888 41.4978 105.756 41.2552C105.593 40.9554 105.43 40.6595 105.268 40.368C105.133 40.1269 105.219 39.8223 105.461 39.6877ZM86.5396 39.6877C86.7807 39.8223 86.8671 40.1269 86.7326 40.368C86.5698 40.6595 86.4069 40.9554 86.2439 41.2552C86.1119 41.4978 85.8083 41.5875 85.5657 41.4556C85.3232 41.3237 85.2334 41.0201 85.3654 40.7775C85.5301 40.4745 85.6948 40.1755 85.8593 39.8807C85.9939 39.6395 86.2985 39.5532 86.5396 39.6877ZM106.929 42.3869C107.174 42.2596 107.476 42.3551 107.603 42.6002C107.758 42.8994 107.914 43.2017 108.069 43.5068C108.194 43.7529 108.096 44.054 107.85 44.1792C107.604 44.3044 107.303 44.2065 107.178 43.9604C107.024 43.6576 106.87 43.3577 106.715 43.061C106.588 42.816 106.684 42.5141 106.929 42.3869ZM85.0714 42.3869C85.3165 42.5142 85.412 42.816 85.2847 43.0611C85.1306 43.3577 84.9765 43.6576 84.8224 43.9604C84.6972 44.2065 84.3961 44.3044 84.15 44.1792C83.9039 44.054 83.8059 43.7529 83.9312 43.5068C84.0865 43.2017 84.2418 42.8994 84.3972 42.6002C84.5245 42.3551 84.8264 42.2596 85.0714 42.3869ZM108.32 45.1197C108.568 44.9981 108.867 45.1005 108.989 45.3485C109.138 45.6536 109.288 45.961 109.437 46.2705C109.557 46.5193 109.453 46.8181 109.204 46.9381C108.955 47.058 108.656 46.9536 108.536 46.7049C108.388 46.3973 108.239 46.0918 108.091 45.7887C107.969 45.5408 108.072 45.2413 108.32 45.1197ZM83.6806 45.1197C83.9285 45.2413 84.031 45.5408 83.9094 45.7888C83.7607 46.0918 83.6122 46.3973 83.4639 46.7049C83.3439 46.9536 83.0451 47.058 82.7963 46.9381C82.5476 46.8181 82.4432 46.5193 82.5632 46.2705C82.7124 45.961 82.8619 45.6536 83.0115 45.3485C83.1331 45.1005 83.4327 44.9981 83.6806 45.1197ZM109.653 47.8853C109.904 47.7683 110.201 47.8763 110.318 48.1264C110.463 48.4355 110.607 48.7463 110.751 49.0586C110.866 49.3094 110.757 49.6064 110.506 49.722C110.255 49.8376 109.958 49.728 109.843 49.4772C109.699 49.1666 109.556 48.8574 109.412 48.55C109.295 48.2998 109.403 48.0022 109.653 47.8853ZM82.3468 47.8853C82.597 48.0022 82.7049 48.2998 82.588 48.55C82.4442 48.8574 82.3007 49.1666 82.1575 49.4772C82.0419 49.728 81.7449 49.8376 81.4941 49.722C81.2433 49.6064 81.1337 49.3094 81.2493 49.0586C81.3933 48.7463 81.5376 48.4355 81.6821 48.1264C81.7991 47.8763 82.0967 47.7683 82.3468 47.8853ZM110.94 50.675C111.191 50.5619 111.487 50.6744 111.6 50.9263C111.74 51.2382 111.88 51.5512 112.019 51.8651C112.131 52.1176 112.017 52.4129 111.765 52.5249C111.513 52.6369 111.217 52.523 111.105 52.2706C110.967 51.958 110.828 51.6464 110.688 51.3359C110.575 51.084 110.688 50.7881 110.94 50.675ZM81.0607 50.675C81.3126 50.7881 81.4251 51.084 81.312 51.3359C81.1726 51.6464 81.0336 51.958 80.8949 52.2706C80.783 52.523 80.4876 52.6369 80.2351 52.5249C79.9827 52.413 79.8688 52.1176 79.9808 51.8651C80.12 51.5512 80.2597 51.2382 80.3997 50.9263C80.5129 50.6744 80.8088 50.5619 81.0607 50.675ZM112.185 53.4835C112.439 53.3737 112.733 53.49 112.843 53.7434C112.979 54.0572 113.114 54.3716 113.249 54.6865C113.358 54.9402 113.241 55.2342 112.987 55.343C112.733 55.4519 112.439 55.3343 112.33 55.0805C112.196 54.7669 112.061 54.4537 111.925 54.1411C111.815 53.8877 111.932 53.5933 112.185 53.4835ZM79.815 53.4835C80.0683 53.5933 80.1847 53.8877 80.0749 54.1411C79.9394 54.4537 79.8044 54.7669 79.6699 55.0805C79.5611 55.3343 79.2671 55.4519 79.0133 55.343C78.7595 55.2342 78.642 54.9403 78.7508 54.6865C78.8858 54.3716 79.0214 54.0572 79.1574 53.7434C79.2672 53.49 79.5616 53.3737 79.815 53.4835ZM78.6042 56.3072C78.8588 56.4141 78.9785 56.7072 78.8715 56.9618C78.7396 57.2758 78.6083 57.5899 78.4775 57.9041C78.3714 58.1591 78.0788 58.2797 77.8238 58.1737C77.5689 58.0676 77.4482 57.7749 77.5543 57.5199C77.6854 57.2047 77.8172 56.8895 77.9496 56.5745C78.0565 56.3199 78.3496 56.2002 78.6042 56.3072ZM113.396 56.3072C113.651 56.2002 113.944 56.3199 114.051 56.5745C114.183 56.8895 114.315 57.2047 114.446 57.5199C114.552 57.7749 114.431 58.0676 114.176 58.1737C113.921 58.2797 113.629 58.1591 113.523 57.9041C113.392 57.5899 113.261 57.2758 113.129 56.9618C113.022 56.7072 113.141 56.4141 113.396 56.3072ZM114.576 59.1434C114.832 59.0389 115.124 59.1615 115.228 59.4172C115.357 59.7336 115.486 60.0496 115.614 60.3652C115.717 60.6212 115.594 60.9127 115.338 61.0163C115.082 61.12 114.79 60.9965 114.687 60.7406C114.559 60.4259 114.431 60.1108 114.302 59.7953C114.198 59.5397 114.32 59.2478 114.576 59.1434ZM77.4241 59.1434C77.6797 59.2478 77.8023 59.5397 77.6979 59.7953C77.569 60.1108 77.4409 60.4259 77.3135 60.7406C77.2098 60.9965 76.9183 61.12 76.6624 61.0163C76.4064 60.9127 76.2829 60.6212 76.3866 60.3652C76.5144 60.0496 76.6429 59.7336 76.7722 59.4172C76.8766 59.1615 77.1685 59.0389 77.4241 59.1434ZM76.2715 61.9899C76.528 62.0921 76.6532 62.3829 76.551 62.6394C76.4246 62.957 76.299 63.2737 76.1743 63.5894C76.0729 63.8462 75.7824 63.9722 75.5256 63.8708C75.2688 63.7693 75.1428 63.4789 75.2442 63.222C75.3693 62.9055 75.4952 62.5879 75.622 62.2695C75.7241 62.013 76.0149 61.8878 76.2715 61.9899ZM115.729 61.9899C115.985 61.8878 116.276 62.013 116.378 62.2695C116.505 62.5879 116.631 62.9055 116.756 63.222C116.857 63.4789 116.731 63.7693 116.475 63.8708C116.218 63.9722 115.927 63.8462 115.826 63.5894C115.701 63.2737 115.576 62.957 115.449 62.6394C115.347 62.3829 115.472 62.0921 115.729 61.9899ZM75.144 64.8446C75.4013 64.9447 75.5288 65.2345 75.4288 65.4918C75.3041 65.8124 75.1805 66.1316 75.0579 66.4491C74.9585 66.7068 74.669 66.835 74.4114 66.7356C74.1538 66.6361 74.0255 66.3467 74.125 66.0891C74.2478 65.7707 74.3718 65.4508 74.4967 65.1294C74.5968 64.872 74.8866 64.7445 75.144 64.8446ZM116.856 64.8446C117.114 64.7445 117.403 64.872 117.503 65.1294C117.628 65.4508 117.752 65.7707 117.875 66.0891C117.975 66.3467 117.846 66.6361 117.589 66.7356C117.331 66.835 117.042 66.7068 116.942 66.4491C116.82 66.1316 116.696 65.8124 116.571 65.4918C116.471 65.2345 116.599 64.9447 116.856 64.8446ZM74.0395 67.7063C74.2976 67.8044 74.4272 68.0933 74.3291 68.3514C74.2057 68.6758 74.0835 68.9981 73.9627 69.318C73.8651 69.5763 73.5766 69.7066 73.3183 69.6091C73.0599 69.5115 72.9296 69.223 73.0272 68.9647C73.1483 68.644 73.2707 68.321 73.3944 67.9958C73.4926 67.7377 73.7814 67.6081 74.0395 67.7063ZM117.961 67.7063C118.219 67.6081 118.508 67.7377 118.606 67.9958C118.729 68.321 118.852 68.644 118.973 68.9647C119.071 69.223 118.94 69.5115 118.682 69.6091C118.424 69.7067 118.135 69.5763 118.038 69.318C117.917 68.9981 117.795 68.6758 117.671 68.3514C117.573 68.0933 117.703 67.8045 117.961 67.7063ZM72.9517 70.5866C73.2104 70.683 73.3421 70.9709 73.2457 71.2297C73.125 71.5537 73.0059 71.8747 72.8884 72.1924C72.7925 72.4514 72.5049 72.5837 72.2459 72.4879C71.9869 72.3921 71.8547 72.1044 71.9505 71.8455C72.0683 71.5271 72.1877 71.2054 72.3086 70.8806C72.405 70.6219 72.6929 70.4902 72.9517 70.5866ZM119.049 70.5866C119.307 70.4902 119.595 70.6219 119.692 70.8807C119.813 71.2054 119.932 71.5271 120.05 71.8455C120.146 72.1045 120.013 72.3921 119.754 72.4879C119.495 72.5837 119.208 72.4514 119.112 72.1924C118.994 71.8747 118.875 71.5537 118.754 71.2297C118.658 70.9709 118.79 70.683 119.049 70.5866ZM71.8839 73.4732C72.1433 73.5679 72.2768 73.855 72.1821 74.1144C72.065 74.4352 71.9498 74.7519 71.8367 75.064C71.7425 75.3237 71.4558 75.4578 71.1962 75.3637C70.9366 75.2695 70.8024 74.9828 70.8965 74.7232C71.01 74.4104 71.1254 74.093 71.2427 73.7715C71.3374 73.5121 71.6245 73.3786 71.8839 73.4732ZM120.116 73.4733C120.376 73.3786 120.663 73.5121 120.757 73.7715C120.875 74.0931 120.99 74.4104 121.104 74.7232C121.198 74.9828 121.064 75.2695 120.804 75.3637C120.544 75.4578 120.258 75.3237 120.164 75.0641C120.05 74.7519 119.935 74.4352 119.818 74.1144C119.723 73.855 119.857 73.5679 120.116 73.4733ZM70.8396 76.3535C71.0996 76.4465 71.235 76.7327 71.142 76.9927C71.0239 77.3228 70.9085 77.6465 70.7959 77.9632C70.7034 78.2234 70.4175 78.3593 70.1573 78.2669C69.8972 78.1744 69.7612 77.8885 69.8537 77.6283C69.9664 77.3109 70.0821 76.9866 70.2004 76.6558C70.2935 76.3958 70.5796 76.2604 70.8396 76.3535ZM121.161 76.3535C121.421 76.2604 121.707 76.3958 121.8 76.6558C121.918 76.9866 122.034 77.311 122.147 77.6283C122.239 77.8885 122.103 78.1744 121.843 78.2669C121.583 78.3593 121.297 78.2234 121.204 77.9632C121.092 77.6465 120.976 77.3228 120.858 76.9927C120.765 76.7327 120.901 76.4465 121.161 76.3535ZM69.8077 79.2575C70.0683 79.3488 70.2055 79.6341 70.1141 79.8947C69.9997 80.2212 69.8892 80.5375 69.7829 80.8428C69.6921 81.1036 69.4071 81.2414 69.1463 81.1507C68.8855 81.0599 68.7477 80.7748 68.8385 80.5141C68.945 80.208 69.0557 79.8911 69.1704 79.5639C69.2618 79.3033 69.5471 79.1661 69.8077 79.2575ZM122.193 79.2575C122.453 79.1661 122.738 79.3033 122.83 79.5639C122.944 79.8911 123.055 80.208 123.162 80.5141C123.253 80.7749 123.115 81.0599 122.854 81.1507C122.593 81.2414 122.308 81.1036 122.217 80.8428C122.111 80.5375 122.001 80.2212 121.886 79.8947C121.795 79.6341 121.932 79.3488 122.193 79.2575ZM68.799 82.1554C68.9296 82.2002 69.0297 82.2937 69.086 82.4086C76.1916 75.942 85.6355 72 96.0001 72C106.365 72 115.809 75.942 122.914 82.4086C122.97 82.2937 123.071 82.2002 123.201 82.1555C123.462 82.0659 123.747 82.205 123.836 82.4663C123.952 82.8049 124.06 83.1214 124.16 83.4141C124.183 83.4814 124.191 83.5501 124.185 83.6167C131.482 90.8629 136 100.904 136 112C136 134.091 118.092 152 96.0001 152C85.4454 152 75.8455 147.912 68.6973 141.233L47.1878 163.937C46.1273 164.998 45.4201 164.998 45.4201 164.998C44.713 164.998 44.0059 164.291 44.0059 163.584C44.0059 163.584 44.0058 162.877 45.0665 161.816L67.7542 140.323C60.4931 133.081 56.0001 123.065 56.0001 112C56.0001 100.904 60.5183 90.863 67.8152 83.6167C67.8096 83.5501 67.8173 83.4814 67.8402 83.4141C67.9398 83.1214 68.0478 82.8049 68.1639 82.4662C68.2535 82.205 68.5378 82.0659 68.799 82.1554ZM70.0729 139.781L72.6439 137.067L79.715 129.996L80.0686 130.35C80.2639 130.545 80.5805 130.545 80.7757 130.35C80.971 130.155 80.971 129.838 80.7757 129.643L80.4221 129.289L84.6647 125.046L85.0183 125.4C85.2136 125.595 85.5302 125.595 85.7254 125.4C85.9207 125.205 85.9207 124.888 85.7254 124.693L85.3718 124.339L89.6144 120.097L89.9681 120.45C90.1633 120.646 90.4799 120.646 90.6752 120.45C90.8704 120.255 90.8704 119.938 90.6752 119.743L90.3216 119.39L95.2711 114.44L94.564 113.733L89.6144 118.682L89.261 118.329C89.0657 118.134 88.7491 118.134 88.5538 118.329C88.3586 118.524 88.3586 118.841 88.5538 119.036L88.9073 119.39L84.6647 123.632L84.3112 123.279C84.1159 123.083 83.7994 123.083 83.6041 123.279C83.4088 123.474 83.4088 123.791 83.6041 123.986L83.9576 124.339L79.715 128.582L79.3615 128.228C79.1662 128.033 78.8497 128.033 78.6544 128.228C78.4591 128.424 78.4591 128.74 78.6544 128.936L79.0078 129.289L71.9368 136.36L69.2067 138.946C62.285 132.064 58.0001 122.532 58.0001 112C58.0001 91.0132 75.0133 74 96.0001 74C116.987 74 134 91.0132 134 112C134 132.987 116.987 150 96.0001 150C85.9783 150 76.8625 146.12 70.0729 139.781ZM64.8078 119.729C64.5738 119.876 64.5032 120.184 64.6499 120.418C64.7967 120.652 65.1053 120.723 65.3392 120.576C66.7339 119.701 67.8842 119.273 68.9087 119.06C69.9398 118.845 70.8618 118.842 71.8356 118.841L71.8519 118.841C72.8138 118.84 73.8273 118.839 74.9653 118.601C76.1162 118.361 77.3764 117.885 78.8622 116.953C79.0961 116.806 79.1667 116.497 79.02 116.263C78.8732 116.03 78.5646 115.959 78.3307 116.106C76.9361 116.981 75.7857 117.409 74.7612 117.622C73.7302 117.837 72.8081 117.84 71.8344 117.841L71.818 117.841C70.8561 117.842 69.8427 117.843 68.7047 118.081C67.5537 118.32 66.2935 118.797 64.8078 119.729ZM63.8532 111.522C63.5893 111.603 63.4412 111.883 63.5224 112.147C63.6036 112.411 63.8834 112.559 64.1473 112.478C65.7209 111.994 66.9428 111.878 67.9878 111.937C69.0393 111.996 69.9306 112.232 70.8714 112.483L70.8872 112.487C71.8166 112.735 72.7959 112.996 73.9565 113.062C75.1303 113.128 76.4709 112.994 78.1473 112.478C78.4112 112.397 78.5594 112.117 78.4781 111.853C78.3969 111.589 78.1171 111.441 77.8532 111.522C76.2796 112.006 75.0577 112.122 74.0128 112.063C72.9612 112.004 72.07 111.768 71.1291 111.517L71.1133 111.513L71.1132 111.512C70.1838 111.265 69.2046 111.004 68.044 110.938C66.8702 110.872 65.5296 111.006 63.8532 111.522ZM65.0552 103.347C64.7792 103.357 64.5637 103.589 64.5739 103.865C64.584 104.141 64.8159 104.357 65.0919 104.347C66.7372 104.286 67.9475 104.491 68.9415 104.818C69.9419 105.147 70.7416 105.606 71.5855 106.092L71.5997 106.1C72.4333 106.58 73.3116 107.086 74.4157 107.449C75.5324 107.817 76.8621 108.035 78.6148 107.97C78.8908 107.96 79.1063 107.728 79.0961 107.452C79.086 107.176 78.8541 106.961 78.5781 106.971C76.9328 107.031 75.7225 106.827 74.7285 106.5C73.7281 106.17 72.9284 105.711 72.0845 105.225L72.0703 105.217C71.2367 104.737 70.3584 104.232 69.2543 103.868C68.1376 103.5 66.8079 103.283 65.0552 103.347ZM68.3319 95.7625C68.0628 95.7009 67.7946 95.8691 67.7329 96.1383C67.6713 96.4075 67.8396 96.6757 68.1087 96.7373C69.7136 97.1048 70.8298 97.6154 71.7053 98.1888C72.5863 98.7659 73.24 99.4162 73.9294 100.104L73.9409 100.115L73.941 100.116C74.622 100.795 75.3394 101.511 76.3118 102.147C77.2953 102.792 78.5234 103.346 80.2331 103.737C80.5023 103.799 80.7704 103.631 80.8321 103.361C80.8937 103.092 80.7255 102.824 80.4563 102.763C78.8514 102.395 77.7353 101.884 76.8598 101.311C75.9787 100.734 75.325 100.084 74.6356 99.3959L74.6241 99.3844L74.624 99.3843L74.624 99.3843C73.943 98.7049 73.2256 97.9892 72.2532 97.3523C71.2697 96.7081 70.0416 96.154 68.3319 95.7625ZM73.4603 89.2842C73.2163 89.155 72.9137 89.2481 72.7845 89.4921C72.6553 89.7362 72.7484 90.0388 72.9924 90.168C74.4475 90.9383 75.3935 91.7204 76.0907 92.5009C76.7924 93.2863 77.2555 94.0836 77.7434 94.9263L77.7516 94.9405C78.2335 95.7729 78.7413 96.65 79.5158 97.5169C80.299 98.3937 81.3418 99.2468 82.8919 100.067C83.136 100.197 83.4386 100.104 83.5678 99.8595C83.697 99.6154 83.6039 99.3129 83.3598 99.1837C81.9047 98.4133 80.9588 97.6312 80.2615 96.8507C79.5599 96.0653 79.0967 95.268 78.6088 94.4253L78.6006 94.4111C78.1187 93.5787 77.6109 92.7016 76.8365 91.8347C76.0532 90.9579 75.0104 90.1048 73.4603 89.2842ZM95.3532 129.022C95.6171 128.941 95.8969 129.089 95.9781 129.353C96.4939 131.029 96.6281 132.37 96.5619 133.544C96.4965 134.704 96.2354 135.684 95.9875 136.613L95.9833 136.629C95.7324 137.57 95.4962 138.461 95.4369 139.512C95.3781 140.557 95.4939 141.779 95.9781 143.353C96.0593 143.617 95.9112 143.897 95.6473 143.978C95.3833 144.059 95.1035 143.911 95.0223 143.647C94.5065 141.971 94.3724 140.63 94.4385 139.456C94.5039 138.296 94.765 137.316 95.0129 136.387L95.0171 136.371C95.268 135.43 95.5043 134.539 95.5635 133.487C95.6224 132.442 95.5065 131.221 95.0223 129.647C94.9411 129.383 95.0892 129.103 95.3532 129.022ZM95.3532 80.022C95.6171 79.9408 95.8969 80.0889 95.9781 80.3529C96.4939 82.0293 96.6281 83.3698 96.5619 84.5437C96.4965 85.7043 96.2354 86.6835 95.9875 87.6129L95.9833 87.6287C95.7324 88.5696 95.4962 89.4609 95.4369 90.5124C95.3781 91.5573 95.4939 92.7793 95.9781 94.3529C96.0593 94.6168 95.9112 94.8966 95.6473 94.9778C95.3833 95.059 95.1035 94.9109 95.0223 94.647C94.5065 92.9706 94.3724 91.63 94.4385 90.4562C94.5039 89.2955 94.765 88.3163 95.0129 87.3869L95.0129 87.3869L95.0171 87.3711C95.268 86.4302 95.5043 85.539 95.5635 84.4874C95.6224 83.4425 95.5065 82.2206 95.0223 80.647C94.9411 80.383 95.0892 80.1032 95.3532 80.022ZM87.771 81.3075C87.6243 81.0736 87.3157 81.003 87.0818 81.1497C86.8478 81.2965 86.7772 81.6051 86.9239 81.839C87.7989 83.2336 88.2271 84.384 88.4407 85.4085C88.6556 86.4395 88.6581 87.3616 88.6592 88.3353L88.6592 88.3517C88.6604 89.3136 88.6616 90.327 88.8988 91.465C89.1388 92.616 89.6153 93.8762 90.5474 95.3619C90.6942 95.5959 91.0028 95.6665 91.2367 95.5198C91.4706 95.373 91.5413 95.0644 91.3945 94.8305C90.5195 93.4358 90.0914 92.2855 89.8778 91.261C89.6628 90.2299 89.6604 89.3079 89.6592 88.3341L89.6592 88.3178C89.6581 87.3559 89.6568 86.3424 89.4196 85.2044C89.1797 84.0535 88.7032 82.7933 87.771 81.3075ZM99.7639 128.48C99.9978 128.333 100.306 128.404 100.453 128.638C101.385 130.124 101.862 131.384 102.102 132.535C102.339 133.673 102.34 134.686 102.341 135.648L102.341 135.665C102.343 136.638 102.345 137.56 102.56 138.591C102.773 139.616 103.202 140.766 104.077 142.161C104.223 142.395 104.153 142.703 103.919 142.85C103.685 142.997 103.376 142.926 103.23 142.692C102.297 141.207 101.821 139.946 101.581 138.795C101.344 137.657 101.343 136.644 101.341 135.682L101.341 135.666C101.34 134.692 101.338 133.77 101.123 132.739C100.909 131.714 100.481 130.564 99.6061 129.169C99.4593 128.935 99.53 128.627 99.7639 128.48ZM80.0906 84.3539C79.8883 84.1659 79.5719 84.1775 79.384 84.3798C79.196 84.5821 79.2076 84.8985 79.4099 85.0864C80.616 86.2071 81.3273 87.2074 81.7988 88.1418C82.2733 89.0821 82.5143 89.972 82.7674 90.9123L82.7717 90.9281C83.0218 91.8569 83.2852 92.8355 83.8089 93.8734C84.3386 94.923 85.125 96.0169 86.4099 97.2108C86.6122 97.3988 86.9286 97.3871 87.1166 97.1848C87.3045 96.9825 87.2929 96.6662 87.0906 96.4782C85.8845 95.3575 85.1732 94.3572 84.7017 93.4229C84.2272 92.4826 83.9862 91.5926 83.7331 90.6523L83.7288 90.6365C83.4787 89.7077 83.2153 88.7291 82.6916 87.6913C82.162 86.6417 81.3755 85.5478 80.0906 84.3539ZM103.884 126.815C104.072 126.613 104.388 126.601 104.591 126.789C105.876 127.983 106.662 129.077 107.192 130.127C107.715 131.164 107.979 132.143 108.229 133.072L108.229 133.072L108.233 133.088C108.486 134.028 108.727 134.918 109.202 135.858C109.673 136.792 110.384 137.793 111.591 138.913C111.793 139.101 111.805 139.418 111.617 139.62C111.429 139.822 111.112 139.834 110.91 139.646C109.625 138.452 108.839 137.358 108.309 136.309C107.785 135.271 107.522 134.292 107.272 133.363L107.267 133.348C107.014 132.407 106.773 131.517 106.299 130.577C105.827 129.643 105.116 128.642 103.91 127.522C103.708 127.334 103.696 127.017 103.884 126.815ZM107.433 124.14C107.562 123.896 107.865 123.803 108.109 123.932C109.659 124.753 110.701 125.606 111.485 126.483C112.259 127.35 112.767 128.227 113.249 129.059L113.257 129.074C113.745 129.916 114.208 130.714 114.91 131.499C115.607 132.279 116.553 133.062 118.008 133.832C118.252 133.961 118.345 134.264 118.216 134.508C118.087 134.752 117.784 134.845 117.54 134.716C115.99 133.895 114.947 133.042 114.164 132.165C113.39 131.298 112.882 130.421 112.4 129.589L112.392 129.575C111.904 128.732 111.441 127.935 110.739 127.149C110.042 126.369 109.096 125.587 107.641 124.816C107.397 124.687 107.304 124.384 107.433 124.14ZM110.168 120.638C110.23 120.369 110.498 120.201 110.767 120.263C112.477 120.654 113.705 121.208 114.688 121.852C115.661 122.489 116.378 123.205 117.059 123.884L117.059 123.884L117.071 123.896C117.76 124.584 118.414 125.234 119.295 125.811C120.17 126.384 121.287 126.895 122.892 127.263C123.161 127.324 123.329 127.592 123.267 127.861C123.206 128.131 122.938 128.299 122.668 128.237C120.959 127.846 119.731 127.292 118.747 126.647C117.775 126.011 117.057 125.295 116.376 124.615L116.365 124.604C115.675 123.916 115.022 123.266 114.14 122.689C113.265 122.115 112.149 121.605 110.544 121.237C110.275 121.176 110.107 120.907 110.168 120.638ZM111.904 116.547C111.894 116.272 112.11 116.04 112.386 116.029C114.138 115.965 115.468 116.183 116.585 116.55C117.689 116.914 118.567 117.419 119.401 117.899L119.415 117.908C120.259 118.393 121.058 118.852 122.059 119.182C123.053 119.509 124.263 119.713 125.909 119.653C126.184 119.643 126.416 119.858 126.427 120.134C126.437 120.41 126.221 120.642 125.945 120.652C124.192 120.717 122.863 120.499 121.746 120.132C120.642 119.768 119.764 119.262 118.93 118.782L118.916 118.774C118.072 118.288 117.272 117.829 116.272 117.5C115.278 117.173 114.068 116.968 112.422 117.029C112.146 117.039 111.914 116.823 111.904 116.547ZM112.522 112.147C112.441 111.883 112.589 111.603 112.853 111.522C114.53 111.006 115.87 110.872 117.044 110.938C118.205 111.004 119.184 111.265 120.113 111.513L120.129 111.517C121.07 111.768 121.961 112.004 123.013 112.063C124.058 112.122 125.28 112.006 126.853 111.522C127.117 111.441 127.397 111.589 127.478 111.853C127.559 112.117 127.411 112.397 127.147 112.478C125.471 112.994 124.13 113.128 122.957 113.062C121.796 112.996 120.817 112.735 119.887 112.487L119.871 112.483C118.931 112.232 118.039 111.996 116.988 111.937C115.943 111.878 114.721 111.994 113.147 112.478C112.883 112.559 112.604 112.411 112.522 112.147ZM111.98 107.736C111.834 107.502 111.904 107.194 112.138 107.047C113.624 106.115 114.884 105.638 116.035 105.398C117.173 105.161 118.186 105.16 119.148 105.159L119.165 105.159C120.138 105.158 121.06 105.155 122.092 104.94C123.116 104.727 124.266 104.299 125.661 103.424C125.895 103.277 126.204 103.347 126.35 103.581C126.497 103.815 126.426 104.124 126.192 104.271C124.707 105.203 123.447 105.679 122.296 105.919C121.158 106.156 120.144 106.158 119.182 106.159L119.166 106.159C118.192 106.16 117.27 106.162 116.239 106.377C115.215 106.591 114.064 107.019 112.67 107.894C112.436 108.041 112.127 107.97 111.98 107.736ZM95.6249 113.379C94.8446 112.599 94.1987 111.953 93.6856 111.396C93.1698 110.837 92.8112 110.392 92.592 110.016C92.3746 109.643 92.3214 109.385 92.3469 109.181C92.3722 108.978 92.487 108.739 92.7965 108.429C93.106 108.12 93.345 108.005 93.5479 107.98C93.7517 107.954 94.0103 108.008 94.383 108.225C94.7588 108.444 95.2038 108.803 95.7633 109.319C96.3199 109.832 96.966 110.478 97.7462 111.258C98.5265 112.038 99.1725 112.684 99.6856 113.241C100.201 113.8 100.56 114.245 100.779 114.621C100.997 114.994 101.05 115.252 101.024 115.456C100.999 115.659 100.884 115.898 100.575 116.208C100.265 116.517 100.026 116.632 99.8232 116.657C99.6195 116.683 99.3608 116.63 98.9881 116.412C98.6123 116.193 98.1673 115.834 97.6078 115.319C97.0513 114.805 96.4052 114.159 95.6249 113.379ZM92.0894 107.722C91.6918 108.12 91.4176 108.553 91.3546 109.057C91.2917 109.56 91.4506 110.044 91.7282 110.52C92.0039 110.993 92.4231 111.502 92.9504 112.074C93.4787 112.647 94.1387 113.307 94.9112 114.08L94.9178 114.086L94.9244 114.093L94.9246 114.093C95.697 114.866 96.3569 115.525 96.93 116.054C97.5019 116.581 98.0115 117 98.4843 117.276C98.9601 117.553 99.4439 117.712 99.9473 117.65C100.451 117.586 100.884 117.312 101.282 116.915C101.679 116.517 101.954 116.084 102.017 115.58C102.079 115.077 101.921 114.593 101.643 114.117C101.367 113.644 100.948 113.135 100.421 112.563C99.8924 111.99 99.2324 111.33 98.4599 110.557L98.4534 110.551L98.4468 110.544L98.4464 110.544C97.6741 109.771 97.0142 109.112 96.4411 108.583C95.8692 108.056 95.3596 107.637 94.8869 107.361C94.4111 107.084 93.9273 106.925 93.4239 106.988C92.9197 107.051 92.487 107.325 92.0894 107.722Z" fill="black"/>
</svg>
