<svg width="92" height="135" viewBox="0 0 92 135" fill="none" xmlns="http://www.w3.org/2000/svg">
<path fill-rule="evenodd" clip-rule="evenodd" d="M47.5412 2.58395C49.0193 1.02291 50.5292 0 51.9999 0C53.4707 0 54.9805 1.02291 56.4587 2.58395C57.9587 4.16805 59.5237 6.41133 61.1019 9.07312C64.2607 14.4006 67.5213 21.4889 70.4616 28.558C73.4035 35.6311 76.0316 42.7022 77.924 48.0038C78.8702 50.6549 79.6328 52.8644 80.1588 54.4113L80.251 54.6826C87.5091 61.9237 91.9999 71.9374 91.9999 83C91.9999 105.091 74.0913 123 51.9999 123C41.1975 123 31.3953 118.718 24.198 111.759L3.18637 133.937C2.12579 134.998 1.41861 134.998 1.41861 134.998C0.711553 134.998 0.00443341 134.291 0.00439453 133.584C0.00439453 133.584 0.00434113 132.877 1.06505 131.816L23.2439 110.805C16.2831 103.607 11.9999 93.8037 11.9999 83C11.9999 71.9374 16.4908 61.9237 23.7489 54.6826L23.841 54.4113C24.3671 52.8644 25.1296 50.6549 26.0759 48.0038C27.9682 42.7022 30.5963 35.6311 33.5383 28.558C36.4785 21.4889 39.7392 14.4006 42.898 9.07312C44.4762 6.41133 46.0412 4.16805 47.5412 2.58395ZM25.5735 110.307L28.6424 107.067L35.7135 99.9961L36.0671 100.35C36.2624 100.545 36.579 100.545 36.7743 100.35C36.9695 100.155 36.9695 99.8379 36.7743 99.6427L36.4206 99.289L40.6632 95.0464L41.0169 95.4C41.2121 95.5953 41.5287 95.5953 41.724 95.4C41.9192 95.2047 41.9192 94.8881 41.724 94.6929L41.3703 94.3393L45.613 90.0966L45.9666 90.4502C46.1619 90.6455 46.4784 90.6455 46.6737 90.4502C46.869 90.255 46.869 89.9384 46.6737 89.7431L46.3201 89.3895L51.2696 84.44L50.5625 83.7329L45.613 88.6824L45.2595 88.3289C45.0642 88.1337 44.7476 88.1337 44.5524 88.3289C44.3571 88.5242 44.3571 88.8408 44.5524 89.036L44.9059 89.3895L40.6632 93.6322L40.3097 93.2787C40.1145 93.0834 39.7979 93.0834 39.6026 93.2787C39.4074 93.4739 39.4074 93.7905 39.6026 93.9858L39.9561 94.3393L35.7135 98.5819L35.36 98.2285C35.1648 98.0332 34.8482 98.0332 34.6529 98.2285C34.4577 98.4237 34.4577 98.7403 34.6529 98.9356L35.0064 99.289L27.9353 106.36L24.6959 109.429C18.0747 102.59 13.9999 93.2709 13.9999 83C13.9999 62.0132 31.0131 45 51.9999 45C72.9867 45 89.9999 62.0132 89.9999 83C89.9999 103.987 72.9867 121 51.9999 121C41.7304 121 32.4123 116.926 25.5735 110.307ZM76.9821 48.34C77.6487 50.2074 78.2238 51.855 78.689 53.2053C71.6096 46.8595 62.2555 43 51.9999 43C41.7444 43 32.3902 46.8595 25.3108 53.2053C25.776 51.855 26.3512 50.2074 27.0177 48.34C28.9066 43.0478 31.5285 35.9939 34.4616 28.942C37.3963 21.8861 40.6357 14.8494 43.7581 9.58313C45.3205 6.94804 46.8415 4.77726 48.2673 3.27152C49.7149 1.74272 50.9707 1 51.9999 1C53.0292 1 54.2849 1.74272 55.7326 3.27152C57.1584 4.77726 58.6793 6.94804 60.2417 9.58313C63.3642 14.8494 66.6035 21.8861 69.5383 28.942C72.4713 35.9939 75.0932 43.0478 76.9821 48.34ZM20.8076 90.7291C20.5737 90.8759 20.503 91.1845 20.6498 91.4184C20.7965 91.6523 21.1051 91.723 21.339 91.5762C22.7337 90.7013 23.884 90.2731 24.9086 90.0595C25.9396 89.8446 26.8616 89.8421 27.8354 89.841L27.8517 89.8409C28.8136 89.8398 29.8271 89.8386 30.9651 89.6013C32.116 89.3614 33.3762 88.8849 34.862 87.9528C35.0959 87.806 35.1666 87.4974 35.0198 87.2635C34.8731 87.0296 34.5645 86.9589 34.3305 87.1057C32.9359 87.9806 31.7856 88.4088 30.761 88.6224C29.73 88.8373 28.8079 88.8398 27.8342 88.841L27.8178 88.841C26.8559 88.8421 25.8425 88.8433 24.7045 89.0806C23.5535 89.3205 22.2934 89.797 20.8076 90.7291ZM19.853 82.5219C19.5891 82.6031 19.441 82.8829 19.5222 83.1469C19.6034 83.4108 19.8832 83.5589 20.1471 83.4777C21.7207 82.9935 22.9427 82.8777 23.9876 82.9365C25.0391 82.9958 25.9304 83.2321 26.8713 83.483L26.887 83.4872C27.8165 83.735 28.7957 83.9962 29.9563 84.0615C31.1302 84.1277 32.4707 83.9935 34.1471 83.4777C34.4111 83.3965 34.5592 83.1167 34.478 82.8528C34.3968 82.5889 34.117 82.4407 33.853 82.5219C32.2794 83.0061 31.0575 83.122 30.0126 83.0631C28.961 83.0039 28.0698 82.7676 27.1289 82.5167L27.1131 82.5125C26.1837 82.2646 25.2045 82.0035 24.0438 81.9381C22.87 81.872 21.5294 82.0061 19.853 82.5219ZM21.055 74.3474C20.779 74.3575 20.5635 74.5894 20.5737 74.8654C20.5838 75.1413 20.8157 75.3568 21.0917 75.3467C22.737 75.2863 23.9473 75.4906 24.9413 75.8179C25.9417 76.1473 26.7415 76.6062 27.5853 77.0921L27.5995 77.1002C28.4331 77.5802 29.3114 78.0859 30.4155 78.4494C31.5323 78.8171 32.8619 79.0345 34.6146 78.9701C34.8906 78.96 35.1061 78.7281 35.096 78.4521C35.0858 78.1762 34.8539 77.9607 34.578 77.9708C32.9327 78.0312 31.7224 77.8269 30.7283 77.4996C29.7279 77.1702 28.9282 76.7113 28.0843 76.2254L28.0701 76.2173C27.2365 75.7373 26.3582 75.2316 25.2541 74.8681C24.1374 74.5004 22.8078 74.283 21.055 74.3474ZM24.3318 66.7625C24.0626 66.7009 23.7944 66.8691 23.7328 67.1383C23.6711 67.4075 23.8394 67.6757 24.1086 67.7373C25.7134 68.1048 26.8296 68.6154 27.7051 69.1889C28.5861 69.7659 29.2398 70.4162 29.9292 71.1039L29.9408 71.1154C30.6217 71.7948 31.3392 72.5106 32.3117 73.1475C33.2952 73.7917 34.5232 74.3458 36.2329 74.7373C36.5021 74.7989 36.7703 74.6307 36.8319 74.3615C36.8935 74.0923 36.7253 73.8242 36.4561 73.7625C34.8512 73.395 33.7351 72.8844 32.8596 72.311C31.9785 71.7339 31.3248 71.0837 30.6355 70.3959L30.6239 70.3844L30.6238 70.3843L30.6238 70.3843C29.9428 69.705 29.2254 68.9892 28.253 68.3523C27.2695 67.7081 26.0415 67.154 24.3318 66.7625ZM29.4601 60.2842C29.2161 60.155 28.9135 60.2481 28.7843 60.4921C28.6551 60.7362 28.7482 61.0388 28.9923 61.168C30.4473 61.9383 31.3933 62.7204 32.0905 63.5009C32.7922 64.2863 33.2553 65.0836 33.7432 65.9263L33.7514 65.9405C34.2334 66.773 34.7411 67.65 35.5156 68.5169C36.2989 69.3937 37.3416 70.2468 38.8918 71.0675C39.1358 71.1966 39.4384 71.1035 39.5676 70.8595C39.6968 70.6154 39.6037 70.3129 39.3596 70.1837C37.9046 69.4133 36.9586 68.6312 36.2614 67.8507C35.5597 67.0653 35.0965 66.268 34.6087 65.4253L34.6005 65.4111C34.1185 64.5787 33.6108 63.7016 32.8363 62.8347C32.053 61.9579 31.0103 61.1048 29.4601 60.2842ZM51.353 100.022C51.6169 99.9408 51.8967 100.089 51.9779 100.353C52.4937 102.029 52.6279 103.37 52.5617 104.544C52.4964 105.704 52.2352 106.684 51.9874 107.613L51.9832 107.629C51.7323 108.57 51.496 109.461 51.4367 110.512C51.3779 111.557 51.4937 112.779 51.9779 114.353C52.0591 114.617 51.911 114.897 51.6471 114.978C51.3832 115.059 51.1034 114.911 51.0222 114.647C50.5063 112.971 50.3722 111.63 50.4383 110.456C50.5037 109.296 50.7649 108.316 51.0127 107.387L51.0169 107.371C51.2678 106.43 51.5041 105.539 51.5633 104.487C51.6222 103.442 51.5063 102.221 51.0222 100.647C50.9409 100.383 51.0891 100.103 51.353 100.022ZM51.353 51.022C51.6169 50.9408 51.8967 51.0889 51.9779 51.3529C52.4937 53.0293 52.6279 54.3698 52.5617 55.5437C52.4964 56.7043 52.2352 57.6835 51.9874 58.6129L51.9832 58.6287C51.7323 59.5696 51.496 60.4609 51.4367 61.5124C51.3779 62.5573 51.4938 63.7793 51.9779 65.3529C52.0591 65.6168 51.911 65.8966 51.6471 65.9778C51.3832 66.059 51.1034 65.9109 51.0222 65.647C50.5063 63.9706 50.3722 62.63 50.4383 61.4562C50.5037 60.2955 50.7649 59.3163 51.0127 58.3869L51.0169 58.3711C51.2678 57.4302 51.5041 56.539 51.5633 55.4874C51.6222 54.4425 51.5063 53.2206 51.0222 51.647C50.9409 51.383 51.0891 51.1032 51.353 51.022ZM43.7709 52.3075C43.6241 52.0736 43.3155 52.003 43.0816 52.1497C42.8477 52.2965 42.777 52.6051 42.9238 52.839C43.7987 54.2337 44.2269 55.384 44.4405 56.4085C44.6554 57.4396 44.6579 58.3616 44.659 59.3353L44.6591 59.3517C44.6602 60.3136 44.6614 61.327 44.8986 62.465C45.1386 63.616 45.6151 64.8762 46.5472 66.3619C46.694 66.5959 47.0026 66.6665 47.2365 66.5198C47.4704 66.373 47.5411 66.0644 47.3943 65.8305C46.5194 64.4358 46.0912 63.2855 45.8776 62.261C45.6627 61.2299 45.6602 60.3079 45.659 59.3341L45.659 59.3178C45.6579 58.3559 45.6567 57.3424 45.4194 56.2044C45.1795 55.0535 44.703 53.7933 43.7709 52.3075ZM55.7637 99.4801C55.9976 99.3333 56.3062 99.404 56.453 99.6379C57.3851 101.124 57.8616 102.384 58.1016 103.535C58.3388 104.673 58.34 105.686 58.3412 106.648L58.3412 106.665C58.3423 107.638 58.3448 108.56 58.5597 109.591C58.7733 110.616 59.2015 111.766 60.0765 113.161C60.2232 113.395 60.1526 113.703 59.9186 113.85C59.6847 113.997 59.3761 113.926 59.2294 113.692C58.2972 112.207 57.8207 110.946 57.5808 109.795C57.3435 108.657 57.3423 107.644 57.3412 106.682L57.3412 106.666C57.34 105.692 57.3376 104.77 57.1226 103.739C56.909 102.714 56.4809 101.564 55.6059 100.169C55.4591 99.9354 55.5298 99.6268 55.7637 99.4801ZM36.0904 55.3539C35.8881 55.1659 35.5718 55.1775 35.3838 55.3798C35.1958 55.5821 35.2074 55.8985 35.4097 56.0864C36.6159 57.2071 37.3272 58.2074 37.7986 59.1418C38.2731 60.0821 38.5141 60.972 38.7673 61.9123L38.7715 61.9281C39.0216 62.8569 39.2851 63.8355 39.8087 64.8734C40.3384 65.923 41.1248 67.0169 42.4098 68.2108C42.612 68.3988 42.9284 68.3871 43.1164 68.1848C43.3043 67.9825 43.2927 67.6662 43.0904 67.4782C41.8843 66.3575 41.173 65.3572 40.7015 64.4229C40.2271 63.4826 39.986 62.5926 39.7329 61.6523L39.7286 61.6365L39.7286 61.6365C39.4786 60.7077 39.2151 59.7291 38.6914 58.6913C38.1618 57.6417 37.3753 56.5478 36.0904 55.3539ZM59.8838 97.815C60.0718 97.6128 60.3881 97.6011 60.5904 97.7891C61.8753 98.983 62.6618 100.077 63.1914 101.127C63.7151 102.164 63.9786 103.143 64.2286 104.072L64.2329 104.088C64.486 105.028 64.7271 105.918 65.2015 106.858C65.673 107.792 66.3843 108.793 67.5904 109.913C67.7927 110.101 67.8043 110.418 67.6164 110.62C67.4284 110.822 67.112 110.834 66.9097 110.646C65.6248 109.452 64.8384 108.358 64.3087 107.309C63.785 106.271 63.5216 105.292 63.2715 104.363L63.2673 104.348C63.0141 103.407 62.7731 102.517 62.2986 101.577C61.8272 100.643 61.1159 99.6424 59.9097 98.5217C59.7074 98.3337 59.6958 98.0173 59.8838 97.815ZM63.4325 95.1404C63.5617 94.8963 63.8643 94.8032 64.1084 94.9324C65.6585 95.7531 66.7013 96.6061 67.4845 97.4829C68.259 98.3498 68.7668 99.2269 69.2487 100.059L69.2569 100.074C69.7448 100.916 70.2079 101.714 70.9096 102.499C71.6068 103.279 72.5528 104.062 74.0079 104.832C74.2519 104.961 74.345 105.264 74.2158 105.508C74.0866 105.752 73.784 105.845 73.54 105.716C71.9899 104.895 70.9471 104.042 70.1638 103.165C69.3894 102.298 68.8816 101.421 68.3997 100.589L68.3915 100.575C67.9036 99.7318 67.4404 98.9346 66.7388 98.1491C66.0415 97.3686 65.0956 96.5865 63.6405 95.8162C63.3964 95.687 63.3033 95.3844 63.4325 95.1404ZM66.168 91.6383C66.2296 91.3691 66.4978 91.2009 66.767 91.2625C68.4767 91.654 69.7047 92.2081 70.6882 92.8523C71.6607 93.4893 72.3781 94.205 73.0591 94.8844L73.0707 94.8959C73.7601 95.5837 74.4138 96.2339 75.2948 96.811C76.1703 97.3844 77.2865 97.895 78.8914 98.2625C79.1605 98.3242 79.3288 98.5923 79.2671 98.8615C79.2055 99.1307 78.9373 99.2989 78.6682 99.2373C76.9584 98.8458 75.7304 98.2917 74.7469 97.6475C73.7745 97.0106 73.057 96.2948 72.376 95.6154L72.3644 95.6039C71.6751 94.9162 71.0214 94.2659 70.1403 93.6889C69.2648 93.1154 68.1487 92.6048 66.5438 92.2373C66.2746 92.1757 66.1064 91.9075 66.168 91.6383ZM67.904 87.5475C67.8939 87.2715 68.1094 87.0396 68.3854 87.0295C70.1381 86.9651 71.4677 87.1825 72.5845 87.5502C73.6886 87.9138 74.5669 88.4195 75.4005 88.8994L75.4147 88.9076C76.2585 89.3934 77.0583 89.8523 78.0587 90.1817C79.0527 90.509 80.263 90.7134 81.9083 90.6529C82.1843 90.6428 82.4162 90.8583 82.4263 91.1343C82.4365 91.4102 82.221 91.6421 81.945 91.6523C80.1922 91.7166 78.8626 91.4992 77.7459 91.1316C76.6417 90.768 75.7635 90.2623 74.9299 89.7824L74.9157 89.7742C74.0718 89.2883 73.2721 88.8294 72.2717 88.5001C71.2776 88.1728 70.0673 87.9684 68.4221 88.0288C68.1461 88.0389 67.9142 87.8235 67.904 87.5475ZM68.5222 83.1469C68.441 82.8829 68.5891 82.6032 68.853 82.5219C70.5294 82.0061 71.87 81.872 73.0438 81.9381C74.2045 82.0035 75.1837 82.2646 76.1131 82.5125L76.1289 82.5167C77.0698 82.7676 77.961 83.0039 79.0126 83.0631C80.0575 83.122 81.2794 83.0061 82.853 82.5219C83.117 82.4407 83.3968 82.5889 83.478 82.8528C83.5592 83.1167 83.4111 83.3965 83.1471 83.4777C81.4707 83.9935 80.1302 84.1277 78.9563 84.0615C77.7957 83.9962 76.8165 83.735 75.887 83.4872L75.8712 83.483C74.9304 83.2321 74.0391 82.9958 72.9876 82.9365C71.9427 82.8777 70.7207 82.9935 69.1471 83.4777C68.8832 83.5589 68.6034 83.4108 68.5222 83.1469ZM67.9801 78.7363C67.8333 78.5024 67.904 78.1938 68.1379 78.047C69.6237 77.1149 70.8839 76.6384 72.0348 76.3984C73.1728 76.1612 74.1863 76.16 75.1482 76.1588L75.1645 76.1588C76.1383 76.1577 77.0603 76.1552 78.0913 75.9403C79.1159 75.7267 80.2662 75.2985 81.6609 74.4235C81.8948 74.2768 82.2034 74.3474 82.3501 74.5814C82.4969 74.8153 82.4262 75.1239 82.1923 75.2706C80.7065 76.2028 79.4464 76.6793 78.2954 76.9192C77.1574 77.1565 76.144 77.1577 75.1821 77.1588L75.1657 77.1588C74.192 77.16 73.2699 77.1624 72.2389 77.3774C71.2143 77.591 70.064 78.0191 68.6694 78.8941C68.4354 79.0409 68.1268 78.9702 67.9801 78.7363ZM51.6235 83.3792C50.8432 82.5989 50.1972 81.9528 49.6841 81.3963C49.1684 80.8368 48.8097 80.3918 48.5905 80.016C48.3731 79.6433 48.3199 79.3846 48.3454 79.1809C48.3708 78.978 48.4855 78.739 48.795 78.4294C49.1046 78.1199 49.3436 78.0052 49.5465 77.9798C49.7502 77.9543 50.0089 78.0075 50.3816 78.2249C50.7574 78.4442 51.2024 78.8028 51.7618 79.3185C52.3184 79.8316 52.9645 80.4776 53.7448 81.2579C54.5251 82.0382 55.171 82.6842 55.6841 83.2408C56.1999 83.8003 56.5585 84.2452 56.7777 84.6211C56.9951 84.9938 57.0483 85.2524 57.0228 85.4562C56.9975 85.6591 56.8827 85.8981 56.5732 86.2076C56.2637 86.5171 56.0247 86.6319 55.8218 86.6572C55.618 86.6827 55.3594 86.6295 54.9867 86.4121C54.6108 86.1929 54.1659 85.8343 53.6064 85.3185C53.0498 84.8054 52.4037 84.1595 51.6235 83.3792ZM48.0879 77.7223C47.6903 78.1199 47.4162 78.5526 47.3531 79.0568C47.2902 79.5602 47.4492 80.044 47.7267 80.5198C48.0025 80.9926 48.4217 81.5022 48.9489 82.0741C49.4773 82.6472 50.1372 83.3072 50.9098 84.0797L50.9163 84.0863L50.9229 84.0929C51.6954 84.8654 52.3554 85.5254 52.9286 86.0537C53.5005 86.5809 54.0101 87.0001 54.4828 87.2759C54.9586 87.5535 55.4424 87.7124 55.9458 87.6495C56.45 87.5865 56.8827 87.3123 57.2803 86.9147C57.6779 86.5171 57.9521 86.0844 58.0151 85.5802C58.078 85.0768 57.9191 84.593 57.6415 84.1172C57.3657 83.6445 56.9465 83.1349 56.4193 82.563C55.8909 81.9898 55.231 81.3298 54.4584 80.5573L54.4519 80.5508L54.4453 80.5442C53.6728 79.7717 53.0128 79.1117 52.4397 78.5833C51.8678 78.0561 51.3581 77.6369 50.8854 77.3611C50.4096 77.0836 49.9258 76.9246 49.4224 76.9875C48.9182 77.0506 48.4855 77.3248 48.0879 77.7223Z" fill="black"/>
</svg>
