<svg width="192" height="224" viewBox="0 0 192 224" fill="none" xmlns="http://www.w3.org/2000/svg">
<path fill-rule="evenodd" clip-rule="evenodd" d="M96.0001 30C95.5174 30 94.9779 30.1628 94.3784 30.5105L93.8766 29.6455C94.5782 29.2385 95.2909 29 96.0001 29C96.7093 29 97.422 29.2385 98.1236 29.6455L97.6218 30.5105C97.0223 30.1628 96.4828 30 96.0001 30ZM101.036 33.7953C100.104 32.6071 99.2133 31.6704 98.3763 31.0231L98.988 30.232C99.9144 30.9484 100.863 31.9542 101.823 33.1783L101.036 33.7953ZM93.6239 31.0231C92.7869 31.6704 91.8957 32.6071 90.9644 33.7953L90.1773 33.1784C91.1368 31.9542 92.0858 30.9484 93.0122 30.232L93.6239 31.0231ZM103.794 37.8389C103.059 36.6352 102.333 35.5383 101.623 34.5702L102.429 33.9786C103.16 34.9744 103.901 36.0957 104.648 37.3176L103.794 37.8389ZM90.3772 34.5702C89.6668 35.5383 88.9412 36.6352 88.2061 37.8389L87.3527 37.3176C88.099 36.0957 88.8403 34.9744 89.571 33.9786L90.3772 34.5702ZM106.227 42.1311C105.585 40.9221 104.944 39.7719 104.308 38.6953L105.169 38.1869C105.814 39.2784 106.462 40.4418 107.11 41.662L106.227 42.1311ZM87.6919 38.6953C87.0563 39.7719 86.4155 40.9221 85.7731 42.1312L84.89 41.662C85.5382 40.4418 86.1864 39.2784 86.8308 38.1869L87.6919 38.6953ZM108.458 46.5418C107.87 45.3271 107.28 44.1471 106.691 43.0131L107.578 42.5518C108.172 43.6954 108.767 44.8841 109.358 46.1064L108.458 46.5418ZM85.3096 43.0132C84.72 44.1471 84.1301 45.3271 83.5426 46.5418L82.6424 46.1064C83.2335 44.8842 83.8278 43.6954 84.4223 42.5519L85.3096 43.0132ZM110.55 51.0283C110.001 49.8102 109.446 48.6108 108.889 47.4401L109.791 47.0102C110.352 48.1878 110.91 49.3935 111.461 50.6172L110.55 51.0283ZM83.1116 47.4401C82.5542 48.6108 81.9997 49.8102 81.4504 51.0283L80.5388 50.6172C81.0906 49.3935 81.648 48.1878 82.2088 47.0102L83.1116 47.4401ZM112.537 55.565C112.017 54.3447 111.489 53.1306 110.955 51.9319L111.868 51.525C112.405 52.729 112.935 53.948 113.457 55.1728L112.537 55.565ZM81.0455 51.9319C80.5115 53.1306 79.9831 54.3447 79.4627 55.5651L78.5429 55.1728C79.0652 53.948 79.5956 52.729 80.132 51.525L81.0455 51.9319ZM114.442 60.1367C113.946 58.9189 113.439 57.6958 112.924 56.4765L113.846 56.0875C114.362 57.311 114.87 58.5381 115.368 59.7596L114.442 60.1367ZM79.0759 56.4765C78.561 57.6958 78.0546 58.9189 77.5587 60.1367L76.6325 59.7596C77.1299 58.5381 77.638 57.311 78.1547 56.0875L79.0759 56.4765ZM116.279 64.7416C115.804 63.5274 115.315 62.2955 114.814 61.0556L115.741 60.6812C116.243 61.9247 116.734 63.16 117.21 64.3772L116.279 64.7416ZM77.1861 61.0556C76.6854 62.2955 76.1964 63.5274 75.7214 64.7416L74.7901 64.3772C75.2664 63.16 75.7567 61.9247 76.2588 60.6812L77.1861 61.0556ZM118.057 69.3696C117.601 68.1624 117.127 66.9217 116.636 65.6587L117.568 65.2967C118.06 66.5628 118.536 67.8065 118.993 69.0165L118.057 69.3696ZM75.3639 65.6587C74.8734 66.9217 74.3989 68.1624 73.9432 69.3697L73.0076 69.0165C73.4644 67.8065 73.94 66.5628 74.4317 65.2967L75.3639 65.6587ZM119.783 74.018C119.348 72.8285 118.888 71.5819 118.404 70.2924L119.341 69.9413C119.825 71.2336 120.287 72.4829 120.722 73.6749L119.783 74.018ZM73.596 70.2924C73.1125 71.5819 72.6518 72.8285 72.2173 74.018L71.278 73.6749C71.7134 72.4829 72.1751 71.2336 72.6597 69.9413L73.596 70.2924ZM121.459 78.6818C121.052 77.5305 120.604 76.2764 120.119 74.9414L121.059 74.6002C121.545 75.938 121.994 77.1948 122.402 78.3484L121.459 78.6818ZM71.8812 74.9414C71.3967 76.2764 70.9483 77.5305 70.5412 78.6818L69.5984 78.3484C70.0063 77.1948 70.4556 75.9381 70.9411 74.6002L71.8812 74.9414ZM136 112C136 100.666 131.286 90.4325 123.711 83.154L124.034 83.044C123.685 82.0213 123.246 80.7497 122.731 79.282L121.787 79.6135C122.122 80.5649 122.423 81.4336 122.689 82.2053C115.61 75.8595 106.256 72 96.0001 72C85.7445 72 76.3904 75.8595 69.311 82.2054C69.5768 81.4337 69.8786 80.5649 70.2128 79.6135L69.2693 79.282C68.7538 80.7497 68.3152 82.0213 67.9663 83.044L68.2888 83.1541C60.7143 90.4325 56.0001 100.666 56.0001 112C56.0001 123.065 60.4931 133.081 67.7542 140.323L45.0665 161.816C44.0058 162.877 44.0059 163.584 44.0059 163.584C44.0059 164.291 44.713 164.998 45.4201 164.998C45.4201 164.998 46.1273 164.998 47.1878 163.937L68.6973 141.233C75.8455 147.912 85.4454 152 96.0001 152C118.092 152 136 134.091 136 112ZM70.0729 139.781C76.8625 146.12 85.9782 150 96.0001 150C116.987 150 134 132.987 134 112C134 91.0132 116.987 74 96.0001 74C75.0133 74 58.0001 91.0132 58.0001 112C58.0001 122.532 62.285 132.064 69.2067 138.946L71.9368 136.36L79.0078 129.289L78.6544 128.936C78.4591 128.74 78.4591 128.424 78.6544 128.228C78.8497 128.033 79.1662 128.033 79.3615 128.228L79.715 128.582L83.9576 124.339L83.6041 123.986C83.4088 123.791 83.4088 123.474 83.6041 123.279C83.7994 123.083 84.1159 123.083 84.3112 123.279L84.6647 123.632L88.9073 119.39L88.5538 119.036C88.3586 118.841 88.3586 118.524 88.5538 118.329C88.7491 118.134 89.0657 118.134 89.261 118.329L89.6144 118.682L94.564 113.733L95.2711 114.44L90.3216 119.39L90.6752 119.743C90.8704 119.938 90.8704 120.255 90.6752 120.45C90.4799 120.646 90.1633 120.646 89.9681 120.45L89.6144 120.097L85.3718 124.339L85.7254 124.693C85.9207 124.888 85.9207 125.205 85.7254 125.4C85.5302 125.595 85.2136 125.595 85.0183 125.4L84.6647 125.046L80.4221 129.289L80.7757 129.643C80.971 129.838 80.971 130.155 80.7757 130.35C80.5805 130.545 80.2639 130.545 80.0686 130.35L79.715 129.996L72.6439 137.067L70.0729 139.781ZM64.8078 119.729C64.5738 119.876 64.5032 120.184 64.6499 120.418C64.7967 120.652 65.1053 120.723 65.3392 120.576C66.7339 119.701 67.8842 119.273 68.9087 119.06C69.9398 118.845 70.8618 118.842 71.8356 118.841L71.8519 118.841C72.8138 118.84 73.8273 118.839 74.9653 118.601C76.1162 118.361 77.3764 117.885 78.8622 116.953C79.0961 116.806 79.1667 116.497 79.02 116.263C78.8732 116.03 78.5646 115.959 78.3307 116.106C76.9361 116.981 75.7857 117.409 74.7612 117.622C73.7302 117.837 72.8081 117.84 71.8344 117.841L71.818 117.841C70.8561 117.842 69.8427 117.843 68.7047 118.081C67.5537 118.32 66.2935 118.797 64.8078 119.729ZM63.8532 111.522C63.5893 111.603 63.4412 111.883 63.5224 112.147C63.6036 112.411 63.8834 112.559 64.1473 112.478C65.7209 111.994 66.9428 111.878 67.9878 111.937C69.0393 111.996 69.9306 112.232 70.8714 112.483L70.8872 112.487C71.8166 112.735 72.7959 112.996 73.9565 113.062C75.1303 113.128 76.4709 112.994 78.1473 112.478C78.4112 112.397 78.5594 112.117 78.4781 111.853C78.3969 111.589 78.1171 111.441 77.8532 111.522C76.2796 112.006 75.0577 112.122 74.0128 112.063C72.9612 112.004 72.07 111.768 71.1291 111.517L71.1133 111.513L71.1132 111.512C70.1838 111.265 69.2046 111.004 68.044 110.938C66.8702 110.872 65.5296 111.006 63.8532 111.522ZM65.0552 103.347C64.7792 103.357 64.5637 103.589 64.5739 103.865C64.584 104.141 64.8159 104.357 65.0919 104.347C66.7372 104.286 67.9475 104.491 68.9415 104.818C69.9419 105.147 70.7416 105.606 71.5855 106.092L71.5997 106.1L71.5998 106.1C72.4334 106.58 73.3116 107.086 74.4157 107.449C75.5324 107.817 76.8621 108.035 78.6148 107.97C78.8908 107.96 79.1063 107.728 79.0961 107.452C79.086 107.176 78.8541 106.961 78.5781 106.971C76.9328 107.031 75.7225 106.827 74.7285 106.5C73.7281 106.17 72.9284 105.711 72.0845 105.225L72.0703 105.217C71.2367 104.737 70.3584 104.232 69.2543 103.868C68.1376 103.5 66.8079 103.283 65.0552 103.347ZM68.3319 95.7625C68.0628 95.7009 67.7946 95.8691 67.7329 96.1383C67.6713 96.4075 67.8396 96.6757 68.1087 96.7373C69.7136 97.1048 70.8298 97.6154 71.7053 98.1888C72.5863 98.7659 73.24 99.4162 73.9294 100.104L73.9409 100.115L73.941 100.116C74.622 100.795 75.3394 101.511 76.3118 102.147C77.2953 102.792 78.5234 103.346 80.2331 103.737C80.5023 103.799 80.7704 103.631 80.8321 103.361C80.8937 103.092 80.7255 102.824 80.4563 102.763C78.8514 102.395 77.7353 101.884 76.8598 101.311C75.9787 100.734 75.325 100.084 74.6356 99.3959L74.6241 99.3844C73.9431 98.705 73.2256 97.9893 72.2532 97.3523C71.2697 96.7081 70.0416 96.154 68.3319 95.7625ZM73.4603 89.2842C73.2163 89.155 72.9137 89.2481 72.7845 89.4921C72.6553 89.7362 72.7484 90.0388 72.9924 90.168C74.4475 90.9383 75.3935 91.7204 76.0907 92.5009C76.7924 93.2863 77.2555 94.0836 77.7434 94.9263L77.7516 94.9405C78.2335 95.7729 78.7413 96.65 79.5158 97.5169C80.299 98.3937 81.3418 99.2468 82.8919 100.067C83.136 100.197 83.4386 100.104 83.5678 99.8595C83.697 99.6154 83.6039 99.3129 83.3598 99.1837C81.9047 98.4133 80.9588 97.6312 80.2615 96.8507C79.5599 96.0653 79.0967 95.268 78.6088 94.4253L78.6006 94.4111C78.1187 93.5787 77.6109 92.7016 76.8365 91.8347C76.0532 90.9579 75.0104 90.1048 73.4603 89.2842ZM95.3532 129.022C95.6171 128.941 95.8969 129.089 95.9781 129.353C96.4939 131.029 96.6281 132.37 96.5619 133.544C96.4965 134.704 96.2354 135.684 95.9875 136.613L95.9833 136.629C95.7324 137.57 95.4962 138.461 95.4369 139.512C95.3781 140.557 95.4939 141.779 95.9781 143.353C96.0593 143.617 95.9112 143.897 95.6473 143.978C95.3833 144.059 95.1035 143.911 95.0223 143.647C94.5065 141.971 94.3724 140.63 94.4385 139.456C94.5039 138.296 94.765 137.316 95.0129 136.387L95.0171 136.371C95.268 135.43 95.5043 134.539 95.5635 133.487C95.6224 132.442 95.5065 131.221 95.0223 129.647C94.9411 129.383 95.0892 129.103 95.3532 129.022ZM95.3532 80.022C95.6171 79.9408 95.8969 80.0889 95.9781 80.3529C96.4939 82.0293 96.6281 83.3698 96.5619 84.5437C96.4965 85.7043 96.2354 86.6835 95.9876 87.6129L95.9875 87.6129L95.9833 87.6287C95.7324 88.5696 95.4962 89.4609 95.4369 90.5124C95.3781 91.5573 95.4939 92.7793 95.9781 94.3529C96.0593 94.6168 95.9112 94.8966 95.6473 94.9778C95.3833 95.059 95.1035 94.9109 95.0223 94.647C94.5065 92.9706 94.3724 91.63 94.4385 90.4562C94.5039 89.2955 94.765 88.3163 95.0129 87.3869L95.0171 87.3711C95.268 86.4302 95.5043 85.539 95.5635 84.4874C95.6224 83.4425 95.5065 82.2206 95.0223 80.647C94.9411 80.383 95.0892 80.1032 95.3532 80.022ZM87.771 81.3075C87.6243 81.0736 87.3157 81.003 87.0818 81.1497C86.8479 81.2965 86.7772 81.6051 86.9239 81.839C87.7989 83.2336 88.2271 84.384 88.4407 85.4085C88.6556 86.4395 88.6581 87.3616 88.6592 88.3353L88.6592 88.3517C88.6604 89.3136 88.6616 90.327 88.8988 91.465C89.1388 92.616 89.6153 93.8762 90.5474 95.3619C90.6942 95.5959 91.0028 95.6665 91.2367 95.5198C91.4706 95.373 91.5413 95.0644 91.3945 94.8305C90.5195 93.4358 90.0914 92.2855 89.8778 91.261C89.6628 90.2299 89.6604 89.3079 89.6592 88.3341L89.6592 88.3178C89.6581 87.3559 89.6568 86.3424 89.4196 85.2044C89.1797 84.0535 88.7032 82.7933 87.771 81.3075ZM99.7639 128.48C99.9978 128.333 100.306 128.404 100.453 128.638C101.385 130.124 101.862 131.384 102.102 132.535C102.339 133.673 102.34 134.686 102.341 135.648L102.341 135.665C102.343 136.638 102.345 137.56 102.56 138.591C102.773 139.616 103.202 140.766 104.077 142.161C104.223 142.395 104.153 142.703 103.919 142.85C103.685 142.997 103.376 142.926 103.23 142.692C102.297 141.207 101.821 139.946 101.581 138.795C101.344 137.657 101.343 136.644 101.341 135.682L101.341 135.666C101.34 134.692 101.338 133.77 101.123 132.739C100.909 131.714 100.481 130.564 99.6061 129.169C99.4593 128.935 99.53 128.627 99.7639 128.48ZM80.0906 84.3539C79.8883 84.1659 79.5719 84.1775 79.384 84.3798C79.196 84.5821 79.2076 84.8985 79.4099 85.0864C80.616 86.2071 81.3273 87.2074 81.7988 88.1418C82.2733 89.0821 82.5143 89.972 82.7674 90.9123L82.7717 90.9281C83.0218 91.8569 83.2852 92.8355 83.8089 93.8734C84.3386 94.923 85.125 96.0169 86.4099 97.2108C86.6122 97.3988 86.9286 97.3871 87.1166 97.1848C87.3045 96.9825 87.2929 96.6662 87.0906 96.4782C85.8845 95.3575 85.1732 94.3572 84.7017 93.4229C84.2272 92.4826 83.9862 91.5926 83.7331 90.6523L83.7288 90.6365C83.4787 89.7077 83.2153 88.7291 82.6916 87.6913C82.162 86.6417 81.3755 85.5478 80.0906 84.3539ZM103.884 126.815C104.072 126.613 104.388 126.601 104.591 126.789C105.876 127.983 106.662 129.077 107.192 130.127C107.715 131.164 107.979 132.143 108.229 133.072L108.229 133.072L108.233 133.088C108.486 134.028 108.727 134.918 109.202 135.858C109.673 136.792 110.384 137.793 111.591 138.913C111.793 139.101 111.805 139.418 111.617 139.62C111.429 139.822 111.112 139.834 110.91 139.646C109.625 138.452 108.839 137.358 108.309 136.309C107.785 135.271 107.522 134.292 107.272 133.363L107.267 133.348C107.014 132.407 106.773 131.517 106.299 130.577C105.827 129.643 105.116 128.642 103.91 127.522C103.708 127.334 103.696 127.017 103.884 126.815ZM107.433 124.14C107.562 123.896 107.865 123.803 108.109 123.932C109.659 124.753 110.701 125.606 111.485 126.483C112.259 127.35 112.767 128.227 113.249 129.059L113.257 129.074C113.745 129.916 114.208 130.714 114.91 131.499C115.607 132.279 116.553 133.062 118.008 133.832C118.252 133.961 118.345 134.264 118.216 134.508C118.087 134.752 117.784 134.845 117.54 134.716C115.99 133.895 114.947 133.042 114.164 132.165C113.39 131.298 112.882 130.421 112.4 129.589L112.392 129.575C111.904 128.732 111.441 127.935 110.739 127.149C110.042 126.369 109.096 125.587 107.641 124.816C107.397 124.687 107.304 124.384 107.433 124.14ZM110.168 120.638C110.23 120.369 110.498 120.201 110.767 120.263C112.477 120.654 113.705 121.208 114.688 121.852C115.661 122.489 116.378 123.205 117.059 123.884L117.071 123.896C117.76 124.584 118.414 125.234 119.295 125.811C120.17 126.384 121.287 126.895 122.892 127.263C123.161 127.324 123.329 127.592 123.267 127.861C123.206 128.131 122.938 128.299 122.668 128.237C120.959 127.846 119.731 127.292 118.747 126.647C117.775 126.011 117.057 125.295 116.376 124.615L116.365 124.604C115.675 123.916 115.022 123.266 114.14 122.689C113.265 122.115 112.149 121.605 110.544 121.237C110.275 121.176 110.107 120.907 110.168 120.638ZM111.904 116.547C111.894 116.272 112.11 116.04 112.386 116.029C114.138 115.965 115.468 116.183 116.585 116.55C117.689 116.914 118.567 117.419 119.401 117.899L119.415 117.908C120.259 118.393 121.058 118.852 122.059 119.182C123.053 119.509 124.263 119.713 125.909 119.653C126.184 119.643 126.416 119.858 126.427 120.134C126.437 120.41 126.221 120.642 125.945 120.652C124.192 120.717 122.863 120.499 121.746 120.132C120.642 119.768 119.764 119.262 118.93 118.782L118.916 118.774C118.072 118.288 117.272 117.829 116.272 117.5C115.278 117.173 114.068 116.968 112.422 117.029C112.146 117.039 111.914 116.823 111.904 116.547ZM112.522 112.147C112.441 111.883 112.589 111.603 112.853 111.522C114.53 111.006 115.87 110.872 117.044 110.938C118.205 111.004 119.184 111.265 120.113 111.513L120.129 111.517C121.07 111.768 121.961 112.004 123.013 112.063C124.058 112.122 125.28 112.006 126.853 111.522C127.117 111.441 127.397 111.589 127.478 111.853C127.559 112.117 127.411 112.397 127.147 112.478C125.471 112.994 124.13 113.128 122.957 113.062C121.796 112.996 120.817 112.735 119.887 112.487L119.871 112.483C118.931 112.232 118.039 111.996 116.988 111.937C115.943 111.878 114.721 111.994 113.147 112.478C112.883 112.559 112.604 112.411 112.522 112.147ZM111.98 107.736C111.834 107.502 111.904 107.194 112.138 107.047C113.624 106.115 114.884 105.638 116.035 105.398C117.173 105.161 118.186 105.16 119.148 105.159L119.165 105.159C120.138 105.158 121.06 105.155 122.092 104.94C123.116 104.727 124.266 104.299 125.661 103.424C125.895 103.277 126.204 103.347 126.35 103.581C126.497 103.815 126.426 104.124 126.192 104.271C124.707 105.203 123.447 105.679 122.296 105.919C121.158 106.156 120.144 106.158 119.182 106.159L119.166 106.159C118.192 106.16 117.27 106.162 116.239 106.377C115.215 106.591 114.064 107.019 112.67 107.894C112.436 108.041 112.127 107.97 111.98 107.736ZM95.6249 113.379C94.8446 112.599 94.1987 111.953 93.6856 111.396C93.1698 110.837 92.8112 110.392 92.592 110.016C92.3746 109.643 92.3214 109.385 92.3469 109.181C92.3722 108.978 92.487 108.739 92.7965 108.429C93.106 108.12 93.345 108.005 93.5479 107.98C93.7517 107.954 94.0103 108.008 94.383 108.225C94.7588 108.444 95.2038 108.803 95.7633 109.319C96.3199 109.832 96.966 110.478 97.7462 111.258C98.5265 112.038 99.1725 112.684 99.6856 113.241C100.201 113.8 100.56 114.245 100.779 114.621C100.997 114.994 101.05 115.252 101.024 115.456C100.999 115.659 100.884 115.898 100.575 116.208C100.265 116.517 100.026 116.632 99.8232 116.657C99.6195 116.683 99.3608 116.63 98.9881 116.412C98.6123 116.193 98.1673 115.834 97.6078 115.319C97.0513 114.805 96.4052 114.159 95.6249 113.379ZM92.0894 107.722C91.6918 108.12 91.4176 108.553 91.3546 109.057C91.2917 109.56 91.4506 110.044 91.7282 110.52C92.0039 110.993 92.4231 111.502 92.9504 112.074C93.4787 112.647 94.1387 113.307 94.9112 114.08L94.9178 114.086L94.9244 114.093L94.9246 114.093C95.697 114.866 96.3569 115.525 96.93 116.054C97.5019 116.581 98.0115 117 98.4843 117.276C98.9601 117.553 99.4439 117.712 99.9473 117.65C100.451 117.586 100.884 117.312 101.282 116.915C101.679 116.517 101.954 116.084 102.017 115.58C102.079 115.077 101.921 114.593 101.643 114.117C101.367 113.644 100.948 113.135 100.421 112.563C99.8924 111.99 99.2324 111.33 98.4599 110.557L98.4533 110.551L98.4468 110.544L98.4466 110.544C97.6742 109.772 97.0142 109.112 96.4411 108.583C95.8692 108.056 95.3596 107.637 94.8869 107.361C94.4111 107.084 93.9273 106.925 93.4239 106.988C92.9197 107.051 92.487 107.325 92.0894 107.722Z" fill="black"/>
</svg>
