<svg width="224" height="224" viewBox="0 0 224 224" fill="none" xmlns="http://www.w3.org/2000/svg">
<path fill-rule="evenodd" clip-rule="evenodd" d="M90.8376 67.1262C93.651 66.8954 96.5766 66.9682 99.5825 67.3775C95.942 67.4678 92.3504 68.0918 88.8973 69.2073L88.9305 69.1717L88.199 68.4898L86.8562 69.9301C86.5756 70.0383 86.296 70.1499 86.0175 70.2647L83.4093 69.8889L83.2667 70.8787L84.2894 71.026C82.0378 72.0827 79.8691 73.3581 77.8116 74.8388L77.9798 74.214L77.0142 73.954L76.5142 75.8113C76.228 76.0345 75.9442 76.2619 75.6629 76.4934L73.5293 76.0568L73.3288 77.0365L74.6933 77.3157C72.5661 79.1752 70.5912 81.2746 68.8061 83.5961L67.9346 83.5438L67.8544 84.8802C66.9999 86.0767 66.1942 87.3275 65.4419 88.6304C64.5605 90.1572 63.7777 91.7117 63.0929 93.2857L60.3791 94.7922L60.8645 95.6665L62.4781 94.7707C61.5585 97.1096 60.8517 99.4853 60.3556 101.871L59.3492 100.687L58.587 101.334L60.1134 103.131C60.0775 103.334 60.0431 103.537 60.0103 103.74L58.2781 105.804L59.0441 106.447L59.7516 105.604C59.4469 108.23 59.3953 110.853 59.594 113.436L58.9828 112.826L58.2765 113.534L59.7454 114.999C59.815 115.595 59.898 116.188 59.9945 116.778L59.6283 117.976L60.2471 118.165C60.9948 121.887 62.284 125.477 64.1057 128.822C62.2853 126.471 60.7834 124.025 59.5883 121.526L60.2594 119.331L59.3031 119.039L58.9634 120.15C57.773 117.384 56.9505 114.563 56.4802 111.742L57.3607 112.62L58.0669 111.912L56.2455 110.095C56.2346 110.003 56.224 109.911 56.2139 109.819L58.1192 107.549L57.3533 106.906L56.0875 108.414C55.8686 105.265 56.0834 102.143 56.7099 99.1242L57.785 100.39L58.5471 99.7425L56.9866 97.9054C56.9949 97.8721 57.0031 97.8388 57.0115 97.8055L59.59 96.374L59.1046 95.4997L57.3783 96.4581C58.0269 94.2583 58.9009 92.129 59.9912 90.1021L61.7101 91.0946L62.6498 91.6371L63.114 90.6563C63.9743 88.8385 64.7836 87.4356 66.0367 85.5952L66.6429 84.7049L65.7101 84.1664L63.9912 83.1739C65.2269 81.1749 66.668 79.3177 68.2897 77.6279L68.2863 77.6847L69.2845 77.7446L69.3552 76.5664C69.4545 76.4719 69.5543 76.378 69.6547 76.2846L72.0379 76.7723L72.2384 75.7926L70.5827 75.4538C72.7812 73.5577 75.2387 71.9344 77.9086 70.632L77.3505 72.7048L78.3161 72.9648L79.0417 70.2699L81.9342 70.6867L82.0768 69.6969L80.5485 69.4767C83.2988 68.4055 86.2395 67.6584 89.3265 67.2805L88.9572 67.6766L89.6886 68.3585L90.8376 67.1262ZM58.2583 89.1016L56.514 88.0946C55.4129 87.4589 54.7669 86.5239 54.5547 85.4933C54.3475 84.4868 54.5684 83.4645 55.0499 82.6305C55.5315 81.7964 56.3064 81.094 57.2816 80.7702C58.2802 80.4387 59.413 80.5307 60.514 81.1664L62.2583 82.1734C72.3921 65.7118 95.3739 58.5687 118.851 72.1234L118.845 72.1339C119.137 72.2929 119.427 72.4561 119.717 72.6234C138.501 83.4681 143.707 105.882 134.41 124.957L167.879 143.154L167.892 143.161L167.905 143.169L167.424 143.993L167.749 143.436C167.905 143.169 167.905 143.169 167.906 143.169L167.907 143.17L167.909 143.171L167.913 143.174L167.926 143.181L167.951 143.196L167.962 143.203C167.991 143.222 168.029 143.246 168.074 143.277C168.165 143.339 168.287 143.428 168.426 143.542C168.7 143.769 169.059 144.113 169.365 144.573C169.673 145.036 169.94 145.635 169.991 146.356C170.043 147.084 169.869 147.865 169.404 148.669C168.94 149.473 168.352 150.014 167.694 150.331C167.044 150.645 166.391 150.71 165.837 150.671C165.286 150.632 164.81 150.489 164.479 150.362C164.311 150.298 164.174 150.235 164.075 150.187L164.033 150.166L164.007 150.152L163.984 150.14L163.956 150.125C163.941 150.117 163.928 150.11 163.918 150.105L163.906 150.097L163.901 150.095L163.899 150.093L163.898 150.093C163.897 150.093 163.897 150.092 164.401 149.229L163.897 150.092L163.888 150.087L163.879 150.081L131.386 130.195C119.515 147.784 97.5006 154.482 78.7169 143.637C78.4271 143.47 78.1405 143.3 77.8571 143.127L77.8513 143.137C54.374 129.583 49.0692 106.109 58.2583 89.1016ZM118.717 74.3554C100.121 63.619 77.9779 70.9176 67.174 89.6304C56.3701 108.343 61.1209 131.169 79.7169 141.905C97.7475 152.315 119.01 145.713 130.243 128.296C130.594 127.752 130.933 127.197 131.26 126.63C131.587 126.064 131.898 125.493 132.194 124.917C141.661 106.481 136.747 84.7654 118.717 74.3554ZM162.072 146.631L164.906 148.365L164.906 148.365C164.916 148.371 164.934 148.38 164.959 148.393C165.011 148.418 165.091 148.455 165.194 148.494C165.404 148.575 165.681 148.655 165.978 148.676C166.27 148.696 166.558 148.659 166.825 148.53C167.083 148.405 167.387 148.164 167.672 147.669C167.958 147.174 168.017 146.788 167.996 146.498C167.975 146.199 167.863 145.927 167.7 145.68C167.534 145.431 167.326 145.228 167.153 145.084C167.068 145.014 166.996 144.962 166.948 144.93C166.937 144.922 166.928 144.916 166.92 144.911L166.901 144.899L163.987 143.314C163.889 143.843 163.687 144.464 163.303 145.13C162.918 145.797 162.48 146.282 162.072 146.631ZM161.163 146.074C161.552 145.794 162.026 145.342 162.437 144.63C162.848 143.918 163.002 143.282 163.05 142.805L133.494 126.735C133.331 127.035 133.163 127.333 132.992 127.63C132.82 127.928 132.646 128.222 132.468 128.513L161.163 146.074ZM106.784 94.0239C106.01 93.5772 105.209 93.2129 104.392 92.9286C95.9213 89.985 85.6125 95.6159 84.3963 106.975C84.3282 107.611 84.299 108.235 84.3062 108.845C84.4404 120.191 97.159 126.894 106.763 119.888C107.475 119.368 108.131 118.818 108.732 118.243C116.661 110.658 114.952 98.7398 106.784 94.0239ZM111.137 113.471C114.756 106.691 112.512 98.4858 106.284 94.89C105.592 94.4904 104.875 94.1618 104.142 93.9025C101.878 93.5781 100.004 93.946 98.5199 94.7077C96.5145 95.7366 95.169 97.5101 94.5288 99.3933C93.8852 101.286 93.9725 103.23 94.7442 104.6C95.4662 105.882 96.8294 106.739 98.9824 106.544C100.3 104.397 102.168 103.304 104.089 103.119C106.061 102.929 108.037 103.703 109.458 105.175C110.884 106.653 111.747 108.828 111.52 111.436C111.463 112.09 111.338 112.77 111.137 113.471ZM98.9588 107.549C96.5141 107.735 94.7936 106.725 93.8729 105.091C92.9275 103.412 92.872 101.16 93.582 99.0714C94.2954 96.9729 95.8 94.9793 98.0634 93.8179C98.5842 93.5507 99.1426 93.3289 99.7375 93.1602C93.0271 93.1849 86.3355 98.2563 85.3906 107.081C85.3318 107.63 85.3041 108.17 85.3056 108.699C85.9942 110.978 87.1615 112.56 88.5151 113.576C90.206 114.845 92.2268 115.261 94.0711 115.01C95.9213 114.758 97.5581 113.842 98.5033 112.492C99.3855 111.233 99.7001 109.547 98.9588 107.549ZM85.7138 111.992C87.874 120.545 98.1726 124.916 106.173 119.08C106.823 118.606 107.423 118.106 107.973 117.585C109.608 115.287 110.365 113.173 110.524 111.349C110.726 109.02 109.957 107.133 108.738 105.87C107.515 104.602 105.833 103.956 104.185 104.115C102.606 104.267 101.008 105.161 99.8412 107.056C100.757 109.399 100.43 111.484 99.3224 113.066C98.1908 114.682 96.2832 115.718 94.2059 116.001C92.1227 116.284 89.833 115.815 87.9149 114.376C87.0921 113.758 86.3449 112.968 85.7138 111.992ZM68.9831 82.7667L69.2343 78.5816L68.2361 78.5217L67.9849 82.7068L68.9831 82.7667ZM56.5136 85.09C56.605 85.5337 56.8829 85.9982 57.514 86.3625L61.7821 88.8267C62.3849 87.6333 63.0051 86.5627 63.7862 85.365L59.514 82.8984C58.883 82.5341 58.3417 82.5256 57.9118 82.6684C57.4585 82.8189 57.0504 83.1655 56.782 83.6305C56.5135 84.0955 56.4173 84.6222 56.5136 85.09Z" fill="black"/>
<path fill-rule="evenodd" clip-rule="evenodd" d="M59.1772 158.885C59.3202 158.352 59.8685 158.035 60.402 158.178L129.949 176.813C130.482 176.956 130.799 177.504 130.656 178.038C130.513 178.571 129.964 178.888 129.431 178.745L59.8843 160.11C59.3509 159.967 59.0343 159.419 59.1772 158.885Z" fill="black"/>
</svg>
