<svg width="116" height="115" viewBox="0 0 116 115" fill="none" xmlns="http://www.w3.org/2000/svg">
<path fill-rule="evenodd" clip-rule="evenodd" d="M36.8381 2.12619C39.6515 1.89537 42.577 1.96822 45.583 2.37755C41.9425 2.46775 38.3508 3.09182 34.8977 4.20735L36.8381 2.12619ZM35.327 2.28052C32.24 2.65838 29.2993 3.40555 26.549 4.47671L32.018 5.26467C32.2965 5.14987 32.576 5.03834 32.8567 4.93011L35.327 2.28052ZM30.2899 6.02602L25.0422 5.26994L23.8121 9.83879C25.8696 8.35812 28.0383 7.08274 30.2899 6.02602ZM22.5147 10.8113C22.2285 11.0345 21.9447 11.2619 21.6633 11.4934L16.5832 10.4538C18.7817 8.55767 21.2392 6.93443 23.9091 5.632L22.5147 10.8113ZM15.6552 11.2846L20.6938 12.3157C18.6212 14.1275 16.6932 16.1669 14.9445 18.4177L15.3557 11.5664C15.4549 11.4719 15.5548 11.378 15.6552 11.2846ZM14.2902 12.6279C12.6685 14.3177 11.2274 16.1749 9.99166 18.1739L11.7106 19.1664L12.8198 19.8067L11.9295 20.7275C10.6106 22.0915 9.69389 23.6793 9.17205 25.5036L8.8198 26.7349L7.71061 26.0946L5.99166 25.1021C4.90139 27.129 4.02743 29.2583 3.37883 31.4581L9.09343 28.2857C9.77819 26.7117 10.561 25.1572 11.4424 23.6304C12.1947 22.3275 13.0004 21.0767 13.8549 19.8802L14.2902 12.6279ZM2.98713 32.9054C2.99535 32.8721 3.00362 32.8388 3.01194 32.8055L8.4786 29.7707C7.55895 32.1096 6.85215 34.4853 6.35604 36.8714L2.98713 32.9054ZM2.71038 34.1242C2.08387 37.1427 1.86912 40.2649 2.08802 43.4139L6.01079 38.7402C6.04363 38.5371 6.07799 38.334 6.11387 38.1309L2.71038 34.1242ZM2.24596 45.0951C2.23506 45.003 2.22452 44.9109 2.21436 44.8188L5.75208 40.6039C5.44739 43.2303 5.3958 45.8525 5.59447 48.4356L2.24596 45.0951ZM2.48064 46.7418C2.95099 49.5631 3.77353 52.3841 4.96386 55.1499L5.99503 51.7782C5.89854 51.188 5.81546 50.5948 5.74585 49.9992L2.48064 46.7418ZM5.58876 56.5259C6.78387 59.0249 8.28576 61.4706 10.1062 63.8216C8.40136 60.6918 7.16281 57.3469 6.39809 53.8796L5.58876 56.5259ZM23.8576 78.1273C24.141 78.3 24.4276 78.4701 24.7174 78.6375C43.5011 89.4822 65.515 82.784 77.3861 65.1954L109.879 85.0815L109.888 85.087L109.897 85.0923L110.401 84.2286C109.897 85.0923 109.898 85.0926 109.898 85.0928L109.899 85.0934L109.901 85.0945L109.906 85.0973L109.919 85.1045C109.929 85.11 109.941 85.1169 109.956 85.125L109.985 85.1404L110.007 85.1521L110.034 85.1656L110.075 85.1865C110.174 85.2351 110.311 85.2979 110.479 85.3623C110.811 85.4892 111.287 85.6317 111.837 85.6706C112.391 85.7098 113.044 85.6451 113.694 85.3313C114.352 85.0139 114.941 84.4733 115.405 83.6691C115.869 82.8648 116.043 82.0844 115.991 81.3555C115.94 80.6353 115.673 80.0356 115.365 79.5726C115.059 79.1127 114.701 78.7686 114.427 78.5423C114.288 78.4276 114.166 78.339 114.075 78.2771C114.029 78.2461 113.991 78.2215 113.963 78.2034L113.951 78.1964L113.926 78.1812L113.914 78.1737L113.909 78.1708L113.907 78.1696L113.906 78.1691C113.906 78.1689 113.906 78.1687 113.749 78.4364L113.424 78.9927L113.905 78.1686L113.892 78.161L113.879 78.1538L80.4106 59.9569C89.7072 40.8819 84.5011 18.4681 65.7174 7.62338C65.4276 7.45606 65.137 7.2929 64.8457 7.13388L64.8517 7.12338C41.3744 -6.43129 18.3926 0.711847 8.2588 17.1734L6.51446 16.1664C5.41345 15.5307 4.28071 15.4387 3.28211 15.7702C2.30687 16.094 1.53195 16.7964 1.05041 17.6305C0.568863 18.4645 0.348001 19.4868 0.555205 20.4933C0.767375 21.5239 1.41343 22.4589 2.51446 23.0946L4.2588 24.1016C-4.93034 41.1085 0.374468 64.5828 23.8517 78.1374L23.8576 78.1273ZM64.7174 9.35543C46.1213 -1.38102 23.9783 5.91758 13.1745 24.6304C2.37062 43.3433 7.12135 66.169 25.7174 76.9054C43.748 87.3153 65.0106 80.713 76.2434 63.296C76.5941 62.7523 76.9332 62.197 77.2604 61.6304C77.5875 61.0638 77.8987 60.4925 78.1943 59.917C87.6615 41.4806 82.748 19.7654 64.7174 9.35543ZM108.072 81.6308L110.907 83.3653L110.907 83.3654C110.916 83.3705 110.934 83.38 110.96 83.3927C111.011 83.4181 111.092 83.4552 111.194 83.4945C111.404 83.5748 111.682 83.6546 111.978 83.6756C112.271 83.6963 112.559 83.6586 112.825 83.5301C113.084 83.4053 113.387 83.1639 113.673 82.6691C113.959 82.1743 114.017 81.7881 113.997 81.4978C113.975 81.1988 113.864 80.9266 113.7 80.6803C113.534 80.4307 113.327 80.2278 113.153 80.0844C113.068 80.0143 112.996 79.9623 112.949 79.9299C112.938 79.9224 112.928 79.916 112.92 79.9107L112.901 79.8988L109.987 78.3143C109.889 78.8427 109.688 79.4642 109.303 80.1304C108.919 80.7967 108.481 81.2817 108.072 81.6308ZM107.163 81.0744C107.552 80.7941 108.026 80.3424 108.437 79.6304C108.848 78.9184 109.003 78.2823 109.051 77.8052L79.4946 61.7354C79.3313 62.035 79.1639 62.3333 78.9924 62.6304C78.8209 62.9275 78.6462 63.2217 78.4684 63.5129L107.163 81.0744ZM52.7847 29.0239C52.0108 28.5772 51.21 28.2129 50.392 27.9286C41.9218 24.985 31.613 30.6159 30.3968 41.9747C30.3287 42.6107 30.2995 43.2347 30.3067 43.8452C30.4409 55.1914 43.1595 61.8937 52.7631 54.8879C53.4759 54.3679 54.132 53.818 54.7327 53.2433C62.6616 45.6578 60.9527 33.7398 52.7847 29.0239ZM57.1377 48.4713C60.7562 41.6911 58.5129 33.4858 52.2847 29.89C51.5925 29.4904 50.8757 29.1618 50.1427 28.9025C47.8789 28.5781 46.0048 28.946 44.5204 29.7077C42.515 30.7366 41.1695 32.5101 40.5293 34.3933C39.8857 36.2864 39.973 38.2301 40.7446 39.5999C41.4666 40.8816 42.8299 41.7387 44.9829 41.5439C46.3009 39.3973 48.169 38.3041 50.0896 38.1193C52.0619 37.9295 54.0376 38.703 55.4584 40.1755C56.8844 41.6533 57.7471 43.8282 57.5206 46.4359C57.4637 47.0903 57.3385 47.7699 57.1377 48.4713ZM44.9593 42.5492C42.5146 42.7346 40.7941 41.7251 39.8734 40.0907C38.928 38.4123 38.8725 36.1599 39.5825 34.0714C40.2959 31.9729 41.8005 29.9793 44.0639 28.8179C44.5847 28.5507 45.143 28.3289 45.7379 28.1602C39.0276 28.1849 32.336 33.2563 31.3911 42.0812C31.3323 42.6304 31.3046 43.1699 31.3061 43.6987C31.9946 45.9781 33.162 47.5601 34.5156 48.5759C36.2065 49.8449 38.2273 50.2606 40.0716 50.0098C41.9218 49.7583 43.5586 48.8422 44.5038 47.4925C45.386 46.2328 45.7006 44.5474 44.9593 42.5492ZM31.7143 46.9921C33.8744 55.5453 44.1731 59.9165 52.1737 54.08C52.8237 53.6059 53.4233 53.1063 53.9739 52.5854C55.6088 50.287 56.3658 48.1732 56.5243 46.3493C56.7267 44.0199 55.9573 42.1327 54.7388 40.8699C53.5151 39.6017 51.8339 38.956 50.1854 39.1147C48.6064 39.2666 47.0088 40.1614 45.8417 42.0564C46.7573 44.3988 46.4307 46.4843 45.3229 48.0661C44.1913 49.6819 42.2837 50.7183 40.2064 51.0007C38.1232 51.2839 35.8335 50.8152 33.9154 49.3758C33.0926 48.7583 32.3454 47.9677 31.7143 46.9921ZM2.51412 20.09C2.60546 20.5337 2.88343 20.9982 3.51446 21.3625L7.65313 23.752C8.14178 22.4952 8.80902 21.3395 9.65313 20.2879L5.51446 17.8984C4.88348 17.5341 4.34222 17.5256 3.9123 17.6684C3.45902 17.8189 3.05092 18.1655 2.78244 18.6305C2.51397 19.0955 2.41782 19.6222 2.51412 20.09Z" fill="black"/>
<path fill-rule="evenodd" clip-rule="evenodd" d="M5.17722 93.8853C5.32016 93.3518 5.86849 93.0352 6.40196 93.1782L75.9486 111.813C76.4821 111.956 76.7987 112.504 76.6557 113.038C76.5128 113.571 75.9644 113.888 75.431 113.745L5.88432 95.11C5.35086 94.9671 5.03427 94.4188 5.17722 93.8853Z" fill="black"/>
</svg>
