<svg width="192" height="224" viewBox="0 0 192 224" fill="none" xmlns="http://www.w3.org/2000/svg">
<path fill-rule="evenodd" clip-rule="evenodd" d="M78.8376 67.1262C81.651 66.8954 84.5765 66.9682 87.5825 67.3775C83.942 67.4678 80.3504 68.0918 76.8973 69.2073L76.9305 69.1717L76.1991 68.4898L74.8562 69.9301C74.5756 70.0383 74.296 70.1499 74.0175 70.2647L71.4093 69.8889L71.2667 70.8787L72.2894 71.026C70.0378 72.0827 67.8691 73.3581 65.8116 74.8388L65.9798 74.214L65.0142 73.954L64.5142 75.8113C64.228 76.0345 63.9442 76.2619 63.6629 76.4934L61.5293 76.0568L61.3288 77.0365L62.6933 77.3157C60.5661 79.1752 58.5912 81.2746 56.8061 83.5961L55.9346 83.5438L55.8544 84.8802C54.9999 86.0767 54.1942 87.3275 53.4419 88.6304C52.5605 90.1572 51.7777 91.7117 51.0929 93.2857L48.3791 94.7922L48.8645 95.6665L50.4781 94.7707C49.5585 97.1096 48.8517 99.4853 48.3556 101.871L47.3492 100.687L46.587 101.334L48.1134 103.131C48.0775 103.334 48.0431 103.537 48.0103 103.74L46.2781 105.804L47.0441 106.447L47.7516 105.604C47.4469 108.23 47.3953 110.853 47.594 113.436L46.9828 112.826L46.2765 113.534L47.7454 114.999C47.815 115.595 47.898 116.188 47.9945 116.778L47.6283 117.976L48.2471 118.165C48.9948 121.887 50.284 125.477 52.1057 128.822C50.2853 126.471 48.7834 124.025 47.5883 121.526L48.2594 119.331L47.3031 119.039L46.9634 120.15C45.773 117.384 44.9505 114.563 44.4802 111.742L45.3607 112.62L46.0669 111.912L44.2455 110.095C44.2346 110.003 44.224 109.911 44.2139 109.819L46.1192 107.549L45.3533 106.906L44.0875 108.414C43.8686 105.265 44.0834 102.143 44.7099 99.1242L45.785 100.39L46.5471 99.7425L44.9866 97.9054C44.9949 97.8721 45.0031 97.8388 45.0115 97.8055L47.59 96.374L47.1046 95.4997L45.3783 96.4581C46.0269 94.2583 46.9009 92.129 47.9912 90.1021L49.7101 91.0946L50.6498 91.6371L51.114 90.6563C51.9743 88.8385 52.7836 87.4356 54.0367 85.5952L54.6429 84.7049L53.7101 84.1664L51.9912 83.1739C53.2269 81.1749 54.668 79.3177 56.2897 77.6279L56.2863 77.6847L57.2845 77.7446L57.3552 76.5664C57.4545 76.4719 57.5543 76.378 57.6548 76.2846L60.0379 76.7723L60.2384 75.7926L58.5827 75.4538C60.7812 73.5577 63.2387 71.9344 65.9086 70.632L65.3505 72.7048L66.3161 72.9648L67.0417 70.2699L69.9342 70.6867L70.0768 69.6969L68.5485 69.4767C71.2988 68.4055 74.2395 67.6584 77.3265 67.2805L76.9572 67.6766L77.6886 68.3585L78.8376 67.1262ZM46.2583 89.1016L44.514 88.0946C43.4129 87.4589 42.7669 86.5239 42.5547 85.4933C42.3475 84.4868 42.5684 83.4645 43.0499 82.6305C43.5315 81.7964 44.3064 81.094 45.2816 80.7702C46.2802 80.4387 47.413 80.5307 48.514 81.1664L50.2583 82.1734C60.3921 65.7118 83.3739 58.5687 106.851 72.1234L106.845 72.1339C107.137 72.2929 107.427 72.4561 107.717 72.6234C126.501 83.4681 131.707 105.882 122.41 124.957L155.879 143.154L155.892 143.161L155.905 143.169L155.401 144.032C155.905 143.169 155.905 143.169 155.906 143.169L155.907 143.17L155.909 143.171L155.913 143.174L155.926 143.181C155.936 143.187 155.948 143.194 155.962 143.203C155.991 143.221 156.029 143.246 156.074 143.277C156.165 143.339 156.287 143.428 156.426 143.542C156.7 143.769 157.059 144.113 157.365 144.573C157.673 145.036 157.94 145.635 157.991 146.356C158.043 147.084 157.869 147.865 157.404 148.669C156.94 149.473 156.352 150.014 155.694 150.331C155.044 150.645 154.391 150.71 153.837 150.671C153.286 150.632 152.81 150.489 152.479 150.362C152.311 150.298 152.174 150.235 152.075 150.187C152.05 150.174 152.027 150.163 152.007 150.152L151.984 150.14L151.956 150.125C151.941 150.117 151.928 150.11 151.918 150.105L151.906 150.097L151.901 150.095L151.899 150.093L151.898 150.093C151.897 150.093 151.897 150.092 152.401 149.229L151.897 150.092L151.888 150.087L151.879 150.081L119.386 130.195C107.515 147.784 85.5006 154.482 66.7169 143.637C66.4271 143.47 66.1405 143.3 65.8571 143.127L65.8513 143.137C42.374 129.583 37.0692 106.109 46.2583 89.1016ZM106.717 74.3554C88.1209 63.619 65.9779 70.9176 55.174 89.6304C44.3701 108.343 49.1209 131.169 67.7169 141.905C85.7475 152.315 107.01 145.713 118.243 128.296C118.594 127.752 118.933 127.197 119.26 126.63C119.587 126.064 119.898 125.493 120.194 124.917C129.661 106.481 124.747 84.7654 106.717 74.3554ZM150.072 146.631L152.906 148.365L152.906 148.365C152.916 148.371 152.934 148.38 152.959 148.393C153.011 148.418 153.091 148.455 153.194 148.494C153.404 148.575 153.681 148.655 153.978 148.676C154.27 148.696 154.558 148.659 154.825 148.53C155.083 148.405 155.387 148.164 155.672 147.669C155.958 147.174 156.017 146.788 155.996 146.498C155.975 146.199 155.863 145.927 155.7 145.68C155.534 145.431 155.326 145.228 155.153 145.084C155.068 145.014 154.996 144.962 154.948 144.93C154.927 144.915 154.911 144.905 154.901 144.899L151.987 143.314C151.889 143.843 151.687 144.464 151.303 145.13C150.918 145.797 150.48 146.282 150.072 146.631ZM149.163 146.074C149.552 145.794 150.026 145.342 150.437 144.63C150.848 143.918 151.002 143.282 151.05 142.805L121.494 126.735C121.331 127.035 121.163 127.333 120.992 127.63C120.82 127.928 120.646 128.222 120.468 128.513L149.163 146.074ZM94.7842 94.0239C94.0103 93.5772 93.2095 93.2129 92.3915 92.9286C83.9213 89.985 73.6125 95.6159 72.3963 106.975C72.3282 107.611 72.299 108.235 72.3062 108.845C72.4404 120.191 85.159 126.894 94.7626 119.888C95.4754 119.368 96.1315 118.818 96.7322 118.243C104.661 110.658 102.952 98.7398 94.7842 94.0239ZM99.1372 113.471C102.756 106.691 100.512 98.4858 94.2842 94.89C93.592 94.4904 92.8752 94.1618 92.1422 93.9025C89.8784 93.5781 88.0043 93.946 86.5199 94.7077C84.5145 95.7366 83.169 97.5101 82.5288 99.3933C81.8852 101.286 81.9725 103.23 82.7442 104.6C83.4662 105.882 84.8294 106.739 86.9824 106.544C88.3005 104.397 90.1685 103.304 92.0891 103.119C94.0614 102.929 96.0372 103.703 97.458 105.175C98.884 106.653 99.7467 108.828 99.5201 111.436C99.4632 112.09 99.3381 112.77 99.1372 113.471ZM86.9588 107.549C84.5141 107.735 82.7936 106.725 81.8729 105.091C80.9275 103.412 80.872 101.16 81.582 99.0714C82.2954 96.9729 83.8 94.9793 86.0634 93.8179C86.5842 93.5507 87.1426 93.3289 87.7375 93.1602C81.0271 93.1849 74.3355 98.2563 73.3906 107.081C73.3318 107.63 73.3041 108.17 73.3056 108.699C73.9942 110.978 75.1615 112.56 76.5151 113.576C78.206 114.845 80.2268 115.261 82.0711 115.01C83.9213 114.758 85.5581 113.842 86.5033 112.492C87.3855 111.233 87.7001 109.547 86.9588 107.549ZM73.7138 111.992C75.874 120.545 86.1726 124.916 94.1732 119.08C94.8232 118.606 95.4228 118.106 95.9735 117.585C97.6083 115.287 98.3653 113.173 98.5238 111.349C98.7262 109.02 97.9569 107.133 96.7383 105.87C95.5146 104.602 93.8334 103.956 92.1849 104.115C90.6059 104.267 89.0084 105.161 87.8412 107.056C88.7568 109.399 88.4302 111.484 87.3224 113.066C86.1909 114.682 84.2832 115.718 82.2059 116.001C80.1227 116.284 77.833 115.815 75.9149 114.376C75.0921 113.758 74.3449 112.968 73.7138 111.992ZM56.9831 82.7667L57.2343 78.5816L56.2361 78.5217L55.9849 82.7068L56.9831 82.7667ZM44.5136 85.09C44.605 85.5337 44.8829 85.9982 45.514 86.3625L49.7821 88.8267C50.3849 87.6333 51.0051 86.5627 51.7862 85.365L47.514 82.8984C46.883 82.5341 46.3417 82.5256 45.9118 82.6684C45.4585 82.8189 45.0504 83.1655 44.782 83.6305C44.5135 84.0955 44.4173 84.6222 44.5136 85.09Z" fill="black"/>
<path fill-rule="evenodd" clip-rule="evenodd" d="M47.1772 158.885C47.3202 158.352 47.8685 158.035 48.402 158.178L117.949 176.813C118.482 176.956 118.799 177.504 118.656 178.038C118.513 178.571 117.964 178.888 117.431 178.745L47.8843 160.11C47.3509 159.967 47.0343 159.419 47.1772 158.885Z" fill="black"/>
</svg>
