<svg width="116" height="134" viewBox="0 0 116 134" fill="none" xmlns="http://www.w3.org/2000/svg">
<g clip-path="url(#clip0)">
<path fill-rule="evenodd" clip-rule="evenodd" d="M36.8381 22.1262C39.6515 21.8954 42.577 21.9682 45.583 22.3775C41.9425 22.4678 38.3508 23.0918 34.8977 24.2073L36.8381 22.1262ZM35.327 22.2805C32.24 22.6584 29.2993 23.4055 26.549 24.4767L32.018 25.2647C32.2965 25.1499 32.576 25.0383 32.8567 24.9301L35.327 22.2805ZM30.2899 26.026L25.0422 25.2699L23.8121 29.8388C25.8696 28.3581 28.0383 27.0827 30.2899 26.026ZM22.5147 30.8113C22.2285 31.0345 21.9447 31.2619 21.6633 31.4934L16.5832 30.4538C18.7817 28.5577 21.2392 26.9344 23.9091 25.632L22.5147 30.8113ZM15.6552 31.2846L20.6938 32.3157C18.6212 34.1275 16.6932 36.1669 14.9445 38.4177L15.3557 31.5664C15.4549 31.4719 15.5548 31.378 15.6552 31.2846ZM14.2902 32.6279C12.6685 34.3177 11.2274 36.1749 9.99166 38.1739L11.7106 39.1664L12.8198 39.8067L11.9295 40.7275C10.6106 42.0915 9.69389 43.6793 9.17205 45.5036L8.8198 46.7349L7.71061 46.0946L5.99166 45.1021C4.90139 47.129 4.02743 49.2583 3.37883 51.4581L9.09343 48.2857C9.77819 46.7117 10.561 45.1572 11.4424 43.6304C12.1947 42.3275 13.0004 41.0767 13.8549 39.8802L14.2902 32.6279ZM2.98713 52.9054C2.99535 52.8721 3.00362 52.8388 3.01194 52.8055L8.4786 49.7707C7.55895 52.1096 6.85215 54.4853 6.35604 56.8714L2.98713 52.9054ZM2.71038 54.1242C2.08387 57.1427 1.86912 60.2649 2.08802 63.4139L6.01079 58.7402C6.04363 58.5371 6.07799 58.334 6.11387 58.1309L2.71038 54.1242ZM2.24596 65.0951C2.23506 65.003 2.22452 64.9109 2.21436 64.8188L5.75208 60.6039C5.44739 63.2303 5.3958 65.8525 5.59447 68.4356L2.24596 65.0951ZM2.48064 66.7418C2.95099 69.5631 3.77353 72.3841 4.96386 75.1499L5.99503 71.7782C5.89854 71.188 5.81546 70.5948 5.74585 69.9992L2.48064 66.7418ZM5.58876 76.5259C6.78387 79.0249 8.28576 81.4706 10.1062 83.8216C8.40136 80.6918 7.16281 77.3469 6.39809 73.8796L5.58876 76.5259ZM23.8576 98.1273C24.141 98.3 24.4276 98.4701 24.7174 98.6375C43.5011 109.482 65.515 102.784 77.3861 85.1954L109.879 105.081L109.888 105.087L109.897 105.092L110.401 104.229C109.897 105.092 109.898 105.093 109.898 105.093L109.899 105.093L109.901 105.095L109.906 105.097L109.919 105.105C109.929 105.11 109.941 105.117 109.956 105.125L109.985 105.14L110.007 105.152L110.034 105.166L110.075 105.187C110.174 105.235 110.311 105.298 110.479 105.362C110.811 105.489 111.287 105.632 111.837 105.671C112.391 105.71 113.044 105.645 113.694 105.331C114.352 105.014 114.941 104.473 115.405 103.669C115.869 102.865 116.043 102.084 115.991 101.356C115.94 100.635 115.673 100.036 115.365 99.5726C115.059 99.1127 114.701 98.7686 114.427 98.5423C114.288 98.4276 114.166 98.339 114.075 98.2771C114.029 98.2461 113.991 98.2215 113.963 98.2034L113.951 98.1964L113.926 98.1812L113.914 98.1737L113.909 98.1708L113.907 98.1696L113.906 98.1691C113.906 98.1689 113.906 98.1687 113.749 98.4364L113.424 98.9927L113.905 98.1686L113.892 98.161L113.879 98.1538L80.4106 79.9569C89.7072 60.8819 84.5011 38.4681 65.7174 27.6234C65.4276 27.4561 65.137 27.2929 64.8457 27.1339L64.8517 27.1234C41.3744 13.5687 18.3926 20.7118 8.2588 37.1734L6.51446 36.1664C5.41346 35.5307 4.28071 35.4387 3.28211 35.7702C2.30687 36.094 1.53195 36.7964 1.05041 37.6305C0.568863 38.4645 0.348001 39.4868 0.555205 40.4933C0.767375 41.5239 1.41343 42.4589 2.51446 43.0946L4.2588 44.1016C-4.93034 61.1085 0.374468 84.5828 23.8517 98.1374L23.8576 98.1273ZM64.7174 29.3554C46.1213 18.619 23.9783 25.9176 13.1745 44.6304C2.37062 63.3433 7.12135 86.169 25.7174 96.9054C43.748 107.315 65.0107 100.713 76.2434 83.296C76.5941 82.7523 76.9332 82.197 77.2604 81.6304C77.5875 81.0638 77.8987 80.4925 78.1943 79.917C87.6615 61.4806 82.748 39.7654 64.7174 29.3554ZM108.072 101.631L110.907 103.365L110.907 103.365C110.916 103.371 110.934 103.38 110.96 103.393C111.011 103.418 111.092 103.455 111.194 103.494C111.404 103.575 111.682 103.655 111.978 103.676C112.271 103.696 112.559 103.659 112.825 103.53C113.084 103.405 113.387 103.164 113.673 102.669C113.959 102.174 114.017 101.788 113.997 101.498C113.975 101.199 113.864 100.927 113.7 100.68C113.534 100.431 113.327 100.228 113.153 100.084C113.068 100.014 112.996 99.9623 112.949 99.9299C112.938 99.9224 112.928 99.916 112.92 99.9107L112.901 99.8988L109.987 98.3143C109.889 98.8427 109.688 99.4642 109.303 100.13C108.919 100.797 108.481 101.282 108.072 101.631ZM107.163 101.074C107.552 100.794 108.026 100.342 108.437 99.6304C108.848 98.9184 109.003 98.2823 109.051 97.8052L79.4946 81.7354C79.3313 82.035 79.1639 82.3333 78.9924 82.6304C78.8209 82.9275 78.6462 83.2217 78.4684 83.5129L107.163 101.074ZM52.7847 49.0239C52.0108 48.5772 51.21 48.2129 50.392 47.9286C41.9218 44.985 31.613 50.6159 30.3968 61.9747C30.3287 62.6107 30.2995 63.2347 30.3067 63.8452C30.4409 75.1914 43.1595 81.8937 52.7631 74.8879C53.4759 74.3679 54.132 73.818 54.7327 73.2433C62.6616 65.6578 60.9527 53.7398 52.7847 49.0239ZM57.1377 68.4713C60.7562 61.6911 58.5129 53.4858 52.2847 49.89C51.5925 49.4904 50.8757 49.1618 50.1427 48.9025C47.8789 48.5781 46.0048 48.946 44.5204 49.7077C42.515 50.7366 41.1695 52.5101 40.5293 54.3933C39.8857 56.2864 39.973 58.2301 40.7446 59.5999C41.4666 60.8816 42.8299 61.7387 44.9829 61.5439C46.3009 59.3973 48.169 58.3041 50.0896 58.1193C52.0619 57.9295 54.0376 58.703 55.4584 60.1755C56.8844 61.6533 57.7471 63.8282 57.5206 66.4359C57.4637 67.0903 57.3385 67.7699 57.1377 68.4713ZM44.9593 62.5492C42.5146 62.7346 40.7941 61.7251 39.8734 60.0907C38.928 58.4123 38.8725 56.1599 39.5825 54.0714C40.2959 51.9729 41.8005 49.9793 44.0639 48.8179C44.5847 48.5507 45.143 48.3289 45.7379 48.1602C39.0276 48.1849 32.336 53.2563 31.3911 62.0812C31.3323 62.6304 31.3046 63.1699 31.3061 63.6987C31.9946 65.9781 33.162 67.5601 34.5156 68.5759C36.2065 69.8449 38.2273 70.2606 40.0716 70.0098C41.9218 69.7583 43.5586 68.8422 44.5038 67.4925C45.386 66.2328 45.7006 64.5474 44.9593 62.5492ZM31.7143 66.9921C33.8744 75.5453 44.1731 79.9165 52.1737 74.08C52.8237 73.6059 53.4233 73.1063 53.9739 72.5854C55.6088 70.287 56.3658 68.1732 56.5243 66.3493C56.7267 64.0199 55.9573 62.1327 54.7388 60.8699C53.5151 59.6017 51.8339 58.956 50.1854 59.1147C48.6064 59.2666 47.0088 60.1614 45.8417 62.0564C46.7573 64.3988 46.4307 66.4843 45.3229 68.0661C44.1913 69.6819 42.2837 70.7183 40.2064 71.0007C38.1232 71.2839 35.8335 70.8152 33.9154 69.3758C33.0926 68.7583 32.3454 67.9677 31.7143 66.9921ZM2.51412 40.09C2.60546 40.5337 2.88343 40.9982 3.51446 41.3625L7.65313 43.752C8.14178 42.4952 8.80902 41.3395 9.65313 40.2879L5.51446 37.8984C4.88348 37.5341 4.34222 37.5256 3.9123 37.6684C3.45902 37.8189 3.05092 38.1655 2.78244 38.6305C2.51397 39.0955 2.41782 39.6222 2.51412 40.09Z" fill="black"/>
<path fill-rule="evenodd" clip-rule="evenodd" d="M5.17722 113.885C5.32016 113.352 5.86849 113.035 6.40196 113.178L75.9486 131.813C76.4821 131.956 76.7987 132.504 76.6557 133.038C76.5128 133.571 75.9644 133.888 75.431 133.745L5.88432 115.11C5.35086 114.967 5.03427 114.419 5.17722 113.885Z" fill="black"/>
</g>
<defs>
<clipPath id="clip0">
<rect width="116" height="134" fill="white"/>
</clipPath>
</defs>
</svg>
