<svg width="88" height="200" viewBox="0 0 88 200" fill="none" xmlns="http://www.w3.org/2000/svg">
<g clip-path="url(#clip0)">
<path fill-rule="evenodd" clip-rule="evenodd" d="M42 12C42 11.4477 42.4477 11 43 11H45C45.5523 11 46 11.4477 46 12V16H49C49.5523 16 50 16.4477 50 17C50 17.5523 49.5523 18 49 18H47.0689L47.9356 31H51C51.5523 31 52 31.4477 52 32C52 32.5523 51.5523 33 51 33H48.105L48.995 41.9005C48.9978 41.928 48.9994 41.9556 48.9999 41.9833L50.9866 161.155C57.9811 162.559 60.5078 168.374 62.0803 173.454C62.3617 174.364 62.6103 175.237 62.8461 176.066C63.32 177.731 63.7423 179.216 64.2766 180.445C65.0693 182.27 65.8857 183 67 183C67.4561 183 67.8544 183.309 67.9683 183.75C68.0822 184.192 67.8829 184.655 67.4838 184.875L67 184C67.4838 184.875 67.4842 184.875 67.4838 184.875L67.4819 184.876L67.4721 184.882L67.4498 184.894C67.4313 184.903 67.4057 184.917 67.373 184.934C67.3074 184.968 67.2131 185.015 67.0898 185.074C66.8431 185.192 66.4802 185.356 65.9987 185.552C65.0357 185.942 63.5984 186.456 61.667 186.967C57.8032 187.989 51.9672 189 44 189C36.0328 189 30.1968 187.989 26.3331 186.967C24.4016 186.456 22.9643 185.942 22.0013 185.552C21.5198 185.356 21.157 185.192 20.9103 185.074C20.7869 185.015 20.6926 184.968 20.6271 184.934C20.5943 184.917 20.5687 184.903 20.5502 184.894L20.5279 184.882L20.5182 184.876L20.5171 184.876C20.5167 184.875 20.5163 184.875 21 184L20.5171 184.876C20.118 184.655 19.9178 184.192 20.0317 183.75C20.1456 183.309 20.5439 183 21 183C22.1144 183 22.9307 182.27 23.7234 180.445C24.2577 179.216 24.6801 177.731 25.1539 176.066C25.3897 175.237 25.6383 174.364 25.9197 173.454C27.4923 168.374 30.0189 162.559 37.0134 161.155L39.0001 41.9833C39.0006 41.9556 39.0022 41.928 39.005 41.9005L39.895 33H37C36.4477 33 36 32.5523 36 32C36 31.4477 36.4477 31 37 31H40.0645L40.9311 18H39C38.4477 18 38 17.5523 38 17C38 16.4477 38.4477 16 39 16H42V12ZM42.9356 18L42.0689 31H45.9311L45.0645 18H42.9356ZM46.095 33H41.905L41.105 41H46.895L46.095 33ZM47.0166 43H40.9834L39.1404 153.265C39.4153 153.342 39.7622 153.434 40.162 153.525C41.214 153.766 42.6021 154 44 154C45.3979 154 46.786 153.766 47.838 153.525C48.2379 153.434 48.5847 153.342 48.8596 153.265L47.0166 43ZM48.8931 155.327C48.7058 155.375 48.502 155.425 48.284 155.475C47.15 155.734 45.6021 156 44 156C42.3979 156 40.85 155.734 39.716 155.475C39.498 155.425 39.2942 155.375 39.1069 155.327L38.9999 162.016C38.992 162.508 38.6281 162.92 38.1414 162.99C31.7811 163.899 29.446 168.826 27.8303 174.046C27.5861 174.835 27.3557 175.643 27.128 176.442C26.6302 178.189 26.1453 179.89 25.5578 181.242C25.0881 182.324 24.4866 183.34 23.6516 184.043C24.4749 184.342 25.5368 184.687 26.8446 185.033C30.5401 186.011 36.2041 187 44 187C51.7959 187 57.4599 186.011 61.1554 185.033C62.4632 184.687 63.5252 184.342 64.3484 184.043C63.5135 183.34 62.912 182.324 62.4422 181.242C61.8548 179.89 61.3699 178.189 60.872 176.442C60.6443 175.643 60.4139 174.835 60.1697 174.046C58.554 168.826 56.2189 163.899 49.8586 162.99C49.3719 162.92 49.008 162.508 49.0001 162.016L48.8931 155.327Z" fill="black"/>
<circle cx="44" cy="140" r="2" fill="black"/>
<circle cx="44" cy="126" r="2" fill="black"/>
<circle cx="44" cy="112" r="2" fill="black"/>
<circle cx="44" cy="98" r="2" fill="black"/>
<circle cx="44" cy="84" r="2" fill="black"/>
<circle cx="44" cy="70" r="2" fill="black"/>
<circle cx="44" cy="56" r="2" fill="black"/>
<path d="M37.5001 32C32.2456 32 27.3333 34.2247 23.138 38.1701M23.138 38.1701C23.138 38.1701 22.7167 35.3729 21.5 35.5C20.2717 35.6283 20.2758 38.1701 20.2758 38.1701C20.2758 38.1701 18.7057 38.6513 18.5 39.5C18.2697 40.4502 20.2758 41.2649 20.2758 41.2649M23.138 38.1701C23.138 38.1701 25.4194 38.4445 25.5 39.5C25.5941 40.7314 23.138 41 23.138 41C23.138 41 22.7207 43.6869 21.5 43.5C20.5163 43.3494 20.2758 41.2649 20.2758 41.2649M20.2758 41.2649C8.96853 55.2279 4.67215 83.1177 17 112M17 112C17 112 18.4954 109.964 19.5 110.5C20.5337 111.051 19.5 113.5 19.5 113.5C19.5 113.5 21.82 114.443 21.5 115.5C21.1538 116.644 18.44 115.534 18.44 115.534M17 112C17 112 14.4207 110.471 13.5 111.5C12.3952 112.735 16 114.5 16 114.5C16 114.5 15.377 117.166 16.5 117.5C17.5339 117.808 18.44 115.534 18.44 115.534M18.44 115.534C33.7471 154.952 22.5 184.5 16.5 188.5" stroke="black" stroke-linecap="round"/>
<path fill-rule="evenodd" clip-rule="evenodd" d="M15.1194 188.004L13.0737 189.582L12.7643 189.227C11.6657 187.968 9.52564 187.799 7.68466 188.639C6.49231 189.183 5.20414 189.483 4.22536 189.649C3.73363 189.732 3.31464 189.781 3.0175 189.81C2.95641 189.816 2.90043 189.822 2.84997 189.826C2.84048 189.851 2.83061 189.878 2.82047 189.907C2.74114 190.133 2.64602 190.472 2.59206 190.906C2.48463 191.77 2.5386 193.02 3.22291 194.521C3.90721 196.021 4.81606 196.882 5.53848 197.367C5.90131 197.61 6.21967 197.761 6.44259 197.849C6.47106 197.861 6.49796 197.871 6.52318 197.88C6.55955 197.845 6.60011 197.806 6.64468 197.764C6.86146 197.559 7.17376 197.275 7.55885 196.958C8.32538 196.327 9.39686 195.552 10.5892 195.008C12.4302 194.168 13.706 192.442 13.4756 190.787L13.4107 190.321L15.9436 189.811C15.9454 189.81 15.9472 189.808 15.9491 189.807C15.9846 189.778 16.0302 189.733 16.0665 189.666C16.1253 189.558 16.2214 189.283 15.9608 188.712C15.7002 188.14 15.4292 188.032 15.3092 188.006C15.2352 187.99 15.1709 187.994 15.1263 188.002C15.1239 188.003 15.1216 188.003 15.1194 188.004ZM16.1283 190.284C16.3358 190.739 16.3361 190.739 16.3364 190.738L16.3386 190.737L16.3418 190.736L16.3493 190.732C16.3547 190.73 16.3611 190.726 16.3683 190.723C16.3827 190.715 16.4004 190.706 16.4209 190.693C16.4618 190.669 16.5143 190.635 16.5723 190.589C16.6881 190.496 16.831 190.353 16.9443 190.145C17.1849 189.704 17.2325 189.09 16.8707 188.297C16.5088 187.503 16.0138 187.136 15.5232 187.029C15.292 186.978 15.0899 186.992 14.9444 187.019C14.8714 187.033 14.811 187.05 14.766 187.065C14.7434 187.072 14.7244 187.079 14.7094 187.085C14.7018 187.088 14.6953 187.091 14.6897 187.093L14.6821 187.097L14.6789 187.098L14.6774 187.099C14.6771 187.099 14.676 187.099 14.8835 187.554L14.676 187.099L14.6237 187.123L13.1857 188.232C11.6442 186.846 9.18955 186.854 7.26973 187.729C6.18745 188.223 4.99353 188.505 4.05887 188.663C3.59388 188.741 3.19832 188.788 2.92008 188.815C2.78106 188.829 2.67162 188.837 2.59776 188.843C2.56084 188.845 2.53284 188.847 2.51451 188.848L2.49438 188.849L2.48993 188.849L2.20865 188.863L2.07407 189.109L2.513 189.349C2.07407 189.109 2.07422 189.109 2.07407 189.109L2.0735 189.111L2.07281 189.112L2.07112 189.115L2.06649 189.124C2.06287 189.131 2.05819 189.14 2.05258 189.151C2.04137 189.173 2.02641 189.204 2.00869 189.244C1.97325 189.322 1.92667 189.434 1.87676 189.576C1.77699 189.861 1.66355 190.27 1.59972 190.783C1.47157 191.813 1.54508 193.252 2.31306 194.936C3.08103 196.62 4.11937 197.619 4.98107 198.197C5.4103 198.485 5.79323 198.668 6.07359 198.779C6.21382 198.835 6.32866 198.873 6.41115 198.897C6.45242 198.91 6.48563 198.919 6.50994 198.925C6.5221 198.928 6.53204 198.93 6.53964 198.932L6.54929 198.935L6.55279 198.935L6.5542 198.936C6.55448 198.936 6.55538 198.936 6.66236 198.447L6.55538 198.936L6.82987 198.996L7.0238 198.793L7.02745 198.789L7.0415 198.775C7.05433 198.762 7.07401 198.742 7.10019 198.715C7.15255 198.663 7.23085 198.586 7.33227 198.49C7.53527 198.298 7.83006 198.03 8.19421 197.73C8.92619 197.128 9.92187 196.411 11.0041 195.918C12.924 195.042 14.5392 193.194 14.503 191.121L16.2834 190.763L16.3364 190.738L16.1283 190.284Z" fill="black"/>
</g>
<defs>
<clipPath id="clip0">
<rect width="88" height="200" fill="white"/>
</clipPath>
</defs>
</svg>
