<svg width="224" height="224" viewBox="0 0 224 224" fill="none" xmlns="http://www.w3.org/2000/svg">
<path fill-rule="evenodd" clip-rule="evenodd" d="M110 24C110 23.4477 110.448 23 111 23H113C113.552 23 114 23.4477 114 24V28H117C117.552 28 118 28.4477 118 29C118 29.5523 117.552 30 117 30H115.069L115.936 43H119C119.552 43 120 43.4477 120 44C120 44.5523 119.552 45 119 45H116.105L116.995 53.9005C116.998 53.928 116.999 53.9556 117 53.9833L118.987 173.155C125.981 174.559 128.508 180.374 130.08 185.454C130.362 186.364 130.61 187.237 130.846 188.066C131.32 189.731 131.742 191.216 132.277 192.445C133.069 194.27 133.886 195 135 195C135.456 195 135.854 195.309 135.968 195.75C136.082 196.192 135.883 196.655 135.484 196.875L135 196C135.484 196.875 135.484 196.875 135.484 196.875L135.482 196.876L135.472 196.882L135.45 196.894C135.431 196.903 135.406 196.917 135.373 196.934C135.307 196.968 135.213 197.015 135.09 197.074C134.843 197.192 134.48 197.356 133.999 197.552C133.036 197.942 131.598 198.456 129.667 198.967C125.803 199.989 119.967 201 112 201C104.033 201 98.1968 199.989 94.3331 198.967C92.4016 198.456 90.9643 197.942 90.0013 197.552C89.5198 197.356 89.157 197.192 88.9103 197.074C88.7869 197.015 88.6926 196.968 88.6271 196.934C88.5943 196.917 88.5687 196.903 88.5502 196.894L88.5279 196.882L88.5182 196.876L88.5171 196.876C88.5167 196.875 88.5163 196.875 89 196L88.5171 196.876C88.118 196.655 87.9178 196.192 88.0317 195.75C88.1456 195.309 88.5439 195 89 195C90.1144 195 90.9307 194.27 91.7234 192.445C92.2577 191.216 92.6801 189.731 93.1539 188.066C93.3897 187.237 93.6383 186.364 93.9197 185.454C95.4923 180.374 98.0189 174.559 105.013 173.155L107 53.9833C107.001 53.9556 107.002 53.928 107.005 53.9005L107.895 45H105C104.448 45 104 44.5523 104 44C104 43.4477 104.448 43 105 43H108.064L108.931 30H107C106.448 30 106 29.5523 106 29C106 28.4477 106.448 28 107 28H110V24ZM110.936 30L110.069 43H113.931L113.064 30H110.936ZM114.095 45H109.905L109.105 53H114.895L114.095 45ZM115.017 55H108.983L107.14 165.265C107.415 165.342 107.762 165.434 108.162 165.525C109.214 165.766 110.602 166 112 166C113.398 166 114.786 165.766 115.838 165.525C116.238 165.434 116.585 165.342 116.86 165.265L115.017 55ZM116.893 167.327C116.706 167.375 116.502 167.425 116.284 167.475C115.15 167.734 113.602 168 112 168C110.398 168 108.85 167.734 107.716 167.475C107.498 167.425 107.294 167.375 107.107 167.327L107 174.016C106.992 174.508 106.628 174.92 106.141 174.99C99.7811 175.899 97.446 180.826 95.8303 186.046C95.5861 186.835 95.3557 187.643 95.128 188.442C94.6302 190.189 94.1453 191.89 93.5578 193.242C93.0881 194.324 92.4866 195.34 91.6516 196.043C92.4749 196.342 93.5368 196.687 94.8446 197.033C98.5401 198.011 104.204 199 112 199C119.796 199 125.46 198.011 129.155 197.033C130.463 196.687 131.525 196.342 132.348 196.043C131.513 195.34 130.912 194.324 130.442 193.242C129.855 191.89 129.37 190.189 128.872 188.442C128.644 187.643 128.414 186.835 128.17 186.046C126.554 180.826 124.219 175.899 117.859 174.99C117.372 174.92 117.008 174.508 117 174.016L116.893 167.327Z" fill="black"/>
<circle cx="112" cy="152" r="2" fill="black"/>
<circle cx="112" cy="138" r="2" fill="black"/>
<circle cx="112" cy="124" r="2" fill="black"/>
<circle cx="112" cy="110" r="2" fill="black"/>
<circle cx="112" cy="96" r="2" fill="black"/>
<circle cx="112" cy="82" r="2" fill="black"/>
<circle cx="112" cy="68" r="2" fill="black"/>
<path d="M105.5 44C100.246 44 95.3333 46.2247 91.138 50.1701M91.138 50.1701C91.138 50.1701 90.7167 47.3729 89.5 47.5C88.2717 47.6283 88.2758 50.1701 88.2758 50.1701C88.2758 50.1701 86.7057 50.6513 86.5 51.5C86.2697 52.4502 88.2758 53.2649 88.2758 53.2649M91.138 50.1701C91.138 50.1701 93.4194 50.4445 93.5 51.5C93.5941 52.7314 91.138 53 91.138 53C91.138 53 90.7207 55.6869 89.5 55.5C88.5163 55.3494 88.2758 53.2649 88.2758 53.2649M88.2758 53.2649C76.9685 67.2279 72.6722 95.1177 85 124M85 124C85 124 86.4954 121.964 87.5 122.5C88.5337 123.051 87.5 125.5 87.5 125.5C87.5 125.5 89.82 126.443 89.5 127.5C89.1538 128.644 86.44 127.534 86.44 127.534M85 124C85 124 82.4207 122.471 81.5 123.5C80.3952 124.735 84 126.5 84 126.5C84 126.5 83.377 129.166 84.5 129.5C85.5339 129.808 86.44 127.534 86.44 127.534M86.44 127.534C101.747 166.952 90.5 196.5 84.5 200.5" stroke="black" stroke-miterlimit="1.88813" stroke-dasharray="4 1"/>
<path fill-rule="evenodd" clip-rule="evenodd" d="M83.1194 200.004L81.0737 201.582L80.7643 201.227C79.6657 199.968 77.5256 199.799 75.6847 200.639C74.4923 201.183 73.2041 201.483 72.2254 201.649C71.7336 201.732 71.3146 201.781 71.0175 201.81C70.9564 201.816 70.9004 201.822 70.85 201.826C70.8405 201.851 70.8306 201.878 70.8205 201.907C70.7411 202.133 70.646 202.472 70.5921 202.906C70.4846 203.77 70.5386 205.02 71.2229 206.521C71.9072 208.021 72.8161 208.882 73.5385 209.367C73.9013 209.61 74.2197 209.761 74.4426 209.849C74.4711 209.861 74.498 209.871 74.5232 209.88C74.5595 209.845 74.6001 209.806 74.6447 209.764C74.8615 209.559 75.1738 209.275 75.5589 208.958C76.3254 208.327 77.3969 207.552 78.5892 207.008C80.4302 206.168 81.706 204.442 81.4756 202.787L81.4107 202.321L83.9436 201.811C83.9454 201.81 83.9472 201.808 83.9491 201.807C83.9846 201.778 84.0302 201.733 84.0665 201.666C84.1253 201.558 84.2214 201.283 83.9608 200.712C83.7002 200.14 83.4292 200.032 83.3092 200.006C83.2352 199.99 83.1709 199.994 83.1263 200.002C83.1239 200.003 83.1216 200.003 83.1194 200.004ZM84.1283 202.284C84.3358 202.739 84.3361 202.739 84.3364 202.738L84.3386 202.737L84.3418 202.736L84.3493 202.732C84.3547 202.73 84.3611 202.726 84.3683 202.723C84.3827 202.715 84.4004 202.706 84.4209 202.693C84.4618 202.669 84.5143 202.635 84.5723 202.589C84.6881 202.496 84.831 202.353 84.9443 202.145C85.1849 201.704 85.2325 201.09 84.8707 200.297C84.5088 199.503 84.0138 199.136 83.5232 199.029C83.292 198.978 83.0899 198.992 82.9444 199.019C82.8714 199.033 82.811 199.05 82.766 199.065C82.7434 199.072 82.7244 199.079 82.7094 199.085C82.7018 199.088 82.6953 199.091 82.6897 199.093L82.6821 199.097L82.6789 199.098L82.6774 199.099C82.6771 199.099 82.676 199.099 82.8835 199.554L82.676 199.099L82.6237 199.123L81.1857 200.232C79.6442 198.846 77.1896 198.854 75.2697 199.729C74.1875 200.223 72.9935 200.505 72.0589 200.663C71.5939 200.741 71.1983 200.788 70.9201 200.815C70.7811 200.829 70.6716 200.837 70.5978 200.843C70.5608 200.845 70.5328 200.847 70.5145 200.848L70.4944 200.849L70.4899 200.849L70.2086 200.863L70.0741 201.109L70.513 201.349C70.0741 201.109 70.0742 201.109 70.0741 201.109L70.0735 201.111L70.0728 201.112L70.0711 201.115L70.0665 201.124C70.0629 201.131 70.0582 201.14 70.0526 201.151C70.0414 201.173 70.0264 201.204 70.0087 201.244C69.9733 201.322 69.9267 201.434 69.8768 201.576C69.777 201.861 69.6635 202.27 69.5997 202.783C69.4716 203.813 69.5451 205.252 70.3131 206.936C71.081 208.62 72.1194 209.619 72.9811 210.197C73.4103 210.485 73.7932 210.668 74.0736 210.779C74.2138 210.835 74.3287 210.873 74.4112 210.897C74.4524 210.91 74.4856 210.919 74.5099 210.925C74.5221 210.928 74.532 210.93 74.5396 210.932L74.5493 210.935L74.5528 210.935L74.5542 210.936C74.5545 210.936 74.5554 210.936 74.6624 210.447L74.5554 210.936L74.8299 210.996L75.0238 210.793L75.0274 210.789L75.0415 210.775C75.0543 210.762 75.074 210.742 75.1002 210.715C75.1526 210.663 75.2309 210.586 75.3323 210.49C75.5353 210.298 75.8301 210.03 76.1942 209.73C76.9262 209.128 77.9219 208.411 79.0041 207.918C80.924 207.042 82.5392 205.194 82.503 203.121L84.2834 202.763L84.3364 202.738L84.1283 202.284Z" fill="black"/>
</svg>
