<svg width="68" height="190" viewBox="0 0 68 190" fill="none" xmlns="http://www.w3.org/2000/svg">
<path fill-rule="evenodd" clip-rule="evenodd" d="M42 1C42 0.447715 42.4477 0 43 0H45C45.5523 0 46 0.447715 46 1V5H49C49.5523 5 50 5.44772 50 6C50 6.55228 49.5523 7 49 7H47.0689L47.9356 20H51C51.5523 20 52 20.4477 52 21C52 21.5523 51.5523 22 51 22H48.105L48.995 30.9005C48.9978 30.928 48.9994 30.9556 48.9999 30.9833L50.9866 150.155C57.9811 151.559 60.5078 157.374 62.0803 162.454C62.3617 163.364 62.6103 164.237 62.8461 165.066C63.32 166.731 63.7423 168.216 64.2766 169.445C65.0693 171.27 65.8857 172 67 172C67.4561 172 67.8544 172.309 67.9683 172.75C68.0822 173.192 67.8829 173.655 67.4838 173.875L67 173C67.4838 173.875 67.4842 173.875 67.4838 173.875L67.4819 173.876L67.4721 173.882L67.4498 173.894C67.4313 173.903 67.4057 173.917 67.373 173.934C67.3074 173.968 67.2131 174.015 67.0898 174.074C66.8431 174.192 66.4802 174.356 65.9987 174.552C65.0357 174.942 63.5984 175.456 61.667 175.967C57.8032 176.989 51.9672 178 44 178C36.0328 178 30.1968 176.989 26.3331 175.967C24.4016 175.456 22.9643 174.942 22.0013 174.552C21.5198 174.356 21.157 174.192 20.9103 174.074C20.7869 174.015 20.6926 173.968 20.6271 173.934C20.5943 173.917 20.5687 173.903 20.5502 173.894L20.5279 173.882L20.5182 173.876L20.5171 173.876C20.5167 173.875 20.5163 173.875 21 173L20.5171 173.876C20.118 173.655 19.9178 173.192 20.0317 172.75C20.1456 172.309 20.5439 172 21 172C22.1144 172 22.9307 171.27 23.7234 169.445C24.2577 168.216 24.6801 166.731 25.1539 165.066C25.3897 164.237 25.6383 163.364 25.9197 162.454C27.4923 157.374 30.0189 151.559 37.0134 150.155L39.0001 30.9833C39.0006 30.9556 39.0022 30.928 39.005 30.9005L39.895 22H37C36.4477 22 36 21.5523 36 21C36 20.4477 36.4477 20 37 20H40.0645L40.9311 7H39C38.4477 7 38 6.55228 38 6C38 5.44772 38.4477 5 39 5H42V1ZM42.9356 7L42.0689 20H45.9311L45.0645 7H42.9356ZM46.095 22H41.905L41.105 30H46.895L46.095 22ZM47.0166 32H40.9834L39.1404 142.265C39.4153 142.342 39.7622 142.434 40.162 142.525C41.214 142.766 42.6021 143 44 143C45.3979 143 46.786 142.766 47.838 142.525C48.2379 142.434 48.5847 142.342 48.8596 142.265L47.0166 32ZM48.8931 144.327C48.7058 144.375 48.502 144.425 48.284 144.475C47.15 144.734 45.6021 145 44 145C42.3979 145 40.85 144.734 39.716 144.475C39.498 144.425 39.2942 144.375 39.1069 144.327L38.9999 151.016C38.992 151.508 38.6281 151.92 38.1414 151.99C31.7811 152.899 29.446 157.826 27.8303 163.046C27.5861 163.835 27.3557 164.643 27.128 165.442C26.6302 167.189 26.1453 168.89 25.5578 170.242C25.0881 171.324 24.4866 172.34 23.6516 173.043C24.4749 173.342 25.5368 173.687 26.8446 174.033C30.5401 175.011 36.2041 176 44 176C51.7959 176 57.4599 175.011 61.1554 174.033C62.4632 173.687 63.5252 173.342 64.3484 173.043C63.5135 172.34 62.912 171.324 62.4422 170.242C61.8548 168.89 61.3699 167.189 60.872 165.442C60.6443 164.643 60.4139 163.835 60.1697 163.046C58.554 157.826 56.2189 152.899 49.8586 151.99C49.3719 151.92 49.008 151.508 49.0001 151.016L48.8931 144.327Z" fill="black"/>
<circle cx="44" cy="129" r="2" fill="black"/>
<circle cx="44" cy="115" r="2" fill="black"/>
<circle cx="44" cy="101" r="2" fill="black"/>
<circle cx="44" cy="87" r="2" fill="black"/>
<circle cx="44" cy="73" r="2" fill="black"/>
<circle cx="44" cy="59" r="2" fill="black"/>
<circle cx="44" cy="45" r="2" fill="black"/>
<path d="M37.5001 21C32.2456 21 27.3333 23.2247 23.138 27.1701M23.138 27.1701C23.138 27.1701 22.7167 24.3729 21.5 24.5C20.2717 24.6283 20.2758 27.1701 20.2758 27.1701C20.2758 27.1701 18.7057 27.6513 18.5 28.5C18.2697 29.4502 20.2758 30.2649 20.2758 30.2649M23.138 27.1701C23.138 27.1701 25.4194 27.4445 25.5 28.5C25.5941 29.7314 23.138 30 23.138 30C23.138 30 22.7207 32.6869 21.5 32.5C20.5163 32.3494 20.2758 30.2649 20.2758 30.2649M20.2758 30.2649C8.96853 44.2279 4.67215 72.1177 17 101M17 101C17 101 18.4954 98.9642 19.5 99.5C20.5337 100.051 19.5 102.5 19.5 102.5C19.5 102.5 21.82 103.443 21.5 104.5C21.1538 105.644 18.44 104.534 18.44 104.534M17 101C17 101 14.4207 99.4711 13.5 100.5C12.3952 101.735 16 103.5 16 103.5C16 103.5 15.377 106.166 16.5 106.5C17.5339 106.808 18.44 104.534 18.44 104.534M18.44 104.534C33.7471 143.952 22.5 173.5 16.5 177.5" stroke="black" stroke-linecap="round"/>
<path fill-rule="evenodd" clip-rule="evenodd" d="M15.1194 177.004L13.0737 178.582L12.7643 178.227C11.6657 176.968 9.52564 176.799 7.68466 177.639C6.49231 178.183 5.20414 178.483 4.22536 178.649C3.73363 178.732 3.31464 178.781 3.0175 178.81C2.95641 178.816 2.90042 178.822 2.84997 178.826C2.84048 178.851 2.83061 178.878 2.82047 178.907C2.74114 179.133 2.64602 179.472 2.59206 179.906C2.48463 180.77 2.5386 182.02 3.22291 183.521C3.90721 185.021 4.81606 185.882 5.53848 186.367C5.90131 186.61 6.21967 186.761 6.44259 186.849C6.47106 186.861 6.49796 186.871 6.52318 186.88C6.55955 186.845 6.60011 186.806 6.64468 186.764C6.86146 186.559 7.17376 186.275 7.55885 185.958C8.32538 185.327 9.39686 184.552 10.5892 184.008C12.4302 183.168 13.706 181.442 13.4756 179.787L13.4107 179.321L15.9436 178.811C15.9454 178.81 15.9472 178.808 15.9491 178.807C15.9846 178.778 16.0302 178.733 16.0665 178.666C16.1253 178.558 16.2214 178.283 15.9608 177.712C15.7002 177.14 15.4292 177.032 15.3092 177.006C15.2352 176.99 15.1709 176.994 15.1263 177.002C15.1239 177.003 15.1216 177.003 15.1194 177.004ZM16.1283 179.284C16.3358 179.739 16.3361 179.739 16.3364 179.738L16.3386 179.737L16.3418 179.736L16.3493 179.732C16.3547 179.73 16.3611 179.726 16.3683 179.723C16.3827 179.715 16.4004 179.706 16.4209 179.693C16.4618 179.669 16.5143 179.635 16.5723 179.589C16.6881 179.496 16.831 179.353 16.9443 179.145C17.1849 178.704 17.2325 178.09 16.8707 177.297C16.5088 176.503 16.0138 176.136 15.5232 176.029C15.292 175.978 15.0899 175.992 14.9444 176.019C14.8714 176.033 14.811 176.05 14.766 176.065C14.7434 176.072 14.7244 176.079 14.7094 176.085C14.7018 176.088 14.6953 176.091 14.6897 176.093L14.6821 176.097L14.6789 176.098L14.6774 176.099C14.6771 176.099 14.676 176.099 14.8835 176.554L14.676 176.099L14.6237 176.123L13.1857 177.232C11.6442 175.846 9.18955 175.854 7.26973 176.729C6.18745 177.223 4.99353 177.505 4.05887 177.663C3.59388 177.741 3.19832 177.788 2.92008 177.815C2.78106 177.829 2.67162 177.837 2.59776 177.843C2.56084 177.845 2.53284 177.847 2.51451 177.848L2.49438 177.849L2.48993 177.849L2.20865 177.863L2.07407 178.109L2.513 178.349C2.07407 178.109 2.07422 178.109 2.07407 178.109L2.0735 178.111L2.07281 178.112L2.07112 178.115L2.06649 178.124C2.06287 178.131 2.05819 178.14 2.05258 178.151C2.04137 178.173 2.02641 178.204 2.00869 178.244C1.97325 178.322 1.92667 178.434 1.87676 178.576C1.77699 178.861 1.66355 179.27 1.59972 179.783C1.47157 180.813 1.54508 182.252 2.31306 183.936C3.08103 185.62 4.11937 186.619 4.98107 187.197C5.4103 187.485 5.79323 187.668 6.07359 187.779C6.21382 187.835 6.32866 187.873 6.41115 187.897C6.45242 187.91 6.48563 187.919 6.50994 187.925C6.5221 187.928 6.53204 187.93 6.53964 187.932L6.54929 187.935L6.55279 187.935L6.5542 187.936C6.55448 187.936 6.55538 187.936 6.66236 187.447L6.55538 187.936L6.82987 187.996L7.0238 187.793L7.02745 187.789L7.0415 187.775C7.05433 187.762 7.07401 187.742 7.10019 187.715C7.15255 187.663 7.23085 187.586 7.33227 187.49C7.53527 187.298 7.83006 187.03 8.19421 186.73C8.92619 186.128 9.92187 185.411 11.0041 184.918C12.924 184.042 14.5392 182.194 14.503 180.121L16.2834 179.763L16.3364 179.738L16.1283 179.284Z" fill="black"/>
</svg>
