<svg width="171" height="170" viewBox="0 0 171 170" fill="none" xmlns="http://www.w3.org/2000/svg">
<path d="M99.8203 21.2467C112.269 8.24261 133.053 12.0527 145.782 24.7822C158.512 37.5118 162.237 58.2073 149.318 70.7442C139.66 80.1159 124.828 66.6755 115.287 76.1661C105.821 85.5832 118.09 99.614 109.541 109.872C102.339 118.516 84.3011 107.05 76.3966 115.057C68.4486 123.108 80.2367 141.295 71.536 148.526C57.691 160.032 38.3036 157.72 25.5741 144.99C12.8446 132.261 10.6891 113.002 22.0386 99.0285C29.2429 90.1581 47.5457 101.806 55.6261 93.7252C63.7065 85.6447 52.0814 67.3694 60.9294 60.1376C71.2112 51.7338 85.1271 64.2241 94.517 54.8343C103.907 45.4444 90.6374 30.8391 99.8203 21.2467Z" fill="#E6F6D5"/>
</svg>
