<svg width="224" height="224" viewBox="0 0 224 224" fill="none" xmlns="http://www.w3.org/2000/svg">
<path d="M125.82 48.2467C138.269 35.2426 159.053 39.0527 171.782 51.7822C184.512 64.5118 188.237 85.2073 175.318 97.7442C165.66 107.116 150.828 93.6755 141.287 103.166C131.821 112.583 144.09 126.614 135.541 136.872C128.339 145.516 110.301 134.05 102.397 142.057C94.4486 150.108 106.237 168.295 97.536 175.526C83.691 187.032 64.3036 184.72 51.5741 171.99C38.8446 159.261 36.6891 140.002 48.0386 126.028C55.2429 117.158 73.5457 128.806 81.6261 120.725C89.7065 112.645 78.0814 94.3694 86.9294 87.1376C97.2112 78.7338 111.127 91.2241 120.517 81.8343C129.907 72.4444 116.637 57.8391 125.82 48.2467Z" fill="#D4F7E5"/>
</svg>
