<svg width="224" height="224" viewBox="0 0 224 224" fill="none" xmlns="http://www.w3.org/2000/svg">
<path fill-rule="evenodd" clip-rule="evenodd" d="M112 56C65.0558 56 27 94.0558 27 141H27.0002C27.0002 117.528 46.0281 98.5 69.5002 98.5C92.9723 98.5 112 117.528 112 141H112.017C112.006 140.597 112 140.192 112 139.786C112 116.314 131.028 97.2857 154.5 97.2857C176.986 97.2857 195.393 114.748 196.901 136.851C194.737 91.8341 157.553 56 112 56ZM196.997 140.301C196.994 140.534 196.99 140.767 196.983 141H197C197 140.767 196.999 140.534 196.997 140.301Z" fill="#F9DCF9"/>
</svg>
