<svg width="160" height="160" viewBox="0 0 160 160" fill="none" xmlns="http://www.w3.org/2000/svg">
<path fill-rule="evenodd" clip-rule="evenodd" d="M0 8C0 3.58172 3.58172 0 8 0C12.4183 0 16 3.58172 16 8C16 12.4183 12.4183 16 8 16C3.58172 16 0 12.4183 0 8ZM24 22C24 17.5817 27.5817 14 32 14C36.4183 14 40 17.5817 40 22C40 26.4183 36.4183 30 32 30C27.5817 30 24 26.4183 24 22ZM56 24C51.5817 24 48 27.5817 48 32C48 36.4183 51.5817 40 56 40C60.4183 40 64 36.4183 64 32C64 27.5817 60.4183 24 56 24ZM48 8C48 3.58172 51.5817 0 56 0C60.4183 0 64 3.58172 64 8C64 12.4183 60.4183 16 56 16C51.5817 16 48 12.4183 48 8ZM80 34C75.5817 34 72 37.5817 72 42C72 46.4183 75.5817 50 80 50C84.4183 50 88 46.4183 88 42C88 37.5817 84.4183 34 80 34ZM72 18C72 13.5817 75.5817 10 80 10C84.4183 10 88 13.5817 88 18C88 22.4183 84.4183 26 80 26C75.5817 26 72 22.4183 72 18ZM56 48C51.5817 48 48 51.5817 48 56C48 60.4183 51.5817 64 56 64C60.4183 64 64 60.4183 64 56C64 51.5817 60.4183 48 56 48ZM24 46C24 41.5817 27.5817 38 32 38C36.4183 38 40 41.5817 40 46C40 50.4183 36.4183 54 32 54C27.5817 54 24 50.4183 24 46ZM8 24C3.58172 24 0 27.5817 0 32C0 36.4183 3.58172 40 8 40C12.4183 40 16 36.4183 16 32C16 27.5817 12.4183 24 8 24ZM0 56C0 51.5817 3.58172 48 8 48C12.4183 48 16 51.5817 16 56C16 60.4183 12.4183 64 8 64C3.58172 64 0 60.4183 0 56ZM32 62C27.5817 62 24 65.5817 24 70C24 74.4183 27.5817 78 32 78C36.4183 78 40 74.4183 40 70C40 65.5817 36.4183 62 32 62ZM48 80C48 75.5817 51.5817 72 56 72C60.4183 72 64 75.5817 64 80C64 84.4183 60.4183 88 56 88C51.5817 88 48 84.4183 48 80ZM80 58C75.5817 58 72 61.5817 72 66C72 70.4183 75.5817 74 80 74C84.4183 74 88 70.4183 88 66C88 61.5817 84.4183 58 80 58Z" fill="#DAE4F6"/>
</svg>
