<svg width="76" height="76" viewBox="0 0 76 76" fill="none" xmlns="http://www.w3.org/2000/svg">
<path fill-rule="evenodd" clip-rule="evenodd" d="M0 8C0 3.58172 3.58172 0 8 0C12.4183 0 16 3.58172 16 8C16 12.4183 12.4183 16 8 16C3.58172 16 0 12.4183 0 8ZM20 18C20 13.5817 23.5817 10 28 10C32.4183 10 36 13.5817 36 18C36 22.4183 32.4183 26 28 26C23.5817 26 20 22.4183 20 18ZM48 20C43.5817 20 40 23.5817 40 28C40 32.4183 43.5817 36 48 36C52.4183 36 56 32.4183 56 28C56 23.5817 52.4183 20 48 20ZM40 8C40 3.58172 43.5817 0 48 0C52.4183 0 56 3.58172 56 8C56 12.4183 52.4183 16 48 16C43.5817 16 40 12.4183 40 8ZM68 30C63.5817 30 60 33.5817 60 38C60 42.4183 63.5817 46 68 46C72.4183 46 76 42.4183 76 38C76 33.5817 72.4183 30 68 30ZM60 18C60 13.5817 63.5817 10 68 10C72.4183 10 76 13.5817 76 18C76 22.4183 72.4183 26 68 26C63.5817 26 60 22.4183 60 18ZM48 40C43.5817 40 40 43.5817 40 48C40 52.4183 43.5817 56 48 56C52.4183 56 56 52.4183 56 48C56 43.5817 52.4183 40 48 40ZM20 38C20 33.5817 23.5817 30 28 30C32.4183 30 36 33.5817 36 38C36 42.4183 32.4183 46 28 46C23.5817 46 20 42.4183 20 38ZM8 20C3.58172 20 0 23.5817 0 28C0 32.4183 3.58172 36 8 36C12.4183 36 16 32.4183 16 28C16 23.5817 12.4183 20 8 20ZM0 48C0 43.5817 3.58172 40 8 40C12.4183 40 16 43.5817 16 48C16 52.4183 12.4183 56 8 56C3.58172 56 0 52.4183 0 48ZM28 50C23.5817 50 20 53.5817 20 58C20 62.4183 23.5817 66 28 66C32.4183 66 36 62.4183 36 58C36 53.5817 32.4183 50 28 50ZM40 68C40 63.5817 43.5817 60 48 60C52.4183 60 56 63.5817 56 68C56 72.4183 52.4183 76 48 76C43.5817 76 40 72.4183 40 68ZM68 50C63.5817 50 60 53.5817 60 58C60 62.4183 63.5817 66 68 66C72.4183 66 76 62.4183 76 58C76 53.5817 72.4183 50 68 50Z" fill="#DAE4F6"/>
</svg>
