<svg width="224" height="224" viewBox="0 0 224 224" fill="none" xmlns="http://www.w3.org/2000/svg">
<path fill-rule="evenodd" clip-rule="evenodd" d="M32 40C32 35.5817 35.5817 32 40 32C44.4183 32 48 35.5817 48 40C48 44.4183 44.4183 48 40 48C35.5817 48 32 44.4183 32 40ZM52 40C52 35.5817 55.5817 32 60 32C64.4183 32 68 35.5817 68 40C68 44.4183 64.4183 48 60 48C55.5817 48 52 44.4183 52 40ZM80 52C75.5817 52 72 55.5817 72 60C72 64.4183 75.5817 68 80 68C84.4183 68 88 64.4183 88 60C88 55.5817 84.4183 52 80 52ZM72 40C72 35.5817 75.5817 32 80 32C84.4183 32 88 35.5817 88 40C88 44.4183 84.4183 48 80 48C75.5817 48 72 44.4183 72 40ZM100 52C95.5817 52 92 55.5817 92 60C92 64.4183 95.5817 68 100 68C104.418 68 108 64.4183 108 60C108 55.5817 104.418 52 100 52ZM92 40C92 35.5817 95.5817 32 100 32C104.418 32 108 35.5817 108 40C108 44.4183 104.418 48 100 48C95.5817 48 92 44.4183 92 40ZM80 72C75.5817 72 72 75.5817 72 80C72 84.4183 75.5817 88 80 88C84.4183 88 88 84.4183 88 80C88 75.5817 84.4183 72 80 72ZM52 60C52 55.5817 55.5817 52 60 52C64.4183 52 68 55.5817 68 60C68 64.4183 64.4183 68 60 68C55.5817 68 52 64.4183 52 60ZM40 52C35.5817 52 32 55.5817 32 60C32 64.4183 35.5817 68 40 68C44.4183 68 48 64.4183 48 60C48 55.5817 44.4183 52 40 52ZM32 80C32 75.5817 35.5817 72 40 72C44.4183 72 48 75.5817 48 80C48 84.4183 44.4183 88 40 88C35.5817 88 32 84.4183 32 80ZM60 72C55.5817 72 52 75.5817 52 80C52 84.4183 55.5817 88 60 88C64.4183 88 68 84.4183 68 80C68 75.5817 64.4183 72 60 72ZM92 80C92 75.5817 95.5817 72 100 72C104.418 72 108 75.5817 108 80C108 84.4183 104.418 88 100 88C95.5817 88 92 84.4183 92 80ZM120 52C115.582 52 112 55.5817 112 60C112 64.4183 115.582 68 120 68C124.418 68 128 64.4183 128 60C128 55.5817 124.418 52 120 52ZM112 40C112 35.5817 115.582 32 120 32C124.418 32 128 35.5817 128 40C128 44.4183 124.418 48 120 48C115.582 48 112 44.4183 112 40ZM120 72C115.582 72 112 75.5817 112 80C112 84.4183 115.582 88 120 88C124.418 88 128 84.4183 128 80C128 75.5817 124.418 72 120 72Z" fill="#DAE4F6"/>
</svg>
