<svg width="176" height="176" viewBox="0 0 176 176" fill="none" xmlns="http://www.w3.org/2000/svg">
<path fill-rule="evenodd" clip-rule="evenodd" d="M125 40C113.954 40 105 31.0457 105 20C105 8.95431 113.954 0 125 0C136.046 0 145 8.95431 145 20C145 31.0457 136.046 40 125 40ZM156 79C144.954 79 136 70.0457 136 59C136 47.9543 144.954 39 156 39C167.046 39 176 47.9543 176 59C176 70.0457 167.046 79 156 79ZM87 67C87 78.0457 95.9543 87 107 87C118.046 87 127 78.0457 127 67C127 55.9543 118.046 47 107 47C95.9543 47 87 55.9543 87 67Z" fill="#EBDDFE"/>
</svg>
