<svg width="89" height="87" viewBox="0 0 89 87" fill="none" xmlns="http://www.w3.org/2000/svg">
<path fill-rule="evenodd" clip-rule="evenodd" d="M38 40C26.9543 40 18 31.0457 18 20C18 8.95431 26.9543 0 38 0C49.0457 0 58 8.95431 58 20C58 31.0457 49.0457 40 38 40ZM69 79C57.9543 79 49 70.0457 49 59C49 47.9543 57.9543 39 69 39C80.0457 39 89 47.9543 89 59C89 70.0457 80.0457 79 69 79ZM0 67C0 78.0457 8.9543 87 20 87C31.0457 87 40 78.0457 40 67C40 55.9543 31.0457 47 20 47C8.9543 47 0 55.9543 0 67Z" fill="#EBDDFE"/>
</svg>
