<svg width="163" height="78" viewBox="0 0 163 78" fill="none" xmlns="http://www.w3.org/2000/svg">
<path fill-rule="evenodd" clip-rule="evenodd" d="M5.68662 16.9635C5.6871 16.9631 5.68762 16.9626 3.00006 14C0.312489 11.0374 0.313094 11.0369 0.313741 11.0363L0.315248 11.0349L0.319026 11.0315L0.329624 11.0219L0.362854 10.9921C0.390302 10.9675 0.428293 10.9336 0.47641 10.891C0.572623 10.806 0.709467 10.6861 0.883627 10.5365C1.2317 10.2374 1.7303 9.81797 2.35282 9.31824C3.59356 8.32221 5.34821 6.9897 7.40095 5.65016C11.2961 3.10831 17.0614 0 22.6251 0C28.4853 0 32.2668 3.43847 34.8789 5.81371L35.1251 6.0374C38.0173 8.66112 39.6954 10 42.2501 10C44.8047 10 46.4828 8.66112 49.375 6.0374L49.6212 5.81371C52.2333 3.43848 56.0148 0 61.8751 0C67.7353 0 71.5168 3.43847 74.1289 5.81371L74.3751 6.0374C77.2673 8.66112 78.9454 10 81.5001 10C84.0547 10 85.7328 8.66112 88.625 6.0374L88.8712 5.81371C91.4833 3.43847 95.2648 0 101.125 0C106.985 0 110.767 3.43847 113.379 5.81371L113.625 6.0374C116.517 8.66112 118.195 10 120.75 10C123.305 10 124.983 8.66112 127.875 6.0374L128.121 5.81371C130.733 3.43847 134.515 0 140.375 0C145.939 0 151.704 3.10831 155.599 5.65016C157.652 6.9897 159.407 8.32221 160.647 9.31824C161.27 9.81797 161.768 10.2374 162.116 10.5365C162.291 10.6861 162.427 10.806 162.524 10.891C162.572 10.9336 162.61 10.9675 162.637 10.9921L162.67 11.0219L162.681 11.0315L162.685 11.0349L162.686 11.0363C162.687 11.0369 162.688 11.0374 160 14C157.312 16.9626 157.313 16.9631 157.313 16.9635L157.299 16.9506C157.284 16.9373 157.259 16.915 157.225 16.8843C157.155 16.8229 157.047 16.7279 156.903 16.6041C156.614 16.3564 156.185 15.9945 155.639 15.5568C154.544 14.6778 153.005 13.5103 151.227 12.3498C147.46 9.89169 143.413 8 140.375 8C137.82 8 136.142 9.33888 133.25 11.9626L133.004 12.1863C130.392 14.5615 126.61 18 120.75 18C114.89 18 111.108 14.5615 108.496 12.1863L108.25 11.9626C105.358 9.33888 103.68 8 101.125 8C98.5704 8 96.8923 9.33888 94.0001 11.9626L93.7539 12.1863C91.1418 14.5615 87.3603 18 81.5001 18C75.6398 18 71.8583 14.5615 69.2462 12.1863L69 11.9626C66.1078 9.33888 64.4297 8 61.8751 8C59.3204 8 57.6423 9.33888 54.7501 11.9626L54.5039 12.1863C51.8918 14.5615 48.1103 18 42.2501 18C36.3898 18 32.6084 14.5615 29.9962 12.1863L29.75 11.9626C26.8578 9.33888 25.1797 8 22.6251 8C19.5871 8 15.5398 9.89169 11.7729 12.3498C9.99462 13.5103 8.45582 14.6778 7.36089 15.5568C6.81557 15.9945 6.38577 16.3564 6.0974 16.6041C5.95334 16.7279 5.84496 16.8229 5.7755 16.8843C5.74078 16.915 5.71582 16.9373 5.70103 16.9506L5.68662 16.9635ZM5.68662 46.9635C5.6871 46.9631 5.68762 46.9626 3.00006 44C0.312489 41.0374 0.313094 41.0369 0.313741 41.0363L0.315248 41.0349L0.319026 41.0315L0.329624 41.0219L0.362854 40.9921C0.390302 40.9675 0.428293 40.9336 0.47641 40.891C0.572623 40.806 0.709467 40.6861 0.883627 40.5365C1.2317 40.2374 1.7303 39.818 2.35282 39.3182C3.59356 38.3222 5.34821 36.9897 7.40095 35.6502C11.2961 33.1083 17.0614 30 22.6251 30C28.4853 30 32.2668 33.4385 34.8789 35.8137L35.1251 36.0374C38.0173 38.6611 39.6954 40 42.2501 40C44.8047 40 46.4828 38.6611 49.375 36.0374L49.6212 35.8137C52.2333 33.4385 56.0148 30 61.8751 30C67.7353 30 71.5168 33.4385 74.1289 35.8137L74.3751 36.0374C77.2673 38.6611 78.9454 40 81.5001 40C84.0547 40 85.7328 38.6611 88.625 36.0374L88.8712 35.8137C91.4833 33.4385 95.2648 30 101.125 30C106.985 30 110.767 33.4385 113.379 35.8137L113.625 36.0374C116.517 38.6611 118.195 40 120.75 40C123.305 40 124.983 38.6611 127.875 36.0374L128.121 35.8137C130.733 33.4385 134.515 30 140.375 30C145.939 30 151.704 33.1083 155.599 35.6502C157.652 36.9897 159.407 38.3222 160.647 39.3182C161.27 39.818 161.768 40.2374 162.116 40.5365C162.291 40.6861 162.427 40.806 162.524 40.891C162.572 40.9336 162.61 40.9675 162.637 40.9921L162.67 41.0219L162.681 41.0315L162.685 41.0349L162.686 41.0363C162.687 41.0369 162.688 41.0374 160 44C157.312 46.9626 157.313 46.9631 157.313 46.9635L157.299 46.9506L157.265 46.9201L157.225 46.8843C157.155 46.8229 157.047 46.7279 156.903 46.6041C156.614 46.3564 156.185 45.9945 155.639 45.5568C154.544 44.6778 153.005 43.5103 151.227 42.3498C147.46 39.8917 143.413 38 140.375 38C137.82 38 136.142 39.3389 133.25 41.9626L133.004 42.1863C130.392 44.5615 126.61 48 120.75 48C114.89 48 111.108 44.5615 108.496 42.1863L108.25 41.9626C105.358 39.3389 103.68 38 101.125 38C98.5704 38 96.8923 39.3389 94.0001 41.9626L93.7539 42.1863C91.1418 44.5615 87.3603 48 81.5001 48C75.6398 48 71.8583 44.5615 69.2462 42.1863L69 41.9626C66.1078 39.3389 64.4297 38 61.8751 38C59.3204 38 57.6423 39.3389 54.7501 41.9626L54.5039 42.1863C51.8918 44.5615 48.1103 48 42.2501 48C36.3898 48 32.6084 44.5615 29.9962 42.1863L29.75 41.9626C26.8578 39.3389 25.1797 38 22.6251 38C19.5871 38 15.5398 39.8917 11.7729 42.3498C9.99462 43.5103 8.45582 44.6778 7.36089 45.5568C6.81557 45.9945 6.38577 46.3564 6.0974 46.6041C5.95334 46.7279 5.84496 46.8229 5.7755 46.8843C5.74078 46.915 5.71582 46.9373 5.70103 46.9506L5.68662 46.9635ZM3.00006 74C5.68762 76.9626 5.6871 76.9631 5.68662 76.9635L5.70103 76.9506C5.71582 76.9373 5.74078 76.915 5.7755 76.8843C5.84496 76.8229 5.95334 76.7279 6.0974 76.6041C6.38577 76.3564 6.81557 75.9945 7.36089 75.5568C8.45582 74.6778 9.99462 73.5103 11.7729 72.3498C15.5398 69.8917 19.5871 68 22.6251 68C25.1797 68 26.8578 69.3389 29.75 71.9626L29.9962 72.1863C32.6084 74.5615 36.3898 78 42.2501 78C48.1103 78 51.8918 74.5615 54.5039 72.1863L54.7501 71.9626C57.6423 69.3389 59.3204 68 61.8751 68C64.4297 68 66.1078 69.3389 69 71.9626L69.2462 72.1863C71.8583 74.5615 75.6398 78 81.5001 78C87.3603 78 91.1418 74.5615 93.7539 72.1863L94.0001 71.9626C96.8923 69.3389 98.5704 68 101.125 68C103.68 68 105.358 69.3389 108.25 71.9626L108.496 72.1863C111.108 74.5615 114.89 78 120.75 78C126.61 78 130.392 74.5615 133.004 72.1863L133.25 71.9626C136.142 69.3389 137.82 68 140.375 68C143.413 68 147.46 69.8917 151.227 72.3498C153.005 73.5103 154.544 74.6778 155.639 75.5568C156.185 75.9945 156.614 76.3564 156.903 76.6041C157.047 76.7279 157.155 76.8229 157.225 76.8843C157.259 76.915 157.284 76.9373 157.299 76.9506L157.313 76.9635C157.313 76.9631 157.312 76.9626 160 74C162.688 71.0374 162.687 71.0368 162.686 71.0363L162.685 71.0349L162.681 71.0315L162.67 71.0219L162.637 70.9921C162.61 70.9675 162.572 70.9336 162.524 70.891C162.427 70.806 162.291 70.6861 162.116 70.5365C161.768 70.2374 161.27 69.818 160.647 69.3182C159.407 68.3222 157.652 66.9897 155.599 65.6502C151.704 63.1083 145.939 60 140.375 60C134.515 60 130.733 63.4385 128.121 65.8137L127.875 66.0374C124.983 68.6611 123.305 70 120.75 70C118.195 70 116.517 68.6611 113.625 66.0374L113.379 65.8137C110.767 63.4385 106.985 60 101.125 60C95.2648 60 91.4833 63.4385 88.8712 65.8137L88.625 66.0374C85.7328 68.6611 84.0547 70 81.5001 70C78.9454 70 77.2673 68.6611 74.3751 66.0374L74.1289 65.8137C71.5168 63.4385 67.7353 60 61.8751 60C56.0148 60 52.2333 63.4385 49.6212 65.8137L49.375 66.0374C46.4828 68.6611 44.8047 70 42.2501 70C39.6954 70 38.0173 68.6611 35.1251 66.0374L34.8789 65.8137C32.2668 63.4385 28.4853 60 22.6251 60C17.0614 60 11.2961 63.1083 7.40095 65.6502C5.34821 66.9897 3.59356 68.3222 2.35282 69.3182C1.7303 69.818 1.2317 70.2374 0.883627 70.5365C0.709467 70.6861 0.572623 70.806 0.47641 70.891C0.428293 70.9336 0.390302 70.9675 0.362854 70.9921L0.329624 71.0219L0.319026 71.0315L0.315248 71.0349L0.313741 71.0363C0.313094 71.0368 0.312489 71.0374 3.00006 74Z" fill="#FEEDC3"/>
</svg>
