<svg width="224" height="224" viewBox="0 0 224 224" fill="none" xmlns="http://www.w3.org/2000/svg">
<path fill-rule="evenodd" clip-rule="evenodd" d="M36.6866 89.9635C36.6871 89.9631 36.6876 89.9626 34.0001 87C31.3125 84.0374 31.3131 84.0369 31.3137 84.0363L31.3152 84.0349L31.319 84.0315L31.3296 84.0219L31.3629 83.9921C31.3903 83.9675 31.4283 83.9336 31.4764 83.891C31.5726 83.806 31.7095 83.6861 31.8836 83.5365C32.2317 83.2374 32.7303 82.818 33.3528 82.3182C34.5936 81.3222 36.3482 79.9897 38.4009 78.6502C42.2961 76.1083 48.0614 73 53.6251 73C59.4853 73 63.2668 76.4385 65.8789 78.8137L66.1251 79.0374C69.0173 81.6611 70.6954 83 73.2501 83C75.8047 83 77.4828 81.6611 80.375 79.0374L80.6212 78.8137C83.2333 76.4385 87.0148 73 92.8751 73C98.7353 73 102.517 76.4385 105.129 78.8137L105.375 79.0374C108.267 81.6611 109.945 83 112.5 83C115.055 83 116.733 81.6611 119.625 79.0374L119.871 78.8137C122.483 76.4385 126.265 73 132.125 73C137.985 73 141.767 76.4385 144.379 78.8137L144.625 79.0374C147.517 81.6611 149.195 83 151.75 83C154.305 83 155.983 81.6611 158.875 79.0374L159.121 78.8137C161.733 76.4385 165.515 73 171.375 73C176.939 73 182.704 76.1083 186.599 78.6502C188.652 79.9897 190.407 81.3222 191.647 82.3182C192.27 82.818 192.768 83.2374 193.116 83.5365C193.291 83.6861 193.427 83.806 193.524 83.891C193.572 83.9336 193.61 83.9675 193.637 83.9921L193.67 84.0219L193.681 84.0315L193.685 84.0349L193.686 84.0363C193.687 84.0369 193.688 84.0374 191 87C188.313 89.9626 188.313 89.9631 188.313 89.9635L188.299 89.9506C188.284 89.9373 188.259 89.915 188.225 89.8843C188.155 89.8229 188.047 89.7279 187.903 89.6041C187.614 89.3564 187.185 88.9945 186.639 88.5568C185.544 87.6778 184.005 86.5103 182.227 85.3498C178.46 82.8917 174.413 81 171.375 81C168.82 81 167.142 82.3389 164.25 84.9626L164.004 85.1863C161.392 87.5615 157.61 91 151.75 91C145.89 91 142.108 87.5615 139.496 85.1863L139.25 84.9626C136.358 82.3389 134.68 81 132.125 81C129.57 81 127.892 82.3389 125 84.9626L124.754 85.1863C122.142 87.5615 118.36 91 112.5 91C106.64 91 102.858 87.5615 100.246 85.1863L100 84.9626C97.1078 82.3389 95.4297 81 92.8751 81C90.3204 81 88.6423 82.3389 85.7501 84.9626L85.5039 85.1863C82.8918 87.5615 79.1103 91 73.2501 91C67.3898 91 63.6084 87.5615 60.9962 85.1863L60.75 84.9626C57.8578 82.3389 56.1797 81 53.6251 81C50.5871 81 46.5398 82.8917 42.7729 85.3498C40.9946 86.5103 39.4558 87.6778 38.3609 88.5568C37.8156 88.9945 37.3858 89.3564 37.0974 89.6041C36.9533 89.7279 36.845 89.8229 36.7755 89.8843C36.7408 89.915 36.7158 89.9373 36.701 89.9506L36.6866 89.9635ZM36.6866 119.964C36.6871 119.963 36.6876 119.963 34.0001 117C31.3125 114.037 31.3131 114.037 31.3137 114.036L31.3152 114.035L31.319 114.031L31.3296 114.022L31.3629 113.992C31.3903 113.967 31.4283 113.934 31.4764 113.891C31.5726 113.806 31.7095 113.686 31.8836 113.536C32.2317 113.237 32.7303 112.818 33.3528 112.318C34.5936 111.322 36.3482 109.99 38.4009 108.65C42.2961 106.108 48.0614 103 53.6251 103C59.4853 103 63.2668 106.438 65.8789 108.814L66.1251 109.037C69.0173 111.661 70.6954 113 73.2501 113C75.8047 113 77.4828 111.661 80.375 109.037L80.6212 108.814C83.2333 106.438 87.0148 103 92.8751 103C98.7353 103 102.517 106.438 105.129 108.814L105.375 109.037C108.267 111.661 109.945 113 112.5 113C115.055 113 116.733 111.661 119.625 109.037L119.871 108.814C122.483 106.438 126.265 103 132.125 103C137.985 103 141.767 106.438 144.379 108.814L144.625 109.037C147.517 111.661 149.195 113 151.75 113C154.305 113 155.983 111.661 158.875 109.037L159.121 108.814C161.733 106.438 165.515 103 171.375 103C176.939 103 182.704 106.108 186.599 108.65C188.652 109.99 190.407 111.322 191.647 112.318C192.27 112.818 192.768 113.237 193.116 113.536C193.291 113.686 193.427 113.806 193.524 113.891C193.572 113.934 193.61 113.967 193.637 113.992L193.67 114.022L193.681 114.031L193.685 114.035L193.686 114.036C193.687 114.037 193.688 114.037 191 117C188.313 119.963 188.313 119.963 188.313 119.964L188.299 119.951L188.265 119.92L188.225 119.884C188.155 119.823 188.047 119.728 187.903 119.604C187.614 119.356 187.185 118.995 186.639 118.557C185.544 117.678 184.005 116.51 182.227 115.35C178.46 112.892 174.413 111 171.375 111C168.82 111 167.142 112.339 164.25 114.963L164.004 115.186C161.392 117.562 157.61 121 151.75 121C145.89 121 142.108 117.562 139.496 115.186L139.25 114.963C136.358 112.339 134.68 111 132.125 111C129.57 111 127.892 112.339 125 114.963L124.754 115.186C122.142 117.562 118.36 121 112.5 121C106.64 121 102.858 117.562 100.246 115.186L100 114.963C97.1078 112.339 95.4297 111 92.8751 111C90.3204 111 88.6423 112.339 85.7501 114.963L85.5039 115.186C82.8918 117.562 79.1103 121 73.2501 121C67.3898 121 63.6084 117.562 60.9962 115.186L60.75 114.963C57.8578 112.339 56.1797 111 53.6251 111C50.5871 111 46.5398 112.892 42.7729 115.35C40.9946 116.51 39.4558 117.678 38.3609 118.557C37.8156 118.995 37.3858 119.356 37.0974 119.604C36.9533 119.728 36.845 119.823 36.7755 119.884C36.7408 119.915 36.7158 119.937 36.701 119.951L36.6866 119.964ZM34.0001 147C36.6876 149.963 36.6871 149.963 36.6866 149.964L36.701 149.951C36.7158 149.937 36.7408 149.915 36.7755 149.884C36.845 149.823 36.9533 149.728 37.0974 149.604C37.3858 149.356 37.8156 148.995 38.3609 148.557C39.4558 147.678 40.9946 146.51 42.7729 145.35C46.5398 142.892 50.5871 141 53.6251 141C56.1797 141 57.8578 142.339 60.75 144.963L60.9962 145.186C63.6084 147.562 67.3898 151 73.2501 151C79.1103 151 82.8918 147.562 85.5039 145.186L85.7501 144.963C88.6423 142.339 90.3204 141 92.8751 141C95.4297 141 97.1078 142.339 100 144.963L100.246 145.186C102.858 147.562 106.64 151 112.5 151C118.36 151 122.142 147.562 124.754 145.186L125 144.963C127.892 142.339 129.57 141 132.125 141C134.68 141 136.358 142.339 139.25 144.963L139.496 145.186C142.108 147.562 145.89 151 151.75 151C157.61 151 161.392 147.562 164.004 145.186L164.25 144.963C167.142 142.339 168.82 141 171.375 141C174.413 141 178.46 142.892 182.227 145.35C184.005 146.51 185.544 147.678 186.639 148.557C187.185 148.995 187.614 149.356 187.903 149.604C188.047 149.728 188.155 149.823 188.225 149.884C188.259 149.915 188.284 149.937 188.299 149.951L188.313 149.964C188.313 149.963 188.313 149.963 191 147C193.688 144.037 193.687 144.037 193.686 144.036L193.685 144.035L193.681 144.031L193.67 144.022L193.637 143.992C193.61 143.967 193.572 143.934 193.524 143.891C193.427 143.806 193.291 143.686 193.116 143.536C192.768 143.237 192.27 142.818 191.647 142.318C190.407 141.322 188.652 139.99 186.599 138.65C182.704 136.108 176.939 133 171.375 133C165.515 133 161.733 136.438 159.121 138.814L158.875 139.037C155.983 141.661 154.305 143 151.75 143C149.195 143 147.517 141.661 144.625 139.037L144.379 138.814C141.767 136.438 137.985 133 132.125 133C126.265 133 122.483 136.438 119.871 138.814L119.625 139.037C116.733 141.661 115.055 143 112.5 143C109.945 143 108.267 141.661 105.375 139.037L105.129 138.814C102.517 136.438 98.7353 133 92.8751 133C87.0148 133 83.2333 136.438 80.6212 138.814L80.375 139.037C77.4828 141.661 75.8047 143 73.2501 143C70.6954 143 69.0173 141.661 66.1251 139.037L65.8789 138.814C63.2668 136.438 59.4853 133 53.6251 133C48.0614 133 42.2961 136.108 38.4009 138.65C36.3482 139.99 34.5936 141.322 33.3528 142.318C32.7303 142.818 32.2317 143.237 31.8836 143.536C31.7095 143.686 31.5726 143.806 31.4764 143.891C31.4283 143.934 31.3903 143.967 31.3629 143.992L31.3296 144.022L31.319 144.031L31.3152 144.035L31.3137 144.036C31.3131 144.037 31.3125 144.037 34.0001 147Z" fill="#FEEDC3"/>
</svg>
