<?xml version="1.0" standalone="no"?>
<!DOCTYPE svg PUBLIC "-//W3C//DTD SVG 20010904//EN"
 "http://www.w3.org/TR/2001/REC-SVG-20010904/DTD/svg10.dtd">
<svg version="1.0" xmlns="http://www.w3.org/2000/svg"
 width="700.000000pt" height="700.000000pt" viewBox="0 0 700.000000 700.000000"
 preserveAspectRatio="xMidYMid meet">
<metadata>
Created by potrace 1.11, written by Peter Selinger 2001-2013
</metadata>
<g transform="translate(0.000000,700.000000) scale(0.100000,-0.100000)"
fill="#000000" stroke="none">
<path d="M3285 6993 c-271 -21 -451 -50 -664 -104 -1239 -315 -2206 -1268
-2515 -2479 -201 -787 -112 -1622 259 -2430 460 -1001 1342 -1694 2431 -1909
269 -53 402 -65 704 -65 303 0 439 12 704 65 897 177 1661 681 2157 1421 330
492 550 1102 621 1723 19 163 16 599 -6 759 -96 727 -374 1333 -864 1879 -652
726 -1639 1156 -2631 1145 -86 -1 -174 -3 -196 -5z m541 -448 c891 -94 1687
-556 2197 -1277 57 -79 167 -259 167 -271 0 -5 -24 5 -52 21 -152 87 -413 169
-624 197 -827 108 -1635 -311 -2013 -1046 -77 -148 -125 -268 -161 -399 -13
-47 -28 -90 -34 -97 -21 -23 -255 -63 -407 -70 -434 -18 -808 123 -1118 421
-266 257 -420 589 -437 946 -17 343 103 670 352 955 146 167 243 235 504 355
322 148 684 242 1045 273 118 10 451 5 581 -8z m-2920 -1533 c2 -271 54 -496
174 -749 187 -394 500 -711 893 -903 428 -209 905 -253 1396 -128 l85 21 43
-49 c149 -167 219 -265 293 -414 208 -414 212 -893 11 -1300 -73 -147 -144
-245 -265 -365 -216 -215 -441 -324 -750 -363 -233 -29 -487 10 -762 117 -174
68 -380 180 -499 271 -69 53 -214 197 -309 305 -391 448 -660 1068 -752 1730
-23 160 -26 565 -6 725 52 415 179 795 384 1148 33 56 61 102 61 102 1 0 2
-66 3 -148z m4604 -239 c187 -30 385 -108 550 -218 165 -109 347 -324 439
-518 37 -77 40 -91 51 -232 48 -572 -87 -1207 -375 -1770 -75 -146 -161 -283
-274 -435 -99 -133 -381 -422 -511 -522 -430 -332 -917 -534 -1477 -614 -61
-8 -217 -17 -358 -20 l-250 -5 110 58 c180 95 288 175 430 318 148 148 237
268 325 436 125 242 187 462 211 741 44 534 -162 1090 -554 1495 l-90 93 41
124 c135 413 400 731 769 919 304 155 625 205 963 150z"/>
</g>
</svg>
