<svg width="192" height="224" viewBox="0 0 192 224" fill="none" xmlns="http://www.w3.org/2000/svg">
<path d="M181.872 109.972C177.352 122.391 125.935 134.714 88.2824 133.204C56.9864 131.949 6.54081 123.883 11.0609 111.464C15.581 99.0455 59.796 63.8179 104.651 88.2319C149.506 112.646 186.393 97.5531 181.872 109.972Z" fill="#D4F7E5"/>
<path fill-rule="evenodd" clip-rule="evenodd" d="M78.6455 117.563L78.6309 117.568L78.6289 117.568L78.1296 117.728L77.9813 118.219L77.9809 118.22L77.9804 118.222C77.979 118.226 77.9762 118.233 77.9719 118.245C77.9607 118.274 77.939 118.328 77.9037 118.405C77.8331 118.557 77.7076 118.799 77.5016 119.111C77.0901 119.736 76.3523 120.65 75.0766 121.701L56.5576 136.968C55.2793 138.022 54.0315 138.744 53.1056 139.2C52.6434 139.428 52.2638 139.589 52.0038 139.692C51.874 139.743 51.7742 139.78 51.7092 139.803C51.6768 139.814 51.653 139.822 51.6386 139.827L51.624 139.832L51.623 139.832L51.6221 139.833L51.1227 139.992L50.9736 140.486C50.9722 140.49 50.9694 140.498 50.9651 140.509C50.9538 140.539 50.9322 140.593 50.8968 140.669C50.8262 140.821 50.7008 141.063 50.4947 141.376C50.0832 142 49.3454 142.914 48.0697 143.966L25.544 162.536L25.4515 162.705L26.3287 163.185C25.4515 162.705 25.4508 162.706 25.4508 162.706L25.4501 162.707L25.4487 162.71L25.4454 162.716L25.4375 162.731C25.4317 162.742 25.4247 162.756 25.4168 162.772C25.4011 162.804 25.3815 162.846 25.3595 162.897C25.3156 162.999 25.2617 163.139 25.2091 163.313C25.1041 163.661 25.0035 164.149 25.0003 164.746C24.9939 165.963 25.3915 167.551 26.8085 169.27C28.2256 170.989 29.7082 171.682 30.9034 171.908C31.4908 172.019 31.9887 172.013 32.3502 171.976C32.531 171.958 32.6785 171.932 32.7871 171.908C32.8415 171.896 32.8863 171.885 32.9208 171.875C32.9381 171.871 32.9529 171.867 32.965 171.863L32.9813 171.858L32.9879 171.856L32.9909 171.855L32.9922 171.855C32.9922 171.855 32.9936 171.854 32.6895 170.902L32.9936 171.854L33.177 171.796L55.7027 153.226C56.9784 152.174 58.0163 151.624 58.7075 151.339C59.0536 151.197 59.3148 151.12 59.4779 151.079C59.5595 151.059 59.6167 151.048 59.6479 151.043C59.6599 151.041 59.6681 151.04 59.6723 151.039L60.1853 150.987L60.4371 150.527L60.4375 150.526L60.438 150.525L60.4456 150.512C60.4531 150.498 60.4656 150.477 60.4831 150.447C60.5181 150.388 60.573 150.297 60.6481 150.179C60.7984 149.943 61.0287 149.601 61.3408 149.191C61.9659 148.369 62.9122 147.282 64.1905 146.228L82.7095 130.961C83.9852 129.91 85.0232 129.36 85.7143 129.075C86.0605 128.932 86.3217 128.855 86.4847 128.815C86.5663 128.795 86.6235 128.784 86.6547 128.779C86.6605 128.778 86.6653 128.777 86.6693 128.776C86.6736 128.776 86.6769 128.775 86.6791 128.775L86.6805 128.774L86.6819 128.774L87.1922 128.722L87.4439 128.263L87.4444 128.262L87.4449 128.261L87.4524 128.247C87.4559 128.241 87.4603 128.234 87.4657 128.224C87.4723 128.213 87.4804 128.199 87.4899 128.183C87.5249 128.123 87.5799 128.032 87.655 127.915C87.8052 127.679 88.0356 127.337 88.3476 126.927C88.9727 126.105 89.9191 125.018 91.1974 123.964L110.488 108.061C111.56 107.177 112.6 106.62 113.367 106.286C113.749 106.119 114.062 106.009 114.273 105.941C114.379 105.907 114.459 105.885 114.51 105.871C114.535 105.864 114.553 105.859 114.564 105.857L114.571 105.855L114.572 105.855L114.573 105.854L115.008 105.755L115.222 105.362L115.223 105.361L115.223 105.36L115.231 105.347C115.238 105.334 115.251 105.312 115.268 105.282C115.303 105.223 115.358 105.132 115.433 105.014C115.584 104.779 115.814 104.437 116.126 104.027C116.751 103.205 117.698 102.118 118.976 101.064L139.81 83.8884C141.085 82.8367 142.123 82.2868 142.815 82.002C143.161 81.8593 143.422 81.7823 143.585 81.742C143.667 81.7219 143.724 81.7109 143.755 81.7056C143.767 81.7035 143.775 81.7023 143.779 81.7017L143.781 81.7014L143.782 81.7013L144.292 81.6495L144.544 81.189L144.545 81.188L144.554 81.1727C144.561 81.1589 144.574 81.1367 144.592 81.1067C144.627 81.0468 144.681 80.9561 144.753 80.8398C144.899 80.6071 145.119 80.2737 145.408 79.8826C145.989 79.0967 146.836 78.096 147.912 77.2091L155.178 71.2188L160.444 68.1735L166.952 62.8088L167.024 62.4645L167.024 62.4634L167.025 62.4611L167.026 62.4556L167.029 62.4411C167.031 62.4299 167.033 62.4156 167.036 62.3984C167.038 62.3882 167.04 62.3769 167.042 62.3646C167.044 62.3541 167.046 62.3428 167.048 62.3308C167.051 62.3095 167.055 62.2858 167.058 62.2598C167.075 62.1447 167.093 61.9847 167.106 61.7861C167.131 61.3895 167.133 60.8355 167.047 60.1771C166.873 58.8558 166.34 57.1159 164.929 55.4037C163.518 53.6916 161.912 52.8368 160.648 52.4141C160.018 52.2034 159.474 52.1 159.08 52.0491C158.883 52.0237 158.722 52.0113 158.606 52.0054C158.548 52.0024 158.501 52.001 158.466 52.0004C158.448 52.0001 158.434 52 158.422 52L158.407 52L158.402 52.0001L158.399 52.0001L158.397 52.0001L158.047 52.0053L151.539 57.3701L147.545 61.9586L140.279 67.949C139.203 68.8359 138.059 69.4767 137.177 69.8969C136.738 70.106 136.369 70.258 136.112 70.3567C135.984 70.406 135.885 70.4418 135.82 70.4647C135.787 70.4762 135.763 70.4844 135.748 70.4894L135.731 70.4949L135.73 70.4953L135.23 70.6548L135.082 71.1459L135.081 71.1473L135.081 71.1485C135.079 71.1526 135.076 71.1604 135.072 71.1718C135.061 71.2014 135.039 71.2554 135.004 71.3317C134.933 71.484 134.808 71.7258 134.602 72.0384C134.19 72.6625 133.452 73.5766 132.177 74.6283L111.343 91.8036C110.065 92.8574 108.817 93.579 107.891 94.0358C107.429 94.2638 107.049 94.4247 106.789 94.5273C106.659 94.5785 106.56 94.6151 106.495 94.6381C106.462 94.6497 106.438 94.6578 106.424 94.6626L106.409 94.6675L106.408 94.6678L106.407 94.6681L105.981 94.8041L105.8 95.2118L105.8 95.2136L105.799 95.2146L105.796 95.2205C105.792 95.23 105.784 95.2468 105.772 95.2704C105.749 95.3176 105.711 95.3919 105.658 95.4892C105.552 95.684 105.383 95.9697 105.147 96.3136C104.672 97.0022 103.927 97.9168 102.855 98.8009L83.5644 114.704C82.2861 115.758 81.0384 116.479 80.1124 116.936C79.6502 117.164 79.2706 117.325 79.0107 117.428C78.8808 117.479 78.7811 117.516 78.7161 117.539C78.6836 117.55 78.6599 117.558 78.6455 117.563ZM52.1644 142.477C52.4034 142.114 52.569 141.809 52.6809 141.575L52.7378 141.553C53.0433 141.432 53.4737 141.249 53.9904 140.994C55.0222 140.485 56.4074 139.684 57.8297 138.512L76.3487 123.245C77.7737 122.07 78.6469 121.008 79.1713 120.212C79.4103 119.85 79.5758 119.544 79.6877 119.311L79.7447 119.288C80.0501 119.168 80.4806 118.985 80.9973 118.73C82.0291 118.221 83.4142 117.42 84.8366 116.247L104.127 100.344C105.37 99.32 106.236 98.2584 106.794 97.448C107.073 97.0423 107.277 96.6978 107.412 96.4497L107.425 96.426C107.456 96.4141 107.489 96.4014 107.523 96.3879C107.829 96.2673 108.259 96.0845 108.776 95.8295C109.808 95.3204 111.193 94.5195 112.615 93.3469L133.449 76.1716C134.874 74.9969 135.747 73.9348 136.272 73.1394C136.51 72.7782 136.675 72.4736 136.787 72.2403L136.831 72.2231C137.128 72.1087 137.545 71.9368 138.037 71.7027C139.016 71.2364 140.312 70.5138 141.551 69.4923L148.945 63.3967L152.939 58.8081L158.743 54.0231C158.769 54.026 158.796 54.0292 158.824 54.0329C159.11 54.0697 159.525 54.1474 160.013 54.3109C160.986 54.6363 162.253 55.3015 163.386 56.676C164.519 58.0505 164.93 59.4208 165.064 60.438C165.131 60.9489 165.128 61.3713 165.11 61.6587C165.108 61.6871 165.106 61.7145 165.104 61.7402L159.299 66.5252L154.034 69.5701L146.64 75.6657C145.401 76.6872 144.444 77.8217 143.799 78.6939C143.476 79.1318 143.228 79.5082 143.059 79.778L143.033 79.8186C142.783 79.8839 142.452 79.9879 142.052 80.1527C141.172 80.5157 139.963 81.1703 138.538 82.345L117.704 99.5203C116.281 100.693 115.231 101.9 114.534 102.816C114.185 103.274 113.924 103.662 113.747 103.939C113.727 103.97 113.709 103.999 113.691 104.028L113.665 104.036C113.396 104.122 113.019 104.256 112.567 104.452C111.666 104.846 110.458 105.493 109.216 106.518L89.9252 122.421C88.5029 123.593 87.4524 124.8 86.7558 125.716C86.407 126.175 86.1453 126.562 85.9688 126.839L85.936 126.891C85.6853 126.956 85.3537 127.06 84.9523 127.226C84.0715 127.589 82.8623 128.243 81.4374 129.418L62.9184 144.685C61.496 145.858 60.4455 147.065 59.749 147.98C59.4001 148.439 59.1385 148.827 58.9619 149.103L58.9291 149.155C58.6784 149.22 58.3468 149.325 57.9454 149.49C57.0646 149.853 55.8555 150.508 54.4305 151.682L34.1353 168.414C34.0927 167.984 33.9898 167.528 33.7965 167.065C33.8981 166.926 34.0179 166.75 34.121 166.556C34.305 166.21 34.4735 165.744 34.4439 165.188C34.4139 164.62 34.1836 164.067 33.7532 163.545C33.3227 163.022 32.8234 162.691 32.2723 162.553C31.732 162.418 31.2424 162.494 30.8674 162.609C30.6572 162.673 30.4616 162.757 30.306 162.83C29.8886 162.552 29.4605 162.364 29.0465 162.24L49.3419 145.509C50.7669 144.334 51.6401 143.272 52.1644 142.477Z" fill="black"/>
<path d="M102.319 106.799C103.022 107.651 102.901 108.912 102.048 109.614C101.196 110.317 99.9355 110.196 99.2329 109.343C98.5303 108.491 98.6517 107.23 99.504 106.528C100.356 105.825 101.617 105.946 102.319 106.799Z" fill="black"/>
<path d="M121.61 90.8957C122.313 91.7481 122.191 93.0087 121.339 93.7113C120.487 94.4139 119.226 94.2926 118.524 93.4402C117.821 92.5878 117.942 91.3272 118.795 90.6246C119.647 89.9219 120.907 90.0433 121.61 90.8957Z" fill="black"/>
<path d="M133.956 80.7178C134.659 81.5701 134.537 82.8307 133.685 83.5333C132.833 84.236 131.572 84.1146 130.87 83.2622C130.167 82.4099 130.288 81.1493 131.141 80.4466C131.993 79.744 133.253 79.8654 133.956 80.7178Z" fill="black"/>
<path d="M149.388 67.9953C150.091 68.8477 149.97 70.1083 149.117 70.8109C148.265 71.5135 147.005 71.3922 146.302 70.5398C145.599 69.6874 145.721 68.4268 146.573 67.7242C147.425 67.0216 148.686 67.1429 149.388 67.9953Z" fill="black"/>
<path fill-rule="evenodd" clip-rule="evenodd" d="M138.482 71.3765C139.506 71.7642 140.838 72.5585 142.166 74.1695C143.494 75.7806 144.019 77.2403 144.205 78.3186C144.297 78.8558 144.304 79.294 144.287 79.6041C144.278 79.7592 144.263 79.8822 144.25 79.9696C144.243 80.0133 144.237 80.0481 144.232 80.0737C144.229 80.0864 144.227 80.0968 144.225 80.1049L144.223 80.1152L144.222 80.119L144.222 80.1205C144.222 80.1205 144.221 80.1219 143.735 80.004C143.25 79.8862 143.249 79.8868 143.249 79.8868L143.249 79.8882L143.251 79.8783C143.253 79.8668 143.257 79.8464 143.262 79.8176C143.27 79.7601 143.282 79.6692 143.289 79.5482C143.302 79.3062 143.298 78.9441 143.219 78.488C143.063 77.5798 142.611 76.2813 141.394 74.8056C140.178 73.33 138.99 72.6382 138.128 72.3116C137.695 72.1477 137.341 72.0742 137.101 72.0413C136.981 72.0249 136.889 72.0186 136.831 72.0163C136.802 72.0152 136.781 72.015 136.77 72.0151L136.759 72.0152L136.76 72.0151C136.76 72.0151 136.762 72.0151 136.739 71.5156C136.716 71.0161 136.716 71.016 136.716 71.016L136.719 71.0159L136.722 71.0158L136.733 71.0155C136.741 71.0153 136.752 71.0151 136.765 71.015C136.791 71.0149 136.826 71.0153 136.871 71.017C136.959 71.0205 137.083 71.0294 137.236 71.0505C137.544 71.0926 137.973 71.1833 138.482 71.3765Z" fill="black"/>
<path fill-rule="evenodd" clip-rule="evenodd" d="M153.915 58.654C154.938 59.0418 156.271 59.836 157.599 61.4471C158.927 63.0581 159.452 64.5178 159.637 65.5962C159.73 66.1334 159.737 66.5716 159.719 66.8817C159.711 67.0367 159.696 67.1597 159.682 67.2471C159.676 67.2909 159.669 67.3257 159.664 67.3512C159.662 67.364 159.66 67.3744 159.658 67.3825L159.655 67.3928L159.655 67.3965L159.654 67.3981C159.654 67.3981 159.654 67.3994 159.168 67.2816C158.682 67.1638 158.682 67.1643 158.682 67.1643L158.682 67.1658L158.684 67.1559C158.686 67.1443 158.69 67.1239 158.694 67.0952C158.703 67.0377 158.714 66.9467 158.721 66.8257C158.735 66.5838 158.73 66.2216 158.652 65.7656C158.496 64.8574 158.043 63.5588 156.827 62.0832C155.611 60.6075 154.422 59.9158 153.561 59.5892C153.128 59.4252 152.773 59.3517 152.533 59.3189C152.413 59.3024 152.322 59.2962 152.264 59.2939C152.235 59.2927 152.214 59.2926 152.202 59.2926L152.191 59.2928L152.193 59.2927C152.193 59.2927 152.194 59.2926 152.171 58.7931C152.148 58.2936 152.149 58.2936 152.149 58.2936L152.151 58.2935L152.155 58.2934L152.166 58.293C152.174 58.2928 152.184 58.2926 152.197 58.2926C152.223 58.2925 152.259 58.2929 152.303 58.2946C152.391 58.2981 152.515 58.307 152.669 58.328C152.977 58.3701 153.405 58.4609 153.915 58.654Z" fill="black"/>
<path fill-rule="evenodd" clip-rule="evenodd" d="M109.161 95.5491C110.184 95.9368 111.516 96.7311 112.844 98.3421C114.172 99.9532 114.698 101.413 114.883 102.491C114.975 103.028 114.983 103.467 114.965 103.777C114.957 103.932 114.942 104.055 114.928 104.142C114.922 104.186 114.915 104.221 114.91 104.246C114.908 104.259 114.905 104.269 114.904 104.278L114.901 104.288L114.9 104.292L114.9 104.293C114.9 104.293 114.9 104.295 114.414 104.177C113.928 104.059 113.928 104.059 113.928 104.059L113.927 104.061L113.929 104.051C113.932 104.039 113.935 104.019 113.94 103.99C113.949 103.933 113.96 103.842 113.967 103.721C113.98 103.479 113.976 103.117 113.897 102.661C113.741 101.752 113.289 100.454 112.073 98.9783C110.856 97.5026 109.668 96.8108 108.806 96.4843C108.374 96.3203 108.019 96.2468 107.779 96.2139C107.659 96.1975 107.568 96.1913 107.509 96.189C107.48 96.1878 107.46 96.1877 107.448 96.1877L107.437 96.1879L107.439 96.1878C107.439 96.1878 107.44 96.1877 107.417 95.6882C107.394 95.1887 107.395 95.1887 107.395 95.1887L107.397 95.1886L107.401 95.1884L107.411 95.1881C107.42 95.1879 107.43 95.1877 107.443 95.1876C107.469 95.1875 107.505 95.1879 107.549 95.1897C107.637 95.1932 107.761 95.202 107.915 95.2231C108.222 95.2652 108.651 95.3559 109.161 95.5491Z" fill="black"/>
<path fill-rule="evenodd" clip-rule="evenodd" d="M81.3823 118.449C82.4054 118.837 83.7379 119.631 85.0659 121.243C86.3938 122.854 86.9191 124.313 87.1045 125.392C87.1969 125.929 87.2041 126.367 87.1867 126.677C87.178 126.832 87.1632 126.955 87.1498 127.043C87.143 127.086 87.1367 127.121 87.1316 127.147C87.129 127.159 87.1268 127.17 87.125 127.178L87.1227 127.188L87.1218 127.192L87.1215 127.194C87.1215 127.194 87.1211 127.195 86.6352 127.077C86.1493 126.959 86.1492 126.96 86.1492 126.96L86.1488 126.961L86.1508 126.951C86.1532 126.94 86.157 126.919 86.1614 126.891C86.1702 126.833 86.1815 126.742 86.1883 126.621C86.2019 126.379 86.1974 126.017 86.119 125.561C85.9628 124.653 85.5106 123.354 84.2942 121.879C83.0779 120.403 81.8896 119.711 81.0279 119.385C80.5952 119.221 80.2406 119.147 80.0006 119.114C79.8805 119.098 79.7891 119.092 79.7309 119.089C79.7019 119.088 79.6811 119.088 79.6693 119.088L79.6584 119.088L79.6602 119.088C79.6602 119.088 79.6613 119.088 79.6384 118.589C79.6154 118.089 79.6161 118.089 79.6161 118.089L79.6184 118.089L79.6223 118.089L79.6328 118.089C79.6411 118.088 79.6517 118.088 79.6647 118.088C79.6908 118.088 79.7262 118.088 79.7704 118.09C79.8587 118.094 79.9823 118.102 80.1361 118.123C80.4438 118.166 80.8726 118.256 81.3823 118.449Z" fill="black"/>
<path fill-rule="evenodd" clip-rule="evenodd" d="M54.3754 140.714C55.3985 141.102 56.731 141.896 58.059 143.507C59.3869 145.118 59.9123 146.578 60.0977 147.656C60.19 148.193 60.1973 148.631 60.1799 148.941C60.1712 149.096 60.1563 149.219 60.1429 149.307C60.1362 149.351 60.1298 149.385 60.1247 149.411C60.1222 149.424 60.12 149.434 60.1182 149.442L60.1159 149.452L60.115 149.456L60.1146 149.458C60.1146 149.458 60.1143 149.459 59.6284 149.341C59.1424 149.223 59.1423 149.224 59.1423 149.224L59.142 149.225L59.144 149.216C59.1463 149.204 59.1501 149.184 59.1545 149.155C59.1634 149.097 59.1747 149.006 59.1814 148.885C59.195 148.644 59.1905 148.281 59.1121 147.825C58.956 146.917 58.5037 145.619 57.2874 144.143C56.071 142.667 54.8827 141.976 54.021 141.649C53.5884 141.485 53.2338 141.411 52.9937 141.379C52.8736 141.362 52.7822 141.356 52.7241 141.354C52.695 141.352 52.6743 141.352 52.6625 141.352L52.6515 141.353L52.6533 141.352C52.6533 141.352 52.6544 141.352 52.6315 140.853C52.6086 140.353 52.6092 140.353 52.6092 140.353L52.6115 140.353L52.6154 140.353L52.626 140.353C52.6342 140.353 52.6449 140.352 52.6579 140.352C52.6839 140.352 52.7193 140.353 52.7635 140.354C52.8519 140.358 52.9754 140.367 53.1292 140.388C53.437 140.43 53.8657 140.521 54.3754 140.714Z" fill="black"/>
</svg>
