<svg width="192" height="224" viewBox="0 0 192 224" fill="none" xmlns="http://www.w3.org/2000/svg">
<path fill-rule="evenodd" clip-rule="evenodd" d="M67.634 64.8686L20.8687 91.8686L47.8687 138.634L94.634 111.634L81.134 88.7013L67.634 64.8686ZM116.131 36.8686L69.3661 63.8686L96.3661 110.634L143.131 83.634L129.631 60.7013L116.131 36.8686ZM48.8687 140.366L95.634 113.366L109.134 137.199L122.634 160.131L75.8687 187.131L48.8687 140.366ZM144.131 85.3661L97.3661 112.366L124.366 159.131L171.131 132.131L157.631 109.199L144.131 85.3661Z" fill="#E5E5FA"/>
<path d="M110.5 194.5L109 207C109 207 102 208 96 208C90 208 83 207 83 207L81.5 194.5M110.5 194.5C110.5 194.5 109.5 192 109.5 187.5C109.5 183 112 177 112 177V40M110.5 194.5C110.5 194.5 101.676 195.5 96 195.5C90.3239 195.5 81.5 194.5 81.5 194.5M81.5 194.5C81.5 194.5 82.5785 192 82.5785 187.5C82.5785 183 80 177 80 177V40M80 40L81.5 27.75M80 40H112M112 40L110.5 27.75M81.5 27.75L83 16C83 16 92.3431 15 96 15C99.6569 15 109 16 109 16L110.5 27.75M81.5 27.75C81.5 27.75 85.985 25.75 88.875 25.75C91.765 25.75 93.11 27.75 96 27.75C98.89 27.75 100.235 25.75 103.125 25.75C106.015 25.75 110.5 27.75 110.5 27.75" stroke="black" stroke-width="2"/>
<path fill-rule="evenodd" clip-rule="evenodd" d="M103.5 25C103.776 25 104 25.2239 104 25.5V57H105C105.552 57 106 57.4477 106 58C106 58.5523 105.552 59 105 59H104V177.801C105.122 177.741 106.121 177.672 107 177.6V46H106C105.448 46 105 45.5523 105 45C105 44.4477 105.448 44 106 44H107V42L106 41H107V39H106V36H107V26.5C107 26.2239 107.224 26 107.5 26C107.776 26 108 26.2239 108 26.5V44H109C109.552 44 110 44.4477 110 45C110 45.5523 109.552 46 109 46H108V177.512C110.71 177.258 112 177 112 177C112 177 109.5 183 109.5 187.5C109.5 192 110.5 194.5 110.5 194.5C110.5 194.5 101.676 195.5 96 195.5C90.3239 195.5 81.5 194.5 81.5 194.5C81.5 194.5 82.5785 192 82.5785 187.5C82.5785 183 80 177 80 177C80 177 81.2897 177.258 84 177.512V53H83C82.4477 53 82 52.5523 82 52C82 51.4477 82.4477 51 83 51H84V26.5C84 26.2239 84.2239 26 84.5 26C84.7761 26 85 26.2239 85 26.5V36H86V39H85V41H86L85 42V51H86C86.5523 51 87 51.4477 87 52C87 52.5523 86.5523 53 86 53H85V177.6C85.879 177.672 86.878 177.741 88 177.801V174H87C86.4477 174 86 173.552 86 173C86 172.448 86.4477 172 87 172H88V170H87C86.4477 170 86 169.552 86 169C86 168.448 86.4477 168 87 168H88V166H87C86.4477 166 86 165.552 86 165C86 164.448 86.4477 164 87 164H88V162H87C86.4477 162 86 161.552 86 161C86 160.448 86.4477 160 87 160H88V158H87C86.4477 158 86 157.552 86 157C86 156.448 86.4477 156 87 156H88V153H87C86.4477 153 86 152.552 86 152C86 151.448 86.4477 151 87 151H88V148H87C86.4477 148 86 147.552 86 147C86 146.448 86.4477 146 87 146H88V143H87C86.4477 143 86 142.552 86 142C86 141.448 86.4477 141 87 141H88V137H87C86.4477 137 86 136.552 86 136C86 135.448 86.4477 135 87 135H88V131H87C86.4477 131 86 130.552 86 130C86 129.448 86.4477 129 87 129H88V124H87C86.4477 124 86 123.552 86 123C86 122.448 86.4477 122 87 122H88V116H87C86.4477 116 86 115.552 86 115C86 114.448 86.4477 114 87 114H88V107H87C86.4477 107 86 106.552 86 106C86 105.448 86.4477 105 87 105H88V97H87C86.4477 97 86 96.5523 86 96C86 95.4477 86.4477 95 87 95H88V86H87C86.4477 86 86 85.5523 86 85C86 84.4477 86.4477 84 87 84H88V74H87C86.4477 74 86 73.5523 86 73C86 72.4477 86.4477 72 87 72H88V25.5C88 25.2239 88.2239 25 88.5 25C88.7761 25 89 25.2239 89 25.5V36H90V39H89V41H90L89 43V72H93V27C93 26.7239 93.2239 26.5 93.5 26.5C93.7761 26.5 94 26.7239 94 27V34H95V39H94V41H95L94 43V72H98V43L97 41H98V39H97V36H98V27C98 26.7239 98.2239 26.5 98.5 26.5C98.7761 26.5 99 26.7239 99 27V72H100C100.552 72 101 72.4477 101 73C101 73.5523 100.552 74 100 74H99V84H100C100.552 84 101 84.4477 101 85C101 85.5523 100.552 86 100 86H99V95H100C100.552 95 101 95.4477 101 96C101 96.5523 100.552 97 100 97H99V105H100C100.552 105 101 105.448 101 106C101 106.552 100.552 107 100 107H99V114H100C100.552 114 101 114.448 101 115C101 115.552 100.552 116 100 116H99V122H100C100.552 122 101 122.448 101 123C101 123.552 100.552 124 100 124H99V129H100C100.552 129 101 129.448 101 130C101 130.552 100.552 131 100 131H99V135H100C100.552 135 101 135.448 101 136C101 136.552 100.552 137 100 137H99V141H100C100.552 141 101 141.448 101 142C101 142.552 100.552 143 100 143H99V146H100C100.552 146 101 146.448 101 147C101 147.552 100.552 148 100 148H99V151H100C100.552 151 101 151.448 101 152C101 152.552 100.552 153 100 153H99V156H100C100.552 156 101 156.448 101 157C101 157.552 100.552 158 100 158H99V160H100C100.552 160 101 160.448 101 161C101 161.552 100.552 162 100 162H99V164H100C100.552 164 101 164.448 101 165C101 165.552 100.552 166 100 166H99V168H100C100.552 168 101 168.448 101 169C101 169.552 100.552 170 100 170H99V172H100C100.552 172 101 172.448 101 173C101 173.552 100.552 174 100 174H99V177.974C100.462 177.948 101.794 177.905 103 177.85V59H102C101.448 59 101 58.5523 101 58C101 57.4477 101.448 57 102 57H103V43L102 41H103V39H102V35H103V25.5C103 25.2239 103.224 25 103.5 25ZM98 177.989V174H94V177.989C94.6432 177.996 95.3098 178 96 178C96.6902 178 97.3568 177.996 98 177.989ZM93 177.974V174H89V177.85C90.2056 177.905 91.5379 177.948 93 177.974ZM88 178V192.664C87.3886 192.612 86.8214 192.557 86.3023 192.503C86.0641 192.478 85.836 192.453 85.6185 192.428L85 191.5V178H84V192.225C83.8392 192.202 83.6913 192.181 83.5568 192.162C83.2395 192.115 82.9964 192.076 82.8332 192.05C82.7516 192.036 82.69 192.026 82.6492 192.019L82.6035 192.011L82.5925 192.009L82.59 192.008L82.5 192.5C82.4106 192.992 82.4106 192.992 82.4107 192.992L82.4121 192.992L82.4156 192.993L82.4286 192.995L82.4783 193.004C82.5219 193.011 82.5863 193.022 82.6707 193.036C82.8395 193.064 83.0886 193.104 83.412 193.151C84.0587 193.246 85.0029 193.371 86.1977 193.497C88.5868 193.749 91.9796 194 96 194C100.02 194 103.413 193.749 105.802 193.497C106.997 193.371 107.941 193.246 108.588 193.151C108.911 193.104 109.16 193.064 109.329 193.036C109.414 193.022 109.478 193.011 109.522 193.004L109.571 192.995L109.584 192.993L109.589 192.992C109.589 192.992 109.589 192.992 109.5 192.5L109.411 192.008L109.397 192.011L109.351 192.019C109.328 192.023 109.298 192.028 109.261 192.034C109.233 192.039 109.202 192.044 109.167 192.05C109.004 192.076 108.76 192.115 108.443 192.162C108.309 192.181 108.161 192.202 108 192.225V178H107V191.5L106.381 192.428C106.164 192.453 105.936 192.478 105.698 192.503C105.179 192.557 104.611 192.612 104 192.664V178H103V191L102.097 192.806C101.138 192.867 100.102 192.919 99 192.953V178H98V191L97.0026 192.995C96.6731 192.998 96.3388 193 96 193C95.6612 193 95.3269 192.998 94.9974 192.995L94 191V178H93V192.953C91.8975 192.919 90.8617 192.867 89.9029 192.806L89 191V178H88ZM93 172H89V170H93V172ZM98 172H94V170H98V172ZM98 168V166H94V168H98ZM93 168V166H89V168H93ZM93 164H89V162H93V164ZM98 164H94V162H98V164ZM98 160V158H94V160H98ZM93 160V158H89V160H93ZM93 156H89V153H93V156ZM98 156H94V153H98V156ZM98 151V148H94V151H98ZM93 151V148H89V151H93ZM93 146H89V143H93V146ZM98 146H94V143H98V146ZM98 141V137H94V141H98ZM93 141V137H89V141H93ZM93 135H89V131H93V135ZM98 135H94V131H98V135ZM98 129V124H94V129H98ZM93 129V124H89V129H93ZM93 122H89V116H93V122ZM98 122H94V116H98V122ZM98 114V107H94V114H98ZM93 114V107H89V114H93ZM93 105H89V97H93V105ZM98 105H94V97H98V105ZM98 95V86H94V95H98ZM93 95V86H89V95H93ZM93 84H89V74H93V84ZM98 84H94V74H98V84Z" fill="black"/>
<path fill-rule="evenodd" clip-rule="evenodd" d="M85.0386 197.501L85.0429 197.502L85.0567 197.503L85.1115 197.507L85.3243 197.523C85.51 197.536 85.7805 197.556 86.1192 197.579C86.7968 197.626 87.7472 197.688 88.838 197.751C91.0221 197.876 93.7607 198 96 198C98.2393 198 100.978 197.876 103.162 197.751C104.253 197.688 105.203 197.626 105.881 197.579C106.219 197.556 106.49 197.536 106.676 197.523L106.888 197.507L106.943 197.503L106.957 197.502L106.961 197.502L106.962 197.501L107.552 197.456L106.963 203.934L106.576 203.994L106.572 203.995L106.558 203.997L106.503 204.005C106.455 204.013 106.384 204.024 106.292 204.037C106.108 204.065 105.841 204.104 105.509 204.151C104.843 204.245 103.913 204.371 102.853 204.497C100.74 204.747 98.0905 205 96 205C93.9095 205 91.2602 204.747 89.1465 204.497C88.0869 204.371 87.1567 204.245 86.4913 204.151C86.1586 204.104 85.8919 204.065 85.7081 204.037C85.6163 204.024 85.5451 204.013 85.4968 204.005L85.4418 203.997L85.4276 203.995L85.4239 203.994L85.4227 203.994L85.0374 203.934L84.4485 197.456L85.0386 197.501ZM85.9625 203.064C86.1351 203.09 86.3611 203.123 86.6314 203.161C87.2912 203.255 88.2137 203.379 89.2642 203.503C91.3707 203.753 93.9714 204 96 204C98.0286 204 100.629 203.753 102.736 203.503C103.786 203.379 104.709 203.255 105.369 203.161C105.639 203.123 105.865 203.09 106.038 203.064L106.449 198.542C106.305 198.552 106.138 198.564 105.95 198.577C105.269 198.624 104.315 198.687 103.219 198.749C101.03 198.874 98.2686 199 96 199C93.7314 199 90.9699 198.874 88.781 198.749C87.6854 198.687 86.731 198.624 86.0504 198.577C85.8622 198.564 85.6949 198.552 85.5513 198.542L85.9625 203.064Z" fill="black"/>
<path d="M133.892 162.16C133.961 161.893 133.8 161.62 133.533 161.551C133.266 161.481 132.993 161.642 132.924 161.909L123.108 199.84C123.039 200.107 123.199 200.38 123.467 200.449C123.734 200.518 124.007 200.358 124.076 200.09L133.892 162.16Z" fill="black"/>
</svg>
