<svg width="192" height="224" viewBox="0 0 192 224" fill="none" xmlns="http://www.w3.org/2000/svg">
<path d="M106.573 122.573C72.2887 156.858 24 184 24 184C24 184 49.5704 134.262 83.9161 99.9161C118.262 65.5704 168 40 168 40C168 40 140.858 88.2887 106.573 122.573Z" fill="#F9EBDC"/>
<path fill-rule="evenodd" clip-rule="evenodd" d="M81.8224 166.007C80.9371 166.077 80.2909 166.667 79.8554 167.32C79.3887 168.02 79.0419 168.959 78.7799 170.007C78.2521 172.119 78 174.959 78 178C78 181.041 78.2521 183.881 78.7799 185.993C79.0419 187.041 79.3887 187.98 79.8554 188.68C80.2909 189.333 80.9371 189.923 81.8224 189.993C81.8668 190.007 81.9218 190.024 81.9871 190.043C82.1785 190.101 82.4582 190.182 82.8205 190.279C83.5449 190.472 84.5997 190.727 85.9379 190.982C88.6135 191.492 92.4268 192 97 192C101.612 192 105.214 191.231 107.676 190.454C108.907 190.065 109.852 189.674 110.497 189.377C110.82 189.228 111.067 189.102 111.237 189.012C111.322 188.967 111.388 188.93 111.434 188.904C111.457 188.891 111.476 188.88 111.489 188.872L111.505 188.863L111.511 188.86L111.513 188.858C111.513 188.858 111.514 188.857 111 188L111.514 188.857L111.669 188.765L111.781 188.625L111 188C111.781 188.625 111.782 188.624 111.782 188.624L111.785 188.62L111.789 188.614L111.801 188.599C111.809 188.588 111.819 188.575 111.831 188.558C111.855 188.526 111.885 188.482 111.921 188.428C111.993 188.319 112.087 188.166 112.195 187.963C112.411 187.557 112.685 186.954 112.952 186.117C113.488 184.443 114 181.839 114 178C114 174.161 113.488 171.557 112.952 169.883C112.685 169.046 112.411 168.443 112.195 168.037C112.087 167.834 111.993 167.681 111.921 167.572C111.885 167.518 111.855 167.474 111.831 167.442C111.819 167.425 111.809 167.412 111.801 167.401L111.789 167.386L111.785 167.38L111.782 167.376C111.782 167.376 111.781 167.375 111 168L111.781 167.375L111.669 167.235L111.514 167.143L111 168C111.514 167.143 111.514 167.143 111.514 167.143L111.513 167.142L111.511 167.14L111.505 167.137L111.489 167.128C111.476 167.12 111.457 167.109 111.434 167.096C111.388 167.07 111.322 167.033 111.237 166.988C111.067 166.898 110.82 166.772 110.497 166.623C109.852 166.326 108.907 165.935 107.676 165.546C105.214 164.769 101.612 164 97 164C92.4268 164 88.6135 164.508 85.9379 165.018C84.5997 165.273 83.5449 165.528 82.8205 165.721C82.4582 165.818 82.1785 165.899 81.9871 165.957C81.9218 165.976 81.8668 165.993 81.8224 166.007ZM84.2162 167.431C84.647 168.118 84.9717 169.014 85.2201 170.007C85.7479 172.119 86 174.959 86 178C86 181.041 85.7479 183.881 85.2201 185.993C84.9717 186.986 84.647 187.882 84.2162 188.569C84.7952 188.708 85.4977 188.863 86.3121 189.018C88.8865 189.508 92.5732 190 97 190C101.388 190 104.786 189.269 107.074 188.546C108.218 188.185 109.085 187.826 109.659 187.561C109.946 187.428 110.16 187.32 110.298 187.246C110.3 187.245 110.303 187.244 110.305 187.242C110.339 187.186 110.381 187.113 110.43 187.022C110.589 186.725 110.815 186.233 111.048 185.508C111.512 184.057 112 181.661 112 178C112 174.339 111.512 171.943 111.048 170.492C110.815 169.767 110.589 169.275 110.43 168.978C110.381 168.887 110.339 168.814 110.305 168.758C110.303 168.756 110.3 168.755 110.298 168.754C110.16 168.68 109.946 168.572 109.659 168.439C109.085 168.174 108.218 167.815 107.074 167.454C104.786 166.731 101.388 166 97 166C92.5732 166 88.8865 166.492 86.3121 166.982C85.4977 167.137 84.7952 167.292 84.2162 167.431ZM80.7201 170.493C80.2479 172.381 80 175.041 80 178C80 180.959 80.2479 183.619 80.7201 185.507C80.9581 186.459 81.2363 187.145 81.5196 187.57C81.8054 187.999 81.977 188 82 188C82.023 188 82.1946 187.999 82.4804 187.57C82.7637 187.145 83.0419 186.459 83.2799 185.507C83.7521 183.619 84 180.959 84 178C84 175.041 83.7521 172.381 83.2799 170.493C83.0419 169.541 82.7637 168.855 82.4804 168.43C82.1946 168.001 82.023 168 82 168C81.977 168 81.8054 168.001 81.5196 168.43C81.2363 168.855 80.9581 169.541 80.7201 170.493Z" fill="black"/>
<path fill-rule="evenodd" clip-rule="evenodd" d="M80.5 174C80.5 173.448 80.9477 173 81.5 173H82.5C83.0523 173 83.5 173.448 83.5 174C83.5 174.552 83.0523 175 82.5 175H81.5C80.9477 175 80.5 174.552 80.5 174Z" fill="black"/>
<path fill-rule="evenodd" clip-rule="evenodd" d="M81.0007 173.983L83.9996 82.0164L83.0001 81.9838L79.999 174.017L81.5023 189.05L82.4974 188.95L81.0007 173.983Z" fill="black"/>
<path fill-rule="evenodd" clip-rule="evenodd" d="M96.371 77.3352L82.371 92.8352L81.6289 92.1649L95.6289 76.6649L96.371 77.3352Z" fill="black"/>
<path fill-rule="evenodd" clip-rule="evenodd" d="M81.0004 173.98L82.9999 62.509L82 62.4911L79.9995 174.021L81.5024 189.05L82.4975 188.95L81.0004 173.98Z" fill="black"/>
<path fill-rule="evenodd" clip-rule="evenodd" d="M82.7281 73.5H83.534C83.5718 73.6305 83.6121 73.7808 83.6527 73.9496C83.8247 74.6656 84 75.7116 84 77C84 78.2884 83.8247 79.3344 83.6527 80.0504C83.6121 80.2192 83.5718 80.3695 83.534 80.5H82.7281C82.7312 80.4809 82.7343 80.4617 82.7374 80.4422C82.8696 79.617 83 78.4387 83 77C83 75.5613 82.8696 74.383 82.7374 73.5578C82.7343 73.5383 82.7312 73.5191 82.7281 73.5ZM85.6016 80.5H86.75C87.4164 80.1008 88.091 79.2684 88.6536 78.3623C88.9442 77.8942 89.1779 77.4515 89.3389 77.1254C89.3607 77.0813 89.381 77.0394 89.4 77C89.381 76.9606 89.3607 76.9187 89.3389 76.8746C89.1779 76.5485 88.9442 76.1058 88.6536 75.6377C88.091 74.7316 87.4164 73.8992 86.75 73.5H85.6016C85.803 74.3438 86 75.5412 86 77C86 78.4588 85.803 79.6562 85.6016 80.5ZM91.1375 76C91.1358 75.9964 91.134 75.9929 91.1323 75.9893C90.9508 75.6217 90.686 75.1196 90.3527 74.5827C89.7186 73.5613 88.7156 72.212 87.4315 71.5979L87.2268 71.5H81.5C80.7437 71.5 80.2841 72.0716 80.0711 72.4003C79.8183 72.7905 79.6244 73.2809 79.4768 73.7706C79.1787 74.7592 79 75.9814 79 77C79 78.0186 79.1787 79.2408 79.4768 80.2294C79.6244 80.7191 79.8183 81.2095 80.0711 81.5997C80.2841 81.9284 80.7437 82.5 81.5 82.5H87.2268L87.4315 82.4021C88.7156 81.788 89.7186 80.4387 90.3527 79.4173C90.686 78.8804 90.9508 78.3783 91.1323 78.0107C91.134 78.0071 91.1358 78.0036 91.1375 78H99C99.5523 78 100 77.5523 100 77C100 76.4477 99.5523 76 99 76H91.1375Z" fill="black"/>
<path fill-rule="evenodd" clip-rule="evenodd" d="M82.7281 53.5H83.534C83.5718 53.6305 83.6121 53.7808 83.6527 53.9496C83.8247 54.6656 84 55.7116 84 57C84 58.2884 83.8247 59.3344 83.6527 60.0504C83.6121 60.2192 83.5718 60.3695 83.534 60.5H82.7281C82.7312 60.4809 82.7343 60.4617 82.7374 60.4422C82.8696 59.617 83 58.4387 83 57C83 55.5613 82.8696 54.383 82.7374 53.5578C82.7343 53.5383 82.7312 53.5191 82.7281 53.5ZM85.6016 60.5H86.75C87.4164 60.1008 88.091 59.2684 88.6536 58.3623C88.9442 57.8942 89.1779 57.4515 89.3389 57.1254C89.3607 57.0813 89.381 57.0394 89.4 57C89.381 56.9606 89.3607 56.9187 89.3389 56.8746C89.1779 56.5485 88.9442 56.1058 88.6536 55.6377C88.091 54.7316 87.4164 53.8992 86.75 53.5H85.6016C85.803 54.3438 86 55.5412 86 57C86 58.4588 85.803 59.6562 85.6016 60.5ZM91.1375 56C91.1358 55.9964 91.134 55.9929 91.1323 55.9893C90.9508 55.6217 90.686 55.1196 90.3527 54.5827C89.7186 53.5613 88.7156 52.212 87.4315 51.5979L87.2268 51.5H81.5C80.7437 51.5 80.2841 52.0716 80.0711 52.4003C79.8183 52.7905 79.6244 53.2809 79.4768 53.7706C79.1787 54.7592 79 55.9814 79 57C79 58.0186 79.1787 59.2408 79.4768 60.2294C79.6244 60.7191 79.8183 61.2095 80.0711 61.5997C80.2841 61.9284 80.7437 62.5 81.5 62.5H87.2268L87.4315 62.4021C88.7156 61.788 89.7186 60.4387 90.3527 59.4173C90.686 58.8804 90.9508 58.3783 91.1323 58.0107C91.134 58.0071 91.1358 58.0036 91.1375 58H99C99.5523 58 100 57.5523 100 57C100 56.4477 99.5523 56 99 56H91.1375Z" fill="black"/>
<path d="M89 32C89 32 96 38 96 45C96 45 96 37 88 37C88 37 87 34 89 32Z" fill="black"/>
<path fill-rule="evenodd" clip-rule="evenodd" d="M89.6508 31.2407L89 32C89.6508 31.2407 89.6505 31.2405 89.6508 31.2407L89.6538 31.2433L89.6593 31.2481L89.6778 31.2642C89.6935 31.2778 89.7155 31.2972 89.7436 31.3222C89.7998 31.3723 89.8802 31.4448 89.9812 31.5387C90.1833 31.7263 90.4685 31.9993 90.8091 32.3481C91.4894 33.0446 92.3964 34.0486 93.3051 35.2818C95.1032 37.7221 97 41.1841 97 45V165C97 165.552 96.5523 166 96 166C95.4477 166 95 165.552 95 165V45.0009L94.9999 44.9931C94.9997 44.9836 94.9994 44.9668 94.9986 44.9434C94.997 44.8966 94.9938 44.8234 94.9869 44.7275C94.9732 44.5353 94.9453 44.2543 94.8886 43.9144C94.7745 43.2299 94.5482 42.3325 94.1056 41.4472C93.6649 40.5658 93.0196 39.7149 92.0703 39.082C91.1273 38.4534 89.825 38 88 38H87.2792L87.0513 37.3162L88 37C87.0513 37.3162 87.0514 37.3166 87.0513 37.3162L87.0508 37.3146L87.0501 37.3127L87.0486 37.308L87.0445 37.2953C87.0414 37.2854 87.0373 37.2726 87.0326 37.257C87.0231 37.2257 87.0106 37.1831 86.9962 37.1303C86.9674 37.0247 86.9307 36.8773 86.8944 36.6961C86.8223 36.3357 86.75 35.8309 86.75 35.25C86.75 34.0958 87.0392 32.5465 88.2929 31.2929L88.9477 30.6381L89.6508 31.2407ZM88.9501 36.6879C88.9501 36.688 88.9501 36.688 88.9501 36.6879V36.6879ZM88.8076 36.0261C88.7749 35.8027 88.75 35.5379 88.75 35.25C88.75 34.6821 88.845 34.067 89.1333 33.4982C89.2106 33.5751 89.2925 33.6577 89.3784 33.7456C90.0106 34.3929 90.8536 35.3263 91.6949 36.4682C91.7561 36.5512 91.8171 36.6351 91.878 36.7199C90.9948 36.3481 89.9766 36.1032 88.8076 36.0261Z" fill="black"/>
<path fill-rule="evenodd" clip-rule="evenodd" d="M36.8622 90.5954C36.8866 90.8708 36.6831 91.1133 36.4077 91.1371L33.3796 91.3983L160.313 197.908L158.26 198.796L63.7419 119.486L62.3401 117.208L61.7913 119.515C61.7274 119.784 61.4574 119.95 61.1884 119.885C60.9193 119.821 60.753 119.551 60.817 119.282L61.261 117.415L30.1321 92.6062L31.8804 90.5226L36.3192 90.1398C36.5946 90.116 36.8378 90.32 36.8622 90.5954ZM62.0808 116.787L62.0838 116.792L31.5593 92.4649L32.1939 91.7087L62.0808 116.787Z" fill="black"/>
</svg>
