<svg width="192" height="224" viewBox="0 0 192 224" fill="none" xmlns="http://www.w3.org/2000/svg">
<g clip-path="url(#clip0)">
<path fill-rule="evenodd" clip-rule="evenodd" d="M16 40C16 35.5817 19.5817 32 24 32C28.4183 32 32 35.5817 32 40C32 44.4183 28.4183 48 24 48C19.5817 48 16 44.4183 16 40ZM36 40C36 35.5817 39.5817 32 44 32C48.4183 32 52 35.5817 52 40C52 44.4183 48.4183 48 44 48C39.5817 48 36 44.4183 36 40ZM64 52C59.5817 52 56 55.5817 56 60C56 64.4183 59.5817 68 64 68C68.4183 68 72 64.4183 72 60C72 55.5817 68.4183 52 64 52ZM56 40C56 35.5817 59.5817 32 64 32C68.4183 32 72 35.5817 72 40C72 44.4183 68.4183 48 64 48C59.5817 48 56 44.4183 56 40ZM84 52C79.5817 52 76 55.5817 76 60C76 64.4183 79.5817 68 84 68C88.4183 68 92 64.4183 92 60C92 55.5817 88.4183 52 84 52ZM76 40C76 35.5817 79.5817 32 84 32C88.4183 32 92 35.5817 92 40C92 44.4183 88.4183 48 84 48C79.5817 48 76 44.4183 76 40ZM64 72C59.5817 72 56 75.5817 56 80C56 84.4183 59.5817 88 64 88C68.4183 88 72 84.4183 72 80C72 75.5817 68.4183 72 64 72ZM36 60C36 55.5817 39.5817 52 44 52C48.4183 52 52 55.5817 52 60C52 64.4183 48.4183 68 44 68C39.5817 68 36 64.4183 36 60ZM24 52C19.5817 52 16 55.5817 16 60C16 64.4183 19.5817 68 24 68C28.4183 68 32 64.4183 32 60C32 55.5817 28.4183 52 24 52ZM16 80C16 75.5817 19.5817 72 24 72C28.4183 72 32 75.5817 32 80C32 84.4183 28.4183 88 24 88C19.5817 88 16 84.4183 16 80ZM44 72C39.5817 72 36 75.5817 36 80C36 84.4183 39.5817 88 44 88C48.4183 88 52 84.4183 52 80C52 75.5817 48.4183 72 44 72ZM76 80C76 75.5817 79.5817 72 84 72C88.4183 72 92 75.5817 92 80C92 84.4183 88.4183 88 84 88C79.5817 88 76 84.4183 76 80ZM104 52C99.5817 52 96 55.5817 96 60C96 64.4183 99.5817 68 104 68C108.418 68 112 64.4183 112 60C112 55.5817 108.418 52 104 52ZM96 40C96 35.5817 99.5817 32 104 32C108.418 32 112 35.5817 112 40C112 44.4183 108.418 48 104 48C99.5817 48 96 44.4183 96 40ZM104 72C99.5817 72 96 75.5817 96 80C96 84.4183 99.5817 88 104 88C108.418 88 112 84.4183 112 80C112 75.5817 108.418 72 104 72Z" fill="#DCEBF9"/>
<path fill-rule="evenodd" clip-rule="evenodd" d="M52.2284 50.5373C51.4607 50.3172 50.7268 50.5279 50.1218 50.8704C49.5209 51.2106 48.9537 51.7299 48.4333 52.3133C47.3889 53.4837 46.3684 55.1005 45.4844 56.6907C44.594 58.2925 43.814 59.919 43.2581 61.1409C43.0397 61.6209 42.8552 62.04 42.7114 62.3726L42.7092 62.3719L42.6035 62.6236L42.6022 62.6267C42.5251 62.8072 42.4653 62.9497 42.4246 63.0477C42.4042 63.0967 42.3885 63.1346 42.3779 63.1605L42.3684 63.1837L42.3654 63.1909C33.7598 83.6894 28.1641 102.974 24.659 124.941L24.6578 124.949L24.6541 124.971C24.6494 124.999 24.6425 125.039 24.6339 125.091C24.6165 125.196 24.5917 125.349 24.5614 125.542C24.5009 125.93 24.4184 126.484 24.3303 127.15C24.1542 128.481 23.9538 130.274 23.8601 132.104C23.767 133.921 23.7757 135.833 24.0411 137.379C24.1734 138.149 24.3792 138.89 24.7085 139.497C25.0401 140.108 25.5508 140.676 26.3185 140.896C27.0861 141.116 27.82 140.905 28.4251 140.563C29.026 140.223 29.5931 139.703 30.1136 139.12C31.1579 137.95 32.1784 136.333 33.0624 134.743C33.9528 133.141 34.7328 131.514 35.2887 130.292C35.5071 129.812 35.6916 129.393 35.8354 129.061L47.4799 132.4C57.569 135.293 65.0939 130.854 71.1324 126.282C72.2062 125.469 73.2191 124.664 74.1891 123.893L74.1892 123.893L74.1893 123.893L74.1893 123.893L74.1894 123.893C75.9985 122.455 77.6584 121.136 79.286 120.105C81.7623 118.535 83.8388 117.858 85.8169 118.425L90.195 119.681C90.1049 120.159 90.0138 120.782 89.9914 121.435C89.9673 122.137 90.0188 122.955 90.2961 123.682C90.5859 124.443 91.1504 125.156 92.1288 125.437C93.1073 125.717 93.9642 125.411 94.6128 124.92C95.2332 124.45 95.7106 123.784 96.062 123.176C96.3893 122.61 96.642 122.034 96.819 121.58L101.197 122.836C103.175 123.403 104.577 125.077 105.846 127.721C106.679 129.458 107.388 131.456 108.16 133.634L108.16 133.634C108.574 134.802 109.007 136.022 109.487 137.28C112.185 144.357 116.214 152.109 126.303 155.002L137.948 158.341C137.894 158.699 137.828 159.152 137.759 159.675C137.583 161.006 137.383 162.799 137.289 164.629C137.196 166.446 137.205 168.358 137.47 169.904C137.602 170.674 137.808 171.415 138.137 172.022C138.469 172.633 138.98 173.201 139.747 173.421C140.515 173.641 141.249 173.431 141.854 173.088C142.455 172.748 143.022 172.229 143.543 171.645C144.587 170.475 145.607 168.858 146.491 167.268C147.382 165.666 148.162 164.04 148.718 162.818C148.996 162.206 149.219 161.693 149.374 161.332C149.451 161.151 149.51 161.009 149.551 160.911L149.569 160.868L149.598 160.798L149.609 160.771L149.61 160.768L149.612 160.765C150.605 158.424 151.557 156.099 152.469 153.784C152.512 153.703 152.553 153.624 152.593 153.548C152.815 153.123 152.997 152.767 153.122 152.517C153.185 152.392 153.234 152.294 153.268 152.226L153.306 152.148L153.316 152.127L153.319 152.122L153.32 152.12L153.32 152.12C153.32 152.12 153.32 152.12 153.15 152.037L153.32 152.12L153.334 152.091L153.346 152.062C159.337 137.533 163.252 123.878 165.871 108.382L165.872 108.377L165.675 108.344C165.872 108.377 165.872 108.377 165.872 108.377L165.872 108.376L165.872 108.374L165.873 108.368L165.877 108.346L165.891 108.261C165.902 108.186 165.919 108.078 165.94 107.941C165.981 107.667 166.038 107.276 166.101 106.805C166.181 106.214 166.27 105.494 166.349 104.722C166.687 102.841 167.009 100.943 167.316 99.0238L167.316 99.0193L167.322 98.9876C167.326 98.96 167.333 98.9196 167.342 98.8672C167.359 98.7625 167.384 98.6099 167.414 98.416C167.475 98.0284 167.557 97.475 167.646 96.8084C167.822 95.4776 168.022 93.6849 168.116 91.8546C168.209 90.0377 168.2 88.1258 167.935 86.5797C167.802 85.8092 167.597 85.0683 167.267 84.4614C166.936 83.8503 166.425 83.2827 165.657 83.0626C164.89 82.8424 164.156 83.0531 163.551 83.3957C162.95 83.7359 162.383 84.2552 161.862 84.8385C160.818 86.009 159.797 87.6258 158.913 89.2159C158.023 90.8177 157.243 92.4442 156.687 93.6661C156.469 94.1461 156.284 94.5652 156.14 94.8978L144.495 91.5587C134.389 88.6606 126.787 93.3626 120.69 98.1687C119.605 99.0234 118.581 99.8698 117.6 100.681L117.6 100.681C115.768 102.195 114.085 103.586 112.44 104.676C109.93 106.339 107.845 107.057 105.883 106.494L101.483 105.233C101.539 104.857 101.582 104.395 101.571 103.907C101.544 102.763 101.172 100.982 99.2954 100.444C97.4192 99.9061 96.1599 101.219 95.5304 102.175C95.2623 102.582 95.0545 102.998 94.9023 103.346L90.5028 102.084C88.541 101.521 87.1532 99.8076 85.9057 97.0672C85.0879 95.2707 84.398 93.2 83.6468 90.9453C83.2444 89.7374 82.8243 88.4767 82.3576 87.1771C79.7336 79.8703 75.7788 71.8545 65.672 68.9564L54.0275 65.6174C54.0818 65.2592 54.1474 64.806 54.2166 64.2831C54.3926 62.9523 54.5931 61.1597 54.6868 59.3294C54.7798 57.5125 54.7711 55.6005 54.5057 54.0545C54.3734 53.284 54.1677 52.5431 53.8384 51.9361C53.5068 51.325 52.996 50.7574 52.2284 50.5373ZM165.575 97.185C165.603 96.9872 165.633 96.7734 165.663 96.5461C165.835 95.2459 166.028 93.5105 166.118 91.7524C166.209 89.981 166.191 88.2442 165.963 86.9181C165.849 86.2525 165.692 85.7515 165.509 85.4152C165.329 85.0831 165.18 85.0061 165.106 84.9851C165.033 84.964 164.865 84.9499 164.536 85.1361C164.203 85.3246 163.804 85.6661 163.355 86.17C162.459 87.174 161.523 88.6373 160.661 90.1876C159.806 91.7263 159.051 93.3006 158.507 94.4943C158.236 95.0901 158.019 95.5887 157.87 95.9374C157.796 96.1118 157.739 96.2485 157.7 96.3411L157.657 96.4461L157.646 96.4721L157.643 96.4783L157.643 96.4796L157.643 96.4798L157.643 96.4798L157.64 96.4856C149.202 116.875 143.71 136.027 140.062 157.789L140.061 157.796L140.061 157.796L140.061 157.796L140.061 157.797L140.059 157.804L140.055 157.832L140.036 157.944C140.019 158.043 139.996 158.189 139.966 158.376C139.908 158.751 139.828 159.289 139.742 159.938C139.57 161.238 139.376 162.973 139.286 164.731C139.196 166.503 139.214 168.239 139.441 169.566C139.555 170.231 139.713 170.732 139.895 171.069C140.076 171.401 140.225 171.478 140.299 171.499C140.372 171.52 140.54 171.534 140.869 171.348C141.202 171.159 141.601 170.818 142.05 170.314C142.946 169.31 143.881 167.846 144.743 166.296C145.599 164.757 146.354 163.183 146.897 161.989C147.063 161.625 147.208 161.298 147.33 161.018C146.994 161.195 146.55 161.328 146.064 161.188C145.361 160.987 145.059 160.366 144.928 159.963C144.784 159.521 144.726 158.994 144.709 158.472C144.673 157.412 144.796 156.092 144.964 154.839C145.133 153.574 145.356 152.33 145.535 151.406C145.624 150.942 145.703 150.557 145.76 150.287C145.789 150.152 145.812 150.046 145.828 149.973L145.846 149.889L145.851 149.867L145.851 149.867C149.027 134.559 152.935 120.93 158.354 106.265L158.362 106.245L158.37 106.226L159.292 106.612C158.37 106.226 158.37 106.226 158.37 106.225L158.37 106.225L158.371 106.223L158.373 106.218L158.382 106.197L158.416 106.117C158.445 106.048 158.488 105.948 158.543 105.82C158.653 105.566 158.812 105.204 159.008 104.771C159.4 103.907 159.941 102.755 160.539 101.614C161.131 100.483 161.799 99.3218 162.445 98.462C162.764 98.0373 163.115 97.6355 163.485 97.3499C163.817 97.0933 164.404 96.7473 165.091 96.9441C165.279 96.9981 165.439 97.0826 165.575 97.185ZM148.319 160.235L149.609 160.771L148.688 160.38L148.322 160.232C148.321 160.233 148.32 160.234 148.319 160.235ZM164.368 104.443C161.312 121.432 156.939 136.96 150.649 152.947C150.236 153.727 149.712 154.682 149.151 155.622C148.503 156.708 147.827 157.737 147.229 158.455C147.05 158.67 146.89 158.842 146.752 158.973C146.731 158.818 146.715 158.629 146.707 158.405C146.678 157.516 146.782 156.329 146.946 155.105C147.109 153.892 147.323 152.689 147.498 151.786C147.585 151.335 147.662 150.961 147.717 150.7C147.745 150.57 147.767 150.468 147.782 150.399L147.799 150.321L147.803 150.302L147.804 150.297L147.804 150.296L147.804 150.296L147.805 150.296L147.806 150.288L147.808 150.281C150.962 135.074 154.841 121.545 160.223 106.979L160.225 106.974L160.256 106.9C160.284 106.835 160.325 106.738 160.378 106.615C160.485 106.369 160.64 106.017 160.83 105.596C161.212 104.752 161.737 103.638 162.31 102.542C162.889 101.437 163.497 100.391 164.044 99.6635C164.196 99.4604 164.333 99.2972 164.452 99.1707C164.486 99.341 164.516 99.5519 164.538 99.8051C164.616 100.712 164.577 101.921 164.482 103.165C164.449 103.596 164.41 104.026 164.368 104.443ZM52.0884 65.0614C52.1325 64.7625 52.1821 64.4118 52.2339 64.0209C52.4059 62.7207 52.5994 60.9853 52.6894 59.2272C52.7801 57.4557 52.7622 55.719 52.5345 54.3929C52.4203 53.7273 52.2629 53.2262 52.0805 52.89C51.9002 52.5578 51.7506 52.4809 51.6771 52.4599C51.6036 52.4388 51.4359 52.4247 51.1071 52.6109C50.7742 52.7994 50.3752 53.1409 49.9256 53.6448C49.0298 54.6488 48.0943 56.1121 47.2325 57.6624C46.3772 59.2011 45.6217 60.7754 45.0786 61.9691C44.9152 62.3281 44.7715 62.6517 44.6505 62.9286L52.0884 65.0614ZM33.8963 128.505L26.4584 126.372C26.4144 126.671 26.3647 127.021 26.313 127.412C26.141 128.713 25.9475 130.448 25.8574 132.206C25.7668 133.977 25.7846 135.714 26.0123 137.04C26.1266 137.706 26.2839 138.207 26.4664 138.543C26.6466 138.875 26.7963 138.952 26.8697 138.973C26.9432 138.994 27.1109 139.009 27.4397 138.822C27.7727 138.634 28.1716 138.292 28.6212 137.788C29.517 136.784 30.4525 135.321 31.3143 133.771C32.1697 132.232 32.9252 130.658 33.4683 129.464C33.6316 129.105 33.7753 128.782 33.8963 128.505ZM92.3391 119.262L92.3408 119.256L92.3409 119.256L92.3409 119.255L92.341 119.255L92.3411 119.255L92.6164 118.295L91.6551 118.019L86.3682 116.503C83.54 115.692 80.8244 116.762 78.2153 118.415C76.5021 119.501 74.6937 120.937 72.8237 122.422L72.8237 122.422L72.8232 122.423C71.8716 123.178 70.9042 123.946 69.9252 124.688C64.0046 129.17 57.1674 133.097 48.0312 130.477L26.7749 124.382C30.2148 103.232 35.6281 84.5638 43.8668 64.7845L65.1207 70.8789C74.2392 73.4936 77.8934 80.6634 80.4753 87.8531C80.9023 89.042 81.3045 90.2476 81.6998 91.4328L81.6999 91.4329L81.6999 91.4329L81.6999 91.433L81.6999 91.433C82.4761 93.7598 83.226 96.0079 84.0854 97.8958C85.3909 100.764 87.1069 103.191 89.9515 104.007L95.2384 105.523L96.1997 105.798L96.4748 104.839L96.4749 104.839L96.475 104.838L96.4752 104.837L96.4753 104.837L96.4757 104.836L96.4824 104.814C96.4888 104.793 96.4994 104.76 96.5142 104.716C96.5437 104.628 96.5894 104.499 96.6514 104.345C96.7773 104.033 96.9616 103.638 97.201 103.275C97.7236 102.481 98.2172 102.215 98.7441 102.367C99.2711 102.518 99.5491 103.004 99.5715 103.954C99.5818 104.39 99.5292 104.822 99.4704 105.153C99.4415 105.317 99.412 105.45 99.3904 105.54C99.3797 105.585 99.371 105.619 99.3654 105.641L99.3595 105.662L99.3591 105.664L99.3589 105.664L99.3588 105.665L99.3586 105.665L99.3585 105.666L99.0835 106.625L100.045 106.901L105.332 108.417C108.176 109.232 110.918 108.083 113.545 106.343C115.274 105.197 117.101 103.688 118.992 102.126L118.992 102.126L118.995 102.125C119.957 101.33 120.936 100.521 121.928 99.7394C127.927 95.0104 134.826 90.8665 143.944 93.4812L155.366 96.7563C147.252 116.555 141.887 135.265 138.276 156.355L126.855 153.079C117.718 150.46 114.001 143.506 111.356 136.568C110.918 135.42 110.505 134.256 110.098 133.111C109.299 130.86 108.526 128.684 107.649 126.855C106.313 124.07 104.577 121.724 101.748 120.913L96.4614 119.397L95.5002 119.121L95.2248 120.082L95.2247 120.082L95.2247 120.082L95.2246 120.082L95.2245 120.083L95.2228 120.089L95.2132 120.121C95.2102 120.13 95.2066 120.142 95.2025 120.155C95.1992 120.166 95.1956 120.177 95.1917 120.19L95.1711 120.254C95.1328 120.371 95.0748 120.541 94.9979 120.744C94.8424 121.154 94.6168 121.68 94.3306 122.175C94.0371 122.683 93.7193 123.088 93.4055 123.326C93.1197 123.542 92.9032 123.578 92.6801 123.514C92.4569 123.45 92.2926 123.305 92.1649 122.97C92.0246 122.602 91.9701 122.09 91.9902 121.504C92.0098 120.932 92.0971 120.367 92.1825 119.937C92.2249 119.724 92.2657 119.549 92.2955 119.429L92.3113 119.367C92.319 119.337 92.3254 119.312 92.3303 119.294L92.3391 119.262ZM164.812 98.8643C164.812 98.8648 164.807 98.8675 164.798 98.8708C164.808 98.8655 164.812 98.8639 164.812 98.8643ZM164.309 98.7202C164.309 98.7206 164.312 98.7254 164.318 98.7332C164.315 98.7278 164.313 98.7242 164.311 98.7222C164.31 98.7206 164.31 98.72 164.309 98.7202ZM146.373 159.261C146.373 159.261 146.377 159.259 146.385 159.256C146.377 159.26 146.373 159.261 146.373 159.261ZM146.861 159.424C146.866 159.432 146.869 159.437 146.868 159.438C146.868 159.438 146.866 159.434 146.861 159.424Z" fill="black"/>
<path d="M38.759 75.8035L77.1922 105.029L145.99 126.317L76.0896 108.874L28.2848 112.331" stroke="black" stroke-miterlimit="1.88813" stroke-linecap="round" stroke-dasharray="1 2"/>
<path d="M29.2461 112.607L73.4537 136.206L139.092 157.629L72.0755 141.013L28.3277 139.391" stroke="black" stroke-miterlimit="1.88813" stroke-linecap="round" stroke-dasharray="1 2"/>
<path d="M53.135 52.8778L91.0944 74.6857L156.732 96.1078L89.7162 79.492L38.759 75.8033" stroke="black" stroke-miterlimit="1.88813" stroke-linecap="round" stroke-dasharray="1 2"/>
<path d="M66.3183 128.439L109.306 134.524" stroke="black" stroke-miterlimit="1.88813" stroke-linecap="round" stroke-dasharray="1 2"/>
<path d="M79.5488 82.2982L118.954 100.879" stroke="black" stroke-miterlimit="1.88813" stroke-linecap="round" stroke-dasharray="1 2"/>
<path d="M52.7922 52.2594L163.337 83.9577" stroke="black" stroke-miterlimit="1.88813" stroke-linecap="round" stroke-dasharray="1 2"/>
<path d="M27.7092 139.734L138.254 171.433" stroke="black" stroke-miterlimit="1.88813" stroke-linecap="round" stroke-dasharray="1 2"/>
<path d="M74.7646 109.867L76.5945 103.485C76.7649 102.891 77.4278 102.592 77.9857 102.858L87.1389 107.216C87.5803 107.426 87.805 107.925 87.6703 108.395L86.7591 111.573C86.6244 112.042 86.1696 112.346 85.684 112.29L75.612 111.136C74.998 111.066 74.5942 110.461 74.7646 109.867Z" fill="black"/>
<path d="M71.0002 141.134L72.6062 135.534C72.7675 134.971 73.3749 134.667 73.922 134.874L83.3049 138.432C83.7912 138.616 84.055 139.142 83.9116 139.642L82.7651 143.641C82.6217 144.141 82.1191 144.447 81.6089 144.346L71.7666 142.391C71.1928 142.277 70.839 141.697 71.0002 141.134Z" fill="black"/>
<path d="M88.6411 79.6135L90.2471 74.0128C90.4083 73.4505 91.0158 73.146 91.5628 73.3534L100.946 76.9108C101.432 77.0952 101.696 77.6216 101.553 78.1215L100.406 82.1201C100.263 82.6201 99.7599 82.9267 99.2498 82.8253L89.4075 80.87C88.8337 80.756 88.4798 80.1759 88.6411 79.6135Z" fill="black"/>
<rect x="26.9133" y="109.858" width="4" height="4" rx="2" transform="rotate(16 26.9133 109.858)" fill="black"/>
<rect width="4" height="4" rx="2" transform="matrix(0.961261 0.275638 -0.275636 0.961262 37.3877 73.3296)" fill="black"/>
<rect x="144.618" y="123.843" width="4" height="4" rx="2" transform="rotate(16 144.618 123.843)" fill="black"/>
<rect width="4" height="4" rx="2" transform="matrix(0.961261 0.275638 -0.275637 0.961262 155.361 93.634)" fill="black"/>
<rect width="4" height="4" rx="2" transform="matrix(0.961262 0.275636 -0.275639 0.961261 137.72 155.155)" fill="black"/>
<path fill-rule="evenodd" clip-rule="evenodd" d="M101.253 171.392C101.145 170.886 101.016 170.248 101.111 169.695C101.157 169.431 101.251 169.212 101.404 169.043C101.555 168.876 101.796 168.721 102.2 168.635C102.604 168.549 102.888 168.593 103.093 168.684C103.303 168.776 103.477 168.938 103.626 169.16C103.939 169.626 104.08 170.263 104.187 170.768C104.295 171.274 104.424 171.912 104.329 172.465C104.283 172.729 104.19 172.948 104.036 173.118C103.885 173.284 103.644 173.44 103.24 173.525C102.836 173.611 102.552 173.568 102.347 173.477C102.137 173.384 101.963 173.223 101.814 173C101.502 172.534 101.36 171.898 101.253 171.392ZM101.992 167.657C101.418 167.779 100.978 168.024 100.663 168.371C100.351 168.716 100.195 169.126 100.126 169.525C99.9946 170.284 100.167 171.096 100.269 171.572L100.269 171.572L100.275 171.6L100.281 171.628L100.281 171.628C100.382 172.104 100.554 172.916 100.983 173.556C101.208 173.893 101.517 174.203 101.943 174.391C102.371 174.581 102.874 174.626 103.448 174.504C104.022 174.382 104.462 174.136 104.777 173.789C105.089 173.444 105.245 173.034 105.314 172.635C105.445 171.876 105.273 171.065 105.171 170.588L105.171 170.588L105.165 170.56L105.16 170.533L105.16 170.533C105.058 170.056 104.886 169.244 104.457 168.604C104.232 168.268 103.923 167.957 103.498 167.769C103.069 167.579 102.566 167.535 101.992 167.657ZM30.618 185.383C30.2329 185.976 30.4408 186.955 31.0338 187.34C31.0338 187.34 31.6269 187.725 33.094 187.413L33.9682 186.716L100.378 172.089L100.17 171.111L33.5524 184.76L32.4703 184.479C31.003 184.79 30.618 185.383 30.618 185.383Z" fill="black"/>
<path d="M46.4457 189.953C45.8886 189.518 45.6638 187.53 46.0991 186.973L65.9311 184.538C65.9311 184.538 67.9772 184.791 69.9623 184.547L116.673 179.315L116.795 180.308L70.206 186.532C68.2209 186.776 66.2967 187.516 66.2967 187.516L46.4457 189.953Z" fill="black"/>
</g>
<defs>
<clipPath id="clip0">
<rect width="192" height="224" fill="white"/>
</clipPath>
</defs>
</svg>
