<svg width="192" height="224" viewBox="0 0 192 224" fill="none" xmlns="http://www.w3.org/2000/svg">
<g clip-path="url(#clip0)">
<path d="M165.24 53.429C240.841 143.527 123.878 101.19 102.724 118.94C81.5702 136.69 84.022 232.832 27.352 169.131C-29.318 105.429 68.7144 121.37 89.8681 103.619C111.022 85.8693 89.639 -36.6687 165.24 53.429Z" fill="#D4F7F7"/>
</g>
<circle cx="96" cy="114" r="57" stroke="black" stroke-width="2"/>
<path d="M80 59C80 59 90 45 96 45C102 45 112 59 112 59" stroke="black" stroke-miterlimit="1.88813" stroke-linecap="round" stroke-dasharray="1 2"/>
<path d="M97.4998 114C97.4998 115 96.8282 115.5 95.9998 115.5C95.1714 115.5 94.7007 114.804 94.4998 114C94.2315 112.927 95.0137 112.069 96 111.5C97.7414 110.496 99.9475 112.067 100.5 114C101.183 116.39 98.4852 118.5 96 118.5C93.5147 118.5 91.7471 116.473 91.4998 114C91.2237 111.239 93.3126 109.193 96 108.5C99.5171 107.593 102.948 110.41 103.5 114C104.13 118.094 100.142 121.5 95.9998 121.5C91.8577 121.5 88.7582 118.134 88.4998 114C88.2237 109.582 91.6349 106.237 96 105.5C101.202 104.622 105.948 108.753 106.5 114C107.107 119.767 101.799 124.5 95.9998 124.5C90.2008 124.5 85.7631 119.793 85.4998 114C85.2237 107.925 89.9662 103.26 96 102.5C102.871 101.635 108.948 107.097 109.5 114C110.094 121.432 103.456 127.5 95.9998 127.5C88.544 127.5 82.7659 121.451 82.4998 114C82.2237 106.268 88.3018 100.273 96 99.5C104.535 98.6427 111.948 105.44 112.5 114C113.087 123.094 105.113 130.5 95.9998 130.5C86.8871 130.5 79.7677 123.109 79.4998 114C79.2237 104.611 86.6397 97.2824 96 96.5C106.197 95.6477 114.948 103.783 115.5 114C116.081 124.754 106.769 133.5 95.9998 133.5C85.2303 133.5 76.769 124.766 76.4998 114C76.2237 102.954 84.979 94.2889 96 93.5C107.857 92.6513 117.948 102.126 118.5 114C119.077 126.413 108.426 136.5 95.9998 136.5C83.5734 136.5 73.7699 126.423 73.4998 114C73.2237 101.297 83.3192 91.2938 96 90.5C109.516 89.6539 120.948 100.469 121.5 114C122.074 128.072 110.083 139.5 95.9998 139.5C81.9166 139.5 70.7706 128.081 70.4998 114C70.2237 99.6405 81.6601 88.2977 96 87.5C111.174 86.6559 123.948 98.8122 124.5 114C125.072 129.73 111.74 142.5 95.9998 142.5C80.2597 142.5 67.7712 129.738 67.4998 114C67.2237 97.9837 80.0014 85.3007 96.0001 84.5C112.833 83.6576 126.948 97.1554 127.5 114C128.07 131.388 113.397 145.5 95.9998 145.5C78.6028 145.5 64.7716 131.395 64.4998 114C64.2237 96.3268 78.343 82.3032 96 81.5C114.491 80.6588 129.948 95.4985 130.5 114C131.068 133.045 115.054 148.5 95.9998 148.5C76.946 148.5 61.772 133.052 61.4998 114C61.2237 94.67 76.6849 79.3053 96.0001 78.5C116.148 77.66 132.948 93.8417 133.5 114C134.067 134.703 116.71 151.5 95.9998 151.5C75.2891 151.5 58.7723 134.709 58.4998 114C58.2237 93.0131 75.0269 76.3071 96 75.5C117.806 74.6609 135.948 92.1848 136.5 114C137.066 136.36 118.367 154.5 95.9998 154.5C73.6323 154.5 55.7726 136.366 55.4998 114C55.2237 91.3562 73.3691 73.3086 96.0001 72.5C119.464 71.6617 138.948 90.528 139.5 114C140.065 138.018 120.024 157.5 95.9998 157.5C71.9754 157.5 52.7728 138.023 52.4998 114C52.2237 89.6994 71.7114 70.3099 96.0001 69.5C121.121 68.6624 141.948 88.8711 142.5 114C143.064 139.675 121.681 160.5 95.9998 160.5C70.3186 160.5 49.773 139.68 49.4998 114C49.2237 88.0426 70.0538 67.3111 96 66.5C122.778 65.6629 144.948 87.2142 145.5 114C146.063 141.332 123.338 163.5 95.9998 163.5C68.6617 163.5 46.7732 141.337 46.4998 114C46.2237 86.3857 68.3964 64.312 96.0001 63.5C124.436 62.6635 147.948 85.5574 148.5 114C149.063 142.989 124.995 166.5 95.9998 166.5C67.0049 166.5 43.7734 142.994 43.4998 114C43.2237 84.7288 66.7389 61.3129 96.0001 60.5C126.093 59.664 150.948 83.9006 151.5 114C152.062 144.647 126.652 169.5 95.9998 169.5C65.348 169.5 40.7735 144.651 40.4998 114C40.2237 83.072 65.0816 58.3137 96.0001 57.5" stroke="black" stroke-linecap="round"/>
<path fill-rule="evenodd" clip-rule="evenodd" d="M161.791 186.523L161.61 185.052C161.525 184.361 161.326 183.712 161.034 183.121C160.888 183.119 160.744 183.053 160.647 182.929C160.522 182.768 160.511 182.554 160.601 182.385C160.391 182.08 160.154 181.796 159.894 181.537C159.719 181.566 159.535 181.501 159.418 181.351C159.343 181.255 159.309 181.14 159.313 181.027C158.108 180.1 156.552 179.628 154.923 179.828C154.759 179.848 154.597 179.875 154.438 179.908C154.496 179.94 154.549 179.984 154.593 180.04C154.763 180.258 154.724 180.572 154.506 180.742C154.288 180.911 153.974 180.872 153.804 180.654C153.672 180.485 153.667 180.257 153.773 180.085C151.942 180.687 150.537 182.132 149.951 183.915C149.993 184.083 149.945 184.266 149.817 184.392C149.655 185.068 149.61 185.784 149.699 186.514L149.905 188.186C149.937 188.125 149.982 188.07 150.04 188.025C150.257 187.855 150.572 187.894 150.741 188.112C150.911 188.33 150.872 188.644 150.654 188.814C150.448 188.975 150.155 188.948 149.981 188.76C150.328 190.844 151.724 192.514 153.555 193.293C153.499 193.102 153.561 192.888 153.728 192.758C153.945 192.588 154.26 192.627 154.429 192.845C154.599 193.063 154.56 193.377 154.342 193.547C154.336 193.551 154.331 193.556 154.325 193.56C154.986 193.74 155.688 193.808 156.407 193.747C156.286 193.535 156.336 193.261 156.534 193.106C156.752 192.936 157.066 192.975 157.236 193.193C157.328 193.312 157.359 193.458 157.333 193.595C159.153 193.149 160.611 191.889 161.356 190.263C161.29 190.23 161.229 190.182 161.18 190.12C161.01 189.902 161.049 189.588 161.267 189.418C161.393 189.32 161.551 189.292 161.694 189.327C161.851 188.746 161.921 188.133 161.893 187.505C161.755 187.496 161.62 187.431 161.528 187.313C161.359 187.095 161.398 186.781 161.616 186.611C161.669 186.569 161.729 186.54 161.791 186.523ZM154.68 177.843C150.294 178.381 147.176 182.373 147.714 186.758L147.714 186.758L147.714 186.758L89.154 193.949C88.6059 194.016 88.216 194.515 88.2833 195.063C88.3507 195.611 88.8496 196.001 89.3978 195.934L147.958 188.743L147.958 188.743C148.497 193.129 152.488 196.247 156.873 195.709C161.259 195.17 164.377 191.179 163.839 186.793L163.595 184.808C163.057 180.423 159.065 177.304 154.68 177.843ZM156.883 190.299C156.665 190.469 156.626 190.783 156.796 191.001C156.965 191.219 157.28 191.258 157.497 191.088C157.715 190.918 157.754 190.604 157.584 190.386C157.415 190.169 157.101 190.13 156.883 190.299ZM158.025 192.579C157.855 192.361 157.894 192.047 158.112 191.877C158.33 191.707 158.644 191.746 158.814 191.964C158.984 192.182 158.945 192.496 158.727 192.666C158.509 192.835 158.195 192.796 158.025 192.579ZM158.46 189.07C158.242 189.24 158.203 189.554 158.373 189.772C158.543 189.99 158.857 190.029 159.075 189.859C159.293 189.689 159.332 189.375 159.162 189.157C158.992 188.939 158.678 188.9 158.46 189.07ZM159.602 191.349C159.433 191.132 159.472 190.817 159.689 190.648C159.907 190.478 160.221 190.517 160.391 190.735C160.561 190.953 160.522 191.267 160.304 191.437C160.086 191.606 159.772 191.567 159.602 191.349ZM159.951 188.542C159.781 188.325 159.82 188.01 160.038 187.841C160.256 187.671 160.57 187.71 160.74 187.928C160.909 188.146 160.87 188.46 160.653 188.629C160.435 188.799 160.121 188.76 159.951 188.542ZM154.424 187.144C154.206 187.314 154.167 187.628 154.337 187.846C154.507 188.064 154.821 188.103 155.039 187.933C155.257 187.763 155.296 187.449 155.126 187.231C154.956 187.013 154.642 186.974 154.424 187.144ZM155.566 189.423C155.397 189.206 155.436 188.891 155.653 188.722C155.871 188.552 156.185 188.591 156.355 188.809C156.525 189.027 156.486 189.341 156.268 189.51C156.05 189.68 155.736 189.641 155.566 189.423ZM157.231 187.493C157.013 187.662 156.974 187.976 157.144 188.194C157.314 188.412 157.628 188.451 157.846 188.281C158.063 188.112 158.102 187.797 157.933 187.58C157.763 187.362 157.449 187.323 157.231 187.493ZM158.722 186.965C158.552 186.747 158.591 186.433 158.809 186.263C159.026 186.093 159.341 186.132 159.51 186.35C159.68 186.568 159.641 186.882 159.423 187.052C159.205 187.222 158.891 187.183 158.722 186.965ZM157.579 184.685C157.362 184.855 157.323 185.169 157.492 185.387C157.662 185.605 157.976 185.644 158.194 185.474C158.412 185.305 158.451 184.99 158.281 184.773C158.111 184.555 157.797 184.516 157.579 184.685ZM155.914 186.617C155.745 186.399 155.784 186.085 156.002 185.915C156.219 185.745 156.534 185.784 156.703 186.002C156.873 186.22 156.834 186.534 156.616 186.704C156.398 186.873 156.084 186.835 155.914 186.617ZM151.966 183.989C151.748 184.159 151.709 184.473 151.878 184.691C152.048 184.908 152.362 184.947 152.58 184.778C152.798 184.608 152.837 184.294 152.667 184.076C152.498 183.858 152.183 183.819 151.966 183.989ZM153.108 186.268C152.938 186.05 152.977 185.736 153.195 185.567C153.413 185.397 153.727 185.436 153.897 185.654C154.066 185.871 154.027 186.186 153.809 186.355C153.592 186.525 153.277 186.486 153.108 186.268ZM155.305 191.529C155.087 191.698 155.048 192.013 155.218 192.23C155.388 192.448 155.702 192.487 155.92 192.317C156.138 192.148 156.177 191.834 156.007 191.616C155.837 191.398 155.523 191.359 155.305 191.529ZM152.847 188.373C152.629 188.543 152.59 188.857 152.759 189.075C152.929 189.293 153.243 189.332 153.461 189.162C153.679 188.992 153.718 188.678 153.548 188.46C153.379 188.243 153.064 188.204 152.847 188.373ZM153.989 190.653C153.819 190.435 153.858 190.121 154.076 189.951C154.294 189.781 154.608 189.82 154.778 190.038C154.947 190.256 154.908 190.57 154.691 190.74C154.473 190.91 154.159 190.871 153.989 190.653ZM151.617 186.796C151.399 186.966 151.36 187.28 151.53 187.498C151.7 187.715 152.014 187.754 152.232 187.585C152.45 187.415 152.489 187.101 152.319 186.883C152.149 186.665 151.835 186.626 151.617 186.796ZM150.301 185.92C150.131 185.702 150.17 185.388 150.388 185.218C150.606 185.049 150.92 185.087 151.09 185.305C151.259 185.523 151.22 185.837 151.003 186.007C150.785 186.177 150.471 186.138 150.301 185.92ZM154.772 184.337C154.554 184.507 154.515 184.821 154.685 185.039C154.855 185.257 155.169 185.296 155.387 185.126C155.605 184.956 155.644 184.642 155.474 184.424C155.304 184.207 154.99 184.168 154.772 184.337ZM156.263 183.81C156.093 183.592 156.132 183.278 156.35 183.108C156.568 182.938 156.882 182.977 157.052 183.195C157.221 183.413 157.182 183.727 156.965 183.897C156.747 184.066 156.433 184.027 156.263 183.81ZM155.121 181.53C154.903 181.7 154.864 182.014 155.034 182.232C155.203 182.45 155.518 182.489 155.735 182.319C155.953 182.149 155.992 181.835 155.822 181.617C155.653 181.4 155.339 181.361 155.121 181.53ZM160.299 185.735C160.129 185.518 160.168 185.204 160.386 185.034C160.604 184.864 160.918 184.903 161.088 185.121C161.258 185.339 161.219 185.653 161.001 185.823C160.783 185.992 160.469 185.953 160.299 185.735ZM159.157 183.456C158.939 183.626 158.9 183.94 159.07 184.158C159.24 184.376 159.554 184.415 159.772 184.245C159.989 184.075 160.028 183.761 159.859 183.543C159.689 183.325 159.375 183.286 159.157 183.456ZM157.841 182.58C157.671 182.362 157.71 182.048 157.928 181.879C158.145 181.709 158.46 181.748 158.629 181.966C158.799 182.183 158.76 182.498 158.542 182.667C158.324 182.837 158.01 182.798 157.841 182.58ZM156.698 180.301C156.48 180.471 156.442 180.785 156.611 181.003C156.781 181.221 157.095 181.26 157.313 181.09C157.531 180.92 157.57 180.606 157.4 180.388C157.23 180.17 156.916 180.131 156.698 180.301ZM150.649 183.113C150.479 182.895 150.518 182.581 150.736 182.411C150.954 182.242 151.268 182.281 151.438 182.498C151.608 182.716 151.569 183.03 151.351 183.2C151.133 183.37 150.819 183.331 150.649 183.113ZM151.182 190.304C151.012 190.087 151.051 189.772 151.269 189.603C151.487 189.433 151.801 189.472 151.971 189.69C152.14 189.908 152.101 190.222 151.884 190.392C151.666 190.561 151.352 190.522 151.182 190.304ZM152.498 191.18C152.28 191.35 152.241 191.664 152.411 191.882C152.581 192.1 152.895 192.139 153.113 191.969C153.331 191.799 153.37 191.485 153.2 191.267C153.03 191.05 152.716 191.011 152.498 191.18ZM153.456 183.461C153.286 183.244 153.325 182.929 153.543 182.76C153.761 182.59 154.075 182.629 154.245 182.847C154.414 183.065 154.375 183.379 154.158 183.549C153.94 183.718 153.626 183.679 153.456 183.461ZM152.314 181.182C152.096 181.352 152.057 181.666 152.227 181.884C152.396 182.102 152.71 182.141 152.928 181.971C153.146 181.801 153.185 181.487 153.015 181.269C152.846 181.051 152.531 181.012 152.314 181.182Z" fill="black"/>
<defs>
<clipPath id="clip0">
<rect width="192" height="224" fill="white"/>
</clipPath>
</defs>
</svg>
