<svg width="192" height="224" viewBox="0 0 192 224" fill="none" xmlns="http://www.w3.org/2000/svg">
<path fill-rule="evenodd" clip-rule="evenodd" d="M133 64C121.954 64 113 55.0457 113 44C113 32.9543 121.954 24 133 24C144.046 24 153 32.9543 153 44C153 55.0457 144.046 64 133 64ZM164 103C152.954 103 144 94.0457 144 83C144 71.9543 152.954 63 164 63C175.046 63 184 71.9543 184 83C184 94.0457 175.046 103 164 103ZM95 91C95 102.046 103.954 111 115 111C126.046 111 135 102.046 135 91C135 79.9543 126.046 71 115 71C103.954 71 95 79.9543 95 91Z" fill="#D4F7E5"/>
<path fill-rule="evenodd" clip-rule="evenodd" d="M67.6116 69.8572C73.4958 67.3682 80.3035 66.3864 87.5825 67.3775C83.94 67.4678 80.3465 68.0925 76.8916 69.2092C76.9051 69.1975 76.9181 69.185 76.9305 69.1717L77.6886 68.3585C77.877 68.1566 77.8659 67.8402 77.6639 67.6519C77.4619 67.4635 77.1455 67.4746 76.9572 67.6766L76.1991 68.4898C76.0107 68.6918 76.0218 69.0082 76.2238 69.1965C76.31 69.2769 76.4171 69.3209 76.5262 69.3293C75.3006 69.7389 74.093 70.2106 72.9074 70.7424C72.9246 70.7027 72.9369 70.66 72.9433 70.6151C72.9827 70.3417 72.7931 70.0883 72.5197 70.0489L71.6314 69.9209C71.3581 69.8815 71.1046 70.0712 71.0652 70.3445C71.0258 70.6178 71.2155 70.8713 71.4888 70.9107L72.2894 71.026C70.0378 72.0827 67.8691 73.3581 65.8116 74.8388L65.9238 74.4222C65.9955 74.1556 65.8376 73.8812 65.5709 73.8094C65.3043 73.7376 65.0299 73.8956 64.9581 74.1622L64.7339 74.995C64.681 75.1915 64.7529 75.3922 64.9011 75.513C60.4106 78.9332 56.4881 83.3543 53.4419 88.6304C52.5595 90.1588 51.776 91.7151 51.0907 93.2909C50.9382 93.4006 50.8631 93.5848 50.8878 93.7647C49.6741 96.6449 48.7868 99.5874 48.2217 102.542C48.0691 102.692 48.0312 102.919 48.1176 103.107C48.0108 103.709 47.9174 104.312 47.8374 104.915C47.8137 104.882 47.7856 104.851 47.7532 104.824C47.5417 104.647 47.2263 104.674 47.0488 104.886L46.4322 105.62C46.2547 105.832 46.2823 106.147 46.4938 106.325C46.7053 106.502 47.0207 106.475 47.1982 106.263L47.7516 105.604C47.4469 108.23 47.3953 110.853 47.594 113.436L47.1354 112.978C46.9399 112.783 46.6234 112.784 46.4283 112.979C46.2333 113.175 46.2337 113.491 46.4292 113.686L47.0398 114.295C47.2128 114.468 47.4808 114.487 47.6753 114.354C47.7855 115.453 47.9412 116.543 48.1422 117.623C47.9147 117.607 47.6978 117.748 47.6283 117.976L47.3031 119.039C47.2224 119.303 47.371 119.583 47.635 119.663C47.8991 119.744 48.1786 119.596 48.2594 119.331L48.3976 118.88C49.1623 122.347 50.4009 125.692 52.1057 128.822C50.2853 126.471 48.7834 124.025 47.5883 121.526L47.6091 121.458C47.6898 121.194 47.5412 120.914 47.2772 120.833C47.2727 120.832 47.2683 120.831 47.2638 120.83C45.6187 117.204 44.612 113.475 44.2083 109.768C44.2513 109.635 44.2364 109.489 44.167 109.367C43.8119 105.714 44.0416 102.087 44.822 98.605C44.844 98.5915 44.8654 98.5762 44.8857 98.5589C45.0778 98.3957 45.116 98.1185 44.9852 97.9113C45.0058 97.8277 45.0267 97.7442 45.048 97.6608C45.0658 97.6175 45.0776 97.5718 45.0828 97.5252C45.7513 94.9461 46.7255 92.4551 47.9912 90.1021L49.7101 91.0946L50.6498 91.6371L51.114 90.6563C51.9743 88.8385 52.7836 87.4356 54.0367 85.5952L54.6429 84.7049L53.7101 84.1664L51.9912 83.1739C55.367 77.7129 60.2749 73.311 66.2123 70.4857C66.2716 70.5438 66.3462 70.5879 66.432 70.611C66.6948 70.6818 66.965 70.5295 67.0415 70.2699L67.047 70.2707C67.317 70.3096 67.5676 70.1251 67.6116 69.8572ZM46.2583 89.1016L44.514 88.0946C43.4129 87.4589 42.7669 86.5239 42.5547 85.4933C42.3475 84.4868 42.5684 83.4645 43.0499 82.6305C43.5315 81.7964 44.3064 81.094 45.2816 80.7702C46.2802 80.4387 47.413 80.5307 48.514 81.1664L50.2583 82.1734C60.3921 65.7118 83.3739 58.5687 106.851 72.1234L106.845 72.1339C107.137 72.2929 107.427 72.4561 107.717 72.6234C126.501 83.4681 131.707 105.882 122.41 124.957L155.879 143.154L155.892 143.161L155.905 143.169L155.401 144.032C155.905 143.169 155.905 143.169 155.906 143.169L155.907 143.17L155.909 143.171L155.913 143.174L155.926 143.181C155.936 143.187 155.948 143.194 155.962 143.203C155.991 143.221 156.029 143.246 156.074 143.277C156.165 143.339 156.287 143.428 156.426 143.542C156.7 143.769 157.059 144.113 157.365 144.573C157.673 145.036 157.94 145.635 157.991 146.356C158.043 147.084 157.869 147.865 157.404 148.669C156.94 149.473 156.352 150.014 155.694 150.331C155.044 150.645 154.391 150.71 153.837 150.671C153.286 150.632 152.81 150.489 152.479 150.362C152.311 150.298 152.174 150.235 152.075 150.187C152.05 150.174 152.027 150.163 152.007 150.152C151.987 150.142 151.97 150.133 151.956 150.125C151.941 150.117 151.928 150.11 151.918 150.105L151.906 150.097L151.901 150.095L151.899 150.093L151.898 150.093C151.897 150.093 151.897 150.092 152.401 149.229L151.897 150.092L151.888 150.087L151.879 150.081L119.386 130.195C107.515 147.784 85.5006 154.482 66.7169 143.637C66.4271 143.47 66.1405 143.3 65.8571 143.127L65.8513 143.137C42.374 129.583 37.0692 106.109 46.2583 89.1016ZM106.717 74.3554C88.1209 63.619 65.9779 70.9176 55.174 89.6304C44.3701 108.343 49.1209 131.169 67.7169 141.905C85.7475 152.315 107.01 145.713 118.243 128.296C118.594 127.752 118.933 127.197 119.26 126.63C119.587 126.064 119.898 125.493 120.194 124.917C129.661 106.481 124.747 84.7654 106.717 74.3554ZM150.072 146.631L152.906 148.365L152.906 148.365C152.916 148.371 152.934 148.38 152.959 148.393C153.011 148.418 153.091 148.455 153.194 148.494C153.404 148.575 153.681 148.655 153.978 148.676C154.27 148.696 154.558 148.659 154.825 148.53C155.083 148.405 155.387 148.164 155.672 147.669C155.958 147.174 156.017 146.788 155.996 146.498C155.975 146.199 155.863 145.927 155.7 145.68C155.534 145.431 155.326 145.228 155.153 145.084C155.068 145.014 154.996 144.962 154.948 144.93C154.927 144.915 154.911 144.905 154.901 144.899L151.987 143.314C151.889 143.843 151.687 144.464 151.303 145.13C150.918 145.797 150.48 146.282 150.072 146.631ZM149.163 146.074C149.552 145.794 150.026 145.342 150.437 144.63C150.848 143.918 151.002 143.282 151.05 142.805L121.494 126.735C121.331 127.035 121.163 127.333 120.992 127.63C120.82 127.928 120.646 128.222 120.468 128.513L149.163 146.074ZM94.7842 94.0239C94.0103 93.5772 93.2095 93.2129 92.3915 92.9286C83.9213 89.985 73.6125 95.6159 72.3963 106.975C72.3282 107.611 72.299 108.235 72.3062 108.845C72.4404 120.191 85.159 126.894 94.7626 119.888C95.4754 119.368 96.1315 118.818 96.7322 118.243C104.661 110.658 102.952 98.7398 94.7842 94.0239ZM99.1372 113.471C102.756 106.691 100.512 98.4858 94.2842 94.89C93.592 94.4904 92.8752 94.1618 92.1422 93.9025C89.8784 93.5781 88.0043 93.946 86.5199 94.7077C84.5145 95.7366 83.169 97.5101 82.5288 99.3933C81.8852 101.286 81.9725 103.23 82.7442 104.6C83.4662 105.882 84.8294 106.739 86.9824 106.544C88.3005 104.397 90.1685 103.304 92.0891 103.119C94.0614 102.929 96.0372 103.703 97.458 105.175C98.884 106.653 99.7467 108.828 99.5201 111.436C99.4632 112.09 99.3381 112.77 99.1372 113.471ZM86.9588 107.549C84.5141 107.735 82.7936 106.725 81.8729 105.091C80.9275 103.412 80.872 101.16 81.582 99.0714C82.2954 96.9729 83.8 94.9793 86.0634 93.8179C86.5842 93.5507 87.1426 93.3289 87.7375 93.1602C81.0271 93.1849 74.3355 98.2563 73.3906 107.081C73.3318 107.63 73.3041 108.17 73.3056 108.699C73.9942 110.978 75.1615 112.56 76.5151 113.576C78.206 114.845 80.2268 115.261 82.0711 115.01C83.9213 114.758 85.5581 113.842 86.5033 112.492C87.3855 111.233 87.7001 109.547 86.9588 107.549ZM73.7138 111.992C75.874 120.545 86.1726 124.916 94.1732 119.08C94.8232 118.606 95.4228 118.106 95.9734 117.585C97.6083 115.287 98.3653 113.173 98.5238 111.349C98.7262 109.02 97.9569 107.133 96.7383 105.87C95.5146 104.602 93.8334 103.956 92.1849 104.115C90.6059 104.267 89.0084 105.161 87.8412 107.056C88.7568 109.399 88.4302 111.484 87.3224 113.066C86.1909 114.682 84.2832 115.718 82.2059 116.001C80.1227 116.284 77.833 115.815 75.9149 114.376C75.0921 113.758 74.3449 112.968 73.7138 111.992ZM69.7121 70.6547C69.9854 70.6941 70.2389 70.5044 70.2783 70.2311C70.3176 69.9578 70.128 69.7043 69.8547 69.6649L68.9663 69.5369C68.693 69.4975 68.4395 69.6872 68.4001 69.9605C68.3608 70.2338 68.5504 70.4873 68.8237 70.5267L69.7121 70.6547ZM66.5964 71.9238C66.6682 71.6572 66.5102 71.3828 66.2436 71.311C65.9769 71.2392 65.7026 71.3972 65.6308 71.6638L65.4066 72.4966C65.3348 72.7633 65.4927 73.0376 65.7594 73.1094C66.026 73.1812 66.3004 73.0233 66.3722 72.7566L66.5964 71.9238ZM62.4045 77.2566C62.675 77.312 62.9392 77.1375 62.9946 76.867C63.05 76.5965 62.8755 76.3323 62.605 76.2769L61.7444 76.1008C61.4739 76.0454 61.2097 76.2199 61.1543 76.4904C61.099 76.7609 61.2734 77.0251 61.5439 77.0805L62.4045 77.2566ZM59.8228 76.7283C60.0933 76.7836 60.3575 76.6092 60.4129 76.3387C60.4682 76.0681 60.2938 75.8039 60.0233 75.7486L59.1627 75.5725C58.8921 75.5171 58.628 75.6916 58.5726 75.9621C58.5172 76.2326 58.6917 76.4968 58.9622 76.5522L59.8228 76.7283ZM57.2426 78.4421C57.2592 78.1664 57.0491 77.9296 56.7735 77.913C56.4978 77.8965 56.261 78.1065 56.2444 78.3822L56.1774 79.4982C56.1609 79.7739 56.3709 80.0107 56.6466 80.0273C56.9222 80.0438 57.1591 79.8338 57.1756 79.5581L57.2426 78.4421ZM57.0417 81.7902C57.0582 81.5145 56.8482 81.2777 56.5725 81.2611C56.2969 81.2446 56.06 81.4546 56.0435 81.7303L55.9765 82.8463C55.9599 83.1219 56.17 83.3588 56.4456 83.3753C56.7213 83.3919 56.9581 83.1818 56.9747 82.9062L57.0417 81.7902ZM49.9266 95.0769C50.168 94.9429 50.2551 94.6385 50.1211 94.3971C49.987 94.1556 49.6827 94.0686 49.4412 94.2026L48.5916 94.6743C48.3501 94.8083 48.2631 95.1127 48.3971 95.3541C48.5311 95.5956 48.8355 95.6826 49.0769 95.5486L49.9266 95.0769ZM47.3776 96.492C47.619 96.3579 47.7061 96.0536 47.572 95.8121C47.438 95.5707 47.1336 95.4836 46.8922 95.6177L46.0425 96.0893C45.8011 96.2234 45.714 96.5277 45.848 96.7692C45.9821 97.0106 46.2864 97.0977 46.5279 96.9637L47.3776 96.492ZM46.5471 99.7425C46.3684 99.532 46.0528 99.5063 45.8424 99.6851C45.6319 99.8639 45.6062 100.179 45.785 100.39L46.587 101.334C46.7658 101.545 47.0813 101.57 47.2918 101.391C47.5023 101.213 47.528 100.897 47.3492 100.687L46.5471 99.7425ZM45.9651 107.732C46.1426 107.521 46.1151 107.206 45.9035 107.028C45.692 106.85 45.3766 106.878 45.1991 107.09L44.5826 107.824C44.405 108.036 44.4326 108.351 44.6441 108.529C44.8556 108.706 45.171 108.679 45.3485 108.467L45.9651 107.732ZM45.3037 111.151C45.1082 110.956 44.7916 110.956 44.5966 111.152C44.4016 111.347 44.402 111.664 44.5974 111.859L45.208 112.468C45.4035 112.663 45.7201 112.663 45.9151 112.467C46.1102 112.272 46.1098 111.955 45.9143 111.76L45.3037 111.151ZM44.5136 85.09C44.605 85.5337 44.8829 85.9982 45.514 86.3625L49.7821 88.8267C50.3849 87.6333 51.0051 86.5627 51.7862 85.365L47.514 82.8984C46.883 82.5341 46.3417 82.5256 45.9118 82.6684C45.4585 82.8189 45.0504 83.1655 44.782 83.6305C44.5135 84.0955 44.4173 84.6222 44.5136 85.09Z" fill="black"/>
<path fill-rule="evenodd" clip-rule="evenodd" d="M47.1772 158.885C47.3202 158.352 47.8685 158.035 48.402 158.178L117.949 176.813C118.482 176.956 118.799 177.504 118.656 178.038C118.513 178.571 117.964 178.888 117.431 178.745L47.8843 160.11C47.3509 159.967 47.0343 159.419 47.1772 158.885Z" fill="black"/>
</svg>
