<svg width="192" height="224" viewBox="0 0 192 224" fill="none" xmlns="http://www.w3.org/2000/svg">
<path fill-rule="evenodd" clip-rule="evenodd" d="M20.6866 89.9635C20.6871 89.9631 20.6876 89.9626 18.0001 87C15.3125 84.0374 15.3131 84.0369 15.3137 84.0363L15.3152 84.0349L15.319 84.0315L15.3296 84.0219L15.3629 83.9921C15.3903 83.9675 15.4283 83.9336 15.4764 83.891C15.5726 83.806 15.7095 83.6861 15.8836 83.5365C16.2317 83.2374 16.7303 82.818 17.3528 82.3182C18.5936 81.3222 20.3482 79.9897 22.4009 78.6502C26.2961 76.1083 32.0614 73 37.6251 73C43.4853 73 47.2668 76.4385 49.8789 78.8137L50.1251 79.0374C53.0173 81.6611 54.6954 83 57.2501 83C59.8047 83 61.4828 81.6611 64.375 79.0374L64.6212 78.8137C67.2333 76.4385 71.0148 73 76.8751 73C82.7353 73 86.5168 76.4385 89.1289 78.8137L89.3751 79.0374C92.2673 81.6611 93.9454 83 96.5001 83C99.0547 83 100.733 81.6611 103.625 79.0374L103.871 78.8137C106.483 76.4385 110.265 73 116.125 73C121.985 73 125.767 76.4385 128.379 78.8137L128.625 79.0374C131.517 81.6611 133.195 83 135.75 83C138.305 83 139.983 81.6611 142.875 79.0374L143.121 78.8137C145.733 76.4385 149.515 73 155.375 73C160.939 73 166.704 76.1083 170.599 78.6502C172.652 79.9897 174.407 81.3222 175.647 82.3182C176.27 82.818 176.768 83.2374 177.116 83.5365C177.291 83.6861 177.427 83.806 177.524 83.891L177.576 83.9377L177.637 83.9921L177.67 84.0219L177.681 84.0315L177.685 84.0349L177.686 84.0363C177.687 84.0369 177.688 84.0374 175 87C172.313 89.9626 172.313 89.9631 172.313 89.9635L172.299 89.9506C172.284 89.9373 172.259 89.915 172.225 89.8843C172.155 89.8229 172.047 89.7279 171.903 89.6041C171.614 89.3564 171.185 88.9945 170.639 88.5568C169.544 87.6778 168.005 86.5103 166.227 85.3498C162.46 82.8917 158.413 81 155.375 81C152.82 81 151.142 82.3389 148.25 84.9626L148.004 85.1863C145.392 87.5615 141.61 91 135.75 91C129.89 91 126.108 87.5615 123.496 85.1863L123.25 84.9626C120.358 82.3389 118.68 81 116.125 81C113.57 81 111.892 82.3389 109 84.9626L108.754 85.1863C106.142 87.5615 102.36 91 96.5001 91C90.6398 91 86.8583 87.5615 84.2462 85.1863L84 84.9626C81.1078 82.3389 79.4297 81 76.8751 81C74.3204 81 72.6423 82.3389 69.7501 84.9626L69.5039 85.1863C66.8918 87.5615 63.1103 91 57.2501 91C51.3898 91 47.6084 87.5615 44.9962 85.1863L44.75 84.9626C41.8578 82.3389 40.1797 81 37.6251 81C34.5871 81 30.5398 82.8917 26.7729 85.3498C24.9946 86.5103 23.4558 87.6778 22.3609 88.5568C21.8156 88.9945 21.3858 89.3564 21.0974 89.6041C20.9533 89.7279 20.845 89.8229 20.7755 89.8843C20.7408 89.915 20.7158 89.9373 20.701 89.9506L20.6866 89.9635ZM20.6866 119.964C20.6871 119.963 20.6876 119.963 18.0001 117C15.3125 114.037 15.3131 114.037 15.3137 114.036L15.3152 114.035L15.319 114.031L15.3296 114.022L15.3629 113.992C15.3903 113.967 15.4283 113.934 15.4764 113.891C15.5726 113.806 15.7095 113.686 15.8836 113.536C16.2317 113.237 16.7303 112.818 17.3528 112.318C18.5936 111.322 20.3482 109.99 22.4009 108.65C26.2961 106.108 32.0614 103 37.6251 103C43.4853 103 47.2668 106.438 49.8789 108.814L50.1251 109.037C53.0173 111.661 54.6954 113 57.2501 113C59.8047 113 61.4828 111.661 64.375 109.037L64.6212 108.814C67.2333 106.438 71.0148 103 76.8751 103C82.7353 103 86.5168 106.438 89.1289 108.814L89.3751 109.037C92.2673 111.661 93.9454 113 96.5001 113C99.0547 113 100.733 111.661 103.625 109.037L103.871 108.814C106.483 106.438 110.265 103 116.125 103C121.985 103 125.767 106.438 128.379 108.814L128.625 109.037C131.517 111.661 133.195 113 135.75 113C138.305 113 139.983 111.661 142.875 109.037L143.121 108.814C145.733 106.438 149.515 103 155.375 103C160.939 103 166.704 106.108 170.599 108.65C172.652 109.99 174.407 111.322 175.647 112.318C176.27 112.818 176.768 113.237 177.116 113.536C177.291 113.686 177.427 113.806 177.524 113.891C177.572 113.934 177.61 113.967 177.637 113.992L177.67 114.022L177.681 114.031L177.685 114.035L177.686 114.036C177.687 114.037 177.688 114.037 175 117C172.313 119.963 172.313 119.963 172.313 119.964L172.299 119.951L172.284 119.937L172.225 119.884C172.155 119.823 172.047 119.728 171.903 119.604C171.614 119.356 171.185 118.995 170.639 118.557C169.544 117.678 168.005 116.51 166.227 115.35C162.46 112.892 158.413 111 155.375 111C152.82 111 151.142 112.339 148.25 114.963L148.004 115.186C145.392 117.562 141.61 121 135.75 121C129.89 121 126.108 117.562 123.496 115.186L123.25 114.963C120.358 112.339 118.68 111 116.125 111C113.57 111 111.892 112.339 109 114.963L108.754 115.186C106.142 117.562 102.36 121 96.5001 121C90.6398 121 86.8583 117.562 84.2462 115.186L84 114.963C81.1078 112.339 79.4297 111 76.8751 111C74.3204 111 72.6423 112.339 69.7501 114.963L69.5039 115.186C66.8918 117.562 63.1103 121 57.2501 121C51.3898 121 47.6084 117.562 44.9962 115.186L44.75 114.963C41.8578 112.339 40.1797 111 37.6251 111C34.5871 111 30.5398 112.892 26.7729 115.35C24.9946 116.51 23.4558 117.678 22.3609 118.557C21.8156 118.995 21.3858 119.356 21.0974 119.604C20.9533 119.728 20.845 119.823 20.7755 119.884C20.7408 119.915 20.7158 119.937 20.701 119.951L20.6866 119.964ZM18.0001 147C20.6876 149.963 20.6871 149.963 20.6866 149.964L20.701 149.951C20.7105 149.942 20.7242 149.93 20.742 149.914C20.7519 149.905 20.7631 149.895 20.7755 149.884C20.845 149.823 20.9533 149.728 21.0974 149.604C21.3858 149.356 21.8156 148.995 22.3609 148.557C23.4558 147.678 24.9946 146.51 26.7729 145.35C30.5398 142.892 34.5871 141 37.6251 141C40.1797 141 41.8578 142.339 44.75 144.963L44.9962 145.186C47.6084 147.562 51.3898 151 57.2501 151C63.1103 151 66.8918 147.562 69.5039 145.186L69.7501 144.963C72.6423 142.339 74.3204 141 76.8751 141C79.4297 141 81.1078 142.339 84 144.963L84.2462 145.186C86.8583 147.562 90.6398 151 96.5001 151C102.36 151 106.142 147.562 108.754 145.186L109 144.963C111.892 142.339 113.57 141 116.125 141C118.68 141 120.358 142.339 123.25 144.963L123.496 145.186C126.108 147.562 129.89 151 135.75 151C141.61 151 145.392 147.562 148.004 145.186L148.25 144.963C151.142 142.339 152.82 141 155.375 141C158.413 141 162.46 142.892 166.227 145.35C168.005 146.51 169.544 147.678 170.639 148.557C171.185 148.995 171.614 149.356 171.903 149.604C172.047 149.728 172.155 149.823 172.225 149.884C172.259 149.915 172.284 149.937 172.299 149.951L172.313 149.964C172.313 149.963 172.313 149.963 175 147C177.688 144.037 177.687 144.037 177.686 144.036L177.685 144.035L177.681 144.031L177.67 144.022L177.637 143.992C177.61 143.967 177.572 143.934 177.524 143.891C177.427 143.806 177.291 143.686 177.116 143.536C176.768 143.237 176.27 142.818 175.647 142.318C174.407 141.322 172.652 139.99 170.599 138.65C166.704 136.108 160.939 133 155.375 133C149.515 133 145.733 136.438 143.121 138.814L142.875 139.037C139.983 141.661 138.305 143 135.75 143C133.195 143 131.517 141.661 128.625 139.037L128.379 138.814C125.767 136.438 121.985 133 116.125 133C110.265 133 106.483 136.438 103.871 138.814L103.625 139.037C100.733 141.661 99.0547 143 96.5001 143C93.9454 143 92.2673 141.661 89.3751 139.037L89.1289 138.814C86.5168 136.438 82.7353 133 76.8751 133C71.0148 133 67.2333 136.438 64.6212 138.814L64.375 139.037C61.4828 141.661 59.8047 143 57.2501 143C54.6954 143 53.0173 141.661 50.1251 139.037L49.8789 138.814C47.2668 136.438 43.4853 133 37.6251 133C32.0614 133 26.2961 136.108 22.4009 138.65C20.3482 139.99 18.5936 141.322 17.3528 142.318C16.7303 142.818 16.2317 143.237 15.8836 143.536C15.7095 143.686 15.5726 143.806 15.4764 143.891C15.4283 143.934 15.3903 143.967 15.3629 143.992L15.3296 144.022L15.319 144.031L15.3152 144.035L15.3137 144.036C15.3131 144.037 15.3125 144.037 18.0001 147Z" fill="#DCDCF9"/>
<path fill-rule="evenodd" clip-rule="evenodd" d="M94 24C94 23.4477 94.4477 23 95 23H97C97.5523 23 98 23.4477 98 24V28H101C101.552 28 102 28.4477 102 29C102 29.5523 101.552 30 101 30H99.0689L99.9356 43H103C103.552 43 104 43.4477 104 44C104 44.5523 103.552 45 103 45H100.105L100.995 53.9005C100.998 53.928 100.999 53.9556 101 53.9833L102.987 173.155C109.981 174.559 112.508 180.374 114.08 185.454C114.362 186.364 114.61 187.237 114.846 188.066C115.32 189.731 115.742 191.216 116.277 192.445C117.069 194.27 117.886 195 119 195C119.456 195 119.854 195.309 119.968 195.75C120.082 196.192 119.883 196.655 119.484 196.875L119 196C119.484 196.875 119.484 196.875 119.484 196.875L119.482 196.876L119.472 196.882L119.45 196.894C119.431 196.903 119.406 196.917 119.373 196.934C119.307 196.968 119.213 197.015 119.09 197.074C118.843 197.192 118.48 197.356 117.999 197.552C117.036 197.942 115.598 198.456 113.667 198.967C109.803 199.989 103.967 201 96 201C88.0328 201 82.1968 199.989 78.3331 198.967C76.4016 198.456 74.9643 197.942 74.0013 197.552C73.5198 197.356 73.157 197.192 72.9103 197.074C72.7869 197.015 72.6926 196.968 72.6271 196.934C72.5943 196.917 72.5687 196.903 72.5502 196.894L72.5279 196.882L72.5182 196.876L72.5171 196.876C72.5167 196.875 72.5163 196.875 73 196L72.5171 196.876C72.118 196.655 71.9178 196.192 72.0317 195.75C72.1456 195.309 72.5439 195 73 195C74.1144 195 74.9307 194.27 75.7234 192.445C76.2577 191.216 76.6801 189.731 77.1539 188.066C77.3897 187.237 77.6383 186.364 77.9197 185.454C79.4923 180.374 82.0189 174.559 89.0134 173.155L91.0001 53.9833C91.0006 53.9556 91.0022 53.928 91.005 53.9005L91.895 45H89C88.4477 45 88 44.5523 88 44C88 43.4477 88.4477 43 89 43H92.0645L92.9311 30H91C90.4477 30 90 29.5523 90 29C90 28.4477 90.4477 28 91 28H94V24ZM94.9356 30L94.0689 43H97.9311L97.0645 30H94.9356ZM98.095 45H93.905L93.105 53H98.895L98.095 45ZM99.0166 55H92.9834L91.1404 165.265C91.4153 165.342 91.7622 165.434 92.162 165.525C93.214 165.766 94.6021 166 96 166C97.3979 166 98.786 165.766 99.838 165.525C100.238 165.434 100.585 165.342 100.86 165.265L99.0166 55ZM100.893 167.327C100.706 167.375 100.502 167.425 100.284 167.475C99.15 167.734 97.6021 168 96 168C94.3979 168 92.85 167.734 91.716 167.475C91.498 167.425 91.2942 167.375 91.1069 167.327L90.9999 174.016C90.992 174.508 90.6281 174.92 90.1414 174.99C83.7811 175.899 81.446 180.826 79.8303 186.046C79.5861 186.835 79.3557 187.643 79.128 188.442C78.6302 190.189 78.1453 191.89 77.5578 193.242C77.0881 194.324 76.4866 195.34 75.6516 196.043C76.4749 196.342 77.5368 196.687 78.8446 197.033C82.5401 198.011 88.2041 199 96 199C103.796 199 109.46 198.011 113.155 197.033C114.463 196.687 115.525 196.342 116.348 196.043C115.513 195.34 114.912 194.324 114.442 193.242C113.855 191.89 113.37 190.189 112.872 188.442C112.644 187.643 112.414 186.835 112.17 186.046C110.554 180.826 108.219 175.899 101.859 174.99C101.372 174.92 101.008 174.508 101 174.016L100.893 167.327Z" fill="black"/>
<circle cx="96" cy="152" r="2" fill="black"/>
<circle cx="96" cy="138" r="2" fill="black"/>
<circle cx="96" cy="124" r="2" fill="black"/>
<circle cx="96" cy="110" r="2" fill="black"/>
<circle cx="96" cy="96" r="2" fill="black"/>
<circle cx="96" cy="82" r="2" fill="black"/>
<circle cx="96" cy="68" r="2" fill="black"/>
<path d="M89.5001 44C84.2456 44 79.3333 46.2247 75.138 50.1701M75.138 50.1701C75.138 50.1701 74.7167 47.3729 73.5 47.5C72.2717 47.6283 72.2758 50.1701 72.2758 50.1701C72.2758 50.1701 70.7057 50.6513 70.5 51.5C70.2697 52.4502 72.2758 53.2649 72.2758 53.2649M75.138 50.1701C75.138 50.1701 77.4194 50.4445 77.5 51.5C77.5941 52.7314 75.138 53 75.138 53C75.138 53 74.7207 55.6869 73.5 55.5C72.5163 55.3494 72.2758 53.2649 72.2758 53.2649M72.2758 53.2649C60.9685 67.2279 56.6722 95.1177 69 124M69 124C69 124 70.4954 121.964 71.5 122.5C72.5337 123.051 71.5 125.5 71.5 125.5C71.5 125.5 73.82 126.443 73.5 127.5C73.1538 128.644 70.44 127.534 70.44 127.534M69 124C69 124 66.4207 122.471 65.5 123.5C64.3952 124.735 68 126.5 68 126.5C68 126.5 67.377 129.166 68.5 129.5C69.5339 129.808 70.44 127.534 70.44 127.534M70.44 127.534C85.7471 166.952 74.5 196.5 68.5 200.5" stroke="black" stroke-miterlimit="1.88813" stroke-linecap="round" stroke-dasharray="1 2"/>
<path fill-rule="evenodd" clip-rule="evenodd" d="M67.1194 200.004L65.0737 201.582L64.7643 201.227C63.6657 199.968 61.5256 199.799 59.6847 200.639C58.4923 201.183 57.2041 201.483 56.2254 201.649C55.7336 201.732 55.3146 201.781 55.0175 201.81C54.9564 201.816 54.9004 201.822 54.85 201.826C54.8405 201.851 54.8306 201.878 54.8205 201.907C54.7411 202.133 54.646 202.472 54.5921 202.906C54.4846 203.77 54.5386 205.02 55.2229 206.521C55.9072 208.021 56.8161 208.882 57.5385 209.367C57.9013 209.61 58.2197 209.761 58.4426 209.849C58.4711 209.861 58.498 209.871 58.5232 209.88C58.5595 209.845 58.6001 209.806 58.6447 209.764C58.8615 209.559 59.1738 209.275 59.5589 208.958C60.3254 208.327 61.3969 207.552 62.5892 207.008C64.4302 206.168 65.706 204.442 65.4756 202.787L65.4107 202.321L67.9436 201.811C67.9454 201.81 67.9472 201.808 67.9491 201.807C67.9846 201.778 68.0302 201.733 68.0665 201.666C68.1253 201.558 68.2214 201.283 67.9608 200.712C67.7002 200.14 67.4292 200.032 67.3092 200.006C67.2352 199.99 67.1709 199.994 67.1263 200.002C67.1239 200.003 67.1216 200.003 67.1194 200.004ZM68.1283 202.284C68.3358 202.739 68.3361 202.739 68.3364 202.738L68.3386 202.737L68.3418 202.736L68.3493 202.732C68.3547 202.73 68.3611 202.726 68.3683 202.723C68.3827 202.715 68.4004 202.706 68.4209 202.693C68.4618 202.669 68.5143 202.635 68.5723 202.589C68.6881 202.496 68.831 202.353 68.9443 202.145C69.1849 201.704 69.2325 201.09 68.8707 200.297C68.5088 199.503 68.0138 199.136 67.5232 199.029C67.292 198.978 67.0899 198.992 66.9444 199.019C66.8714 199.033 66.811 199.05 66.766 199.065C66.7434 199.072 66.7244 199.079 66.7094 199.085C66.7018 199.088 66.6953 199.091 66.6897 199.093L66.6821 199.097L66.6789 199.098L66.6774 199.099C66.6771 199.099 66.676 199.099 66.8835 199.554L66.676 199.099L66.6237 199.123L65.1857 200.232C63.6442 198.846 61.1896 198.854 59.2697 199.729C58.1875 200.223 56.9935 200.505 56.0589 200.663C55.5939 200.741 55.1983 200.788 54.9201 200.815C54.7811 200.829 54.6716 200.837 54.5978 200.843C54.5608 200.845 54.5328 200.847 54.5145 200.848L54.4944 200.849L54.4899 200.849L54.2086 200.863L54.0741 201.109L54.513 201.349C54.0741 201.109 54.0742 201.109 54.0741 201.109L54.0735 201.111L54.0728 201.112L54.0711 201.115L54.0665 201.124C54.0629 201.131 54.0582 201.14 54.0526 201.151C54.0414 201.173 54.0264 201.204 54.0087 201.244C53.9733 201.322 53.9267 201.434 53.8768 201.576C53.777 201.861 53.6635 202.27 53.5997 202.783C53.4716 203.813 53.5451 205.252 54.3131 206.936C55.081 208.62 56.1194 209.619 56.9811 210.197C57.4103 210.485 57.7932 210.668 58.0736 210.779C58.2138 210.835 58.3287 210.873 58.4112 210.897C58.4524 210.91 58.4856 210.919 58.5099 210.925C58.5221 210.928 58.532 210.93 58.5396 210.932L58.5493 210.935L58.5528 210.935L58.5542 210.936C58.5545 210.936 58.5554 210.936 58.6624 210.447L58.5554 210.936L58.8299 210.996L59.0238 210.793L59.0274 210.789L59.0415 210.775C59.0543 210.762 59.074 210.742 59.1002 210.715C59.1526 210.663 59.2309 210.586 59.3323 210.49C59.5353 210.298 59.8301 210.03 60.1942 209.73C60.9262 209.128 61.9219 208.411 63.0041 207.918C64.924 207.042 66.5392 205.194 66.503 203.121L68.2834 202.763L68.3364 202.738L68.1283 202.284Z" fill="black"/>
</svg>
