<svg width="112" height="112" viewBox="0 0 112 112" fill="none" xmlns="http://www.w3.org/2000/svg">
<path fill-rule="evenodd" clip-rule="evenodd" d="M16 56C16 78.0914 33.9086 96 56 96C78.0914 96 96 78.0914 96 56C96 33.9086 78.0914 16 56 16C33.9086 16 16 33.9086 16 56ZM56 96C42.1929 96 31 84.8071 31 71C31 57.1929 42.1929 46 56 46C69.8071 46 81 57.1929 81 71C81 84.8071 69.8071 96 56 96Z" fill="#E5F7D4"/>
<path d="M66.5 16.5C66.5 18.0135 66.5 18.434 66.5 21.5C66.5 21.5 67.5 28.5 67.5 33.5L66.5 102.5H45.5L44.5 33.5C44.5 28.5 45.5 21.5 45.5 21.5C45.5 18.434 45.5 18.0135 45.5 16.5M66.5 16.5C66.5 16.5 61.5496 16.5 56 16.5C50.4505 16.5 45.5 16.5 45.5 16.5M66.5 16.5V10.5C66.5 10.5 62.0541 9.50001 56 9.50001C49.9459 9.50001 45.5 10.5 45.5 10.5V16.5" stroke="black"/>
<path d="M45.5 56.5C45.5 56.5 56.5 58 56.5 44.5C56.5 30.9999 67.5 32.5 67.5 32.5" stroke="black" stroke-dasharray="3 1"/>
<path d="M45.5 88.5C45.5 88.5 56.5 90.9375 56.5 77.5C56.5 64.0625 67 65.5 67 65.5" stroke="black" stroke-dasharray="3 1"/>
<path d="M46.5 92.5H65.5" stroke="black"/>
<path d="M45.5 21.5C45.5 21.5 51.5 21.5 56 21.5C60.5 21.5 66.5 21.5 66.5 21.5" stroke="black"/>
<path d="M49.75 13C49.75 13.9993 51 13.3306 51 13.3306C50.4545 14.4877 49 13.9918 49 13C49 12.0082 50.4545 11.5123 51 12.6694C51 12.6694 49.75 12.0007 49.75 13Z" fill="black"/>
<circle cx="62" cy="13" r="1" fill="black"/>
<path d="M54.25 12.5H57.75" stroke="black" stroke-linecap="round"/>
<path d="M49.5 16.5L48.5 21.5V62V92.5V98.5" stroke="black" stroke-linecap="round"/>
<path d="M51.5 16.5L50.5 21.5V58.5V92.5V99" stroke="black" stroke-linecap="round"/>
<path d="M53.5 16.5L52.5 21.5V55V92.3906V99" stroke="black" stroke-linecap="round"/>
<path d="M55.5 16.5L54.5 21.5V52V92.5V98.5" stroke="black" stroke-linecap="round"/>
<path d="M56.5 16.5L57.5 21.5V49.5V92.5V98.5" stroke="black" stroke-linecap="round"/>
<path d="M58.75 16.5L59.5 21.5V44.5V92.5V99" stroke="black" stroke-linecap="round"/>
<path d="M60.75 16.75L61.5 21.5V36.5V92.5V99" stroke="black" stroke-linecap="round"/>
<path d="M62.25 16.75L63.5 21.5V56.5938V74.3438V92.5V98.5" stroke="black" stroke-linecap="round"/>
<rect x="47.5" y="79" width="2" height="1" rx="0.5" fill="black"/>
<rect x="49.5" y="73" width="2" height="1" rx="0.5" fill="black"/>
<rect x="51.5" y="67" width="2" height="1" rx="0.5" fill="black"/>
<rect x="53.5" y="61" width="2" height="1" rx="0.500002" fill="black"/>
<rect x="56.5" y="55" width="2" height="1" rx="0.5" fill="black"/>
<rect x="58.5" y="49" width="2" height="1" rx="0.5" fill="black"/>
<rect x="60.5" y="43" width="2" height="1" rx="0.5" fill="black"/>
<rect x="62.5" y="37" width="2" height="1" rx="0.5" fill="black"/>
<path d="M45.5 100.5C45.5 100.5 47.375 98.5 48.5 98.5C49.625 98.5 50.5725 99.5 51.5 99.5C52.4275 99.5 52.5725 98.5 53.5 98.5C54.4275 98.5 55.0725 99.5 56 99.5C56.9275 99.5 57.5725 98.5 58.5 98.5C59.4275 98.5 59.5 99.5 60.5 99.5C61.5 99.5 62.5 98.5 63.5 98.5C64.5 98.5 66.5 100.5 66.5 100.5" stroke="black" stroke-linecap="round"/>
<path d="M30.5736 23.804C29.1252 33.8241 37.9545 58.5283 37.9545 58.5283L38.994 63.419" stroke="black" stroke-linecap="round"/>
<path d="M30.7661 23.5076L38.3549 59.21" stroke="black"/>
</svg>
