<svg width="112" height="112" viewBox="0 0 112 112" fill="none" xmlns="http://www.w3.org/2000/svg">
<path fill-rule="evenodd" clip-rule="evenodd" d="M56 28C32.5279 28 13.5 47.0279 13.5 70.5H13.5001C13.5001 58.7639 23.0141 49.25 34.7501 49.25C46.4862 49.25 56.0001 58.7639 56.0001 70.5H56.0086C56.003 70.2983 56.0001 70.0959 56.0001 69.8929C56.0001 58.1568 65.5141 48.6429 77.2501 48.6429C88.493 48.6429 97.6966 57.3741 98.4503 68.4257C97.3685 45.917 78.7766 28 56 28ZM98.4986 70.1505C98.4972 70.2672 98.4949 70.3837 98.4916 70.5H98.5C98.5 70.3834 98.4995 70.2669 98.4986 70.1505Z" fill="#F9DCF9"/>
<path d="M73.5 85C73.5 93.5929 65.3366 101.5 56.5 101.5C47.6634 101.5 39.5 93.5929 39.5 85C39.5 76.4071 50.75 57 51.5 47C52.25 37 52.1954 38.9581 52.5164 28C52.5539 18 52.5164 9.46448 52.5164 9.46448C52.5164 9.46448 54 9.46448 56 9.46448C58 9.46448 60.5 9.46448 60.5 9.46448C60.5 9.46448 60.5 18 60.5 28C60.7988 38.9597 60.75 37 61.5 47C62.25 57 73.5 76.4071 73.5 85Z" stroke="black"/>
<path d="M54 15.5H59" stroke="black"/>
<path d="M54 17.5H59" stroke="black"/>
<path d="M54 19.5H59" stroke="black"/>
<path d="M54 21.5H59" stroke="black"/>
<path d="M54 23.5H59" stroke="black"/>
<path d="M67.5 20.5L60.5 19.5H67.5V20.5Z" stroke="black"/>
<path d="M67.5 16.5L60.5 15.5H67.5V16.5Z" stroke="black"/>
<path d="M45.5 17.5H52.5L45.5 18.5V17.5Z" stroke="black"/>
<path d="M45.5 21.5H52.5L45.5 22.5V21.5Z" stroke="black"/>
<path d="M67.5 24.5L60.5 23.5H67.5V24.5Z" stroke="black"/>
<path d="M52.5 33.5H60.5" stroke="black"/>
<path d="M52.5 36.5H60.5" stroke="black"/>
<path d="M52 41.5H61" stroke="black"/>
<path d="M52 45.5H61.5" stroke="black"/>
<path d="M52 49.5H61" stroke="black"/>
<path d="M52 51.5H61" stroke="black"/>
<path d="M52 54.5H61" stroke="black"/>
<path d="M52 59.5H61" stroke="black"/>
<path d="M51 63.5H62" stroke="black"/>
<path d="M51 66.5H62" stroke="black"/>
<path d="M51 69.5H62" stroke="black"/>
<path d="M51 72.5H62" stroke="black"/>
<path d="M52.5 28.5H60.5" stroke="black"/>
<path d="M61.5 90.5H51.5C51.5 91 51 91.5 50.5 91.5V93.5H62.5V91.5C62 91.5 61.5 91 61.5 90.5Z" stroke="black"/>
<path d="M53.5 28.5V93.5" stroke="black"/>
<path d="M55.5 28.5V93.5" stroke="black"/>
<path d="M57.5 28.5V93.5" stroke="black"/>
<path d="M59.5 28.6562V93.5" stroke="black"/>
<path fill-rule="evenodd" clip-rule="evenodd" d="M64.6237 76.5582C64.9682 78.1788 66.5613 79.2133 68.1819 78.8689L68.1819 78.8689C67.3715 79.0411 66.5517 78.4144 66.3508 77.469C66.249 76.99 66.3256 76.5211 66.5313 76.1526C66.1935 75.8997 65.9329 75.5025 65.8311 75.0236C65.6302 74.0782 66.1242 73.1722 66.9344 73C65.3138 73.3445 64.2793 74.9375 64.6237 76.5582Z" fill="black"/>
<path fill-rule="evenodd" clip-rule="evenodd" d="M46.6506 76.1527C46.8564 76.5212 46.9329 76.99 46.8311 77.469C46.631 78.4105 45.8171 79.036 45.0101 78.871C46.6273 79.2091 48.2145 78.1755 48.5583 76.5582C48.9028 74.9375 47.8682 73.3445 46.2476 73C47.0579 73.1722 47.5519 74.0783 47.3509 75.0236C47.2491 75.5026 46.9884 75.8998 46.6506 76.1527Z" fill="black"/>
</svg>
