<svg width="112" height="112" viewBox="0 0 112 112" fill="none" xmlns="http://www.w3.org/2000/svg">
<rect x="12" y="81" width="50" height="50" rx="25" transform="rotate(-90 12 81)" fill="#DCF9DC"/>
<path fill-rule="evenodd" clip-rule="evenodd" d="M52.7529 19.5L52.7512 20L52.6325 19.5143L52.6918 19.4998L52.7529 19.5ZM76.1254 24.5036C71.1644 22.0244 65.3369 20.7773 60.7605 20.1475C58.4527 19.8299 56.4541 19.6681 55.0315 19.5857C54.3201 19.5444 53.7523 19.523 53.3615 19.5119C53.1661 19.5064 53.0149 19.5034 52.9121 19.5018C52.8607 19.501 52.8214 19.5006 52.7947 19.5003L52.7642 19.5001L52.7561 19.5L52.7529 19.5C52.7529 19.5 52.7529 19.5 52.7512 20C52.6325 19.5143 52.6325 19.5143 52.6325 19.5143L52.6222 19.5168L52.5939 19.5239C52.5692 19.53 52.5328 19.5392 52.4853 19.5513C52.3902 19.5755 52.2508 19.6116 52.0717 19.6593C51.7135 19.7548 51.1966 19.897 50.559 20.0846C49.2841 20.4596 47.5246 21.0167 45.585 21.7449C41.7323 23.1916 37.0978 25.3396 34.1724 28.1219C34.1679 28.1255 34.1628 28.1296 34.157 28.1342C34.1348 28.1521 34.1029 28.178 34.0621 28.2121C33.9804 28.2803 33.8626 28.3812 33.7141 28.5154C33.417 28.7837 32.9965 29.1853 32.4938 29.7254C31.4884 30.8054 30.1538 32.4398 28.821 34.6696C26.1537 39.1323 23 45.9703 23 55.5C23 65.0288 26.1531 72.1125 28.815 76.8196C30.1453 79.1721 31.4772 80.9298 32.4797 82.1023C32.981 82.6885 33.4002 83.1287 33.696 83.424C33.8438 83.5717 33.9609 83.6831 34.042 83.7585C34.0825 83.7962 34.1141 83.8249 34.136 83.8446C34.147 83.8545 34.1555 83.8621 34.1616 83.8675L34.1688 83.8738L34.171 83.8757C34.171 83.8757 34.1722 83.8768 34.5004 83.4996L34.1722 83.8768L34.1808 83.8843L34.1897 83.8913C37.3486 86.3972 41.8402 88.5436 45.5115 90.0573C47.3529 90.8164 48.9989 91.4208 50.1849 91.8355C50.778 92.0428 51.2565 92.2029 51.5871 92.3113C51.7524 92.3655 51.8809 92.4068 51.9682 92.4346C52.0119 92.4485 52.0454 92.4591 52.068 92.4662L52.0938 92.4743L52.1006 92.4764L52.1024 92.4769C52.1024 92.4769 52.1031 92.4771 52.2512 91.9996L52.1024 92.4769L52.1762 92.4998L52.2528 92.4996L52.2512 91.9996C52.2528 92.4996 52.2528 92.4996 52.2528 92.4996L52.2561 92.4995L52.2646 92.4995L52.2972 92.4993C52.3257 92.499 52.3677 92.4986 52.4227 92.4978C52.5325 92.4962 52.6941 92.4932 52.9025 92.4877C53.3194 92.4766 53.9241 92.4552 54.6783 92.414C56.1863 92.3317 58.294 92.17 60.6953 91.8525C65.4515 91.2237 71.4075 89.9778 76.1318 87.4954C76.6675 87.4612 77.2281 87.2232 77.7813 86.8556C78.3867 86.4533 79.0244 85.8687 79.6707 85.125C80.9641 83.6367 82.3301 81.4673 83.5724 78.7062C86.0586 73.1803 88.0744 65.2379 88 55.5C87.9257 45.7663 85.9105 38.066 83.4592 32.788C82.2344 30.1508 80.8943 28.1048 79.6212 26.7094C78.9848 26.0118 78.3561 25.4669 77.7571 25.0932C77.2068 24.7499 76.6532 24.5337 76.1254 24.5036ZM74.53 24.8534C69.9724 22.8011 64.8005 21.7129 60.6241 21.1381C58.3474 20.8248 56.3755 20.6652 54.9737 20.584C54.2729 20.5434 53.715 20.5224 53.3331 20.5115C53.1612 20.5067 53.0251 20.5038 52.9276 20.5022C52.8376 20.5783 52.7032 20.6949 52.5309 20.8532C52.186 21.1702 51.6891 21.6544 51.0906 22.3156C49.8936 23.6381 48.2907 25.6686 46.6854 28.4861C43.4766 34.118 40 42.9082 40 55.5C40 68.0959 43.3538 77.1413 46.4437 83.0286C47.9892 85.9735 49.5328 88.1305 50.6858 89.5477C51.2623 90.2562 51.7412 90.7798 52.0738 91.1242C52.2335 91.2897 52.3595 91.4138 52.4463 91.4973C52.5506 91.4957 52.6949 91.4929 52.876 91.488C53.2845 91.4772 53.8797 91.4562 54.6237 91.4155C56.1121 91.3342 58.1936 91.1746 60.5643 90.8611C64.9127 90.2862 70.1927 89.199 74.5682 87.1543C74.2992 87.0272 74.0339 86.868 73.7735 86.6818C73.0593 86.1711 72.3552 85.4383 71.6742 84.5356C70.3122 82.7301 68.9972 80.1836 67.8533 77.1789C65.5645 71.1667 63.9271 63.23 64.0016 55.495C64.0743 47.9456 65.7111 40.2611 67.9639 34.4536C69.0896 31.5514 70.3779 29.0953 71.7183 27.3547C72.6007 26.2089 73.5493 25.3172 74.53 24.8534ZM50.5056 90.8882C49.3333 90.4782 47.7087 89.8814 45.8927 89.1328C42.2436 87.6283 37.8656 85.5278 34.8215 83.116L34.8046 83.101C34.7868 83.085 34.7594 83.0601 34.723 83.0263C34.6503 82.9586 34.5418 82.8554 34.4025 82.7164C34.1241 82.4383 33.7229 82.0174 33.2398 81.4524C32.2735 80.3223 30.9802 78.617 29.6855 76.3274C27.0972 71.7505 24 64.8347 24 55.5C24 46.1662 27.0966 39.5039 29.6794 35.1826C30.9718 33.0204 32.2623 31.4417 33.2258 30.4067C33.7075 29.8892 34.1073 29.5078 34.3844 29.2575C34.523 29.1323 34.6309 29.04 34.7029 28.9798C34.739 28.9497 34.7661 28.9277 34.7836 28.9136L34.8026 28.8984L34.8065 28.8953L34.827 28.8795L34.8456 28.8617C37.6143 26.2201 42.0947 24.1237 45.9365 22.6811C47.848 21.9634 49.5836 21.4139 50.8412 21.0439C50.8732 21.0345 50.9049 21.0252 50.9362 21.0161C50.7532 21.2057 50.5569 21.4151 50.3491 21.6446C49.1085 23.0153 47.4613 25.1041 45.8165 27.9911C42.5249 33.7683 39 42.7283 39 55.5C39 68.2676 42.3978 77.4716 45.5582 83.4933C47.1377 86.503 48.7193 88.7152 49.9101 90.1788C50.1216 90.4388 50.3209 90.6752 50.5056 90.8882ZM68.8962 34.8152C66.6857 40.5139 65.0731 48.0793 65.0016 55.5046C64.9284 63.1065 66.5405 70.9197 68.7879 76.8232C69.9122 79.7763 71.187 82.2291 72.4726 83.9334C73.1155 84.7856 73.7497 85.4354 74.3552 85.8685C74.9615 86.302 75.512 86.4996 75.9998 86.4996C76.2993 86.4996 76.7119 86.3656 77.2278 86.0228C77.737 85.6844 78.3087 85.1677 78.9159 84.469C80.1295 83.0725 81.4471 80.9926 82.6604 78.2959C85.0854 72.906 87.0733 65.099 87 55.5C86.9267 45.8968 84.9383 38.3468 82.5522 33.2092C81.3583 30.6385 80.0701 28.6852 78.8824 27.3833C78.2883 26.7322 77.7284 26.2539 77.2278 25.9416C76.7222 25.6263 76.3094 25.5 75.9998 25.5C74.9994 25.5 73.7953 26.2966 72.5106 27.9648C71.249 29.6031 70.0021 31.9643 68.8962 34.8152Z" fill="black"/>
<path d="M87.5001 55.5C87.3781 38.5022 80.3904 29.5 77.5 29.5C73.3704 29.5 68.6193 42.3367 68.5002 55.5C68.3783 68.9817 73.3705 82.5 77.5 82.5C80.3904 82.5 87.6221 72.4978 87.5001 55.5Z" stroke="black"/>
<path d="M46.5 84L72.5 85L52 91.5L33.5 82.5M46.5 84L68.5 78L42 74M46.5 84L27.75 74M42 74L65.5 67L40 61.5M42 74L25 65.5M40 61.5L64.5 55.5L40 49.5M40 61.5L24 57M40 49.5L66 43L42 37.5M40 49.5L24.25 50M42 37.5L68.5 34L46.5 27.5M42 37.5L25.75 42.5M46.5 27.5L73 26.5L52.5 20.25L32.25 30.5M46.5 27.5L28.75 35.5" stroke="black" stroke-miterlimit="1.88813" stroke-linecap="round" stroke-dasharray="1 2"/>
<rect x="63.5" y="54.5" width="2" height="2" rx="1" fill="black"/>
<rect x="65" y="42" width="2" height="2" rx="1" fill="black"/>
<rect x="38.5" y="48" width="3" height="3" rx="1.5" fill="black"/>
<rect x="38.5" y="60" width="3" height="3" rx="1.5" fill="black"/>
<rect x="40.5" y="72.5" width="3" height="3" rx="1.5" fill="black"/>
<rect x="45" y="82.5" width="3" height="3" rx="1.5" fill="black"/>
<rect x="40.5" y="36" width="3" height="3" rx="1.5" fill="black"/>
<rect x="45" y="26" width="3" height="3" rx="1.5" fill="black"/>
<rect x="64.5" y="66" width="2" height="2" rx="1" fill="black"/>
<rect x="67.5" y="77" width="2" height="2" rx="1" fill="black"/>
<rect x="71.5" y="84" width="2" height="2" rx="1" fill="black"/>
<rect x="67.5" y="33" width="2" height="2" rx="1" fill="black"/>
<rect x="72" y="25.5" width="2" height="2" rx="1" fill="black"/>
<path fill-rule="evenodd" clip-rule="evenodd" d="M101.913 83.4587C102.068 83.687 102.009 83.998 101.781 84.1534L72.0214 104.411C71.7931 104.567 71.4821 104.508 71.3267 104.279C71.1713 104.051 71.2304 103.74 71.4587 103.585L101.218 83.3267C101.446 83.1713 101.757 83.2304 101.913 83.4587Z" fill="black"/>
</svg>
