<svg width="112" height="112" viewBox="0 0 112 112" fill="none" xmlns="http://www.w3.org/2000/svg">
<path d="M62.9102 24.1234C69.1346 17.6213 79.5264 19.5264 85.8911 25.8911C92.2559 32.2559 94.1186 42.6037 87.6589 48.8721C82.8301 53.5579 75.4141 46.8378 70.6437 51.5831C65.9103 56.2916 72.0448 63.307 67.7707 68.4362C64.1694 72.758 55.1506 67.0251 51.1983 71.0285C47.2243 75.0539 53.1183 84.1475 48.768 87.763C41.8455 93.5162 32.1518 92.36 25.7871 85.9952C19.4223 79.6304 18.3446 70.0012 24.0193 63.0142C27.6215 58.5791 36.7729 64.4028 40.8131 60.3626C44.8533 56.3224 39.0407 47.1847 43.4647 43.5688C48.6056 39.3669 55.5636 45.6121 60.2585 40.9171C64.9534 36.2222 58.3187 28.9195 62.9102 24.1234Z" fill="#F9DCDC"/>
<path d="M31.5 13.5648C33.232 12.5648 33.0401 11.2322 33.0401 11.2322C33.0401 11.2322 31.982 10.3997 30.25 11.3997C28.5179 12.3997 28.71 13.7322 28.71 13.7322C28.71 13.7322 29.7679 14.5648 31.5 13.5648Z" fill="black"/>
<path d="M28.71 13.7322L35.96 26.2896C36.835 27.8051 36.777 28.7046 36.777 28.7046C36.777 28.7046 37.835 29.5372 38.71 31.0527L47.21 45.7751C48.085 47.2907 48.027 48.1902 48.027 48.1902C48.027 48.1902 49.085 49.0227 49.96 50.5383L58.71 65.6937C59.46 66.9928 59.527 68.1088 59.527 68.1088C59.527 68.1088 60.585 68.9413 61.46 70.4569L70.71 86.4783C71.585 87.9939 71.527 88.8934 71.527 88.8934C71.527 88.8934 72.585 89.7259 73.335 91.025L77.96 99.0357C78.835 100.551 78.777 101.451 78.777 101.451C78.777 101.451 80.018 101.6 81.7501 100.6C83.4821 99.6003 83.9731 98.4508 83.9731 98.4508C83.9731 98.4508 83.1651 98.0512 82.2901 96.5357L77.6651 88.525C76.9151 87.2259 76.7231 85.8934 76.7231 85.8934C76.7231 85.8934 75.9151 85.4939 75.0401 83.9783L65.7901 67.9569C64.9151 66.4413 64.7231 65.1088 64.7231 65.1088C64.7231 65.1088 63.7901 64.4928 63.0401 63.1937L54.2901 48.0383C53.4151 46.5227 53.2231 45.1902 53.2231 45.1902C53.2231 45.1902 52.4151 44.7907 51.5401 43.2751L43.0401 28.5527C42.1651 27.0372 41.9731 25.7046 41.9731 25.7046C41.9731 25.7046 41.1651 25.3051 40.2901 23.7896L33.0401 11.2322M28.71 13.7322C28.71 13.7322 29.7679 14.5648 31.5 13.5648C33.232 12.5648 33.0401 11.2322 33.0401 11.2322M28.71 13.7322C28.71 13.7322 28.5179 12.3997 30.25 11.3997C31.982 10.3997 33.0401 11.2322 33.0401 11.2322" stroke="black"/>
<ellipse rx="1" ry="1" transform="matrix(0.866025 -0.500001 0.499999 0.866026 77.4998 93.2391)" fill="black"/>
<ellipse rx="0.999998" ry="0.999999" transform="matrix(0.866025 -0.500001 0.499999 0.866026 71.4998 82.8468)" fill="black"/>
<circle cx="67.9998" cy="76.7847" r="1" transform="rotate(-30 67.9998 76.7847)" fill="black"/>
<ellipse rx="1" ry="1" transform="matrix(0.866026 -0.499999 0.500001 0.866025 64.4998 70.7225)" fill="black"/>
<circle cx="60.9998" cy="64.6603" r="1" transform="rotate(-30 60.9998 64.6603)" fill="black"/>
<ellipse rx="1" ry="1" transform="matrix(0.866026 -0.499999 0.500001 0.866025 57.4998 58.5981)" fill="black"/>
<ellipse rx="1" ry="1" transform="matrix(0.866026 -0.499999 0.500001 0.866025 53.9998 52.5359)" fill="black"/>
<path d="M36.6158 20.426C37.2408 21.5086 36.9781 21.9489 36.4998 22.2251C36.0215 22.5012 35.5088 22.5086 34.8838 21.426C34.2588 20.3435 34.5215 19.9031 34.9998 19.627C35.4781 19.3508 35.9908 19.3435 36.6158 20.426Z" fill="black"/>
<path fill-rule="evenodd" clip-rule="evenodd" d="M47.348 35.0145L52.348 43.6747C52.348 43.6747 52.232 45.4737 50.4999 46.4737C48.7679 47.4737 47.1519 46.6747 47.1519 46.6747L42.1519 38.0145C42.1519 38.0145 43.7679 38.8135 45.4999 37.8135C47.232 36.8135 47.348 35.0145 47.348 35.0145ZM47.982 38.1125L48.482 38.9785C48.482 38.9785 48.0822 39.7867 46.9998 40.4116C45.9174 41.0366 45.0179 40.9785 45.0179 40.9785L44.5179 40.1125C44.5179 40.1125 45.4174 40.1705 46.4999 39.5455C47.5824 38.9205 47.982 38.1125 47.982 38.1125Z" fill="black"/>
<path d="M59.7437 67.9838C59.7437 67.9838 61.0179 68.6914 62.75 67.6914C64.482 66.6914 64.5068 65.2338 64.5068 65.2338" stroke="black"/>
<path d="M71.7437 88.7684C71.7437 88.7684 72.8932 89.2594 74.6252 88.2594C76.3573 87.2594 76.5068 86.0184 76.5068 86.0184" stroke="black"/>
<path d="M48.2437 48.0652C48.2437 48.0652 49.5179 48.7728 51.25 47.7728C52.982 46.7728 53.0068 45.3152 53.0068 45.3152" stroke="black"/>
<path d="M36.9937 28.5796C36.9937 28.5796 38.0179 28.8542 39.75 27.8542C41.482 26.8542 41.7568 25.8296 41.7568 25.8296" stroke="black"/>
</svg>
