<svg width="112" height="112" viewBox="0 0 112 112" fill="none" xmlns="http://www.w3.org/2000/svg">
<path d="M98.9363 54.986C96.6762 61.1954 70.9675 67.3572 52.1412 66.6022C36.4932 65.9746 11.2704 61.9415 13.5304 55.7321C15.7905 49.5227 37.898 31.909 60.3255 44.1159C82.753 56.3229 101.196 48.7766 98.9363 54.986Z" fill="#D4F7E5"/>
<path d="M24.2092 82.6758C23.5664 81.9096 22.914 82.6597 22.8003 82.5524C21.9611 81.8401 21.2616 81.8854 21.2616 81.8854C21.2616 81.8854 20.6255 83.072 21.9111 84.6041C23.1967 86.1362 24.4756 85.7157 24.4756 85.7157C24.4756 85.7157 24.6417 85.0346 24.0859 84.0845C24 83.9539 24.8521 83.4419 24.2092 82.6758Z" fill="black"/>
<path d="M24.4756 85.7157L35.5832 76.3952C36.9238 75.2704 37.8197 75.1713 37.8197 75.1713C37.8197 75.1713 38.4559 73.9848 39.7964 72.8599L48.989 65.1465C50.3296 64.0216 51.2255 63.9225 51.2255 63.9225C51.2255 63.9225 51.8616 62.736 53.2022 61.6111L62.7778 53.5763C63.9268 52.6121 65.0143 52.3523 65.0143 52.3523C65.0143 52.3523 65.6504 51.1658 66.991 50.041L77.3326 41.3633C78.6732 40.2384 79.5691 40.1394 79.5691 40.1394C79.5691 40.1394 80.2053 38.9529 81.3544 37.9887L84.993 34.9355L87.6126 33.3901C88.9532 32.2652 90.8683 30.6583 90.8683 30.6583C90.8683 30.6583 91.3746 28.928 90.089 27.3959C88.8034 25.8639 87.0116 26.062 87.0116 26.062C87.0116 26.062 85.0964 27.669 83.7559 28.7938L81.779 31.1053L78.1404 34.1585C76.9913 35.1226 75.7124 35.5431 75.7124 35.5431C75.7124 35.5431 75.4593 36.4082 74.1187 37.5331L63.7771 46.2107C62.4365 47.3356 61.1576 47.7561 61.1576 47.7561C61.1576 47.7561 60.7129 48.7819 59.5638 49.7461L49.9883 57.7809C48.6477 58.9058 47.3688 59.3263 47.3688 59.3263C47.3688 59.3263 47.1156 60.1914 45.775 61.3162L36.5825 69.0297C35.2419 70.1546 33.963 70.575 33.963 70.575C33.963 70.575 33.7098 71.4401 32.3693 72.565L21.2616 81.8854M24.4756 85.7157C24.4756 85.7157 23.1967 86.1362 21.9111 84.6041C20.6255 83.072 21.2616 81.8854 21.2616 81.8854M24.4756 85.7157C24.4756 85.7157 24.6417 85.0346 24.0859 84.0845C24 83.9539 24.8521 83.4419 24.2092 82.6758C23.5664 81.9096 22.914 82.6597 22.8003 82.5524C21.9611 81.8401 21.2616 81.8854 21.2616 81.8854" stroke="black"/>
<circle cx="58.2982" cy="54.0716" r="1" transform="rotate(-40 58.2982 54.0716)" fill="black"/>
<circle cx="68.2567" cy="45.7154" r="1" transform="rotate(-40 68.2567 45.7154)" fill="black"/>
<ellipse rx="1" ry="1" transform="matrix(0.766045 -0.642787 0.642788 0.766044 74.3852 40.5731)" fill="black"/>
<circle cx="82.0456" cy="34.1452" r="1" transform="rotate(-40 82.0456 34.1452)" fill="black"/>
<path d="M79.3777 40.3C79.3777 40.3 79.884 38.5698 78.5984 37.0377C77.3128 35.5056 75.521 35.7037 75.521 35.7037" stroke="black"/>
<path d="M87.0381 33.8723C87.0381 33.8723 87.5444 32.1421 86.2588 30.61C84.9732 29.0779 83.1814 29.276 83.1814 29.276" stroke="black"/>
<path d="M64.8228 52.513C64.8228 52.513 65.3288 50.7829 64.0432 49.2508C62.7577 47.7187 60.966 47.9167 60.966 47.9167" stroke="black"/>
<path d="M51.2561 63.5704C51.2561 63.5704 51.5401 62.3531 50.2545 60.821C48.9689 59.2889 47.7208 59.3572 47.7208 59.3572" stroke="black"/>
<path d="M37.6282 75.3319C37.6282 75.3319 37.7514 73.9231 36.4659 72.391C35.1803 70.8589 33.7714 70.7357 33.7714 70.7357" stroke="black"/>
</svg>
