<svg width="112" height="112" viewBox="0 0 112 112" fill="none" xmlns="http://www.w3.org/2000/svg">
<path d="M61 21C72.5685 21 91 44.4315 91 61C91 77.5685 77.5685 91 61 91C44.4315 91 21 77.5685 21 61C21 44.4315 49.4315 21 61 21Z" fill="#FAE5E5"/>
<path d="M69.4999 99.5C69.4999 97.9865 69.4999 97.066 69.4999 94C69.4999 90.934 70.4999 88 70.4999 88L70.5 18M69.4999 99.5C69.4999 99.5 63.5496 99.5 58 99.5C52.4504 99.5 46.5 99.5 46.5 99.5M69.4999 99.5L68.4999 106.5C68.4999 106.5 64.0539 106.5 57.9999 106.5C51.9458 106.5 47.4999 106.5 47.4999 106.5L46.5 99.5M46.5 99.5C46.5 97.9865 46.4999 97.066 46.4999 94C46.4999 90.934 45.5 88 45.5 88V18M70.5 18H45.5M70.5 18V11.5M45.5 18V11.5M45.5 11.5L46.5 6.50001C46.5 6.50001 53.4996 6.49999 58.0394 6.50001C62.5792 6.50003 69.5 6.50001 69.5 6.50001L70.5 11.5M45.5 11.5C45.5 11.5 48.4438 10.5 49.5 10.5C51 10.5 51.3921 11.5668 52.5 11.5C53.692 11.4282 54.3058 9.54055 55.5 9.54055C57 9.54055 56.9295 10.5496 58.0394 10.5496C59.1493 10.5496 60.3901 9.5 61.5 9.5C63 9.5 63.3058 11.5 64.5 11.5C66 11.5 66.3901 10.5 67.5 10.5C69 10.5 70.5 11.5 70.5 11.5" stroke="black"/>
<path d="M48.5 11V68V99.5" stroke="black" stroke-linecap="round"/>
<path d="M50.5 11V64.1016V99.5" stroke="black" stroke-linecap="round"/>
<path d="M52.5 11.5V60.4955V99.5" stroke="black" stroke-linecap="round"/>
<path d="M54.5 10V56.964V99.5" stroke="black" stroke-linecap="round"/>
<path d="M56.5 10.25V49.75V99.5" stroke="black" stroke-linecap="round"/>
<path d="M59.5 10.25V46.5781V99.5" stroke="black" stroke-linecap="round"/>
<path d="M61.5 9.82812V43V99.5" stroke="black" stroke-linecap="round"/>
<path d="M63.5 11.0234V35V99.5" stroke="black" stroke-linecap="round"/>
<path d="M65.5 11.5V99.5" stroke="black" stroke-linecap="round"/>
<path d="M67.5 10.6875V99.5" stroke="black" stroke-linecap="round"/>
<rect x="47" y="73.0001" width="3" height="1" rx="0.5" fill="black"/>
<rect x="49.0005" y="69" width="3" height="1" rx="0.5" fill="black"/>
<rect x="51" y="65.0001" width="3" height="1" rx="0.5" fill="black"/>
<rect x="53" y="61.0001" width="3" height="1" rx="0.5" fill="black"/>
<rect x="55" y="57.0001" width="3" height="1" rx="0.5" fill="black"/>
<rect x="58.0005" y="49" width="3" height="1" rx="0.5" fill="black"/>
<rect x="60.0005" y="45" width="3" height="1" rx="0.5" fill="black"/>
<rect x="62.0005" y="36" width="3" height="1" rx="0.5" fill="black"/>
<rect x="64" y="32.0001" width="3" height="1" rx="0.5" fill="black"/>
<rect x="66" y="26.0001" width="3" height="1" rx="0.5" fill="black"/>
<path d="M45.503 79.9455L45.4323 79.4506L45.3386 79.464L45.2563 79.5107L45.503 79.9455ZM40.0004 86.5C40.0004 86.7761 40.2242 87 40.5004 87C40.7765 87 41.0004 86.7761 41.0004 86.5L40.0004 86.5ZM45.5737 80.4405C47.651 80.1438 48.5501 78.388 48.9349 76.9095C49.1311 76.1556 49.2092 75.4244 49.2388 74.8856C49.2538 74.6151 49.2566 74.3903 49.2557 74.2319C49.2552 74.1527 49.2538 74.0899 49.2525 74.0461C49.2518 74.0241 49.2512 74.007 49.2507 73.9949C49.2504 73.9888 49.2502 73.984 49.25 73.9805C49.2499 73.9788 49.2499 73.9773 49.2498 73.9763C49.2498 73.9757 49.2498 73.9753 49.2498 73.9749C49.2497 73.9747 49.2497 73.9745 49.2497 73.9744C49.2497 73.9742 49.2497 73.974 48.7504 74.0001C48.2511 74.0261 48.2511 74.026 48.2511 74.0259C48.2511 74.0259 48.2511 74.0258 48.2511 74.0257C48.251 74.0257 48.251 74.0257 48.2511 74.0258C48.2511 74.0261 48.2511 74.0266 48.2511 74.0275C48.2512 74.0292 48.2514 74.0323 48.2515 74.0365C48.2519 74.045 48.2524 74.0585 48.253 74.0765C48.2541 74.1127 48.2553 74.1672 48.2557 74.2377C48.2565 74.3789 48.254 74.5831 48.2404 74.8306C48.213 75.3277 48.1413 75.9884 47.9671 76.6577C47.6111 78.0258 46.8865 79.2428 45.4323 79.4506L45.5737 80.4405ZM45.2563 79.5107C43.8525 80.3071 40.0004 81.6498 40.0004 86.5L41.0004 86.5C41.0004 82.3501 44.1518 81.287 45.7497 80.3804L45.2563 79.5107Z" fill="black"/>
<path d="M74.9903 16.402C74.9362 16.1312 74.6727 15.9556 74.402 16.0097C74.1312 16.0639 73.9556 16.3273 74.0097 16.5981L74.9903 16.402ZM74.5 16.5C74.0097 16.5981 74.0097 16.5979 74.0097 16.5978C74.0097 16.5977 74.0096 16.5976 74.0096 16.5976C74.0096 16.5975 74.0096 16.5974 74.0096 16.5975C74.0096 16.5976 74.0097 16.598 74.0098 16.5987C74.0101 16.6001 74.0106 16.6026 74.0113 16.6063C74.0127 16.6137 74.0148 16.6255 74.0176 16.6416C74.0232 16.6737 74.0312 16.7225 74.0402 16.7856C74.0582 16.912 74.0802 17.0946 74.0949 17.3145C74.1244 17.758 74.123 18.3353 74.0097 18.902C73.8959 19.471 73.6771 19.9908 73.3027 20.3652C72.9404 20.7276 72.3864 21 71.5001 21L71.5001 22C72.6137 22.0001 73.4347 21.6475 74.0098 21.0723C74.5729 20.5093 74.8541 19.7791 74.9903 19.0981C75.127 18.4147 75.1256 17.742 75.0927 17.248C75.0761 16.9992 75.0512 16.7912 75.0301 16.6442C75.0196 16.5705 75.0101 16.5119 75.0029 16.4708C74.9994 16.4502 74.9964 16.434 74.9942 16.4224C74.9932 16.4166 74.9923 16.412 74.9916 16.4086C74.9913 16.4069 74.991 16.4055 74.9908 16.4044C74.9907 16.4038 74.9906 16.4033 74.9905 16.4029C74.9905 16.4027 74.9904 16.4025 74.9904 16.4024C74.9903 16.4022 74.9903 16.402 74.5 16.5ZM71.5001 21C70.3862 21 69.5222 21.3516 68.8675 21.8972C68.2216 22.4354 67.8056 23.14 67.5358 23.8143C67.2657 24.4897 67.1329 25.158 67.0669 25.6527C67.0338 25.9013 67.0171 26.1093 67.0086 26.2566C67.0044 26.3304 67.0023 26.3892 67.0012 26.4305C67.0006 26.4512 67.0003 26.4675 67.0002 26.4792C67.0001 26.485 67 26.4897 67 26.4932C67 26.4949 67 26.4964 67 26.4975C67 26.4981 67 26.4986 67 26.499C67 26.4992 67 26.4994 67 26.4995C67 26.4998 67 26.5 67.5 26.5C68 26.5 68 26.5002 68 26.5003C68 26.5004 68 26.5005 68 26.5006C68 26.5007 68 26.5007 68 26.5007C68 26.5006 68 26.5002 68 26.4996C68 26.4982 68 26.4957 68.0001 26.4921C68.0002 26.4849 68.0004 26.4731 68.0008 26.4572C68.0017 26.4253 68.0034 26.3767 68.007 26.3137C68.0142 26.1876 68.0288 26.005 68.0581 25.7849C68.1172 25.342 68.2344 24.7603 68.4643 24.1857C68.6946 23.6101 69.0285 23.0647 69.5077 22.6654C69.978 22.2735 70.614 22 71.5001 22L71.5001 21Z" fill="black"/>
<rect x="56" y="102" width="4" height="2" rx="1" fill="black"/>
</svg>
