<svg width="112" height="112" viewBox="0 0 112 112" fill="none" xmlns="http://www.w3.org/2000/svg">
<path fill-rule="evenodd" clip-rule="evenodd" d="M41.8173 32.4343L18.4346 45.9343L31.9346 69.317L55.3173 55.817L48.5673 44.3507L41.8173 32.4343ZM66.066 18.4343L42.6833 31.9343L56.1833 55.317L79.566 41.817L72.816 30.3507L66.066 18.4343ZM32.4346 70.183L55.8173 56.683L62.5673 68.5994L69.3173 80.0657L45.9346 93.5657L32.4346 70.183ZM80.066 42.683L56.6833 56.183L70.1833 79.5657L93.566 66.0657L86.816 54.5994L80.066 42.683Z" fill="#E5E5FA"/>
<path d="M63.5 97.5L62.5 103.5C62.5 103.5 59 103.5 56 103.5C53 103.5 49.5 103.5 49.5 103.5L48.5 97.5M63.5 97.5C63.5 97.5 63.5 95.75 63.5 93.5C63.5 91.25 64.5 88.5 64.5 88.5V20.5M63.5 97.5C63.5 97.5 58.838 97.5 56 97.5C53.162 97.5 48.5 97.5 48.5 97.5M64.5 20.5H56H47.5M64.5 20.5L63.5 13.5M47.5 20.5V88.5C47.5 88.5 48.5 91.25 48.5 93.5C48.5 95.75 48.5 97.5 48.5 97.5M47.5 20.5L48.5 13.5M48.5 13.5L49.5 7.5C49.5 7.5 54.1716 7.5 56 7.5C57.8284 7.5 62.5 7.5 62.5 7.5L63.5 13.5M48.5 13.5C48.5 13.5 51.055 12.5 52.5 12.5C53.945 12.5 54.555 13.5 56 13.5C57.445 13.5 58.055 12.5 59.5 12.5C60.945 12.5 63.5 13.5 63.5 13.5" stroke="black"/>
<path fill-rule="evenodd" clip-rule="evenodd" d="M74.7667 80.7753C74.9004 80.8099 74.9807 80.9463 74.9461 81.08L70.0383 100.045C70.0037 100.179 69.8673 100.259 69.7336 100.225C69.5999 100.19 69.5196 100.054 69.5542 99.92L74.4621 80.9547C74.4967 80.821 74.6331 80.7407 74.7667 80.7753Z" fill="black"/>
<path d="M60.5 101.5V99.5H56H51.5V101.5H56H60.5Z" stroke="black"/>
<path fill-rule="evenodd" clip-rule="evenodd" d="M63.25 97.25C63.25 97.25 62.75 96 62.75 93.75C62.75 91.5 64 88.5 64 88.5C64 88.5 61.5 89 56 89C50.5 89 48 88.5 48 88.5C48 88.5 49.2892 91.5 49.2892 93.75C49.2892 96 48.75 97.25 48.75 97.25C48.75 97.25 53.162 97.75 56 97.75C58.838 97.75 63.25 97.25 63.25 97.25ZM50 89V96H49.9916H49.9825H49.9735H49.9645H49.9556H49.9467H49.9379H49.9291H49.9204H49.9117H49.9031H49.8946H49.8861H49.8776H49.8692H49.8609H49.8526H49.8444H49.8362H49.828H49.82H49.8119H49.804H49.7961H49.7882H49.7804H49.7727H49.765H49.7573H49.7497H49.7422H49.7347H49.7273H49.7199H49.7126H49.7053H49.6981H49.691H49.6839H49.6768H49.6698H49.6629H49.656H49.6492H49.6424H49.6357H49.6291H49.6225H49.6159H49.6094H49.603H49.5966H49.5903H49.584H49.5778H49.5717H49.5656H49.5595H49.5535H49.5476H49.5417H49.5359H49.5302H49.5244H49.5188H49.5132H49.5077H49.5022H49.4968H49.4914H49.4861H49.4808H49.4757H49.4705H49.4654H49.4604H49.4555H49.4505H49.4457H49.4409H49.4362H49.4315H49.4269H49.4223H49.4178H49.4134H49.409H49.4046H49.4004H49.3962H49.392H49.3879H49.3839H49.3799H49.376H49.3721H49.3683H49.3646H49.3609H49.3573H49.3537H49.3502H49.3467H49.3433H49.34H49.3367H49.3335H49.3304H49.3273H49.3242H49.3213H49.3184H49.3155H49.3127H49.31H49.3073H49.3047H49.3021H49.2996H49.2972H49.2948H49.2925H49.2903H49.2881H49.2859H49.2839H49.2819H49.2799H49.278H49.2762H49.2744H49.2727H49.2711H49.2695H49.268H49.2665H49.2651H49.2638H49.2625H49.2613H49.2601H49.259H49.258H49.257H49.2561H49.2553H49.2545H49.2538H49.2531H49.2525H49.252H49.2515H49.2511H49.2508H49.2505H49.2503H49.2501H49.25L49.25 96.5L49.25 97H49.2501H49.2503H49.2505H49.2508H49.2511H49.2515H49.252H49.2525H49.2531H49.2538H49.2545H49.2553H49.2561H49.257H49.258H49.259H49.2601H49.2613H49.2625H49.2638H49.2651H49.2665H49.268H49.2695H49.2711H49.2727H49.2744H49.2762H49.278H49.2799H49.2819H49.2839H49.2859H49.2881H49.2903H49.2925H49.2948H49.2972H49.2996H49.3021H49.3047H49.3073H49.31H49.3127H49.3155H49.3184H49.3213H49.3242H49.3273H49.3304H49.3335H49.3367H49.34H49.3433H49.3467H49.3502H49.3537H49.3573H49.3609H49.3646H49.3683H49.3721H49.376H49.3799H49.3839H49.3879H49.392H49.3962H49.4004H49.4046H49.409H49.4134H49.4178H49.4223H49.4269H49.4315H49.4362H49.4409H49.4457H49.4505H49.4555H49.4604H49.4654H49.4705H49.4757H49.4808H49.4861H49.4914H49.4968H49.5022H49.5077H49.5132H49.5188H49.5244H49.5302H49.5359H49.5417H49.5476H49.5535H49.5595H49.5656H49.5717H49.5778H49.584H49.5903H49.5966H49.603H49.6094H49.6159H49.6225H49.6291H49.6357H49.6424H49.6492H49.656H49.6629H49.6698H49.6768H49.6839H49.691H49.6981H49.7053H49.7126H49.7199H49.7273H49.7347H49.7422H49.7497H49.7573H49.765H49.7727H49.7804H49.7882H49.7961H49.804H49.8119H49.82H49.828H49.8362H49.8444H49.8526H49.8609H49.8692H49.8776H49.8861H49.8946H49.9031H49.9117H49.9204H49.9291H49.9379H49.9467H49.9556H49.9645H49.9735H49.9825H49.9916H50.0007H50.0099H50.0191H50.0284H50.0378H50.0472H50.0566H50.0661H50.0757H50.0853H50.0949H50.1046H50.1144H50.1242H50.134H50.1439H50.1539H50.1639H50.174H50.1841H50.1943H50.2045H50.2148H50.2251H50.2354H50.2459H50.2563H50.2669H50.2774H50.2881H50.2987H50.3095H50.3202H50.3311H50.3419H50.3529H50.3638H50.3749H50.3859H50.397H50.4082H50.4194H50.4307H50.442H50.4534H50.4648H50.4763H50.4878H50.4994H50.511H50.5227H50.5344H50.5461H50.558H50.5698H50.5817H50.5937H50.6057H50.6178H50.6299H50.642H50.6542H50.6665H50.6788H50.6911H50.7035H50.7159H50.7284H50.741H50.7535H50.7662H50.7789H50.7916H50.8044H50.8172H50.83H50.843H50.8559H50.8689H50.882H50.8951H50.9082H50.9214H50.9347H50.948H50.9613H50.9747H50.9881H51.0016H51.0151H51.0287H51.0423H51.056H51.0697H51.0835H51.0973H51.1111H51.125H51.1389H51.1529H51.167H51.181H51.1952H51.2093H51.2235H51.2378H51.2521H51.2664H51.2808H51.2953H51.3098H51.3243H51.3389H51.3535H51.3681H51.3828H51.3976H51.4124H51.4272H51.4421H51.457H51.472H51.487H51.5021H51.5172H51.5323H51.5475H51.5628H51.5781H51.5934H51.6088H51.6242H51.6396H51.6551H51.6707H51.6862H51.7019H51.7175H51.7333H51.749H51.7648H51.7807H51.7966H51.8125H51.8285H51.8445H51.8605H51.8766H51.8928H51.909H51.9252H51.9414H51.9578H51.9741H51.9905H52.0069H52.0234H52.0399H52.0565H52.0731H52.0898H52.1064H52.1232H52.1399H52.1568H52.1736H52.1905H52.2074H52.2244H52.2414H52.2585H52.2756H52.2927H52.3099H52.3271H52.3444H52.3617H52.379H52.3964H52.4139H52.4313H52.4488H52.4664H52.4839H52.5016H52.5192H52.5369H52.5547H52.5725H52.5903H52.6082H52.6261H52.644H52.662H52.68H52.6981H52.7162H52.7343H52.7525H52.7707H52.789H52.8073H52.8256H52.844H52.8624H52.8808H52.8993H52.9178H52.9364H52.955H52.9736H52.9923H53.011H53.0298H53.0486H53.0674H53.0863H53.1052H53.1241H53.1431H53.1621H53.1812H53.2003H53.2194H53.2386H53.2578H53.2771H53.2963H53.3157H53.335H53.3544H53.3738H53.3933H53.4128H53.4323H53.4519H53.4715H53.4912H53.5109H53.5306H53.5504H53.5701H53.59H53.6098H53.6297H53.6497H53.6697H53.6897H53.7097H53.7298H53.7499H53.7701H53.7903H53.8105H53.8307H53.851H53.8714H53.8917H53.9121H53.9326H53.953H53.9735H53.9941H54.0146H54.0353H54.0559H54.0766H54.0973H54.118H54.1388H54.1596H54.1805H54.2014H54.2223H54.2432H54.2642H54.2852H54.3063H54.3274H54.3485H54.3696H54.3908H54.412H54.4333H54.4546H54.4759H54.4973H54.5187H54.5401H54.5615H54.583H54.6045H54.6261H54.6477H54.6693H54.6909H54.7126H54.7343H54.7561H54.7778H54.7997H54.8215H54.8434H54.8653H54.8872H54.9092H54.9312H54.9532H54.9753H54.9974H55.0195H55.0417H55.0639H55.0861H55.1084H55.1306H55.153H55.1753H55.1977H55.2201H55.2425H55.265H55.2875H55.3101H55.3326H55.3552H55.3778H55.4005H55.4232H55.4459H55.4686H55.4914H55.5142H55.5371H55.5599H55.5828H55.6058H55.6287H55.6517H55.6747H55.6978H55.7208H55.7439H55.7671H55.7902H55.8134H55.8366H55.8599H55.8832H55.9065H55.9298H55.9532H55.9766H56H56.0234H56.0468H56.0702H56.0935H56.1168H56.1401H56.1634H56.1866H56.2098H56.2329H56.2561H56.2792H56.3022H56.3253H56.3483H56.3713H56.3942H56.4172H56.4401H56.4629H56.4858H56.5086H56.5314H56.5541H56.5768H56.5995H56.6222H56.6448H56.6674H56.6899H56.7125H56.735H56.7575H56.7799H56.8023H56.8247H56.847H56.8694H56.8916H56.9139H56.9361H56.9583H56.9805H57.0026H57.0247H57.0468H57.0688H57.0908H57.1128H57.1347H57.1566H57.1785H57.2003H57.2222H57.2439H57.2657H57.2874H57.3091H57.3307H57.3523H57.3739H57.3955H57.417H57.4385H57.4599H57.4813H57.5027H57.5241H57.5454H57.5667H57.588H57.6092H57.6304H57.6515H57.6726H57.6937H57.7148H57.7358H57.7568H57.7777H57.7986H57.8195H57.8404H57.8612H57.882H57.9027H57.9234H57.9441H57.9647H57.9854H58.0059H58.0265H58.047H58.0674H58.0879H58.1083H58.1286H58.149H58.1693H58.1895H58.2097H58.2299H58.2501H58.2702H58.2903H58.3103H58.3303H58.3503H58.3703H58.3902H58.41H58.4299H58.4496H58.4694H58.4891H58.5088H58.5285H58.5481H58.5677H58.5872H58.6067H58.6262H58.6456H58.665H58.6843H58.7037H58.7229H58.7422H58.7614H58.7806H58.7997H58.8188H58.8379H58.8569H58.8759H58.8948H58.9137H58.9326H58.9514H58.9702H58.989H59.0077H59.0264H59.045H59.0636H59.0822H59.1007H59.1192H59.1376H59.156H59.1744H59.1927H59.211H59.2293H59.2475H59.2657H59.2838H59.3019H59.32H59.338H59.356H59.3739H59.3918H59.4097H59.4275H59.4453H59.4631H59.4808H59.4984H59.5161H59.5336H59.5512H59.5687H59.5861H59.6036H59.621H59.6383H59.6556H59.6729H59.6901H59.7073H59.7244H59.7415H59.7586H59.7756H59.7926H59.8095H59.8264H59.8432H59.8601H59.8768H59.8936H59.9102H59.9269H59.9435H59.9601H59.9766H59.9931H60.0095H60.0259H60.0422H60.0586H60.0748H60.091H60.1072H60.1234H60.1395H60.1555H60.1715H60.1875H60.2034H60.2193H60.2352H60.251H60.2667H60.2825H60.2981H60.3138H60.3293H60.3449H60.3604H60.3758H60.3912H60.4066H60.4219H60.4372H60.4525H60.4677H60.4828H60.4979H60.513H60.528H60.543H60.5579H60.5728H60.5876H60.6024H60.6172H60.6319H60.6465H60.6611H60.6757H60.6902H60.7047H60.7192H60.7336H60.7479H60.7622H60.7765H60.7907H60.8048H60.819H60.833H60.8471H60.8611H60.875H60.8889H60.9027H60.9165H60.9303H60.944H60.9577H60.9713H60.9849H60.9984H61.0119H61.0253H61.0387H61.052H61.0653H61.0786H61.0918H61.1049H61.118H61.1311H61.1441H61.157H61.17H61.1828H61.1956H61.2084H61.2211H61.2338H61.2465H61.259H61.2716H61.2841H61.2965H61.3089H61.3212H61.3335H61.3458H61.358H61.3701H61.3822H61.3943H61.4063H61.4183H61.4302H61.442H61.4539H61.4656H61.4773H61.489H61.5006H61.5122H61.5237H61.5352H61.5466H61.558H61.5693H61.5806H61.5918H61.603H61.6141H61.6251H61.6362H61.6471H61.6581H61.6689H61.6798H61.6905H61.7013H61.7119H61.7226H61.7331H61.7437H61.7541H61.7646H61.7749H61.7852H61.7955H61.8057H61.8159H61.826H61.8361H61.8461H61.8561H61.866H61.8758H61.8856H61.8954H61.9051H61.9147H61.9243H61.9339H61.9434H61.9528H61.9622H61.9716H61.9809H61.9901H61.9993H62.0084H62.0175H62.0265H62.0355H62.0444H62.0533H62.0621H62.0709H62.0796H62.0883H62.0969H62.1054H62.1139H62.1224H62.1308H62.1391H62.1474H62.1556H62.1638H62.172H62.18H62.1881H62.196H62.2039H62.2118H62.2196H62.2273H62.235H62.2427H62.2503H62.2578H62.2653H62.2727H62.2801H62.2874H62.2947H62.3019H62.309H62.3161H62.3232H62.3302H62.3371H62.344H62.3508H62.3576H62.3643H62.3709H62.3775H62.3841H62.3906H62.397H62.4034H62.4097H62.416H62.4222H62.4283H62.4344H62.4405H62.4465H62.4524H62.4583H62.4641H62.4698H62.4756H62.4812H62.4868H62.4923H62.4978H62.5032H62.5086H62.5139H62.5192H62.5243H62.5295H62.5346H62.5396H62.5445H62.5495H62.5543H62.5591H62.5638H62.5685H62.5731H62.5777H62.5822H62.5866H62.591H62.5954H62.5996H62.6038H62.608H62.6121H62.6161H62.6201H62.624H62.6279H62.6317H62.6354H62.6391H62.6427H62.6463H62.6498H62.6533H62.6567H62.66H62.6633H62.6665H62.6696H62.6727H62.6758H62.6787H62.6816H62.6845H62.6873H62.69H62.6927H62.6953H62.6979H62.7004H62.7028H62.7052H62.7075H62.7097H62.7119H62.7141H62.7161H62.7181H62.7201H62.722H62.7238H62.7256H62.7273H62.7289H62.7305H62.732H62.7335H62.7349H62.7362H62.7375H62.7387H62.7399H62.741H62.742H62.743H62.7439H62.7447H62.7455H62.7462H62.7469H62.7475H62.748H62.7485H62.7489H62.7492H62.7495H62.7497H62.7499H62.75L62.75 96.5L62.75 96H62.7499H62.7497H62.7495H62.7492H62.7489H62.7485H62.748H62.7475H62.7469H62.7462H62.7455H62.7447H62.7439H62.743H62.742H62.741H62.7399H62.7387H62.7375H62.7362H62.7349H62.7335H62.732H62.7305H62.7289H62.7273H62.7256H62.7238H62.722H62.7201H62.7181H62.7161H62.7141H62.7119H62.7097H62.7075H62.7052H62.7028H62.7004H62.6979H62.6953H62.6927H62.69H62.6873H62.6845H62.6816H62.6787H62.6758H62.6727H62.6696H62.6665H62.6633H62.66H62.6567H62.6533H62.6498H62.6463H62.6427H62.6391H62.6354H62.6317H62.6279H62.624H62.6201H62.6161H62.6121H62.608H62.6038H62.5996H62.5954H62.591H62.5866H62.5822H62.5777H62.5731H62.5685H62.5638H62.5591H62.5543H62.5495H62.5445H62.5396H62.5346H62.5295H62.5243H62.5192H62.5139H62.5086H62.5032H62.4978H62.4923H62.4868H62.4812H62.4756H62.4698H62.4641H62.4583H62.4524H62.4465H62.4405H62.4344H62.4283H62.4222H62.416H62.4097H62.4034H62.397H62.3906H62.3841H62.3775H62.3709H62.3643H62.3576H62.3508H62.344H62.3371H62.3302H62.3232H62.3161H62.309H62.3019H62.2947H62.2874H62.2801H62.2727H62.2653H62.2578H62.2503H62.2427H62.235H62.2273H62.2196H62.2118H62.2039H62.196H62.1881H62.18H62.172H62.1638H62.1556H62.1474H62.1391H62.1308H62.1224H62.1139H62.1054H62.0969H62.0883H62.0796H62.0709H62.0621H62.0533H62.0444H62.0355H62.0265H62.0175H62.0084H62V89H61V96H60.9984H60.9849H60.9713H60.9577H60.944H60.9303H60.9165H60.9027H60.8889H60.875H60.8611H60.8471H60.833H60.819H60.8048H60.7907H60.7765H60.7622H60.7479H60.7336H60.7192H60.7047H60.6902H60.6757H60.6611H60.6465H60.6319H60.6172H60.6024H60.5876H60.5728H60.5579H60.543H60.528H60.513H60.4979H60.4828H60.4677H60.4525H60.4372H60.4219H60.4066H60.3912H60.3758H60.3604H60.3449H60.3293H60.3138H60.2981H60.2825H60.2667H60.251H60.2352H60.2193H60.2034H60.1875H60.1715H60.1555H60.1395H60.1234H60.1072H60.091H60.0748H60.0586H60.0422H60.0259H60.0095H60V89H59V96H58.989H58.9702H58.9514H58.9326H58.9137H58.8948H58.8759H58.8569H58.8379H58.8188H58.7997H58.7806H58.7614H58.7422H58.7229H58.7037H58.6843H58.665H58.6456H58.6262H58.6067H58.5872H58.5677H58.5481H58.5285H58.5088H58.4891H58.4694H58.4496H58.4299H58.41H58.3902H58.3703H58.3503H58.3303H58.3103H58.2903H58.2702H58.2501H58.2299H58.2097H58.1895H58.1693H58.149H58.1286H58.1083H58.0879H58.0674H58.047H58.0265H58.0059H58V89H57V96H56.9805H56.9583H56.9361H56.9139H56.8916H56.8694H56.847H56.8247H56.8023H56.7799H56.7575H56.735H56.7125H56.6899H56.6674H56.6448H56.6222H56.5995H56.5768H56.5541H56.5314H56.5086H56.4858H56.4629H56.4401H56.4172H56.3942H56.3713H56.3483H56.3253H56.3022H56.2792H56.2561H56.2329H56.2098H56.1866H56.1634H56.1401H56.1168H56.0935H56.0702H56.0468H56.0234H56H55.9766H55.9532H55.9298H55.9065H55.8832H55.8599H55.8366H55.8134H55.7902H55.7671H55.7439H55.7208H55.6978H55.6747H55.6517H55.6287H55.6058H55.5828H55.5599H55.5371H55.5142H55.4914H55.4686H55.4459H55.4232H55.4005H55.3778H55.3552H55.3326H55.3101H55.2875H55.265H55.2425H55.2201H55.1977H55.1753H55.153H55.1306H55.1084H55.0861H55.0639H55.0417H55.0195H55V89H54V96H53.9941H53.9735H53.953H53.9326H53.9121H53.8917H53.8714H53.851H53.8307H53.8105H53.7903H53.7701H53.7499H53.7298H53.7097H53.6897H53.6697H53.6497H53.6297H53.6098H53.59H53.5701H53.5504H53.5306H53.5109H53.4912H53.4715H53.4519H53.4323H53.4128H53.3933H53.3738H53.3544H53.335H53.3157H53.2963H53.2771H53.2578H53.2386H53.2194H53.2003H53.1812H53.1621H53.1431H53.1241H53.1052H53.0863H53.0674H53.0486H53.0298H53.011H53V89H52V96H51.9905H51.9741H51.9578H51.9414H51.9252H51.909H51.8928H51.8766H51.8605H51.8445H51.8285H51.8125H51.7966H51.7807H51.7648H51.749H51.7333H51.7175H51.7019H51.6862H51.6707H51.6551H51.6396H51.6242H51.6088H51.5934H51.5781H51.5628H51.5475H51.5323H51.5172H51.5021H51.487H51.472H51.457H51.4421H51.4272H51.4124H51.3976H51.3828H51.3681H51.3535H51.3389H51.3243H51.3098H51.2953H51.2808H51.2664H51.2521H51.2378H51.2235H51.2093H51.1952H51.181H51.167H51.1529H51.1389H51.125H51.1111H51.0973H51.0835H51.0697H51.056H51.0423H51.0287H51.0151H51.0016H51V89H50Z" fill="black"/>
<path fill-rule="evenodd" clip-rule="evenodd" d="M60 12.75C60 12.4739 59.7761 12.25 59.5 12.25C59.2239 12.25 59 12.4739 59 12.75L59 28C58.7239 28 58.5 28.2239 58.5 28.5C58.5 28.7762 58.7239 29 59 29L59 89H60L60 29C60.2761 29 60.5 28.7762 60.5 28.5C60.5 28.2239 60.2761 28 60 28L60 12.75ZM50.5 12.75C50.7761 12.75 51 12.9739 51 13.25V26C51.2761 26 51.5 26.2239 51.5 26.5C51.5 26.7761 51.2761 27 51 27V89H50V27C49.7239 27 49.5 26.7761 49.5 26.5C49.5 26.2239 49.7239 26 50 26V13.25C50 12.9739 50.2239 12.75 50.5 12.75ZM61 22C60.7239 22 60.5 22.2239 60.5 22.5C60.5 22.7761 60.7239 23 61 23V89H62V23C62.2761 23 62.5 22.7761 62.5 22.5C62.5 22.2239 62.2761 22 62 22V13.25C62 12.9739 61.7761 12.75 61.5 12.75C61.2239 12.75 61 12.9739 61 13.25V22ZM52.5 12.25C52.7761 12.25 53 12.4739 53 12.75V36H54V13.5C54 13.2239 54.2239 13 54.5 13C54.7761 13 55 13.2239 55 13.5V36H57V13.5C57 13.2239 57.2239 13 57.5 13C57.7761 13 58 13.2239 58 13.5V36C58.2761 36 58.5 36.2239 58.5 36.5C58.5 36.7761 58.2761 37 58 37V42C58.2761 42 58.5 42.2239 58.5 42.5C58.5 42.7761 58.2761 43 58 43V48C58.2761 48 58.5 48.2239 58.5 48.5C58.5 48.7761 58.2761 49 58 49V53C58.2761 53 58.5 53.2239 58.5 53.5C58.5 53.7761 58.2761 54 58 54V57C58.2761 57 58.5 57.2239 58.5 57.5C58.5 57.7761 58.2761 58 58 58V61C58.2761 61 58.5 61.2239 58.5 61.5C58.5 61.7761 58.2761 62 58 62V64C58.2761 64 58.5 64.2239 58.5 64.5C58.5 64.7761 58.2761 65 58 65V67C58.2761 67 58.5 67.2239 58.5 67.5C58.5 67.7761 58.2761 68 58 68V70C58.2761 70 58.5 70.2239 58.5 70.5C58.5 70.7761 58.2761 71 58 71V73C58.2761 73 58.5 73.2239 58.5 73.5C58.5 73.7761 58.2761 74 58 74V76C58.2761 76 58.5 76.2239 58.5 76.5C58.5 76.7762 58.2761 77 58 77V78C58.2761 78 58.5 78.2239 58.5 78.5C58.5 78.7762 58.2761 79 58 79V80C58.2761 80 58.5 80.2239 58.5 80.5C58.5 80.7762 58.2761 81 58 81V82C58.2761 82 58.5 82.2239 58.5 82.5C58.5 82.7762 58.2761 83 58 83V84C58.2761 84 58.5 84.2239 58.5 84.5C58.5 84.7762 58.2761 85 58 85V86C58.2761 86 58.5 86.2239 58.5 86.5C58.5 86.7762 58.2761 87 58 87V89H57V87H55V89H54V87H53V89H52V87C51.7239 87 51.5 86.7762 51.5 86.5C51.5 86.2239 51.7239 86 52 86V85C51.7239 85 51.5 84.7762 51.5 84.5C51.5 84.2239 51.7239 84 52 84V83C51.7239 83 51.5 82.7762 51.5 82.5C51.5 82.2239 51.7239 82 52 82V81C51.7239 81 51.5 80.7762 51.5 80.5C51.5 80.2239 51.7239 80 52 80V79C51.7239 79 51.5 78.7762 51.5 78.5C51.5 78.2239 51.7239 78 52 78V77C51.7239 77 51.5 76.7762 51.5 76.5C51.5 76.2239 51.7239 76 52 76V74C51.7239 74 51.5 73.7761 51.5 73.5C51.5 73.2239 51.7239 73 52 73V71C51.7239 71 51.5 70.7761 51.5 70.5C51.5 70.2239 51.7239 70 52 70V68C51.7239 68 51.5 67.7761 51.5 67.5C51.5 67.2239 51.7239 67 52 67V65C51.7239 65 51.5 64.7761 51.5 64.5C51.5 64.2239 51.7239 64 52 64V62C51.7239 62 51.5 61.7761 51.5 61.5C51.5 61.2239 51.7239 61 52 61V58C51.7239 58 51.5 57.7761 51.5 57.5C51.5 57.2239 51.7239 57 52 57V54C51.7239 54 51.5 53.7761 51.5 53.5C51.5 53.2239 51.7239 53 52 53V49C51.7239 49 51.5 48.7761 51.5 48.5C51.5 48.2239 51.7239 48 52 48V43C51.7239 43 51.5 42.7761 51.5 42.5C51.5 42.2239 51.7239 42 52 42V37C51.7239 37 51.5 36.7761 51.5 36.5C51.5 36.2239 51.7239 36 52 36V12.75C52 12.4739 52.2239 12.25 52.5 12.25ZM53 86H54V85H53V86ZM55 86H57V85H55V86ZM57 83V84H55V83H57ZM54 83V84H53V83H54ZM53 82H54V81H53V82ZM55 82H57V81H55V82ZM57 79V80H55V79H57ZM54 79V80H53V79H54ZM53 78H54V77H53V78ZM55 78H57V77H55V78ZM57 74V76H55V74H57ZM54 74V76H53V74H54ZM53 73H54V71H53V73ZM55 73H57V71H55V73ZM57 68V70H55V68H57ZM54 68V70H53V68H54ZM53 67H54V65H53V67ZM55 67H57V65H55V67ZM57 62V64H55V62H57ZM54 62V64H53V62H54ZM53 61H54V58H53V61ZM55 61H57V58H55V61ZM57 54V57H55V54H57ZM54 54V57H53V54H54ZM53 53H54V49H53V53ZM55 53H57V49H55V53ZM57 43V48H55V43H57ZM54 43V48H53V43H54ZM53 42H54V37H53V42ZM55 42H57V37H55V42Z" fill="black"/>
</svg>
