<svg width="112" height="112" viewBox="0 0 112 112" fill="none" xmlns="http://www.w3.org/2000/svg">
<path d="M61.2867 61.2867C44.1443 78.4291 20 92 20 92C20 92 32.7852 67.1309 49.958 49.958C67.1309 32.7852 92 20 92 20C92 20 78.4291 44.1443 61.2867 61.2867Z" fill="#F9EBDC"/>
<path fill-rule="evenodd" clip-rule="evenodd" d="M48.9112 83.0035C48.4686 83.0386 48.1455 83.3335 47.9277 83.6601C47.6944 84.0102 47.5209 84.4797 47.3899 85.0037C47.126 86.0593 47 87.4797 47 89C47 90.5203 47.126 91.9407 47.3899 92.9963C47.5209 93.5203 47.6944 93.9898 47.9277 94.3399C48.1455 94.6665 48.4686 94.9614 48.9112 94.9965C48.9334 95.0035 48.9609 95.0119 48.9935 95.0217C49.0892 95.0505 49.2291 95.0911 49.4102 95.1394C49.7724 95.236 50.2998 95.3637 50.9689 95.4912C52.3067 95.746 54.2134 96 56.5 96C58.8062 96 60.607 95.6155 61.8381 95.2268C62.4534 95.0325 62.9262 94.8371 63.2486 94.6884C63.4098 94.614 63.5334 94.5512 63.6185 94.5059C63.661 94.4833 63.694 94.4651 63.7171 94.452C63.7287 94.4454 63.7379 94.4401 63.7445 94.4362L63.7527 94.4314L63.7555 94.4298L63.7565 94.4292C63.7565 94.4292 63.7572 94.4287 63.5 94L63.7572 94.4287L63.8343 94.3825L63.8904 94.3123L63.5 94C63.8904 94.3123 63.8909 94.3118 63.8909 94.3118L63.8924 94.3099L63.8947 94.3069L63.9004 94.2996C63.9046 94.2941 63.9097 94.2873 63.9156 94.2791C63.9274 94.2628 63.9426 94.2412 63.9605 94.214C63.9964 94.1596 64.0433 94.0829 64.0974 93.9814C64.2057 93.7783 64.3423 93.4771 64.4762 93.0586C64.744 92.2217 65 90.9195 65 89C65 87.0805 64.744 85.7783 64.4762 84.9414C64.3423 84.5229 64.2057 84.2217 64.0974 84.0186C64.0433 83.9171 63.9964 83.8404 63.9605 83.786C63.9426 83.7588 63.9274 83.7372 63.9156 83.7209C63.9097 83.7127 63.9046 83.7059 63.9004 83.7004L63.8947 83.6931L63.8924 83.6901L63.8909 83.6882C63.8909 83.6882 63.8904 83.6877 63.5 84L63.8904 83.6877L63.8343 83.6175L63.7572 83.5713L63.5 84C63.7572 83.5713 63.7572 83.5713 63.7572 83.5713L63.7565 83.5708L63.7555 83.5702L63.7527 83.5686L63.7445 83.5638C63.7379 83.5599 63.7287 83.5546 63.7171 83.548C63.694 83.5349 63.661 83.5167 63.6185 83.4941C63.5334 83.4488 63.4098 83.386 63.2486 83.3116C62.9262 83.1629 62.4534 82.9675 61.8381 82.7732C60.607 82.3845 58.8062 82 56.5 82C54.2134 82 52.3067 82.254 50.9689 82.5088C50.2998 82.6363 49.7724 82.764 49.4102 82.8606C49.2291 82.9089 49.0892 82.9495 48.9935 82.9783C48.9609 82.9881 48.9334 82.9965 48.9112 83.0035ZM50.1081 83.7156C50.3235 84.0591 50.4859 84.5069 50.6101 85.0037C50.874 86.0593 51 87.4797 51 89C51 90.5203 50.874 91.9407 50.6101 92.9963C50.4859 93.4931 50.3235 93.9409 50.1081 94.2844C50.3976 94.3538 50.7489 94.4313 51.1561 94.5088C52.4433 94.754 54.2866 95 56.5 95C58.6938 95 60.393 94.6345 61.5369 94.2732C62.1091 94.0925 62.5425 93.9129 62.8295 93.7804C62.973 93.7142 63.0799 93.6598 63.1491 93.623C63.1502 93.6224 63.1513 93.6218 63.1524 93.6212C63.1695 93.5931 63.1907 93.5565 63.2151 93.5108C63.2943 93.3623 63.4077 93.1167 63.5238 92.7539C63.756 92.0283 64 90.8305 64 89C64 87.1695 63.756 85.9717 63.5238 85.2461C63.4077 84.8833 63.2943 84.6377 63.2151 84.4892C63.1907 84.4435 63.1695 84.4069 63.1524 84.3788C63.1513 84.3782 63.1502 84.3776 63.1491 84.377C63.0799 84.3402 62.973 84.2858 62.8295 84.2196C62.5425 84.0871 62.1091 83.9075 61.5369 83.7268C60.393 83.3655 58.6938 83 56.5 83C54.2866 83 52.4433 83.246 51.1561 83.4912C50.7489 83.5687 50.3976 83.6462 50.1081 83.7156ZM48.3601 85.2463C48.124 86.1907 48 87.5203 48 89C48 90.4797 48.124 91.8093 48.3601 92.7537C48.4791 93.2297 48.6181 93.5727 48.7598 93.7851C48.9027 93.9996 48.9885 94 49 94C49.0115 94 49.0973 93.9996 49.2402 93.7851C49.3819 93.5727 49.5209 93.2297 49.6399 92.7537C49.876 91.8093 50 90.4797 50 89C50 87.5203 49.876 86.1907 49.6399 85.2463C49.5209 84.7703 49.3819 84.4273 49.2402 84.2148C49.0973 84.0004 49.0115 84 49 84C48.9885 84 48.9027 84.0004 48.7598 84.2148C48.6181 84.4273 48.4791 84.7703 48.3601 85.2463Z" fill="black"/>
<path fill-rule="evenodd" clip-rule="evenodd" d="M48 87.5C48 87.2239 48.2239 87 48.5 87H49C49.2761 87 49.5 87.2239 49.5 87.5C49.5 87.7761 49.2761 88 49 88H48.5C48.2239 88 48 87.7761 48 87.5Z" fill="black"/>
<path fill-rule="evenodd" clip-rule="evenodd" d="M48.5003 86.9916L49.9998 41.0082L49.5001 40.9919L47.9995 87.0084L48.7512 94.5249L49.2487 94.4752L48.5003 86.9916Z" fill="black"/>
<path fill-rule="evenodd" clip-rule="evenodd" d="M56.1855 38.6676L49.1855 46.4176L48.8145 46.0825L55.8145 38.3325L56.1855 38.6676Z" fill="black"/>
<path fill-rule="evenodd" clip-rule="evenodd" d="M48.5002 86.9898L49.4999 31.009L49 31L47.9998 87.0103L48.7512 94.5249L49.2487 94.4752L48.5002 86.9898Z" fill="black"/>
<path fill-rule="evenodd" clip-rule="evenodd" d="M49.364 36.75H49.767C49.7859 36.8153 49.8061 36.8904 49.8263 36.9748C49.9124 37.3328 50 37.8558 50 38.5C50 39.1442 49.9124 39.6672 49.8263 40.0252C49.8061 40.1096 49.7859 40.1847 49.767 40.25H49.364C49.3656 40.2405 49.3671 40.2308 49.3687 40.2211C49.4348 39.8085 49.5 39.2193 49.5 38.5C49.5 37.7807 49.4348 37.1915 49.3687 36.7789C49.3671 36.7692 49.3656 36.7595 49.364 36.75ZM50.8008 40.25H51.375C51.7082 40.0504 52.0455 39.6342 52.3268 39.1812C52.4721 38.9471 52.5889 38.7257 52.6694 38.5627C52.6803 38.5406 52.6905 38.5197 52.7 38.5C52.6905 38.4803 52.6803 38.4594 52.6694 38.4373C52.5889 38.2743 52.4721 38.0529 52.3268 37.8188C52.0455 37.3658 51.7082 36.9496 51.375 36.75H50.8008C50.9015 37.1719 51 37.7706 51 38.5C51 39.2294 50.9015 39.8281 50.8008 40.25ZM53.5688 38C53.5679 37.9982 53.567 37.9964 53.5661 37.9946C53.4754 37.8109 53.343 37.5598 53.1764 37.2914C52.8593 36.7807 52.3578 36.106 51.7157 35.7989L51.6134 35.75H48.75C48.3719 35.75 48.142 36.0358 48.0356 36.2002C47.9092 36.3953 47.8122 36.6405 47.7384 36.8853C47.5894 37.3796 47.5 37.9907 47.5 38.5C47.5 39.0093 47.5894 39.6204 47.7384 40.1147C47.8122 40.3595 47.9092 40.6047 48.0356 40.7998C48.142 40.9642 48.3719 41.25 48.75 41.25H51.6134L51.7157 41.2011C52.3578 40.894 52.8593 40.2193 53.1764 39.7086C53.343 39.4402 53.4754 39.1891 53.5661 39.0054C53.567 39.0036 53.5679 39.0018 53.5688 39H57.5C57.7761 39 58 38.7761 58 38.5C58 38.2239 57.7761 38 57.5 38H53.5688Z" fill="black"/>
<path fill-rule="evenodd" clip-rule="evenodd" d="M49.364 26.75H49.767C49.7859 26.8152 49.8061 26.8904 49.8263 26.9748C49.9124 27.3328 50 27.8558 50 28.5C50 29.1442 49.9124 29.6672 49.8263 30.0252C49.8061 30.1096 49.7859 30.1847 49.767 30.25H49.364C49.3656 30.2404 49.3671 30.2308 49.3687 30.2211C49.4348 29.8085 49.5 29.2193 49.5 28.5C49.5 27.7806 49.4348 27.1915 49.3687 26.7789C49.3671 26.7692 49.3656 26.7595 49.364 26.75ZM50.8008 30.25H51.375C51.7082 30.0504 52.0455 29.6342 52.3268 29.1811C52.4721 28.9471 52.5889 28.7257 52.6694 28.5627C52.6803 28.5406 52.6905 28.5197 52.7 28.5C52.6905 28.4803 52.6803 28.4593 52.6694 28.4373C52.5889 28.2742 52.4721 28.0529 52.3268 27.8188C52.0455 27.3658 51.7082 26.9496 51.375 26.75H50.8008C50.9015 27.1719 51 27.7706 51 28.5C51 29.2294 50.9015 29.8281 50.8008 30.25ZM53.5688 28L53.5661 27.9946C53.4754 27.8108 53.343 27.5598 53.1764 27.2913C52.8593 26.7807 52.2444 26.356 51.6023 26.0489L51.5 26H48.6366C48.2585 26 48.142 26.0358 48.0356 26.2001C47.9092 26.3952 47.8122 26.6404 47.7384 26.8853C47.5894 27.3796 47.5 27.9907 47.5 28.5C47.5 29.0093 47.5894 29.6204 47.7384 30.1147C47.8122 30.3595 47.9092 30.6047 48.0356 30.7998C48.142 30.9642 48.3608 31 48.7389 31H51.6023L51.7046 30.9511C52.3467 30.644 52.8593 30.2193 53.1764 29.7086C53.343 29.4402 53.4754 29.1891 53.5661 29.0053L53.5688 29H57.5C57.7761 29 58 28.7761 58 28.5C58 28.2238 57.7761 28 57.5 28H53.5688Z" fill="black"/>
<path d="M52.5 16C52.5 16 56 19 56 22.5C56 22.5 56 18.5 52 18.5C52 18.5 51.5 17 52.5 16Z" fill="black"/>
<path fill-rule="evenodd" clip-rule="evenodd" d="M52.4504 15.6204L52.125 16C52.4504 15.6204 52.4503 15.6202 52.4504 15.6204L52.4519 15.6216L52.4547 15.624L52.4639 15.6321C52.4717 15.6389 52.4828 15.6486 52.4968 15.6611C52.5249 15.6861 52.5651 15.7224 52.6156 15.7693C52.7166 15.8631 52.8592 15.9997 53.0296 16.1741C53.3697 16.5223 53.8232 17.0243 54.2775 17.6409C55.1766 18.8611 56.125 20.592 56.125 22.5V82.5C56.125 82.7761 55.9011 83 55.625 83C55.3489 83 55.125 82.7761 55.125 82.5V22.5004L55.1249 22.4966C55.1249 22.4918 55.1247 22.4834 55.1243 22.4717C55.1235 22.4483 55.1219 22.4117 55.1185 22.3637C55.1116 22.2677 55.0976 22.1271 55.0693 21.9572C55.0123 21.6149 54.8991 21.1662 54.6778 20.7236C54.4574 20.2829 54.1348 19.8574 53.6601 19.541C53.1886 19.2267 52.5375 19 51.625 19H51.2646L51.1507 18.6581L51.625 18.5C51.1507 18.6581 51.1507 18.6583 51.1507 18.6581L51.1504 18.6573L51.1501 18.6563L51.1493 18.654L51.1473 18.6477C51.1457 18.6427 51.1437 18.6363 51.1413 18.6285C51.1365 18.6128 51.1303 18.5916 51.1231 18.5651C51.1087 18.5124 51.0903 18.4386 51.0722 18.348C51.0362 18.1678 51 17.9154 51 17.625C51 17.0479 51.1446 16.2733 51.7714 15.6464L52.0988 15.319L52.4504 15.6204ZM52.1 18.344C52.1 18.344 52.1 18.344 52.1 18.344V18.344ZM52.0288 18.013C52.0124 17.9014 52 17.7689 52 17.625C52 17.3411 52.0475 17.0335 52.1916 16.7491C52.2303 16.7876 52.2712 16.8288 52.3142 16.8728C52.6303 17.1964 53.0518 17.6632 53.4725 18.2341C53.503 18.2756 53.5336 18.3175 53.564 18.36C53.1224 18.1741 52.6133 18.0516 52.0288 18.013Z" fill="black"/>
<path fill-rule="evenodd" clip-rule="evenodd" d="M26.4311 45.2977C26.4433 45.4354 26.3416 45.5567 26.2038 45.5685L24.6898 45.6991L88.1566 98.9541L87.1298 99.3979L39.8709 59.743L39.17 58.604L38.8956 59.7577C38.8637 59.8921 38.7287 59.9749 38.5942 59.9426C38.4597 59.9104 38.3765 59.7753 38.4085 59.6409L38.6305 58.7073L23.0661 46.3031L23.9402 45.2613L26.1596 45.0699C26.2973 45.058 26.4189 45.16 26.4311 45.2977ZM39.0404 58.3934L39.0419 58.3958L23.7797 46.2324L24.0969 45.8543L39.0404 58.3934Z" fill="black"/>
</svg>
