<svg width="112" height="112" viewBox="0 0 112 112" fill="none" xmlns="http://www.w3.org/2000/svg">
<path fill-rule="evenodd" clip-rule="evenodd" d="M16 20C16 17.7909 17.7909 16 20 16C22.2091 16 24 17.7909 24 20C24 22.2091 22.2091 24 20 24C17.7909 24 16 22.2091 16 20ZM26 20C26 17.7909 27.7908 16 30 16C32.2091 16 34 17.7909 34 20C34 22.2091 32.2091 24 30 24C27.7908 24 26 22.2091 26 20ZM40 26C37.7909 26 36 27.7909 36 30C36 32.2091 37.7909 34 40 34C42.2091 34 44 32.2091 44 30C44 27.7909 42.2091 26 40 26ZM36 20C36 17.7909 37.7909 16 40 16C42.2091 16 44 17.7909 44 20C44 22.2091 42.2091 24 40 24C37.7909 24 36 22.2091 36 20ZM50.0001 26C47.7909 26 46.0001 27.7909 46.0001 30C46.0001 32.2091 47.7909 34 50.0001 34C52.2092 34 54.0001 32.2091 54.0001 30C54.0001 27.7909 52.2092 26 50.0001 26ZM46.0001 20C46.0001 17.7909 47.7909 16 50.0001 16C52.2092 16 54.0001 17.7909 54.0001 20C54.0001 22.2091 52.2092 24 50.0001 24C47.7909 24 46.0001 22.2091 46.0001 20ZM40 36C37.7909 36 36 37.7909 36 40C36 42.2092 37.7909 44 40 44C42.2091 44 44 42.2092 44 40C44 37.7909 42.2091 36 40 36ZM26 30C26 27.7909 27.7908 26 30 26C32.2091 26 34 27.7909 34 30C34 32.2091 32.2091 34 30 34C27.7908 34 26 32.2091 26 30ZM20 26C17.7909 26 16 27.7909 16 30C16 32.2091 17.7909 34 20 34C22.2091 34 24 32.2091 24 30C24 27.7909 22.2091 26 20 26ZM16 40C16 37.7909 17.7909 36 20 36C22.2091 36 24 37.7909 24 40C24 42.2092 22.2091 44 20 44C17.7909 44 16 42.2092 16 40ZM30 36C27.7908 36 26 37.7909 26 40C26 42.2092 27.7908 44 30 44C32.2091 44 34 42.2092 34 40C34 37.7909 32.2091 36 30 36ZM46.0001 40C46.0001 37.7909 47.7909 36 50.0001 36C52.2092 36 54.0001 37.7909 54.0001 40C54.0001 42.2092 52.2092 44 50.0001 44C47.7909 44 46.0001 42.2092 46.0001 40ZM59.9999 26C57.7908 26 55.9999 27.7908 55.9999 30C55.9999 32.2091 57.7908 34 59.9999 34C62.2091 34 64 32.2091 64 30C64 27.7908 62.2091 26 59.9999 26ZM55.9999 20C55.9999 17.7909 57.7908 16 59.9999 16C62.2091 16 64 17.7909 64 20C64 22.2091 62.2091 24 59.9999 24C57.7908 24 55.9999 22.2091 55.9999 20ZM59.9999 36C57.7908 36 55.9999 37.7909 55.9999 40C55.9999 42.2092 57.7908 44 59.9999 44C62.2091 44 64 42.2092 64 40C64 37.7909 62.2091 36 59.9999 36Z" fill="#DCEBF9"/>
<path fill-rule="evenodd" clip-rule="evenodd" d="M34.1142 25.2687C33.7304 25.1586 33.3634 25.2639 33.0609 25.4352C32.7604 25.6053 32.4769 25.865 32.2166 26.1566C31.6945 26.7419 31.1842 27.5503 30.7422 28.3453C30.297 29.1462 29.907 29.9595 29.6291 30.5704C29.5199 30.8104 29.4276 31.02 29.3557 31.1863L29.3546 31.186L29.3011 31.3134L29.3009 31.3138C29.2625 31.4038 29.2326 31.4749 29.2123 31.5239L29.189 31.5803L29.1848 31.5904L29.1829 31.5952L29.1827 31.5955C24.8799 41.8447 22.0821 51.4871 20.3295 62.4706L20.3285 62.4769L20.3271 62.4854L20.317 62.5456C20.3083 62.598 20.2959 62.6742 20.2807 62.7712C20.2505 62.965 20.2093 63.2417 20.1652 63.575C20.0771 64.2404 19.9769 65.1367 19.9301 66.0519C19.8836 66.9604 19.8879 67.9163 20.0206 68.6893C20.0867 69.0746 20.1896 69.445 20.3543 69.7485C20.5201 70.0541 20.7754 70.3379 21.1593 70.4479C21.5431 70.558 21.91 70.4526 22.2126 70.2814C22.513 70.1113 22.7966 69.8516 23.0568 69.56C23.579 68.9747 24.0892 68.1663 24.5312 67.3712C24.9764 66.5703 25.3664 65.7571 25.6444 65.1462C25.7536 64.9062 25.8458 64.6966 25.9177 64.5303L31.74 66.1998C36.7845 67.6463 40.547 65.427 43.5662 63.1411C44.1031 62.7346 44.6096 62.3321 45.0947 61.9466C45.9992 61.2277 46.8292 60.5681 47.643 60.0523C48.8812 59.2676 49.9194 58.9291 50.9085 59.2127L53.0975 59.8404C53.0525 60.0795 53.0069 60.3909 52.9957 60.7176C52.9837 61.0684 53.0094 61.4776 53.148 61.8412C53.2929 62.2212 53.5752 62.5781 54.0644 62.7184C54.5536 62.8587 54.9821 62.7056 55.3064 62.4601C55.6166 62.2252 55.8553 61.8918 56.031 61.588C56.1946 61.305 56.321 61.0168 56.4095 60.7901L58.5986 61.4178C59.5876 61.7014 60.2887 62.5386 60.9229 63.8603C61.3397 64.7289 61.694 65.7281 62.0802 66.8171L62.0802 66.8172C62.2873 67.4011 62.5035 68.0108 62.7434 68.6401C64.0925 72.1786 66.1072 76.0545 71.1517 77.501L76.974 79.1705C76.9469 79.3496 76.9141 79.5762 76.8795 79.8376C76.7915 80.503 76.6913 81.3994 76.6444 82.3145C76.5979 83.223 76.6022 84.1789 76.7349 84.952C76.8011 85.3372 76.904 85.7077 77.0686 86.0111C77.2344 86.3167 77.4898 86.6005 77.8736 86.7105C78.2574 86.8206 78.6244 86.7153 78.9269 86.544C79.2274 86.3739 79.5109 86.1142 79.7712 85.8226C80.2933 85.2373 80.8036 84.4289 81.2456 83.6339C81.6908 82.833 82.0808 82.0197 82.3587 81.4088C82.498 81.1028 82.6096 80.8463 82.6867 80.6659C82.7252 80.5756 82.7551 80.5043 82.7755 80.4554L82.7988 80.399L82.8043 80.3856L82.8049 80.384L82.8057 80.3823C83.3023 79.2124 83.7782 78.0502 84.2341 76.8927C84.2556 76.852 84.2764 76.8124 84.2965 76.7739C84.4077 76.5615 84.4983 76.3837 84.5611 76.2587C84.5926 76.1962 84.6171 76.1469 84.6339 76.113L84.6531 76.074L84.6582 76.0637L84.6595 76.0609L84.6599 76.0602L84.66 76.0599C84.6601 76.0599 84.6601 76.0598 84.575 76.0183C84.575 76.0183 84.575 76.0183 84.575 76.0183L84.6601 76.0598L84.667 76.0457L84.673 76.0311C87.6683 68.7665 89.6261 61.939 90.9355 54.191L90.9355 54.191L90.936 54.1884L90.8372 54.1722C90.8372 54.1722 90.8372 54.1722 90.8372 54.1722C90.936 54.1883 90.936 54.1883 90.936 54.1883L90.936 54.188L90.9362 54.1872L90.9367 54.1842L90.9385 54.1729L90.9453 54.1303C90.9511 54.0932 90.9595 54.0392 90.9698 53.9706C90.9905 53.8335 91.0191 53.6378 91.0506 53.4025C91.0903 53.1065 91.1349 52.7462 91.1748 52.3596C91.3436 51.4196 91.5044 50.4708 91.6576 49.5119L91.658 49.5096L91.6607 49.4938L91.6708 49.4336C91.6795 49.3812 91.6919 49.3049 91.7071 49.208C91.7373 49.0142 91.7785 48.7375 91.8226 48.4042C91.9107 47.7387 92.0109 46.8424 92.0577 45.9273C92.1042 45.0188 92.0999 44.0629 91.9672 43.2898C91.9011 42.9046 91.7982 42.5341 91.6335 42.2307C91.4677 41.9251 91.2123 41.6413 90.8285 41.5312C90.4447 41.4212 90.0777 41.5265 89.7752 41.6978C89.4748 41.8679 89.1912 42.1275 88.931 42.4192C88.4088 43.0044 87.8985 43.8128 87.4566 44.6079C87.0113 45.4088 86.6214 46.2221 86.3434 46.833C86.2342 47.073 86.142 47.2826 86.0701 47.4488L80.2477 45.7793C75.1943 44.3303 71.3935 46.6813 68.3449 49.0843C67.8028 49.5116 67.2907 49.9348 66.8001 50.3403L66.8 50.3404L66.7999 50.3405L66.7998 50.3406L66.7998 50.3406C65.8839 51.0976 65.0427 51.7928 64.22 52.3379C62.9649 53.1694 61.9224 53.5283 60.9415 53.2471L58.7417 52.6163C58.7693 52.4285 58.7912 52.1973 58.7855 51.9536C58.772 51.3813 58.5858 50.491 57.6477 50.222C56.7096 49.953 56.08 50.6094 55.7652 51.0875C55.6312 51.2912 55.5273 51.4989 55.4511 51.6728L53.2514 51.042C52.2705 50.7607 51.5766 49.9038 50.9529 48.5336C50.544 47.6353 50.199 46.6 49.8234 45.4726L49.8233 45.4723L49.8232 45.4721L49.8232 45.472C49.622 44.8683 49.4121 44.2381 49.1788 43.5886C47.8668 39.9351 45.8894 35.9272 40.836 34.4782L35.0138 32.8087C35.0409 32.6296 35.0737 32.403 35.1083 32.1416C35.1963 31.4762 35.2965 30.5798 35.3434 29.6647C35.3899 28.7562 35.3856 27.8003 35.2529 27.0272C35.1867 26.642 35.0838 26.2715 34.9192 25.9681C34.7534 25.6625 34.498 25.3787 34.1142 25.2687ZM90.7876 48.5924C90.8015 48.4935 90.8162 48.3867 90.8313 48.273C90.9173 47.6229 91.014 46.7552 91.059 45.8762C91.1044 44.9905 91.0954 44.1221 90.9816 43.459C90.9245 43.1262 90.8458 42.8757 90.7546 42.7076C90.6645 42.5415 90.5896 42.503 90.5529 42.4925C90.5162 42.482 90.4323 42.4749 90.2679 42.568C90.1014 42.6623 89.9019 42.833 89.6771 43.085C89.2292 43.587 88.7615 44.3186 88.3306 45.0938C87.9029 45.8631 87.5252 46.6503 87.2536 47.2471C87.1181 47.545 87.0096 47.7943 86.9351 47.9687C86.9058 48.0373 86.8818 48.0943 86.8635 48.1381L86.8201 48.2428C82.601 58.4373 79.8551 68.0135 78.0308 78.8946L78.0303 78.8978L78.0303 78.8979L78.0302 78.8986L78.0296 78.9019L78.013 79.001C78.0052 79.0484 77.9951 79.1114 77.9831 79.1881C77.9538 79.3754 77.9138 79.6443 77.8709 79.9688C77.7849 80.6189 77.6881 81.4866 77.6431 82.3656C77.5978 83.2513 77.6067 84.1197 77.7205 84.7828C77.7777 85.1156 77.8563 85.3661 77.9476 85.5342C78.0377 85.7003 78.1125 85.7388 78.1492 85.7493C78.186 85.7598 78.2698 85.7669 78.4342 85.6738C78.6007 85.5795 78.8002 85.4088 79.025 85.1568C79.4729 84.6548 79.9406 83.9232 80.3715 83.148C80.7992 82.3787 81.177 81.5915 81.4485 80.9947C81.5313 80.8127 81.604 80.6489 81.665 80.5092C81.4967 80.5973 81.275 80.6638 81.0319 80.5941C80.6805 80.4934 80.5297 80.1827 80.464 79.9815C80.3918 79.7604 80.3631 79.4972 80.3543 79.2359C80.3364 78.7062 80.3979 78.0461 80.4818 77.4195C80.5666 76.7872 80.6777 76.1651 80.7672 75.7028C80.8121 75.4711 80.8517 75.2786 80.8802 75.1437C80.8944 75.0762 80.9059 75.023 80.9138 74.9866L80.923 74.9446L80.9255 74.9335L80.9255 74.9335C82.5133 67.2795 84.4675 60.465 87.1771 53.1325L87.1808 53.1226L87.1849 53.1128L87.6461 53.3058C87.1849 53.1128 87.1849 53.1127 87.185 53.1127L87.1851 53.1124L87.1854 53.1116L87.1866 53.1088L87.191 53.0983L87.2078 53.0586C87.2225 53.0241 87.244 52.9738 87.2716 52.9102C87.3267 52.7829 87.4062 52.6019 87.5042 52.3855C87.6997 51.9537 87.9706 51.3777 88.2693 50.8071C88.5655 50.2414 88.8994 49.6609 89.2224 49.231C89.382 49.0186 89.5575 48.8178 89.7424 48.6749C89.9086 48.5467 90.2022 48.3737 90.5454 48.4721C90.6393 48.499 90.7194 48.5412 90.7876 48.5924ZM90.1839 52.22C88.6559 60.7154 86.4692 68.4799 83.324 76.4744C83.1176 76.8639 82.8559 77.3411 82.5754 77.811C82.2515 78.3538 81.9136 78.8685 81.6147 79.2272C81.5247 79.3352 81.4448 79.421 81.3759 79.4864C81.3654 79.4088 81.3575 79.3144 81.3537 79.2023C81.3388 78.7579 81.3909 78.1643 81.473 77.5523C81.5543 76.946 81.6616 76.3444 81.749 75.8929C81.7926 75.6675 81.8311 75.4805 81.8586 75.3501C81.8724 75.285 81.8834 75.234 81.8909 75.1995L81.8995 75.1605L81.9016 75.1509L81.9021 75.1486L81.9022 75.1481L81.9022 75.1481L81.9023 75.1481L81.9039 75.1403C83.481 67.5372 85.4205 60.7725 88.1113 53.4895L88.1124 53.487L88.128 53.45C88.1419 53.4174 88.1625 53.3691 88.1892 53.3077C88.2425 53.1846 88.3197 53.0087 88.4151 52.7981C88.6062 52.3761 88.8684 51.8187 89.1552 51.271C89.4445 50.7184 89.7485 50.1955 90.0219 49.8318C90.0982 49.7302 90.1666 49.6486 90.2261 49.5853C90.2431 49.6705 90.2579 49.7759 90.2688 49.9026C90.3078 50.3559 90.2886 50.9604 90.2411 51.5823C90.2246 51.7976 90.205 52.0122 90.1839 52.22ZM34.0442 32.5307C34.0663 32.3812 34.0911 32.2059 34.1169 32.0104C34.2029 31.3603 34.2997 30.4926 34.3447 29.6136C34.3901 28.7279 34.3811 27.8595 34.2673 27.1964C34.2102 26.8636 34.1315 26.6131 34.0402 26.445C33.9501 26.2789 33.8753 26.2405 33.8386 26.2299C33.8018 26.2194 33.718 26.2124 33.5536 26.3054C33.3871 26.3997 33.1876 26.5704 32.9628 26.8224C32.5149 27.3244 32.0472 28.0561 31.6163 28.8312C31.1886 29.6005 30.8108 30.3877 30.5393 30.9846C30.4576 31.164 30.3858 31.3259 30.3253 31.4643L34.0442 32.5307ZM24.9482 64.2523L21.2292 63.1859C21.2072 63.3354 21.1824 63.5107 21.1565 63.7062C21.0705 64.3562 20.9738 65.224 20.9288 66.103C20.8834 66.9887 20.8924 67.8571 21.0062 68.5202C21.0633 68.853 21.142 69.1035 21.2332 69.2716C21.3233 69.4377 21.3982 69.4761 21.4349 69.4867C21.4716 69.4972 21.5555 69.5042 21.7199 69.4112C21.8864 69.3169 22.0858 69.1462 22.3106 68.8942C22.7585 68.3922 23.2263 67.6605 23.6572 66.8854C24.0849 66.1161 24.4626 65.3289 24.7342 64.732C24.8158 64.5526 24.8877 64.3908 24.9482 64.2523ZM54.1695 59.6309L54.1704 59.6279L54.1704 59.6277L54.1705 59.6277L54.1705 59.6275L54.1705 59.6274L54.3082 59.1473L53.8276 59.0095L51.1841 58.2515C49.77 57.846 48.4122 58.3809 47.1077 59.2077C46.251 59.7506 45.3468 60.4686 44.4118 61.2111C43.936 61.589 43.4522 61.9732 42.9626 62.3438C40.0023 64.5851 36.5837 66.5485 32.0156 65.2386L21.3875 62.191C23.1074 51.616 25.814 42.2819 29.9334 32.3922L40.5604 35.4395C45.1196 36.7468 46.9467 40.3317 48.2377 43.9265C48.4511 44.521 48.6522 45.1238 48.8499 45.7164L48.85 45.7165L48.85 45.7165C49.2381 46.8799 49.613 48.0039 50.0427 48.9479C50.6955 50.3819 51.5535 51.5954 52.9758 52.0033L55.6192 52.7613L56.0999 52.8991L56.2374 52.4194L56.2374 52.4193L56.2375 52.4189L56.2376 52.4187L56.2377 52.4184L56.2379 52.4178L56.2412 52.4069L56.2475 52.387L56.2571 52.3578C56.2719 52.3138 56.2947 52.2494 56.3257 52.1725C56.3887 52.0162 56.4808 51.8192 56.6005 51.6373C56.8618 51.2404 57.1086 51.1077 57.3721 51.1833C57.6355 51.2588 57.7745 51.5021 57.7858 51.9772C57.7909 52.1949 57.7646 52.4108 57.7352 52.5767C57.7207 52.6584 57.706 52.7251 57.6952 52.7702L57.6885 52.7978L57.6827 52.8203L57.6797 52.8312L57.6796 52.8319L57.6795 52.8322L57.6794 52.8324L57.6793 52.8327L57.6793 52.8329L57.5417 53.3125L58.0224 53.4503L60.6658 54.2083C62.0881 54.6162 63.4588 54.0417 64.7723 53.1715C65.6369 52.5987 66.5505 51.8442 67.4961 51.0632L67.4962 51.0632L67.4962 51.0632L67.4962 51.0631L67.4963 51.0631C67.9779 50.6653 68.4679 50.2607 68.9639 49.8697C71.9637 47.5052 75.4129 45.4332 79.9721 46.7406L85.6829 48.3781C81.626 58.2774 78.9435 67.6323 77.1381 78.1772L71.4273 76.5397C66.8592 75.2298 65.0005 71.7532 63.6778 68.2838C63.459 67.7101 63.2524 67.128 63.0491 66.5555L63.049 66.5552C62.6495 65.4301 62.2632 64.342 61.8245 63.4277C61.1563 62.0352 60.2883 60.862 58.8742 60.4565L56.2307 59.6985L55.7501 59.5607L55.6124 60.0409L55.6124 60.041L55.6123 60.0412L55.6123 60.0412L55.6123 60.0414L55.6114 60.0444L55.6066 60.0603C55.6021 60.075 55.5951 60.0976 55.5855 60.1269C55.5664 60.1856 55.5374 60.2705 55.4989 60.372C55.4212 60.5771 55.3084 60.8399 55.1653 61.0874C55.0185 61.3412 54.8597 61.544 54.7028 61.6628C54.5599 61.771 54.4516 61.7891 54.3401 61.7572C54.2285 61.7252 54.1463 61.6525 54.0824 61.485C54.0123 61.3011 53.9851 61.0449 53.9951 60.7519C54.0049 60.4661 54.0485 60.1835 54.0913 59.9684C54.1124 59.8619 54.1329 59.7745 54.1477 59.7146C54.1552 59.6847 54.1612 59.6618 54.1652 59.647L54.1695 59.6309ZM90.4061 49.4322C90.406 49.4324 90.4036 49.4337 90.399 49.4354C90.4038 49.4328 90.4061 49.4319 90.4061 49.4322ZM90.159 49.3666C90.156 49.3627 90.1546 49.3603 90.1547 49.3601C90.1548 49.3598 90.1563 49.3618 90.159 49.3666ZM81.1874 79.6298C81.1867 79.6301 81.1863 79.6304 81.1863 79.6304C81.1863 79.6306 81.1883 79.63 81.1927 79.628C81.1903 79.6287 81.1885 79.6294 81.1874 79.6298ZM81.4304 79.7122C81.4331 79.7162 81.4343 79.7187 81.4342 79.7189C81.4341 79.7191 81.4327 79.7171 81.4304 79.7122Z" fill="black"/>
<path d="M27.3794 37.9017L46.5959 52.5146L80.9946 63.1586L46.0446 54.4372L22.1423 56.1658" stroke="black" stroke-miterlimit="1.88813" stroke-linecap="round" stroke-dasharray="1 2"/>
<path d="M22.623 56.3034L44.7268 68.1031L77.5458 78.8142L44.0377 70.5063L22.1639 69.6956" stroke="black" stroke-miterlimit="1.88813" stroke-linecap="round" stroke-dasharray="1 2"/>
<path d="M34.5674 26.4389L53.5471 37.3428L86.366 48.0539L52.858 39.746L27.3794 37.9017" stroke="black" stroke-miterlimit="1.88813" stroke-linecap="round" stroke-dasharray="1 2"/>
<path d="M41.1589 64.2194L62.6529 67.2618" stroke="black" stroke-miterlimit="1.88813" stroke-linecap="round" stroke-dasharray="1 2"/>
<path d="M47.7744 41.1491L67.4768 50.4397" stroke="black" stroke-miterlimit="1.88813" stroke-linecap="round" stroke-dasharray="1 2"/>
<path d="M34.396 26.1297L89.6685 41.9788" stroke="black" stroke-miterlimit="1.88813" stroke-linecap="round" stroke-dasharray="1 2"/>
<path d="M21.8545 69.8671L77.1269 85.7162" stroke="black" stroke-miterlimit="1.88813" stroke-linecap="round" stroke-dasharray="1 2"/>
<path d="M45.545 54.3661L46.1346 52.3099C46.3049 51.7159 46.9678 51.417 47.5258 51.6827L51.187 53.426C51.6284 53.6362 51.8531 54.1346 51.7184 54.6046L51.4963 55.3791C51.3615 55.849 50.9068 56.1526 50.4212 56.0969L46.3924 55.6352C45.7785 55.5649 45.3746 54.9601 45.545 54.3661Z" fill="black"/>
<path d="M43.6499 70.0448L44.1533 68.2891C44.3146 67.7268 44.9221 67.4223 45.4691 67.6297L49.2223 69.0527C49.7086 69.2371 49.9724 69.7634 49.829 70.2634L49.5094 71.3782C49.366 71.8781 48.8634 72.1847 48.3533 72.0834L44.4163 71.3012C43.8425 71.1872 43.4886 70.6071 43.6499 70.0448Z" fill="black"/>
<path d="M52.4702 39.2844L52.9736 37.5288C53.1349 36.9664 53.7424 36.6619 54.2894 36.8694L58.0426 38.2923C58.5289 38.4767 58.7927 39.0031 58.6493 39.503L58.3297 40.6178C58.1863 41.1178 57.6837 41.4243 57.1735 41.323L53.2366 40.5409C52.6628 40.4269 52.3089 39.8468 52.4702 39.2844Z" fill="black"/>
<rect width="1.99999" height="1.99996" rx="0.999981" transform="matrix(0.961263 0.275633 -0.275641 0.96126 21.4565 54.9288)" fill="black"/>
<rect width="1.99999" height="1.99997" rx="0.999985" transform="matrix(0.961262 0.275636 -0.275639 0.961261 26.6938 36.6649)" fill="black"/>
<rect width="1.99999" height="2" rx="0.999996" transform="matrix(0.961261 0.27564 -0.275635 0.961262 80.3088 61.9216)" fill="black"/>
<rect x="85.6804" y="46.817" width="2.00003" height="2.00002" rx="1.00001" transform="rotate(16 85.6804 46.817)" fill="black"/>
<rect width="2.00002" height="2.00014" rx="1.00001" transform="matrix(0.961257 0.275654 -0.27562 0.961267 76.8601 77.5773)" fill="black"/>
<path fill-rule="evenodd" clip-rule="evenodd" d="M58.8709 85.644C58.8154 85.3829 58.7637 85.1112 58.8019 84.8901C58.8189 84.7916 58.8502 84.7302 58.8873 84.6892C58.9219 84.651 58.9925 84.5959 59.152 84.5619C59.3116 84.528 59.3985 84.5497 59.4456 84.5705C59.4963 84.5929 59.5499 84.6363 59.6055 84.7193C59.7303 84.9057 59.7935 85.175 59.8491 85.4361C59.9046 85.6973 59.9563 85.969 59.9181 86.19C59.9011 86.2885 59.8698 86.35 59.8326 86.391C59.798 86.4292 59.7274 86.4843 59.5679 86.5182C59.4083 86.5521 59.3214 86.5305 59.2743 86.5097C59.2236 86.4873 59.1701 86.4439 59.1145 86.3608C58.9897 86.1744 58.9264 85.9052 58.8709 85.644ZM58.9441 83.5838C58.6146 83.6538 58.3444 83.7989 58.1461 84.0179C57.9504 84.234 57.8567 84.4867 57.8165 84.7199C57.7619 85.0357 57.7995 85.3616 57.843 85.6051L24.7762 92.3799L24.2351 92.2393C23.5015 92.3952 23.309 92.6917 23.309 92.6917C23.1164 92.9883 23.2204 93.4773 23.5169 93.6699C23.5169 93.6699 23.8134 93.8624 24.547 93.7065L24.9841 93.358L57.9477 86.0977C58.007 86.3379 58.1052 86.6508 58.2835 86.9172C58.4152 87.1138 58.6035 87.3065 58.8702 87.4244C59.1404 87.5438 59.4463 87.5664 59.7758 87.4964C60.1053 87.4263 60.3755 87.2812 60.5738 87.0622C60.7696 86.8461 60.8632 86.5935 60.9035 86.3603C60.9774 85.9322 60.8822 85.4858 60.832 85.2509L60.8272 85.2282L60.8224 85.2055C60.7726 84.9706 60.6781 84.5239 60.4364 84.163C60.3048 83.9663 60.1165 83.7736 59.8498 83.6558C59.5795 83.5364 59.2737 83.5138 58.9441 83.5838Z" fill="black"/>
<path d="M31.2229 94.9765C30.9443 94.7588 30.8319 93.7651 31.0495 93.4865L40.9656 92.269C40.9656 92.269 41.9886 92.3952 42.9811 92.2734L66.3363 89.6576L66.3972 90.1539L43.103 93.2659C42.1104 93.3878 41.1484 93.7578 41.1484 93.7578L31.2229 94.9765Z" fill="black"/>
</svg>
