<svg width="112" height="112" viewBox="0 0 112 112" fill="none" xmlns="http://www.w3.org/2000/svg">
<path d="M90.62 26.7145C128.42 71.7634 69.9388 50.5951 59.3619 59.4702C48.7851 68.3452 50.011 116.416 21.676 84.5654C-6.65899 52.7146 42.3572 60.6848 52.9341 51.8097C63.5109 42.9347 52.8195 -18.3344 90.62 26.7145Z" fill="#D4F7F7"/>
<circle cx="56" cy="57" r="28.5" stroke="black"/>
<path d="M48 29.5C48 29.5 53 22.5 56 22.5C59 22.5 64 29.5 64 29.5" stroke="black" stroke-miterlimit="1.88813" stroke-linecap="round" stroke-dasharray="1 2"/>
<path fill-rule="evenodd" clip-rule="evenodd" d="M88.8953 93.2617L88.805 92.526C88.7625 92.1805 88.6629 91.8559 88.5168 91.5606C88.4439 91.5594 88.3721 91.5263 88.3237 91.4643C88.261 91.3838 88.2553 91.277 88.3005 91.1925C88.1956 91.04 88.0771 90.8982 87.9471 90.7685C87.8597 90.7829 87.7673 90.7503 87.7091 90.6755C87.6716 90.6275 87.6545 90.5701 87.6564 90.5137C87.0538 90.0502 86.2759 89.814 85.4617 89.914C85.3795 89.9241 85.2985 89.9374 85.2187 89.9538C85.2481 89.9698 85.2747 89.9919 85.2965 90.0199C85.3814 90.1288 85.3619 90.2859 85.253 90.3708C85.1441 90.4556 84.987 90.4361 84.9021 90.3272C84.8361 90.2425 84.8333 90.1287 84.8864 90.0424C83.9711 90.3436 83.2684 91.0661 82.9757 91.9574C82.9965 92.0414 82.9725 92.1328 82.9083 92.1958C82.8277 92.5339 82.8048 92.8919 82.8497 93.2572L82.9523 94.0931C82.9684 94.0627 82.991 94.0351 83.0198 94.0126C83.1288 93.9277 83.2858 93.9472 83.3707 94.0561C83.4556 94.165 83.4361 94.3221 83.3272 94.407C83.224 94.4873 83.0777 94.4741 82.9904 94.38C83.1642 95.4219 83.8619 96.257 84.7774 96.6464C84.7495 96.5509 84.7805 96.4438 84.8638 96.379C84.9727 96.2941 85.1298 96.3136 85.2146 96.4225C85.2995 96.5314 85.28 96.6885 85.1711 96.7734L85.1623 96.7799C85.4928 96.8699 85.8439 96.9042 86.2033 96.8734C86.1431 96.7673 86.1681 96.6303 86.2672 96.5531C86.3761 96.4682 86.5332 96.4877 86.6181 96.5966C86.6642 96.6558 86.6795 96.7292 86.6664 96.7975C87.5767 96.5746 88.3055 95.9447 88.6782 95.1313C88.6448 95.1151 88.6145 95.0912 88.5901 95.06C88.5053 94.9511 88.5248 94.794 88.6337 94.7091C88.6965 94.6602 88.7753 94.646 88.847 94.6636C88.9253 94.3729 88.9606 94.0664 88.9465 93.7524C88.8773 93.7483 88.8102 93.7155 88.7642 93.6565C88.6794 93.5476 88.6988 93.3906 88.8078 93.3057C88.8346 93.2848 88.8644 93.2702 88.8953 93.2617ZM85.3399 88.9214C83.1472 89.1907 81.5879 91.1864 81.8572 93.3791L81.8572 93.3791L81.8571 93.3791L52.577 96.9743C52.3029 97.0079 52.108 97.2574 52.1417 97.5315C52.1753 97.8056 52.4248 98.0005 52.6989 97.9668L81.979 94.3717L81.979 94.3717C82.2483 96.5643 84.244 98.1236 86.4367 97.8544C88.6294 97.5851 90.1886 95.5894 89.9194 93.3967L89.7975 92.4041C89.5283 90.2115 87.5325 88.6522 85.3399 88.9214ZM86.4414 95.1497C86.3325 95.2345 86.313 95.3916 86.3979 95.5005C86.4828 95.6094 86.6399 95.6289 86.7488 95.5441C86.8577 95.4592 86.8772 95.3021 86.7923 95.1932C86.7074 95.0843 86.5504 95.0648 86.4414 95.1497ZM87.0125 96.2893C86.9276 96.1804 86.9471 96.0233 87.056 95.9385C87.1649 95.8536 87.322 95.8731 87.4069 95.982C87.4918 96.0909 87.4723 96.248 87.3633 96.3328C87.2544 96.4177 87.0974 96.3982 87.0125 96.2893ZM87.2302 94.5351C87.1213 94.6199 87.1018 94.777 87.1866 94.8859C87.2715 94.9948 87.4286 95.0143 87.5375 94.9295C87.6464 94.8446 87.6659 94.6875 87.581 94.5786C87.4962 94.4697 87.3391 94.4502 87.2302 94.5351ZM87.8012 95.6747C87.7163 95.5658 87.7358 95.4087 87.8447 95.3239C87.9536 95.239 88.1107 95.2585 88.1956 95.3674C88.2804 95.4763 88.261 95.6334 88.152 95.7183C88.0431 95.8031 87.886 95.7836 87.8012 95.6747ZM87.9755 94.2712C87.8906 94.1623 87.9101 94.0052 88.019 93.9203C88.1279 93.8355 88.285 93.855 88.3699 93.9639C88.4547 94.0728 88.4352 94.2299 88.3263 94.3147C88.2174 94.3996 88.0603 94.3801 87.9755 94.2712ZM85.2121 93.5721C85.1032 93.6569 85.0837 93.814 85.1685 93.9229C85.2534 94.0318 85.4105 94.0513 85.5194 93.9665C85.6283 93.8816 85.6478 93.7245 85.5629 93.6156C85.4781 93.5067 85.321 93.4872 85.2121 93.5721ZM85.7832 94.7117C85.6984 94.6028 85.7178 94.4457 85.8268 94.3609C85.9357 94.276 86.0928 94.2955 86.1776 94.4044C86.2625 94.5133 86.243 94.6704 86.1341 94.7553C86.0252 94.8401 85.8681 94.8206 85.7832 94.7117ZM86.6155 93.7463C86.5065 93.8311 86.4871 93.9882 86.5719 94.0971C86.6568 94.2061 86.8139 94.2255 86.9228 94.1407C87.0317 94.0558 87.0512 93.8987 86.9663 93.7898C86.8815 93.6809 86.7244 93.6614 86.6155 93.7463ZM87.3608 93.4824C87.2759 93.3735 87.2954 93.2164 87.4043 93.1316C87.5132 93.0467 87.6703 93.0662 87.7552 93.1751C87.84 93.284 87.8205 93.4411 87.7116 93.5259C87.6027 93.6108 87.4456 93.5913 87.3608 93.4824ZM86.7897 92.3427C86.6808 92.4276 86.6613 92.5847 86.7462 92.6936C86.8311 92.8025 86.9881 92.822 87.0971 92.7371C87.206 92.6523 87.2255 92.4952 87.1406 92.3863C87.0557 92.2774 86.8986 92.2579 86.7897 92.3427ZM85.9572 93.3083C85.8724 93.1994 85.8919 93.0423 86.0008 92.9575C86.1097 92.8726 86.2668 92.8921 86.3516 93.001C86.4365 93.1099 86.417 93.267 86.3081 93.3519C86.1992 93.4367 86.0421 93.4173 85.9572 93.3083ZM83.9828 91.9945C83.8739 92.0793 83.8544 92.2364 83.9393 92.3453C84.0241 92.4542 84.1812 92.4737 84.2901 92.3889C84.399 92.304 84.4185 92.1469 84.3337 92.038C84.2488 91.9291 84.0917 91.9096 83.9828 91.9945ZM84.5538 93.1341C84.469 93.0252 84.4885 92.8681 84.5974 92.7833C84.7063 92.6984 84.8634 92.7179 84.9482 92.8268C85.0331 92.9357 85.0136 93.0928 84.9047 93.1777C84.7958 93.2625 84.6387 93.243 84.5538 93.1341ZM85.6525 95.7643C85.5436 95.8492 85.5242 96.0063 85.609 96.1152C85.6939 96.2241 85.851 96.2436 85.9599 96.1587C86.0688 96.0738 86.0883 95.9168 86.0034 95.8078C85.9185 95.6989 85.7615 95.6794 85.6525 95.7643ZM84.4233 94.1867C84.3144 94.2716 84.2949 94.4287 84.3798 94.5376C84.4646 94.6465 84.6217 94.666 84.7306 94.5811C84.8395 94.4963 84.859 94.3392 84.7742 94.2303C84.6893 94.1213 84.5322 94.1019 84.4233 94.1867ZM84.9945 95.3264C84.9096 95.2175 84.9291 95.0604 85.038 94.9755C85.1469 94.8907 85.304 94.9101 85.3889 95.0191C85.4737 95.128 85.4542 95.285 85.3453 95.3699C85.2364 95.4548 85.0793 95.4353 84.9945 95.3264ZM83.8086 93.3979C83.6997 93.4828 83.6802 93.6399 83.7651 93.7488C83.8499 93.8577 84.007 93.8772 84.1159 93.7923C84.2249 93.7074 84.2443 93.5504 84.1595 93.4415C84.0746 93.3325 83.9175 93.313 83.8086 93.3979ZM83.1504 92.96C83.0655 92.8511 83.085 92.694 83.1939 92.6091C83.3028 92.5243 83.4599 92.5438 83.5448 92.6527C83.6296 92.7616 83.6102 92.9187 83.5012 93.0035C83.3923 93.0884 83.2352 93.0689 83.1504 92.96ZM85.3861 92.1687C85.2772 92.2536 85.2577 92.4106 85.3426 92.5196C85.4274 92.6285 85.5845 92.648 85.6934 92.5631C85.8023 92.4782 85.8218 92.3211 85.737 92.2122C85.6521 92.1033 85.495 92.0838 85.3861 92.1687ZM86.1315 91.9048C86.0466 91.7959 86.0661 91.6388 86.175 91.554C86.2839 91.4691 86.441 91.4886 86.5259 91.5975C86.6108 91.7064 86.5913 91.8635 86.4824 91.9484C86.3735 92.0332 86.2164 92.0137 86.1315 91.9048ZM85.5604 90.7652C85.4515 90.85 85.432 91.0071 85.5168 91.116C85.6017 91.2249 85.7588 91.2444 85.8677 91.1596C85.9766 91.0747 85.9961 90.9176 85.9112 90.8087C85.8264 90.6998 85.6693 90.6803 85.5604 90.7652ZM88.1495 92.8678C88.0647 92.7588 88.0842 92.6018 88.1931 92.5169C88.302 92.432 88.4591 92.4515 88.5439 92.5604C88.6288 92.6693 88.6093 92.8264 88.5004 92.9113C88.3915 92.9962 88.2344 92.9767 88.1495 92.8678ZM87.5785 91.7281C87.4696 91.813 87.4501 91.97 87.535 92.079C87.6198 92.1879 87.7769 92.2074 87.8858 92.1225C87.9948 92.0376 88.0142 91.8805 87.9294 91.7716C87.8445 91.6627 87.6874 91.6432 87.5785 91.7281ZM86.9203 91.2902C86.8354 91.1812 86.8549 91.0242 86.9638 90.9393C87.0727 90.8544 87.2298 90.8739 87.3147 90.9828C87.3995 91.0917 87.38 91.2488 87.2711 91.3337C87.1622 91.4186 87.0051 91.3991 86.9203 91.2902ZM86.3491 90.1505C86.2402 90.2354 86.2207 90.3925 86.3056 90.5014C86.3905 90.6103 86.5476 90.6298 86.6565 90.5449C86.7654 90.46 86.7849 90.3029 86.7 90.194C86.6151 90.0851 86.458 90.0656 86.3491 90.1505ZM83.3246 91.5565C83.2397 91.4476 83.2592 91.2905 83.3681 91.2057C83.477 91.1208 83.6341 91.1403 83.719 91.2492C83.8039 91.3581 83.7844 91.5152 83.6755 91.6001C83.5665 91.685 83.4095 91.6655 83.3246 91.5565ZM83.591 95.1522C83.5061 95.0433 83.5256 94.8863 83.6345 94.8014C83.7434 94.7165 83.9005 94.736 83.9854 94.8449C84.0703 94.9538 84.0508 95.1109 83.9419 95.1958C83.8329 95.2806 83.6759 95.2612 83.591 95.1522ZM84.2491 95.5902C84.1402 95.675 84.1207 95.8321 84.2056 95.941C84.2904 96.0499 84.4475 96.0694 84.5564 95.9846C84.6653 95.8997 84.6848 95.7426 84.6 95.6337C84.5151 95.5248 84.358 95.5053 84.2491 95.5902ZM84.728 91.7307C84.6431 91.6218 84.6626 91.4647 84.7715 91.3799C84.8804 91.295 85.0375 91.3145 85.1224 91.4234C85.2072 91.5323 85.1877 91.6894 85.0788 91.7743C84.9699 91.8591 84.8128 91.8397 84.728 91.7307ZM84.1568 90.5911C84.0479 90.676 84.0284 90.8331 84.1133 90.942C84.1982 91.0509 84.3552 91.0704 84.4642 90.9855C84.5731 90.9006 84.5926 90.7435 84.5077 90.6346C84.4228 90.5257 84.2657 90.5062 84.1568 90.5911Z" fill="black"/>
<path d="M57.5098 56.5C57.5098 57.5 56.8322 58 55.9964 58C55.1606 58 54.6858 57.3037 54.4831 56.5C54.2123 55.4265 55.0016 54.5689 55.9966 54C57.7535 52.9956 59.9793 54.5671 60.5365 56.5C61.2253 58.8896 58.504 60.9999 55.9966 61C53.4892 61.0001 51.7059 58.973 51.4564 56.5C51.1777 53.7385 53.2853 51.6927 55.9966 51C59.545 50.0934 63.006 52.9102 63.5632 56.5C64.1987 60.594 60.1754 64 55.9964 64C51.8174 64 48.6903 60.6341 48.4296 56.5C48.151 52.0817 51.5926 48.7371 55.9966 48C61.245 47.1217 66.0327 51.2534 66.5899 56.5C67.2024 62.2671 61.8471 67 55.9964 67C50.1458 67 45.6686 62.293 45.4029 56.5C45.1243 50.4248 49.9091 45.7596 55.9966 45C62.9291 44.135 69.0594 49.5965 69.6166 56.5C70.2165 63.9321 63.5187 70 55.9964 70C48.4742 70 42.6447 63.9511 42.3762 56.5C42.0976 48.768 48.2298 42.7733 55.9966 42C64.6078 41.1427 72.0861 47.9397 72.6433 56.5C73.2353 65.5938 65.1903 73 55.9964 73C46.8026 73 39.6198 65.6088 39.3495 56.5C39.0709 47.1111 46.553 39.7824 55.9966 39C66.284 38.1477 75.1129 46.2828 75.6701 56.5C76.2565 67.2539 66.8619 76 55.9964 76C45.131 76 36.5943 67.2662 36.3228 56.5C36.0442 45.4543 44.8775 36.7889 55.9966 36C67.9588 35.1513 78.1396 44.6259 78.6968 56.5C79.2793 68.913 68.5335 79 55.9964 79C43.4594 79 33.5685 68.9235 33.2961 56.5C33.0175 43.7974 43.2029 33.7938 55.9966 33C69.6327 32.1539 81.1663 42.9691 81.7235 56.5C82.303 70.5716 70.2051 82 55.9964 82C41.7877 82 30.5425 70.5807 30.2693 56.5C29.9907 42.1405 41.529 30.7977 55.9966 30C71.3061 29.1559 83.9428 41.3122 84.5 56.5" stroke="black" stroke-linecap="round"/>
</svg>
