<svg width="112" height="112" viewBox="0 0 112 112" fill="none" xmlns="http://www.w3.org/2000/svg">
<path d="M19.25 44.25L101.75 5.25L54.5 44.25L96 62.25L10.25 106.75L62 62.25L19.25 44.25Z" fill="#FBFBBB"/>
<path d="M75.5 56C75.5 66.7696 66.7696 75.5 56 75.5C45.2304 75.5 36.5 66.7696 36.5 56C36.5 45.2304 45.2304 36.5 56 36.5C66.7696 36.5 75.5 45.2304 75.5 56Z" stroke="black"/>
<path fill-rule="evenodd" clip-rule="evenodd" d="M40.1135 60.3421C39.9667 60.1081 40.0374 59.7995 40.2713 59.6528C41.0369 59.1724 41.6945 58.9221 42.3016 58.7955C42.8958 58.6717 43.4242 58.671 43.9018 58.6705L43.9171 58.6705C44.4058 58.6699 44.8427 58.668 45.3298 58.5665C45.8105 58.4663 46.3582 58.2642 47.0328 57.8411C47.2667 57.6943 47.5753 57.765 47.722 57.9989C47.8688 58.2328 47.7981 58.5414 47.5642 58.6881C46.7985 59.1685 46.141 59.4189 45.5339 59.5454C44.9397 59.6693 44.4113 59.6699 43.9337 59.6705L43.9183 59.6705C43.4297 59.6711 42.9928 59.6729 42.5056 59.7745C42.025 59.8747 41.4773 60.0767 40.8027 60.4999C40.5688 60.6466 40.2602 60.576 40.1135 60.3421ZM39.5225 56.147C39.4413 55.883 39.5894 55.6032 39.8533 55.522C40.7172 55.2562 41.4172 55.1846 42.0363 55.2195C42.6423 55.2536 43.1529 55.3898 43.6144 55.5128L43.6292 55.5168C44.1013 55.6427 44.5238 55.754 45.0207 55.782C45.5109 55.8096 46.0922 55.7562 46.8533 55.522C47.1173 55.4408 47.3971 55.5889 47.4783 55.8529C47.5595 56.1168 47.4114 56.3966 47.1474 56.4778C46.2835 56.7436 45.5836 56.8153 44.9645 56.7804C44.3584 56.7462 43.8479 56.6101 43.3864 56.487L43.3716 56.483C42.8994 56.3571 42.4769 56.2459 41.9801 56.2179C41.4898 56.1903 40.9085 56.2436 40.1474 56.4778C39.8835 56.559 39.6037 56.4109 39.5225 56.147ZM40.0374 51.9419C40.0272 51.6659 40.2427 51.434 40.5187 51.4239C41.4219 51.3907 42.1166 51.5027 42.7056 51.6966C43.2821 51.8864 43.74 52.1501 44.1539 52.3884L44.1672 52.3961C44.5907 52.6399 44.97 52.8567 45.4427 53.0123C45.9091 53.1659 46.4844 53.2648 47.2802 53.2356C47.5561 53.2254 47.788 53.4409 47.7982 53.7169C47.8083 53.9929 47.5928 54.2248 47.3168 54.2349C46.4136 54.2681 45.719 54.1561 45.1299 53.9622C44.5534 53.7723 44.0955 53.5087 43.6816 53.2704L43.6683 53.2627C43.2448 53.0189 42.8655 52.8021 42.3928 52.6464C41.9265 52.4929 41.3511 52.394 40.5554 52.4232C40.2794 52.4333 40.0475 52.2178 40.0374 51.9419ZM41.6229 48.0134C41.6846 47.7442 41.9527 47.5759 42.2219 47.6376C43.103 47.8393 43.745 48.1272 44.2637 48.467C44.7715 48.7996 45.1455 49.1728 45.4836 49.5101L45.4945 49.521C45.8404 49.8661 46.1507 50.1737 46.567 50.4464C46.9777 50.7154 47.5079 50.9598 48.2841 51.1376C48.5533 51.1992 48.7215 51.4674 48.6599 51.7366C48.5982 52.0057 48.3301 52.174 48.0609 52.1123C47.1798 51.9106 46.5378 51.6227 46.0191 51.2829C45.5113 50.9503 45.1373 50.5771 44.7991 50.2398L44.7883 50.2289C44.4423 49.8838 44.1321 49.5762 43.7158 49.3036C43.305 49.0345 42.7749 48.7901 41.9987 48.6123C41.7295 48.5507 41.5613 48.2825 41.6229 48.0134ZM44.1716 44.6291C44.3008 44.385 44.6033 44.2919 44.8474 44.4211C45.6462 44.844 46.1918 45.2883 46.6049 45.7508C47.0093 46.2035 47.274 46.6607 47.5133 47.0741L47.521 47.0874C47.7659 47.5103 47.9859 47.8877 48.3175 48.2588C48.6446 48.625 49.0934 48.9983 49.7971 49.3709C50.0412 49.5001 50.1343 49.8027 50.0051 50.0467C49.8759 50.2908 49.5733 50.3839 49.3293 50.2547C48.5304 49.8318 47.9848 49.3875 47.5717 48.925C47.1673 48.4724 46.9026 48.0151 46.6633 47.6017L46.6556 47.5884C46.4108 47.1656 46.1907 46.7881 45.8592 46.417C45.5321 46.0508 45.0833 45.6775 44.3795 45.3049C44.1355 45.1757 44.0424 44.8731 44.1716 44.6291ZM56.2281 64.6029C56.1469 64.339 55.8671 64.1909 55.6032 64.2721C55.3393 64.3533 55.1911 64.6331 55.2724 64.897C55.5065 65.6581 55.5599 66.2394 55.5323 66.7297C55.5043 67.2265 55.393 67.649 55.2671 68.1211L55.2632 68.136C55.1401 68.5975 55.0039 69.108 54.9698 69.714C54.9349 70.3332 55.0065 71.0331 55.2724 71.897C55.3536 72.1609 55.6334 72.3091 55.8973 72.2279C56.1612 72.1466 56.3093 71.8669 56.2281 71.6029C55.9939 70.8418 55.9406 70.2605 55.9682 69.7703C55.9962 69.2734 56.1075 68.8509 56.2334 68.3788L56.2373 68.3639C56.3604 67.9025 56.4966 67.3919 56.5307 66.7859C56.5656 66.1668 56.4939 65.4668 56.2281 64.6029ZM56.2281 40.1029C56.1469 39.839 55.8671 39.6909 55.6032 39.7721C55.3393 39.8533 55.1911 40.1331 55.2724 40.397C55.5065 41.1581 55.5599 41.7394 55.5323 42.2297C55.5043 42.7265 55.393 43.149 55.2671 43.6211L55.2632 43.636C55.1401 44.0975 55.0039 44.608 54.9698 45.214C54.9349 45.8332 55.0065 46.5331 55.2724 47.397C55.3536 47.6609 55.6334 47.8091 55.8973 47.7279C56.1612 47.6466 56.3093 47.3669 56.2281 47.1029C55.9939 46.3418 55.9406 45.7605 55.9682 45.2703C55.9962 44.7734 56.1075 44.3509 56.2334 43.8788L56.2373 43.8639C56.3604 43.4025 56.4966 42.8919 56.5307 42.2859C56.5656 41.6668 56.4939 40.9668 56.2281 40.1029ZM51.4083 40.3631C51.6422 40.2163 51.9508 40.287 52.0976 40.5209C52.5779 41.2866 52.8283 41.9441 52.9548 42.5512C53.0787 43.1454 53.0793 43.6738 53.0798 44.1514L53.0799 44.1668C53.0805 44.6554 53.0823 45.0923 53.1839 45.5795C53.2841 46.0601 53.4861 46.6078 53.9093 47.2824C54.056 47.5163 53.9854 47.8249 53.7515 47.9717C53.5175 48.1184 53.2089 48.0477 53.0622 47.8138C52.5818 47.0482 52.3315 46.3906 52.2049 45.7835C52.0811 45.1893 52.0804 44.6609 52.0799 44.1833L52.0799 44.168C52.0793 43.6793 52.0774 43.2424 51.9759 42.7553C51.8756 42.2746 51.6736 41.7269 51.2505 41.0523C51.1037 40.8184 51.1744 40.5098 51.4083 40.3631ZM58.4386 64.1861C58.2919 63.9522 57.9833 63.8815 57.7494 64.0283C57.5154 64.175 57.4448 64.4836 57.5915 64.7175C58.0147 65.3921 58.2167 65.9398 58.3169 66.4205C58.4185 66.9076 58.4204 67.3445 58.4209 67.8332L58.421 67.8485C58.4215 68.3261 58.4221 68.8545 58.546 69.4487C58.6726 70.0558 58.9229 70.7134 59.4033 71.479C59.55 71.7129 59.8586 71.7836 60.0925 71.6368C60.3264 71.4901 60.3971 71.1815 60.2504 70.9476C59.8272 70.273 59.6252 69.7253 59.525 69.2447C59.4234 68.7575 59.4215 68.3206 59.4209 67.832L59.4209 67.8166C59.4204 67.339 59.4197 66.8106 59.2959 66.2164C59.1693 65.6093 58.919 64.9518 58.4386 64.1861ZM47.5091 42.0197C47.6971 41.8174 48.0134 41.8058 48.2157 41.9938C48.8779 42.609 49.2899 43.1794 49.5693 43.733C49.8427 44.2749 49.98 44.7851 50.1042 45.2463L50.1082 45.2612C50.2352 45.733 50.3501 46.1545 50.5743 46.5988C50.7955 47.0372 51.1324 47.5139 51.7157 48.056C51.918 48.2439 51.9296 48.5603 51.7417 48.7626C51.5537 48.9649 51.2373 48.9765 51.035 48.7885C50.3729 48.1733 49.9609 47.6029 49.6815 47.0493C49.4081 46.5074 49.2707 45.9972 49.1466 45.536L49.1426 45.5211C49.0155 45.0493 48.9007 44.6278 48.6765 44.1835C48.4553 43.7451 48.1184 43.2684 47.535 42.7264C47.3327 42.5384 47.3211 42.222 47.5091 42.0197ZM60.4657 63.2114C60.2634 63.0234 59.9471 63.0351 59.7591 63.2374C59.5711 63.4396 59.5827 63.756 59.785 63.944C60.3684 64.486 60.7053 64.9628 60.9265 65.4011C61.1507 65.8454 61.2655 66.2669 61.3926 66.7388L61.3966 66.7536C61.5207 67.2148 61.6581 67.725 61.9315 68.2669C62.2109 68.8206 62.6229 69.3909 63.285 70.0062C63.4873 70.1941 63.8037 70.1825 63.9917 69.9802C64.1796 69.7779 64.168 69.4615 63.9657 69.2736C63.3824 68.7315 63.0455 68.2548 62.8243 67.8164C62.6001 67.3722 62.4852 66.9506 62.3582 66.4788L62.3542 66.464C62.23 66.0028 62.0927 65.4925 61.8193 64.9506C61.5399 64.397 61.1279 63.8267 60.4657 63.2114ZM62.1714 61.7453C61.9274 61.6161 61.6248 61.7092 61.4956 61.9532C61.3664 62.1973 61.4595 62.4998 61.7035 62.629C62.4073 63.0016 62.8561 63.3749 63.1832 63.7411C63.5147 64.1122 63.7348 64.4897 63.9796 64.9125L63.9873 64.9258C64.2266 65.3392 64.4913 65.7965 64.8957 66.2491C65.3089 66.7116 65.8544 67.1559 66.6533 67.5788C66.8973 67.708 67.1999 67.6149 67.3291 67.3708C67.4583 67.1268 67.3652 66.8242 67.1212 66.695C66.4174 66.3224 65.9686 65.9491 65.6415 65.5829C65.3099 65.2118 65.0899 64.8344 64.845 64.4115L64.8373 64.3982C64.5981 63.9849 64.3333 63.5276 63.929 63.0749C63.5158 62.6124 62.9702 62.1682 62.1714 61.7453ZM63.4396 59.8876C63.1704 59.8259 62.9023 59.9942 62.8406 60.2634C62.779 60.5325 62.9472 60.8007 63.2164 60.8623C63.9926 61.0401 64.5228 61.2845 64.9335 61.5536C65.3498 61.8262 65.66 62.1338 66.006 62.4789L66.0168 62.4898C66.355 62.8271 66.729 63.2003 67.2368 63.5329C67.7555 63.8727 68.3975 64.1606 69.2786 64.3623C69.5478 64.424 69.8159 64.2557 69.8776 63.9866C69.9392 63.7174 69.771 63.4492 69.5018 63.3876C68.7256 63.2098 68.1955 62.9654 67.7847 62.6964C67.3684 62.4237 67.0582 62.1161 66.7122 61.771L66.7013 61.7601C66.3632 61.4228 65.9892 61.0496 65.4814 60.717C64.9627 60.3772 64.3207 60.0893 63.4396 59.8876ZM64.1838 57.7649C63.9078 57.775 63.6923 58.007 63.7024 58.2829C63.7126 58.5589 63.9445 58.7744 64.2204 58.7642C65.0162 58.735 65.5915 58.8339 66.0579 58.9875C66.5306 59.1431 66.9099 59.36 67.3334 59.6038L67.3467 59.6114C67.7606 59.8497 68.2185 60.1134 68.795 60.3032C69.384 60.4972 70.0787 60.6091 70.9819 60.576C71.2579 60.5658 71.4734 60.3339 71.4632 60.058C71.4531 59.782 71.2212 59.5665 70.9452 59.5766C70.1495 59.6059 69.5741 59.507 69.1078 59.3534C68.6351 59.1978 68.2558 58.9809 67.8323 58.7371L67.819 58.7295C67.4051 58.4911 66.9472 58.2275 66.3707 58.0377C65.7816 57.8437 65.087 57.7317 64.1838 57.7649ZM64.3533 55.522C64.0894 55.6032 63.9413 55.883 64.0225 56.147C64.1037 56.4109 64.3835 56.559 64.6474 56.4778C65.4085 56.2436 65.9898 56.1903 66.4801 56.2179C66.9769 56.2459 67.3994 56.3571 67.8716 56.483L67.8864 56.487C68.3479 56.6101 68.8584 56.7462 69.4645 56.7804C70.0836 56.8153 70.7835 56.7436 71.6474 56.4778C71.9114 56.3966 72.0595 56.1168 71.9783 55.8529C71.8971 55.5889 71.6173 55.4408 71.3533 55.522C70.5922 55.7562 70.0109 55.8096 69.5207 55.782C69.0238 55.754 68.6013 55.6427 68.1292 55.5168L68.1144 55.5128C67.6529 55.3898 67.1423 55.2536 66.5363 55.2195C65.9172 55.1846 65.2172 55.2562 64.3533 55.522ZM63.9363 53.3117C63.7024 53.4585 63.6317 53.7671 63.7785 54.001C63.9252 54.2349 64.2338 54.3056 64.4678 54.1588C65.1423 53.7356 65.69 53.5336 66.1707 53.4334C66.6579 53.3319 67.0948 53.33 67.5834 53.3294L67.5987 53.3294C68.0764 53.3288 68.6048 53.3282 69.199 53.2043C69.806 53.0778 70.4636 52.8274 71.2292 52.3471C71.4632 52.2003 71.5338 51.8917 71.3871 51.6578C71.2403 51.4239 70.9317 51.3532 70.6978 51.5C70.0232 51.9232 69.4756 52.1252 68.9949 52.2254C68.5077 52.327 68.0708 52.3288 67.5822 52.3294L67.5668 52.3294C67.0892 52.33 66.5608 52.3306 65.9666 52.4545C65.3595 52.581 64.702 52.8314 63.9363 53.3117Z" fill="black"/>
<path d="M70.5 43C70.5 43 61 14.5 56 14.5C51 14.5 41.5 43 41.5 43" stroke="black" stroke-miterlimit="1.88813" stroke-linecap="round" stroke-dasharray="1 2"/>
<path fill-rule="evenodd" clip-rule="evenodd" d="M55.0265 55.5287C55.2789 55.8024 55.5978 56.1214 55.9892 56.5128C56.3805 56.9042 56.6996 57.2231 56.9733 57.4754C57.2499 57.7305 57.4563 57.8946 57.62 57.9901C57.7805 58.0838 57.8536 58.0839 57.8805 58.0806C57.9067 58.0773 57.9777 58.0598 58.1105 57.927C58.2432 57.7943 58.2607 57.7232 58.264 57.6971C58.2674 57.6701 58.2672 57.5971 58.1736 57.4365C58.0781 57.2728 57.9139 57.0665 57.6589 56.7899C57.4065 56.5161 57.0877 56.1971 56.6963 55.8057C56.3049 55.4143 55.9859 55.0955 55.7121 54.8431C55.4355 54.5881 55.2292 54.4239 55.0655 54.3284C54.9049 54.2348 54.8319 54.2346 54.8049 54.238C54.7788 54.2413 54.7077 54.2588 54.5749 54.3915C54.4422 54.5243 54.4247 54.5953 54.4214 54.6215C54.4181 54.6484 54.4182 54.7215 54.5119 54.882C54.6073 55.0457 54.7715 55.2521 55.0265 55.5287ZM53.4292 54.4974C53.4701 54.17 53.647 53.9052 53.8678 53.6844C54.0886 53.4636 54.3534 53.2866 54.6809 53.2457C55.0074 53.2049 55.3056 53.3108 55.5694 53.4647C55.8299 53.6167 56.1009 53.8414 56.3899 54.1079C56.6801 54.3754 57.013 54.7082 57.3965 55.0917L57.397 55.0922L57.4034 55.0986L57.4098 55.105C57.7935 55.4888 58.1265 55.8217 58.3941 56.1121C58.6606 56.4011 58.8853 56.6721 59.0374 56.9326C59.1912 57.1963 59.2971 57.4945 59.2563 57.8211C59.2154 58.1485 59.0384 58.4133 58.8176 58.6341C58.5968 58.8549 58.332 59.0319 58.0046 59.0728C57.678 59.1137 57.3798 59.0077 57.1161 58.8539C56.8555 58.7019 56.5845 58.4771 56.2955 58.2107C56.049 57.9835 55.7718 57.7091 55.4589 57.3967L53.3376 59.518L53.5144 59.6948C53.7097 59.8901 53.7097 60.2067 53.5144 60.4019C53.3192 60.5972 53.0026 60.5972 52.8073 60.4019L52.6305 60.2251L50.8627 61.9928L51.0395 62.1697C51.2348 62.3649 51.2348 62.6815 51.0395 62.8768C50.8443 63.0721 50.5277 63.0721 50.3324 62.8768L50.1556 62.6999L48.3878 64.4677L48.5647 64.6446C48.7599 64.8398 48.7599 65.1564 48.5647 65.3517C48.3694 65.547 48.0528 65.547 47.8576 65.3517L47.6807 65.1748L44.3219 68.5336L31.5939 81.9687C31.0636 82.499 30.71 82.4991 30.71 82.4991C30.3565 82.499 30.0029 82.1455 30.0029 81.792C30.0029 81.792 30.0029 81.4384 30.5332 80.9081L43.9684 68.1801L47.3272 64.8213L47.1505 64.6446C46.9552 64.4493 46.9552 64.1327 47.1505 63.9375C47.3457 63.7422 47.6623 63.7422 47.8576 63.9375L48.0343 64.1142L49.802 62.3464L49.6253 62.1697C49.4301 61.9744 49.4301 61.6578 49.6253 61.4626C49.8206 61.2673 50.1372 61.2673 50.3324 61.4626L50.5091 61.6393L52.2769 59.8715L52.1002 59.6948C51.9049 59.4996 51.9049 59.183 52.1002 58.9877C52.2955 58.7925 52.6121 58.7925 52.8073 58.9877L52.984 59.1644L55.1053 57.0431C54.7928 56.7302 54.5185 56.453 54.2913 56.2065C54.0248 55.9175 53.8001 55.6465 53.6481 55.3859C53.4943 55.1222 53.3883 54.824 53.4292 54.4974Z" fill="black"/>
</svg>
