<svg width="112" height="112" viewBox="0 0 112 112" fill="none" xmlns="http://www.w3.org/2000/svg">
<path fill-rule="evenodd" clip-rule="evenodd" d="M74.5 32C68.9772 32 64.5 27.5228 64.5 22C64.5 16.4772 68.9772 12 74.5 12C80.0228 12 84.5 16.4772 84.5 22C84.5 27.5228 80.0228 32 74.5 32ZM90 51.5C84.4772 51.5 80 47.0228 80 41.5C80 35.9772 84.4772 31.5 90 31.5C95.5228 31.5 100 35.9772 100 41.5C100 47.0228 95.5228 51.5 90 51.5ZM55.5 45.5C55.5 51.0228 59.9772 55.5 65.5 55.5C71.0228 55.5 75.5 51.0228 75.5 45.5C75.5 39.9772 71.0228 35.5 65.5 35.5C59.9772 35.5 55.5 39.9772 55.5 45.5Z" fill="#D4F7E5"/>
<path d="M33.4292 41.149C38.202 32.8822 49.5678 29.1047 61.2987 35.8775" stroke="black"/>
<path d="M68.665 62.0697C73.5044 52.6457 71.0073 41.4827 61.7318 36.1275C52.166 30.6047 40.8002 34.3822 35.2773 43.948C29.7545 53.5139 32.166 65.2457 41.7318 70.7685C51.0073 76.1237 61.9232 72.7048 67.665 63.8018M68.665 62.0697C68.5135 62.3648 68.354 62.6576 68.1863 62.948C68.0186 63.2384 67.8448 63.523 67.665 63.8018M68.665 62.0697L86.3804 71.1429C86.3804 71.1429 88.2374 71.9264 87.1124 73.875C85.9874 75.8235 84.3804 74.607 84.3804 74.607L67.665 63.8018" stroke="black"/>
<path d="M83.5322 70.076C83.5322 70.076 83.2822 70.5089 82.7822 71.375C82.2822 72.241 82.0322 72.674 82.0322 72.674" stroke="black"/>
<path d="M55.5 46.5C50.955 43.876 45.1837 46.5684 44.5003 53M55.5 46.5C60.0449 49.124 61.2283 55.1924 56 59M55.5 46.5C48.2307 44.091 46.8898 54.1255 52 53.5M44.5003 53C43.8168 59.4316 50.7717 62.8076 56 59M44.5003 53C45.666 59.9846 54.0135 58.2384 52 53.5M56 59C61.7837 52.5595 54.5806 49.0302 52 53.5" stroke="black" stroke-linejoin="round"/>
<path d="M36.2772 42.216L36.5786 37.1938L40.4512 37.9863L41.4602 34.2387L45.4578 34.8147L47.7323 32.3751M34.0272 46.1131L30.2036 48.2357L32.6097 51.0682L29.8352 54.3738L32.5828 57.1148L31.6073 60.3044" stroke="black" stroke-linejoin="bevel"/>
<path d="M32.1868 41.0089L34.7848 42.5089L33.7848 44.241L31.1866 42.7409C29.4546 41.7409 30.4548 40.009 32.1868 41.0089Z" stroke="black"/>
<path d="M41.2987 70.5185C29.5678 63.7457 27.1564 52.0139 31.9292 43.747" stroke="black"/>
<path d="M32.1133 79.5208L66.8866 88.8382" stroke="black" stroke-linecap="round"/>
</svg>
