<svg width="112" height="112" viewBox="0 0 112 112" fill="none" xmlns="http://www.w3.org/2000/svg">
<path fill-rule="evenodd" clip-rule="evenodd" d="M18.3434 44.4818C18.3437 44.4815 18.3439 44.4813 17.0002 43C15.6564 41.5187 15.6567 41.5184 15.657 41.5181L15.6577 41.5175L15.6596 41.5157L15.6649 41.511L15.6815 41.496L15.7383 41.4455C15.7864 41.403 15.8549 41.3431 15.9419 41.2682C16.116 41.1187 16.3653 40.909 16.6765 40.6591C17.2969 40.1611 18.1742 39.4948 19.2006 38.8251C21.1482 37.5542 24.0308 36 26.8127 36C29.7428 36 31.6335 37.7192 32.9396 38.9069L33.0627 39.0187C34.5088 40.3306 35.3478 41 36.6252 41C37.9025 41 38.7415 40.3306 40.1876 39.0187L40.3107 38.9069C41.6168 37.7192 43.5075 36 46.4377 36C49.3678 36 51.2585 37.7192 52.5646 38.9069L52.6877 39.0187C54.1338 40.3306 54.9728 41 56.2502 41C57.5275 41 58.3665 40.3306 59.8126 39.0187L59.9357 38.9069C61.2418 37.7192 63.1325 36 66.0627 36C68.9928 36 70.8835 37.7192 72.1896 38.9069L72.3127 39.0187C73.7588 40.3306 74.5978 41 75.8752 41C77.1525 41 77.9915 40.3306 79.4376 39.0187L79.5607 38.9069C80.8668 37.7192 82.7575 36 85.6876 36C88.4695 36 91.3521 37.5542 93.2997 38.8251C94.3261 39.4948 95.2034 40.1611 95.8238 40.6591C96.135 40.909 96.3843 41.1187 96.5584 41.2682C96.6454 41.3431 96.7139 41.403 96.762 41.4455L96.8188 41.496L96.8354 41.511L96.8407 41.5157L96.8426 41.5175L96.8433 41.5181C96.8436 41.5184 96.8439 41.5187 95.5001 43C94.1564 44.4813 94.1566 44.4815 94.1569 44.4818L94.1497 44.4753L94.1124 44.4422C94.0777 44.4115 94.0235 44.364 93.9515 44.3021C93.8073 44.1782 93.5924 43.9973 93.3197 43.7784C92.7723 43.3389 92.0029 42.7552 91.1137 42.1749C89.2303 40.9458 87.2066 40 85.6876 40C84.4103 40 83.5713 40.6694 82.1252 41.9813L82.0021 42.0931C80.696 43.2808 78.8053 45 75.8752 45C72.945 45 71.0543 43.2808 69.7482 42.0931L69.6251 41.9813C68.179 40.6694 67.34 40 66.0627 40C64.7853 40 63.9463 40.6694 62.5002 41.9813L62.3771 42.0931C61.071 43.2808 59.1803 45 56.2502 45C53.32 45 51.4293 43.2808 50.1232 42.0931L50.0001 41.9813C48.554 40.6694 47.715 40 46.4377 40C45.1603 40 44.3213 40.6694 42.8752 41.9813L42.7521 42.0931C41.446 43.2808 39.5553 45 36.6252 45C33.695 45 31.8043 43.2808 30.4982 42.0931L30.3751 41.9813C28.929 40.6694 28.09 40 26.8127 40C25.2937 40 23.27 40.9458 21.3866 42.1749C20.4974 42.7552 19.728 43.3389 19.1806 43.7784C18.9079 43.9973 18.693 44.1782 18.5488 44.3021C18.4768 44.364 18.4226 44.4115 18.3879 44.4422L18.3506 44.4753L18.3434 44.4818ZM18.3434 59.4818C18.3437 59.4815 18.3439 59.4813 17.0002 58C15.6564 56.5187 15.6567 56.5184 15.657 56.5181L15.6577 56.5175L15.6596 56.5157L15.6649 56.511L15.6815 56.496L15.7383 56.4455C15.7864 56.403 15.8549 56.3431 15.9419 56.2682C16.116 56.1187 16.3653 55.909 16.6765 55.6591C17.2969 55.1611 18.1742 54.4949 19.2006 53.8251C21.1482 52.5542 24.0308 51 26.8127 51C29.7428 51 31.6335 52.7192 32.9396 53.9069L33.0627 54.0187C34.5088 55.3306 35.3478 56 36.6252 56C37.9025 56 38.7415 55.3306 40.1876 54.0187L40.3107 53.9069C41.6168 52.7192 43.5075 51 46.4377 51C49.3678 51 51.2585 52.7192 52.5646 53.9069L52.6877 54.0187C54.1338 55.3306 54.9728 56 56.2502 56C57.5275 56 58.3665 55.3306 59.8126 54.0187L59.9357 53.9069C61.2418 52.7192 63.1325 51 66.0627 51C68.9928 51 70.8835 52.7192 72.1896 53.9069L72.3127 54.0187C73.7588 55.3306 74.5978 56 75.8752 56C77.1525 56 77.9915 55.3306 79.4376 54.0187L79.5607 53.9069C80.8668 52.7192 82.7575 51 85.6876 51C88.4695 51 91.3521 52.5542 93.2997 53.8251C94.3261 54.4949 95.2034 55.1611 95.8238 55.6591C96.135 55.909 96.3843 56.1187 96.5584 56.2682C96.6454 56.3431 96.7139 56.403 96.762 56.4455L96.8188 56.496L96.8354 56.511L96.8407 56.5157L96.8426 56.5175L96.8433 56.5181C96.8436 56.5184 96.8439 56.5187 95.5001 58C94.1564 59.4813 94.1566 59.4815 94.1569 59.4818L94.1497 59.4753L94.1124 59.4422C94.0777 59.4115 94.0235 59.364 93.9515 59.3021C93.8073 59.1782 93.5924 58.9973 93.3197 58.7784C92.7723 58.3389 92.0029 57.7552 91.1137 57.1749C89.2303 55.9458 87.2066 55 85.6876 55C84.4103 55 83.5713 55.6694 82.1252 56.9813L82.0021 57.0931C80.696 58.2808 78.8053 60 75.8752 60C72.945 60 71.0543 58.2808 69.7482 57.0931L69.6251 56.9813C68.179 55.6694 67.34 55 66.0627 55C64.7853 55 63.9463 55.6694 62.5002 56.9813L62.3771 57.0931C61.071 58.2808 59.1803 60 56.2502 60C53.32 60 51.4293 58.2808 50.1232 57.0931L50.0001 56.9813C48.554 55.6694 47.715 55 46.4377 55C45.1603 55 44.3213 55.6694 42.8752 56.9813L42.7521 57.0931C41.446 58.2808 39.5553 60 36.6252 60C33.695 60 31.8043 58.2808 30.4982 57.0931L30.3751 56.9813C28.929 55.6694 28.09 55 26.8127 55C25.2937 55 23.27 55.9458 21.3866 57.1749C20.4974 57.7552 19.728 58.3389 19.1806 58.7784C18.9079 58.9973 18.693 59.1782 18.5488 59.3021C18.4768 59.364 18.4226 59.4115 18.3879 59.4422L18.3506 59.4753L18.3434 59.4818ZM17.0002 73C18.3439 74.4813 18.3437 74.4815 18.3434 74.4818L18.3506 74.4753L18.3879 74.4422C18.4226 74.4115 18.4768 74.364 18.5488 74.3021C18.693 74.1782 18.9079 73.9973 19.1806 73.7784C19.728 73.3389 20.4974 72.7551 21.3866 72.1749C23.27 70.9458 25.2937 70 26.8127 70C28.09 70 28.929 70.6694 30.3751 71.9813L30.4982 72.0931C31.8043 73.2808 33.695 75 36.6252 75C39.5553 75 41.446 73.2808 42.7521 72.0931L42.8752 71.9813C44.3213 70.6694 45.1603 70 46.4377 70C47.715 70 48.554 70.6694 50.0001 71.9813L50.1232 72.0931C51.4293 73.2808 53.32 75 56.2502 75C59.1803 75 61.071 73.2808 62.3771 72.0931L62.5002 71.9813C63.9463 70.6694 64.7853 70 66.0627 70C67.34 70 68.179 70.6694 69.6251 71.9813L69.7482 72.0931C71.0543 73.2808 72.945 75 75.8752 75C78.8053 75 80.696 73.2808 82.0021 72.0931L82.1252 71.9813C83.5713 70.6694 84.4103 70 85.6876 70C87.2066 70 89.2303 70.9458 91.1137 72.1749C92.0029 72.7551 92.7723 73.3389 93.3197 73.7784C93.5924 73.9973 93.8073 74.1782 93.9515 74.3021C94.0235 74.364 94.0777 74.4115 94.1124 74.4422L94.1497 74.4753L94.1569 74.4818C94.1566 74.4815 94.1564 74.4813 95.5001 73C96.8439 71.5187 96.8436 71.5184 96.8433 71.5181L96.8426 71.5175L96.8407 71.5157L96.8354 71.511L96.8188 71.496L96.762 71.4455C96.7139 71.403 96.6454 71.3431 96.5584 71.2682C96.3843 71.1187 96.135 70.909 95.8238 70.6591C95.2034 70.1611 94.3261 69.4949 93.2997 68.8251C91.3521 67.5542 88.4695 66 85.6876 66C82.7575 66 80.8668 67.7192 79.5607 68.9069L79.4376 69.0187C77.9915 70.3306 77.1525 71 75.8752 71C74.5978 71 73.7588 70.3306 72.3127 69.0187L72.1896 68.9069C70.8835 67.7192 68.9928 66 66.0627 66C63.1325 66 61.2418 67.7192 59.9357 68.9069L59.8126 69.0187C58.3665 70.3306 57.5275 71 56.2502 71C54.9728 71 54.1338 70.3306 52.6877 69.0187L52.5646 68.9069C51.2585 67.7192 49.3678 66 46.4377 66C43.5075 66 41.6168 67.7192 40.3107 68.9069L40.1876 69.0187C38.7415 70.3306 37.9025 71 36.6252 71C35.3478 71 34.5088 70.3306 33.0627 69.0187L32.9396 68.9069C31.6335 67.7192 29.7428 66 26.8127 66C24.0308 66 21.1482 67.5542 19.2006 68.8251C18.1742 69.4949 17.2969 70.1611 16.6765 70.6591C16.3653 70.909 16.116 71.1187 15.9419 71.2682C15.8549 71.3431 15.7864 71.403 15.7383 71.4455L15.6815 71.496L15.6649 71.511L15.6596 71.5157L15.6577 71.5175L15.657 71.5181C15.6567 71.5184 15.6564 71.5187 17.0002 73Z" fill="#DCDCF9"/>
<path d="M53.5 26.5L52.5 83M53.5 26.5L54.5 21.5M53.5 26.5H58.5M58.5 26.5L59.5 83M58.5 26.5L57.5 21.5M57 14.5H58.5M57 14.5L57.5 21.5M57 14.5H56.5M55 14.5H55.5M55 14.5H53.5M55 14.5L54.5 21.5M52.5 83V86.5C46 87.5 48 97.5 44.5 97.5C44.5 97.5 48.1184 99.5 56 99.5C63.8816 99.5 67.5 97.5 67.5 97.5C64 97.5 66 87.5 59.5 86.5V83M52.5 83C52.5 83 54 83.5 56 83.5C58 83.5 59.5 83 59.5 83M55.5 14.5L55.5 11.5H56.5L56.5 14.5M55.5 14.5H56.5M54.5 21.5H57.5M54.5 21.5H52.5M57.5 21.5H59.5" stroke="black" stroke-linecap="round" stroke-linejoin="round"/>
<circle cx="56" cy="76" r="1" fill="black"/>
<circle cx="56" cy="69" r="1" fill="black"/>
<circle cx="56" cy="62" r="1" fill="black"/>
<circle cx="56" cy="55" r="1" fill="black"/>
<circle cx="56" cy="48" r="1" fill="black"/>
<circle cx="56" cy="41" r="1" fill="black"/>
<circle cx="56" cy="34" r="1" fill="black"/>
<path d="M52.7502 21.5C41.7501 21.5 33.7501 41 42.5001 61.5C51.2501 82 44.6719 99.1406 42.1719 99.8906" stroke="black" stroke-linecap="round"/>
<path d="M35.2293 100.363C35.4501 100.445 36.5741 100.299 37.7114 99.7805C38.6877 99.3353 39.8934 99.3929 40.5433 100.138L41.4145 99.4656C41.4145 99.4656 41.8694 99.2581 42.1806 99.9405C42.4919 100.623 42.0369 100.83 42.0369 100.83L40.9582 101.047C41.0945 102.027 40.3475 102.975 39.3711 103.42C38.2338 103.939 37.304 104.912 37.304 104.912C37.304 104.912 36.0829 104.645 35.3568 103.053C34.6306 101.46 35.2293 100.363 35.2293 100.363Z" stroke="black"/>
<path d="M43.282 63.3674L42.053 64.3621L41.9946 62.7821L41 61.553L42.58 61.4947L43.8091 60.5L43.8674 62.0801L44.8621 63.3091L43.282 63.3674Z" fill="white"/>
<path fill-rule="evenodd" clip-rule="evenodd" d="M43.9127 60.2724C43.9989 60.3116 44.0556 60.3962 44.059 60.4908L44.1143 61.9876L45.0565 63.1519C45.1161 63.2255 45.129 63.3264 45.0898 63.4126C45.0506 63.4988 44.9661 63.5555 44.8714 63.559L43.3747 63.6142L42.2104 64.5565C42.1368 64.616 42.0358 64.6289 41.9496 64.5897C41.8634 64.5505 41.8068 64.466 41.8033 64.3714L41.748 62.8746L40.8058 61.7103C40.7462 61.6367 40.7333 61.5357 40.7725 61.4495C40.8117 61.3633 40.8962 61.3067 40.9909 61.3032L42.4877 61.2479L43.6519 60.3057C43.7256 60.2461 43.8265 60.2332 43.9127 60.2724ZM43.5778 61.0089L42.7374 61.689C42.6954 61.7231 42.6434 61.7425 42.5894 61.7445L41.509 61.7844L42.1891 62.6248C42.2231 62.6669 42.2426 62.7188 42.2446 62.7729L42.2845 63.8533L43.1249 63.1731C43.1669 63.1391 43.2189 63.1196 43.2729 63.1176L44.3533 63.0778L43.6732 62.2374C43.6392 62.1953 43.6197 62.1434 43.6177 62.0893L43.5778 61.0089Z" fill="black"/>
<path d="M45.6324 26.1436L44.9142 27.5523L44.2182 26.1325L42.8096 25.4143L44.2293 24.7184L44.9475 23.3098L45.6435 24.7295L47.0521 25.4477L45.6324 26.1436Z" fill="white"/>
<path fill-rule="evenodd" clip-rule="evenodd" d="M44.9496 23.0598C45.0443 23.0605 45.1305 23.1147 45.1721 23.1997L45.8314 24.5446L47.1658 25.225C47.2502 25.268 47.303 25.355 47.3022 25.4497C47.3015 25.5444 47.2473 25.6305 47.1623 25.6722L45.8174 26.3315L45.1371 27.6659C45.0941 27.7502 45.0071 27.803 44.9124 27.8023C44.8177 27.8015 44.7315 27.7474 44.6899 27.6623L44.0306 26.3174L42.6962 25.6371C42.6118 25.5941 42.559 25.5071 42.5598 25.4124C42.5605 25.3177 42.6147 25.2316 42.6997 25.1899L44.0446 24.5306L44.7249 23.1962C44.768 23.1119 44.8549 23.0591 44.9496 23.0598ZM44.9433 23.8688L44.4522 24.832C44.4276 24.8802 44.3881 24.9191 44.3395 24.9429L43.3687 25.4188L44.3319 25.9099C44.3801 25.9344 44.419 25.974 44.4428 26.0225L44.9187 26.9933L45.4098 26.0301C45.4344 25.9819 45.4739 25.943 45.5225 25.9192L46.4933 25.4433L45.5301 24.9522C45.4819 24.9277 45.443 24.8881 45.4192 24.8396L44.9433 23.8688Z" fill="black"/>
</svg>
