<svg width="80" height="189" viewBox="0 0 80 189" fill="none" xmlns="http://www.w3.org/2000/svg">
<path fill-rule="evenodd" clip-rule="evenodd" d="M35.0214 189H36H76H76.9787L76.9998 188.022L79.9998 49.0216L80 49.0108V49C80 43.9199 79.2399 37.8577 78.4878 33.094C78.1107 30.7061 77.7337 28.6326 77.4509 27.1557C77.3095 26.417 77.1915 25.8272 77.1088 25.4213C77.0674 25.2184 77.0348 25.0614 77.0125 24.9548L77 24.8955V24.8928V24.8574V24.8221V24.787V24.752V24.7171V24.6824V24.6478V24.6134V24.5791V24.5449V24.5109V24.477V24.4433V24.4096V24.3762V24.3428V24.3096V24.2766V24.2436V24.2108V24.1782V24.1456V24.1133V24.081V24.0489V24.0169V23.985V23.9533V23.9216V23.8902V23.8588V23.8276V23.7965V23.7656V23.7348V23.7041V23.6735V23.643V23.6127V23.5825V23.5525V23.5225V23.4927V23.463V23.4334V23.404V23.3747V23.3455V23.3164V23.2874V23.2586V23.2299V23.2013V23.1728V23.1445V23.1163V23.0882V23.0602V23.0323V23.0045V22.9769V22.9494V22.922V22.8947V22.8675V22.8404V22.8135V22.7867V22.7599V22.7333V22.7068V22.6805V22.6542V22.628V22.602V22.5761V22.5502V22.5245V22.4989V22.4734V22.4481V22.4228V22.3976V22.3726V22.3476V22.3228V22.298V22.2734V22.2489V22.2244V22.2001V22.1759V22.1518V22.1278V22.1039V22.0801V22.0564V22.0328V22.0093V21.9859V21.9626V21.9394V21.9163V21.8933V21.8704V21.8476V21.8249V21.8023V21.7798V21.7574V21.7351V21.7128V21.6907V21.6687V21.6467V21.6249V21.6032V21.5815V21.56V21.5385V21.5171V21.4958V21.4746V21.4535V21.4325V21.4116V21.3907V21.37V21.3493V21.3288V21.3083V21.2879V21.2676V21.2474V21.2272V21.2072V21.1872V21.1673V21.1475V21.1278V21.1082V21.0886V21.0692V21.0498V21.0305V21.0113V20.9921V20.9731V20.9541V20.9352V20.9164V20.8976V20.879V20.8604V20.8419V20.8235V20.8051V20.7868V20.7686V20.7505V20.7325V20.7145V20.6966V20.6788V20.661V20.6433V20.6257V20.6082V20.5907V20.5733V20.556V20.5387V20.5216V20.5044V20.4874V20.4704V20.4535V20.4367V20.4199V20.4032V20.3866V20.37V20.3535V20.337V20.3206V20.3043V20.2881V20.2719V20.2558V20.2397V20.2237V20.2078V20.1919V20.1761V20.1603V20.1446V20.129V20.1134V20.0979V20.0824V20.067V20.0517V20.0364V20.0212V20.006V19.9909V19.9758V19.9608V19.9459V19.931V19.9161V19.9014V19.8866V19.8719V19.8573V19.8427V19.8282V19.8137V19.7993V19.7849V19.7706V19.7563V19.7421V19.7279V19.7137V19.6996V19.6856V19.6716V19.6577V19.6438V19.6299V19.6161V19.6023V19.5886V19.5749V19.5613V19.5477V19.5341V19.5206V19.5072V19.4937V19.4803V19.467V19.4537V19.4404V19.4272V19.414V19.4008V19.3877V19.3746V19.3616V19.3486V19.3356V19.3227V19.3098V19.297V19.2841V19.2713V19.2586V19.2458V19.2331V19.2205V19.2078V19.1952V19.1827V19.1701V19.1576V19.1451V19.1327V19.1203V19.1079V19.0955V19.0832V19.0709V19.0586V19.0463V19.0341V19.0219V19.0097V18.9975V18.9854V18.9733V18.9612V18.9491V18.9371V18.9251V18.9131V18.9011V18.8891V18.8772V18.8653V18.8534V18.8415V18.8297V18.8178V18.806V18.7942V18.7824V18.7706V18.7589V18.7471V18.7354V18.7237V18.712V18.7003V18.6886V18.677V18.6653V18.6537V18.6421V18.6305V18.6189V18.6073V18.5957V18.5842V18.5726V18.5611V18.5495V18.538V18.5265V18.5149V18.5034V18.4919V18.4804V18.4689V18.4574V18.446V18.4345V18.423V18.4115V18.4001V18.3886V18.3771V18.3657V18.3542V18.3428V18.3313V18.3198V18.3084V18.2969V18.2854V18.274V18.2625V18.251V18.2396V18.2281V18.2166V18.2051V18.1936V18.1821V18.1706V18.1591V18.1476V18.1361V18.1246V18.1131V18.1015V18.09V18.0784V18.0668V18.0553V18.0437V18.0321V18.0204V18.0088V17.9972V17.9855V17.9739V17.9622V17.9505V17.9388V17.9271V17.9154V17.9036V17.8919V17.8801V17.8683V17.8565V17.8447V17.8328V17.821V17.8091V17.7972V17.7852V17.7733V17.7614V17.7494V17.7374V17.7253V17.7133V17.7012V17.6891V17.677V17.6649V17.6527V17.6405V17.6283V17.6161V17.6038V17.5915V17.5792V17.5668V17.5545V17.5421V17.5296V17.5172V17.5047V17.4922V17.4796V17.4671V17.4545V17.4418V17.4291V17.4164V17.4037V17.3909V17.3781V17.3653V17.3524V17.3395V17.3266V17.3136V17.3006V17.2875V17.2744V17.2613V17.2481V17.2349V17.2217V17.2084V17.1951V17.1817V17.1684V17.1549V17.1414V17.1279V17.1143V17.1008V17.0871V17.0734V17.0597V17.0459V17.0321V17.0182V17.0043V16.9903V16.9763V16.9623V16.9482V16.934V16.9198V16.9056V16.8913V16.8769V16.8625V16.8481V16.8336V16.8191V16.8045V16.7898V16.7751V16.7604V16.7456V16.7307V16.7158V16.7009V16.6858V16.6708V16.6556V16.6404V16.6252V16.6099V16.5945V16.5791V16.5636V16.5481V16.5325V16.5169V16.5012V16.4854V16.4696V16.4537V16.4377V16.4217V16.4056V16.3895V16.3733V16.357V16.3407V16.3243V16.3078V16.2913V16.2747V16.2581V16.2413V16.2245V16.2077V16.1908V16.1738V16.1567V16.1396V16.1224V16.1051V16.0878V16.0704V16.0529V16.0353V16.0177V16V1.99998V1.1187L76.1257 1.00792L76 1.99998C76.1257 1.00792 76.1256 1.0079 76.1254 1.00789L76.125 1.00783L76.1235 1.00764L76.1185 1.007L76.0997 1.00467L76.0281 0.995941C75.9653 0.988373 75.8725 0.977386 75.7507 0.96347C75.5071 0.935654 75.1471 0.896118 74.6781 0.848785C73.7401 0.754135 72.3656 0.628281 70.6121 0.502548C67.1053 0.251099 62.0812 0 56 0C49.9188 0 44.8947 0.251099 41.3879 0.502548C39.6344 0.628281 38.2599 0.754135 37.3219 0.848785C36.8529 0.896118 36.4929 0.935654 36.2493 0.96347C36.1275 0.977386 36.0347 0.988373 35.9719 0.995941L35.9003 1.00467L35.8815 1.007L35.8765 1.00764L35.875 1.00783L35.8746 1.00789C35.8744 1.0079 35.8743 1.00792 36 1.99998L35.8743 1.00792L35 1.1187V1.99998V16V16.0177V16.0353V16.0529V16.0704V16.0878V16.1051V16.1224V16.1396V16.1567V16.1738V16.1908V16.2077V16.2245V16.2413V16.2581V16.2747V16.2913V16.3078V16.3243V16.3407V16.357V16.3733V16.3895V16.4056V16.4217V16.4377V16.4537V16.4696V16.4854V16.5012V16.5169V16.5325V16.5481V16.5636V16.5791V16.5945V16.6099V16.6252V16.6404V16.6556V16.6708V16.6858V16.7009V16.7158V16.7307V16.7456V16.7604V16.7751V16.7898V16.8045V16.8191V16.8336V16.8481V16.8625V16.8769V16.8913V16.9056V16.9198V16.934V16.9482V16.9623V16.9763V16.9903V17.0043V17.0182V17.0321V17.0459V17.0597V17.0734V17.0871V17.1008V17.1143V17.1279V17.1414V17.1549V17.1684V17.1817V17.1951V17.2084V17.2217V17.2349V17.2481V17.2613V17.2744V17.2875V17.3006V17.3136V17.3266V17.3395V17.3524V17.3653V17.3781V17.3909V17.4037V17.4164V17.4291V17.4418V17.4545V17.4671V17.4796V17.4922V17.5047V17.5172V17.5296V17.5421V17.5545V17.5668V17.5792V17.5915V17.6038V17.6161V17.6283V17.6405V17.6527V17.6649V17.677V17.6891V17.7012V17.7133V17.7253V17.7374V17.7494V17.7614V17.7733V17.7852V17.7972V17.8091V17.821V17.8328V17.8447V17.8565V17.8683V17.8801V17.8919V17.9036V17.9154V17.9271V17.9388V17.9505V17.9622V17.9739V17.9855V17.9972V18.0088V18.0204V18.0321V18.0437V18.0553V18.0668V18.0784V18.09V18.1015V18.1131V18.1246V18.1361V18.1476V18.1591V18.1706V18.1821V18.1936V18.2051V18.2166V18.2281V18.2396V18.251V18.2625V18.274V18.2854V18.2969V18.3084V18.3198V18.3313V18.3428V18.3542V18.3657V18.3771V18.3886V18.4001V18.4115V18.423V18.4345V18.446V18.4574V18.4689V18.4804V18.4919V18.5034V18.5149V18.5265V18.538V18.5495V18.5611V18.5726V18.5842V18.5957V18.6073V18.6189V18.6305V18.6421V18.6537V18.6653V18.677V18.6886V18.7003V18.712V18.7237V18.7354V18.7471V18.7589V18.7706V18.7824V18.7942V18.806V18.8178V18.8297V18.8415V18.8534V18.8653V18.8772V18.8891V18.9011V18.9131V18.9251V18.9371V18.9491V18.9612V18.9733V18.9854V18.9975V19.0097V19.0219V19.0341V19.0463V19.0586V19.0709V19.0832V19.0955V19.1079V19.1203V19.1327V19.1451V19.1576V19.1701V19.1827V19.1952V19.2078V19.2205V19.2331V19.2458V19.2586V19.2713V19.2841V19.297V19.3098V19.3227V19.3356V19.3486V19.3616V19.3746V19.3877V19.4008V19.414V19.4272V19.4404V19.4537V19.467V19.4803V19.4937V19.5072V19.5206V19.5341V19.5477V19.5613V19.5749V19.5886V19.6023V19.6161V19.6299V19.6438V19.6577V19.6716V19.6856V19.6996V19.7137V19.7279V19.7421V19.7563V19.7706V19.7849V19.7993V19.8137V19.8282V19.8427V19.8573V19.8719V19.8866V19.9014V19.9161V19.931V19.9459V19.9608V19.9758V19.9909V20.006V20.0212V20.0364V20.0517V20.067V20.0824V20.0979V20.1134V20.129V20.1446V20.1603V20.1761V20.1919V20.2078V20.2237V20.2397V20.2558V20.2719V20.2881V20.3043V20.3206V20.337V20.3535V20.37V20.3866V20.4032V20.4199V20.4367V20.4535V20.4704V20.4874V20.5044V20.5216V20.5387V20.556V20.5733V20.5907V20.6082V20.6257V20.6433V20.661V20.6788V20.6966V20.7145V20.7325V20.7505V20.7686V20.7868V20.8051V20.8235V20.8419V20.8604V20.879V20.8976V20.9164V20.9352V20.9541V20.9731V20.9921V21.0113V21.0305V21.0498V21.0692V21.0886V21.1082V21.1278V21.1475V21.1673V21.1872V21.2072V21.2272V21.2474V21.2676V21.2879V21.3083V21.3288V21.3493V21.37V21.3907V21.4116V21.4325V21.4535V21.4746V21.4958V21.5171V21.5385V21.56V21.5815V21.6032V21.6249V21.6467V21.6687V21.6907V21.7128V21.7351V21.7574V21.7798V21.8023V21.8249V21.8476V21.8704V21.8933V21.9163V21.9394V21.9626V21.9859V22.0093V22.0328V22.0564V22.0801V22.1039V22.1278V22.1518V22.1759V22.2001V22.2244V22.2489V22.2734V22.298V22.3228V22.3476V22.3726V22.3976V22.4228V22.4481V22.4734V22.4989V22.5245V22.5502V22.5761V22.602V22.628V22.6542V22.6805V22.7068V22.7333V22.7599V22.7867V22.8135V22.8404V22.8675V22.8947V22.922V22.9494V22.9769V23.0045V23.0323V23.0602V23.0882V23.1163V23.1445V23.1728V23.2013V23.2299V23.2586V23.2874V23.3164V23.3455V23.3747V23.404V23.4334V23.463V23.4927V23.5225V23.5525V23.5825V23.6127V23.643V23.6735V23.7041V23.7348V23.7656V23.7965V23.8276V23.8588V23.8902V23.9216V23.9533V23.985V24.0169V24.0489V24.081V24.1133V24.1456V24.1782V24.2108V24.2436V24.2766V24.3096V24.3428V24.3762V24.4096V24.4433V24.477V24.5109V24.5449V24.5791V24.6134V24.6478V24.6824V24.7171V24.752V24.787V24.8221V24.8574V24.8928V24.8955L34.9875 24.9548C34.9652 25.0614 34.9326 25.2184 34.8913 25.4213C34.8085 25.8272 34.6905 26.417 34.5491 27.1557C34.2663 28.6326 33.8893 30.7061 33.5122 33.094C32.7601 37.8577 32 43.9199 32 49V49.0108L32.0002 49.0216L35.0002 188.022L35.0214 189ZM37 2.89287C37.1546 2.87639 37.329 2.85823 37.5227 2.83868C38.4428 2.74583 39.798 2.62169 41.531 2.49744C44.9972 2.24889 49.9731 2 56 2C62.0269 2 67.0028 2.24889 70.469 2.49744C72.202 2.62169 73.5572 2.74583 74.4773 2.83868C74.671 2.85823 74.8454 2.87639 75 2.89287V14.8927C74.8558 14.8788 74.6985 14.8639 74.5284 14.848C73.5136 14.7536 72.0462 14.628 70.2312 14.5024C66.6021 14.2512 61.5783 14 56 14C50.4217 14 45.3979 14.2512 41.7688 14.5024C39.9538 14.628 38.4864 14.7536 37.4716 14.848C37.3015 14.8639 37.1442 14.8788 37 14.8927V2.89287ZM37 16.9022C37.1904 16.8835 37.4099 16.8624 37.6568 16.8394C38.6577 16.7463 40.1093 16.622 41.9069 16.4976C45.503 16.2487 50.4792 16 56 16C61.5208 16 66.497 16.2487 70.0931 16.4976C71.8907 16.622 73.3423 16.7463 74.3432 16.8394C74.5901 16.8624 74.8096 16.8835 75 16.9022V16.9056V16.9198V16.934V16.9482V16.9623V16.9763V16.9903V17.0043V17.0182V17.0321V17.0459V17.0597V17.0734V17.0871V17.1008V17.1143V17.1279V17.1414V17.1549V17.1684V17.1817V17.1951V17.2084V17.2217V17.2349V17.2481V17.2613V17.2744V17.2875V17.3006V17.3136V17.3266V17.3395V17.3524V17.3653V17.3781V17.3909V17.4037V17.4164V17.4291V17.4418V17.4545V17.4671V17.4796V17.4922V17.5047V17.5172V17.5296V17.5421V17.5545V17.5668V17.5792V17.5915V17.6038V17.6161V17.6283V17.6405V17.6527V17.6649V17.677V17.6891V17.7012V17.7133V17.7253V17.7374V17.7494V17.7614V17.7733V17.7852V17.7972V17.8091V17.821V17.8328V17.8447V17.8565V17.8683V17.8801V17.8919V17.9036V17.9154V17.9271V17.9388V17.9505V17.9622V17.9739V17.9855V17.9972V18.0088V18.0204V18.0321V18.0437V18.0553V18.0668V18.0784V18.09V18.1015V18.1131V18.1246V18.1361V18.1476V18.1591V18.1706V18.1821V18.1936V18.2051V18.2166V18.2281V18.2396V18.251V18.2625V18.274V18.2854V18.2969V18.3084V18.3198V18.3313V18.3428V18.3542V18.3657V18.3771V18.3886V18.4001V18.4115V18.423V18.4345V18.446V18.4574V18.4689V18.4804V18.4919V18.5034V18.5149V18.5265V18.538V18.5495V18.5611V18.5726V18.5842V18.5957V18.6073V18.6189V18.6305V18.6421V18.6537V18.6653V18.677V18.6886V18.7003V18.712V18.7237V18.7354V18.7471V18.7589V18.7706V18.7824V18.7942V18.806V18.8178V18.8297V18.8415V18.8534V18.8653V18.8772V18.8891V18.9011V18.9131V18.9251V18.9371V18.9491V18.9612V18.9733V18.9854V18.9975V19.0097V19.0219V19.0341V19.0463V19.0586V19.0709V19.0832V19.0955V19.1079V19.1203V19.1327V19.1451V19.1576V19.1701V19.1827V19.1952V19.2078V19.2205V19.2331V19.2458V19.2586V19.2713V19.2841V19.297V19.3098V19.3227V19.3356V19.3486V19.3616V19.3746V19.3877V19.4008V19.414V19.4272V19.4404V19.4537V19.467V19.4803V19.4937V19.5072V19.5206V19.5341V19.5477V19.5613V19.5749V19.5886V19.6023V19.6161V19.6299V19.6438V19.6577V19.6716V19.6856V19.6996V19.7137V19.7279V19.7421V19.7563V19.7706V19.7849V19.7993V19.8137V19.8282V19.8427V19.8573V19.8719V19.8866V19.9014V19.9161V19.931V19.9459V19.9608V19.9758V19.9909V20.006V20.0212V20.0364V20.0517V20.067V20.0824V20.0979V20.1134V20.129V20.1446V20.1603V20.1761V20.1919V20.2078V20.2237V20.2397V20.2558V20.2719V20.2881V20.3043V20.3206V20.337V20.3535V20.37V20.3866V20.4032V20.4199V20.4367V20.4535V20.4704V20.4874V20.5044V20.5216V20.5387V20.556V20.5733V20.5907V20.6082V20.6257V20.6433V20.661V20.6788V20.6966V20.7145V20.7325V20.7505V20.7686V20.7868V20.8051V20.8235V20.8419V20.8604V20.879V20.8976V20.9164V20.9352V20.9541V20.9731V20.9921V21.0113V21.0305V21.0498V21.0692V21.0886V21.1082V21.1278V21.1475V21.1673V21.1872V21.2072V21.2272V21.2474V21.2676V21.2879V21.3083V21.3288V21.3493V21.37V21.3907V21.4116V21.4325V21.4535V21.4746V21.4958V21.5171V21.5385V21.56V21.5815V21.6032V21.6249V21.6467V21.6687V21.6907V21.7128V21.7351V21.7574V21.7798V21.8023V21.8249V21.8476V21.8704V21.8933V21.9163V21.9394V21.9626V21.9859V22.0093V22.0328V22.0564V22.0801V22.1039V22.1278V22.1518V22.1759V22.2001V22.2244V22.2489V22.2734V22.298V22.3228V22.3476V22.3726V22.3976V22.4228V22.4481V22.4734V22.4989V22.5245V22.5502V22.5761V22.602V22.628V22.6542V22.6805V22.7068V22.7333V22.7599V22.7867V22.8135V22.8404V22.8675V22.8947V22.922V22.9494V22.9769V23.0045V23.0323V23.0602V23.0882V23.1163V23.1445V23.1728V23.2013V23.2299V23.2586V23.2874V23.3164V23.3455V23.3747V23.404V23.4334V23.463V23.4927V23.5225V23.5525V23.5825V23.6127V23.643V23.6735V23.7041V23.7348V23.7656V23.7965V23.8276V23.8588V23.8902V23.9104C74.7718 23.8915 74.5109 23.8702 74.2204 23.8469C73.0444 23.7528 71.3829 23.6275 69.4394 23.5021C65.5559 23.2515 60.5314 23 56 23C51.4686 23 46.4441 23.2515 42.5606 23.5021C40.6171 23.6275 38.9556 23.7528 37.7796 23.8469C37.4891 23.8702 37.2282 23.8915 37 23.9104V23.8902V23.8588V23.8276V23.7965V23.7656V23.7348V23.7041V23.6735V23.643V23.6127V23.5825V23.5525V23.5225V23.4927V23.463V23.4334V23.404V23.3747V23.3455V23.3164V23.2874V23.2586V23.2299V23.2013V23.1728V23.1445V23.1163V23.0882V23.0602V23.0323V23.0045V22.9769V22.9494V22.922V22.8947V22.8675V22.8404V22.8135V22.7867V22.7599V22.7333V22.7068V22.6805V22.6542V22.628V22.602V22.5761V22.5502V22.5245V22.4989V22.4734V22.4481V22.4228V22.3976V22.3726V22.3476V22.3228V22.298V22.2734V22.2489V22.2244V22.2001V22.1759V22.1518V22.1278V22.1039V22.0801V22.0564V22.0328V22.0093V21.9859V21.9626V21.9394V21.9163V21.8933V21.8704V21.8476V21.8249V21.8023V21.7798V21.7574V21.7351V21.7128V21.6907V21.6687V21.6467V21.6249V21.6032V21.5815V21.56V21.5385V21.5171V21.4958V21.4746V21.4535V21.4325V21.4116V21.3907V21.37V21.3493V21.3288V21.3083V21.2879V21.2676V21.2474V21.2272V21.2072V21.1872V21.1673V21.1475V21.1278V21.1082V21.0886V21.0692V21.0498V21.0305V21.0113V20.9921V20.9731V20.9541V20.9352V20.9164V20.8976V20.879V20.8604V20.8419V20.8235V20.8051V20.7868V20.7686V20.7505V20.7325V20.7145V20.6966V20.6788V20.661V20.6433V20.6257V20.6082V20.5907V20.5733V20.556V20.5387V20.5216V20.5044V20.4874V20.4704V20.4535V20.4367V20.4199V20.4032V20.3866V20.37V20.3535V20.337V20.3206V20.3043V20.2881V20.2719V20.2558V20.2397V20.2237V20.2078V20.1919V20.1761V20.1603V20.1446V20.129V20.1134V20.0979V20.0824V20.067V20.0517V20.0364V20.0212V20.006V19.9909V19.9758V19.9608V19.9459V19.931V19.9161V19.9014V19.8866V19.8719V19.8573V19.8427V19.8282V19.8137V19.7993V19.7849V19.7706V19.7563V19.7421V19.7279V19.7137V19.6996V19.6856V19.6716V19.6577V19.6438V19.6299V19.6161V19.6023V19.5886V19.5749V19.5613V19.5477V19.5341V19.5206V19.5072V19.4937V19.4803V19.467V19.4537V19.4404V19.4272V19.414V19.4008V19.3877V19.3746V19.3616V19.3486V19.3356V19.3227V19.3098V19.297V19.2841V19.2713V19.2586V19.2458V19.2331V19.2205V19.2078V19.1952V19.1827V19.1701V19.1576V19.1451V19.1327V19.1203V19.1079V19.0955V19.0832V19.0709V19.0586V19.0463V19.0341V19.0219V19.0097V18.9975V18.9854V18.9733V18.9612V18.9491V18.9371V18.9251V18.9131V18.9011V18.8891V18.8772V18.8653V18.8534V18.8415V18.8297V18.8178V18.806V18.7942V18.7824V18.7706V18.7589V18.7471V18.7354V18.7237V18.712V18.7003V18.6886V18.677V18.6653V18.6537V18.6421V18.6305V18.6189V18.6073V18.5957V18.5842V18.5726V18.5611V18.5495V18.538V18.5265V18.5149V18.5034V18.4919V18.4804V18.4689V18.4574V18.446V18.4345V18.423V18.4115V18.4001V18.3886V18.3771V18.3657V18.3542V18.3428V18.3313V18.3198V18.3084V18.2969V18.2854V18.274V18.2625V18.251V18.2396V18.2281V18.2166V18.2051V18.1936V18.1821V18.1706V18.1591V18.1476V18.1361V18.1246V18.1131V18.1015V18.09V18.0784V18.0668V18.0553V18.0437V18.0321V18.0204V18.0088V17.9972V17.9855V17.9739V17.9622V17.9505V17.9388V17.9271V17.9154V17.9036V17.8919V17.8801V17.8683V17.8565V17.8447V17.8328V17.821V17.8091V17.7972V17.7852V17.7733V17.7614V17.7494V17.7374V17.7253V17.7133V17.7012V17.6891V17.677V17.6649V17.6527V17.6405V17.6283V17.6161V17.6038V17.5915V17.5792V17.5668V17.5545V17.5421V17.5296V17.5172V17.5047V17.4922V17.4796V17.4671V17.4545V17.4418V17.4291V17.4164V17.4037V17.3909V17.3781V17.3653V17.3524V17.3395V17.3266V17.3136V17.3006V17.2875V17.2744V17.2613V17.2481V17.2349V17.2217V17.2084V17.1951V17.1817V17.1684V17.1549V17.1414V17.1279V17.1143V17.1008V17.0871V17.0734V17.0597V17.0459V17.0321V17.0182V17.0043V16.9903V16.9763V16.9623V16.9482V16.934V16.9198V16.9056V16.9022ZM36.8284 25.9318C36.7487 26.3246 36.6407 26.8668 36.5134 27.5318C36.2337 28.9923 35.8607 31.0439 35.4877 33.406C34.7404 38.1388 34.0011 44.0715 34 48.9892L34 49L34.9731 94.0818C35.136 94.1099 35.3505 94.1438 35.6102 94.1777C35.884 94.2135 36.077 94.4645 36.0412 94.7383C36.0054 95.0121 35.7544 95.2051 35.4806 95.1693C35.2976 95.1454 35.1351 95.1214 34.995 95.0991L36.3776 159.151C36.4439 159.161 36.5141 159.171 36.5881 159.181C36.8617 159.218 37.0535 159.47 37.0164 159.744C36.9793 160.017 36.7274 160.209 36.4538 160.172L36.3994 160.165L36.9787 187H75.0214L76.6004 113.845L76.556 113.839L76.4949 113.83L76.4119 113.819C76.1383 113.782 75.9465 113.53 75.9836 113.256C76.0207 112.983 76.2726 112.791 76.5462 112.828L76.6221 112.838L78 49V48.9892L77.9999 48.9136C77.8406 48.8864 77.6354 48.8544 77.3898 48.8223C77.116 48.7865 76.923 48.5355 76.9588 48.2617C76.9946 47.9879 77.2456 47.7949 77.5194 47.8307C77.6952 47.8537 77.852 47.8767 77.9883 47.8983C77.8911 43.2128 77.205 37.7938 76.5122 33.406C76.1393 31.0439 75.7663 28.9923 75.4866 27.5318C75.3593 26.8668 75.2513 26.3246 75.1716 25.9318C74.8787 25.9071 74.5048 25.8761 74.0609 25.8405C72.8931 25.7471 71.2421 25.6225 69.3106 25.4979C65.4441 25.2485 60.4686 25 56 25C51.5314 25 46.5559 25.2485 42.6894 25.4979C40.7579 25.6225 39.1069 25.7471 37.9391 25.8405C37.4952 25.8761 37.1213 25.9071 36.8284 25.9318ZM74.7506 48.148C74.7567 48.4241 74.5379 48.6528 74.2618 48.6589C73.6158 48.6732 72.9186 48.7182 72.1879 48.8089C71.9138 48.843 71.6641 48.6484 71.63 48.3744C71.596 48.1003 71.7906 47.8506 72.0646 47.8166C72.8323 47.7212 73.5634 47.6741 74.2397 47.6592C74.5158 47.6531 74.7445 47.8719 74.7506 48.148ZM69.4719 48.8252C69.5521 49.0895 69.4028 49.3687 69.1385 49.4488C68.495 49.6439 67.8453 49.8827 67.1987 50.1733C66.9468 50.2864 66.6509 50.174 66.5377 49.9221C66.4245 49.6703 66.5369 49.3743 66.7888 49.2611C67.477 48.9519 68.1669 48.6984 68.8484 48.4918C69.1126 48.4117 69.3918 48.561 69.4719 48.8252ZM64.63 51.0264C64.7927 51.2495 64.7438 51.5622 64.5207 51.725C63.9807 52.1189 63.4526 52.5612 62.9426 53.0574C62.7447 53.2499 62.4281 53.2456 62.2356 53.0477C62.043 52.8497 62.0473 52.5332 62.2453 52.3406C62.7899 51.8108 63.3542 51.3382 63.9314 50.9171C64.1545 50.7544 64.4672 50.8033 64.63 51.0264ZM60.8242 54.7339C61.0521 54.8899 61.1104 55.201 60.9545 55.4289C60.5797 55.9767 60.223 56.5682 59.8884 57.2069C59.7603 57.4515 59.4581 57.5459 59.2135 57.4177C58.9689 57.2896 58.8745 56.9874 59.0026 56.7428C59.355 56.0701 59.7318 55.445 60.1292 54.8642C60.2851 54.6363 60.5963 54.578 60.8242 54.7339ZM58.3484 59.4405C58.6093 59.5309 58.7476 59.8157 58.6572 60.0766C58.4378 60.7102 58.2367 61.3787 58.0559 62.0841C57.9874 62.3516 57.715 62.5129 57.4475 62.4443C57.18 62.3758 57.0187 62.1034 57.0872 61.8359C57.2745 61.1048 57.4836 60.4099 57.7123 59.7494C57.8027 59.4884 58.0875 59.3502 58.3484 59.4405ZM57.0171 64.6022C57.2902 64.6431 57.4785 64.8977 57.4376 65.1708C57.3373 65.8409 57.253 66.538 57.1861 67.2633C57.1607 67.5382 56.9172 67.7406 56.6423 67.7152C56.3673 67.6898 56.165 67.4463 56.1903 67.1714C56.2589 66.4281 56.3454 65.7122 56.4486 65.0227C56.4895 64.7496 56.744 64.5614 57.0171 64.6022ZM56.5219 69.9094C56.798 69.9153 57.0171 70.1438 57.0113 70.4199C57.0038 70.7742 57 71.1342 57 71.5C57 71.8727 56.9961 72.2398 56.9885 72.6012C56.9827 72.8773 56.7542 73.0964 56.4781 73.0906C56.202 73.0847 55.9829 72.8562 55.9887 72.5801C55.9962 72.2258 56 71.8658 56 71.5C56 71.1273 56.0039 70.7602 56.0115 70.3988C56.0173 70.1227 56.2458 69.9036 56.5219 69.9094ZM56.3577 75.2848C56.6327 75.3102 56.835 75.5536 56.8097 75.8286C56.7411 76.5719 56.6546 77.2878 56.5514 77.9773C56.5105 78.2504 56.256 78.4386 55.9829 78.3977C55.7098 78.3569 55.5215 78.1023 55.5624 77.8292C55.6627 77.1591 55.747 76.462 55.8139 75.7367C55.8393 75.4617 56.0828 75.2594 56.3577 75.2848ZM55.5525 80.5557C55.82 80.6242 55.9813 80.8966 55.9128 81.1641C55.7255 81.8952 55.5164 82.5901 55.2877 83.2506C55.1973 83.5116 54.9125 83.6498 54.6516 83.5595C54.3907 83.4691 54.2524 83.1843 54.3428 82.9234C54.5622 82.2898 54.7633 81.6213 54.9441 80.9159C55.0126 80.6484 55.285 80.4871 55.5525 80.5557ZM53.7865 85.5823C54.0311 85.7104 54.1255 86.0126 53.9974 86.2572C53.645 86.9298 53.2682 87.555 52.8708 88.1358C52.7149 88.3637 52.4037 88.422 52.1758 88.2661C51.9479 88.1101 51.8896 87.799 52.0455 87.5711C52.4203 87.0233 52.777 86.4318 53.1116 85.7931C53.2398 85.5485 53.5419 85.4541 53.7865 85.5823ZM50.7645 89.9523C50.957 90.1503 50.9527 90.4668 50.7547 90.6594C50.2101 91.1892 49.6458 91.6618 49.0686 92.0829C48.8455 92.2456 48.5328 92.1967 48.37 91.9736C48.2073 91.7505 48.2562 91.4377 48.4793 91.275C49.0193 90.8811 49.5474 90.4388 50.0574 89.9426C50.2553 89.75 50.5719 89.7544 50.7645 89.9523ZM46.4623 93.0779C46.5755 93.3297 46.4631 93.6257 46.2112 93.7389C45.523 94.0481 44.8331 94.3016 44.1516 94.5082C43.8874 94.5883 43.6082 94.439 43.5281 94.1748C43.4479 93.9105 43.5972 93.6313 43.8615 93.5512C44.505 93.3561 45.1547 93.1173 45.8013 92.8267C46.0532 92.7135 46.3491 92.826 46.4623 93.0779ZM41.37 94.6256C41.404 94.8996 41.2094 95.1494 40.9354 95.1834C40.1677 95.2788 39.4366 95.3259 38.7603 95.3408C38.4842 95.3469 38.2555 95.1281 38.2494 94.852C38.2433 94.5759 38.4621 94.3472 38.7382 94.3411C39.3842 94.3268 40.0814 94.2818 40.8121 94.1911C41.0862 94.157 41.3359 94.3516 41.37 94.6256ZM73.3599 113.661C73.6359 113.654 73.8534 113.424 73.8456 113.147C73.8379 112.871 73.6078 112.654 73.3318 112.662C72.6676 112.68 71.9499 112.733 71.1972 112.838C70.9237 112.876 70.7327 113.128 70.7706 113.402C70.8084 113.675 71.0609 113.866 71.3344 113.828C72.0473 113.729 72.7284 113.679 73.3599 113.661ZM68.3713 114.514C68.6333 114.426 68.7749 114.143 68.6877 113.881C68.6004 113.619 68.3173 113.478 68.0553 113.565C67.3939 113.785 66.7253 114.055 66.0598 114.382C65.812 114.504 65.7101 114.804 65.8321 115.052C65.9541 115.3 66.2538 115.401 66.5015 115.279C67.1237 114.973 67.75 114.721 68.3713 114.514ZM63.951 116.896C64.1669 116.724 64.2023 116.409 64.0301 116.193C63.8579 115.977 63.5433 115.942 63.3274 116.114C62.7822 116.549 62.2503 117.036 61.7383 117.58C61.549 117.781 61.5585 118.097 61.7596 118.286C61.9606 118.476 62.2771 118.466 62.4664 118.265C62.9455 117.756 63.4423 117.302 63.951 116.896ZM60.6199 120.665C60.7669 120.431 60.6966 120.122 60.4628 119.975C60.229 119.828 59.9204 119.899 59.7734 120.132C59.4066 120.716 59.0595 121.342 58.7353 122.014C58.6153 122.263 58.7197 122.562 58.9684 122.682C59.2171 122.802 59.516 122.697 59.636 122.449C59.9444 121.809 60.2736 121.215 60.6199 120.665ZM58.5109 125.291C58.5951 125.028 58.4501 124.747 58.1871 124.663C57.9241 124.579 57.6427 124.724 57.5585 124.987C57.35 125.638 57.1596 126.322 56.9891 127.041C56.9254 127.309 57.0915 127.579 57.3602 127.643C57.6289 127.706 57.8984 127.54 57.9621 127.272C58.1269 126.577 58.3105 125.917 58.5109 125.291ZM57.3996 130.298C57.4376 130.024 57.2468 129.772 56.9733 129.733C56.6998 129.695 56.4472 129.886 56.4091 130.16C56.3151 130.835 56.2363 131.536 56.1738 132.263C56.1501 132.539 56.354 132.781 56.6291 132.804C56.9042 132.828 57.1464 132.624 57.1701 132.349C57.2312 131.639 57.308 130.955 57.3996 130.298ZM57.0103 135.442C57.0157 135.166 56.7963 134.938 56.5203 134.932C56.2442 134.927 56.0159 135.146 56.0105 135.422C56.0035 135.776 56 136.135 56 136.5C56 136.858 55.9965 137.211 55.9897 137.558C55.9843 137.834 56.2037 138.062 56.4797 138.068C56.7558 138.073 56.9841 137.854 56.9895 137.578C56.9965 137.224 57 136.865 57 136.5C57 136.142 57.0035 135.789 57.0103 135.442ZM56.8262 140.737C56.8499 140.461 56.646 140.219 56.3709 140.196C56.0958 140.172 55.8536 140.376 55.8299 140.651C55.7688 141.361 55.692 142.045 55.6004 142.702C55.5624 142.976 55.7532 143.228 56.0267 143.267C56.3002 143.305 56.5528 143.114 56.5909 142.84C56.6849 142.165 56.7637 141.464 56.8262 140.737ZM56.0109 145.959C56.0746 145.691 55.9085 145.421 55.6398 145.357C55.3711 145.294 55.1016 145.46 55.0379 145.728C54.8731 146.423 54.6895 147.083 54.4891 147.709C54.4049 147.972 54.5499 148.253 54.8129 148.337C55.0759 148.421 55.3573 148.276 55.4415 148.013C55.65 147.362 55.8404 146.678 56.0109 145.959ZM54.2647 150.986C54.3847 150.737 54.2803 150.438 54.0316 150.318C53.7829 150.198 53.484 150.303 53.364 150.551C53.0556 151.191 52.7264 151.785 52.3801 152.335C52.2331 152.569 52.3034 152.878 52.5372 153.025C52.771 153.172 53.0796 153.101 53.2266 152.868C53.5934 152.284 53.9405 151.658 54.2647 150.986ZM51.2617 155.42C51.451 155.219 51.4415 154.903 51.2404 154.714C51.0394 154.524 50.7229 154.534 50.5336 154.735C50.0545 155.244 49.5577 155.698 49.049 156.104C48.8331 156.276 48.7977 156.591 48.9699 156.807C49.1421 157.023 49.4567 157.058 49.6726 156.886C50.2178 156.451 50.7497 155.964 51.2617 155.42ZM46.9402 158.618C47.188 158.496 47.2899 158.196 47.1679 157.948C47.0459 157.7 46.7462 157.599 46.4985 157.721C45.8763 158.027 45.25 158.279 44.6287 158.486C44.3667 158.574 44.2251 158.857 44.3123 159.119C44.3996 159.381 44.6827 159.522 44.9447 159.435C45.6061 159.215 46.2747 158.945 46.9402 158.618ZM41.8028 160.162C42.0763 160.124 42.2673 159.872 42.2294 159.598C42.1916 159.325 41.9391 159.134 41.6656 159.172C40.9527 159.271 40.2716 159.321 39.6401 159.339C39.3641 159.346 39.1466 159.576 39.1544 159.852C39.1621 160.129 39.3922 160.346 39.6682 160.338C40.3324 160.32 41.0501 160.267 41.8028 160.162ZM37 168V166H75V168H37ZM43.5 7.99998C43.5 9.99857 46 8.66121 46 8.66121C44.9091 10.9755 42 9.98362 42 7.99998C42 6.01634 44.9091 5.02454 46 7.33878C46 7.33878 43.5 6.0014 43.5 7.99998ZM68 9.99998C69.1046 9.99998 70 9.10455 70 7.99998C70 6.89542 69.1046 5.99998 68 5.99998C66.8954 5.99998 66 6.89542 66 7.99998C66 9.10455 66.8954 9.99998 68 9.99998ZM52 6.49998C52 6.22384 52.2239 5.99998 52.5 5.99998H55.5C55.7761 5.99998 56 6.22384 56 6.49998C56 6.77613 55.7761 6.99998 55.5 6.99998H52.5C52.2239 6.99998 52 6.77613 52 6.49998ZM52.5 7.99998C52.2239 7.99998 52 8.22384 52 8.49998C52 8.77613 52.2239 8.99998 52.5 8.99998H55.5C55.7761 8.99998 56 8.77613 56 8.49998C56 8.22384 55.7761 7.99998 55.5 7.99998H52.5ZM57 8.49998C57 8.22384 57.2239 7.99998 57.5 7.99998H59.5C59.7761 7.99998 60 8.22384 60 8.49998C60 8.77613 59.7761 8.99998 59.5 8.99998H57.5C57.2239 8.99998 57 8.77613 57 8.49998ZM57.5 5.99998C57.2239 5.99998 57 6.22384 57 6.49998C57 6.77613 57.2239 6.99998 57.5 6.99998H59.5C59.7761 6.99998 60 6.77613 60 6.49998C60 6.22384 59.7761 5.99998 59.5 5.99998H57.5Z" fill="black"/>
<path fill-rule="evenodd" clip-rule="evenodd" d="M46.9768 15.1506C47.0599 14.8873 46.9139 14.6064 46.6506 14.5232C46.3872 14.4401 46.1064 14.5861 46.0232 14.8494L43.0232 24.3494L43 24.4229V24.5V98.928V128H42C41.4477 128 41 128.448 41 129C41 129.552 41.4477 130 42 130H43V165V168V170V180C43 180.276 43.2239 180.5 43.5 180.5C43.7761 180.5 44 180.276 44 180V170H45V168H44V165V130H45C45.5523 130 46 129.552 46 129C46 128.448 45.5523 128 45 128H44V98.928V24.5771L46.9768 15.1506ZM43.9608 15.694C44.068 15.4395 43.9485 15.1464 43.694 15.0392C43.4395 14.932 43.1463 15.0515 43.0392 15.306L39.0392 24.806L39 24.899V25V105.991V140H38C37.4477 140 37 140.448 37 141C37 141.552 37.4477 142 38 142H39V165V168V170V180.5C39 180.776 39.2239 181 39.5 181C39.7761 181 40 180.776 40 180.5V170H41V168H40V165V142H41C41.5523 142 42 141.552 42 141C42 140.448 41.5523 140 41 140H40V105.991V25.101L43.9608 15.694ZM50.6085 14.5119C50.878 14.5718 51.048 14.8389 50.9881 15.1085L49 24.0549V91.5V116H50C50.5523 116 51 116.448 51 117C51 117.552 50.5523 118 50 118H49V165V168H50V170H49V181.5C49 181.776 48.7761 182 48.5 182C48.2239 182 48 181.776 48 181.5V170V168V165V118H47C46.4477 118 46 117.552 46 117C46 116.448 46.4477 116 47 116H48V91.5V24V23.9451L48.0119 23.8915L50.0119 14.8915C50.0718 14.622 50.3389 14.452 50.6085 14.5119ZM54.9969 15.0552C55.0274 14.7808 54.8297 14.5336 54.5552 14.5031C54.2808 14.4726 54.0336 14.6703 54.0031 14.9448L53.0031 23.9448L53 23.9723V24V84.5V104H52C51.4477 104 51 104.448 51 105C51 105.552 51.4477 106 52 106H53V165V168V170V180C53 180.276 53.2239 180.5 53.5 180.5C53.7761 180.5 54 180.276 54 180V170H55V168H54V165V106H55C55.5523 106 56 105.552 56 105C56 104.448 55.5523 104 55 104H54V84.5V24.0277L54.9969 15.0552ZM57.4448 14.5031C57.7192 14.4726 57.9664 14.6703 57.9969 14.9448L58.9969 23.9448L59 23.9723V24V78.1562V92H60C60.5523 92 61 92.4477 61 93C61 93.5523 60.5523 94 60 94H59V165V168V170V180C59 180.276 58.7761 180.5 58.5 180.5C58.2239 180.5 58 180.276 58 180V170H57V168H58V165V94H57C56.4477 94 56 93.5523 56 93C56 92.4477 56.4477 92 57 92H58V78.1562V24.0277L57.0031 15.0552C56.9726 14.7808 57.1703 14.5336 57.4448 14.5031ZM61.9881 14.8915C61.9282 14.622 61.6611 14.452 61.3915 14.5119C61.122 14.5718 60.952 14.8389 61.0119 15.1085L63 24.0549V71V80H62C61.4477 80 61 80.4477 61 81C61 81.5523 61.4477 82 62 82H63V165V168H62V170H63V181.5C63 181.776 63.2239 182 63.5 182C63.7761 182 64 181.776 64 181.5V170V168V165V82H65C65.5523 82 66 81.5523 66 81C66 80.4477 65.5523 80 65 80H64V71V24V23.9451L63.9881 23.8915L61.9881 14.8915ZM65.3419 15.0257C65.6039 14.9383 65.887 15.0799 65.9743 15.3419L68.9743 24.3419L69 24.4189V24.5V55V68H70C70.5523 68 71 68.4477 71 69C71 69.5523 70.5523 70 70 70H69V165V168V170V180C69 180.276 68.7761 180.5 68.5 180.5C68.2239 180.5 68 180.276 68 180V170H67V168H68V165V70H67C66.4477 70 66 69.5523 66 69C66 68.4477 66.4477 68 67 68H68V55V24.5812L65.0257 15.6581C64.9383 15.3962 65.0799 15.113 65.3419 15.0257ZM68.9608 15.306C68.8537 15.0515 68.5605 14.932 68.306 15.0392C68.0515 15.1464 67.932 15.4395 68.0392 15.694L72 25.101V56H71C70.4477 56 70 56.4477 70 57C70 57.5523 70.4477 58 71 58H72V165V168H71V170H72V180.5C72 180.776 72.2239 181 72.5 181C72.7761 181 73 180.776 73 180.5V170V168V165V58H74C74.5523 58 75 57.5523 75 57C75 56.4477 74.5523 56 74 56H73V25V24.899L72.9608 24.806L68.9608 15.306Z" fill="black"/>
<path d="M36 182C36 182 39.5 180 41.75 180C44 180 44.645 182 46.5 182C48.355 182 49.645 180 51.5 180C53.355 180 54.145 182 56 182C57.855 182 58.645 180 60.5 180C62.355 180 63.5 182 65.5 182C67.5 182 68.5 180 70.5 180C72.5 180 76 182 76 182" stroke="black" stroke-width="2" stroke-linecap="round"/>
<path d="M5.14713 29.6081C2.2504 49.6483 19.9089 99.0566 19.9089 99.0566L21.988 108.838" stroke="black" stroke-width="2" stroke-linecap="round"/>
<path d="M5.53223 29.0151L20.7098 100.42" stroke="black"/>
</svg>
