<svg width="172" height="177" viewBox="0 0 172 177" fill="none" xmlns="http://www.w3.org/2000/svg">
<path d="M11.5 146.5V77C11.5 57.4934 18.0127 3.7413 82.5 1.10088M11.5 146.5H160.5M11.5 146.5H1M160.5 146.5V77C160.5 57.4934 153.987 3.7413 89.5 1.10088M160.5 146.5H171M82.5 1.10088C84.1312 1.03409 84.2977 1 86 1C87.7023 1 87.8688 1.03409 89.5 1.10088M82.5 1.10088V10.5M82.5 10.5H89.5M82.5 10.5H76.5M89.5 10.5V1.10088M89.5 10.5H95.5" stroke="black" stroke-linecap="round"/>
<circle cx="86" cy="77" r="57" stroke="black" stroke-width="2"/>
<path d="M70 22C70 22 80 8 86 8C92.0001 8 102 22 102 22" stroke="black" stroke-width="2"/>
<path d="M87.4998 77C87.4998 78 86.8282 78.5 85.9998 78.5C85.1714 78.5 84.7007 77.8037 84.4998 77C84.2315 75.9265 85.0137 75.0689 86 74.5C87.7414 73.4956 89.9475 75.0671 90.4998 77C91.1826 79.3896 88.4852 81.4999 86 81.5C83.5147 81.5001 81.7471 79.473 81.4998 77C81.2237 74.2385 83.3126 72.1927 86 71.5C89.5171 70.5934 92.9475 73.4102 93.4998 77C94.1297 81.094 90.1419 84.5 85.9998 84.5C81.8577 84.5 78.7582 81.1341 78.4998 77C78.2237 72.5817 81.6349 69.2371 86 68.5C91.202 67.6216 95.9475 71.7534 96.4998 77C97.1069 82.7671 91.7988 87.5 85.9998 87.5C80.2008 87.5 75.7631 82.793 75.4998 77C75.2237 70.9248 79.9662 66.2596 86 65.5C92.8713 64.6349 98.9475 70.0965 99.4998 77C100.094 84.4321 93.4557 90.5 85.9998 90.5C78.544 90.5 72.7659 84.4511 72.4998 77C72.2237 69.268 78.3018 63.2733 86 62.5C94.5352 61.6427 101.948 68.4397 102.5 77C103.087 86.0938 95.1125 93.5 85.9998 93.5C76.8871 93.5 69.7677 86.1088 69.4998 77C69.2237 67.6111 76.6397 60.2824 86 59.5C96.1966 58.6477 104.948 66.7828 105.5 77C106.081 87.7539 96.7694 96.5 85.9998 96.5C75.2303 96.5 66.769 87.7662 66.4998 77C66.2237 65.9542 74.979 57.2889 86 56.5C97.8566 55.6513 107.948 65.1259 108.5 77C109.077 89.413 98.4262 99.5 85.9998 99.5C73.5734 99.5 63.7699 89.4235 63.4998 77C63.2237 64.2974 73.3192 54.2938 86 53.5C99.5157 52.6539 110.948 63.4691 111.5 77C112.074 91.0715 100.083 102.5 85.9998 102.5C71.9166 102.5 60.7706 91.0807 60.4998 77C60.2237 62.6405 71.6601 51.2977 86 50.5C101.174 49.6559 113.948 61.8122 114.5 77C115.072 92.7297 101.74 105.5 85.9998 105.5C70.2597 105.5 57.7712 92.7378 57.4998 77C57.2237 60.9837 70.0014 48.3007 86.0001 47.5C102.833 46.6576 116.948 60.1554 117.5 77C118.07 94.3876 103.397 108.5 85.9998 108.5C68.6028 108.5 54.7716 94.3948 54.4998 77C54.2237 59.3268 68.343 45.3032 86 44.5C104.491 43.6588 119.948 58.4985 120.5 77C121.068 96.0453 105.054 111.5 85.9998 111.5C66.946 111.5 51.772 96.0519 51.4998 77C51.2237 57.67 66.6849 42.3053 86.0001 41.5C106.148 40.66 122.948 56.8417 123.5 77C124.067 97.7029 106.71 114.5 85.9998 114.5C65.2891 114.5 48.7723 97.7089 48.4998 77C48.2237 56.0131 65.0269 39.3071 86 38.5C107.806 37.6609 125.948 55.1848 126.5 77C127.066 99.3604 108.367 117.5 85.9998 117.5C63.6323 117.5 45.7726 99.3659 45.4998 77C45.2237 54.3562 63.3691 36.3086 86.0001 35.5C109.464 34.6617 128.948 53.528 129.5 77C130.065 101.018 110.024 120.5 85.9998 120.5C61.9754 120.5 42.7728 101.023 42.4998 77C42.2237 52.6994 61.7114 33.3099 86.0001 32.5C111.121 31.6624 131.948 51.8711 132.5 77C133.064 102.675 111.681 123.5 85.9998 123.5C60.3186 123.5 39.773 102.68 39.4998 77C39.2237 51.0426 60.0538 30.3111 86 29.5C112.778 28.6629 134.948 50.2142 135.5 77C136.063 104.332 113.338 126.5 85.9998 126.5C58.6617 126.5 36.7732 104.337 36.4998 77C36.2237 49.3857 58.3964 27.312 86.0001 26.5C114.436 25.6635 137.948 48.5574 138.5 77C139.063 105.989 114.995 129.5 85.9998 129.5C57.0049 129.5 33.7734 105.994 33.4998 77C33.2237 47.7288 56.7389 24.3129 86.0001 23.5C116.093 22.664 140.948 46.9006 141.5 77C142.062 107.647 116.652 132.5 85.9998 132.5C55.348 132.5 30.7735 107.651 30.4998 77C30.2237 46.072 55.0816 21.3137 86.0001 20.5" stroke="black" stroke-linecap="round"/>
<path fill-rule="evenodd" clip-rule="evenodd" d="M121.854 160.037L121.61 158.052C121.423 156.526 120.678 155.205 119.605 154.267C119.352 154.284 119.126 154.107 119.081 153.858C117.911 153.044 116.449 152.641 114.923 152.828C113.692 152.979 112.593 153.494 111.722 154.251C111.932 154.289 112.101 154.46 112.129 154.682C112.162 154.956 111.968 155.206 111.693 155.24C111.428 155.272 111.186 155.091 111.14 154.831C110.704 155.33 110.351 155.899 110.098 156.517C110.251 156.587 110.365 156.732 110.387 156.911C110.421 157.185 110.226 157.435 109.952 157.468C109.9 157.475 109.849 157.473 109.8 157.464C109.701 157.902 109.651 158.356 109.654 158.819C109.708 158.632 109.869 158.486 110.074 158.461C110.348 158.427 110.597 158.622 110.631 158.896C110.665 159.17 110.47 159.42 110.196 159.454C109.959 159.483 109.741 159.342 109.664 159.127C109.672 159.255 109.683 159.385 109.699 159.514L109.943 161.5C109.992 161.9 110.08 162.287 110.202 162.657C110.28 162.536 110.408 162.45 110.561 162.431C110.836 162.398 111.085 162.592 111.119 162.866C111.152 163.141 110.957 163.39 110.683 163.424C110.624 163.431 110.567 163.428 110.512 163.415C111.319 165.058 112.845 166.249 114.633 166.635C114.608 166.585 114.591 166.53 114.584 166.471C114.55 166.197 114.745 165.948 115.019 165.914C115.293 165.88 115.543 166.075 115.576 166.349C115.595 166.502 115.542 166.648 115.445 166.752C115.832 166.781 116.229 166.773 116.63 166.724C116.759 166.708 116.888 166.688 117.014 166.664C116.787 166.641 116.598 166.463 116.569 166.227C116.535 165.953 116.73 165.704 117.004 165.67C117.278 165.636 117.528 165.831 117.561 166.105C117.587 166.31 117.484 166.502 117.316 166.599C117.766 166.49 118.194 166.332 118.595 166.13C118.574 166.085 118.56 166.036 118.554 165.984C118.52 165.71 118.715 165.46 118.989 165.426C119.168 165.404 119.337 165.48 119.442 165.612C119.98 165.217 120.447 164.737 120.825 164.193C120.562 164.211 120.328 164.02 120.295 163.755C120.262 163.481 120.457 163.231 120.731 163.198C120.953 163.17 121.16 163.294 121.247 163.488C121.771 162.459 122.005 161.269 121.854 160.037ZM114.68 150.843C110.294 151.381 107.176 155.373 107.714 159.758L107.714 159.758L49.154 166.949C48.6059 167.016 48.216 167.515 48.2834 168.063C48.3507 168.611 48.8496 169.001 49.3978 168.934L107.958 161.743L107.958 161.743C108.497 166.129 112.488 169.247 116.873 168.709C121.259 168.17 124.377 164.179 123.839 159.793L123.595 157.808C123.057 153.423 119.065 150.304 114.68 150.843ZM117.892 156.493C118.167 156.46 118.361 156.21 118.328 155.936C118.294 155.662 118.045 155.467 117.771 155.501C117.496 155.535 117.302 155.784 117.335 156.058C117.369 156.332 117.618 156.527 117.892 156.493ZM118.084 153.951C118.118 154.225 117.923 154.475 117.649 154.508C117.375 154.542 117.125 154.347 117.091 154.073C117.058 153.799 117.253 153.549 117.527 153.516C117.801 153.482 118.05 153.677 118.084 153.951ZM115.664 154.752C115.938 154.718 116.133 154.469 116.099 154.195C116.065 153.921 115.816 153.726 115.542 153.76C115.268 153.793 115.073 154.043 115.106 154.317C115.14 154.591 115.39 154.786 115.664 154.752ZM114.114 154.439C114.148 154.713 113.953 154.962 113.679 154.996C113.404 155.03 113.155 154.835 113.121 154.561C113.088 154.286 113.283 154.037 113.557 154.003C113.831 153.97 114.08 154.165 114.114 154.439ZM113.922 156.981C114.196 156.947 114.391 156.698 114.358 156.424C114.324 156.15 114.074 155.955 113.8 155.988C113.526 156.022 113.331 156.272 113.365 156.546C113.399 156.82 113.648 157.015 113.922 156.981ZM116.343 156.18C116.376 156.454 116.181 156.704 115.907 156.737C115.633 156.771 115.384 156.576 115.35 156.302C115.316 156.028 115.511 155.778 115.785 155.745C116.06 155.711 116.309 155.906 116.343 156.18ZM118.38 160.464C118.654 160.43 118.849 160.181 118.815 159.906C118.782 159.632 118.532 159.437 118.258 159.471C117.984 159.505 117.789 159.754 117.823 160.028C117.856 160.302 118.106 160.497 118.38 160.464ZM118.572 157.921C118.605 158.195 118.41 158.445 118.136 158.479C117.862 158.512 117.613 158.317 117.579 158.043C117.545 157.769 117.74 157.52 118.014 157.486C118.288 157.452 118.538 157.647 118.572 157.921ZM116.151 158.722C116.425 158.689 116.62 158.439 116.586 158.165C116.553 157.891 116.303 157.696 116.029 157.73C115.755 157.763 115.56 158.013 115.594 158.287C115.628 158.561 115.877 158.756 116.151 158.722ZM114.601 158.409C114.635 158.683 114.44 158.932 114.166 158.966C113.892 159 113.642 158.805 113.609 158.531C113.575 158.257 113.77 158.007 114.044 157.973C114.318 157.94 114.568 158.135 114.601 158.409ZM114.41 160.951C114.684 160.917 114.879 160.668 114.845 160.394C114.811 160.12 114.562 159.925 114.288 159.959C114.014 159.992 113.819 160.242 113.853 160.516C113.886 160.79 114.136 160.985 114.41 160.951ZM116.83 160.15C116.864 160.424 116.669 160.674 116.395 160.707C116.121 160.741 115.871 160.546 115.838 160.272C115.804 159.998 115.999 159.749 116.273 159.715C116.547 159.681 116.797 159.876 116.83 160.15ZM118.867 164.434C119.141 164.4 119.336 164.151 119.303 163.877C119.269 163.603 119.02 163.408 118.746 163.441C118.471 163.475 118.277 163.724 118.31 163.999C118.344 164.273 118.593 164.467 118.867 164.434ZM119.059 161.892C119.093 162.166 118.898 162.415 118.624 162.449C118.35 162.482 118.1 162.287 118.066 162.013C118.033 161.739 118.228 161.49 118.502 161.456C118.776 161.423 119.025 161.617 119.059 161.892ZM119.878 156.25C120.152 156.216 120.347 155.967 120.313 155.693C120.279 155.418 120.03 155.224 119.756 155.257C119.482 155.291 119.287 155.54 119.32 155.814C119.354 156.088 119.603 156.283 119.878 156.25ZM120.365 160.22C120.639 160.186 120.834 159.937 120.8 159.663C120.767 159.389 120.517 159.194 120.243 159.227C119.969 159.261 119.774 159.51 119.808 159.785C119.841 160.059 120.091 160.254 120.365 160.22ZM120.557 157.678C120.59 157.952 120.395 158.201 120.121 158.235C119.847 158.268 119.598 158.074 119.564 157.799C119.53 157.525 119.725 157.276 119.999 157.242C120.273 157.209 120.523 157.404 120.557 157.678ZM120.609 162.205C120.883 162.171 121.078 161.922 121.044 161.648C121.01 161.374 120.761 161.179 120.487 161.212C120.213 161.246 120.018 161.496 120.052 161.77C120.085 162.044 120.335 162.239 120.609 162.205ZM116.639 162.692C116.913 162.659 117.108 162.409 117.074 162.135C117.04 161.861 116.791 161.666 116.517 161.7C116.243 161.734 116.048 161.983 116.081 162.257C116.115 162.531 116.364 162.726 116.639 162.692ZM115.089 162.379C115.122 162.653 114.928 162.903 114.653 162.936C114.379 162.97 114.13 162.775 114.096 162.501C114.063 162.227 114.258 161.977 114.532 161.944C114.806 161.91 115.055 162.105 115.089 162.379ZM114.897 164.921C115.171 164.888 115.366 164.638 115.333 164.364C115.299 164.09 115.049 163.895 114.775 163.929C114.501 163.962 114.306 164.212 114.34 164.486C114.374 164.76 114.623 164.955 114.897 164.921ZM111.937 157.225C112.211 157.191 112.406 156.942 112.373 156.667C112.339 156.393 112.089 156.198 111.815 156.232C111.541 156.266 111.346 156.515 111.38 156.789C111.414 157.063 111.663 157.258 111.937 157.225ZM112.616 158.653C112.65 158.927 112.455 159.176 112.181 159.21C111.907 159.243 111.657 159.049 111.624 158.774C111.59 158.5 111.785 158.251 112.059 158.217C112.333 158.184 112.583 158.378 112.616 158.653ZM112.425 161.195C112.699 161.161 112.894 160.912 112.86 160.638C112.826 160.364 112.577 160.169 112.303 160.202C112.029 160.236 111.834 160.485 111.867 160.76C111.901 161.034 112.151 161.229 112.425 161.195ZM113.104 162.623C113.137 162.897 112.942 163.146 112.668 163.18C112.394 163.214 112.145 163.019 112.111 162.745C112.078 162.471 112.272 162.221 112.547 162.187C112.821 162.154 113.07 162.349 113.104 162.623ZM112.912 165.165C113.186 165.131 113.381 164.882 113.347 164.608C113.314 164.334 113.064 164.139 112.79 164.173C112.516 164.206 112.321 164.456 112.355 164.73C112.389 165.004 112.638 165.199 112.912 165.165ZM110.44 161.439C110.714 161.405 110.909 161.155 110.875 160.881C110.841 160.607 110.592 160.412 110.318 160.446C110.044 160.48 109.849 160.729 109.882 161.003C109.916 161.277 110.165 161.472 110.44 161.439ZM117.318 164.12C117.351 164.394 117.156 164.644 116.882 164.678C116.608 164.711 116.359 164.516 116.325 164.242C116.291 163.968 116.486 163.719 116.76 163.685C117.035 163.651 117.284 163.846 117.318 164.12Z" fill="black"/>
</svg>
